<?xml version="1.0" encoding="utf-8"?>
<!-- Generator: Adobe Illustrator 26.3.1, SVG Export Plug-In . SVG Version: 6.00 Build 0)  -->
<svg version="1.1" id="Layer_1" xmlns="http://www.w3.org/2000/svg" xmlns:xlink="http://www.w3.org/1999/xlink" x="0px" y="0px"
	 viewBox="0 0 118.15 100" style="enable-background:new 0 0 118.15 100;" xml:space="preserve">
<style type="text/css">
	.st0{fill:#5B9B07;}
	.st1{opacity:0.5;}
	.st2{fill:#EAEA59;}
	.st3{opacity:0.5;fill:#5B9B07;}
	.st4{fill:#99B72A;}
	.st5{fill:#DBD74B;}
	.st6{fill:#FFE0B6;}
	.st7{fill:#92CE0F;}
	.st8{opacity:0.7;}
	.st9{fill:#DCDEDE;}
	.st10{fill:#FFFFFF;}
	.st11{fill:#007B7E;}
	.st12{fill:#00988C;}
	.st13{fill:#004036;}
	.st14{opacity:0.4;}
	.st15{fill:#EF8380;}
</style>
<symbol  id="Carloo" viewBox="-59.07 -50 118.15 100">
	<g>
		<path class="st0" d="M23.53,29.17c0,0,1.3,0.07,2.54-0.07c0.8-0.08-0.47,1.83-3.67,2.99c3.39,16.1,23.24,18.65,26.27,16.62
			c2.7-1.81,4.1-25.62-13.67-28.17C33.51,23.52,29.24,27.59,23.53,29.17z"/>
		<g class="st1">
			<path class="st0" d="M26.08,29.11c0.8-0.08-0.47,1.83-3.67,2.99c1.53,7.27,6.91,12.27,11.95,14.7c-5.54-2.99-6.02-8.57-2.97-6.19
				c7.56,5.92,15.48,5.27,15.48,5.27c0.61-8-1.77-12.32-4.73-16.18c-2.96-3.86-1.01-4.87,2.17-3.14c4.2,2.28,5.63,10.45,5.65,10.56
				c-1.09-7.14-5.04-15.15-14.94-16.58c-1.49,2.99-5.77,7.05-11.47,8.64C23.53,29.17,24.84,29.24,26.08,29.11z"/>
		</g>
		<g>
			<path class="st2" d="M31.56,37.87c4.09,6,11.57,7.57,14.78,7.3c0,0,0.89-14.5-14.06-20.67c-0.97,1.1-2.14,2.18-3.51,3.11
				C28.63,29.94,28.9,33.96,31.56,37.87z"/>
		</g>
		<g>
			<path class="st2" d="M28.77,27.62c-0.14,2.33,0.12,6.34,2.79,10.25c1.2,1.76,2.69,3.14,4.29,4.2c3.58-1.17,4.87-8.59-4.21-16.87
				C30.8,26.06,29.85,26.89,28.77,27.62z"/>
		</g>
		<path class="st3" d="M48.43,48.13c0,0-6.87,3.39-16.34-3.91C32.09,44.22,40.26,48.41,48.43,48.13z"/>
	</g>
	<g>
		<g>
			<path class="st0" d="M-3.01-31.96c0.57-4.42,0.48-8.69-1.58-9.04c-4.21-0.72-6.13,3.39-6.13,3.39c-1.37-3.85-7.57-3.85-6.26-2.44
				c1.3,1.41,1.3,2.83,1.3,2.83c-3.98-4.17-7.07-2.74-6.07-1.89c3.1,2.63,3.02,7.77,3.26,9.99c0.46,3.68,1.65,9.95,7.89,9.91
				C-4.39-19.26-3.3-27.17-3.01-31.96z"/>
			<g class="st1">
				<path class="st0" d="M-3.01-31.96c-0.29,4.79-1.38,12.71-7.58,12.74c-6.24,0.04-7.44-6.23-7.89-9.91
					c-0.24-2.22-0.16-7.36-3.26-9.99c-1-0.85,2.09-2.28,6.07,1.89c0,0,0-1.43-1.3-2.83c-1.3-1.41,4.89-1.41,6.26,2.44
					c0,0,1.92-4.11,6.13-3.39C-2.53-40.65-2.44-36.38-3.01-31.96z M-6.7-39.71c-2.83,0.55-3.83,5.19-3.83,5.19
					c-1.04-4.54-6.6-6.03-5.52-4.74c1.38,1.66,1.22,4.96,1.22,4.96c-0.78-2.48-4.36-4.83-5.32-4.22c-0.96,0.61,2.19,2.13,2.14,7.65
					c2.66-1.1,4.78-1.09,4.09-0.17c-0.7,0.91-1.17,1.83,0.83,0.26c2-1.56,6.43-2.87,6.09-2c-0.35,0.87-0.61,1.91,0.61,0.3
					C-5.18-34.09-3.87-40.26-6.7-39.71z"/>
			</g>
		</g>
		<g>
			<g>
				<path class="st2" d="M-4.38-40.95c-0.07-0.02-0.14-0.04-0.21-0.05c-4.21-0.72-6.13,3.39-6.13,3.39
					c-1.37-3.85-7.57-3.85-6.26-2.44c1.3,1.41,1.3,2.83,1.3,2.83c-2.58-2.71-4.79-3.05-5.75-2.73c-0.47-0.25-1.2-0.49-2.28-0.49
					c-2.26,0-4.22-0.44-4.48-4.22c-0.26-3.78,2.09-4.22,4.43-3.44c0,0,0.43-1.09,2.61-1.13c2.17-0.04,2.74,0.61,2.74,0.61
					s0.3-1.78,6.52-1.3c6.22,0.48,8.26,1.4,8.57,5.44C-3.17-42.68-3.72-41.6-4.38-40.95z"/>
				<path class="st4" d="M-10.26-43.61c0,0-0.19,0.08-0.52,0.2c-0.33,0.12-0.82,0.28-1.41,0.42c-0.59,0.14-1.3,0.27-2.07,0.29
					c-0.19,0.01-0.39-0.01-0.59-0.01c-0.2-0.02-0.4-0.03-0.6-0.07c-0.4-0.06-0.83-0.21-1.18-0.44c-0.72-0.46-1.26-1.15-1.62-1.84
					c-0.36-0.7-0.55-1.43-0.59-2.06c-0.04-0.64,0.11-1.18,0.3-1.51c0.2-0.33,0.39-0.44,0.43-0.4c0.05,0.05-0.06,0.22-0.17,0.53
					c-0.11,0.31-0.19,0.78-0.13,1.35c0.05,0.57,0.23,1.24,0.56,1.89c0.32,0.65,0.8,1.29,1.43,1.73c0.32,0.22,0.66,0.36,1.04,0.44
					c0.19,0.05,0.38,0.07,0.56,0.1c0.19,0.01,0.38,0.04,0.56,0.04c0.74,0.02,1.44-0.06,2.04-0.16c0.59-0.1,1.08-0.22,1.42-0.32
					C-10.46-43.55-10.26-43.61-10.26-43.61z"/>
				<path class="st4" d="M-16.83-42.05c0,0-0.74,0.2-1.89,0.29c-0.14,0.01-0.29,0.02-0.45,0.03c-0.16,0-0.32,0-0.48,0
					c-0.33,0.01-0.68-0.02-1.04-0.05c-0.18-0.01-0.36-0.05-0.55-0.08c-0.18-0.04-0.37-0.07-0.56-0.11l-0.29-0.1l-0.14-0.05
					l-0.13-0.08l-0.26-0.15c-0.08-0.06-0.16-0.13-0.24-0.19c-0.63-0.52-1.03-1.24-1.27-1.94c-0.24-0.71-0.32-1.41-0.28-2.01
					c0.05-0.6,0.21-1.1,0.42-1.39c0.08-0.16,0.2-0.25,0.27-0.31c0.07-0.06,0.12-0.08,0.15-0.06c0.02,0.02,0.02,0.08-0.01,0.16
					c-0.03,0.09-0.1,0.19-0.14,0.34c-0.13,0.28-0.23,0.73-0.25,1.27c-0.02,0.54,0.06,1.19,0.27,1.84c0.21,0.65,0.56,1.32,1.1,1.8
					c0.07,0.06,0.13,0.12,0.2,0.18l0.23,0.14l0.11,0.07l0.12,0.05l0.24,0.1c0.18,0.05,0.35,0.09,0.53,0.13
					c0.18,0.04,0.35,0.09,0.52,0.11c0.35,0.05,0.69,0.11,1.01,0.12c0.16,0.01,0.32,0.02,0.47,0.03c0.15,0,0.3,0,0.44,0
					C-17.59-41.92-16.83-42.05-16.83-42.05z"/>
				<g>
					<path class="st5" d="M-4.38-40.95c-0.07-0.02-0.14-0.04-0.21-0.05c-4.21-0.72-6.13,3.39-6.13,3.39
						c-1.37-3.85-7.57-3.85-6.26-2.44c1.3,1.41,1.3,2.83,1.3,2.83c-2.58-2.71-4.79-3.05-5.75-2.73c-0.47-0.25-1.2-0.49-2.28-0.49
						c-2.26,0-4.22-0.44-4.48-4.22c-0.26-3.78,2.09-4.22,4.43-3.44c0,0,0.43-1.09,2.61-1.13c2.17-0.04,2.74,0.61,2.74,0.61
						s0.3-1.78,6.52-1.3c6.22,0.48,8.26,1.4,8.57,5.44C-3.17-42.68-3.72-41.6-4.38-40.95z M-15.09-49.05
						c-4.08,0.42-3.52,2.05-3.39,2.63c0,0-0.54-1.7-3.45-1.44c-2.56,0.23-2.28,1.9-2.18,2.3c-0.12-0.36-0.71-1.77-2.66-1.31
						c-1.66,0.39-1.39,2.5-1.05,3.69c1.21,4.3,7.2,2.56,4.78,0.25c0,0,1.76,1.53,4.47,0.94c2.28-0.5,2.28-1.08,1.3-2.08
						c0,0,2.32,2.28,7.17,0C-5.24-46.35-11.52-49.42-15.09-49.05z"/>
				</g>
			</g>
			<path class="st6" d="M-27.81-45.66c0,0-0.52,2.05,0.83,3.78c1.19,1.53,3.04,1.07,3.04,1.07S-27.57-40.79-27.81-45.66z"/>
			<path class="st6" d="M-23.59-47.03c0,0-0.52,2.05,0.83,3.78c1.19,1.53,3.04,1.06,3.04,1.06S-23.35-42.16-23.59-47.03z"/>
			<path class="st6" d="M-17.9-48.11c0,0-0.52,2.05,0.83,3.78c1.19,1.53,3.04,1.06,3.04,1.06S-17.66-43.24-17.9-48.11z"/>
		</g>
	</g>
	<g>
		<g>
			<path class="st0" d="M-28.38,19.11c-2.86,3.46-15-0.63-22.44-13.16c-7.44-12.52-7.55-27.89-5.44-27.92
				c1.3-0.02,1.48,4.52,1.48,4.52s-0.09-4.96,1.48-5.22c1.57-0.26,1.83,4.87,1.83,4.87s-0.09-4.8,1.39-4.88
				c1.48-0.08,1.57,4.36,1.57,4.36s-0.22-4.51,1.61-4.5c1.83,0.01,2.55,2.48,4.49,9.78c1.94,7.31,4.42,12.39,9.25,16.96
				C-28.34,8.5-25.25,15.33-28.38,19.11z"/>
			<path class="st2" d="M-56.42-21.92c0.05-0.02,0.11-0.04,0.17-0.04c1.3-0.02,1.48,4.52,1.48,4.52s-0.09-4.96,1.48-5.22
				c1.57-0.26,1.83,4.87,1.83,4.87s-0.09-4.8,1.39-4.88c1.32-0.07,1.53,3.48,1.56,4.22c-0.02-0.75-0.02-4.37,1.61-4.36
				c0.37,0,0.63,0.11,0.81,0.33c1.06-0.1,3.08-0.49,4.14-1.92c2.26-3.04,0.68-6.86-1.52-4.83c-2.3,2.13-3.83,1.33-4.57-0.57
				c-0.74-1.91,1.04-4.43-0.87-5.17c-1.91-0.74-3.04,1.48-3.04,1.48s-0.57-1.96-3.52,0.78c0,0-1.35-0.56-2.87,2.09
				C-59.79-28.08-59.06-24.13-56.42-21.92z"/>
			<g>
				<path class="st4" d="M-50.95-26.52c0,0-0.12-0.07-0.31-0.24c-0.19-0.17-0.44-0.43-0.68-0.79c-0.24-0.36-0.48-0.82-0.63-1.34
					c-0.16-0.53-0.23-1.11-0.24-1.69c-0.03-1.16,0.26-2.36,0.75-3.11c0.24-0.38,0.5-0.65,0.72-0.81c0.21-0.15,0.36-0.2,0.4-0.15
					c0.08,0.12-0.36,0.46-0.74,1.18c-0.4,0.7-0.71,1.78-0.74,2.89c-0.02,0.56,0.01,1.12,0.12,1.62c0.11,0.51,0.29,0.97,0.49,1.33
					c0.2,0.37,0.42,0.65,0.59,0.83C-51.06-26.61-50.95-26.52-50.95-26.52z"/>
				<path class="st4" d="M-54.54-26c0,0-0.11-0.08-0.3-0.24c-0.18-0.16-0.43-0.4-0.69-0.74c-0.26-0.33-0.52-0.75-0.71-1.25
					c-0.2-0.49-0.3-1.07-0.3-1.64c-0.01-0.14,0-0.28,0.01-0.43c0.01-0.14,0.01-0.28,0.04-0.42c0.05-0.28,0.09-0.56,0.2-0.81
					c0.16-0.52,0.46-0.95,0.74-1.28c0.3-0.31,0.57-0.55,0.8-0.66c0.22-0.12,0.35-0.17,0.39-0.12c0.04,0.05-0.04,0.18-0.21,0.35
					c-0.17,0.16-0.39,0.41-0.65,0.71c-0.49,0.61-0.92,1.59-0.92,2.67c-0.03,0.54,0.03,1.07,0.17,1.55c0.14,0.48,0.35,0.91,0.57,1.26
					c0.22,0.34,0.44,0.61,0.6,0.79C-54.64-26.09-54.54-26-54.54-26z"/>
			</g>
		</g>
		<g class="st1">
			<path class="st0" d="M-28.38,19.11c-2.25,2.72-10.26,0.76-17.19-6.31c5.44,5.14,5.69,1.41,3.43-5.84
				c-1.98-6.35-3.08-9.37-1.19-8.22c1.89,1.15-0.81-4.5-2.07-12.53c-1.09-6.96-1.4-7.53-2.13-7.48c-0.73,0.05-0.67,3.83-0.56,6.35
				c0,0-0.65-5.43-1.87-5.13c-1.22,0.3-1.12,4.3-0.98,5.65c0,0-1.07-5.25-2.11-4.82c-1.04,0.43-1.65,2.85-1.1,5.83
				c-0.07-0.39-0.76-4.33-1.99-3.79c-1.29,0.57-0.94,6.67,0.74,12.54c-2.75-9.22-2.39-17.3-0.86-17.32c1.3-0.02,1.48,4.52,1.48,4.52
				s-0.09-4.96,1.48-5.22c1.57-0.26,1.83,4.87,1.83,4.87s-0.09-4.8,1.39-4.88c1.32-0.07,1.53,3.48,1.56,4.22
				c-0.02-0.75-0.02-4.37,1.61-4.36c1.83,0.01,2.55,2.48,4.49,9.78c1.94,7.31,4.42,12.39,9.25,16.96
				C-28.34,8.5-25.25,15.33-28.38,19.11z"/>
		</g>
		<path class="st3" d="M-56.18-11.78c0,0,0.72,15.26,11.74,25.15C-44.44,13.36-51.94,2.89-56.18-11.78z"/>
		<g>
			<path class="st5" d="M-41.95-24.39c-0.42,0.57-0.99,0.97-1.59,1.25l0,0c2-1.02,3.05-4.42,1.57-5.34
				c-1.48-0.91-2.3,1.91-4.65,1.96c-2.35,0.04-2.52-2.78-2.44-4.78c0.09-2-1.96-1.96-2.83-0.13c-0.87,1.83,0.34,4.4,0.34,4.4
				s-1.32-0.96-1.47-3.27c-0.16-2.3-2.03-2.43-2.74-0.29c-0.71,2.14,0.73,4.08,0.73,4.08c-1.79-1.48-1.42-4.41-2.68-4.08
				c-1.13,0.3-1.34,2.36-1.37,2.78c0.02-1.01,0.26-1.97,0.73-2.79c1.52-2.65,2.87-2.09,2.87-2.09c2.96-2.74,3.52-0.78,3.52-0.78
				s1.13-2.22,3.04-1.48c1.91,0.74,0.13,3.26,0.87,5.17c0.74,1.9,2.26,2.7,4.57,0.57C-41.26-31.26-39.69-27.44-41.95-24.39z"/>
		</g>
		<path class="st6" d="M-58.27-29.81c0,0-1.87,3.28,1.39,7C-56.88-22.81-58.8-26.27-58.27-29.81z"/>
		<path class="st6" d="M-54.91-31.67c0,0-2.35,2.4,0.56,5.66C-54.36-26-56.09-28.83-54.91-31.67z"/>
		<path class="st6" d="M-50.77-32.42c0,0-2.94,2.4-0.03,5.66C-50.8-26.75-52.4-29.58-50.77-32.42z"/>
	</g>
	<g>
		<g>
			<path class="st0" d="M3.01-31.96C2.43-36.38,2.53-40.65,4.59-41c4.21-0.72,6.13,3.39,6.13,3.39c1.37-3.85,7.57-3.85,6.26-2.44
				c-1.3,1.41-1.3,2.83-1.3,2.83c3.98-4.17,7.07-2.74,6.07-1.89c-3.1,2.63-3.02,7.77-3.26,9.99c-0.46,3.68-1.65,9.95-7.89,9.91
				C4.39-19.26,3.3-27.17,3.01-31.96z"/>
			<g class="st1">
				<path class="st0" d="M4.59-41c4.21-0.72,6.13,3.39,6.13,3.39c1.37-3.85,7.57-3.85,6.26-2.44c-1.3,1.41-1.3,2.83-1.3,2.83
					c3.98-4.17,7.07-2.74,6.07-1.89c-3.1,2.63-3.02,7.77-3.26,9.99c-0.46,3.68-1.65,9.95-7.89,9.91c-6.2-0.04-7.29-7.95-7.58-12.74
					C2.43-36.38,2.53-40.65,4.59-41z M6.39-32.48c1.22,1.61,0.96,0.57,0.61-0.3c-0.35-0.87,4.09,0.44,6.09,2
					c2,1.57,1.52,0.65,0.83-0.26c-0.7-0.91,1.43-0.93,4.09,0.17c-0.04-5.52,3.1-7.04,2.14-7.65c-0.96-0.61-4.54,1.74-5.32,4.22
					c0,0-0.16-3.3,1.22-4.96c1.08-1.29-4.48,0.2-5.52,4.74c0,0-1-4.63-3.83-5.19C3.87-40.26,5.18-34.09,6.39-32.48z"/>
			</g>
		</g>
		<g>
			<g>
				<path class="st2" d="M4.38-40.95c0.07-0.02,0.14-0.04,0.21-0.05c4.21-0.72,6.13,3.39,6.13,3.39c1.37-3.85,7.57-3.85,6.26-2.44
					c-1.3,1.41-1.3,2.83-1.3,2.83c2.58-2.71,4.79-3.05,5.75-2.73c0.47-0.25,1.2-0.49,2.28-0.49c2.26,0,4.22-0.44,4.48-4.22
					c0.26-3.78-2.09-4.22-4.43-3.44c0,0-0.44-1.09-2.61-1.13c-2.17-0.04-2.74,0.61-2.74,0.61s-0.3-1.78-6.52-1.3
					c-6.22,0.48-8.26,1.4-8.57,5.44C3.17-42.68,3.72-41.6,4.38-40.95z"/>
				<path class="st4" d="M10.26-43.61c0,0,0.19,0.08,0.52,0.2c0.33,0.12,0.81,0.28,1.41,0.42c0.59,0.14,1.3,0.27,2.07,0.29
					c0.19,0.01,0.39-0.01,0.59-0.01c0.2-0.02,0.4-0.03,0.6-0.07c0.4-0.06,0.83-0.21,1.18-0.44c0.72-0.46,1.26-1.15,1.62-1.84
					c0.36-0.7,0.55-1.43,0.59-2.06c0.04-0.64-0.11-1.18-0.3-1.51c-0.2-0.33-0.39-0.44-0.43-0.4c-0.05,0.05,0.06,0.22,0.17,0.53
					c0.11,0.31,0.19,0.78,0.14,1.35c-0.05,0.57-0.23,1.24-0.56,1.89c-0.32,0.65-0.8,1.29-1.43,1.73c-0.32,0.22-0.66,0.36-1.04,0.44
					c-0.18,0.05-0.38,0.07-0.56,0.1c-0.19,0.01-0.38,0.04-0.56,0.04c-0.74,0.02-1.44-0.06-2.04-0.16c-0.59-0.1-1.08-0.22-1.42-0.32
					C10.46-43.55,10.26-43.61,10.26-43.61z"/>
				<path class="st4" d="M16.83-42.05c0,0,0.74,0.2,1.89,0.29c0.14,0.01,0.29,0.02,0.45,0.03c0.16,0,0.32,0,0.48,0
					c0.33,0.01,0.68-0.02,1.04-0.05c0.18-0.01,0.36-0.05,0.55-0.08c0.19-0.04,0.37-0.07,0.56-0.11l0.29-0.1l0.14-0.05l0.13-0.08
					l0.26-0.15c0.08-0.06,0.16-0.13,0.24-0.19c0.63-0.52,1.03-1.24,1.28-1.94c0.24-0.71,0.32-1.41,0.28-2.01
					c-0.05-0.6-0.21-1.1-0.42-1.39c-0.08-0.16-0.2-0.25-0.27-0.31c-0.07-0.06-0.12-0.08-0.15-0.06c-0.02,0.02-0.02,0.08,0.01,0.16
					c0.03,0.09,0.1,0.19,0.14,0.34c0.13,0.28,0.23,0.73,0.25,1.27c0.02,0.54-0.06,1.19-0.27,1.84c-0.21,0.65-0.56,1.32-1.1,1.8
					c-0.07,0.06-0.13,0.12-0.2,0.18l-0.22,0.14l-0.11,0.07l-0.12,0.05l-0.24,0.1c-0.17,0.05-0.35,0.09-0.53,0.13
					c-0.18,0.04-0.35,0.09-0.52,0.11c-0.35,0.05-0.69,0.11-1.01,0.12c-0.16,0.01-0.32,0.02-0.47,0.03c-0.15,0-0.3,0-0.44,0
					C17.59-41.92,16.83-42.05,16.83-42.05z"/>
				<g>
					<path class="st5" d="M3.31-44.48c0.3-4.04,2.35-4.96,8.57-5.44c6.22-0.48,6.52,1.3,6.52,1.3s0.56-0.65,2.74-0.61
						c2.17,0.04,2.61,1.13,2.61,1.13c2.35-0.78,4.7-0.35,4.43,3.44c-0.26,3.78-2.22,4.22-4.48,4.22c-1.08,0-1.81,0.24-2.28,0.49
						c-0.96-0.32-3.16,0.02-5.75,2.73c0,0,0-1.43,1.3-2.83c1.3-1.41-4.89-1.41-6.26,2.44c0,0-1.92-4.11-6.13-3.39
						c-0.07,0.01-0.14,0.03-0.21,0.05C3.72-41.6,3.17-42.68,3.31-44.48z M10.1-44.07c4.86,2.28,7.17,0,7.17,0
						c-0.97,1-0.98,1.59,1.3,2.08c2.71,0.59,4.47-0.94,4.47-0.94c-2.42,2.31,3.58,4.05,4.78-0.25c0.33-1.19,0.61-3.3-1.06-3.69
						c-1.95-0.46-2.54,0.95-2.66,1.31c0.1-0.39,0.38-2.07-2.18-2.3c-2.91-0.26-3.45,1.44-3.45,1.44c0.13-0.59,0.68-2.22-3.39-2.63
						C11.52-49.42,5.24-46.35,10.1-44.07z"/>
				</g>
			</g>
			<path class="st6" d="M27.81-45.66c0,0,0.52,2.05-0.83,3.78c-1.19,1.53-3.04,1.07-3.04,1.07S27.57-40.79,27.81-45.66z"/>
			<path class="st6" d="M23.59-47.03c0,0,0.52,2.05-0.83,3.78c-1.19,1.53-3.04,1.06-3.04,1.06S23.35-42.16,23.59-47.03z"/>
			<path class="st6" d="M17.9-48.11c0,0,0.52,2.05-0.83,3.78c-1.19,1.53-3.04,1.06-3.04,1.06S17.66-43.24,17.9-48.11z"/>
		</g>
	</g>
	<g>
		<g>
			<path class="st0" d="M28.38,19.11c2.86,3.46,15-0.63,22.44-13.16c7.44-12.52,7.55-27.89,5.44-27.92
				c-1.3-0.02-1.48,4.52-1.48,4.52s0.09-4.96-1.48-5.22c-1.57-0.26-1.83,4.87-1.83,4.87s0.09-4.8-1.39-4.88
				c-1.48-0.08-1.57,4.36-1.57,4.36s0.22-4.51-1.61-4.5c-1.83,0.01-2.55,2.48-4.49,9.78c-1.94,7.31-4.42,12.39-9.25,16.96
				C28.34,8.5,25.25,15.33,28.38,19.11z"/>
			<path class="st2" d="M56.42-21.92c-0.06-0.02-0.11-0.04-0.17-0.04c-1.3-0.02-1.48,4.52-1.48,4.52s0.09-4.96-1.48-5.22
				c-1.57-0.26-1.83,4.87-1.83,4.87s0.09-4.8-1.39-4.88c-1.32-0.07-1.53,3.48-1.56,4.22c0.02-0.75,0.02-4.37-1.61-4.36
				c-0.37,0-0.63,0.11-0.81,0.33c-1.06-0.1-3.08-0.49-4.14-1.92c-2.26-3.04-0.68-6.86,1.52-4.83c2.3,2.13,3.83,1.33,4.57-0.57
				c0.74-1.91-1.04-4.43,0.87-5.17c1.91-0.74,3.04,1.48,3.04,1.48s0.56-1.96,3.52,0.78c0,0,1.35-0.56,2.87,2.09
				C59.79-28.08,59.06-24.13,56.42-21.92z"/>
			<g>
				<path class="st4" d="M50.95-26.52c0,0,0.12-0.07,0.31-0.24c0.19-0.17,0.44-0.43,0.68-0.79c0.24-0.36,0.48-0.82,0.63-1.34
					c0.16-0.53,0.22-1.11,0.24-1.69c0.03-1.16-0.26-2.36-0.75-3.11c-0.24-0.38-0.5-0.65-0.72-0.81c-0.21-0.15-0.36-0.2-0.4-0.15
					c-0.08,0.12,0.36,0.46,0.74,1.18c0.4,0.7,0.71,1.78,0.74,2.89c0.02,0.56-0.01,1.12-0.12,1.62c-0.11,0.51-0.29,0.97-0.49,1.33
					c-0.2,0.37-0.42,0.65-0.59,0.83C51.06-26.61,50.95-26.52,50.95-26.52z"/>
				<path class="st4" d="M54.53-26c0,0,0.11-0.08,0.3-0.24c0.18-0.16,0.43-0.4,0.69-0.74c0.26-0.33,0.52-0.75,0.71-1.25
					c0.2-0.49,0.3-1.07,0.3-1.64c0.01-0.14,0-0.28-0.01-0.43c-0.01-0.14-0.01-0.28-0.03-0.42c-0.05-0.28-0.09-0.56-0.2-0.81
					c-0.16-0.52-0.46-0.95-0.74-1.28c-0.3-0.31-0.57-0.55-0.8-0.66c-0.22-0.12-0.35-0.17-0.39-0.12c-0.04,0.05,0.04,0.18,0.21,0.35
					c0.17,0.16,0.39,0.41,0.65,0.71c0.49,0.61,0.92,1.59,0.92,2.67c0.03,0.54-0.03,1.07-0.17,1.55c-0.14,0.48-0.35,0.91-0.57,1.26
					c-0.22,0.34-0.44,0.61-0.6,0.79C54.64-26.09,54.53-26,54.53-26z"/>
			</g>
		</g>
		<g class="st1">
			<path class="st0" d="M28.38,19.11c2.25,2.72,10.26,0.76,17.19-6.31c-5.44,5.14-5.69,1.41-3.43-5.84
				c1.98-6.35,3.08-9.37,1.19-8.22c-1.89,1.15,0.81-4.5,2.07-12.53c1.09-6.96,1.4-7.53,2.13-7.48c0.73,0.05,0.67,3.83,0.56,6.35
				c0,0,0.65-5.43,1.87-5.13c1.22,0.3,1.12,4.3,0.98,5.65c0,0,1.07-5.25,2.12-4.82c1.04,0.43,1.65,2.85,1.1,5.83
				c0.07-0.39,0.76-4.33,1.99-3.79c1.29,0.57,0.94,6.67-0.74,12.54c2.75-9.22,2.39-17.3,0.86-17.32c-1.3-0.02-1.48,4.52-1.48,4.52
				s0.09-4.96-1.48-5.22c-1.57-0.26-1.83,4.87-1.83,4.87s0.09-4.8-1.39-4.88c-1.32-0.07-1.53,3.48-1.56,4.22
				c0.02-0.75,0.02-4.37-1.61-4.36c-1.83,0.01-2.55,2.48-4.49,9.78c-1.94,7.31-4.42,12.39-9.25,16.96
				C28.34,8.5,25.25,15.33,28.38,19.11z"/>
		</g>
		<path class="st3" d="M56.18-11.78c0,0-0.72,15.26-11.74,25.15C44.44,13.36,51.94,2.89,56.18-11.78z"/>
		<g>
			<path class="st5" d="M41.95-24.39c0.42,0.57,0.99,0.97,1.59,1.25l0,0c-2-1.02-3.05-4.42-1.57-5.34c1.48-0.91,2.3,1.91,4.65,1.96
				c2.35,0.04,2.52-2.78,2.44-4.78c-0.09-2,1.96-1.96,2.83-0.13c0.87,1.83-0.34,4.4-0.34,4.4s1.32-0.96,1.47-3.27
				c0.16-2.3,2.03-2.43,2.74-0.29c0.71,2.14-0.73,4.08-0.73,4.08c1.79-1.48,1.42-4.41,2.68-4.08c1.13,0.3,1.34,2.36,1.37,2.78
				c-0.02-1.01-0.26-1.97-0.73-2.79c-1.52-2.65-2.87-2.09-2.87-2.09c-2.96-2.74-3.52-0.78-3.52-0.78s-1.13-2.22-3.04-1.48
				c-1.91,0.74-0.13,3.26-0.87,5.17c-0.74,1.9-2.26,2.7-4.57,0.57C41.26-31.26,39.69-27.44,41.95-24.39z"/>
		</g>
		<path class="st6" d="M58.27-29.81c0,0,1.87,3.28-1.39,7C56.88-22.81,58.8-26.27,58.27-29.81z"/>
		<path class="st6" d="M54.91-31.67c0,0,2.35,2.4-0.56,5.66C54.35-26,56.09-28.83,54.91-31.67z"/>
		<path class="st6" d="M50.77-32.42c0,0,2.94,2.4,0.03,5.66C50.8-26.75,52.4-29.58,50.77-32.42z"/>
	</g>
	<g>
		<path class="st0" d="M-22.54,30.41c0,0-1.3,0.07-2.54-0.07c-0.8-0.08,0.47,1.83,3.67,2.98c-3.39,16.11-22.63,18.04-25.66,16
			c-2.7-1.81-4.1-25.62,13.67-28.17C-31.91,24.15-28.25,28.83-22.54,30.41z"/>
		<g class="st1">
			<path class="st0" d="M-25.08,30.35c-0.8-0.08,0.47,1.83,3.67,2.98c-1.53,7.27-6.3,11.66-11.34,14.09
				c5.54-2.99,6.02-8.57,2.97-6.19c-7.56,5.92-15.48,5.27-15.48,5.27c-0.61-8,1.77-12.32,4.73-16.18c2.96-3.86,1.01-4.87-2.17-3.14
				c-4.2,2.28-5.63,10.45-5.65,10.56c1.09-7.14,5.04-15.15,14.94-16.58c1.49,2.99,5.16,7.67,10.86,9.25
				C-22.54,30.41-23.84,30.48-25.08,30.35z"/>
		</g>
		<g>
			<path class="st2" d="M-29.95,38.5c-4.09,6-11.57,7.57-14.78,7.31c0,0-0.89-14.5,14.06-20.67c0.97,1.1,2.15,2.18,3.51,3.11
				C-27.03,30.58-27.29,34.59-29.95,38.5z"/>
		</g>
		<g>
			<path class="st2" d="M-27.17,28.25c0.14,2.33-0.12,6.34-2.79,10.25c-1.2,1.76-2.69,3.14-4.29,4.2
				c-3.58-1.17-4.87-8.59,4.21-16.87C-29.2,26.69-28.24,27.52-27.17,28.25z"/>
		</g>
		<path class="st3" d="M-46.82,48.76c0,0,6.87,3.39,16.34-3.91C-30.48,44.85-38.65,49.04-46.82,48.76z"/>
	</g>
	<path class="st7" d="M-4.05,43.44c0,0,0.18,4.76,3.91,5.91c1.13,0.35,0.17-1.74,0-4.61c0,0,3.63,4.31,10.64,3.41
		c1.53-0.2-3.08-4.02-3.08-4.02c3.22,1.78,9.52,1.06,10.22,0.04c0.48-0.7-3.78-1.52-3.78-1.52s11.12,0.83,19.05-10.7
		c5.62-8.18,7.53-20.46,7.39-25.57c-0.09-3.13-1.04-1.48-2.78,0c0,0,5.95-5.55,2.79-14.87c-0.81-2.39-1.07,1.07-2.25,3.67
		c0,0,1.79-5.36-1.2-9.76c-0.83-1.22,0.09,3.17-1.61,5.96c0,0,1.24-4.94-3.46-11.59c-4.7-6.65-9.41-7.96-8.48-6.26
		c1.57,2.87,1.24,4.7,1.24,4.7s-1.7-4.45-5.48-6.54c-2.04-1.13-1.22,0.61-1.22,0.61s-1.57-2.24-5.78-3.39
		c-1.43-0.39-0.09,1.22,0.3,3.52c0,0-1.52-3.78-6.67-4.3c-5.15-0.52-9.07,4.57-9.07,4.57s1.11-1.96,3-4.04
		c1.89-2.09-6.59-0.72-10.57,4.5c0,0,0.65-1.46,2.78-4.11C-6-33.61-13-31.83-18.22-25.44c0,0,0.87-1.57,2.61-3.96
		c1.74-2.39-5.22-2.13-11.04,7.65c0,0,0.33-1.37,0.96-3.65c0.48-1.74-4.09,1.3-4.61,6.57c0,0-0.11-3.2,0.28-6.07
		c0.39-2.87-8.81,1.5-7.7,19.96c0,0-0.65-1.11-1.17-3.85c-0.52-2.74-3.07,4.76,0,11.48c0,0-1.13-1.83-2.67-2.28
		c-1.11-0.33-0.31,1.26,0,2.02c1.24,3.07,3,21.2,9,25.11c0,0-1.04,0.34-2.93-0.78c-1.76-1.04,2.15,9.29,11.22,11.81
		c0,0-1.3,0.07-2.54-0.06c-1.24-0.13,2.51,4.59,10.76,3.72c1.24-0.13-0.2,1.11-1.76,1.44c-1.57,0.33,2.67,2.87,8.74,0.33
		c0,0-0.78,1.37-2.02,2.22C-12.35,47.05-7.22,48.24-4.05,43.44z"/>
	<g class="st8">
		<path class="st7" d="M37.52,6.39c1.74-1.48,2.7-3.13,2.78,0c0.14,5.11-1.77,17.39-7.39,25.57c-7.93,11.53-19.05,10.7-19.05,10.7
			s4.26,0.83,3.78,1.52c-0.7,1.02-7,1.74-10.22-0.04c0,0,4.61,3.83,3.08,4.02c-7.01,0.9-10.64-3.41-10.64-3.41
			c0.17,2.87,1.13,4.96,0,4.61c-3.73-1.15-3.91-5.91-3.91-5.91c-3.17,4.8-8.31,3.61-7.07,2.76c1.24-0.85,2.02-2.22,2.02-2.22
			c-6.07,2.54-10.31,0-8.74-0.33c1.57-0.33,3-1.57,1.76-1.44c-8.25,0.87-12-3.85-10.76-3.72c1.24,0.13,2.54,0.06,2.54,0.06
			c-9.07-2.52-12.98-12.85-11.22-11.81c1.9,1.13,2.93,0.78,2.93,0.78c-6-3.91-7.76-22.05-9-25.11c-0.31-0.76-1.11-2.35,0-2.02
			c1.55,0.46,2.67,2.28,2.67,2.28c-3.07-6.72-0.52-14.22,0-11.48c0.52,2.74,1.17,3.85,1.17,3.85c-1.11-18.46,8.09-22.83,7.7-19.96
			c-0.39,2.87-0.28,6.07-0.28,6.07c0.52-5.26,5.09-8.31,4.61-6.57c-0.63,2.28-0.96,3.65-0.96,3.65c5.83-9.78,12.78-10.04,11.04-7.65
			c-1.74,2.39-2.61,3.96-2.61,3.96C-13-31.83-6-33.61-8.13-30.96c-2.13,2.65-2.78,4.11-2.78,4.11c3.98-5.22,12.46-6.59,10.57-4.5
			c-1.89,2.09-3,4.04-3,4.04s3.91-5.09,9.07-4.57c5.15,0.52,6.67,4.3,6.67,4.3c-0.39-2.3-1.74-3.91-0.3-3.52
			c4.21,1.15,5.78,3.39,5.78,3.39s-0.83-1.74,1.22-0.61c3.78,2.09,5.48,6.54,5.48,6.54s0.33-1.83-1.24-4.7
			c-0.93-1.7,3.78-0.39,8.48,6.26c4.7,6.65,3.46,11.59,3.46,11.59c1.7-2.78,0.78-7.18,1.61-5.96c2.99,4.4,1.2,9.76,1.2,9.76
			c1.17-2.61,1.43-6.07,2.25-3.67C43.48,0.84,37.52,6.39,37.52,6.39z M37.35-1.27c-0.97-0.53-2.6,2.73-2.6,2.73
			c1.24-4.99,0.19-7.19-0.97-7.32c-1.17-0.13-1.5,2.72-1.5,2.72c0.22-13.23-5.35-17.76-6.59-17.5c-1.24,0.26-0.84,3.84-0.84,3.84
			c-1.43-4.97-4.57-8.25-5.57-8.08c-1,0.17,0,2.89,0,2.89c-1.13-2.85-3.55-5.4-5.15-5.31c-1.6,0.09-0.35,3.8-0.35,3.8
			s-2.07-6.11-9.49-5.82c-5.54,0.21-9.2,4.36-9.2,4.36s2.64-5.31-1.13-4.2c-3.77,1.11-6.58,5.24-6.58,5.24
			c1.82-4.06,2.47-6.26-1.39-3.45c-3.86,2.81-5.84,5.61-5.84,5.61c1.48-4.02,1.4-6-2.24-3.24c-3.64,2.76-5.17,6.28-5.17,6.28
			c0.87-4.19-0.65-3.71-1.99-1.07c-0.86,1.69-1.49,5.17-1.49,5.17c0.43-9.05-2.78-5.78-3.9-0.48c-1.64,7.79-0.8,14.69-0.8,14.69
			c-1.43-3.5-2.83-4.68-2.15-0.4c0.68,4.28,1.72,8.08,1.72,8.08c-4.44-5.81-2.35,7.07,1.82,14.78c4.57,8.44,6.83,8.63,6.83,8.63
			c-4.33-1.26-7.62-0.95-2.29,3.58c5.24,4.45,13.12,5.49,13.12,5.49c-4.33,0-6.57,0.99-4.73,1.55c4.51,1.37,10.97-0.17,10.97-0.17
			c-3.6,1.12-6.37,3.45-3.25,3.5c3.12,0.04,7.31-2.38,7.31-2.38c-2.87,1.98-3.93,4.2-1.5,3.64c2.43-0.56,4.46-4.23,4.46-4.23
			c-0.52,5.27,2.76,7.56,2.38,5.31c-0.38-2.25,0-4.72,0-4.72c2.95,4.65,9.01,4.89,7.87,2.85c-1.34-2.4-3.37-3.79-3.37-3.79
			c2.9,1.68,9.71,4.41,10.05,2.68c0.35-1.73-3.05-2.45-3.05-2.45c26,1.51,28.81-30.28,26.81-31.23c-1.85-0.87-4.13,2.33-4.13,2.33
			C38.65,4.69,38.33-0.75,37.35-1.27z"/>
	</g>
	<g>
		<g>
			<path class="st9" d="M-19.38,19.31c0,0-0.97-4.07,1.55-6.74c0,0-3.15,5.77,1.6,9.11c4.75,3.34,10.95-0.49,10.66-5.62
				c-0.24-4.31-3.34-7.61-8.97-7.27C-20.15,9.13-22.19,15.29-19.38,19.31z"/>
			<path class="st9" d="M4.09,16.33c0,0,1.09-2.89,2.66-3.64c-2.17,2.29-2.85,5.96-0.52,8.89c2.32,2.92,7.42,3.07,10.05-0.49
				c1.05-1.43,2.36-5.59-0.94-8.25c1.5,0.3,2.51,1.39,2.51,1.39s-1.27-4.69-7.72-4.27C3.68,10.37,3.83,15.54,4.09,16.33z"/>
		</g>
		<g>
			<path class="st9" d="M-21.3,23.91c0,0,2.35,4.32,6.23,3.76C-11.2,27.11-9.52,22-3.73,22.2c1.12,0.16,2.52,0.64,2.76,2.92
				c-0.96-2-2-2.56-4.47-1.68c-2.48,0.88-5.67,3.79-7.95,4.63C-15.68,28.91-18.26,29.46-21.3,23.91z"/>
			<g>
				<g>
					<path class="st10" d="M-6.32,17.02c0-3.26-2.65-5.91-5.91-5.91c-3.26,0-5.91,2.65-5.91,5.91c0,3.27,2.65,5.91,5.91,5.91
						C-8.97,22.93-6.32,20.29-6.32,17.02z"/>
					<g>
						<path class="st9" d="M-12.23,22.93c-3.26,0-5.91-2.65-5.91-5.91c0-3.26,2.65-5.91,5.91-5.91c3.27,0,5.91,2.65,5.91,5.91
							C-6.32,20.29-8.97,22.93-12.23,22.93z M-12.5,12.37c-2.8,0-5.08,2.27-5.08,5.08c0,2.8,2.27,5.07,5.08,5.07
							c2.8,0,5.08-2.27,5.08-5.07C-7.43,14.65-9.7,12.37-12.5,12.37z"/>
					</g>
				</g>
				<g>
					<path class="st10" d="M16.91,17.97c0-3.15-2.55-5.7-5.7-5.7c-3.15,0-5.7,2.55-5.7,5.7c0,3.15,2.55,5.7,5.7,5.7
						C14.36,23.67,16.91,21.12,16.91,17.97z"/>
					<g>
						<path class="st9" d="M11.21,23.67c-3.15,0-5.7-2.55-5.7-5.7c0-3.15,2.55-5.7,5.7-5.7c3.15,0,5.7,2.55,5.7,5.7
							C16.91,21.12,14.36,23.67,11.21,23.67z M10.95,13.49c-2.7,0-4.89,2.19-4.89,4.89c0,2.7,2.19,4.89,4.89,4.89
							c2.7,0,4.89-2.19,4.89-4.89C15.84,15.68,13.65,13.49,10.95,13.49z"/>
					</g>
				</g>
				<g>
					<path class="st11" d="M-9.87,17.23c0.07-1.35-0.9-2.46-2.17-2.48c-1.27-0.02-2.35,1.05-2.42,2.4c-0.07,1.35,0.9,2.46,2.17,2.48
						C-11.02,19.65-9.94,18.57-9.87,17.23z"/>
					<path class="st12" d="M-10.28,17.19c0.06-1.11-0.74-2.02-1.78-2.04c-1.04-0.02-1.93,0.87-1.99,1.97
						c-0.06,1.11,0.74,2.02,1.78,2.04C-11.23,19.18-10.33,18.3-10.28,17.19z"/>
					<path class="st13" d="M-10.93,17.18c0.04-0.7-0.46-1.27-1.12-1.28c-0.65-0.01-1.21,0.54-1.25,1.24
						c-0.04,0.7,0.47,1.27,1.12,1.28C-11.52,18.43-10.96,17.87-10.93,17.18z"/>
					<path class="st10" d="M-12.39,18.05c-0.15-0.3-0.5-0.51-0.79-0.46c-0.28,0.05-0.39,0.33-0.24,0.64
						c0.15,0.3,0.51,0.51,0.79,0.46C-12.34,18.64-12.23,18.36-12.39,18.05z"/>
					<path class="st10" d="M-13.33,16.99c0-0.14-0.1-0.26-0.23-0.26c-0.13,0-0.24,0.11-0.25,0.25c0,0.14,0.1,0.26,0.23,0.26
						C-13.45,17.24-13.34,17.13-13.33,16.99z"/>
				</g>
				<g>
					<path class="st11" d="M13.2,17.91c0.07-1.35-0.9-2.46-2.17-2.48c-1.27-0.02-2.35,1.05-2.42,2.4c-0.07,1.35,0.9,2.46,2.17,2.48
						C12.04,20.33,13.13,19.26,13.2,17.91z"/>
					<path class="st12" d="M12.79,17.88c0.06-1.11-0.74-2.02-1.78-2.04c-1.04-0.02-1.93,0.87-1.99,1.97
						c-0.06,1.11,0.74,2.02,1.78,2.04C11.84,19.87,12.73,18.98,12.79,17.88z"/>
					<path class="st13" d="M12.14,17.86c0.04-0.69-0.46-1.27-1.12-1.28c-0.65-0.01-1.21,0.54-1.25,1.24
						c-0.04,0.7,0.46,1.27,1.12,1.28C11.55,19.11,12.1,18.56,12.14,17.86z"/>
					<path class="st10" d="M10.68,18.74c-0.15-0.3-0.5-0.51-0.79-0.46c-0.29,0.05-0.39,0.33-0.24,0.64c0.15,0.3,0.51,0.51,0.79,0.46
						C10.73,19.33,10.83,19.04,10.68,18.74z"/>
					<path class="st10" d="M9.74,17.67c0.01-0.14-0.1-0.26-0.23-0.26c-0.13,0-0.25,0.11-0.25,0.25c0,0.14,0.1,0.26,0.23,0.26
						C9.62,17.93,9.73,17.81,9.74,17.67z"/>
				</g>
				<g>
					<path class="st14" d="M-9.27,11.38c-2.54-0.87-4.96-1.41-7.38,0.09c-2.23,1.39-3.49,4.08-3.04,6.68c0.01,0.09-0.09,0-0.11-0.04
						c-0.73-2.41,0.35-5.04,2.21-6.65c2.34-2.04,5.57-1.75,8.22-0.51C-9.25,11.01-9.05,11.46-9.27,11.38z"/>
					<path class="st14" d="M16.71,13.61c-0.97-0.55-1.76-1.29-2.82-1.7c-1.19-0.46-2.55-0.46-3.79-0.33
						c-2.32,0.24-4.48,1.77-5.52,3.85c-0.03,0.05-0.11-0.06-0.1-0.11c0.81-2.37,3.02-3.75,5.41-4.14c2.62-0.42,4.81,0.51,6.81,2.12
						C16.79,13.37,16.92,13.73,16.71,13.61z"/>
					<g>
						<path class="st9" d="M0.88,27.54c-0.02,0.1-0.16-0.06-0.15-0.12c0.08-0.98,0.09-1.94,0.01-2.92c-0.1-1.11-0.63-2.08-0.85-3.16
							c-0.05-0.26,0.28,0.02,0.32,0.13C1,23.54,1.24,25.35,0.88,27.54z"/>
						<path class="st14" d="M0.66,27.75c-0.02,0.1-0.16-0.06-0.16-0.12c0.08-0.99,0.09-1.94,0.01-2.92
							c-0.1-1.11-0.63-2.08-0.85-3.16c-0.05-0.26,0.28,0.02,0.32,0.13C0.79,23.75,1.03,25.56,0.66,27.75z"/>
						<path class="st14" d="M-1.26,25.44c-0.13-0.4-0.24-0.8-0.36-1.2c-0.24-0.86-1.61-0.9-2.27-0.86
							c-1.21,0.07-2.43,0.89-3.44,1.49c-1.97,1.18-3.68,2.63-5.84,3.49c-3.89,1.55-6.52-1.25-8.17-4.44c-0.02-0.04,0.02-0.03,0.03,0
							c1.36,2.33,3.15,4.77,6.18,4.44c2.33-0.26,4.41-2.1,6.24-3.41c1.58-1.13,3.5-2.47,5.53-2.24c1.71,0.19,2.16,1.38,2.54,2.85
							C-0.7,25.99-1.18,25.68-1.26,25.44z"/>
						<path class="st14" d="M14.72,30.03c-1.28,0.48-2.86-0.52-3.9-1.14c-1.47-0.87-2.61-2.12-3.87-3.25
							c-0.52-0.47-2.1-2.18-2.86-1.75c-0.57,0.33-0.61,1.9-0.7,2.48c-0.01,0.08-0.11-0.04-0.11-0.09c0.01-0.37-0.06-2.93,0.78-2.9
							c1.24,0.04,2.4,1.42,3.26,2.18c1.45,1.3,2.8,2.52,4.58,3.38c1.13,0.55,2.26,0.73,3.3-0.1c0.78-0.63,1.08-1.53,1.59-2.33
							c0.1-0.15,0.29,0.17,0.28,0.26C17.01,28.14,16,29.55,14.72,30.03z"/>
					</g>
					<path class="st9" d="M-20.37,2.77c-1.88,0.49-3.42-0.21-4.66-1.62c-0.97-1.09-1.31-3.85-0.29-4.94
						c0.2-0.21,0.59,0.41,0.55,0.59c-0.33,1.33-0.87,2.86-0.07,4.14c0.99,1.58,2.75,1.76,4.42,1.72
						C-20.38,2.65-20.31,2.75-20.37,2.77z"/>
					<path class="st9" d="M23.68,7.75c-1.74,0.64-3.47,0.66-5.24,0.12c0,0-0.01-0.01,0-0.01c1.48,0.25,2.9,0.13,4.33-0.32
						c1.55-0.5,2.34-1.9,3.2-3.16c0.17-0.25,0.49,0.28,0.48,0.44C26.34,6.01,24.74,7.35,23.68,7.75z"/>
					<path class="st14" d="M-20.43,3.51C-22.31,4-23.84,3.31-25.09,1.9c-0.97-1.09-1.31-3.85-0.29-4.94
						c0.2-0.21,0.59,0.41,0.55,0.59c-0.33,1.33-0.87,2.86-0.07,4.13c0.99,1.58,2.76,1.76,4.42,1.72C-20.45,3.4-20.37,3.5-20.43,3.51
						z"/>
					<path class="st14" d="M23.62,8.49c-1.74,0.64-3.47,0.66-5.24,0.13c0,0-0.01-0.01,0-0.01c1.48,0.25,2.9,0.13,4.33-0.32
						c1.55-0.5,2.34-1.9,3.2-3.16c0.17-0.25,0.49,0.28,0.48,0.44C26.28,6.76,24.68,8.1,23.62,8.49z"/>
				</g>
				<g>
					<path class="st9" d="M-24.43-2.89c0,0-0.99-9.06,12.6-13.47c11.98-3.3,23.29-2.27,32.91,6.61c9.62,8.88,1.01,20.36-11.11,14.24
						C-2.14-1.63-12.5-0.81-18.96,0.5C-22.12,1.47-24.24-0.5-24.43-2.89z"/>
					<path class="st15" d="M-22.6-2.91c0,0-0.92-8.21,11.67-12.2c11.1-2.99,21.57-2.06,30.49,5.98C28.47-1.08,20.49,9.33,9.27,3.78
						c-11.22-5.55-20.82-4.8-26.81-3.62C-20.47,1.04-22.43-0.74-22.6-2.91z"/>
					<path class="st15" d="M13.46-3.35c-2.5-0.52-5.06-1.26-7.34-2.43c-1.95-1-3.53-2.43-5.07-3.97C1.04-9.76,1.01-9.79,0.98-9.78
						c-3.88,2.01-8.21,3.45-12.62,2.74c-2.61-0.42-5.47-1.67-7.38-3.67c1.74-1.63,4.3-3.21,8.09-4.41
						c11.1-2.99,21.57-2.06,30.49,5.98c2.27,2.05,3.44,4.25,3.75,6.3C20.02-2.55,16.71-2.67,13.46-3.35z"/>
					<g>
						<path class="st10" d="M-4.93-4.85c2.06-0.13,2.71,3.1,2.84,4.82C-4.1-0.4-6.01-0.59-7.8-0.65C-7.63-1.88-6.99-4.72-4.93-4.85z
							"/>
						<path class="st9" d="M-7.8-0.65c0.02-0.17,0.06-0.36,0.1-0.58c0.87-0.18,1.73,0.08,2.65,0.07c0.62-0.01,1.02-0.29,1.13-0.92
							c0.16-0.93,0.04-1.87-0.34-2.69c1.54,0.52,2.06,3.21,2.17,4.74C-4.1-0.4-6.01-0.59-7.8-0.65z"/>
						<path class="st10" d="M1.59-3.3c2.05,0.14,2.79,3,2.75,4.99C2.3,0.97,0.32,0.44-1.57,0.07C-1.22-1.04-0.25-3.43,1.59-3.3z"/>
						<path class="st9" d="M4.34,1.69C2.3,0.97,0.32,0.44-1.57,0.07c0.05-0.16,0.11-0.35,0.19-0.55c0.37,0.03,0.72,0.09,1.08,0.24
							c0.42,0.17,0.83,0.36,1.26,0.49C1.6,0.43,2.22,0.23,2.49-0.41c0.39-0.95,0.22-1.82-0.12-2.67C3.83-2.37,4.38-0.02,4.34,1.69z"
							/>
						<path class="st10" d="M-11.01-4.18c1.74-0.05,2.52,2.32,2.81,3.51c-1.67-0.04-3.24,0.02-4.69,0.15
							C-12.95-1.54-12.88-4.12-11.01-4.18z"/>
						<path class="st9" d="M-12.9-0.51c-0.01-0.12-0.01-0.26-0.01-0.42c0.63-0.13,1.25-0.16,1.91-0.2c0.45-0.02,1-0.06,1.13-0.6
							c0.13-0.53,0.1-1.19-0.13-1.69c-0.11-0.23-0.24-0.45-0.38-0.67c1.31,0.45,1.93,2.38,2.17,3.42C-9.88-0.7-11.45-0.64-12.9-0.51
							z"/>
						<path class="st10" d="M-16.69-5.02c1.93-0.13,2.62,3.03,2.84,4.61c-1.35,0.15-2.58,0.36-3.69,0.58
							c-0.56,0.17-1.09,0.24-1.58,0.22C-19.08-0.98-18.8-4.88-16.69-5.02z"/>
						<path class="st9" d="M-17.54,0.16c-0.56,0.17-1.09,0.24-1.58,0.22c0.01-0.23,0.02-0.52,0.04-0.86
							c1.32,0.03,2.84-0.42,3.31-1.71c0.32-0.86,0.08-1.85-0.29-2.75c1.45,0.52,2.01,3.13,2.2,4.52
							C-15.19-0.26-16.43-0.06-17.54,0.16z"/>
						<path class="st10" d="M8.45-0.73c1.72,0.09,2.61,3,2.43,5.2c-0.53-0.2-1.06-0.43-1.6-0.69C8.06,3.18,6.87,2.66,5.7,2.2
							C6.09,1.13,7-0.8,8.45-0.73z"/>
						<path class="st9" d="M10.88,4.47c-0.53-0.2-1.06-0.43-1.6-0.69C8.06,3.18,6.87,2.66,5.7,2.2c0.06-0.18,0.15-0.38,0.24-0.59
							c0.82,0.27,1.55,0.75,2.35,1.07C8.88,2.9,9.39,2.88,9.5,2.16c0.13-0.83,0.12-1.68-0.07-2.48C10.5,0.57,11.02,2.74,10.88,4.47z
							"/>
						<path class="st10" d="M14.49,1.13c2.04,0.08,3.06,2.21,3.06,3.98c-1.82,0.41-3.98,0.31-6.33-0.5
							C11.61,3.42,12.61,1.05,14.49,1.13z"/>
						<path class="st9" d="M11.23,4.6c0.04-0.11,0.08-0.24,0.13-0.37c1.66,0.12,4.55,1.3,4.73-0.93c0.07-0.79-0.37-1.49-0.96-2.07
							c1.61,0.45,2.43,2.3,2.43,3.87C15.73,5.51,13.58,5.41,11.23,4.6z"/>
						<path class="st10" d="M12.78-8.77c-1.21-0.64-1.13-4.07-1.05-5.5c1.35,0.6,2.68,1.32,3.97,2.18
							C15.2-10.81,13.96-8.15,12.78-8.77z"/>
						<path class="st9" d="M13.59-8.8c0.55-0.9,0.84-2.13,0.43-2.99c-0.46-0.95-1.39-1.5-2.3-2.01c0.01-0.17,0.02-0.33,0.02-0.47
							c1.35,0.6,2.68,1.32,3.97,2.18C15.31-11.1,14.48-9.29,13.59-8.8z"/>
						<path class="st10" d="M6.13-11.52c-1.73-0.57-1.96-3.53-1.97-4.89c1.83,0.25,3.62,0.67,5.37,1.27
							C9.14-13.92,7.95-10.92,6.13-11.52z"/>
						<path class="st9" d="M6.79-11.45c0.74-1.23,1.41-2.83,0.04-3.78c-0.72-0.5-1.7-0.75-2.66-0.84c0-0.11-0.01-0.23-0.01-0.33
							c1.83,0.25,3.62,0.67,5.37,1.27C9.19-14.07,8.24-11.65,6.79-11.45z"/>
						<path class="st10" d="M-14.69-8.41c-1.37-0.05-1.96-2.69-2.16-3.98c1.28-0.84,2.84-1.63,4.74-2.32
							C-12.27-12.32-13.07-8.35-14.69-8.41z"/>
						<path class="st9" d="M-14.2-8.52c0.36-1.12,0.55-2.33,0.4-3.49c-0.05-0.42-0.33-0.88-0.81-0.83c-0.82,0.09-1.48,0.6-2.11,1.14
							c-0.05-0.25-0.09-0.49-0.13-0.69c1.28-0.84,2.84-1.63,4.74-2.32C-12.25-12.58-12.91-9.18-14.2-8.52z"/>
						<path class="st10" d="M17.75-3.8c-1.75-0.95-1.37-5.82-1.16-7.7c1.01,0.71,2,1.5,2.97,2.37c0.53,0.48,1,0.97,1.41,1.46
							C20.51-6.04,19.38-2.91,17.75-3.8z"/>
						<path class="st9" d="M18.42-3.65c0.57-1.3,1.26-2.7,0.57-4.07c-0.53-1.05-1.46-2.01-2.5-2.74c0.03-0.4,0.07-0.76,0.1-1.04
							c1.01,0.71,2,1.5,2.97,2.37c0.53,0.48,1,0.97,1.41,1.46C20.58-6.27,19.69-3.77,18.42-3.65z"/>
						<path class="st10" d="M-7.93-11.65c-1.46-0.28-1.7-2.71-1.73-3.79c1.33-0.32,2.64-0.59,3.95-0.79
							C-5.89-14.5-6.36-11.35-7.93-11.65z"/>
						<path class="st9" d="M-7.27-11.74c0.15-0.64,0.21-1.29,0.22-1.94c0-0.45-0.02-1.04-0.43-1.34c-0.59-0.43-1.42-0.2-2.15,0.11
							c-0.02-0.19-0.02-0.37-0.03-0.53c1.33-0.32,2.64-0.59,3.95-0.79C-5.87-14.77-6.22-12.3-7.27-11.74z"/>
						<path class="st10" d="M-1.37-12.74c-1.4-0.02-1.93-2.53-2.1-3.76c1.58-0.15,3.14-0.21,4.68-0.15
							C0.85-15.29-0.01-12.73-1.37-12.74z"/>
						<path class="st9" d="M-0.93-12.83c0.54-1.19,1.05-2.96-0.28-3.4c-0.66-0.22-1.44-0.11-2.2,0.09
							c-0.02-0.13-0.04-0.25-0.06-0.36c1.58-0.15,3.14-0.21,4.68-0.15C0.89-15.45,0.18-13.29-0.93-12.83z"/>
					</g>
				</g>
			</g>
			<path class="st9" d="M3.64,24.18c0,0,0.43-1.39,2.22,0.32c1.79,1.72,6.25,5.68,8.47,5.29c2.22-0.39,2.47-2.32,2.64-4
				c-0.86,1-2.07,3.75-4.11,3c-2.04-0.75-4.93-3.32-6.61-4.72C4.57,22.68,3.86,22.61,3.64,24.18z"/>
			<path class="st14" d="M12.94,6.37C8.01,5.92,3.69,2.84-1.14,2.01C-6.64,1.06-12.18,1.25-17.69,2c-0.03,0-0.09-0.07-0.05-0.09
				c2.1-1.28,5.06-1.24,7.43-1.24c2.72,0,5.37,0.11,8.06,0.47C0.37,1.48,2.78,2.5,5.26,3.38c2.47,0.87,5,1.53,7.47,2.38
				C12.92,5.82,13.3,6.4,12.94,6.37z"/>
			<path class="st14" d="M-20.64,4.35c-2.49,0.77-5.11-1.05-5.67-3.45c-0.03-0.14,0.16,0.01,0.18,0.07c0.82,2.45,2.84,3.02,5.25,2.9
				C-20.71,3.86-20.42,4.28-20.64,4.35z"/>
		</g>
	</g>
</symbol>
<use xlink:href="#Carloo"  width="118.15" height="100" x="-59.07" y="-50" transform="matrix(1 0 0 -1 59.0748 50)" style="overflow:visible;"/>
</svg>
