<?xml version="1.0" encoding="utf-8"?>
<!-- Generator: Adobe Illustrator 26.3.1, SVG Export Plug-In . SVG Version: 6.00 Build 0)  -->
<svg version="1.1" id="Layer_1" xmlns="http://www.w3.org/2000/svg" xmlns:xlink="http://www.w3.org/1999/xlink" x="0px" y="0px"
	 viewBox="0 0 87.51 100" style="enable-background:new 0 0 87.51 100;" xml:space="preserve">
<style type="text/css">
	.st0{fill:#FDB845;}
	.st1{fill:#61B724;}
	.st2{opacity:0.5;}
	.st3{fill:#539D1F;}
	.st4{fill:#A1E372;}
	.st5{fill:#BCD531;}
	.st6{fill:#B7EA93;}
	.st7{fill:#FFFFFF;}
	.st8{fill:#D5D7D8;}
	.st9{fill:#F4783F;}
	.st10{fill:#703410;}
	.st11{fill:#9559A4;}
	.st12{opacity:0.5;fill:#9559A4;}
	.st13{fill:#47214F;}
</style>
<symbol  id="Marg" viewBox="-43.76 -50 87.51 100">
	<g>
		<g>
			<path class="st0" d="M26.38-14.59c0,0,2.68-0.34,2.93-1.66c0.26-1.32-2.12-3.23-2.12-3.23L26.38-14.59z"/>
			<path class="st0" d="M27.83-16.33c0.15,0.56,0.68,0.67,1.21,0.63c-0.74,0.87-2.66,1.12-2.66,1.12l0.81-4.89
				c0,0,0.48,0.39,0.99,0.94C27.83-17.85,27.64-17.04,27.83-16.33z"/>
			<path class="st0" d="M27.91-21.87c0,0,3.1,0.13,3.46-0.93c0.35-1.06-2.48-3.95-2.48-3.95L27.91-21.87z"/>
			<path class="st0" d="M29.88-24.54c-0.14,0.46-0.36,0.97-0.22,1.45c0.14,0.52,0.83,0.67,1.45,0.64c-0.84,0.68-3.2,0.58-3.2,0.58
				l0.98-4.88c0,0,0.64,0.65,1.28,1.45C30.05-25.05,29.96-24.79,29.88-24.54z"/>
			<path class="st0" d="M29.91-29.51c0,0,3.26,0.86,3.79-0.13c0.53-1-2.26-3.92-2.26-3.92L29.91-29.51z"/>
			<path class="st0" d="M32.03-30.44c0.06,0.78,0.66,1.01,1.29,1.12c-1.02,0.45-3.41-0.19-3.41-0.19l1.53-4.06
				c0,0,0.56,0.59,1.13,1.32C32.23-31.69,31.98-31.08,32.03-30.44z"/>
			<path class="st0" d="M33.17-36.57c0,0,2.79,0.8,3.66,0.4c0.86-0.4-1.46-4.39-1.46-4.39L33.17-36.57z"/>
			<path class="st0" d="M35.61-37.16c0.01,0.61,0.51,0.91,1.06,1.05c-1,0.26-3.51-0.45-3.51-0.45l2.19-3.99c0,0,0.44,0.76,0.87,1.64
				C35.84-38.42,35.6-37.8,35.61-37.16z"/>
			<path class="st0" d="M37.49-43.15c0,0,2.61,1.13,3.33,0.63c0.72-0.5-0.38-3.18-0.36-3.25C40.49-45.85,37.49-43.15,37.49-43.15z"
				/>
			<path class="st0" d="M39.67-43.21c0.08,0.35,0.38,0.61,0.72,0.81c-1.01,0.07-2.9-0.75-2.9-0.75s2.99-2.7,2.97-2.62
				c-0.01,0.03,0.14,0.42,0.29,0.93C40.15-44.55,39.51-43.86,39.67-43.21z"/>
			<path class="st0" d="M41.58-46.68c0,0,0.86,0.96,1.55,0.74c0.69-0.22,0.14-2.58,0.14-2.58L41.58-46.68z"/>
			<path class="st0" d="M42.8-46.75c-0.05,0.33,0.1,0.61,0.32,0.81c-0.69,0.19-1.54-0.74-1.54-0.74l1.7-1.84c0,0,0.08,0.36,0.14,0.8
				C43.11-47.47,42.86-47.17,42.8-46.75z"/>
		</g>
		<g>
			<path class="st0" d="M-42.45-6.74c0,0-1.4,1.06-1.3,1.78c0.1,0.72,1.73,0.53,1.73,0.53L-42.45-6.74z"/>
			<path class="st0" d="M-41.88-3.38c0,0-2.07,1.4-1.78,2.5c0.29,1.11,2.5,0.91,2.5,0.91L-41.88-3.38z"/>
			<path class="st0" d="M-43.26-0.34c0.53-0.22,0.87-0.64,0.9-1.34c0.02-0.41-0.04-0.82-0.13-1.23c0.33-0.29,0.61-0.47,0.61-0.47
				l0.72,3.42C-41.15,0.04-42.53,0.16-43.26-0.34z"/>
			<path class="st0" d="M-40.48,2.16c0,0-2.21,1.44-2.12,2.74c0.1,1.3,2.94,0.82,2.94,0.82L-40.48,2.16z"/>
			<path class="st0" d="M-42.14,5.56c0.5-0.11,0.85-0.45,0.82-1.18c-0.02-0.46-0.12-0.9-0.24-1.34c0.54-0.52,1.08-0.87,1.08-0.87
				l0.82,3.56C-39.66,5.72-41.31,6-42.14,5.56z"/>
			<path class="st0" d="M-38.84,7.69c0,0-1.64,3.95-0.72,5.25c0.91,1.3,2.89-0.72,2.89-0.72S-38.94,7.74-38.84,7.69z"/>
			<path class="st0" d="M-36.68,12.22c0,0-1.23,1.26-2.2,1.15c0.72-0.92,0.11-2.59-0.54-3.99c0.27-0.94,0.58-1.68,0.58-1.68
				C-38.94,7.74-36.68,12.22-36.68,12.22z"/>
			<path class="st0" d="M-36.44,12.32c0,0-1.79,3.84-0.59,5.43c1.2,1.59,3.72-0.86,3.72-0.86L-36.44,12.32z"/>
			<path class="st0" d="M-36.3,18.24c1.39-0.99,0.24-2.94-0.75-4.28c0.28-0.93,0.61-1.64,0.61-1.64l3.13,4.57
				C-33.31,16.89-35.02,18.56-36.3,18.24z"/>
			<path class="st0" d="M-33.31,16.21c0,0-1.15,4.43-0.38,5.15c0.77,0.72,3.22-1.83,3.22-1.83L-33.31,16.21z"/>
			<path class="st0" d="M-33.05,21.45c0.46-0.97,0.1-2.17-0.73-3.01c0.19-1.17,0.47-2.23,0.47-2.23l2.84,3.32
				C-30.47,19.54-32.03,21.15-33.05,21.45z"/>
		</g>
		<g>
			<path class="st0" d="M39.02-6.84c0,0,1.4,1.06,1.3,1.78c-0.1,0.72-1.73,0.53-1.73,0.53L39.02-6.84z"/>
			<path class="st0" d="M38.45-3.47c0,0,2.07,1.4,1.78,2.5c-0.29,1.11-2.5,0.91-2.5,0.91L38.45-3.47z"/>
			<path class="st0" d="M39.83-0.43c-0.53-0.22-0.87-0.64-0.9-1.34C38.91-2.18,38.97-2.59,39.05-3c-0.33-0.29-0.61-0.47-0.61-0.47
				l-0.72,3.42C37.73-0.06,39.1,0.06,39.83-0.43z"/>
			<path class="st0" d="M37.05,2.06c0,0,2.21,1.44,2.12,2.74c-0.1,1.3-2.94,0.82-2.94,0.82L37.05,2.06z"/>
			<path class="st0" d="M38.71,5.46c-0.5-0.11-0.85-0.45-0.82-1.18c0.02-0.46,0.12-0.9,0.24-1.34c-0.54-0.52-1.08-0.87-1.08-0.87
				l-0.82,3.56C36.23,5.62,37.88,5.9,38.71,5.46z"/>
			<path class="st0" d="M35.41,7.6c0,0,1.64,3.95,0.72,5.25c-0.91,1.3-2.89-0.72-2.89-0.72S35.51,7.65,35.41,7.6z"/>
			<path class="st0" d="M33.25,12.12c0,0,1.23,1.26,2.2,1.15c-0.72-0.92-0.11-2.6,0.55-3.99c-0.27-0.94-0.58-1.68-0.58-1.68
				C35.51,7.65,33.25,12.12,33.25,12.12z"/>
			<path class="st0" d="M33.01,12.22c0,0,1.79,3.84,0.59,5.43c-1.2,1.59-3.72-0.86-3.72-0.86L33.01,12.22z"/>
			<path class="st0" d="M32.87,18.14c-1.39-0.99-0.24-2.94,0.75-4.28c-0.28-0.93-0.61-1.64-0.61-1.64l-3.13,4.57
				C29.88,16.79,31.6,18.46,32.87,18.14z"/>
			<path class="st0" d="M29.88,16.12c0,0,1.16,4.43,0.39,5.15c-0.77,0.72-3.22-1.83-3.22-1.83L29.88,16.12z"/>
			<path class="st0" d="M29.62,21.35c-0.46-0.97-0.1-2.17,0.73-3.01c-0.19-1.17-0.47-2.23-0.47-2.23l-2.84,3.32
				C27.04,19.44,28.6,21.06,29.62,21.35z"/>
		</g>
	</g>
	<path class="st1" d="M26.3-5.93c0,0,0.22-26.29,14.06-39.06c5.05-4.39,4.79-6.25-2.93-4.12c-7.72,2.13-20.49,11.97-22.35,29.53
		C12.95-0.56,25.55,3.87,26.3-5.93z"/>
	<g class="st2">
		<path class="st1" d="M36.65-46.66c-2.6,1.4-5.08,3.19-6.98,5.47c-2.32,2.76-4.62,6.05-4.96,9.75c-0.35,3.8,2.06,6.97,3.53,10.33
			C26.36-12.74,26.3-5.93,26.3-5.93c-0.75,9.8-13.35,5.37-11.22-13.66c1.86-17.56,14.63-27.4,22.35-29.53
			c4.32-1.19,6.3-1.13,6.33-0.08C41.25-48.77,38.79-47.82,36.65-46.66z"/>
	</g>
	<g class="st2">
		<path class="st1" d="M21.57-30.85c1.14,4.45,3.52,8.45,6.16,12.2C26.35-11.45,26.3-5.93,26.3-5.93
			c-0.75,9.8-13.35,5.37-11.22-13.66c0.7-6.65,2.98-12.19,5.94-16.63C20.92-34.42,21.12-32.6,21.57-30.85z"/>
	</g>
	<g>
		<path class="st1" d="M28.52-24.59c0,0,3.42-15.1,13.35-22.22C34.14-44.7,27.82-29.07,28.52-24.59z"/>
	</g>
	<g>
		<g>
			<path class="st1" d="M-5.99-30.33c-0.02,1.96-0.87,4.98-1.01,5.67c-0.51,2.36-1.17,4.71-1.79,7.04
				c-0.55,2.06-1.21,4.16-2.52,5.88c-1.48,1.93-3.84,2.83-6.19,2.04c-5.37-1.81-5.67-9.55-5.83-14.18c-0.04-1.2-0.01-2.42,0.3-3.59
				c0.15-0.57,1.24-3.36,2.01-1.98c-0.1-1.74-0.27-3.66,0.59-5.14c0.2-0.35,0.61-0.37,0.88-0.08c0.04,0.04,0.07,0.08,0.1,0.13
				c-0.88-1.36,0.09-3.46,0.63-4.77c0.42-1.02,0.31-1.25-0.76-1.55c-1.06-0.3-1.98-0.72-2.91-1.32c-1.31-0.85-2.63-1.77-3.43-3.15
				c-0.5-0.86-0.97-2.25-0.69-3.26c0.52-1.91,3.1-1.23,4.47-1.12c2.29,0.19,5.03,0.35,7.32,0.49c1.7,0.1,3.45,0.42,5.14,0.75
				c2.93,0.58,2.38,1.48,2.44,2.93c0.97-0.29,0.56,1.59,0.55,2.19c-0.03,2.92,0.49,4.72-0.63,7.47c0.52-0.34,0.86-0.37,1.02,0.41
				c0.26,1.23-0.5,2.94-0.88,4.08C-5.85-32.88-5.98-31.32-5.99-30.33z"/>
		</g>
		<g>
			<path class="st1" d="M-5.99-30.33c-0.02,1.96-0.87,4.98-1.01,5.67c-0.51,2.36-1.17,4.71-1.79,7.04
				c-0.55,2.06-1.21,4.16-2.52,5.88c-1.48,1.93-3.84,2.83-6.19,2.04c-5.23-1.76-5.65-9.13-5.82-13.79
				c1.89-0.85,5.77-2.45,10.62-3.59c2.9-0.77,4.69-4.44,1.37-2.56c2.56-4.01,2.05-6.4-0.09-3.76c0,0,2.79-6.87,2.13-8.45
				c-0.43-1.02-2.05,1.79-2.05,1.79s2.06-5.78-1.45-7.09c-3.67-1.37-5.89-1.45-6.23,0.17c-0.34,1.62,0.77,2.73,1.96,2.99
				c0,0-4.52-0.51-5.04-3.24c-0.34-1.79-1.96-1.71-2.22,0.34c-0.26,2.05,2.57,2.97,2.57,2.97s-3.51-0.58-3.85-2.8
				c-0.16-1.05-0.63-1.52-1.08-1.45c0.01-0.15,0.03-0.29,0.07-0.43c0.52-1.91,3.1-1.23,4.47-1.12c2.29,0.19,5.03,0.35,7.32,0.49
				c1.7,0.1,3.45,0.42,5.14,0.75c2.93,0.58,2.38,1.48,2.44,2.93c0.97-0.29,0.56,1.59,0.55,2.19c-0.03,2.92,0.49,4.72-0.63,7.47
				c0.52-0.34,0.86-0.37,1.02,0.41c0.26,1.23-0.5,2.94-0.88,4.08C-5.85-32.88-5.98-31.32-5.99-30.33z"/>
		</g>
		<g>
			<path class="st3" d="M-15.64-43.81c-1.35,0.23-3.19-0.27-4.01-1.44c-0.77-1.08-1.56-3.16-0.49-4.29c0.15-0.15,0.39,0.3,0.35,0.43
				c-0.17,0.57-0.36,0.96-0.34,1.58c0.03,1.12,0.53,2.15,1.48,2.76c0.87,0.55,1.95,0.63,2.93,0.78
				C-15.67-43.98-15.56-43.82-15.64-43.81z"/>
			<path class="st3" d="M-21.69-43.71c-1.47-0.25-2.51-1.16-3-2.56c-0.33-0.96-0.49-2.96,0.39-3.69c0.15-0.13,0.37,0.27,0.32,0.4
				c-0.26,0.66-0.51,1.12-0.51,1.84c0,0.5,0.05,1.06,0.18,1.55c0.32,1.23,1.43,1.88,2.55,2.27C-21.7-43.89-21.58-43.69-21.69-43.71z
				"/>
		</g>
		<path class="st3" d="M-16.1-29.95c-0.73-0.08-1.42-0.07-2.14,0.11c-0.79,0.19-1.74,0.89-2.17,1.53c-0.11,0.16-0.06-0.15,0.02-0.29
			c0.42-0.78,0.96-1.49,1.78-1.86c0.74-0.34,1.56-0.23,2.32-0.05C-16.09-30.46-15.77-29.91-16.1-29.95z"/>
		<path class="st1" d="M-17.59-29.42c-0.44,0.13-0.84,0.31-1.25,0.51c-0.29,0.14-0.68,0.39-0.79,0.7c-0.03,0.09-0.2-0.1-0.18-0.17
			c0.09-0.36,0.38-0.54,0.62-0.79c0.33-0.34,0.97-0.56,1.44-0.58C-17.64-29.75-17.43-29.46-17.59-29.42z"/>
		<path class="st1" d="M-16.75-40.66c-1.09,1.88-1.8,5.54-1.55,7.71c0.04,0.32-0.28,0.2-0.41,0.06c-0.29-0.31-0.8-0.82-0.89-0.09
			c-0.08,0.62-0.01,1.28,0.01,1.9c0.01,0.19-0.2-0.03-0.22-0.12c-0.15-0.82-0.62-2.1-0.11-2.87c0.2-0.31,0.62-0.03,0.96,0.27
			c-0.08-1.06,0.05-1.99,0.33-3.08c0.28-1.1,0.55-2.38,1.34-3.23C-17.09-40.33-16.62-40.89-16.75-40.66z"/>
	</g>
	<g>
		<g>
			<path class="st1" d="M3.77-31.39c-0.38-1.14-1.14-2.85-0.88-4.08c0.16-0.78,0.5-0.76,1.02-0.41c-1.12-2.76-0.6-4.55-0.63-7.47
				c-0.01-0.6-0.41-2.48,0.55-2.19c0.06-1.44-0.49-2.35,2.44-2.93c1.69-0.33,3.44-0.65,5.14-0.75c2.29-0.14,5.03-0.3,7.32-0.49
				c1.38-0.11,3.95-0.79,4.47,1.12c0.27,1-0.2,2.39-0.69,3.26c-0.8,1.38-2.12,2.31-3.43,3.15c-0.93,0.6-1.85,1.02-2.91,1.32
				c-1.07,0.31-1.18,0.53-0.76,1.55c0.54,1.31,1.51,3.42,0.63,4.77c0.03-0.05,0.06-0.09,0.1-0.13c0.27-0.29,0.67-0.27,0.88,0.08
				c0.86,1.49,0.69,3.4,0.59,5.14c0.77-1.38,1.86,1.41,2.01,1.98c0.3,1.17,0.34,2.39,0.3,3.59c-0.16,4.63-0.46,12.37-5.83,14.18
				C11.74-8.9,9.38-9.8,7.9-11.74c-1.31-1.72-1.97-3.82-2.52-5.88c-0.62-2.34-1.28-4.68-1.79-7.04c-0.15-0.69-1-3.71-1.01-5.67
				C2.56-31.32,2.44-32.88,3.77-31.39z"/>
		</g>
		<g>
			<path class="st1" d="M2.57-30.33c0.02,1.96,0.87,4.98,1.01,5.67c0.51,2.36,1.17,4.71,1.79,7.04c0.55,2.06,1.21,4.16,2.52,5.88
				C9.38-9.8,11.74-8.9,14.1-9.69c5.23-1.76,5.65-9.13,5.82-13.79c-1.89-0.85-5.77-2.45-10.62-3.59c-2.9-0.77-4.7-4.44-1.37-2.56
				c-2.56-4.01-2.05-6.4,0.09-3.76c0,0-2.8-6.87-2.13-8.45c0.43-1.02,2.05,1.79,2.05,1.79s-2.06-5.78,1.45-7.09
				c3.67-1.37,5.89-1.45,6.23,0.17c0.34,1.62-0.77,2.73-1.96,2.99c0,0,4.52-0.51,5.04-3.24c0.34-1.79,1.96-1.71,2.22,0.34
				c0.26,2.05-2.57,2.97-2.57,2.97s3.51-0.58,3.85-2.8c0.16-1.05,0.63-1.52,1.08-1.45c-0.01-0.15-0.03-0.29-0.07-0.43
				c-0.52-1.91-3.1-1.23-4.47-1.12c-2.29,0.19-5.03,0.35-7.32,0.49c-1.7,0.1-3.45,0.42-5.14,0.75c-2.93,0.58-2.38,1.48-2.44,2.93
				c-0.97-0.29-0.56,1.59-0.55,2.19c0.03,2.92-0.49,4.72,0.63,7.47c-0.52-0.34-0.86-0.37-1.02,0.41c-0.26,1.23,0.5,2.94,0.88,4.08
				C2.44-32.88,2.56-31.32,2.57-30.33z"/>
		</g>
		<g>
			<path class="st3" d="M12.22-43.81c1.35,0.23,3.19-0.27,4.01-1.44c0.77-1.08,1.56-3.16,0.49-4.29c-0.15-0.15-0.39,0.3-0.35,0.43
				c0.17,0.57,0.36,0.96,0.34,1.58c-0.03,1.12-0.53,2.15-1.49,2.76c-0.87,0.55-1.95,0.63-2.93,0.78
				C12.25-43.98,12.14-43.82,12.22-43.81z"/>
			<path class="st3" d="M18.28-43.71c1.47-0.25,2.51-1.16,3-2.56c0.33-0.96,0.49-2.96-0.39-3.69c-0.15-0.13-0.37,0.27-0.32,0.4
				c0.26,0.66,0.51,1.12,0.51,1.84c0,0.5-0.05,1.06-0.18,1.55c-0.32,1.23-1.43,1.88-2.55,2.27C18.28-43.89,18.16-43.69,18.28-43.71z
				"/>
		</g>
		<path class="st3" d="M12.68-29.95c0.73-0.08,1.42-0.07,2.14,0.11c0.79,0.19,1.74,0.89,2.17,1.53c0.11,0.16,0.05-0.15-0.02-0.29
			c-0.42-0.78-0.96-1.49-1.78-1.86c-0.74-0.34-1.56-0.23-2.32-0.05C12.67-30.46,12.36-29.91,12.68-29.95z"/>
		<path class="st1" d="M14.17-29.42c0.44,0.13,0.84,0.31,1.25,0.51c0.29,0.14,0.68,0.39,0.79,0.7c0.03,0.09,0.2-0.1,0.18-0.17
			c-0.09-0.36-0.38-0.54-0.62-0.79c-0.33-0.34-0.97-0.56-1.44-0.58C14.22-29.75,14.02-29.46,14.17-29.42z"/>
		<path class="st1" d="M13.34-40.66c1.09,1.88,1.8,5.54,1.55,7.71c-0.04,0.32,0.28,0.2,0.41,0.06c0.29-0.31,0.8-0.82,0.89-0.09
			c0.08,0.62,0.01,1.28-0.01,1.9c-0.01,0.19,0.2-0.03,0.22-0.12c0.15-0.82,0.62-2.1,0.11-2.87c-0.2-0.31-0.62-0.03-0.96,0.27
			c0.08-1.06-0.05-1.99-0.33-3.08c-0.28-1.1-0.55-2.38-1.34-3.23C13.67-40.33,13.2-40.89,13.34-40.66z"/>
	</g>
	<path class="st1" d="M-26.12,21.23c0,0-9.84,0.71-15.05-19.2c-2.61-10.79-2.03-18.61-1.4-18.8c0.63-0.19,0.94,2.08,0.94,2.08
		s-0.38-3.34,0.38-3.46c0.76-0.13,1.07,2.9,1.07,2.9s0.19-3.4,0.94-3.52c0.76-0.13,1.01,3.59,1.01,3.59s0.88-3.84,1.89-3.78
		c1.01,0.06-0.06,1.07,0.25,3.65c0,0,0.44-2.27,1.26-2.2c0.82,0.06,0.5,3.84,0.69,6.11c0.19,2.27,1.39,8.75,4.05,17.27
		C-27.42,14.36-21.05,21.19-26.12,21.23z"/>
	<g>
		<path class="st1" d="M-26.12,21.23c0,0-2.07,0.15-4.82-1.61c0.13-0.2,0.21-0.65-0.19-1.29c-5.21-8.35-5.05-14.72-4.41-23.24
			c0.98-5.94,1.01-10.58,0.47-11.12c-0.54-0.54-0.93,1.62-1.08,3.73c-0.78-1.27-0.83-3.92-0.49-5.05c0.34-1.13-1.27-0.59-1.32,3.33
			c0,0-0.78-1.27-0.98-2.99c-0.2-1.72-1.47,0.39-0.88,4.02c-1.08-1.76-1.03-4.22-1.47-4.17c-0.44,0.05-0.29,2.65,0.2,4.56
			c-0.98-1.23-1.03-2.99-1.47-2.94c-0.28,0.03-0.58,3.98-0.18,8.72c-0.67-5.97-0.26-9.82,0.18-9.95c0.63-0.19,0.94,2.08,0.94,2.08
			s-0.38-3.34,0.38-3.46c0.76-0.13,1.07,2.9,1.07,2.9s0.19-3.4,0.94-3.52c0.76-0.13,1.01,3.59,1.01,3.59s0.88-3.84,1.89-3.78
			c1.01,0.06-0.06,1.07,0.25,3.65c0,0,0.44-2.27,1.26-2.2c0.82,0.06,0.5,3.84,0.69,6.11c0.19,2.27,1.39,8.75,4.05,17.27
			C-27.42,14.36-21.05,21.19-26.12,21.23z"/>
		<path class="st4" d="M-41.36,1.24c-0.02-0.07-0.04-0.15-0.05-0.23C-41.39,1.09-41.37,1.16-41.36,1.24
			C-41.35,1.24-41.35,1.24-41.36,1.24z"/>
	</g>
	<g>
		<path class="st1" d="M-33.63,16.44c0,0-7.85-9.71-7.98-28.2C-43.61-0.05-38.42,11.65-33.63,16.44z"/>
	</g>
	<path class="st1" d="M22.69,21.13c0,0,9.84,0.71,15.05-19.2c2.61-10.79,2.03-18.61,1.4-18.8c-0.63-0.19-0.94,2.08-0.94,2.08
		s0.38-3.34-0.38-3.46c-0.75-0.13-1.07,2.9-1.07,2.9s-0.19-3.4-0.94-3.52c-0.76-0.13-1.01,3.59-1.01,3.59s-0.88-3.84-1.89-3.78
		c-1.01,0.06,0.06,1.07-0.25,3.65c0,0-0.44-2.27-1.26-2.2c-0.82,0.06-0.5,3.84-0.69,6.11c-0.19,2.27-1.39,8.75-4.05,17.27
		C24,14.26,17.62,21.09,22.69,21.13z"/>
	<g>
		<path class="st1" d="M22.69,21.13c0,0,2.07,0.15,4.82-1.61c-0.13-0.2-0.21-0.65,0.19-1.29c5.21-8.35,5.05-14.72,4.41-23.24
			c-0.98-5.94-1.01-10.58-0.47-11.12c0.54-0.54,0.93,1.62,1.08,3.72c0.78-1.27,0.83-3.92,0.49-5.05c-0.34-1.13,1.27-0.59,1.32,3.33
			c0,0,0.78-1.27,0.98-2.99c0.2-1.72,1.47,0.39,0.88,4.02c1.08-1.76,1.03-4.22,1.47-4.17c0.44,0.05,0.29,2.65-0.2,4.56
			c0.98-1.23,1.03-2.99,1.47-2.94c0.28,0.03,0.58,3.98,0.18,8.72c0.67-5.97,0.26-9.82-0.18-9.95c-0.63-0.19-0.94,2.08-0.94,2.08
			s0.38-3.34-0.38-3.46c-0.75-0.13-1.07,2.9-1.07,2.9s-0.19-3.4-0.94-3.52c-0.76-0.13-1.01,3.59-1.01,3.59s-0.88-3.84-1.89-3.78
			c-1.01,0.06,0.06,1.07-0.25,3.65c0,0-0.44-2.27-1.26-2.2c-0.82,0.06-0.5,3.84-0.69,6.11c-0.19,2.27-1.39,8.75-4.05,17.27
			C24,14.26,17.62,21.09,22.69,21.13z"/>
		<path class="st4" d="M37.93,1.15c0.02-0.08,0.04-0.15,0.05-0.23C37.96,0.99,37.94,1.07,37.93,1.15
			C37.92,1.14,37.92,1.14,37.93,1.15z"/>
	</g>
	<g>
		<path class="st1" d="M30.2,16.35c0,0,7.85-9.71,7.98-28.2C40.18-0.15,34.99,11.56,30.2,16.35z"/>
	</g>
	<path class="st1" d="M-13.43,40.82c-0.04,0.06-0.09,0.12-0.14,0.18c0.02,0.06,0.05,0.12,0.06,0.18c0.04,0.22-0.1,0.18-0.25,0.07
		c-3.29,4.07-10.48,6.29-14.79,2.76c-0.13-0.06-0.24-0.14-0.35-0.25c-0.02-0.02-0.08-0.16,0-0.14c0.58,0.21,1.17,0.18,1.77,0.16
		c-0.02-0.02-0.04-0.04-0.06-0.06c-0.31-0.31-0.66-0.72-0.77-1.14c-0.01-0.04-0.01-0.06-0.01-0.09c0,0,0,0-0.01-0.01
		c-0.06-0.06-0.08-0.25,0.04-0.15c0.21,0.16,0.49,0.18,0.77,0.19c-2.47-3.44-0.98-9.36,2.49-11.49c0-0.01,0-0.02,0-0.02
		c-0.02-0.14,0.13-0.05,0.17,0.01c0.1,0.05,0.2,0.19,0.23,0.31c0.81,1.03,2.14,1.91,3.14,2.67c1.13,0.87,2.21,1.82,3.29,2.74
		c0.99,0.84,2.05,1.91,2.95,2.84c0.27,0.28,0.73,0.61,1.06,0.98c0.04-0.04,0.09-0.07,0.13-0.11C-13.6,40.36-13.35,40.71-13.43,40.82
		z"/>
	<g>
		<path class="st1" d="M-13.43,40.82c-0.04,0.06-0.09,0.12-0.14,0.18c0.02,0.06,0.05,0.12,0.06,0.18c0.04,0.22-0.1,0.18-0.25,0.07
			c-1.33,1.64-3.3,2.99-5.46,3.77c0.28-0.3,0.57-0.7,0.35-1.1c-0.19-0.35-0.74-0.34-1.08-0.33c-1.67,0.07-3.79,1.03-5.33,0.1
			c-1.3-0.79-1.45-2.42-1.17-3.78c0.03-0.13,0.44,0.34,0.48,0.38c0.14,0.14,0.3,0.28,0.46,0.39c0.29,0.19,0.57,0.31,0.92,0.36
			c0.06,0.01,0.03-0.09,0.02-0.12c-0.3-0.8-0.72-1.59-0.87-2.44c-0.1-0.54-0.15-1.1,0.08-1.62c0.1-0.24,0.25-0.5,0.29-0.77
			c0.13-0.79-0.44-1.33-1.18-1.51c-0.5-0.12-0.94-0.13-1.33-0.05c0.64-1.46,1.64-2.73,2.89-3.5c0-0.01,0-0.02,0-0.02
			c-0.02-0.14,0.13-0.05,0.17,0.01c0.1,0.05,0.2,0.19,0.23,0.31c0.81,1.03,2.14,1.91,3.14,2.67c1.13,0.87,2.21,1.82,3.29,2.74
			c0.99,0.84,2.05,1.91,2.95,2.84c0.27,0.28,0.73,0.61,1.06,0.98c0.04-0.04,0.09-0.07,0.13-0.11
			C-13.6,40.36-13.35,40.71-13.43,40.82z"/>
	</g>
	<path class="st1" d="M8.44,38.96c0.04,0.05,0.08,0.09,0.12,0.14c0.42-0.32,0.97-0.57,1.3-0.81c1.12-0.8,2.44-1.7,3.64-2.37
		c1.32-0.74,2.63-1.51,3.98-2.19c1.19-0.6,2.75-1.24,3.8-2.15c0.05-0.12,0.18-0.24,0.3-0.28c0.06-0.05,0.23-0.12,0.18,0.02
		c0,0.01,0,0.02-0.01,0.03c3.18,2.92,3.55,9.37,0.28,12.46c0.29,0.05,0.59,0.08,0.84-0.05c0.15-0.08,0.09,0.11,0.01,0.16
		c0,0,0,0-0.01,0c0,0.02-0.01,0.05-0.03,0.09c-0.2,0.42-0.65,0.78-1.03,1.04c-0.03,0.02-0.05,0.03-0.08,0.05
		c0.62,0.15,1.23,0.29,1.88,0.19c0.09-0.01-0.01,0.12-0.03,0.14c-0.13,0.09-0.27,0.15-0.42,0.19c-5.19,2.81-12.23-0.94-14.84-5.84
		c-0.18,0.09-0.34,0.1-0.25-0.12c0.03-0.06,0.06-0.12,0.1-0.18c-0.04-0.07-0.07-0.15-0.11-0.22C8,39.14,8.33,38.83,8.44,38.96z"/>
	<g>
		<path class="st1" d="M8.06,39.27c0.03,0.07,0.07,0.15,0.11,0.22c-0.04,0.06-0.07,0.12-0.1,0.18c-0.09,0.22,0.07,0.21,0.25,0.12
			c1.06,1.98,2.84,3.77,4.93,5.02c-0.23-0.37-0.45-0.85-0.14-1.21c0.27-0.32,0.84-0.21,1.19-0.12c1.72,0.41,3.73,1.83,5.53,1.17
			c1.51-0.56,1.99-2.22,1.97-3.7c0-0.14-0.53,0.26-0.58,0.3c-0.17,0.12-0.36,0.24-0.56,0.31c-0.34,0.14-0.65,0.21-1.03,0.19
			c-0.06,0-0.01-0.1,0-0.12c0.47-0.77,1.07-1.51,1.4-2.36c0.21-0.54,0.37-1.12,0.25-1.7c-0.06-0.27-0.16-0.57-0.15-0.86
			c0.02-0.85,0.72-1.3,1.53-1.34c0.54-0.03,1,0.05,1.4,0.22c-0.38-1.65-1.16-3.17-2.31-4.22c0-0.01,0-0.02,0.01-0.03
			c0.04-0.14-0.13-0.08-0.18-0.02c-0.12,0.03-0.25,0.16-0.3,0.28c-1.05,0.91-2.61,1.55-3.8,2.15c-1.35,0.68-2.66,1.45-3.98,2.19
			c-1.2,0.67-2.52,1.57-3.64,2.37c-0.33,0.24-0.88,0.48-1.3,0.81C8.52,39.05,8.48,39,8.44,38.96C8.33,38.83,8,39.14,8.06,39.27z"/>
	</g>
	<g>
		<g>
			<path class="st0" d="M-16.71,37.83c-0.51,1.17-1.52,2.17-2.33,3.1c-0.12,0.14-0.25,0.27-0.39,0.4c-0.09,0.1-0.26,0.3-0.33,0.38
				c-1,1.16-3.01,1.86-4.51,1.34c-0.9-0.31-1.38-1.2-1.41-2.1c0-0.13,0.15,0.01,0.15,0.08c0.15,1.35,1.23,1.82,2.41,1.84
				c-0.13-0.13-0.24-0.31-0.35-0.52c-0.4-0.8-0.66-1.68-0.76-2.57c-0.03-0.26-0.04-0.53-0.04-0.79c0-0.36,0.03-0.72,0.07-1.07
				c0.23-2.02,1.05-4.2,2.68-5.5c-0.05-0.09-0.08-0.26,0.05-0.18c0.32,0.19,0.53,0.49,0.8,0.75c0.62,0.58,1.23,1.17,1.82,1.77
				c0.61,0.62,1.15,1.32,1.74,1.97c0.08,0.09,0.16,0.18,0.24,0.28c0.04-0.06,0.07-0.11,0.11-0.17c0.09-0.14,0.31,0.16,0.29,0.27
				c-0.03,0.12-0.06,0.23-0.1,0.35c0.05,0.1,0.09,0.2,0.12,0.3C-16.36,38.03-16.55,37.97-16.71,37.83z"/>
			<path class="st0" d="M-21.99,39.39c0.4-1.48,1.27-2.79,2.26-3.94c0.25-0.28,0.5-0.56,0.76-0.84c0.04,0.05,0.09,0.09,0.13,0.13
				c0.61,0.62,1.15,1.32,1.74,1.97c0.08,0.09,0.16,0.18,0.24,0.28c0.04-0.06,0.07-0.11,0.11-0.17c0.09-0.14,0.31,0.16,0.29,0.27
				c-0.03,0.12-0.06,0.23-0.1,0.35c0.05,0.1,0.09,0.2,0.12,0.3c0.08,0.3-0.12,0.23-0.27,0.09c-0.51,1.17-1.52,2.17-2.33,3.1
				c-0.12,0.14-0.25,0.27-0.39,0.4c-0.09,0.1-0.26,0.3-0.33,0.38c-0.44,0.51-1.09,0.94-1.8,1.2
				C-22.14,41.85-22.33,40.64-21.99,39.39z"/>
		</g>
		<g>
			<path class="st0" d="M12.07,36.82c0.3,1.32,1.14,2.56,1.81,3.69c0.1,0.17,0.21,0.34,0.32,0.5c0.07,0.13,0.21,0.36,0.27,0.46
				c0.81,1.4,2.76,2.54,4.42,2.3c1-0.14,1.68-0.98,1.89-1.9c0.03-0.13-0.15-0.01-0.18,0.05c-0.43,1.37-1.65,1.65-2.87,1.44
				c0.16-0.11,0.31-0.27,0.47-0.48c0.58-0.76,1.03-1.61,1.3-2.53c0.08-0.27,0.15-0.54,0.2-0.82c0.07-0.37,0.11-0.75,0.14-1.13
				c0.16-2.15-0.25-4.59-1.68-6.26c0.07-0.08,0.14-0.26-0.01-0.2c-0.37,0.13-0.65,0.41-0.98,0.62c-0.76,0.48-1.51,0.97-2.25,1.48
				c-0.76,0.53-1.46,1.15-2.2,1.7c-0.1,0.08-0.21,0.16-0.31,0.24c-0.03-0.07-0.05-0.13-0.08-0.2c-0.06-0.17-0.36,0.11-0.35,0.22
				c0,0.13,0.02,0.25,0.03,0.38c-0.07,0.09-0.13,0.19-0.18,0.29C11.67,36.96,11.89,36.93,12.07,36.82z"/>
			<path class="st0" d="M17.26,39.5c-0.12-1.62-0.77-3.16-1.57-4.55c-0.2-0.35-0.41-0.69-0.62-1.02c-0.06,0.04-0.11,0.07-0.17,0.11
				c-0.76,0.53-1.46,1.15-2.2,1.7c-0.1,0.08-0.21,0.16-0.31,0.24c-0.03-0.07-0.05-0.13-0.08-0.2c-0.06-0.17-0.36,0.11-0.35,0.22
				c0,0.13,0.02,0.25,0.03,0.38c-0.07,0.09-0.13,0.19-0.18,0.29c-0.14,0.29,0.07,0.26,0.26,0.15c0.3,1.32,1.14,2.56,1.81,3.69
				c0.1,0.17,0.21,0.34,0.32,0.5c0.07,0.13,0.21,0.36,0.27,0.46c0.36,0.62,0.94,1.19,1.63,1.61C16.93,42.09,17.37,40.87,17.26,39.5z
				"/>
		</g>
	</g>
	<path class="st5" d="M28.98,8.14c-0.87,3.71-1.75,7.4-3.04,10.99c-0.63,1.75-1.35,3.48-2.17,5.16c-0.38,0.76-0.88,1.38-1.42,1.97
		c0.57-0.21,1.11-0.54,1.61-0.82c0.21-0.11,0.42,0.3,0.37,0.46c-0.43,1.4-1.23,2.95-2.15,4.1c-0.32,0.39-0.68,0.69-1.08,0.96
		c0.35-0.14,0.68-0.3,1.02-0.44c0.14-0.06,0.38,0.23,0.29,0.36c-0.08,0.13-0.19,0.23-0.32,0.31c-0.35,0.69-1.06,1.35-1.59,1.9
		c-0.4,0.41-0.82,0.73-1.25,1.02c0.61,0.24,1.11,0.65,1.21,1.31c0.08,0.5-1.03,0.49-1.27,0.5c-1.34,0.03-2.35,0.97-3.26,1.84
		c-1.86,1.78-3.35,3.7-5.55,5.13c-1.18,0.77-2.22,1.41-3.51,1.99c-0.49,0.22-2.21,0.81-2.71,1.01c0.47-0.06,2.43-0.01,2.65,0.44
		c0.29,0.61-0.57,0.88-0.99,1c-0.71,0.2-1.45,0.22-2.18,0.16c-0.83-0.07-1.72-0.3-2.43-0.77c0.17,0.74,0.5,1.48,0.5,2.24
		c0,0.12-0.14,0.13-0.22,0.08c-0.64-0.4-1.24-1.01-1.69-1.61c-0.16-0.25-0.37-0.46-0.62-0.62c-0.16,0.48-0.29,0.95-0.37,1.45
		c-0.09,0.54-0.13,1.06-0.12,1.61c0,0.08-0.08,0.13-0.16,0.11c-1.08-0.31-1.65-1.83-1.99-3.01c-0.48,0.9-1.07,1.73-1.83,2.4
		c-0.1,0.09-0.31-0.04-0.36-0.12c-0.08-0.11-0.1-0.25-0.1-0.38c-0.01-0.42,0.12-0.85,0.15-1.27c-0.01,0.07-0.82,0.22-0.92,0.24
		c-0.32,0.06-0.64,0.1-0.97,0.1c-0.63,0.01-1.28-0.1-1.85-0.35c-0.34-0.15-0.65-0.35-0.96-0.56c-0.11-0.08-0.84-0.37-0.76-0.55
		c0.05-0.1,0.32-0.05,0.4-0.05c0.27-0.02,0.54-0.05,0.81-0.09c0.33-0.05,0.63-0.19,0.93-0.32c-0.93-0.35-1.84-0.83-2.67-1.27
		c-1.28-0.68-2.64-1.47-3.7-2.47c-1.2-1.12-2.21-2.42-3.34-3.6c-1.33-1.4-3.66-3.22-5.7-2.68c-0.06,0.02-0.17-0.14-0.11-0.18
		c0,0,0.01-0.01,0.02-0.01c0.14-0.57,0.33-1,0.93-1.21c0.24-0.09,0.51-0.17,0.78-0.22c-1.53-0.73-2.86-1.73-3.68-3.32
		c-0.03-0.04-0.07-0.08-0.1-0.13c-0.04-0.06-0.04-0.11-0.02-0.14c0-0.06,0.08-0.05,0.13,0.02c0.01,0.02,0.02,0.03,0.04,0.05
		c0.35,0.29,0.87,0.34,1.3,0.47c0.12,0.03,0.23,0.07,0.35,0.11c-1.58-1.61-2.82-3.6-3.66-5.64c-0.04-0.05-0.07-0.11-0.07-0.16
		c0,0,0-0.01,0-0.01c-0.04-0.1,0.06-0.08,0.11-0.03c0.31,0,0.59,0.28,0.87,0.42c0.42,0.2,0.87,0.34,1.31,0.49
		c-0.5-0.82-0.99-1.64-1.43-2.52c-0.93-1.88-1.81-3.81-2.8-5.66c-1.77-3.32-1.93-7.56-2.6-11.19c-0.75-4.08-1.04-8.17-0.89-12.31
		c0.14-3.87,0.84-7.73,2.9-11.07c0.23-0.38,0.68,0.43,0.68,0.63c0,0.07,0,0.14-0.01,0.21c0.34-1.33,0.82-2.59,1.94-3.62
		c0.22-0.21,0.54,0.41,0.53,0.57c-0.03,0.47-0.08,0.93-0.13,1.4c0.54-1.57,1.43-2.68,2.56-3.97c1.47-1.69,3.67-2.32,5.85-2.7
		c0.06-0.01-1.99,1.6-1.92,1.65c0.09,0.07,1.35-0.64,1.51-0.71c0.56-0.26,1.12-0.52,1.68-0.78c2.07-0.96,4.14-1.86,6.38-2.36
		c4.49-1,9.35-1.09,13.93-0.95c1.34,0.04,2.68,0.14,4,0.36c2.52,0.41,5.09,1.11,7.28,2.43c1.3,0.79,2.53,1.68,3.76,2.58
		c-0.41-0.3-0.94-0.75-1.14-1.22c-0.37-0.84,0.71-0.86,1.3-0.7c1.42,0.39,2.55,1.1,3.62,2.1c1.42,1.33,2.51,2.35,3.2,4.02
		c-0.01-0.41-0.02-0.83,0-1.25c0.01-0.27,0.35-0.08,0.43,0.03c1.24,1.51,1.36,3.68,1.72,5.44c0,0,0-0.01,0-0.01
		c0.3-0.58,0.42-1.28,0.65-1.89c0-0.02,0.01-0.03,0.02-0.04c0.32-0.81,0.57,0.13,0.65,0.51c0.61,2.91,1.7,5.33,2.17,8.26
		c0.47,2.94,0.36,6.33,0.1,9.29C29.66,4.75,29.37,6.46,28.98,8.14z"/>
	<g>
		<path class="st6" d="M29.82,3.03c-0.15,1.72-0.44,3.44-0.84,5.12c-0.87,3.71-1.75,7.4-3.04,10.99c-0.63,1.75-1.35,3.48-2.17,5.16
			c-0.38,0.76-0.88,1.38-1.42,1.97c0.57-0.21,1.11-0.54,1.61-0.82c0.21-0.11,0.42,0.3,0.37,0.46c-0.43,1.4-1.23,2.95-2.15,4.1
			c-0.32,0.39-0.68,0.69-1.08,0.96c0.35-0.14,0.68-0.3,1.02-0.44c0.14-0.06,0.38,0.23,0.29,0.36c-0.08,0.13-0.19,0.23-0.32,0.31
			c-0.35,0.69-1.06,1.35-1.59,1.9c-0.4,0.41-0.82,0.73-1.25,1.02c0.61,0.24,1.11,0.65,1.21,1.31c0.08,0.5-1.03,0.49-1.27,0.5
			c-1.34,0.03-2.35,0.97-3.26,1.84c-1.86,1.78-3.35,3.7-5.55,5.13c-1.18,0.77-2.22,1.41-3.51,1.99c-0.49,0.22-2.21,0.81-2.71,1.01
			c0.47-0.06,2.43-0.01,2.65,0.44c0.29,0.61-0.57,0.88-0.99,1c-0.71,0.2-1.45,0.22-2.18,0.16c-0.83-0.07-1.72-0.3-2.43-0.77
			c0.17,0.74,0.5,1.48,0.5,2.24c0,0.12-0.14,0.13-0.22,0.08c-0.64-0.4-1.24-1.01-1.69-1.61c-0.16-0.25-0.37-0.46-0.62-0.62
			c-0.16,0.48-0.29,0.95-0.37,1.45c-0.09,0.54-0.13,1.06-0.12,1.61c0,0.08-0.08,0.13-0.16,0.11c-1.08-0.31-1.65-1.83-1.99-3.01
			c-0.48,0.9-1.07,1.73-1.83,2.4c-0.1,0.09-0.31-0.04-0.36-0.12c-0.08-0.11-0.1-0.25-0.1-0.38c-0.01-0.42,0.12-0.85,0.15-1.27
			c-0.01,0.07-0.82,0.22-0.92,0.24c-0.32,0.06-0.64,0.1-0.97,0.1c-0.63,0.01-1.28-0.1-1.85-0.35c-0.34-0.15-0.65-0.35-0.96-0.56
			c-0.11-0.08-0.84-0.37-0.76-0.55c0.05-0.1,0.32-0.05,0.4-0.05c0.27-0.02,0.54-0.05,0.81-0.09c0.33-0.05,0.63-0.19,0.93-0.32
			c-0.93-0.35-1.84-0.83-2.67-1.27c-1.28-0.68-2.64-1.47-3.7-2.47c-1.2-1.12-2.21-2.42-3.34-3.6c-0.33-0.34-0.72-0.71-1.15-1.07
			c0.31,0.14,0.6,0.31,0.87,0.5c5.45,5.19,10.7,6.91,13.32,6.91c-0.52,0.67-3.67,1.86-2,1.95c1.81,0.14,3.53-1.91,3.53-1.91
			s-0.91,2.76-0.72,2.86c0.19,0.1,0.76-1.33,1.67-2.24c0.14,1.81,1.29,4,1.29,2.57c0-1.43,0.48-3.05,0.48-3.05s1.24,2.19,1.72,2.1
			c0.48-0.1,0.19-0.76-0.38-1.91c1.57,1.72,5,1.86,5.24,1.33c0.24-0.52-2.53-0.48-3.57-1.38c6.39-0.38,12.75-8.61,15.92-10.19
			c-0.75-0.93-3.45,1.21-3.45,1.21c2.15-2.43,5.22-3.45,5.22-4.29c0-0.84-2.61-0.37-2.61-0.37s5.13-3.45,4.57-4.1
			c-0.56-0.65-4.66,1.28-4.66,1.28C24.63,21.63,28,4.43,23.39,7.27c6.21-11.17,3.37-18.98,1.24-13.13c0.53-4.97-1.06-9.58-2.13-5.32
			c-0.89-7.63-5.5-9.05-4.08-2.84C6.72-32.46-21.7-19.47-24.1-14.95c0.13-1.46,1.73-5.59,0.4-4.66c-2.93,1.86-3.75,7.13-3.75,7.13
			s0-4.7-1.15-2.98c-1.26,1.84-1.61,7.68-1.61,7.68s-0.23-5.05-1.03-4.01c-1.71,2.26-2.38,6.58-2.63,10.11
			c-0.03-1.16-0.02-2.32,0.02-3.49c0.14-3.87,0.84-7.73,2.9-11.07c0.23-0.38,0.68,0.43,0.68,0.63c0,0.07,0,0.14-0.01,0.21
			c0.34-1.33,0.82-2.59,1.94-3.62c0.22-0.21,0.54,0.41,0.53,0.57c-0.03,0.47-0.08,0.93-0.13,1.4c0.54-1.57,1.43-2.68,2.56-3.97
			c1.47-1.69,3.67-2.32,5.85-2.7c0.06-0.01-1.99,1.6-1.92,1.65c0.09,0.07,1.35-0.64,1.51-0.71c0.56-0.26,1.12-0.52,1.68-0.78
			c2.07-0.96,4.14-1.86,6.38-2.36c4.49-1,9.35-1.09,13.93-0.95c1.34,0.04,2.68,0.14,4,0.36c2.52,0.41,5.09,1.11,7.28,2.43
			c1.3,0.79,2.53,1.68,3.76,2.58c-0.41-0.3-0.94-0.75-1.14-1.22c-0.37-0.84,0.71-0.86,1.3-0.7c1.42,0.39,2.55,1.1,3.62,2.1
			c1.42,1.33,2.51,2.35,3.2,4.02c-0.01-0.41-0.02-0.83,0-1.25c0.01-0.27,0.35-0.08,0.43,0.03c1.24,1.51,1.36,3.68,1.72,5.44
			c0,0,0-0.01,0-0.01c0.3-0.58,0.42-1.28,0.65-1.89c0-0.02,0.01-0.03,0.02-0.04c0.32-0.81,0.57,0.13,0.65,0.51
			c0.61,2.91,1.7,5.33,2.17,8.26C30.19-3.32,30.08,0.06,29.82,3.03z"/>
	</g>
	<g>
		<path class="st6" d="M-22.69,29.41c0,0-10.64-15.25-8.34-35.3C-34.57,4.57-31.91,19.3-22.69,29.41z"/>
	</g>
	<g>
		<g>
			<path class="st6" d="M-1.35,30.48c0,0-0.55-1.93,1.02-2.44c-0.38-1.85-0.61-7.17,3.56-8.28c-0.54-0.13-1.09,0.09-1.09,0.09
				s5.37-2.9,8.96,2.42c-0.86-0.71-1.64-1.11-1.64-1.11s2.72,3.75-0.88,9.3c0.9,0.76,1.26,1.66,1.26,1.66s-3.39-2.66-7.28-3.46
				C0.53,28.22-0.9,28.05-1.35,30.48z"/>
		</g>
		<g>
			<path class="st6" d="M-14.56,30.95c0,0,0.67-1.36,1.63-1.96c-0.96-1.83-1.73-4.89-1.03-6.25c-0.96,0.63-1.1,1.1-1.1,1.1
				s0.24-3.23,4.13-4.33c1.51-0.47,3.18-0.48,5.45,1.07c-0.83-0.34-2.2-0.67-2.2-0.67s3.62,1.16,2.89,7.91c0.57,0.5,0.4,1.7,0.4,1.7
				s-0.6-1.9-2.96-1.73C-9.44,28.12-13.2,29.91-14.56,30.95z"/>
		</g>
		<path class="st7" d="M-11.9,29.38c0,0-3.19-5.79-0.63-8.21c2.56-2.43,8.38-1.66,7.27,6.9C-5.26,28.06-8.2,27.19-11.9,29.38z"/>
		<g>
			<path class="st8" d="M-5.26,28.06c0,0-2.93-0.87-6.64,1.32c0,0-0.66-1.2-1.14-2.74c0.35,0.45,0.87,1.12,1.44,1.53
				c1.7-0.82,3.51-1.38,5.64-0.96c0.47-0.84,0.63-1.55,0.78-2.3C-5.09,25.82-5.11,26.86-5.26,28.06z"/>
		</g>
		<path class="st7" d="M0.21,28.47c0,0-1.67-9.14,5.25-8.74c4.22,0.4,5.91,5.22,2.18,10.99C7.64,30.72,3.34,28.1,0.21,28.47z"/>
		<g>
			<path class="st8" d="M0.21,28.47c0,0-0.68-3.73,0.64-6.32c-0.45,1.59-0.83,4,0.43,5.45c0,0,3.01,0.08,5.84,1.68
				c1.06-0.5,1.75-1.18,2.19-2.02c-0.33,1.09-0.87,2.25-1.65,3.46C7.64,30.72,3.34,28.1,0.21,28.47z"/>
		</g>
		<g>
			<path class="st9" d="M-6.95,24.72c0.05-1.12-0.68-2.04-1.64-2.06c-0.96-0.02-1.78,0.88-1.83,2c-0.05,1.12,0.68,2.04,1.64,2.06
				C-7.82,26.74-7,25.84-6.95,24.72z"/>
			<path class="st0" d="M-7.25,24.69c0.04-0.92-0.56-1.68-1.35-1.7c-0.79-0.02-1.46,0.72-1.5,1.64c-0.04,0.92,0.56,1.68,1.35,1.7
				C-7.97,26.35-7.3,25.61-7.25,24.69z"/>
			<path class="st10" d="M-7.74,24.68c0.03-0.58-0.35-1.05-0.84-1.06c-0.49-0.01-0.92,0.45-0.94,1.03
				c-0.03,0.58,0.35,1.05,0.85,1.06C-8.19,25.72-7.77,25.26-7.74,24.68z"/>
			<path class="st7" d="M-8.85,25.41c-0.11-0.25-0.38-0.42-0.6-0.38c-0.22,0.04-0.3,0.28-0.18,0.53c0.11,0.25,0.38,0.42,0.6,0.38
				C-8.81,25.9-8.73,25.66-8.85,25.41z"/>
			<path class="st7" d="M-9.56,24.52c0-0.12-0.08-0.22-0.18-0.22c-0.1,0-0.19,0.09-0.19,0.21c0,0.12,0.08,0.22,0.18,0.22
				C-9.65,24.74-9.57,24.64-9.56,24.52z"/>
		</g>
		<g>
			<path class="st9" d="M6.09,25.49c0.05-1.12-0.68-2.04-1.64-2.06c-0.96-0.02-1.78,0.88-1.83,2c-0.05,1.12,0.68,2.04,1.64,2.06
				C5.21,27.5,6.03,26.61,6.09,25.49z"/>
			<path class="st0" d="M5.78,25.46c0.04-0.92-0.56-1.68-1.35-1.7c-0.79-0.01-1.46,0.72-1.5,1.64c-0.04,0.92,0.56,1.68,1.35,1.7
				C5.06,27.12,5.73,26.38,5.78,25.46z"/>
			<path class="st10" d="M5.29,25.45c0.03-0.58-0.35-1.05-0.85-1.06c-0.49-0.01-0.92,0.45-0.94,1.03c-0.03,0.58,0.35,1.05,0.84,1.06
				C4.84,26.49,5.26,26.03,5.29,25.45z"/>
			<path class="st7" d="M4.18,26.18c-0.11-0.25-0.38-0.42-0.6-0.38c-0.21,0.04-0.3,0.28-0.18,0.53c0.11,0.25,0.38,0.42,0.6,0.38
				C4.22,26.66,4.3,26.43,4.18,26.18z"/>
			<path class="st7" d="M3.47,25.29c0-0.12-0.08-0.22-0.18-0.22c-0.1,0-0.19,0.09-0.19,0.21c0,0.12,0.08,0.22,0.18,0.22
				C3.38,25.5,3.47,25.41,3.47,25.29z"/>
		</g>
		<g>
			<path class="st3" d="M10.34,32.88c-2.21-1.31-4.76-3.01-7.29-3.61c-1.22-0.29-2.92-1.03-3.84,0.12
				c-0.66,0.82-0.52,2.55-0.51,3.52c0,0.08-0.13-0.04-0.13-0.09c-0.2-2.22-0.28-5.04,2.66-4.62c4.34,0.63,6.31,1.95,9.1,4.27
				C10.46,32.57,10.61,33.04,10.34,32.88z"/>
			<path class="st3" d="M-4.33,30.44c-0.05,0.21-0.12-0.09-0.12-0.2c-0.17-4.84-8.97-0.01-10.76,1.42
				c-0.03,0.02-0.09-0.06-0.07-0.09c1.72-2.14,4.5-3.16,7.11-3.83C-6.27,27.24-3.79,28.04-4.33,30.44z"/>
			<path class="st3" d="M-3.69,31.28c-0.02,0.06-0.14-0.07-0.13-0.12c0.18-0.8,0.19-1.9-0.06-2.68c-0.08-0.25,0.21-0.07,0.25,0.06
				C-3.34,29.35-3.44,30.48-3.69,31.28z"/>
			<path class="st3" d="M-2.34,30.66c-0.03,0.12-0.19-0.06-0.18-0.14c0.04-0.21,0.09-0.42,0.11-0.63c0.02-0.29-0.03-0.58-0.02-0.87
				c0.01-0.17,0.26,0.08,0.26,0.17C-2.14,29.71-2.21,30.17-2.34,30.66z"/>
		</g>
		<g>
			<path class="st6" d="M5.33,30.81c-1.42-0.44-3.18-1.3-4.7-1.28c-1.74,0.03-1.49,2.12-1.57,3.28c-0.01,0.11-0.17-0.07-0.17-0.13
				c-0.01-1.33-0.43-2.99,1.06-3.67c1.38-0.64,3.7,0.56,4.85,1.26C4.89,30.31,5.6,30.9,5.33,30.81z"/>
			<path class="st6" d="M-4.59,31.15c-0.03,0.13-0.2-0.07-0.19-0.15c0.11-0.71,0.03-1.49-0.55-2c-0.53-0.47-2.15-0.52-2.8-0.5
				c-0.17,0,0.31-0.21,0.53-0.26c0.95-0.22,1.78-0.16,2.49,0.55C-4.5,29.41-4.39,30.35-4.59,31.15z"/>
		</g>
		<g>
			<path class="st6" d="M11.3,9.6c-1.56,1.75-3.9,2.47-6.11,3.15c-6.35,1.95-16.4,0.23-20.07-5.92c0.43,0.73,1.61,1.69,2.28,2.21
				c0.94,0.72,2.12,1.14,3.18,1.65c2.3,1.1,4.87,1.65,7.4,1.83c2.26,0.16,4.53-0.11,6.7-0.75c1.22-0.36,2.36-0.9,3.53-1.38
				C9.14,10,9.93,9.35,10.85,8.95C11.12,8.83,11.49,9.38,11.3,9.6z"/>
		</g>
		<g>
			<path class="st6" d="M-16.13-3.9c0,0,2.65-6.33,8.82-4.89c3.99,0.93,9.71,0.93,13.97,0.67c4.26-0.27,7.41,4.22,7.14,6.88
				C13.54,1.42-16.13-3.9-16.13-3.9z"/>
		</g>
		<g>
			<path class="st11" d="M-10.29,1.28c0,0,12.39,2.04,20.03,2.31c3.6,0.09,4.44-1.6,4.4-3.55c-0.04-1.95-2.22-4.17-8.48-3.86
				C-0.61-3.51-4.56-3.91-9.49-4.67c-4.93-0.76-6.93,0.18-7.37,2.04C-17.31-0.76-15.04,0.31-10.29,1.28z"/>
			<path class="st12" d="M-14.4-2.56c0,0,1.21-0.24,2.27-0.19c0.97-1.59,1.79-1.4,2.95-0.97c1.16,0.43,0.97,0.92,0.92,1.64
				c-0.05,0.72,4.3,1.4,8.79,1.55C5.02-0.38,5.36-0.38,5.6-1.01c0.24-0.63,0.82-1.55,2.22-1.21c1.4,0.34,1.59,0.77,1.64,1.4
				c0.05,0.63,1.21,0.29,1.64,0.39c-0.19,0.48-0.19,0.48-0.19,0.48S-2.47,1.7-14.4-2.56z"/>
			<g>
				<path class="st7" d="M5.78,0.24c0,0-0.07-2.02,1.44-2.04c1.51-0.02,1.8,0.78,1.66,1.93C7.24,0.26,5.78,0.24,5.78,0.24z"/>
				<path class="st8" d="M7.18-0.45C7.53-0.49,7.86-0.5,8.17-0.68C8.4-0.82,8.51-1.1,8.56-1.4C8.9-1.06,8.96-0.52,8.88,0.13
					c-1.64,0.13-3.1,0.11-3.1,0.11S5.77,0.01,5.82-0.29C6.27-0.33,6.72-0.41,7.18-0.45z"/>
				<path class="st7" d="M-11.83-1.96c0,0,0.35-1.64,1.37-1.6C-9.43-3.51-8.5-3.2-8.63-2.4C-8.77-1.6-8.9-1.11-8.9-1.11L-11.83-1.96
					z"/>
				<path class="st8" d="M-9.11-2.54c0.14-0.12,0.24-0.29,0.31-0.47c0.14,0.16,0.2,0.36,0.16,0.61C-8.77-1.6-8.9-1.11-8.9-1.11
					l-2.93-0.84c0,0,0.06-0.25,0.18-0.56C-10.8-2.34-9.77-1.99-9.11-2.54z"/>
			</g>
			<path class="st13" d="M11.42-0.54c-0.15,0.65-0.58,1.49-0.32,2.17c0.08,0.21-0.15,0.14-0.23,0.03c-0.25-0.38-0.3-0.86-0.24-1.34
				C6.47,0.82,2.21,0.5-1.95,0.3c-4.22-0.21-8.69-1.4-12.66-2.75c-0.06-0.02-0.18-0.22-0.07-0.2c4.35,0.68,8.5,2.23,12.94,2.44
				c4.13,0.19,8.37,0.48,12.49-0.07c0.07-0.24,0.15-0.46,0.24-0.66C11.09-1.16,11.46-0.7,11.42-0.54z"/>
		</g>
		<g>
			<path class="st6" d="M7.89,4.04C4.4,4.17-0.06,4.04-3.52,3.54c-1.82-0.26-3.65-0.47-5.45-0.82c-1.04-0.21-2.07-0.5-3.08-0.84
				c-0.83-0.28-1.57-0.77-2.42-0.98c-0.06-0.01-0.18-0.22-0.08-0.22c0.53,0.02,0.97,0.18,1.47,0.37c0.9,0.35,1.92,0.49,2.86,0.69
				c1.79,0.37,3.64,0.53,5.45,0.76C-0.98,3,2.81,3.4,6.61,3.76C6.87,3.78,8.24,4.03,7.89,4.04z"/>
		</g>
		<g>
			<path class="st6" d="M-2.52,14.28c-3.59-0.08-7.56-1.62-10.04-4.26c-0.04-0.05-0.04-0.16,0.04-0.1c3.02,2.27,6.11,3.32,9.81,3.93
				C-2.56,13.87-2.26,14.29-2.52,14.28z"/>
		</g>
		<g>
			<g>
				<path class="st1" d="M0.21,13.5c-0.89,0.82-1.97,1.56-3.22,1.04c-1.16-0.49-2.32-1.23-3.21-2.12c-0.58-0.58-1.15-1.5-0.96-2.35
					c0.25-1.15,1.63-1.18,2.57-1.22c0.78-0.04,1.6,0.13,2.37,0.21c0.72,0.07,1.43,0.05,2.15,0.19c0.9,0.17,2.27,0.32,2.49,1.16
					C2.65,11.34,0.82,12.94,0.21,13.5z"/>
				<path class="st1" d="M0.21,13.5c-0.03,0.02-0.05,0.05-0.08,0.07c0.25-0.33,0.45-0.69,0.59-1.06c0.45-1.26-0.26-2.25-1.47-2.65
					c-1.89-0.64-3.86-0.79-5.8-0.26c-0.17,0.05-0.34,0.09-0.5,0.13c0.43-0.81,1.6-0.84,2.44-0.87c0.78-0.04,1.6,0.13,2.37,0.21
					c0.72,0.07,1.43,0.05,2.15,0.19c0.9,0.17,2.27,0.32,2.49,1.16C2.65,11.34,0.82,12.94,0.21,13.5z"/>
				<path class="st1" d="M-3,11.4c0-0.48-0.25-0.88-0.56-0.88s-0.56,0.39-0.56,0.88c0,0.48,0.25,0.88,0.56,0.88S-3,11.89-3,11.4z"/>
				<path class="st1" d="M-0.39,11.67c0-0.48-0.25-0.88-0.56-0.88c-0.31,0-0.56,0.39-0.56,0.88c0,0.48,0.25,0.88,0.56,0.88
					C-0.64,12.55-0.39,12.16-0.39,11.67z"/>
			</g>
			<path class="st1" d="M-2.27,14.08c0.08-0.23-0.29-0.58-0.84-0.78c-0.55-0.2-1.06-0.17-1.14,0.06c-0.08,0.23,0.29,0.58,0.84,0.78
				C-2.86,14.34-2.35,14.31-2.27,14.08z"/>
		</g>
	</g>
</symbol>
<use xlink:href="#Marg"  width="87.51" height="100" x="-43.76" y="-50" transform="matrix(1 0 0 -1 43.7575 50)" style="overflow:visible;"/>
</svg>
