<?xml version="1.0" encoding="utf-8"?>
<!-- Generator: Adobe Illustrator 26.3.1, SVG Export Plug-In . SVG Version: 6.00 Build 0)  -->
<svg version="1.1" id="Layer_1" xmlns="http://www.w3.org/2000/svg" xmlns:xlink="http://www.w3.org/1999/xlink" x="0px" y="0px"
	 viewBox="0 0 83.29 100" style="enable-background:new 0 0 83.29 100;" xml:space="preserve">
<style type="text/css">
	.st0{fill:#85888A;}
	.st1{fill:#9DA1A2;}
	.st2{fill:#DFE0E1;}
	.st3{fill:#C1C3C4;}
	.st4{fill:#FFFFFF;}
	.st5{fill:#989A9D;}
	.st6{fill:#7B7C7E;}
	.st7{opacity:0.7;fill:#FFFFFF;}
	.st8{opacity:0.2;fill:#393A3C;}
	.st9{fill:#CC1743;}
	.st10{fill:#909294;}
	.st11{fill:#B1D0DE;}
	.st12{fill:#505153;}
	.st13{fill:#EFAB51;}
	.st14{fill:#ACCC16;}
	.st15{fill:#07294E;}
	.st16{fill:#B6B9BB;}
	.st17{fill:#1A7570;}
	.st18{fill:#EB7417;}
	.st19{fill:#2F3133;}
	.st20{fill:#135F8F;}
	.st21{fill:#6A6B6E;}
	.st22{fill:#CECFD0;}
	.st23{fill:#0E4E91;}
	.st24{opacity:0.5;fill:#85888A;}
	.st25{clip-path:url(#SVGID_00000063593242155590946730000007094187374090718337_);}
	.st26{fill:#DD8B5E;}
	.st27{opacity:0.6;fill:#DD8B5E;}
	.st28{opacity:0.5;fill:#C88A70;}
	.st29{opacity:0.4;fill:#DD8B5E;}
	.st30{fill:#D5D7D8;}
	.st31{opacity:0.6;fill:url(#SVGID_00000077292250548859807530000000690680118832687035_);}
	.st32{opacity:0.6;fill:url(#SVGID_00000082349105670770879250000012958349692266769588_);}
	.st33{fill:#B35831;}
	.st34{fill:#532800;}
	.st35{opacity:0.5;fill:#532800;}
	.st36{clip-path:url(#SVGID_00000089533342603512012200000000215152251951613876_);}
	.st37{fill:#703000;}
	.st38{fill:#8D4423;}
	.st39{fill:#380D00;}
	.st40{clip-path:url(#SVGID_00000142158857573227450540000017592181642623296693_);}
	.st41{opacity:0.4;fill:#5A80A3;}
	.st42{opacity:0.6;fill:#84ADD3;}
</style>
<symbol  id="Jim" viewBox="-41.64 -50 83.29 100">
	<g>
		<g>
			<g>
				<g>
					<g>
						<polygon class="st0" points="13.7,-33.88 21.01,-36.99 18.97,-41.87 11.32,-39.9 11.27,-39.52 12.15,-37.05 						"/>
						<path class="st1" d="M19.04-42.23c-0.05-0.01-0.11-0.01-0.16,0.01l-7.65,1.96c-0.15,0.04-0.26,0.16-0.28,0.31l-0.04,0.38
							c-0.01,0.06,0,0.12,0.02,0.17l0.89,2.48l1.55,3.21c0.09,0.18,0.3,0.26,0.48,0.19l7.32-3.13c0.19-0.08,0.28-0.29,0.2-0.48
							l-2.04-4.88C19.26-42.13,19.16-42.21,19.04-42.23z M11.66-39.61l7.1-1.83l1.79,4.25l-6.67,2.84l-1.39-2.87L11.66-39.61z"/>
					</g>
					<g>
						<g>
							<path class="st2" d="M17.05-38.62c0,0,10.35-4.97,6.29-11.01c0,0-9.87,1.51-13.66,8.18c0,0,0.03,0.79,0.98,2.48
								c1.07,1.89,1.73,1.87,1.73,1.87S14.69-37.31,17.05-38.62z"/>
							<path class="st3" d="M23.4-49.99C23.37-50,23.32-50,23.28-50c-0.1,0.02-2.54,0.41-5.49,1.61c-2.74,1.13-6.42,3.22-8.43,6.76
								c-0.04,0.06-0.05,0.13-0.05,0.19c0.01,0.09,0.06,0.93,1.03,2.66c0.92,1.63,1.62,1.98,1.95,2.04c0.03,0,0.1,0.01,0.12,0.01
								c0.12-0.01,2.42-0.24,4.82-1.56c0.23-0.12,6.11-2.98,7.24-7.12c0.41-1.52,0.14-3-0.82-4.43
								C23.59-49.92,23.5-49.98,23.4-49.99z M10.06-41.37c3.38-5.8,11.61-7.57,13.1-7.85c0.73,1.17,0.93,2.39,0.6,3.62
								c-1.05,3.81-6.81,6.63-6.87,6.65c-2.11,1.17-4.17,1.44-4.49,1.48c-0.1-0.03-0.62-0.26-1.43-1.68
								C10.28-40.39,10.11-41.13,10.06-41.37z"/>
						</g>
						<g>
							<path class="st0" d="M24.04-48.2c-0.15-0.47-0.38-0.94-0.71-1.43c0,0-9.87,1.51-13.66,8.18c0,0,0.02,0.28,0.21,0.83
								C13.2-45.02,18.57-47.55,24.04-48.2z"/>
							<path class="st1" d="M23.4-49.99C23.37-50,23.32-50,23.28-50c-0.1,0.02-2.54,0.41-5.49,1.61c-2.74,1.13-6.42,3.22-8.43,6.76
								c-0.04,0.06-0.05,0.13-0.05,0.2c0,0.04,0.02,0.35,0.23,0.94c0.04,0.13,0.16,0.21,0.29,0.24c0.13,0.02,0.27-0.03,0.35-0.14
								c3.03-4.04,8.09-6.76,13.9-7.44c0.11-0.01,0.21-0.07,0.27-0.17c0.06-0.09,0.07-0.21,0.04-0.31
								c-0.18-0.54-0.42-1.04-0.74-1.53C23.59-49.92,23.5-49.98,23.4-49.99z M10.19-41.58c3.45-5.63,11.51-7.37,12.98-7.64
								c0.15,0.23,0.27,0.47,0.37,0.71C18.08-47.76,13.28-45.26,10.19-41.58z"/>
						</g>
					</g>
					<g>
						<path class="st4" d="M11.35-39.46c-0.32-0.75,0.04-1.62,0.79-1.94c0.76-0.31,1.62,0.04,1.94,0.79
							c0.32,0.75-0.04,1.61-0.79,1.94C12.54-38.35,11.67-38.7,11.35-39.46z"/>
						<path class="st1" d="M13.04-41.82L13.04-41.82c-0.35-0.06-0.7-0.02-1.03,0.12c-0.44,0.19-0.8,0.54-0.98,0.99
							c-0.19,0.45-0.18,0.94,0.01,1.39c0.24,0.57,0.75,0.98,1.36,1.09c0.35,0.06,0.7,0.02,1.03-0.11c0.93-0.38,1.37-1.46,0.98-2.39
							C14.16-41.3,13.65-41.71,13.04-41.82z M12.52-38.9c-0.39-0.07-0.69-0.33-0.84-0.68c-0.12-0.28-0.12-0.59,0-0.88
							c0.11-0.28,0.33-0.49,0.61-0.61c0.56-0.24,1.25,0.05,1.49,0.6c0.24,0.59-0.03,1.24-0.61,1.49
							C12.96-38.9,12.73-38.87,12.52-38.9z"/>
					</g>
				</g>
				<g>
					<g>
						<path class="st5" d="M-34.85,2.38c1.32,0.37,2.52,2.11,2.83,3.44c0.34,1.48-0.19,2.91-1.06,4.1c-0.44,0.6-2.13,2.31-1.91,0.41
							c0.09-0.74,0.5-1.23,0.87-1.87c0.03-0.04,0.05-0.08,0.07-0.13c-0.16,0.11-0.32,0.22-0.49,0.33c-0.57,0.38-2.72,2.16-3.27,2.62
							c-0.29,0.24-0.73,0.62-1.11,0.37c-0.29-0.19-0.24-0.68-0.17-0.95c0.11-0.5,0.66-0.99,1.01-1.34c0.26-0.28,0.54-0.53,0.83-0.79
							c-0.31,0.18-0.62,0.37-0.92,0.56c-0.44,0.28-0.87,0.67-1.37,0.8c-0.75,0.2-0.93-0.64-0.64-1.17c0.35-0.64,1.12-1.05,1.72-1.39
							c0.27-0.16,0.54-0.34,0.8-0.51c-0.33,0.09-0.65,0.19-0.99,0.31c-0.51,0.18-0.98,0.46-1.52,0.6c-0.68,0.18-1.41-0.24-0.84-0.94
							c0.6-0.74,1.9-1.63,2.75-2c-0.75-0.03-2.68,0.97-3.09,0.32C-42.06,3.96-36.45,1.93-34.85,2.38z"/>
						<path class="st6" d="M-41.14,7.84c0.26,0.18,0.66,0.23,1.03,0.13c0.17-0.05,0.33-0.1,0.49-0.17c-0.31,0.24-0.59,0.5-0.77,0.83
							c-0.26,0.48-0.17,1.15,0.2,1.41c0.13,0.09,0.35,0.18,0.71,0.09c0.19-0.05,0.38-0.13,0.56-0.24c-0.18,0.23-0.34,0.47-0.4,0.74
							c-0.02,0.12-0.07,0.36-0.05,0.6c0.04,0.34,0.2,0.51,0.33,0.59c0.51,0.33,1.03-0.09,1.35-0.35l0.03-0.02l0.22-0.18
							c0.62-0.51,1.93-1.59,2.65-2.14c-0.2,0.34-0.36,0.71-0.42,1.17c-0.03,0.2-0.03,0.37-0.01,0.51c0.04,0.41,0.25,0.55,0.4,0.59
							c0.73,0.21,1.91-1.32,1.92-1.34c1.02-1.4,1.41-2.9,1.1-4.28c-0.32-1.43-1.6-3.23-2.98-3.62c-1.39-0.38-5.07,0.83-6.32,1.9
							c-0.38,0.32-0.56,0.63-0.53,0.92l0,0c0.01,0.09,0.04,0.18,0.1,0.27c0.3,0.5,1.06,0.35,1.85,0.13
							c-0.58,0.39-1.14,0.87-1.49,1.3c-0.19,0.23-0.28,0.47-0.25,0.69C-41.42,7.54-41.31,7.72-41.14,7.84z M-38.04,4.76
							c-0.02-0.1-0.1-0.18-0.21-0.18c-0.31-0.01-0.75,0.11-1.23,0.25c-0.6,0.17-1.51,0.44-1.67,0.17c-0.01-0.02-0.02-0.05-0.03-0.08
							l0,0c-0.01-0.13,0.12-0.32,0.36-0.53c1.24-1.04,4.77-2.12,5.91-1.8c1.21,0.34,2.37,2,2.66,3.27c0.04,0.16,0.06,0.32,0.08,0.47
							c0.14,1.4-0.52,2.65-1.1,3.44c-0.4,0.55-1.2,1.24-1.43,1.17c-0.04-0.01-0.11-0.23-0.06-0.61c0.06-0.52,0.31-0.91,0.59-1.36
							c0.08-0.13,0.17-0.27,0.25-0.41l0.07-0.13c0.05-0.09,0.04-0.21-0.04-0.28c-0.07-0.07-0.19-0.08-0.28-0.02
							c-0.1,0.06-0.19,0.13-0.29,0.19l-0.21,0.14c-0.52,0.35-2.31,1.82-3.07,2.46l-0.25,0.2c-0.31,0.26-0.6,0.46-0.8,0.33
							c-0.15-0.09-0.12-0.55-0.08-0.71c0.08-0.36,0.47-0.75,0.78-1.06c0.06-0.06,0.12-0.12,0.17-0.18c0.23-0.24,0.48-0.47,0.72-0.69
							l0.1-0.09c0.09-0.08,0.1-0.21,0.03-0.3c-0.07-0.1-0.19-0.12-0.29-0.06c-0.36,0.19-0.65,0.38-0.94,0.56
							c-0.12,0.08-0.23,0.15-0.35,0.24c-0.31,0.22-0.63,0.45-0.96,0.54c-0.15,0.03-0.24,0.03-0.33-0.03
							c-0.17-0.12-0.2-0.55-0.05-0.81c0.3-0.54,0.94-0.91,1.51-1.24l0.12-0.07c0.3-0.17,0.59-0.36,0.82-0.52
							c0.1-0.06,0.13-0.19,0.09-0.29c-0.05-0.1-0.17-0.16-0.27-0.12c-0.33,0.09-0.66,0.2-1,0.31c-0.23,0.08-0.45,0.18-0.67,0.27
							c-0.27,0.13-0.55,0.25-0.83,0.32c-0.24,0.06-0.51,0.04-0.65-0.06c-0.1-0.07-0.11-0.13-0.11-0.15
							c-0.01-0.09,0.04-0.22,0.16-0.35c0.57-0.71,1.83-1.57,2.65-1.94c0.09-0.04,0.14-0.13,0.13-0.23
							C-38.04,4.78-38.04,4.77-38.04,4.76z"/>
					</g>
					<g>
						<g>
							<path class="st2" d="M-10.73,3.83c0,0-0.33-0.05-0.92-0.15c-0.58-0.08-1.42-0.2-2.43-0.27c-2.02-0.15-4.72-0.14-7.34,0.29
								c-2.63,0.42-5.14,1.23-6.93,2.06c-0.44,0.22-0.86,0.39-1.21,0.58c-0.35,0.19-0.66,0.36-0.92,0.49
								c-0.49,0.29-0.78,0.46-0.78,0.46c-0.05,0.03-0.11,0.06-0.17,0.09l-3.8-6.15c0.07-0.04,0.14-0.08,0.21-0.13
								c0,0,0.35-0.21,0.99-0.58c0.32-0.18,0.71-0.38,1.16-0.62c0.45-0.25,0.98-0.47,1.54-0.75c2.28-1.04,5.48-2.09,8.76-2.61
								c3.28-0.53,6.58-0.55,9.03-0.36c1.22,0.09,2.23,0.23,2.94,0.33c0.71,0.11,1.11,0.18,1.11,0.18c1.58,0.27,2.91,1.01,3.73,1.93
								c0.83,0.92,1.12,1.99,0.78,2.93c-0.35,0.94-1.16,1.6-2.18,2C-8.19,3.94-9.43,4.06-10.73,3.83z"/>
							<path class="st3" d="M-9.41-3.53L-9.41-3.53l-0.04,0l-1.11-0.18c-0.64-0.08-1.7-0.23-2.96-0.32
								c-1.74-0.13-5.23-0.27-9.08,0.36c-2.98,0.47-6.2,1.43-8.81,2.63c-0.19,0.09-0.38,0.18-0.56,0.26
								c-0.35,0.16-0.69,0.32-0.99,0.49l-1.16,0.62l-1.21,0.73c-0.1,0.07-0.14,0.21-0.07,0.31l3.8,6.16c0.06,0.1,0.2,0.14,0.3,0.08
								l0.14-0.08l0.82-0.48l0.9-0.48c0.21-0.11,0.45-0.23,0.7-0.34c0.16-0.08,0.33-0.16,0.5-0.24c2.02-0.92,4.52-1.67,6.86-2.05
								c2.24-0.37,4.9-0.47,7.29-0.29c0.99,0.07,1.8,0.18,2.39,0.26l0.94,0.15c1.3,0.22,2.57,0.13,3.68-0.29
								c1.17-0.45,1.97-1.19,2.31-2.14C-4.4,0.61-4.7-0.55-5.59-1.53C-6.47-2.52-7.87-3.26-9.41-3.53z M-34.91,1.31l0.01-0.01
								l1.23-0.71l0.9-0.49c0.3-0.16,0.63-0.31,0.98-0.47c0.18-0.09,0.36-0.17,0.55-0.27c2.57-1.18,5.74-2.12,8.69-2.59
								c3.81-0.62,7.25-0.49,8.97-0.36c1.26,0.09,2.31,0.23,2.93,0.32l1.11,0.18l0.07-0.22l-0.04,0.22
								c1.45,0.26,2.74,0.94,3.56,1.85c0.77,0.86,1.04,1.85,0.73,2.7C-5.58,2.5-6.52,3.06-7.24,3.34c-1.03,0.38-2.22,0.48-3.45,0.27
								l-0.92-0.15c-0.63-0.08-1.45-0.19-2.46-0.26c-2.41-0.19-5.11-0.08-7.39,0.29c-2.38,0.38-4.93,1.13-6.99,2.08
								c-0.17,0.08-0.34,0.16-0.49,0.23c-0.27,0.12-0.51,0.24-0.73,0.36l-0.91,0.49l-0.76,0.45L-34.91,1.31z"/>
						</g>
						<path class="st7" d="M-23.56-3.27c0,0,0.42-0.08,1.06-0.19c0.64-0.1,1.49-0.22,2.35-0.29c1.71-0.17,3.42-0.17,3.42-0.17
							l0.03,7.25c0,0-1.4,0-2.78,0.13c-0.69,0.07-1.38,0.17-1.89,0.24c-0.51,0.09-0.85,0.15-0.85,0.15L-23.56-3.27z"/>
						<path class="st8" d="M-33.44,4.13l-1.79-2.89c0.07-0.04,0.14-0.08,0.21-0.13c0,0,0.35-0.21,0.99-0.58
							c0.32-0.18,0.71-0.38,1.16-0.62c0.45-0.25,0.98-0.47,1.54-0.75c2.28-1.04,5.48-2.09,8.76-2.61c3.28-0.53,6.58-0.55,9.03-0.36
							c1.22,0.09,2.23,0.23,2.94,0.33c0.71,0.11,1.11,0.18,1.11,0.18c1.52,0.26,2.82,0.96,3.63,1.82c0.82,0.88,1.17,1.9,0.93,2.82
							c0,0-1.75-0.64-4.46-1.17c-1.36-0.26-2.96-0.49-4.69-0.6c-1.73-0.11-3.58-0.11-5.42,0.04c-3.69,0.29-7.3,1.29-9.83,2.4
							c-0.65,0.26-1.21,0.56-1.72,0.79c-0.5,0.26-0.93,0.49-1.29,0.69C-33.04,3.89-33.44,4.13-33.44,4.13z"/>
						<path class="st9" d="M-29.13,6.14c0,0-0.23,0.11-0.45,0.23c-0.22,0.12-0.45,0.23-0.45,0.23l-3.43-6.38c0,0,0.28-0.15,0.57-0.3
							c0.28-0.16,0.58-0.29,0.58-0.29L-29.13,6.14z"/>
						<polygon class="st9" points="-28.22,5.71 -28.67,5.92 -31.74,-0.65 -31.15,-0.92 						"/>
					</g>
				</g>
				<g>
					<g>
						<path class="st5" d="M41.3,13.91c-0.54,0.56-2.21-0.83-2.95-0.96c0.75,0.55,1.83,1.69,2.26,2.53
							c0.41,0.81-0.39,1.06-1.02,0.74c-0.5-0.24-0.89-0.62-1.35-0.9c-0.31-0.18-0.6-0.35-0.9-0.51c0.22,0.23,0.44,0.46,0.68,0.67
							c0.51,0.46,1.18,1.03,1.39,1.72c0.18,0.58-0.18,1.36-0.87,1.01c-0.47-0.24-0.8-0.71-1.17-1.07c-0.25-0.26-0.51-0.5-0.78-0.74
							c0.22,0.32,0.45,0.62,0.65,0.95c0.26,0.41,0.7,1.01,0.7,1.53c0.01,0.28-0.05,0.77-0.37,0.89c-0.43,0.16-0.77-0.29-1.01-0.59
							c-0.44-0.56-2.17-2.76-2.65-3.24c-0.14-0.14-0.27-0.29-0.4-0.42c0.01,0.05,0.03,0.1,0.04,0.14c0.22,0.7,0.52,1.27,0.45,2
							c-0.18,1.9-1.48-0.12-1.78-0.8c-0.6-1.35-0.81-2.85-0.18-4.23c0.58-1.24,2.12-2.68,3.49-2.77
							C37.18,9.76,42.24,12.92,41.3,13.91z"/>
						<path class="st6" d="M40.91,16.11c0.07-0.21,0.04-0.46-0.1-0.73c-0.26-0.49-0.7-1.07-1.19-1.58c0.73,0.38,1.43,0.69,1.84,0.27
							c0.07-0.07,0.12-0.15,0.15-0.24l0,0c0.09-0.29-0.02-0.62-0.32-1.01c-1-1.3-4.34-3.27-5.78-3.18
							c-1.44,0.09-3.06,1.58-3.68,2.91c-0.59,1.29-0.53,2.83,0.18,4.42c0.01,0.02,0.84,1.76,1.59,1.71c0.16,0,0.39-0.1,0.52-0.49
							c0.04-0.13,0.08-0.3,0.1-0.5c0.04-0.46-0.04-0.86-0.16-1.23c0.59,0.69,1.65,2.02,2.14,2.65l0.18,0.23l0.02,0.03
							c0.25,0.32,0.68,0.85,1.24,0.63c0.15-0.05,0.33-0.19,0.44-0.51c0.07-0.23,0.08-0.47,0.08-0.6c0-0.27-0.1-0.54-0.23-0.8
							c0.15,0.14,0.32,0.26,0.49,0.35c0.33,0.16,0.56,0.12,0.71,0.06c0.42-0.18,0.65-0.82,0.49-1.34c-0.11-0.36-0.33-0.69-0.58-0.98
							c0.14,0.09,0.29,0.18,0.44,0.27c0.34,0.17,0.74,0.21,1.04,0.08C40.72,16.44,40.86,16.29,40.91,16.11z M38.14,12.88
							c-0.04,0.09,0,0.2,0.08,0.25c0.72,0.53,1.77,1.64,2.18,2.45c0.09,0.15,0.11,0.29,0.08,0.38c-0.01,0.02-0.03,0.08-0.14,0.13
							c-0.16,0.07-0.43,0.04-0.65-0.07c-0.26-0.13-0.5-0.3-0.74-0.49c-0.19-0.14-0.38-0.28-0.6-0.41c-0.3-0.18-0.61-0.35-0.91-0.51
							c-0.09-0.05-0.22-0.03-0.29,0.07c-0.07,0.09-0.06,0.21,0.02,0.29c0.2,0.21,0.44,0.45,0.69,0.68l0.11,0.09
							c0.48,0.44,1.03,0.94,1.22,1.53c0.09,0.29-0.03,0.7-0.23,0.78c-0.09,0.04-0.19,0.02-0.33-0.04c-0.31-0.16-0.57-0.45-0.82-0.73
							c-0.1-0.11-0.19-0.21-0.29-0.31c-0.24-0.23-0.49-0.48-0.8-0.74c-0.08-0.08-0.22-0.08-0.3,0c-0.09,0.08-0.1,0.21-0.04,0.3
							l0.08,0.11c0.19,0.27,0.39,0.54,0.56,0.83c0.04,0.07,0.09,0.14,0.14,0.21c0.24,0.37,0.53,0.83,0.53,1.2
							c0,0.17-0.06,0.62-0.23,0.68c-0.22,0.09-0.46-0.17-0.71-0.49l-0.21-0.25c-0.61-0.78-2.04-2.6-2.48-3.05l-0.18-0.17
							c-0.08-0.09-0.16-0.17-0.24-0.25c-0.08-0.08-0.19-0.09-0.28-0.03c-0.09,0.05-0.13,0.16-0.1,0.26l0.04,0.15
							c0.05,0.15,0.11,0.31,0.16,0.45c0.18,0.5,0.33,0.93,0.29,1.46c-0.04,0.38-0.15,0.59-0.19,0.58c-0.24,0.02-0.88-0.83-1.15-1.45
							c-0.4-0.9-0.79-2.25-0.36-3.6c0.05-0.15,0.11-0.3,0.18-0.44c0.55-1.19,2.04-2.57,3.29-2.64c1.18-0.08,4.41,1.72,5.39,3
							c0.19,0.25,0.28,0.47,0.24,0.59l0,0c-0.01,0.03-0.02,0.05-0.04,0.07c-0.22,0.22-1.05-0.22-1.59-0.52
							c-0.44-0.24-0.85-0.46-1.15-0.51c-0.1-0.02-0.2,0.04-0.24,0.13C38.14,12.87,38.14,12.88,38.14,12.88z"/>
					</g>
					<g>
						<g>
							<path class="st2" d="M11.63,6.2c0,0,0.34,0.02,0.93,0.05c0.59,0.05,1.43,0.1,2.43,0.25c2,0.28,4.64,0.86,7.11,1.83
								c2.48,0.96,4.76,2.29,6.34,3.47c0.39,0.31,0.76,0.56,1.06,0.82c0.3,0.26,0.57,0.48,0.79,0.67c0.42,0.39,0.66,0.62,0.66,0.62
								c0.05,0.04,0.1,0.08,0.14,0.12l5.01-5.22c-0.06-0.06-0.12-0.1-0.17-0.17c0,0-0.3-0.28-0.84-0.78c-0.28-0.24-0.62-0.52-1-0.85
								c-0.39-0.34-0.86-0.67-1.35-1.05c-2.01-1.5-4.92-3.19-8.02-4.39c-3.09-1.21-6.32-1.92-8.75-2.25
								c-1.22-0.17-2.23-0.25-2.94-0.3c-0.71-0.03-1.12-0.06-1.12-0.06c-1.6-0.07-3.06,0.38-4.05,1.1c-1,0.73-1.51,1.71-1.38,2.7
								c0.14,0.99,0.8,1.81,1.71,2.41C9.13,5.78,10.32,6.16,11.63,6.2z"/>
							<path class="st3" d="M7.74-0.11C6.66,0.66,6.12,1.73,6.27,2.8c0.14,1,0.76,1.9,1.81,2.57c1,0.65,2.22,1.01,3.54,1.06
								l0.95,0.05c0.59,0.04,1.41,0.1,2.39,0.24c2.37,0.32,4.95,0.98,7.07,1.81c2.21,0.86,4.51,2.12,6.29,3.44
								c0.15,0.12,0.3,0.23,0.44,0.34c0.22,0.17,0.43,0.33,0.62,0.48l0.78,0.66l0.7,0.64l0.12,0.1c0.09,0.08,0.23,0.08,0.31-0.01
								l5.01-5.22c0.09-0.09,0.09-0.23,0-0.32L35.26,7.7l-1.01-0.85c-0.26-0.23-0.55-0.45-0.87-0.69c-0.16-0.12-0.33-0.24-0.49-0.37
								c-2.3-1.72-5.24-3.33-8.06-4.42c-3.64-1.43-7.08-2.02-8.8-2.27c-1.25-0.18-2.33-0.25-2.96-0.31l-1.13-0.06l-0.04,0l0,0
								C10.32-1.32,8.81-0.9,7.74-0.11z M31.1,13.73l-0.65-0.6l-0.78-0.66c-0.19-0.16-0.41-0.33-0.64-0.51
								c-0.14-0.1-0.28-0.21-0.43-0.33c-1.81-1.36-4.14-2.63-6.4-3.5c-2.15-0.84-4.76-1.52-7.16-1.84c-1-0.14-1.82-0.21-2.46-0.26
								l-0.93-0.04C10.4,5.93,9.26,5.59,8.33,4.99C7.68,4.57,6.88,3.83,6.72,2.74C6.6,1.84,7.07,0.93,8.01,0.25
								c0.99-0.72,2.4-1.11,3.87-1.06l0.01-0.23l0.03,0.23l1.12,0.06c0.63,0.04,1.69,0.13,2.93,0.3c1.71,0.23,5.1,0.83,8.69,2.23
								c2.79,1.08,5.69,2.67,7.96,4.36c0.17,0.13,0.33,0.25,0.49,0.38c0.31,0.23,0.6,0.45,0.85,0.67l0.78,0.67l1.05,0.96l0.02,0.01
								L31.1,13.73z"/>
						</g>
						<path class="st7" d="M25.68,1.96c0,0-0.4-0.16-1-0.41c-0.61-0.23-1.41-0.52-2.24-0.78c-1.64-0.53-3.31-0.89-3.31-0.89
							l-1.56,7.08c0,0,1.37,0.29,2.7,0.72c0.66,0.2,1.31,0.45,1.8,0.63c0.49,0.2,0.8,0.33,0.8,0.33L25.68,1.96z"/>
						<path class="st8" d="M33.77,11.27l2.35-2.45c-0.06-0.06-0.12-0.1-0.17-0.17c0,0-0.3-0.28-0.84-0.78
							c-0.28-0.24-0.62-0.52-1-0.85c-0.39-0.34-0.86-0.67-1.35-1.05c-2.01-1.5-4.92-3.19-8.02-4.39c-3.09-1.21-6.32-1.92-8.75-2.25
							c-1.22-0.17-2.23-0.25-2.94-0.3c-0.71-0.03-1.12-0.06-1.12-0.06C10.38-1.1,8.97-0.69,7.99-0.01C7,0.67,6.45,1.6,6.49,2.55
							c0,0,1.84-0.26,4.61-0.2c1.39,0.03,3,0.14,4.71,0.4C17.53,3,19.33,3.38,21.1,3.92c3.55,1.06,6.86,2.8,9.11,4.42
							c0.58,0.39,1.07,0.8,1.52,1.14c0.43,0.36,0.81,0.68,1.11,0.94C33.43,10.96,33.77,11.27,33.77,11.27z"/>
						<path class="st9" d="M29.14,12.33c0,0,0.21,0.15,0.39,0.32c0.2,0.16,0.39,0.32,0.39,0.32l4.7-5.52c0,0-0.24-0.21-0.49-0.42
							c-0.24-0.21-0.5-0.4-0.5-0.4L29.14,12.33z"/>
						<polygon class="st9" points="28.34,11.72 28.74,12.03 33.11,6.25 32.6,5.86 						"/>
					</g>
				</g>
				<g>
					<path class="st0" d="M1.52-19.49c0,0-8.01-4-9.08-22.6L1.52-19.49z"/>
					<g>
						<g>
							<g>
								<g>
									<path class="st2" d="M-5.33-19.96c0,0-0.06-0.07-0.16-0.22c-0.1-0.15-0.25-0.36-0.44-0.63c-0.4-0.54-0.86-1.33-1.41-2.29
										c-1.05-1.92-2.1-4.55-2.82-7.19c-0.17-0.66-0.36-1.32-0.51-1.98c-0.13-0.65-0.26-1.29-0.38-1.9
										c-0.06-0.31-0.12-0.61-0.18-0.92c-0.04-0.3-0.08-0.59-0.12-0.87c-0.08-0.57-0.15-1.1-0.22-1.6
										c-0.04-0.24-0.07-0.49-0.1-0.71c-0.02-0.22-0.04-0.43-0.05-0.64c-0.04-0.4-0.07-0.74-0.09-1.03
										c-0.06-0.57-0.08-0.9-0.08-0.9c0-0.07-0.01-0.13-0.01-0.19l8.66-0.61c0.01,0.06,0.02,0.11,0.03,0.16
										c0,0,0.02,0.28,0.06,0.78c0.02,0.25,0.05,0.55,0.08,0.9c0.02,0.18,0.03,0.36,0.04,0.55c0.03,0.19,0.06,0.39,0.09,0.6
										c0.06,0.42,0.12,0.87,0.19,1.36c0.03,0.24,0.07,0.49,0.1,0.74c0.05,0.24,0.1,0.5,0.15,0.75c0.1,0.51,0.21,1.04,0.32,1.58
										c0.12,0.53,0.28,1.05,0.41,1.58c0.58,2.1,1.37,4.06,2.09,5.38c0.38,0.64,0.68,1.19,0.93,1.52c0.11,0.17,0.21,0.31,0.27,0.4
										c0.06,0.09,0.1,0.13,0.1,0.13c0.56,0.72,0.7,1.58,0.63,2.56c-0.05,0.47-0.14,1-0.3,1.52c-0.16,0.53-0.37,1.07-0.67,1.58
										c-0.31,0.51-0.74,0.93-1.25,1.2c-0.53,0.27-1.13,0.4-1.79,0.37C-3.04-18.04-4.42-18.76-5.33-19.96z"/>
									<path class="st3" d="M-3.01-41.92l-9.18,0.64l0.02,0.47l0.26,2.82l0.41,2.94l0.56,2.83c0.1,0.46,0.22,0.9,0.34,1.35
										c0.06,0.21,0.12,0.43,0.17,0.64c0.72,2.62,1.76,5.27,2.85,7.25l0.11,0.18c0.5,0.87,0.94,1.62,1.32,2.14l0.44,0.63
										c0.1,0.16,0.17,0.23,0.17,0.23c0.8,1.07,1.98,1.8,3.21,2.03c0.18,0.03,0.37,0.05,0.55,0.06c0.7,0.03,1.35-0.1,1.92-0.39
										c0.56-0.29,1.02-0.74,1.37-1.3c0.29-0.49,0.52-1.03,0.7-1.65c0.16-0.52,0.26-1.07,0.3-1.57c0.09-1.16-0.13-2.03-0.69-2.75
										c0-0.01-0.03-0.05-0.08-0.12L1.46-25.9c-0.18-0.23-0.39-0.58-0.63-1c-0.09-0.16-0.19-0.32-0.29-0.5
										c-0.75-1.38-1.53-3.37-2.06-5.31c-0.05-0.21-0.11-0.41-0.17-0.62c-0.08-0.32-0.17-0.64-0.25-0.95l-0.46-2.32l-0.42-3.22
										l-0.14-1.68c-0.01-0.04-0.01-0.08-0.02-0.12L-3.01-41.92z M-11.62-40.76l8.13-0.58l0.27,2.75l0.34,2.31l0.42,2.12
										c0.08,0.34,0.16,0.66,0.25,0.99c0.05,0.2,0.11,0.4,0.16,0.61c0.55,1.99,1.34,4.03,2.12,5.45c0.11,0.18,0.21,0.35,0.3,0.5
										c0.25,0.42,0.46,0.8,0.66,1.05l0.26,0.39c0.07,0.1,0.11,0.15,0.11,0.15c0.46,0.59,0.65,1.35,0.57,2.36
										c-0.03,0.47-0.13,0.97-0.28,1.46c-0.17,0.58-0.38,1.07-0.65,1.52c-0.28,0.47-0.68,0.85-1.15,1.1
										c-0.48,0.25-1.04,0.36-1.64,0.33c-0.15-0.01-0.31-0.02-0.47-0.05c-1.1-0.2-2.15-0.86-2.88-1.82
										c-0.01-0.01-0.06-0.08-0.15-0.22l-0.44-0.63c-0.37-0.5-0.8-1.24-1.3-2.09l-0.1-0.18c-1.07-1.95-2.09-4.55-2.8-7.12
										c-0.05-0.22-0.11-0.43-0.17-0.64c-0.12-0.45-0.23-0.89-0.33-1.31l-0.56-2.82l-0.44-3.16L-11.62-40.76z"/>
								</g>
								<path class="st8" d="M1.99-20.72l-0.07,0.1c0,0-0.05-0.03-0.18-0.12c-0.13-0.08-0.3-0.21-0.53-0.4
									c-0.45-0.37-1.08-0.96-1.73-1.78c-0.34-0.4-0.66-0.89-1.01-1.39c-0.18-0.25-0.32-0.53-0.49-0.8
									c-0.16-0.29-0.35-0.56-0.49-0.87c-0.29-0.6-0.63-1.21-0.89-1.88c-0.13-0.33-0.27-0.66-0.41-0.99
									c-0.14-0.33-0.23-0.69-0.36-1.03c-0.11-0.35-0.23-0.69-0.35-1.03c-0.11-0.35-0.19-0.71-0.29-1.05
									c-0.18-0.7-0.38-1.38-0.5-2.06c-0.13-0.68-0.27-1.34-0.39-1.95c-0.08-0.63-0.17-1.22-0.25-1.77
									c-0.18-1.09-0.23-2.02-0.29-2.67c-0.06-0.64-0.08-1.01-0.08-1.01l3.07-0.21c0.01,0.06,0.02,0.11,0.02,0.16
									c0,0,0.02,0.28,0.06,0.78c0.02,0.25,0.05,0.55,0.08,0.9c0.02,0.18,0.03,0.36,0.04,0.55c0.03,0.19,0.06,0.39,0.09,0.6
									c0.06,0.42,0.12,0.87,0.19,1.36c0.03,0.24,0.07,0.49,0.1,0.74c0.05,0.24,0.1,0.5,0.15,0.75c0.1,0.51,0.21,1.04,0.32,1.58
									c0.12,0.53,0.28,1.05,0.41,1.58c0.58,2.1,1.37,4.06,2.09,5.38c0.38,0.64,0.68,1.19,0.93,1.52c0.11,0.17,0.21,0.31,0.27,0.4
									c0.06,0.09,0.1,0.13,0.1,0.13c0.56,0.72,0.83,1.48,0.89,2.25C2.56-22.19,2.41-21.43,1.99-20.72z"/>
								<polygon class="st9" points="-10.83,-33.01 -11.03,-34.02 -2.49,-35.66 -2.32,-34.82 								"/>
								<path class="st9" d="M-10.61-31.99c0,0-0.03-0.13-0.06-0.26c-0.03-0.13-0.05-0.26-0.05-0.26l8.48-1.9
									c0,0,0.09,0.42,0.09,0.42L-10.61-31.99z"/>
							</g>
							<g>
								<path class="st2" d="M-1.15-31.15c-0.33-0.86-0.97-1.57-1.9-2c-0.93-0.43-2.05-0.62-3.2-0.36
									c-1.16,0.26-2.12,0.92-2.67,1.85c-0.55,0.92-0.78,2.09-0.37,3.23c0.2,0.57,0.47,1.07,0.88,1.48
									c0.4,0.41,0.87,0.72,1.37,0.92c0.49,0.2,1.05,0.28,1.61,0.25c0.55-0.04,1.11-0.19,1.64-0.44c0.53-0.27,0.99-0.61,1.37-0.99
									c0.38-0.39,0.68-0.81,0.93-1.25c0.23-0.45,0.39-0.9,0.44-1.35C-1-30.24-1-30.72-1.15-31.15z"/>
								<path class="st3" d="M-4.24-33.84c-0.7-0.12-1.39-0.11-2.08,0.04c-1.23,0.27-2.28,1-2.86,1.98c-0.66,1.09-0.8,2.37-0.39,3.5
									c0.24,0.69,0.54,1.2,0.95,1.59c0.43,0.44,0.93,0.77,1.48,0.99c0.53,0.22,1.14,0.31,1.74,0.27c0.6-0.03,1.19-0.2,1.76-0.47
									c0.54-0.27,1.02-0.62,1.46-1.05c0.38-0.39,0.72-0.83,0.98-1.32c0.26-0.49,0.42-0.98,0.47-1.46
									c0.04-0.39,0.06-0.95-0.14-1.48c-0.36-0.97-1.07-1.72-2.05-2.17C-3.34-33.62-3.78-33.76-4.24-33.84z M-6.27-26.13
									c-0.22-0.04-0.44-0.1-0.64-0.18c-0.46-0.19-0.9-0.48-1.27-0.85c-0.34-0.33-0.6-0.77-0.81-1.37
									c-0.34-0.96-0.22-2.04,0.34-2.97c0.51-0.85,1.4-1.47,2.47-1.71c1-0.22,2.06-0.1,3.01,0.34c0.83,0.39,1.44,1.02,1.73,1.83
									c0.15,0.41,0.13,0.89,0.1,1.22c-0.05,0.39-0.18,0.81-0.4,1.23c-0.23,0.44-0.53,0.83-0.87,1.18
									c-0.38,0.38-0.81,0.7-1.29,0.93c-0.49,0.24-1.01,0.37-1.52,0.41C-5.71-26.06-6-26.08-6.27-26.13z"/>
							</g>
							<path class="st7" d="M-2.23-30.73c-0.11-0.33-0.31-0.63-0.56-0.87c-0.23-0.26-0.52-0.47-0.85-0.63
								c-0.67-0.32-1.51-0.43-2.35-0.21c-0.84,0.21-1.51,0.71-1.92,1.39c-0.21,0.33-0.34,0.71-0.4,1.1
								c-0.04,0.4,0.01,0.81,0.15,1.21c0.13,0.41,0.35,0.76,0.62,1.05c0.28,0.29,0.62,0.52,0.99,0.66c0.74,0.3,1.58,0.28,2.37-0.07
								c0.79-0.36,1.39-0.96,1.73-1.61c0.17-0.33,0.27-0.67,0.31-1C-2.09-30.05-2.12-30.39-2.23-30.73z"/>
						</g>
						<g>
							<polygon class="st2" points="-2.55,-42.15 -12.52,-41.53 -12.33,-39.26 -2.38,-40.21 							"/>
							<path class="st3" d="M-2.3-42.44l-10.52,0.65l0.24,2.84l10.49-1.01L-2.3-42.44z M-12.22-41.28l9.43-0.59l0.12,1.41l-9.4,0.9
								L-12.22-41.28z"/>
						</g>
					</g>
				</g>
				<g>
					<g>
						<g>
							<g>
								<path class="st2" d="M10.63-24.13c0,0,0.06-0.01,0.16-0.05c0.1-0.03,0.26-0.08,0.46-0.16c0.37-0.14,0.9-0.35,1.44-0.64
									c0.53-0.3,1.05-0.68,1.4-1.08c0.36-0.42,0.57-0.82,0.71-1.37c0.13-0.54,0.14-1.25,0.04-2.02c-0.08-0.4-0.13-0.78-0.26-1.18
									c-0.05-0.19-0.11-0.39-0.16-0.56c-0.07-0.19-0.14-0.38-0.2-0.55c-0.06-0.18-0.12-0.35-0.18-0.51
									c-0.06-0.16-0.14-0.32-0.21-0.47c-0.13-0.29-0.24-0.55-0.33-0.76c-0.22-0.43-0.34-0.67-0.34-0.67
									c-0.02-0.04-0.04-0.1-0.06-0.15l7.7-4c0.03,0.06,0.07,0.12,0.1,0.18c0,0,0.17,0.32,0.45,0.89c0.13,0.29,0.29,0.66,0.48,1.07
									c0.09,0.21,0.19,0.43,0.29,0.66c0.09,0.25,0.18,0.51,0.28,0.78c0.1,0.27,0.2,0.55,0.31,0.85c0.08,0.3,0.18,0.63,0.27,0.96
									c0.2,0.64,0.33,1.4,0.47,2.17c0.22,1.57,0.27,3.42-0.19,5.33c-0.44,1.91-1.44,3.77-2.66,5.12
									c-1.22,1.37-2.54,2.26-3.66,2.89c-1.12,0.63-2.07,0.99-2.73,1.25c-0.65,0.23-1.03,0.34-1.03,0.34
									c-1.48,0.44-2.92,0.22-3.94-0.43c-1.04-0.66-1.66-1.71-1.73-2.91c-0.07-1.2,0.3-2.31,0.88-3.18
									C8.95-23.21,9.73-23.86,10.63-24.13z"/>
								<path class="st3" d="M20.9-38.66l-8.17,4.24l0.17,0.38l0.35,0.69l0.4,0.91c0.05,0.08,0.09,0.18,0.13,0.28l0.45,1.31
									l0.08,0.29c0.08,0.26,0.13,0.49,0.17,0.74c0.02,0.14,0.05,0.28,0.08,0.43c0.1,0.72,0.09,1.4-0.03,1.9
									c-0.11,0.49-0.31,0.87-0.65,1.25c-0.29,0.35-0.77,0.7-1.33,1.02c-0.51,0.29-1.05,0.49-1.4,0.63l-0.45,0.15
									c-0.08,0.03-0.13,0.04-0.14,0.05c-0.95,0.29-1.77,0.94-2.42,1.91c-0.67,1.01-0.99,2.2-0.92,3.35
									c0.08,1.29,0.75,2.43,1.86,3.12c1.14,0.73,2.71,0.9,4.17,0.47l0.16-0.05c0.17-0.05,0.47-0.15,0.88-0.29
									c0.65-0.25,1.61-0.61,2.78-1.26c1.5-0.84,2.72-1.81,3.73-2.95c1.3-1.44,2.29-3.35,2.73-5.24c0.39-1.66,0.46-3.48,0.19-5.43
									l-0.07-0.4c-0.13-0.65-0.24-1.26-0.41-1.81l-0.27-0.95l-0.59-1.64c-0.07-0.17-0.13-0.32-0.2-0.46l-0.57-1.29L20.9-38.66z
									 M13.45-34.17l7.23-3.76l0.42,0.83l0.56,1.27c0.06,0.14,0.13,0.28,0.19,0.44l0.59,1.61l0.27,0.94
									c0.17,0.52,0.28,1.13,0.39,1.75l0.07,0.39c0.26,1.86,0.2,3.62-0.18,5.22c-0.41,1.8-1.36,3.63-2.6,5
									c-0.98,1.11-2.12,2.01-3.59,2.84c-1.12,0.62-2.07,0.98-2.69,1.21c-0.59,0.2-0.95,0.32-1.01,0.34l0,0.01
									c-1.31,0.4-2.71,0.23-3.72-0.4c-0.96-0.61-1.54-1.58-1.6-2.69C7.71-20.21,8-21.27,8.6-22.19c0.57-0.85,1.3-1.43,2.1-1.68
									c0,0,0.07-0.01,0.18-0.05l0.45-0.15c0.38-0.15,0.93-0.36,1.49-0.67c0.44-0.25,1.05-0.65,1.48-1.14
									c0.39-0.46,0.63-0.92,0.76-1.48c0.14-0.57,0.16-1.3,0.05-2.13c-0.03-0.16-0.06-0.29-0.09-0.43
									c-0.04-0.25-0.09-0.52-0.19-0.79l-0.15-0.55l-0.39-1.08c-0.04-0.12-0.09-0.22-0.14-0.33l-0.41-0.92L13.45-34.17z"/>
							</g>
							<path class="st8" d="M7.59-17.77c-0.01-0.04,0-0.08,0-0.13c0,0,0.42-0.02,1.14-0.11c0.72-0.09,1.74-0.26,2.94-0.58
								c1.2-0.34,2.59-0.81,3.99-1.64c0.7-0.39,1.38-0.91,2.03-1.49c0.64-0.59,1.2-1.31,1.67-2.08c0.9-1.6,1.24-3.43,1.17-5.06
								c-0.06-1.63-0.45-3.06-0.83-4.25c-0.22-0.58-0.39-1.13-0.6-1.58c-0.2-0.46-0.38-0.85-0.52-1.18c-0.33-0.63-0.51-1-0.51-1
								l2.74-1.42c0.03,0.07,0.07,0.12,0.1,0.19c0,0,0.17,0.32,0.45,0.89c0.13,0.29,0.29,0.66,0.48,1.07
								c0.09,0.21,0.19,0.43,0.29,0.66c0.09,0.25,0.18,0.51,0.28,0.78c0.1,0.27,0.2,0.55,0.31,0.85c0.08,0.3,0.18,0.63,0.27,0.96
								c0.2,0.64,0.33,1.4,0.47,2.17c0.22,1.57,0.27,3.42-0.19,5.33c-0.44,1.91-1.44,3.77-2.66,5.12c-1.22,1.37-2.54,2.26-3.66,2.89
								c-1.12,0.63-2.07,0.99-2.73,1.25c-0.65,0.23-1.03,0.34-1.03,0.34c-1.47,0.44-2.88,0.37-3.89-0.03
								C8.27-16.25,7.64-16.96,7.59-17.77z"/>
							<path class="st9" d="M14.91-28.76c0,0-0.02-0.15-0.04-0.31c-0.01-0.15-0.02-0.3-0.02-0.3l8.62-1.18l0.13,1.33L14.91-28.76z"
								/>
							<polygon class="st9" points="14.91,-28.22 14.91,-28.49 23.61,-28.52 23.6,-27.83 							"/>
						</g>
						<g>
							<path class="st2" d="M22.37-22.56c0.43-0.78,0.6-1.64,0.61-2.4c-0.03-0.77-0.2-1.45-0.54-1.99
								c-0.16-0.28-0.35-0.51-0.56-0.71c-0.22-0.2-0.46-0.35-0.72-0.48c-0.51-0.26-1.07-0.37-1.67-0.37c-0.59,0-1.15,0.12-1.66,0.28
								c-0.26,0.08-0.5,0.17-0.74,0.27c-0.24,0.09-0.47,0.18-0.68,0.28c-0.39,0.21-0.77,0.38-1.03,0.57
								c-0.29,0.17-0.47,0.34-0.59,0.55c-0.22,0.42-0.15,1.07-0.02,2c0.15,0.91,0.4,2.02,1.07,3c0.66,0.97,1.7,1.6,2.96,1.53
								c0.31-0.01,0.63-0.1,0.96-0.2c0.16-0.06,0.33-0.12,0.49-0.2c0.16-0.08,0.32-0.18,0.48-0.29c0.31-0.21,0.63-0.45,0.89-0.78
								C21.9-21.81,22.18-22.16,22.37-22.56z"/>
							<path class="st3" d="M20.29-28.74c-0.25-0.05-0.52-0.06-0.79-0.06c-0.56,0-1.14,0.1-1.76,0.28c-0.26,0.08-0.5,0.18-0.73,0.27
								c-0.27,0.1-0.51,0.2-0.72,0.3c-0.12,0.06-0.23,0.12-0.33,0.17c-0.28,0.15-0.55,0.28-0.75,0.43c-0.3,0.17-0.52,0.38-0.67,0.65
								c-0.27,0.53-0.2,1.27-0.05,2.2c0.15,0.92,0.41,2.1,1.12,3.12c0.77,1.12,1.95,1.73,3.23,1.66c0.36,0,0.72-0.12,1.03-0.22
								c0.18-0.06,0.35-0.13,0.53-0.2c0.2-0.11,0.38-0.22,0.51-0.31c0.31-0.21,0.66-0.48,0.96-0.84c0.28-0.33,0.57-0.69,0.78-1.12
								c0.51-0.94,0.63-1.9,0.63-2.53c-0.03-0.88-0.23-1.6-0.59-2.15c-0.17-0.28-0.37-0.54-0.6-0.76c-0.22-0.2-0.48-0.38-0.79-0.54
								C20.99-28.57,20.65-28.68,20.29-28.74z M18.1-20.38c-0.79-0.14-1.48-0.61-1.99-1.35c-0.64-0.92-0.87-1.97-1.02-2.87
								c-0.11-0.75-0.2-1.46-0.02-1.8c0.09-0.16,0.24-0.3,0.48-0.43c0.18-0.14,0.43-0.26,0.69-0.39c0.11-0.05,0.22-0.11,0.33-0.17
								c0.19-0.1,0.41-0.18,0.64-0.27c0.26-0.1,0.47-0.19,0.7-0.26c0.57-0.17,1.08-0.26,1.59-0.26c0.56-0.01,1.08,0.11,1.53,0.33
								c0.26,0.13,0.47,0.27,0.65,0.44c0.19,0.18,0.36,0.4,0.51,0.64c0.3,0.47,0.47,1.09,0.5,1.85c-0.01,0.54-0.11,1.39-0.57,2.23
								c-0.18,0.39-0.44,0.7-0.7,1.01c-0.26,0.31-0.57,0.55-0.84,0.73c-0.12,0.09-0.28,0.19-0.44,0.27
								c-0.14,0.07-0.3,0.13-0.45,0.19c-0.33,0.1-0.6,0.17-0.86,0.18C18.56-20.33,18.33-20.34,18.1-20.38z"/>
						</g>
						<path class="st7" d="M21.31-23.02c0.14-0.26,0.24-0.53,0.32-0.79c0.07-0.27,0.1-0.54,0.1-0.8c0.04-0.52-0.09-1-0.3-1.39
							c-0.1-0.2-0.21-0.38-0.35-0.53c-0.14-0.15-0.31-0.29-0.48-0.4c-0.35-0.23-0.75-0.36-1.18-0.41c-0.43-0.05-0.85-0.01-1.24,0.06
							c-0.2,0.04-0.37,0.09-0.55,0.15c-0.19,0.05-0.36,0.11-0.52,0.17c-0.32,0.13-0.58,0.29-0.82,0.44
							c-0.12,0.07-0.2,0.17-0.29,0.25c-0.1,0.08-0.17,0.17-0.22,0.29c-0.04,0.11-0.11,0.22-0.13,0.34
							c-0.03,0.12-0.02,0.26-0.04,0.39c-0.03,0.27,0.03,0.61,0.08,0.93c0.06,0.34,0.18,0.72,0.32,1.08
							c0.15,0.36,0.36,0.73,0.64,1.06c0.56,0.65,1.35,1.03,2.24,0.92c0.45-0.03,0.88-0.23,1.32-0.5c0.22-0.14,0.41-0.34,0.59-0.54
							C21.01-22.53,21.19-22.75,21.31-23.02z"/>
					</g>
					<g>
						<path class="st2" d="M21.17-39.18l-8.79,4.75c0,0,0.22,0.41,0.43,0.83c0.12,0.2,0.21,0.41,0.27,0.56
							c0.07,0.15,0.11,0.25,0.11,0.25l9.12-4.08c0,0-0.07-0.14-0.16-0.37c-0.1-0.23-0.24-0.52-0.39-0.8
							C21.46-38.61,21.17-39.18,21.17-39.18z"/>
						<path class="st3" d="M21.29-39.55l-9.27,5l0.55,1.07c0.11,0.2,0.2,0.4,0.27,0.54l0.22,0.52l9.62-4.31l-0.28-0.62
							c-0.1-0.24-0.24-0.54-0.39-0.82L21.29-39.55z M12.75-34.31l8.3-4.49l0.46,0.89c0.15,0.27,0.28,0.56,0.38,0.78l0.05,0.13
							l-8.62,3.86l0-0.01c-0.06-0.15-0.16-0.37-0.28-0.58L12.75-34.31z"/>
					</g>
				</g>
				<g>
					<path class="st2" d="M17.82-10.52l-26.66-4.8c0,0,0.87-5.66,1.87-6.73c1.01-1.07,11.06-3.38,12.96-2.82l1.27,0.23
						c1.96,0.14,10.59,5.81,11.15,7.16C18.98-16.13,17.82-10.52,17.82-10.52z"/>
					<path class="st3" d="M7.46-24.83L7.46-24.83c-0.07-0.01-0.13-0.02-0.19-0.03l-1.25-0.22C6-25.1,5.93-25.11,5.86-25.12
						c-2.21-0.4-11.92,1.79-12.99,2.92c-1.03,1.11-1.89,6.62-1.93,6.85l-0.03,0.2L18-10.27l0.04-0.21c0.05-0.23,1.16-5.69,0.58-7.09
						C18.01-19,9.68-24.44,7.46-24.83z M7.22-24.43c0.07,0,0.11,0.02,0.16,0.02c2.29,0.41,10.34,5.83,10.83,7.01
						c0.43,1.01-0.23,4.94-0.56,6.62L-8.59-15.5c0.28-1.69,1.04-5.6,1.79-6.4c0.88-0.94,10.3-3.21,12.59-2.79
						c0.05,0,0.09,0.01,0.14,0.02L7.22-24.43z"/>
				</g>
				<path class="st10" d="M-0.45-21.57c2.86,0.04,5.74,0.39,8.53,1.04c3.72,0.86,7.44,2.31,10.48,4.61c-0.07,2.15-0.74,5.4-0.74,5.4
					l-26.66-4.8c0,0,0.49-3.17,1.15-5.21C-5.41-21.42-2.86-21.62-0.45-21.57z"/>
				<g>
					<path class="st2" d="M14.74,0.76C10.61,6.54,3.51,7.52,3.51,7.52l-5.6-1.01c0,0-6.31-3.39-8.17-10.25
						c-1.86-6.86-3.07-16.49,8.78-16.87c0,0,1.75-0.16,4.48,0.07c0,0,1.8,0.13,2.62,0.3c0.83,0.12,2.57,0.63,2.57,0.63
						c2.63,0.73,4.22,1.49,4.22,1.49C23.37-13.63,18.88-5.02,14.74,0.76z"/>
					<path class="st3" d="M5.81-20.4L5.81-20.4c-0.06-0.01-0.11-0.02-0.17-0.03c-0.04-0.01-0.09-0.02-0.15-0.03
						c-0.87-0.16-2.42-0.27-2.48-0.28C0.3-20.95-1.48-20.81-1.5-20.8c-3.96,0.12-6.8,1.31-8.44,3.52c-2.75,3.72-1.62,9.54-0.52,13.6
						C-8.6,3.17-2.25,6.66-2.19,6.69l0.06,0.01l5.67,1.02c0.07-0.01,7.23-1.07,11.37-6.85c2.44-3.42,5.54-8.48,4.26-12.92
						c-0.77-2.64-3.02-4.75-6.7-6.25c0-0.01-1.62-0.77-4.23-1.5C8.17-19.82,6.68-20.24,5.81-20.4z M5.57-20.03l0.16,0.02l0,0
						c0.85,0.15,2.37,0.59,2.39,0.59c2.58,0.72,4.17,1.48,4.19,1.49c3.57,1.45,5.75,3.47,6.47,5.99c1.24,4.29-1.81,9.23-4.2,12.58
						C10.68,6.09,4.02,7.23,3.51,7.32l-5.54-1c-0.45-0.26-6.29-3.65-8.04-10.12c-1.08-3.97-2.2-9.67,0.44-13.25
						c1.56-2.1,4.31-3.24,8.15-3.36c0.02,0,1.78-0.15,4.45,0.07c0.02-0.01,1.59,0.12,2.45,0.27L5.57-20.03z"/>
				</g>
				<path class="st8" d="M6.72,6.65C4.86,7.33,3.51,7.52,3.51,7.52l-5.6-1.01c0,0-0.8-0.43-1.91-1.28l4.66-25.88
					C1.32-20.64,2.1-20.61,3-20.53c0,0,1.8,0.13,2.62,0.3c0.83,0.12,2.57,0.63,2.57,0.63c1.31,0.37,2.35,0.74,3.08,1.01L6.72,6.65z"
					/>
				<path class="st11" d="M18.69-7.05c-0.08,0.24-0.17,0.48-0.27,0.73l-29.66-5.34c-0.01-0.26,0-0.52,0-0.77L18.69-7.05z"/>
				<g>
					<g>
						<g>
							<path class="st2" d="M-19.36,16c0.43-2.37-1.15-4.62-3.51-5.05l0,0c-2.36-0.43-4.62,1.14-5.05,3.51l-1.64,9.09
								c-0.43,2.36,1.15,4.62,3.51,5.05l0,0c2.36,0.43,4.62-1.14,5.05-3.51L-19.36,16z"/>
							<path class="st3" d="M-22.83,10.74c-2.48-0.45-4.85,1.2-5.3,3.68l-1.64,9.1c-0.45,2.48,1.21,4.85,3.69,5.3
								c2.48,0.44,4.85-1.21,5.3-3.68l1.64-9.1C-18.7,13.56-20.35,11.19-22.83,10.74z M-26,28.39c-2.25-0.4-3.74-2.54-3.34-4.79
								l1.64-9.1c0.4-2.24,2.55-3.73,4.8-3.33c2.24,0.41,3.73,2.56,3.33,4.79l-1.64,9.1C-21.61,27.31-23.76,28.79-26,28.39z"/>
						</g>
						<path class="st12" d="M-20.5,16.85c0.33-1.83-0.89-3.58-2.72-3.91l0,0c-1.83-0.33-3.59,0.89-3.92,2.72l-1.27,7.05
							c-0.33,1.84,0.89,3.58,2.72,3.91l0,0c1.83,0.34,3.58-0.88,3.91-2.72L-20.5,16.85z"/>
						<path class="st13" d="M-24.25,22.41c0.16-0.87-0.42-1.7-1.29-1.86c-0.87-0.15-1.69,0.42-1.85,1.29
							c-0.15,0.86,0.42,1.69,1.29,1.85C-25.23,23.85-24.4,23.27-24.25,22.41z"/>
						<path class="st14" d="M-23.49,18.23c0.15-0.86-0.42-1.7-1.29-1.85c-0.87-0.15-1.7,0.43-1.85,1.29
							c-0.16,0.87,0.42,1.7,1.29,1.85C-24.48,19.68-23.65,19.11-23.49,18.23z"/>
					</g>
					<g>
						<g>
							<path class="st2" d="M18.89,22.88c0.43-2.36,2.69-3.93,5.05-3.51l0,0c2.36,0.43,3.94,2.68,3.51,5.05l-1.64,9.09
								c-0.43,2.37-2.69,3.94-5.05,3.51l0,0c-2.36-0.43-3.93-2.69-3.51-5.05L18.89,22.88z"/>
							<path class="st3" d="M23.98,19.16c-2.48-0.44-4.86,1.21-5.3,3.69l-1.64,9.09c-0.45,2.48,1.21,4.86,3.69,5.3
								c2.48,0.45,4.86-1.21,5.31-3.68l1.63-9.1C28.1,21.99,26.46,19.61,23.98,19.16z M20.8,36.81c-2.24-0.4-3.74-2.55-3.33-4.79
								l1.64-9.1c0.41-2.24,2.56-3.73,4.8-3.33c2.24,0.41,3.74,2.55,3.33,4.79l-1.64,9.1C25.19,35.73,23.04,37.22,20.8,36.81z"/>
						</g>
						<path class="st12" d="M19.67,24.08c0.33-1.83,2.08-3.05,3.91-2.72l0,0c1.84,0.33,3.05,2.08,2.72,3.91l-1.27,7.04
							c-0.33,1.84-2.08,3.05-3.91,2.72l0,0c-1.83-0.33-3.05-2.07-2.72-3.91L19.67,24.08z"/>
						<path class="st13" d="M21.24,30.59c0.16-0.86,0.99-1.44,1.86-1.29c0.86,0.16,1.44,0.99,1.29,1.85
							c-0.15,0.86-0.99,1.44-1.85,1.29C21.66,32.29,21.08,31.46,21.24,30.59z"/>
						<path class="st14" d="M21.99,26.42c0.16-0.87,0.98-1.44,1.86-1.29c0.86,0.16,1.44,0.99,1.28,1.85
							c-0.16,0.87-0.99,1.44-1.85,1.29C22.41,28.12,21.83,27.29,21.99,26.42z"/>
					</g>
					<g>
						<g>
							<path class="st2" d="M22.82,27.59C25.41,13.17,15.64,6.47,2.53,4.11c-13.12-2.36-24.62,0.51-27.21,14.94
								c-2.6,14.42,5.93,28.02,19.05,30.38C7.49,51.79,20.22,42.02,22.82,27.59z"/>
							<path class="st3" d="M2.57,3.89C-8.37,1.92-22.01,2.95-24.9,19c-2.62,14.52,6.01,28.27,19.23,30.64
								c13.22,2.38,26.09-7.5,28.7-22.02C25.93,11.57,13.5,5.85,2.57,3.89z M-5.59,49.21c-12.98-2.34-21.45-15.84-18.88-30.13
								C-21.64,3.38-8.25,2.38,2.49,4.32c10.74,1.93,22.94,7.53,20.12,23.24C20.04,41.84,7.39,51.55-5.59,49.21z"/>
						</g>
						<g>
							<path class="st2" d="M5.74,45.01C6.28,42.03,1.78,40.2-4,39.16c-5.78-1.04-10.63-0.89-11.17,2.08
								c-0.54,2.97,3.71,6.22,9.49,7.26C0.09,49.54,5.21,47.97,5.74,45.01z"/>
							<path class="st4" d="M-3.96,38.94c-6.98-1.26-10.94-0.48-11.42,2.26c-0.56,3.08,3.78,6.45,9.66,7.51
								c5.89,1.06,11.13-0.59,11.68-3.67C6.45,42.31,3.02,40.2-3.96,38.94z M-5.65,48.29c-5.65-1.02-9.83-4.17-9.31-7.01
								c0.56-3.09,6.25-2.74,10.92-1.9c4.68,0.84,10.13,2.5,9.58,5.59C5.02,47.81,0,49.3-5.65,48.29z"/>
						</g>
						<path class="st12" d="M16.75,34.52c-3.16,7.18-19.97,4.16-19.97,4.16l-0.71-0.13c0,0-16.81-3.03-17.26-10.86
							c0,0,0.57-11.59,5.47-18.75c0,0,4.78-4.15,17.74-1.42c13.09,1.96,16.13,7.52,16.13,7.52C20.25,23.46,16.75,34.52,16.75,34.52z
							"/>
						<path class="st12" d="M-19.5,17.66c0.81-2.98,2.02-6.14,3.78-8.72c0,0,4.78-4.15,17.74-1.42c13.09,1.96,16.13,7.52,16.13,7.52
							c0.76,3.04,0.78,6.42,0.52,9.5L-19.5,17.66z"/>
						<path class="st15" d="M15.35,34.03C12.44,40.66-3.1,37.86-3.1,37.86l-0.66-0.11c0,0-15.54-2.8-15.95-10.03
							c0,0,0.53-10.72,5.06-17.34c0,0,4.42-3.83,16.39-1.31c12.11,1.81,14.91,6.95,14.91,6.95C18.6,23.8,15.35,34.03,15.35,34.03z"
							/>
					</g>
				</g>
				<path class="st16" d="M13.96-10.74c0.5-2.79-1.35-5.47-4.15-5.97L0.99-18.3c-2.79-0.5-5.47,1.36-5.97,4.15l-1.59,8.83
					c-0.5,2.79,1.36,5.46,4.15,5.97L6.4,2.22c2.79,0.5,5.46-1.35,5.96-4.14L13.96-10.74z"/>
				<g>
					<path class="st2" d="M13.14-10.53c0.47-2.57-1.24-5.03-3.81-5.49L1.2-17.49c-2.57-0.46-5.03,1.24-5.49,3.82l-1.46,8.12
						c-0.46,2.58,1.25,5.04,3.82,5.49l8.13,1.47c2.57,0.46,5.03-1.24,5.49-3.82L13.14-10.53z"/>
					<path class="st16" d="M9.48-1.33c0.25-1.36-0.66-2.66-2.02-2.9l-8.42-1.52c-1.35-0.24-2.66,0.66-2.9,2.02l0,0
						C-4.11-2.36-3.2-1.06-1.84-0.82L6.57,0.7C7.94,0.94,9.24,0.04,9.48-1.33L9.48-1.33z"/>
					<path class="st17" d="M8.75-1.46c0.21-1.19-0.58-2.33-1.78-2.55l-7.4-1.33c-1.19-0.22-2.34,0.57-2.55,1.77l0,0
						C-3.2-2.37-2.4-1.23-1.21-1.01l7.4,1.33C7.39,0.53,8.53-0.26,8.75-1.46L8.75-1.46z"/>
					<path class="st17" d="M5.12-1.93c0.13-0.72-0.35-1.42-1.08-1.55l-4.48-0.8c-0.73-0.13-1.42,0.35-1.55,1.07l0,0
						c-0.13,0.73,0.35,1.42,1.07,1.55l4.48,0.8C4.29-0.72,4.98-1.2,5.12-1.93L5.12-1.93z"/>
					<path class="st9" d="M1.31-8.91c0.2-1.15-0.55-2.26-1.71-2.46c-1.15-0.21-2.26,0.56-2.46,1.71C-3.07-8.51-2.31-7.4-1.15-7.2
						C0-6.99,1.1-7.76,1.31-8.91z"/>
					<path class="st18" d="M0.45-8.97c0.12-0.69-0.33-1.35-1.02-1.48c-0.69-0.12-1.35,0.34-1.47,1.03
						c-0.12,0.69,0.33,1.35,1.03,1.47C-0.33-7.82,0.33-8.28,0.45-8.97z"/>
					<path class="st15" d="M2.14-14.31c0.2-1.08-0.52-2.11-1.6-2.3c-1.08-0.2-2.11,0.52-2.3,1.6c-0.19,1.07,0.53,2.11,1.6,2.3
						C0.92-12.51,1.95-13.23,2.14-14.31z"/>
					<g>
						<path class="st9" d="M9.09-7.3c0.12-0.71-0.35-1.39-1.06-1.52c-0.7-0.13-1.39,0.34-1.52,1.05C6.39-7.06,6.86-6.38,7.56-6.25
							C8.27-6.12,8.96-6.6,9.09-7.3z"/>
						<path class="st19" d="M9.12-7.46C9.23-8.04,8.84-8.6,8.26-8.7c-0.59-0.1-1.14,0.28-1.25,0.87C6.91-7.26,7.29-6.7,7.88-6.59
							C8.46-6.49,9.02-6.88,9.12-7.46z"/>
						<path class="st20" d="M10.41-13.13c0.15-0.83-0.4-1.62-1.23-1.76c-0.83-0.15-1.62,0.39-1.76,1.22
							c-0.15,0.83,0.4,1.62,1.23,1.77C9.47-11.75,10.26-12.29,10.41-13.13z"/>
						<path class="st19" d="M9.97-13.21c0.1-0.59-0.29-1.15-0.87-1.25c-0.58-0.1-1.14,0.28-1.25,0.87
							c-0.11,0.58,0.28,1.15,0.86,1.25C9.3-12.24,9.86-12.63,9.97-13.21z"/>
						<g>
							<path class="st21" d="M12.77-9.02c-0.03,0.12-0.07,0.24-0.11,0.36l-0.18,0.35c-0.1,0.23-0.3,0.41-0.46,0.61
								c-0.18,0.17-0.37,0.33-0.58,0.45c-0.82,0.48-1.6,0.56-2.22,0.59c-0.49,0.02-0.9-0.01-1.22-0.05
								c-0.24-0.2-0.45-0.44-0.47-0.75C7.5-7.89,7.66-8.24,7.94-8.49c0.28,0.04,0.7,0.09,1.2,0.07c0.47-0.01,1-0.11,1.38-0.34
								c0.38-0.23,0.55-0.55,0.63-1.14c0.07-0.6-0.04-1.09-0.3-1.45c-0.25-0.37-0.69-0.64-1.12-0.83C9.35-12.33,9-12.43,8.72-12.5
								c-0.32-0.43-0.49-1.02-0.05-1.44c0.15-0.14,0.33-0.23,0.5-0.26c0.33,0.08,0.76,0.19,1.26,0.41c0.58,0.26,1.31,0.65,1.86,1.41
								c0.56,0.76,0.73,1.82,0.61,2.67l-0.04,0.33C12.84-9.26,12.8-9.14,12.77-9.02z"/>
							<g>
								<path class="st22" d="M7.52-7.46C7.5-7.89,7.66-8.24,7.94-8.49c0.07,0.01,0.12,0.02,0.12,0.02L7.85-6.84
									C7.67-7.01,7.54-7.22,7.52-7.46z"/>
								<path class="st22" d="M8.93-6.65c0,0-0.12,0-0.25,0C8.56-6.66,8.43-6.67,8.43-6.67l0.11-1.76c0,0,0.1,0.01,0.2,0.02
									c0.09,0,0.19,0,0.19,0L8.93-6.65z"/>
								<path class="st22" d="M10.26-6.79c0,0-0.04,0.01-0.11,0.02C10.08-6.75,9.99-6.74,9.9-6.72C9.73-6.7,9.55-6.67,9.55-6.67
									L9.39-8.43c0,0,0.12-0.02,0.24-0.04c0.07,0,0.12-0.01,0.16-0.03C9.84-8.5,9.88-8.51,9.88-8.51L10.26-6.79z"/>
								<path class="st22" d="M11.44-7.25c0,0-0.13,0.07-0.26,0.14c-0.13,0.08-0.27,0.12-0.27,0.12l-0.65-1.63
									c0.01,0.01,0.27-0.14,0.27-0.14L11.44-7.25z"/>
								<path class="st22" d="M12.53-8.42c0,0-0.02,0.04-0.06,0.11c-0.04,0.07-0.08,0.17-0.16,0.24c-0.13,0.17-0.28,0.34-0.28,0.34
									l-1.25-1.24c0,0,0.05-0.07,0.11-0.13c0.06-0.07,0.08-0.16,0.09-0.15L12.53-8.42z"/>
								<path class="st22" d="M12.9-9.66c0,0-0.01,0.13-0.03,0.26c-0.01,0.06-0.03,0.14-0.04,0.19c-0.01,0.06-0.03,0.09-0.03,0.09
									l-1.71-0.43c0-0.01,0.03-0.06,0.04-0.15c0.01-0.08,0.01-0.17,0.01-0.17L12.9-9.66z"/>
								<path class="st22" d="M12.84-11.1c0.03,0,0.11,0.77,0.09,0.76l-1.76,0.04c0.02-0.01-0.04-0.44-0.05-0.43L12.84-11.1z"/>
								<path class="st22" d="M12.33-12.3c0,0,0.02,0.03,0.05,0.07c0.03,0.05,0.06,0.12,0.11,0.18c0.07,0.13,0.13,0.26,0.13,0.26
									l-1.6,0.72c0,0-0.13-0.26-0.14-0.25L12.33-12.3z"/>
								<path class="st22" d="M11.27-13.33c0-0.02,0.61,0.45,0.6,0.47l-1.23,1.26c0.01-0.01-0.34-0.28-0.35-0.28L11.27-13.33z"/>
								<path class="st22" d="M10.24-13.87c0,0,0.12,0.05,0.23,0.11c0.12,0.04,0.23,0.1,0.23,0.1l-0.78,1.57
									c0,0-0.08-0.04-0.17-0.07c-0.09-0.04-0.17-0.08-0.17-0.08L10.24-13.87z"/>
								<path class="st22" d="M8.73-12.5c-0.03-0.03-0.06-0.07-0.08-0.12l0.35-1.52c0.06-0.03,0.12-0.04,0.19-0.06
									c0.05,0.02,0.1,0.03,0.16,0.04c0.16,0.05,0.32,0.1,0.32,0.1l-0.51,1.68c0,0-0.13-0.04-0.26-0.07
									C8.83-12.48,8.77-12.49,8.73-12.5z"/>
							</g>
						</g>
						<path class="st4" d="M9.22-8.06c0.11,0.02,2.68,0.04,2.38-2.37c0,0,0.13-1.33-1.88-2.03c0,0,2.77,0.54,2.28,2.88
							C11.5-7.24,9.22-8.06,9.22-8.06z"/>
					</g>
					<path class="st23" d="M1.45-14.5c0.12-0.68-0.33-1.35-1.02-1.47c-0.69-0.13-1.35,0.34-1.47,1.02
						c-0.13,0.68,0.33,1.35,1.02,1.47C0.67-13.35,1.32-13.82,1.45-14.5z"/>
				</g>
				<g>
					<g>
						<g>
							<g>
								<path class="st2" d="M-6.96-38.38c0,0-10.44,6.49-13.56-0.65c0,0,6.99-9.1,15.19-8.69c0,0,0.81,1.2,1.79,3.03
									c1.1,2.05,0.63,2.98,0.63,2.98S-4.42-39.76-6.96-38.38z"/>
								<path class="st3" d="M-5.26-48.11c-0.01-0.01-0.03,0-0.04-0.01c-8.31-0.41-15.24,8.47-15.53,8.85
									c-0.09,0.12-0.11,0.27-0.05,0.4c0.85,1.94,2.29,3.11,4.28,3.47c4.29,0.77,9.62-2.5,9.85-2.64c2.56-1.39,4.09-3.34,4.15-3.43
									c0.02-0.01,0.03-0.04,0.04-0.06c0.06-0.11,0.53-1.18-0.63-3.34c-0.98-1.82-1.78-3.02-1.81-3.07
									C-5.06-48.03-5.15-48.09-5.26-48.11z M-20.05-38.97c1.03-1.26,7.34-8.58,14.51-8.36c0.26,0.38,0.91,1.42,1.67,2.83
									c0.86,1.6,0.67,2.43,0.63,2.59c-0.24,0.29-1.66,1.98-3.9,3.19c-0.07,0.04-5.32,3.26-9.31,2.54
									C-18.09-36.47-19.3-37.41-20.05-38.97z"/>
							</g>
						</g>
						<g>
							<g>
								<path class="st4" d="M-11.82-39.71c-2.13,1.08-5.41,2.8-7.91,2.01c-0.29-0.38-0.56-0.81-0.78-1.33c0,0,6.99-9.1,15.19-8.69
									c0,0,0.83,1.11,1.47,2.22C-5.76-42.78-8.71-41.29-11.82-39.71z"/>
								<path class="st3" d="M-5.26-48.11c-0.01-0.01-0.03,0-0.04-0.01c-8.31-0.41-15.24,8.47-15.53,8.85
									c-0.09,0.12-0.11,0.27-0.05,0.4c0.22,0.52,0.49,0.98,0.83,1.41c0.05,0.06,0.12,0.11,0.2,0.13c0.18,0.06,0.38,0.11,0.57,0.14
									c2.5,0.45,5.51-1.09,7.51-2.11l0.19-0.09c3.13-1.61,6.1-3.11,8.05-5.89c0.09-0.13,0.09-0.29,0.02-0.43
									c-0.65-1.11-1.46-2.21-1.49-2.25C-5.07-48.04-5.16-48.09-5.26-48.11z M-20.05-38.97c1.03-1.26,7.34-8.58,14.53-8.35
									c0.22,0.3,0.74,1.04,1.2,1.8c-1.85,2.49-4.65,3.93-7.61,5.43l-0.19,0.1c-1.9,0.97-4.77,2.44-7.01,2.03
									c-0.12-0.02-0.24-0.05-0.36-0.09C-19.71-38.33-19.89-38.64-20.05-38.97z"/>
							</g>
						</g>
					</g>
					<g>
						<g>
							<path class="st0" d="M-19.99-38.74c-0.45-0.15-0.75-0.5-0.74-1.17c0.02-0.76,0.78-1.4,1.28-1.88
								c0.66-0.62,1.39-1.16,2.13-1.67c2.32-1.62,4.77-3.11,7.37-4.23c0.85-0.37,1.91-0.93,2.88-0.84c0,0,2.45,0.22,1.97,2.2
								C-5.26-45.64-6-45.05-6.5-44.62c-0.95,0.82-1.99,1.54-3.05,2.2c-2.43,1.53-5.03,2.74-7.81,3.46
								C-17.99-38.79-19.2-38.46-19.99-38.74z"/>
							<path class="st1" d="M-6.8-48.9L-6.8-48.9c-0.14-0.02-0.22-0.03-0.23-0.03c-0.94-0.09-1.93,0.36-2.73,0.72
								c-0.12,0.05-0.23,0.1-0.34,0.15c-2.32,1.01-4.75,2.4-7.44,4.27c-0.72,0.5-1.48,1.06-2.17,1.71l-0.14,0.12
								c-0.52,0.5-1.25,1.17-1.27,2.04c-0.02,0.77,0.34,1.32,1,1.55c0.87,0.31,2.18-0.02,2.84-0.19c2.68-0.7,5.34-1.89,7.94-3.52
								c1.27-0.8,2.26-1.51,3.09-2.24l0.11-0.1c0.52-0.45,1.24-1.06,1.42-1.83c0.15-0.61,0.07-1.14-0.22-1.58
								C-5.4-48.54-6.3-48.8-6.8-48.9z M-19.65-39.07c-0.07-0.01-0.14-0.02-0.21-0.05c-0.24-0.09-0.48-0.25-0.47-0.79
								c0.01-0.53,0.57-1.05,1.02-1.47l0.13-0.13c0.65-0.62,1.38-1.15,2.08-1.63c2.65-1.84,5.03-3.22,7.3-4.2
								c0.11-0.05,0.23-0.1,0.35-0.15c0.75-0.33,1.6-0.72,2.33-0.66c0,0,0.07,0.01,0.16,0.02c0.3,0.06,1.03,0.24,1.35,0.73
								c0.17,0.26,0.2,0.58,0.11,0.97c-0.13,0.51-0.73,1.03-1.17,1.41l-0.11,0.1c-0.81,0.7-1.77,1.39-3,2.17
								c-2.52,1.6-5.11,2.75-7.7,3.42C-17.99-39.19-18.97-38.94-19.65-39.07z"/>
						</g>
						<g>
							<path class="st24" d="M-19.59-41.65c0.92,0.89,1.92,1.7,2.93,2.5c-0.23,0.07-0.46,0.15-0.69,0.2
								c-0.63,0.17-1.85,0.49-2.63,0.21c-0.45-0.15-0.75-0.5-0.74-1.17C-20.71-40.6-20.09-41.18-19.59-41.65z"/>
							<path class="st24" d="M-15.07-39.69c-0.28,0.1-0.58,0.22-0.87,0.31c-1.1-0.85-2.18-1.72-3.18-2.69
								c0.2-0.17,0.41-0.34,0.62-0.51C-17.42-41.54-16.26-40.6-15.07-39.69z"/>
							<path class="st24" d="M-16.92-43.73c1.19,1.16,2.45,2.22,3.74,3.28c-0.4,0.18-0.8,0.35-1.21,0.51
								c-1.24-0.96-2.47-1.94-3.62-3.02c0.23-0.17,0.46-0.35,0.69-0.51C-17.18-43.55-17.05-43.63-16.92-43.73z"/>
							<path class="st24" d="M-11.08-41.51c-0.49,0.27-0.98,0.52-1.48,0.77c-1.31-1.08-2.61-2.16-3.83-3.34
								c0.43-0.29,0.88-0.57,1.32-0.85C-13.74-43.8-12.41-42.65-11.08-41.51z"/>
							<path class="st24" d="M-10.28-43.83c0.45,0.34,0.91,0.68,1.36,1.01c-0.21,0.15-0.41,0.28-0.63,0.41
								c-0.32,0.2-0.65,0.39-0.97,0.57c-1.33-1.15-2.67-2.29-4.01-3.44c0.52-0.31,1.04-0.62,1.57-0.92
								C-12.05-45.41-11.21-44.54-10.28-43.83z"/>
							<path class="st24" d="M-7.83-44.6c0.23,0.17,0.47,0.33,0.71,0.49c-0.42,0.32-0.83,0.63-1.26,0.93
								c-0.53-0.39-1.05-0.78-1.57-1.17c-0.84-0.65-1.62-1.43-2.43-2.15c0.45-0.24,0.89-0.46,1.35-0.68
								C-9.93-46.39-8.94-45.39-7.83-44.6z"/>
							<path class="st24" d="M-9.11-48.06c1.03,1.01,2.1,1.98,3.18,2.94c-0.19,0.18-0.4,0.36-0.57,0.5
								c-0.04,0.03-0.08,0.07-0.13,0.11c-0.29-0.2-0.59-0.42-0.87-0.63c-1-0.73-1.9-1.59-2.89-2.35c0.15-0.07,0.29-0.14,0.45-0.2
								C-9.68-47.81-9.4-47.94-9.11-48.06z"/>
							<path class="st24" d="M-5.5-45.58c-1.01-0.89-2.01-1.79-2.97-2.73c0.47-0.16,0.95-0.27,1.41-0.23c0,0,2.45,0.22,1.97,2.2
								C-5.16-46.06-5.31-45.81-5.5-45.58z"/>
						</g>
					</g>
				</g>
			</g>
		</g>
	</g>
	<g>
		<g>
			<defs>
				<path id="SVGID_1_" d="M15.35,34.03C12.44,40.66-3.1,37.86-3.1,37.86l-0.66-0.11c0,0-15.54-2.8-15.95-10.03
					c0,0,0.53-10.72,5.06-17.34c0,0,4.42-3.83,16.39-1.31c12.11,1.81,14.91,6.95,14.91,6.95C18.6,23.8,15.35,34.03,15.35,34.03z"/>
			</defs>
			<clipPath id="SVGID_00000021119344806951859970000018404060422936832949_">
				<use xlink:href="#SVGID_1_"  style="overflow:visible;"/>
			</clipPath>
			<g style="clip-path:url(#SVGID_00000021119344806951859970000018404060422936832949_);">
				<g>
					<g>
						<g>
							<path class="st26" d="M10.97,20.61c0,0,0.92,2.92,3.09,1.46c2.17-1.46,1.25-7.31-3.02-6.89L10.97,20.61z"/>
							<path class="st27" d="M14.21,17.39c0.34,0.8,0.43,1.91,0.1,2.74c-0.51,1.29-1.72,0.81-2.21-0.23
								c-0.06-0.12-0.22-0.04-0.19,0.09c0.19,0.9,1,2.02,1.83,2.27c-1.94,0.97-2.76-1.65-2.76-1.65l0.08-5.44
								c1.49-0.15,2.57,0.47,3.26,1.4c-0.01,0-0.02,0-0.03,0C13.93,16.67,14.12,17.19,14.21,17.39z M13.33,16.35
								c-0.69-0.5-1.06,0.54-0.95,1.12c0.01,0.07,0.1,0.11,0.15,0.07c0.04-0.02,0.08-0.05,0.12-0.07c0.02,0.01,0.04,0.01,0.07,0
								c0.27-0.11,0.65-0.15,0.86-0.37C13.83,16.83,13.56,16.51,13.33,16.35z"/>
							<path class="st28" d="M13.85,20.62c-0.35,0.34-0.88-0.15-1.1-0.41c-0.82-0.96-1-2.83-0.75-4.04c0.01-0.06,0.1,0.02,0.1,0.06
								c-0.02,0.61,0,1.25,0.09,1.86c0.27-0.48,0.96-0.84,1.37-0.52c0.02,0.02,0.03,0.08-0.01,0.06c-0.24-0.11-0.63,0.13-0.8,0.27
								c-0.24,0.19-0.36,0.44-0.48,0.71c0.03,0.16,0.07,0.31,0.1,0.46c0.14,0.52,0.83,1.97,1.5,1.14c0.21-0.25,0.29-0.68,0.37-1
								c0.01-0.03,0.06,0.01,0.06,0.04C14.26,19.74,14.21,20.26,13.85,20.62z"/>
						</g>
						<g>
							<path class="st26" d="M-13.39,20.07c0,0-0.93,2.73-2.85,1.28c-1.93-1.45-0.91-6.97,2.95-6.43L-13.39,20.07z"/>
							<path class="st27" d="M-13.39,20.07c0,0-0.52,1.52-1.58,1.69c0.19-0.12,0.34-0.31,0.43-0.56c0.08-0.22,0.12-0.47-0.02-0.68
								c-0.25-0.37-0.78,0.01-1.08-0.2c-0.62-0.45-0.83-1.41-0.78-2.17c0.03-0.54,0.25-1.19,0.14-1.73
								c-0.02-0.08-0.07-0.11-0.13-0.12c0.65-0.95,1.68-1.58,3.12-1.38L-13.39,20.07z M-14.8,16.05c-0.47,0.06-0.8,0.52-0.99,1.01
								c-0.15,0.27-0.25,0.56-0.25,0.88c0,0.07,0.07,0.14,0.13,0.11c0.34-0.13,0.49-0.52,0.69-0.82c0.21-0.33,0.5-0.64,0.52-1.06
								C-14.69,16.11-14.74,16.04-14.8,16.05z"/>
							<path class="st28" d="M-14.4,19.49c-0.26,0.43-0.79,0.78-1.23,0.41c-0.43-0.36-0.48-0.75-0.61-1.29
								c-0.01-0.04,0.05-0.02,0.06,0.01c0.17,0.47,0.29,1.38,1.07,1.19c0.4-0.1,0.69-0.72,0.81-1.08c0.14-0.39,0.17-0.8,0.18-1.21
								c-0.25-0.32-0.79-0.07-1.01,0.17c-0.17,0.2-0.33,0.49-0.38,0.75c-0.01,0.03-0.05-0.01-0.05-0.02
								c0.03-0.47,0.29-1.01,0.73-1.17c0.18-0.07,0.52-0.03,0.71,0.13c0-0.01,0-0.02,0-0.03c-0.01-0.49-0.06-1.24-0.35-1.66
								c-0.05-0.07,0.03-0.07,0.07-0.03c0.35,0.43,0.4,1.22,0.44,1.76C-13.91,18.13-14.02,18.88-14.4,19.49z"/>
						</g>
						<path class="st26" d="M13.15,30.17c0,0.05,0,0.11,0,0.16c-0.12,0.6-0.36,1.19-0.72,1.73c-0.92,1.38-2.31,2.32-3.73,3.02
							c-2.83,1.39-6.14,2.16-9.25,2.06C-5.2,37-13.49,35.43-15.82,30.42c-0.29-1.33-0.37-2.69-0.07-4.03
							c0.45-1.95,1.45-3.67,2.08-5.54c0.71-2.11-0.27-4.43,0.41-6.5c0.01-0.01,0.01-0.02,0.01-0.04c1.14-1.72,4.96-5.89,11.42-6.3
							C1.7,7.77,9.95,11.56,11.3,15.96c0.51,1.66,0.19,4.47,0.12,6.16C11.29,24.84,13.14,27.42,13.15,30.17z"/>
						<path class="st26" d="M13.15,30.17c0,0.05,0,0.11,0,0.16c-0.12,0.6-0.36,1.19-0.72,1.73c-0.92,1.38-2.31,2.32-3.73,3.02
							c-2.83,1.39-6.14,2.16-9.25,2.06C-5.2,37-13.49,35.43-15.82,30.42c-0.29-1.33-0.37-2.69-0.07-4.03
							c0.45-1.95,1.45-3.67,2.08-5.54c0.71-2.11-0.27-4.43,0.41-6.5c0.01-0.01,0.01-0.02,0.01-0.04c1.14-1.72,4.96-5.89,11.42-6.3
							C1.7,7.77,9.95,11.56,11.3,15.96c0.51,1.66,0.19,4.47,0.12,6.16C11.29,24.84,13.14,27.42,13.15,30.17z"/>
						<path class="st29" d="M5.34,10.26c-2.27-1-4.9-1.77-7.39-1.75c-2.48,0.02-4.79,0.76-6.91,2.01c-1.01,0.6-2.07,1.22-2.95,2.02
							c-0.07,0.06-0.14,0.13-0.21,0.2c1.84-1.93,5.23-4.42,10.14-4.74c2.33-0.15,6.5,1.32,9.58,3.54
							C6.9,11.06,6.15,10.62,5.34,10.26z"/>
						<path class="st27" d="M-0.82,14.78c-0.13-0.09-0.25-0.16-0.39-0.23c-0.43-0.24-1.62-0.46-2.14-0.05
							c0.14-0.81,0.99-1.59,1.83-1.27c0.43,0.16,0.97,0.54,1.07,1.02C-0.41,14.47-0.5,15.01-0.82,14.78z"/>
						<path class="st27" d="M5.1,17.03c0.29,0.81,0.59,1.64,0.51,2.52c-0.06,0.7-0.26,1.41-0.6,2.03c-0.7,1.3-1.91,2.15-3.27,1.17
							C0.69,22,0.31,20.82,0.37,19.52c0.06-1.27,0.37-2.98,1.78-3.28c0.08-0.02-0.26-0.24-0.29-0.31c-0.05-0.13-0.11-0.25-0.16-0.38
							c0.91,0.64,2.02,1.02,3.12,1.08c0.48,0.02,0.99,0.05,1.49,0.04c-0.37,0.05-0.76,0.1-1.12,0.21C5.12,16.9,5.08,16.97,5.1,17.03
							z"/>
						<path class="st27" d="M1.49,23.66c0.39,0.27,0.79,0.56,1.24,0.71c0.5,0.16,0.99,0.18,1.49-0.02c0.43-0.17,0.76-0.52,1.18-0.69
							c0.08,0.97-1.15,1.49-1.99,1.47c-1-0.02-1.87-0.56-2.86-0.66c-0.01,0-0.01,0-0.01,0c-0.46-0.09-0.46-0.48-0.2-0.83
							C0.72,23.13,1.1,23.39,1.49,23.66z"/>
						<path class="st27" d="M-3.57,22.65c-0.09-0.06-0.19,0.03-0.17,0.13c0.07,0.39,0.12,0.76,0.07,1.15
							c-0.17-0.08-0.28-0.12-0.53-0.13c-0.21-0.02-0.43,0.12-0.65,0.11c-0.31-0.02-0.62-0.06-0.91-0.15
							c-0.7-0.21-1.33-0.54-1.95-0.9c0.73,0.29,1.55,0.4,2.29,0.21c0.58-0.15,0.93-0.39,1.32-0.84c0.5-0.56,1,0.34,1.19,0.93
							C-3.14,22.99-3.34,22.8-3.57,22.65z"/>
						<path class="st27" d="M-3.83,15.91c-0.06-0.02-0.13,0.01-0.16,0.07c-0.03,0.01-0.06,0.02-0.1,0.04
							c-0.07,0.02-0.12,0.11-0.07,0.17c0.41,0.58,0.58,1.22,0.64,1.92c0,0.03,0.01,0.05,0.03,0.07c0.01,0.29,0,0.58-0.03,0.86
							c-0.1,1.03-0.33,2.43-1.19,3.1c-1.88,1.45-2.81-0.75-3.38-2.28c-0.24-1.04-0.24-2.11,0.07-3.15c0.06-0.22-0.14-0.38-0.3-0.48
							c-0.29-0.18-0.61-0.29-0.91-0.43c1.85,0.36,3.76,0.24,5.61-0.07C-3.68,15.8-3.75,15.86-3.83,15.91z"/>
						<path class="st27" d="M13.15,30.17c0,0.05,0,0.11,0,0.16c-0.12,0.6-0.36,1.19-0.72,1.73c-0.92,1.38-2.31,2.32-3.73,3.02
							c-2.83,1.39-6.14,2.16-9.25,2.06C-5.2,37-13.49,35.43-15.82,30.42c-0.29-1.33-0.37-2.69-0.07-4.03
							c0.45-1.95,1.45-3.67,2.08-5.54c0.71-2.11-0.27-4.43,0.41-6.5c0.01-0.01,0.01-0.02,0.01-0.04c0.22-0.33,0.53-0.74,0.94-1.2
							c-0.07,0.15-0.14,0.31-0.2,0.47c-0.69,1.93-0.27,3.97-0.22,5.96c0,0.12,0.15,0.15,0.22,0.06c0.33-0.45,0.76-0.67,1.08-0.09
							c0.26,0.46,0.4,0.97,0.52,1.48c0.2,0.9,0.27,1.83,0.49,2.71c0.02,0.08,0.11,0.11,0.17,0.07c0.18-0.1,0.31-0.22,0.47-0.35
							c0.38-0.31,0.79-0.03,0.89,0.39c0.09,0.38,0.1,0.78,0.18,1.16c0.01,0.06,0.08,0.1,0.14,0.08c0.61-0.23,0.98-0.02,1.37,0.46
							c0.06,0.07,0.17,0.03,0.2-0.05c0.21-0.66,0.83-1.11,1.51-1.31c1.13-0.11,2.53,0.62,3.38,1.3c0.06,0.05,0.11,0.05,0.17,0
							c0.79-0.61,1.59-0.42,2.26,0.26c0.04,0.05,0.12,0.05,0.17,0c0.62-0.58,1.5-1.16,2.39-1.05c0.8,0.1,1.32,0.71,1.86,1.25
							c0.06,0.06,0.14,0.04,0.19-0.02c0.64-0.82,1.61-0.59,2.34-0.07c0.01,0.02,0.02,0.04,0.03,0.06c0.03,0.08,0.1,0.1,0.16,0.07
							c0.01,0.01,0.02,0.01,0.02,0.02c0.09,0.07,0.23,0.01,0.2-0.11c-0.08-0.33-0.2-0.68-0.17-1.02c0-0.06,0.02-0.12,0.03-0.18
							c0.17-0.59,0.83-0.39,1.24-0.1c0.06,0.04,0.15,0,0.17-0.07c0.87-2.55,2.12-5.09,1.95-7.86c-0.07-1.11-0.36-2.11-0.83-3.01
							c0.64,0.74,1.12,1.53,1.36,2.33c0.51,1.66,0.19,4.47,0.12,6.16C11.29,24.84,13.14,27.42,13.15,30.17z"/>
						<g>
							<path class="st4" d="M3.95,22.32c-0.22,0.18-0.46,0.32-0.74,0.4c-0.52,0.14-1.33-0.07-1.72-0.47
								c-0.99-1.01-1.08-2.78-0.79-4.12c0.13-0.59,0.48-1.18,0.98-1.49c0.4-0.25,1.24-0.21,1.67-0.1c0.53,0.13,1,0.45,1.33,0.91
								c0.64,0.92,0.59,2.3,0.23,3.34C4.72,21.32,4.38,21.96,3.95,22.32z"/>
							<path class="st30" d="M0.66,20.08c0.21,0.96,0.69,1.89,1.65,2.14c1.39,0.36,2.29-0.77,2.75-2.04
								c-0.04,0.21-0.09,0.41-0.16,0.59c-0.18,0.54-0.53,1.17-0.96,1.54c-0.22,0.18-0.46,0.32-0.74,0.4
								c-0.52,0.14-1.33-0.07-1.72-0.47c-0.67-0.68-0.93-1.71-0.93-2.72C0.59,19.72,0.62,19.91,0.66,20.08z"/>
							<path class="st4" d="M-3.66,19.28c0,0-0.29,2.95-2.28,2.85c-1.99-0.1-2.79-4.83-1.3-5.61C-5.75,15.74-3.31,16.05-3.66,19.28z
								"/>
							<path class="st30" d="M-4.59,21.11c0.42-0.52,0.74-1.17,0.94-1.85c0,0.01,0,0.02,0,0.02c0,0-0.29,2.95-2.28,2.85
								c-0.5-0.03-0.92-0.35-1.26-0.82C-6.41,21.92-5.36,22.07-4.59,21.11z"/>
							
								<radialGradient id="SVGID_00000110462938627730615150000001458381818535062148_" cx="-2187.0972" cy="-8827.6768" r="3.5689" gradientTransform="matrix(0.9656 -0.9835 0.9835 0.9656 10790.3096 6388.583)" gradientUnits="userSpaceOnUse">
								<stop  offset="1.093750e-03" style="stop-color:#EF7B63"/>
								<stop  offset="0.1221" style="stop-color:#F2907C"/>
								<stop  offset="0.42" style="stop-color:#F7BFB4"/>
								<stop  offset="0.6763" style="stop-color:#FBE2DD"/>
								<stop  offset="0.8779" style="stop-color:#FEF7F6"/>
								<stop  offset="1" style="stop-color:#FFFFFF"/>
							</radialGradient>
							<path style="opacity:0.6;fill:url(#SVGID_00000110462938627730615150000001458381818535062148_);" d="M-6.51,16.12
								c-1.29-0.02-2.33-0.86-2.31-1.87c0.01-1.01,1.08-1.81,2.37-1.79c1.3,0.02,2.33,0.86,2.31,1.87
								C-4.15,15.34-5.21,16.15-6.51,16.12z M-7.62,14.8c-0.04-0.2-0.19-0.36-0.35-0.44c-0.17-0.08-0.41-0.03-0.46,0.2
								c-0.05,0.23,0.08,0.49,0.27,0.6c0.01,0.01,0.02,0.01,0.04,0.01c0.08,0.06,0.18,0.09,0.27,0.06
								C-7.69,15.18-7.58,14.99-7.62,14.8z M-7.18,15.36c0.01-0.05-0.01-0.1-0.07-0.11c-0.03-0.03-0.07-0.05-0.11-0.07
								c-0.06-0.05-0.16,0.01-0.16,0.09c0,0.08,0.01,0.16,0.08,0.21c0.02,0.02,0.05,0.02,0.08,0.03c0.01,0.01,0.01,0.01,0.02,0.02
								c0.02,0.01,0.04,0.02,0.06,0.01C-7.18,15.56-7.11,15.44-7.18,15.36z"/>
							
								<radialGradient id="SVGID_00000111887772423050192240000002874049819959681693_" cx="-2182.9639" cy="-8821.749" r="3.8883" gradientTransform="matrix(0.9656 -0.9835 0.9835 0.9656 10790.3096 6388.583)" gradientUnits="userSpaceOnUse">
								<stop  offset="1.093750e-03" style="stop-color:#EF7B63"/>
								<stop  offset="0.1221" style="stop-color:#F2907C"/>
								<stop  offset="0.42" style="stop-color:#F7BFB4"/>
								<stop  offset="0.6763" style="stop-color:#FBE2DD"/>
								<stop  offset="0.8779" style="stop-color:#FEF7F6"/>
								<stop  offset="1" style="stop-color:#FFFFFF"/>
							</radialGradient>
							<path style="opacity:0.6;fill:url(#SVGID_00000111887772423050192240000002874049819959681693_);" d="M4.04,16.55
								c-1.29-0.02-2.33-0.86-2.31-1.87c0.02-1.01,1.08-1.81,2.38-1.79c1.29,0.02,2.33,0.86,2.31,1.87
								C6.4,15.77,5.34,16.57,4.04,16.55z M2.93,15.23c-0.04-0.2-0.19-0.36-0.36-0.45c-0.17-0.08-0.41-0.02-0.46,0.2
								c-0.05,0.23,0.08,0.49,0.26,0.6c0.01,0.01,0.03,0.01,0.04,0.01c0.08,0.06,0.18,0.1,0.27,0.06
								C2.86,15.6,2.97,15.41,2.93,15.23z M3.37,15.79c0.01-0.05-0.01-0.1-0.07-0.12c-0.03-0.03-0.07-0.05-0.11-0.08
								c-0.06-0.04-0.16,0.01-0.16,0.1c0,0.08,0.01,0.16,0.08,0.21c0.02,0.02,0.05,0.03,0.08,0.04c0.01,0,0.01,0.01,0.02,0.02
								c0.02,0.02,0.04,0.02,0.07,0.02C3.37,15.99,3.44,15.86,3.37,15.79z"/>
						</g>
						<path class="st33" d="M-3.07,14.06c-0.6,0.94,0.82,1.57,1.65,1.42c0.02,0.03,0.04,0.06,0,0.07c-0.3,0.08-0.62,0.08-0.91,0.01
							c0.02,0.07,0.04,0.15,0.07,0.23c0.08,0.23,0.13,0.47,0.17,0.71c-0.02,0.18-0.03,0.35-0.05,0.53
							c-0.01-0.01-0.02-0.02-0.03-0.03c-0.14-0.53-0.35-1.04-0.5-1.57c-0.08-0.04-0.16-0.09-0.24-0.15
							c-0.43-0.34-0.79-0.92-0.46-1.46c0.15-0.25,0.4-0.54,0.68-0.77c0.42-0.21,0.88-0.27,1.37-0.09c0.38,0.15,0.76,0.38,1.06,0.68
							C-1.18,13.08-2.44,13.07-3.07,14.06z"/>
						<path class="st34" d="M16.15,31.81c0.05,1.7-1.13,3.23-2.68,3.82c1.39,0.61,2.39,1.58,0.54,2.59
							c-1.35,0.73-3.24,0.85-4.72,0.63c-0.15-0.02-0.35-0.06-0.57-0.1c0.09,0.18,0.18,0.36,0.26,0.53C9.23,39.79,9.5,40.52,9.04,41
							c-0.53,0.54-1.53-0.05-1.98-0.38c-0.35-0.26-0.73-0.59-1.02-0.97c-0.12,0.42-0.27,0.82-0.45,1.2
							c-0.29,0.64-0.86,1.52-1.64,1.57c-0.73,0.04-0.91-0.61-0.87-1.32c-0.47,0.36-1.01,0.65-1.68,0.82
							c-1.61,0.4-3.36,0.62-5.01,0.63c-0.76,0.01-2.49,0.05-2.98-0.69c-0.25-0.37-0.31-0.89-0.2-1.35
							c-0.22,0.08-0.45,0.15-0.69,0.19c-0.56,0.09-1.31-0.01-1.8-0.34c-0.42-0.28-0.53-0.64-0.45-0.98
							c-0.93-0.04-1.83-0.25-2.67-0.71c-0.67-0.36-2.62-1.93-2.93-3.15c-1.5-0.25-2.97-1.52-3.7-2.65
							c-0.41-0.64-0.36-1.47,0.44-1.74c-0.75-0.77-1.31-1.71-1.42-2.62c-0.16-1.39,0.58-2.1,1.54-2.18
							c-0.28-0.44-0.49-0.93-0.62-1.47c-0.32-1.37,0.98-0.83,1.93-0.25c-0.19-0.46-0.3-0.96-0.17-1.29
							c0.17-0.43,0.47-0.42,0.78-0.29c-0.15-1.04,0.78-2.49,1.45-2.97c0.04-0.03,0.08-0.03,0.13-0.02c0.05-0.11,0.25-0.08,0.4,0.03
							c0.03-0.16,0.08-0.32,0.11-0.49c0.1-0.47,0.09-1.06,0.41-1.44c0.03-0.03,0.08-0.03,0.12-0.03c0.5,0.11,0.47,0.56,0.55,1.01
							c0.08,0.51,0.06,1.08,0.01,1.67c0.29-0.47,0.65-0.63,1.08,0.13c0.57,1.03,0.84,2.09,0.98,3.26c0.05,0.37,0.09,0.77,0.12,1.18
							c0.27-0.76,0.65-1.32,1.05-0.81c0.42,0.53,0.47,1.21,0.44,1.86c0.2-0.19,0.43-0.35,0.67-0.47c0.72-0.35,1.44-0.07,1.97,0.43
							c0.01-0.03,0.02-0.05,0.03-0.07c0.28-0.79,1.15-1.24,1.93-1.29c0.73-0.05,2.02,0.37,2.66,1.09c0.42-0.32,1.17-0.47,1.51-0.41
							c0.35,0.06,0.76,0.32,1.06,0.65c0.52-0.74,1.64-1.04,2.53-0.88c0.73,0.13,1.29,0.68,1.65,1.34c0.84-0.45,2.4-0.41,2.96-0.27
							c0.39,0.1,0.7,0.36,0.95,0.67c-0.06-0.72-0.01-1.58,0.57-1.61c0.15-0.01,0.27,0.12,0.34,0.23c0.02,0.02,0.02,0.05,0.04,0.07
							c0.15-2.28,1.5-4.46,2.57-6.43c0.13-0.23,0.42,0.1,0.44,0.25c0.07,0.46,0.11,0.94,0.13,1.42c0.11-0.19,0.27-0.3,0.54-0.12
							c0.43,0.27,0.55,1.22,0.64,1.66c0.04,0.19,0.06,0.38,0.08,0.57c0.19-0.23,0.39-0.43,0.57-0.56c0.09-0.07,0.2-0.01,0.27,0.06
							c0.56,0.51,0.57,1.48,0.54,2.18c-0.04,0.8-0.24,1.59-0.63,2.28c0.34,0.1,0.62,0.31,0.8,0.72c0.34,0.76-0.02,1.61-0.59,2.15
							c0.06,0.02,0.12,0.05,0.17,0.07C15.36,30.34,16.12,31.08,16.15,31.81z"/>
						<path class="st35" d="M16.15,31.81c0.05,1.7-1.13,3.23-2.68,3.82c1.39,0.61,2.39,1.58,0.54,2.59
							c-1.35,0.73-3.24,0.85-4.72,0.63c-0.15-0.02-0.35-0.06-0.57-0.1c0.09,0.18,0.18,0.36,0.26,0.53C9.23,39.79,9.5,40.52,9.04,41
							c-0.53,0.54-1.53-0.05-1.98-0.38c-0.35-0.26-0.73-0.59-1.02-0.97c-0.12,0.42-0.27,0.82-0.45,1.2
							c-0.29,0.64-0.86,1.52-1.64,1.57c-0.73,0.04-0.91-0.61-0.87-1.32c-0.47,0.36-1.01,0.65-1.68,0.82
							c-1.61,0.4-3.36,0.62-5.01,0.63c-0.73,0.01-2.34,0.05-2.91-0.61c2.13,0.32,4.34,0.15,6.42-0.41c1.66-0.46,3.51-1.3,3.99-3.12
							c0.02-0.09-0.06-0.17-0.14-0.15c-0.84,0.2-1.83,0.18-2.56-0.33c0.65-0.12,1.34,0.07,1.93-0.35c0.26-0.18,0.47-0.4,0.65-0.65
							c0.23,0.38,0.58,0.73,0.87,1c0.35,0.32,0.89,0.83,1.41,0.75c0.89-0.13,0.19-1.29-0.33-2.03c0.82,0.52,1.76,0.89,2.73,0.94
							c0.72,0.03,2.02-0.05,2.38-0.83c0.23-0.52-0.41-1.01-0.78-1.23c-0.3-0.18-0.64-0.34-0.99-0.46c0.25-0.21,0.48-0.43,0.67-0.64
							c0.44-0.48,1.16-1.3,0.95-2.03c-0.26-0.86-1.39-0.87-2.09-0.63c-0.78,0.28-1.4,0.87-1.97,1.49c0.2-0.42,0.27-0.85-0.1-1.04
							c-0.31-0.16-0.6-0.06-0.87,0.15C5.91,31.69,6,31,5.46,30.65c-0.64-0.42-1.6-0.11-2.24,0.15c-0.53,0.21-1.01,0.53-1.42,0.93
							c-0.21-0.51-0.62-0.92-1.18-1.13c-0.98-0.37-2.15-0.27-3.07,0.23c-0.49,0.27-0.89,0.62-1.24,1.03
							c0.14-0.5,0.12-0.99-0.35-1.24c-0.43-0.23-0.87,0.03-1.22,0.42c-0.04-1.18-0.52-2.44-1.9-2.11c-1.12,0.26-1.93,1.33-2.24,2.5
							c-0.14-0.29-0.29-0.57-0.42-0.82c-0.35-0.69-0.86-1.83-1.63-2.16c-0.77-0.33-0.87,0.79-0.78,1.27
							c0.03,0.12,0.05,0.25,0.09,0.38c-0.04-0.05-0.08-0.1-0.12-0.15c-0.68-0.89-1.57-2.11-2.69-2.48c-0.97-0.32-1.32,0.6-1.04,1.4
							c0.04,0.13,0.1,0.25,0.15,0.37c-0.16-0.13-0.32-0.25-0.49-0.35c-0.4-0.25-1.85-0.92-1.94,0.02c-0.1,1.04,1.03,2.07,1.76,2.64
							c0.44,0.35,0.9,0.66,1.38,0.95c-0.22-0.1-0.45-0.19-0.68-0.27c-0.62-0.21-1.68-0.62-2.28-0.15c-0.98,0.75,0.26,2.07,1.3,2.88
							c-0.93-0.53-1.76-1.35-2.24-2.11c-0.41-0.64-0.36-1.47,0.44-1.74c-0.75-0.77-1.31-1.71-1.42-2.62
							c-0.16-1.39,0.58-2.1,1.54-2.18c-0.28-0.44-0.49-0.93-0.62-1.47c-0.32-1.37,0.98-0.83,1.93-0.25
							c-0.19-0.46-0.3-0.96-0.17-1.29c0.17-0.43,0.47-0.42,0.78-0.29c-0.15-1.04,0.78-2.49,1.45-2.97c0.04-0.03,0.08-0.03,0.13-0.02
							c0.05-0.11,0.25-0.08,0.4,0.03c0.03-0.16,0.08-0.32,0.11-0.49c0.1-0.47,0.09-1.06,0.41-1.44c0.03-0.03,0.08-0.03,0.12-0.03
							c0.5,0.11,0.47,0.56,0.55,1.01c0.08,0.51,0.06,1.08,0.01,1.67c0.29-0.47,0.65-0.63,1.08,0.13c0.57,1.03,0.84,2.09,0.98,3.26
							c0.05,0.37,0.09,0.77,0.12,1.18c0.27-0.76,0.65-1.32,1.05-0.81c0.42,0.53,0.47,1.21,0.44,1.86c0.2-0.19,0.43-0.35,0.67-0.47
							c0.72-0.35,1.44-0.07,1.97,0.43c0.01-0.03,0.02-0.05,0.03-0.07c0.28-0.79,1.15-1.24,1.93-1.29c0.73-0.05,2.02,0.37,2.66,1.09
							c0.42-0.32,1.17-0.47,1.51-0.41c0.35,0.06,0.76,0.32,1.06,0.65c0.52-0.74,1.64-1.04,2.53-0.88c0.73,0.13,1.29,0.68,1.65,1.34
							c0.84-0.45,2.4-0.41,2.96-0.27c0.39,0.1,0.7,0.36,0.95,0.67c-0.06-0.72-0.01-1.58,0.57-1.61c0.15-0.01,0.27,0.12,0.34,0.23
							c0.02,0.02,0.02,0.05,0.04,0.07c0.15-2.28,1.5-4.46,2.57-6.43c0.13-0.23,0.42,0.1,0.44,0.25c0.07,0.46,0.11,0.94,0.13,1.42
							c0.11-0.19,0.27-0.3,0.54-0.12c0.43,0.27,0.55,1.22,0.64,1.66c0.04,0.19,0.06,0.38,0.08,0.57c0.19-0.23,0.39-0.43,0.57-0.56
							c0.09-0.07,0.2-0.01,0.27,0.06c0.56,0.51,0.57,1.48,0.54,2.18c-0.04,0.8-0.24,1.59-0.63,2.28c0.34,0.1,0.62,0.31,0.8,0.72
							c0.34,0.76-0.02,1.61-0.59,2.15c0.06,0.02,0.12,0.05,0.17,0.07C15.36,30.34,16.12,31.08,16.15,31.81z"/>
						<path class="st34" d="M-8.5,22.27c-0.03,0.03,0.96,0.59,1.02,0.62c1.02,0.4,2.02,0.87,3.15,0.08c0.46-0.32,0.62,0.5,0.71,1.01
							c0.08,0.41-1.07,0.58-1.24,0.55c-1-0.2-1.76-0.35-2.63-0.88C-7.87,23.42-9.33,22.88-8.5,22.27z"/>
						<path class="st34" d="M5.33,24.03c0.03,0.03-1.21,0.74-1.27,0.74c-1.09,0.13-2.04-0.47-2.94-1.11
							c-0.46-0.33-0.73,0.32-0.95,0.8c-0.18,0.38,2.48,1.24,3.52,1.2C4.14,25.64,5.97,24.82,5.33,24.03z"/>
						<g>
							<defs>
								<path id="SVGID_00000052806904459159812010000014444627587478821261_" d="M3.95,22.32c-0.22,0.18-0.46,0.32-0.74,0.4
									c-0.52,0.14-1.33-0.07-1.72-0.47c-0.99-1.01-1.08-2.78-0.79-4.12c0.13-0.59,0.48-1.18,0.98-1.49
									c0.4-0.25,1.24-0.21,1.67-0.1c0.53,0.13,1,0.45,1.33,0.91c0.64,0.92,0.59,2.3,0.23,3.34C4.72,21.32,4.38,21.96,3.95,22.32z"
									/>
							</defs>
							<clipPath id="SVGID_00000093898204713657766010000005661650507945546173_">
								<use xlink:href="#SVGID_00000052806904459159812010000014444627587478821261_"  style="overflow:visible;"/>
							</clipPath>
							<g style="clip-path:url(#SVGID_00000093898204713657766010000005661650507945546173_);">
								<path class="st37" d="M3.71,19.27c-0.04-1.3-0.77-2.3-1.63-2.23c-0.87,0.07-1.54,1.18-1.5,2.48c0.04,1.3,0.77,2.3,1.64,2.23
									C3.07,21.69,3.75,20.57,3.71,19.27z"/>
								<path class="st38" d="M3.43,19.27C3.4,18.2,2.8,17.38,2.09,17.43c-0.71,0.06-1.26,0.97-1.23,2.04
									c0.03,1.07,0.63,1.89,1.34,1.83C2.91,21.25,3.46,20.34,3.43,19.27z"/>
								<path class="st39" d="M2.99,19.3c-0.02-0.67-0.4-1.19-0.84-1.15c-0.44,0.04-0.79,0.61-0.77,1.28
									c0.02,0.67,0.4,1.19,0.84,1.15C2.66,20.55,3.01,19.97,2.99,19.3z"/>
								<path class="st4" d="M2.05,20.25c-0.12-0.28-0.37-0.45-0.57-0.39c-0.19,0.07-0.25,0.35-0.13,0.63
									c0.12,0.28,0.37,0.45,0.57,0.39C2.11,20.81,2.17,20.53,2.05,20.25z"/>
								<path class="st4" d="M1.33,19.29c-0.01-0.14-0.08-0.24-0.17-0.24C1.07,19.06,1,19.18,1,19.32c0,0.14,0.08,0.24,0.18,0.23
									C1.27,19.55,1.34,19.43,1.33,19.29z"/>
							</g>
						</g>
						<g>
							<defs>
								<path id="SVGID_00000031192848158683718840000011581632678366957485_" d="M-3.66,19.28c0,0-0.29,2.95-2.28,2.85
									c-1.99-0.1-2.79-4.83-1.3-5.61C-5.75,15.74-3.31,16.05-3.66,19.28z"/>
							</defs>
							<clipPath id="SVGID_00000125600238003046629860000003662072838416006301_">
								<use xlink:href="#SVGID_00000031192848158683718840000011581632678366957485_"  style="overflow:visible;"/>
							</clipPath>
							<g style="clip-path:url(#SVGID_00000125600238003046629860000003662072838416006301_);">
								<path class="st37" d="M-4.91,18.79c-0.04-1.3-0.77-2.3-1.63-2.23c-0.87,0.07-1.54,1.18-1.5,2.48
									c0.04,1.3,0.77,2.3,1.63,2.23C-5.55,21.2-4.88,20.09-4.91,18.79z"/>
								<path class="st38" d="M-5.19,18.78c-0.03-1.07-0.63-1.89-1.34-1.83c-0.71,0.06-1.26,0.97-1.23,2.04
									c0.03,1.07,0.63,1.89,1.34,1.83C-5.71,20.77-5.16,19.85-5.19,18.78z"/>
								<path class="st39" d="M-5.64,18.82c-0.02-0.67-0.4-1.19-0.84-1.15c-0.45,0.04-0.79,0.61-0.77,1.28
									c0.02,0.67,0.39,1.19,0.84,1.15C-5.96,20.06-5.62,19.49-5.64,18.82z"/>
								<path class="st4" d="M-6.57,19.76c-0.12-0.28-0.38-0.46-0.57-0.39c-0.19,0.07-0.25,0.35-0.13,0.63
									c0.12,0.28,0.38,0.45,0.57,0.38C-6.51,20.32-6.45,20.04-6.57,19.76z"/>
								<path class="st4" d="M-7.29,18.8c-0.01-0.14-0.08-0.24-0.17-0.23c-0.09,0.01-0.16,0.13-0.16,0.26
									c0.01,0.14,0.08,0.24,0.18,0.24C-7.35,19.06-7.28,18.94-7.29,18.8z"/>
							</g>
						</g>
						<path class="st26" d="M-2.32,15.36c0,0-1.16-0.38-0.57-0.66C-2.31,14.42-1.51,15.44-2.32,15.36z"/>
						<path class="st27" d="M-0.64,23.55c0,0,0.23-0.79,0.97-0.87C0.33,22.68-0.8,22.21-0.64,23.55z"/>
					</g>
					<path class="st34" d="M-8.66,39.21c0.06,0.24,0.26,0.51,0.46,0.65c0.16,0.11,0.35,0.18,0.55,0.23c0.04,0,0.08,0,0.12,0
						c0.2,0.06,0.42,0.1,0.63,0.12c-0.56,0.17-1.16,0.14-1.74-0.14c-0.5-0.25-0.7-0.73-0.68-1.23c-0.47-0.04-0.94-0.17-1.39-0.27
						c-0.79-0.18-1.56-0.65-2.23-1.08c-0.66-0.42-1.16-0.96-1.6-1.59c-0.09-0.14-0.2-0.32-0.3-0.5c-1.35-0.21-2.66-1.24-3.06-2.53
						c0.77,1.1,2.01,1.73,3.31,2.06c0.33,1.52,1.85,2.54,3.21,3.11c0.93,0.39,1.88,0.71,2.89,0.73c0.16,0,0.33,0.01,0.51,0.03
						c-0.25,0.05-0.52,0.07-0.79,0.06C-8.7,38.95-8.7,39.08-8.66,39.21z"/>
				</g>
				<path class="st4" d="M3.53,13.82c-1-1.23-1.98-2-3.47-2.58c-1.41-0.56-2.95-0.84-4.46-0.6c-0.07,0.01-0.12-0.11-0.08-0.17
					c0.14-0.23,0.42-0.35,0.65-0.48c2.25-1.24,5.54-0.68,6.88,1.63c0.22,0.39,0.37,0.75,0.47,1.18c0.06,0.3,0.21,0.7,0.11,1
					C3.61,13.86,3.57,13.86,3.53,13.82z"/>
				<path class="st30" d="M-0.07,10.63c1.43,0.56,2.87,1.4,3.72,2.71c0.03,0.16,0.03,0.33-0.01,0.47c-0.02,0.06-0.07,0.05-0.1,0.01
					c-1-1.23-1.98-2-3.47-2.58c-1.16-0.46-2.43-0.73-3.68-0.67C-2.46,10.24-1.3,10.16-0.07,10.63z"/>
				<path class="st26" d="M-4.11,10.75c0,0,3.6-0.73,7,2.65C2.89,13.4-0.31,10.7-4.11,10.75z"/>
			</g>
		</g>
		<path class="st41" d="M15.35,34.03C12.44,40.66-3.1,37.86-3.1,37.86l-0.66-0.11c0,0-15.54-2.8-15.95-10.03
			c0,0,0.53-10.72,5.06-17.34c0,0,4.42-3.83,16.39-1.31c12.11,1.81,14.91,6.95,14.91,6.95C18.6,23.8,15.35,34.03,15.35,34.03z"/>
		<path class="st41" d="M15.35,34.03C12.44,40.66-3.1,37.86-3.1,37.86l-0.66-0.11c0,0-15.54-2.8-15.95-10.03
			c0,0,0.53-10.72,5.06-17.34c0,0,4.42-3.83,16.39-1.31c12.11,1.81,14.91,6.95,14.91,6.95C18.6,23.8,15.35,34.03,15.35,34.03z
			 M15.38,16.56c0,0-2.6-4.76-13.82-6.44c-11.11-2.34-15.2,1.22-15.2,1.22c-4.2,6.14-4.69,16.08-4.69,16.08
			c0.39,6.71,14.79,9.3,14.79,9.3l0.61,0.11c0,0,14.41,2.59,17.11-3.55C14.17,33.26,17.18,23.78,15.38,16.56z"/>
		<path class="st42" d="M12.31,34.66c-4.57,3.38-15.12,1.48-15.12,1.48l-0.59-0.1c0,0-14.11-2.54-14.49-9.11
			c0,0,0.36-7.31,3.14-13.17C-12.05,27.52,1.59,32.39,12.31,34.66z"/>
	</g>
</symbol>
<use xlink:href="#Jim"  width="83.29" height="100" x="-41.64" y="-50" transform="matrix(1 0 0 -1 41.6436 50)" style="overflow:visible;"/>
</svg>
