<?xml version="1.0" encoding="utf-8"?>
<!-- Generator: Adobe Illustrator 26.3.1, SVG Export Plug-In . SVG Version: 6.00 Build 0)  -->
<svg version="1.1" id="Layer_1" xmlns="http://www.w3.org/2000/svg" xmlns:xlink="http://www.w3.org/1999/xlink" x="0px" y="0px"
	 viewBox="0 0 108.53 100" style="enable-background:new 0 0 108.53 100;" xml:space="preserve">
<style type="text/css">
	.st0{fill:#EA909A;}
	.st1{fill:#FDB845;}
	.st2{fill:#FEE48E;}
	.st3{fill:#F9B9B7;}
	.st4{fill:#A94362;}
	.st5{fill:#FFFFFF;}
	.st6{fill:#D5D7D8;}
	.st7{fill:#F47D3F;}
	.st8{fill:#7A3B12;}
	.st9{fill:#BA4343;}
</style>
<symbol  id="Fillie" viewBox="-54.26 -50 108.53 100">
	<g>
		<g>
			<path class="st0" d="M-28.63-25.53c0,0,0.08-12.14,3.05-20.82c1.05-2.73,9.33-2.49,13.34-1.93c4.02,0.56,3.22,2.98,3.13,6.51
				c-0.08,3.54,0.24,12.22,0.24,12.22L-28.63-25.53z"/>
			<path class="st0" d="M-17.72-35.3c-1.74-0.88-3.37-1.35-5.24-0.63c-1.46,0.56-2.42,1.82-3.13,3.14
				c-0.04,0.08-0.15-0.09-0.14-0.15c0.6-2.02,1.67-3.4,3.69-4.17c1.55-0.59,3.58,0.07,4.8,1.04C-17.54-35.9-17.19-35.04-17.72-35.3z
				"/>
			<g>
				<path class="st1" d="M-16.28-48.66c0.22,0.26,0.38,0.56,0.46,0.91c0.27,1.12,0.02,2.69-1.15,3.23
					c-2.07,0.95-3.31-1.06-3.42-2.97c-0.07-1.15,0.39-2.08,1.63-2.14C-17.84-49.68-16.86-49.35-16.28-48.66z"/>
				<path class="st2" d="M-17.23-47.21c0.13,0.16,0.23,0.34,0.28,0.56c0.16,0.69,0.01,1.65-0.7,1.97c-1.27,0.58-2.02-0.65-2.09-1.82
					c-0.04-0.7,0.24-1.27,1-1.31C-18.18-47.84-17.59-47.64-17.23-47.21z"/>
				<path class="st1" d="M-24.99-49.12c0,0,0.06,3.7,1.46,4.32c1.4,0.62,3.59-0.51,3.48-1.96c-0.11-1.46-0.28-2.69-2.24-3.08
					C-24.26-50.24-24.93-49.84-24.99-49.12z"/>
				<path class="st2" d="M-24.28-47.44c0,0,0.03,2.08,0.82,2.42c0.79,0.35,2.02-0.28,1.95-1.1c-0.06-0.82-0.16-1.51-1.26-1.73
					C-23.87-48.07-24.25-47.85-24.28-47.44z"/>
				<path class="st1" d="M-28.86-48.61c0,0,0.22,3.59,2.02,3.59c1.79,0,2.13-1.51,1.96-2.92c-0.17-1.4-0.45-1.85-2.02-2.02
					C-28.47-50.13-28.86-49.68-28.86-48.61z"/>
				<path class="st2" d="M-28.34-47.61c0,0,0.14,2.19,1.23,2.19c1.09,0,1.3-0.92,1.2-1.78c-0.1-0.85-0.27-1.13-1.23-1.23
					C-28.1-48.53-28.34-48.26-28.34-47.61z"/>
			</g>
			<g>
				<path class="st0" d="M-9.09-41.77c-0.08,3.54,0.24,12.22,0.24,12.22l-19.78,4.02c0,0,0.01-1.03,0.09-2.71
					c1.67-0.96,5.28-2.7,11.17-3.96c6.92-1.76,8.01-5.75,7.97-14.63C-8.73-45.66-9.05-43.93-9.09-41.77z"/>
			</g>
		</g>
		<g>
			<path class="st0" d="M28.77-25.53c0,0-0.08-12.14-3.05-20.82c-1.05-2.73-9.32-2.49-13.34-1.93c-4.02,0.56-3.22,2.98-3.13,6.51
				C9.32-38.23,9-29.55,9-29.55L28.77-25.53z"/>
			<path class="st0" d="M17.86-35.3c1.74-0.88,3.37-1.35,5.24-0.63c1.46,0.56,2.42,1.82,3.13,3.14c0.04,0.08,0.15-0.09,0.14-0.15
				c-0.6-2.02-1.67-3.4-3.69-4.17c-1.55-0.59-3.58,0.07-4.8,1.04C17.68-35.9,17.33-35.04,17.86-35.3z"/>
			<g>
				<path class="st1" d="M16.42-48.66c-0.22,0.26-0.38,0.56-0.46,0.91c-0.27,1.12-0.02,2.69,1.15,3.23
					c2.08,0.95,3.31-1.06,3.42-2.97c0.07-1.15-0.39-2.08-1.63-2.14C17.98-49.68,17.01-49.35,16.42-48.66z"/>
				<path class="st2" d="M17.37-47.21c-0.13,0.16-0.23,0.34-0.28,0.56c-0.17,0.69-0.01,1.65,0.7,1.97c1.27,0.58,2.02-0.65,2.09-1.82
					c0.04-0.7-0.24-1.27-1-1.31C18.33-47.84,17.73-47.64,17.37-47.21z"/>
				<path class="st1" d="M25.13-49.12c0,0-0.06,3.7-1.46,4.32c-1.4,0.62-3.59-0.51-3.48-1.96c0.11-1.46,0.28-2.69,2.24-3.08
					C24.4-50.24,25.08-49.84,25.13-49.12z"/>
				<path class="st2" d="M24.42-47.44c0,0-0.03,2.08-0.82,2.42c-0.79,0.35-2.02-0.28-1.95-1.1c0.06-0.82,0.16-1.51,1.26-1.73
					C24.01-48.07,24.39-47.85,24.42-47.44z"/>
				<path class="st1" d="M29-48.61c0,0-0.22,3.59-2.02,3.59c-1.8,0-2.13-1.51-1.96-2.92c0.17-1.4,0.45-1.85,2.02-2.02
					C28.61-50.13,29-49.68,29-48.61z"/>
				<path class="st2" d="M28.49-47.61c0,0-0.14,2.19-1.23,2.19c-1.09,0-1.3-0.92-1.2-1.78c0.1-0.85,0.27-1.13,1.23-1.23
					C28.25-48.53,28.49-48.26,28.49-47.61z"/>
			</g>
			<g>
				<path class="st0" d="M9.24-41.77C9.32-38.23,9-29.55,9-29.55l19.77,4.02c0,0-0.01-1.03-0.09-2.71
					c-1.67-0.96-5.28-2.7-11.17-3.96c-6.92-1.76-8.01-5.75-7.97-14.63C8.87-45.66,9.19-43.93,9.24-41.77z"/>
			</g>
		</g>
		<g>
			<path class="st0" d="M-33.16,19.11c0,0-5.05,3.21-5.19,10.65c0.14,4.71,2.32,7.24,4.64,7.44c-1.98,0.62-1.5,1.57,1.71,1.43
				c0,0-1.84,0.68-1.84,1.23c0,0.55,11.34,2.73,13.8-8.13C-24.14,29.97-32,22.94-33.16,19.11z"/>
			<path class="st0" d="M-26.85,39.8c0.72-0.56,1.22-1.34,1.24-2.38c0-0.04-0.09-0.26-0.17-0.21c-1.21,0.93-2.85,0.42-4.08-0.23
				c-1.38-0.73-2.65-1.7-3.57-2.96c-0.67-0.91-1.24-1.93-1.46-3.06c-0.23-1.2-0.08-2.24,0.31-3.39c0.34-1.02,0.78-2.14,0.33-3.18
				c-0.39-0.89-1.26-1.33-2.23-1.54c1.49-2.56,3.32-3.73,3.32-3.73c1.16,3.82,9.01,10.86,13.11,12.63
				C-21.14,36.6-24.01,38.84-26.85,39.8z"/>
			<path class="st1" d="M-30.7,21.57c-0.09-0.09-1.62,2.61-1.68,2.74c-0.74,1.52-1.32,3.11-1.25,4.83c0.13,3.14,1.57,6.84,5.17,7.15
				c3.49,0.3,5.66-4,6.17-6.94C-27.49,24.99-30.7,21.58-30.7,21.57z"/>
			<path class="st1" d="M-25.41,35.27c-1.32-0.64-2.46-1.62-2.97-3.05c-0.6-1.67-0.38-3.52,0.2-5.16c0.25-0.71,0.57-1.41,0.93-2.09
				c1.33,1.24,3,2.75,4.95,4.4C-22.64,31.31-23.7,33.86-25.41,35.27z"/>
		</g>
		<g>
			<path class="st1" d="M-18.34,32.08c0,0-3.69,17-16.18,15.98c-8.33-1.75-8.1-6.82-6.25-7.34c1.75-0.31,1.13-3.7-1.85-1.85
				c-2.98,1.85-1.75,10.49,8.64,11.11C-23.59,50.59-17,39.59-16.59,33.1L-18.34,32.08z"/>
			<path class="st1" d="M-39.87,47.9c-1.72-1.11-3.1-2.9-3.66-4.88c-0.43-1.52-0.21-3.69,1.6-4.11c0.35-0.08,0.97,0.81,0.62,1.03
				c-3.14,1.9-0.63,5.97,1.44,7.72C-39.82,47.7-39.72,48-39.87,47.9z"/>
		</g>
		<g>
			<path class="st0" d="M33.3,18.98c0,0,5.05,3.21,5.19,10.65c-0.14,4.71-2.32,7.24-4.64,7.44c1.98,0.61,1.5,1.57-1.71,1.43
				c0,0,1.84,0.68,1.84,1.23s-11.34,2.73-13.8-8.13C24.29,29.83,32.14,22.8,33.3,18.98z"/>
			<path class="st0" d="M26.99,39.66c-0.72-0.56-1.22-1.34-1.24-2.38c0-0.04,0.09-0.26,0.17-0.21c1.21,0.93,2.85,0.42,4.08-0.23
				c1.38-0.73,2.65-1.7,3.57-2.96c0.67-0.91,1.24-1.93,1.46-3.05c0.23-1.2,0.08-2.24-0.31-3.39c-0.34-1.02-0.78-2.14-0.33-3.19
				c0.39-0.89,1.26-1.33,2.23-1.54c-1.49-2.56-3.32-3.73-3.32-3.73c-1.16,3.82-9.02,10.86-13.11,12.63
				C21.29,36.46,24.16,38.7,26.99,39.66z"/>
			<path class="st1" d="M30.85,21.43c0.09-0.09,1.62,2.61,1.68,2.74c0.74,1.53,1.32,3.11,1.25,4.83c-0.13,3.14-1.57,6.84-5.17,7.15
				c-3.49,0.3-5.66-4-6.17-6.94C27.63,24.85,30.84,21.44,30.85,21.43z"/>
			<path class="st1" d="M25.55,35.13c1.32-0.64,2.46-1.62,2.97-3.05c0.6-1.67,0.38-3.52-0.2-5.16c-0.25-0.71-0.57-1.41-0.93-2.09
				c-1.33,1.24-3,2.75-4.95,4.39C22.78,31.17,23.85,33.72,25.55,35.13z"/>
		</g>
		<g>
			<path class="st1" d="M18.49,31.94c0,0,3.69,17,16.18,15.98c8.33-1.75,8.1-6.82,6.25-7.34c-1.75-0.31-1.13-3.7,1.85-1.85
				c2.98,1.85,1.75,10.49-8.64,11.11c-10.39,0.62-16.97-10.39-17.39-16.87L18.49,31.94z"/>
			<path class="st1" d="M40.02,47.76c1.72-1.11,3.1-2.9,3.66-4.88c0.43-1.52,0.21-3.69-1.6-4.11c-0.34-0.08-0.97,0.81-0.62,1.03
				c3.14,1.9,0.63,5.97-1.44,7.72C39.96,47.56,39.86,47.86,40.02,47.76z"/>
		</g>
		<g>
			<g>
				<path class="st1" d="M-51.86-16.53c0,0-2.02-0.28-2.36-2.8c-0.34-2.52,1.07-5.16,1.8-2.81C-51.69-19.78-50.73-16.53-51.86-16.53
					z"/>
				<path class="st2" d="M-52.66-17.56c0,0-1.23-0.17-1.43-1.7c-0.2-1.53,0.65-3.14,1.09-1.7C-52.56-19.54-51.98-17.56-52.66-17.56z
					"/>
				<path class="st1" d="M-50.73-17.48c0,0-1.35-2.36-0.9-5.5c0.45-3.14,1.85-0.5,2.3,1.12C-48.88-20.23-48.83-15.46-50.73-17.48z"
					/>
				<path class="st2" d="M-51.09-19.62c-0.15-0.24-0.27-0.56-0.31-0.75c-0.15-0.67-0.42-2.6,0.29-3.07
					c0.58-0.39,0.89,1.08,0.96,1.44c0.12,0.66,0.16,1.77-0.15,2.38C-50.58-19.08-50.87-19.28-51.09-19.62z"/>
				<path class="st1" d="M-48.66-18.83c0,0-0.45-3.87,0.51-5.66c0.95-1.8,1.85-0.17,2.24,2.19C-45.52-19.95-47.59-16.42-48.66-18.83
					z"/>
				<path class="st2" d="M-48.44-20.56c0,0-0.27-2.29,0.3-3.35c0.56-1.06,1.1-0.1,1.33,1.3C-46.58-21.23-47.81-19.14-48.44-20.56z"
					/>
				<path class="st1" d="M-45.74-19.16c0,0-0.28-2.8,0.67-4.94c0.95-2.13,2.24-2.02,2.24,0.62C-42.83-19.05-45.18-16.98-45.74-19.16
					z"/>
				<path class="st2" d="M-45.37-21.1c0,0-0.1-1.58,0.48-2.75c0.58-1.17,1.3-1.08,1.24,0.39C-43.74-20.98-45.1-19.86-45.37-21.1z"/>
				<path class="st1" d="M-43.27-19.28c0,0,2.3-3.81,3.37-3.81c1.07,0-0.28,3.59-1.96,5.22C-42.55-17.26-44-17.82-43.27-19.28z"/>
				<path class="st2" d="M-41.77-20.05c0,0,1.04-2.02,1.58-2.05c0.54-0.04-0.02,1.83-0.82,2.72
					C-41.33-19.05-42.09-19.28-41.77-20.05z"/>
			</g>
			<path class="st0" d="M-30.79,20.35c0,0-9.75-2.42-16.99-15.38C-55.03-8-55.34-18.41-48.4-19.64c5.27-0.77,6.17-0.68,7.08,2.38
				c0.91,3.06,5.86,12.17,9.58,16.17C-21.38,10.03-16.42,24.14-30.79,20.35z"/>
			<g>
				<path class="st0" d="M-30.79,20.35c0,0-2.78-0.69-6.48-3.31c-1.72-3.24-4.16-9.45-3.58-17.92c1.03-9.12-1.62-18.4-6.18-17.81
					c-2.23,0.29-4.2,1.38-5.65,2.42c0.79-1.82,2.21-3.01,4.28-3.38c5.27-0.77,6.17-0.68,7.08,2.38c0.91,3.06,5.86,12.17,9.58,16.17
					C-21.38,10.03-16.42,24.14-30.79,20.35z"/>
			</g>
			<path class="st0" d="M-40.87,12.32c0,0-10.22-11.14-10.63-27.96C-53.59-10.22-51.44,2.73-40.87,12.32z"/>
		</g>
		<g>
			<g>
				<path class="st1" d="M51.86-16.53c0,0,2.02-0.28,2.36-2.8c0.34-2.52-1.07-5.16-1.79-2.81C51.69-19.78,50.73-16.53,51.86-16.53z"
					/>
				<path class="st2" d="M52.66-17.56c0,0,1.23-0.17,1.43-1.7c0.2-1.53-0.65-3.14-1.09-1.7C52.56-19.54,51.98-17.56,52.66-17.56z"/>
				<path class="st1" d="M50.73-17.48c0,0,1.35-2.36,0.9-5.5c-0.45-3.14-1.85-0.5-2.3,1.12C48.88-20.23,48.83-15.46,50.73-17.48z"/>
				<path class="st2" d="M51.09-19.62c0.15-0.24,0.27-0.56,0.31-0.75c0.15-0.67,0.42-2.6-0.29-3.07c-0.58-0.39-0.89,1.08-0.96,1.44
					c-0.12,0.66-0.16,1.77,0.15,2.38C50.58-19.08,50.87-19.28,51.09-19.62z"/>
				<path class="st1" d="M48.66-18.83c0,0,0.45-3.87-0.5-5.66c-0.95-1.8-1.85-0.17-2.24,2.19C45.52-19.95,47.59-16.42,48.66-18.83z"
					/>
				<path class="st2" d="M48.44-20.56c0,0,0.27-2.29-0.3-3.35c-0.56-1.06-1.1-0.1-1.33,1.3C46.58-21.23,47.81-19.14,48.44-20.56z"/>
				<path class="st1" d="M45.74-19.16c0,0,0.28-2.8-0.67-4.94c-0.95-2.13-2.24-2.02-2.24,0.62C42.83-19.05,45.18-16.98,45.74-19.16z
					"/>
				<path class="st2" d="M45.37-21.1c0,0,0.1-1.58-0.48-2.75c-0.58-1.17-1.3-1.08-1.24,0.39C43.74-20.98,45.1-19.86,45.37-21.1z"/>
				<path class="st1" d="M43.27-19.28c0,0-2.3-3.81-3.37-3.81c-1.07,0,0.28,3.59,1.96,5.22C42.55-17.26,44-17.82,43.27-19.28z"/>
				<path class="st2" d="M41.77-20.05c0,0-1.04-2.02-1.58-2.05c-0.54-0.04,0.02,1.83,0.82,2.72C41.33-19.05,42.09-19.28,41.77-20.05
					z"/>
			</g>
			<path class="st0" d="M30.79,20.35c0,0,9.75-2.42,16.99-15.38C55.03-8,55.34-18.41,48.4-19.64c-5.27-0.77-6.18-0.68-7.08,2.38
				C40.4-14.2,35.45-5.09,31.74-1.1C21.38,10.03,16.42,24.14,30.79,20.35z"/>
			<g>
				<path class="st0" d="M30.79,20.35c0,0,2.78-0.69,6.48-3.31c1.72-3.24,4.16-9.45,3.58-17.92c-1.03-9.12,1.62-18.4,6.18-17.81
					c2.23,0.29,4.2,1.38,5.65,2.42c-0.79-1.82-2.21-3.01-4.28-3.38c-5.27-0.77-6.18-0.68-7.08,2.38C40.4-14.2,35.45-5.09,31.74-1.1
					C21.38,10.03,16.42,24.14,30.79,20.35z"/>
			</g>
			<path class="st0" d="M40.82,12.32c0,0,10.22-11.14,10.63-27.96C53.54-10.22,51.38,2.73,40.82,12.32z"/>
		</g>
		<path class="st3" d="M0.17-32.11c3.07,0.02,6.49,0.04,9.31,1.31c2-1.09,5.03-0.41,7.17,0.69c-0.17-0.21-0.25-0.42-0.11-0.59
			c0.91-1.07,3.35-0.14,4.41,0.14c3.43,0.9,7.18,2.31,9.65,5c-0.23-1.38-0.15-2.78,1.24-2.08c0.89,0.45,1.56,1.77,1.98,2.62
			c0.27,0.53,0.46,1.17,0.58,1.82c0.24-0.65,0.61-1.25,1.06-1.87c0.26-0.36,1.1-1.35,1.62-0.9c0.41,0.35,0.44,0.89,0.31,1.49
			c0.46-0.56,0.96-0.88,1.42-0.52c0.33,0.26,0.4,0.76,0.29,1.14c-0.36,1.2-0.56,2.43-0.88,3.63c0.17,0.64,0.1,1.31,0.11,2
			c0.03,1.36,0.07,2.71,0.2,4.06c0.24,2.47,0.89,4.91,1.33,7.36c0.4,2.22,0.14,4.37,0,6.61c-0.13,2.19-0.33,4.6-0.93,6.75
			c-0.04,0.91-0.16,1.82-0.44,2.67c-0.72,2.16-1.09,4.36-1.97,6.47c-1.69,4.03-4.05,6.83-7.02,10.02
			c-3.43,3.68-7.71,5.86-10.36,7.25c-2.83,1.48-6,3.09-9.23,3.4c1.04,0.78,3,2.24,1.3,3.06c-0.93,0.46-2.37,0-3.29-0.24
			c-0.96-0.25-1.84-0.65-2.59-1.26c0.32,1.01,0.78,2.87-0.05,2.96c-0.98,0.12-1.85-1.35-2.39-2.41c-0.08,0.99-0.28,2.72-0.98,2.11
			c-0.39-0.34-0.65-0.81-0.83-1.33c-0.02,0.59-0.04,1.19-0.08,1.78c-0.05,0.77-1.19,0.33-1.53,0.2c-1.26-0.49-2.06-1.73-2.55-2.97
			c-0.64,0.98-1.58,2.87-2.17,2.44c-0.55-0.39-0.06-1.98,0.23-2.76c-0.51,0.32-2.07,1.07-2.7,1.24c-0.85,0.23-2.02,0.44-2.85,0.02
			c-1.27-0.64-0.08-1.58,0.84-2.32c-2.2-0.89-4.68-1.57-6.83-2.6c-3.03-1.45-6.07-2.83-8.78-4.85c-4.86-3.63-8.17-8.8-10.96-14.2
			c-4.91-9.51-2.77-20.64-1.93-30.81c0.25-3.06,0.32-6.16-0.26-9.19c-0.02-0.13,0.05-0.24,0.18-0.21c0.6,0.13,0.85,0.55,1.03,1.03
			c-0.06-1.06-0.11-2.37,0.85-2.46c0.66-0.07,1.06,0.55,1.3,1.05c0.37,0.76,0.69,1.35,0.95,2.01c0.28-1.73,1.04-4.15,2.48-4.48
			c1.24-0.28,1.26,1.36,1.22,2.4c0.76-0.96,1.87-1.68,2.91-2.23c2.25-1.18,4.53-2.04,6.95-2.8c3.45-1.08,5.73-1.27,2.99,1.16
			c3.78-2.16,9.41-2.97,6.1-0.89C-5.95-31.97,0.17-32.11,0.17-32.11z"/>
		<g>
			<path class="st3" d="M38.53-14.17c0.24,2.47,0.89,4.91,1.33,7.36c0.4,2.22,0.14,4.37,0,6.61c-0.13,2.19-0.33,4.6-0.93,6.75
				c-0.04,0.91-0.16,1.82-0.44,2.67c-0.72,2.16-1.09,4.36-1.97,6.47c-1.69,4.03-4.05,6.83-7.02,10.02
				c-3.43,3.68-7.71,5.86-10.36,7.25c-2.83,1.48-6,3.09-9.23,3.4c1.04,0.78,3,2.24,1.3,3.06c-0.93,0.46-2.37,0-3.29-0.24
				c-0.96-0.25-1.84-0.65-2.59-1.26c0.32,1.01,0.78,2.87-0.05,2.96c-0.98,0.12-1.85-1.35-2.39-2.41c-0.08,0.99-0.28,2.72-0.98,2.11
				c-0.39-0.34-0.65-0.81-0.83-1.33c-0.02,0.59-0.04,1.19-0.08,1.78c-0.05,0.77-1.19,0.33-1.53,0.2c-1.26-0.49-2.06-1.73-2.55-2.97
				c-0.64,0.98-1.58,2.87-2.17,2.44c-0.55-0.39-0.06-1.98,0.23-2.76c-0.51,0.32-2.07,1.07-2.7,1.24c-0.85,0.23-2.02,0.44-2.85,0.02
				c-1.27-0.64-0.08-1.58,0.84-2.32c-2.2-0.89-4.68-1.57-6.83-2.6c-3.03-1.45-6.07-2.83-8.78-4.85c-0.72-0.54-1.4-1.11-2.06-1.71
				c0.21,0.14,0.42,0.29,0.64,0.45c11.73,8.49,23.46,6.94,23.46,6.94s-1.23,2.16-0.62,2.93s3.13-3.69,3.13-3.69
				s-0.76,4.38,0.19,4.76c0.95,0.38,1.71-4.09,1.71-4.09s-0.38,2.85,0.1,3.23c0.48,0.38,1.52-2.95,1.52-2.95s0.76,3.9,1.62,3.52
				c0.86-0.38-0.67-3.61-0.67-3.61s4.76,3.42,5.33,2.09c0.57-1.33-4.39-4.71-4.39-4.71c35.59-0.82,36.06-48.93,23.39-33.85
				c8.45-17.09,3.98-22.32,3.15-22.53c-0.82-0.21-1.03,4.32-1.03,4.32c-2.26-6.38-8.85-8.44-10.29-8.44c-1.44,0-0.41,3.09-0.41,3.09
				c-2.06-3.29-6.17-5.56-7.82-4.73c-1.65,0.82,1.2,3.12,1.2,3.12c-11-7.46-28.52,0.95-28.52,0.95s4.38-3.19,1.89-3.19
				c-2.48,0-7.42,3.91-7.42,3.91s3.63-4.6,0-3.14c-5.08,2.42-8.47,10.89-8.47,10.89c-1.21-3.87-2.66-3.87-3.63,3.39
				c-0.24-4.6-2.42-7.5-2.42-4.35c0,3.15-0.73,10.16-0.73,10.16c-1.22-1.46-2.05-0.42-2.63,1.61c0.26-3.16,0.63-6.3,0.88-9.35
				c0.25-3.06,0.32-6.16-0.26-9.19c-0.02-0.13,0.05-0.24,0.18-0.21c0.6,0.13,0.85,0.55,1.03,1.03c-0.06-1.06-0.11-2.37,0.85-2.46
				c0.66-0.07,1.06,0.55,1.3,1.05c0.37,0.76,0.69,1.35,0.95,2.01c0.28-1.73,1.04-4.15,2.48-4.48c1.24-0.28,1.26,1.36,1.22,2.4
				c0.76-0.96,1.87-1.68,2.91-2.23c2.25-1.18,4.53-2.04,6.95-2.8c3.45-1.08,5.73-1.27,2.99,1.16c3.78-2.16,9.41-2.97,6.1-0.89
				c5.59-1.77,11.71-1.91,11.71-1.91c3.07,0.02,6.49,0.04,9.31,1.31c2-1.09,5.03-0.41,7.17,0.69c-0.17-0.21-0.25-0.42-0.11-0.59
				c0.91-1.07,3.35-0.14,4.41,0.14c3.43,0.9,7.18,2.31,9.65,5c-0.23-1.38-0.15-2.78,1.24-2.08c0.89,0.45,1.56,1.77,1.98,2.62
				c0.27,0.53,0.46,1.17,0.58,1.82c0.24-0.65,0.61-1.25,1.06-1.87c0.26-0.36,1.1-1.35,1.62-0.9c0.41,0.35,0.44,0.89,0.31,1.49
				c0.46-0.56,0.96-0.88,1.42-0.52c0.33,0.26,0.4,0.76,0.29,1.14c-0.36,1.2-0.56,2.43-0.88,3.63c0.17,0.64,0.1,1.31,0.11,2
				C38.36-16.87,38.39-15.53,38.53-14.17z"/>
		</g>
		<path class="st3" d="M-11.65,1.63c0,0-5.86-2.06-8.13,2.67C-17.21,1.93-9.7-0.02-7.44,7.59c2.26,7.61,1.19,13.67-4.06,14.8
			c-5.39,1.16-10.96-6.67-11.06-14.18C-22.66,0.7-16.8-3.21-11.65,1.63z"/>
		<path class="st3" d="M8.3,2.24c0,0,3.6-3.09,7-0.72c3.39,2.37,2.68,5.66,2.68,5.66S17.05-1.56,6.76,3.27
			c-6.38,3.5-6.69,16.05-1.65,19.34C10.15,25.9,16.9,20.08,19,12.32C21.68,2.45,16.02-4.86,8.3,2.24z"/>
		<g>
			<path class="st4" d="M-3.98-0.14c0-0.37-0.17-0.67-0.39-0.67c-0.22,0-0.39,0.3-0.39,0.67c0,0.37,0.17,0.67,0.39,0.67
				C-4.16,0.53-3.98,0.23-3.98-0.14z"/>
			<path class="st4" d="M-1.39,0.01c0-0.37-0.17-0.67-0.39-0.67c-0.22,0-0.39,0.3-0.39,0.67c0,0.37,0.17,0.67,0.39,0.67
				C-1.57,0.68-1.39,0.38-1.39,0.01z"/>
			<path class="st4" d="M0.98,1.09C0.27,2.74-2,3.19-3.56,3.05c-1.43-0.13-3.27-0.88-3.77-2.38c-0.64-1.93,1.78-2.84,3.25-2.86
				c0.13,0,0.32,0.32,0.17,0.34c-0.97,0.07-1.71,0.42-2.45,1.01C-8.59,0.95-4.77,2.3-3.45,2.33C-2.48,2.35-1.54,2.1-0.71,1.6
				c0.46-0.28,0.78-0.74,1.06-1.18C0.86-0.36-0.37-0.83-0.8-1.1c-0.21-0.13-0.6-0.93-0.1-0.71C0.3-1.28,1.59-0.32,0.98,1.09z"/>
		</g>
		<g>
			<path class="st5" d="M-7.33,11.19c0,0,1.36,9.25-4.65,10.38c-6.01,1.14-11.98-12.79-8.13-16.26C-16.26,1.85-8.74,1.04-7.33,11.19
				z"/>
			<g>
				<path class="st6" d="M-11.98,21.58c-2.26,0.43-4.52-1.28-6.25-3.76c1.08,0.66,2.76,0.82,4.79-0.37
					c3.5-2.06,6.43-4.64,5.12-10.07c0.45,1.05,0.79,2.31,1,3.82C-7.33,11.19-5.97,20.44-11.98,21.58z"/>
			</g>
			<g>
				<path class="st7" d="M-11.43,11.65c-0.38-1.57-1.53-2.6-2.56-2.3c-1.04,0.31-1.57,1.83-1.19,3.41c0.38,1.57,1.53,2.6,2.57,2.3
					C-11.58,14.75-11.05,13.23-11.43,11.65z"/>
				<path class="st1" d="M-11.77,11.72c-0.31-1.3-1.26-2.14-2.11-1.89c-0.85,0.25-1.29,1.51-0.98,2.8c0.31,1.3,1.26,2.14,2.11,1.89
					C-11.89,14.27-11.46,13.01-11.77,11.72z"/>
				<path class="st8" d="M-12.3,11.87c-0.2-0.81-0.79-1.34-1.32-1.18c-0.53,0.16-0.81,0.94-0.61,1.76c0.2,0.81,0.79,1.34,1.32,1.18
					C-12.38,13.47-12.11,12.68-12.3,11.87z"/>
				<path class="st5" d="M-13.2,13.26c-0.22-0.31-0.57-0.46-0.79-0.32c-0.22,0.13-0.21,0.49,0.01,0.8c0.22,0.31,0.57,0.46,0.79,0.32
					C-12.98,13.93-12.98,13.58-13.2,13.26z"/>
				<path class="st5" d="M-14.32,12.28c-0.04-0.17-0.16-0.27-0.27-0.24c-0.11,0.03-0.16,0.19-0.12,0.36
					c0.04,0.16,0.16,0.27,0.27,0.24C-14.33,12.61-14.28,12.45-14.32,12.28z"/>
			</g>
			<path class="st4" d="M-7.2,13.15c0.03,2.78-0.54,7.62-4.78,8.42c-1.67,0.32-3.33-0.53-4.79-1.99
				C-13.01,18.45-9.82,16.05-7.2,13.15z"/>
		</g>
		<g>
			<path class="st3" d="M-14.88,24.88l-1.47-1.47c0,0,5.71,0.77,9.1-2.55C-8.16,23.34-12.48,25.19-14.88,24.88z"/>
			<path class="st3" d="M-0.6,24.34c0,0,0.74-2.97,1.81-2.78c1.07,0.19,2.51,2.04,4.69,3.25c2.18,1.21,4.13,1.62,5.8-0.28
				c-0.74,2.41-1.25,3.06-3.71,3.39c-2.46,0.33-5.8-3.71-5.8-3.71S0.46,23.18-0.6,24.34z"/>
			<path class="st4" d="M-15.97,24.03c0,0,5.77,0.29,8.5-2.57c-1.69,4.16-4.89,6.84-6.06,5.76C-14.7,26.13-15.97,24.03-15.97,24.03z
				"/>
			<path class="st3" d="M-7.43,24.15c-0.03,0.04-0.11-0.06-0.09-0.09c0.65-1.04,0.94-2.13,1.15-3.33c0.03-0.15,0.21,0.09,0.21,0.17
				C-6.15,22.06-6.7,23.26-7.43,24.15z"/>
			<path class="st3" d="M-2.64,24.62c-0.05,0.05-0.17-0.11-0.13-0.17c0.3-0.45,0.45-0.94,0.53-1.47c0.04-0.27,0.05-0.54,0.08-0.81
				c0.03-0.32-0.07-0.36,0.07-0.59c0.1-0.16,0.3,0.14,0.33,0.22C-1.41,22.69-2.02,23.98-2.64,24.62z"/>
			<path class="st4" d="M-7.6,24.62c-0.03,0.04-0.11-0.06-0.09-0.09c0.65-1.04,0.94-2.13,1.15-3.33c0.03-0.15,0.21,0.09,0.21,0.17
				C-6.33,22.53-6.88,23.74-7.6,24.62z"/>
			<path class="st4" d="M-2.82,25.1c-0.05,0.05-0.17-0.11-0.13-0.17c0.3-0.45,0.45-0.94,0.53-1.47c0.04-0.27,0.05-0.54,0.08-0.81
				c0.03-0.32-0.07-0.36,0.08-0.59c0.1-0.16,0.3,0.14,0.33,0.22C-1.58,23.17-2.19,24.45-2.82,25.1z"/>
			<path class="st4" d="M-1.5,26.09c0,0,1.78-2.34,2.6-1.38c0.82,0.95,5.02,5.67,6.41,5.54c1.39-0.13,3.38-2.38,4.03-5.11
				c-1.39,1.52-3.55,1.86-6.8-0.35s-3.99-3.64-5.02-1.39C-1.02,25.01-1.5,26.09-1.5,26.09z"/>
		</g>
		<path class="st0" d="M-19.08-7.78c0,0,6.46-6.28,17.38-5.82c10.92,0.45,14.47,5.09,16.56,8.1c1,1.46,7.19-2.82,7.46-8.55
			c0.18-3.64-0.84-6.25-5.37-4.82c-5.19,1.64-11.37,1-18.47,0.82c-7.1-0.18-13.1-0.73-15.92-2.46c-2.82-1.73-3.46-4.09-5.55,0.91
			C-25.08-14.61-22.53-4.69-19.08-7.78z"/>
		<g>
			<path class="st5" d="M16.5,15.17C18.6,10,17.46,4.66,13.96,3.24c-3.5-1.42-8.19,0.52-10.28,5.69c-2.1,5.17-0.81,11.62,2.69,13.04
				C9.87,23.39,14.4,20.35,16.5,15.17z"/>
			<path class="st6" d="M4.97,12.93c0.91,1.81,2.53,3.39,4.25,4.43c1.42,0.86,2.48,1.24,4.64,2.03c-2.25,2.43-5.11,3.54-7.49,2.57
				c-3.5-1.42-4.79-7.87-2.69-13.04c0.19-0.46,0.39-0.89,0.62-1.3C4.03,9.46,4.15,11.29,4.97,12.93z"/>
			<g>
				<path class="st7" d="M11.37,12.3c0.41-1.57-0.11-3.02-1.17-3.24C9.15,8.84,7.95,9.93,7.54,11.5c-0.41,1.57,0.11,3.02,1.17,3.24
					C9.76,14.96,10.96,13.87,11.37,12.3z"/>
				<path class="st1" d="M11.04,12.19c0.34-1.29-0.09-2.48-0.96-2.66c-0.87-0.18-1.85,0.71-2.19,2c-0.34,1.29,0.09,2.48,0.96,2.66
					C9.72,14.38,10.7,13.48,11.04,12.19z"/>
				<path class="st8" d="M10.5,12.08c0.21-0.81-0.06-1.56-0.6-1.67c-0.54-0.11-1.16,0.45-1.37,1.26c-0.21,0.81,0.06,1.56,0.6,1.67
					C9.67,13.45,10.29,12.88,10.5,12.08z"/>
				<path class="st5" d="M9.04,12.88C9,12.5,8.75,12.2,8.5,12.22c-0.25,0.01-0.42,0.33-0.37,0.71c0.05,0.38,0.29,0.67,0.54,0.66
					C8.92,13.57,9.09,13.26,9.04,12.88z"/>
				<path class="st5" d="M8.53,11.48c0.04-0.17-0.01-0.32-0.13-0.34c-0.11-0.02-0.24,0.09-0.28,0.26c-0.04,0.17,0.02,0.32,0.13,0.34
					C8.36,11.76,8.49,11.65,8.53,11.48z"/>
			</g>
			<path class="st4" d="M10.14,18.63c1.07,0.5,2.16,0.9,3.27,1.23c-2.17,2.11-4.82,3.02-7.05,2.12c-2.69-1.09-4.07-5.15-3.62-9.32
				C4.49,15.29,7.38,17.34,10.14,18.63z"/>
		</g>
		<path class="st4" d="M-11.9,21.12c-0.05,0.01-0.14-0.12-0.09-0.15c1.05-0.54,1.91-1.22,2.56-2.22c0.72-1.11,1.26-2.79,1.81-3.95
			c0.11-0.24-0.02,0.67-0.03,0.81C-7.89,18.18-9.38,20.41-11.9,21.12z"/>
		<path class="st4" d="M7.08,21.78c0.05,0.02,0.15-0.11,0.1-0.14c-1-0.62-1.81-1.37-2.38-2.41c-0.63-1.17-1.04-2.88-1.49-4.08
			c-0.09-0.24-0.03,0.67-0.03,0.81C3.31,18.53,4.62,20.87,7.08,21.78z"/>
		<path class="st3" d="M-22.15,29.5c0,0-15.43-9.88-14.4-32.92C-41.08,8.31-33.46,23.95-22.15,29.5z"/>
		<g>
			<path class="st3" d="M-3.48,37.76c-0.01,0.01-0.04-0.03-0.03-0.04c0.99-0.9,1.72-1.91,2.07-3.22c0.05-0.17,0.27,0.09,0.26,0.2
				C-1.38,35.98-2.49,37.04-3.48,37.76z"/>
			<path class="st3" d="M-0.07,38.31c-0.01,0.02-0.04-0.02-0.03-0.03c0.39-0.98,0.6-2,0.76-3.03c0.02-0.13,0.19,0.07,0.19,0.15
				C0.81,36.46,0.47,37.39-0.07,38.31z"/>
			<path class="st3" d="M1.46,37.81c-0.03,0.04-0.09-0.05-0.07-0.08c0.47-0.87,0.74-1.64,0.79-2.63c0.01-0.15,0.23,0.09,0.23,0.18
				C2.44,36.31,2.05,37.01,1.46,37.81z"/>
		</g>
		<path class="st3" d="M0.43-0.73c-1.35-0.51-2.24-1.32-3.8-1.15C-4.75-1.72-5.94-1.25-6.86-0.2c-0.12,0.14-0.37-0.23-0.39-0.31
			c-0.52-2,2.05-2.72,3.56-2.92c1.6-0.21,3.71,0.79,4.32,2.3C0.7-0.99,0.68-0.64,0.43-0.73z"/>
		<path class="st3" d="M-3.19,1.74c0.06-0.28-0.42-0.62-1.08-0.76c-0.66-0.14-1.24-0.03-1.3,0.24C-5.64,1.5-5.16,1.84-4.5,1.99
			C-3.84,2.13-3.25,2.02-3.19,1.74z"/>
		<path class="st9" d="M-19.08-6.83c0,0,6.46-6.28,17.38-5.82c10.92,0.45,14.47,5.1,16.56,8.1c1,1.46,7.19-2.82,7.46-8.55
			c0.18-3.64-0.84-6.25-5.37-4.82c-5.19,1.64-11.37,1-18.47,0.82c-7.1-0.18-13.1-0.73-15.92-2.46c-2.82-1.73-3.46-4.09-5.55,0.91
			C-25.08-13.65-22.53-3.73-19.08-6.83z"/>
		<path class="st9" d="M19.4-17.4c-3.22,2.38-6.85,3.73-10.87,3.87c-2.37,0.08-4.78-0.1-7.14-0.26c-2.4-0.16-4.84-0.37-7.18-0.95
			c-5.14-1.28-10.87-3.25-14.91-6.93c0.83,0.02,1.72,1.15,3.26,2.1c2.82,1.73,8.83,2.27,15.92,2.46c7.1,0.18,13.28,0.82,18.47-0.82
			c1.48-0.47,2.59-0.5,3.4-0.21C20.04-17.88,19.72-17.63,19.4-17.4z"/>
		<g>
			<path class="st5" d="M-9.59-11.83c0,0,0.35-4.7,1.45-8.22c0.97-2.9,3.32-3.05,4.7-2.77c1.31,0.28,2.07,0.69,2,2.63
				c-0.07,1.94-0.61,7.52-0.61,7.52S-4.61-12.93-9.59-11.83z"/>
			<path class="st6" d="M-4.9-14.04c1.33-0.76,2.25-1.98,2.72-3.43c0.4-1.22,0.56-2.47,0.67-3.73c0.06,0.28,0.08,0.62,0.06,1.02
				c-0.07,1.94-0.61,7.52-0.61,7.52s-2.57-0.27-7.54,0.84c0,0,0-0.04,0.01-0.11C-8.11-12.82-6.4-13.18-4.9-14.04z"/>
			<path class="st5" d="M-1.96-12.67c0,0,0.56-6.06,0.87-8.33c0.31-2.28,4.09-1.93,4.94,0.31c0.85,2.24,1,8.94,1,8.94
				S1.42-12.62-1.96-12.67z"/>
			<path class="st6" d="M-0.69-17.38c0.05,1.25,0.31,2.69,1.33,3.53c1.14,0.94,2.88,0.84,4.2,1.41c0.02,0.42,0.02,0.68,0.02,0.68
				s-3.43-0.86-6.81-0.91c0,0,0.56-6.06,0.87-8.33c0.09-0.63,0.44-1.06,0.92-1.3C-0.46-20.68-0.76-19.03-0.69-17.38z"/>
			<path class="st5" d="M-15.38-9.48c0,0-0.23-2.76,0.27-3.85c0.51-1.09,2.95-1.9,3.77-0.7c0.82,1.2,1.28,2.33,1.28,2.33
				S-13.13-10.61-15.38-9.48z"/>
			<path class="st6" d="M-15.38-9.48c0,0-0.01-0.08-0.01-0.22c1.08-0.76,2.52-1.26,3.1-2.47c0.39-0.82,0.38-1.59,0.21-2.37
				c0.3,0.09,0.57,0.25,0.75,0.52c0.82,1.2,1.28,2.33,1.28,2.33S-13.13-10.61-15.38-9.48z"/>
			<path class="st5" d="M-15.73-18.73c0,0,0.23,3.46,1.67,3.65c1.44,0.19,2.84-2.72,2.84-2.72S-14.33-18.18-15.73-18.73z"/>
			<path class="st6" d="M-13.18-15.31c0.15-0.44,0.24-0.9,0.07-1.35c-0.18-0.48-0.49-0.89-0.95-1.12c-0.51-0.26-1.06-0.38-1.62-0.43
				c-0.04-0.31-0.05-0.51-0.05-0.51c1.4,0.54,4.5,0.93,4.5,0.93S-12.1-15.97-13.18-15.31z"/>
			<path class="st5" d="M-17.13-19.31c0,0-1.44,2.64-2.76,2.1c-1.32-0.54-1.17-4.39-1.17-4.39s0.47-0.31,1.71,0.7
				C-18.1-19.89-17.13-19.31-17.13-19.31z"/>
			<path class="st6" d="M-19.24-17.18c0.58-0.97,0.85-2.03,0.13-3.07c-0.45-0.64-1.19-1.03-1.94-1.34c0-0.01,0-0.02,0-0.02
				s0.47-0.31,1.71,0.7c1.24,1.01,2.21,1.59,2.21,1.59S-18.14-17.46-19.24-17.18z"/>
			<path class="st5" d="M-16.04-9.11c0,0-2.14-2.34-2.71-5.18c-0.49-2.38-1.74-0.04-2.13,1.99c-0.54,2.82,0.96,6.02,0.96,6.02
				S-16.94-8.69-16.04-9.11z"/>
			<path class="st6" d="M-19.91-6.28c0,0-0.05-0.1-0.12-0.29c0.88-0.98,2.1-1.54,1.78-3.15c-0.36-1.82-1-3.6-0.86-5.45
				c0.14,0.14,0.27,0.42,0.37,0.89c0.56,2.84,2.71,5.18,2.71,5.18C-16.94-8.69-19.91-6.28-19.91-6.28z"/>
			<path class="st5" d="M12.43-7.65c0,0,1.89-1.93,2.4-3.94c0.51-2.01,1.3-1.26,1.97,0.95C17.47-8.43,17-4.73,17-4.73
				s-1.72,0.9-2.14,0.18C14.44-5.28,12.9-7.25,12.43-7.65z"/>
			<path class="st6" d="M17-4.73c0,0-1.72,0.9-2.14,0.18c-0.42-0.73-1.96-2.7-2.43-3.09c0,0,0.17-0.17,0.41-0.46
				c0.48,0.59,0.83,1.31,1.33,1.87c0.3,0.34,0.72,0.76,1.22,0.59c0.89-0.3,0.78-1.86,0.74-2.57c-0.08-1.51-0.36-3.02-0.72-4.5
				c0.44-0.24,0.95,0.58,1.4,2.07C17.47-8.43,17-4.73,17-4.73z"/>
			<path class="st5" d="M5.74-11.47c0,0,0.59-3.26,3.46-2.5c2.87,0.77,3.31,2.23,1.81,5.12C11-8.85,9.67-10.11,5.74-11.47z"/>
			<path class="st6" d="M8.32-10.82c0.58,0.2,1.42,0.45,1.98,0.05c0.68-0.5,0.82-1.39,0.93-2.22c0.92,0.87,0.8,2.18-0.22,4.14
				c0,0-1.34-1.26-5.27-2.62c0,0,0.02-0.08,0.05-0.22C6.65-11.46,7.47-11.11,8.32-10.82z"/>
			<path class="st5" d="M7.62-16.78c0,0,0.36,1.79,1.79,1.91c1.43,0.12,2.7-2.12,2.7-2.12L7.62-16.78z"/>
			<path class="st6" d="M10.53-15.22c0.02-0.46-0.07-0.89-0.51-1.08c-0.56-0.24-1.23-0.25-1.83-0.3c-0.18-0.01-0.36-0.03-0.53-0.04
				c-0.03-0.09-0.04-0.15-0.04-0.15l4.49-0.21C12.11-16.99,11.44-15.82,10.53-15.22z"/>
			<path class="st5" d="M14.77-17.39c0,0,0.61,2.52,1.7,2.52c1.09,0,2.43-2.55,2.64-3.43c0,0-0.89,0.01-2.16,0.37
				C15.68-17.57,14.77-17.39,14.77-17.39z"/>
			<path class="st6" d="M17.72-15.72c0.07-0.61-0.11-1.16-0.8-1.41c-0.65-0.24-1.37-0.2-2.09-0.05c-0.04-0.13-0.06-0.21-0.06-0.21
				s0.91-0.18,2.18-0.54c1.27-0.36,2.16-0.37,2.16-0.37C18.98-17.75,18.4-16.54,17.72-15.72z"/>
		</g>
		<path class="st3" d="M-19.59-5.5c0,0,13.7-11.15,30.78-1.74C5.96-12.59-9.72-15.61-19.59-5.5z"/>
	</g>
	<path class="st0" d="M-20.42-35.14c-0.8,0.33-1.69,0.34-2.46,0.76c-0.73,0.4-1.18,1.01-1.77,1.55c-0.09,0.08-0.24-0.17-0.2-0.25
		c0.19-0.38,0.3-0.8,0.49-1.18c0.18-0.36,0.6-0.71,0.89-0.97c0.61-0.55,2.33-0.38,3.11-0.28C-20.18-35.49-20.13-35.26-20.42-35.14z"
		/>
	<path class="st0" d="M20.61-35.14c0.8,0.33,1.69,0.34,2.46,0.76c0.73,0.4,1.17,1.01,1.77,1.55c0.08,0.08,0.24-0.17,0.2-0.25
		c-0.19-0.38-0.3-0.8-0.49-1.18c-0.18-0.36-0.6-0.71-0.89-0.97c-0.61-0.55-2.33-0.38-3.11-0.28C20.37-35.49,20.33-35.26,20.61-35.14
		z"/>
	<path class="st0" d="M-26.03-40.43c-0.33,1.42-0.67,2.84-1.03,4.26c-0.03,0.13-0.2-0.07-0.19-0.15c0.4-2.71,0.63-5.74,2-8.17
		c0.11-0.2,0.43,0.23,0.4,0.37C-25.13-42.86-25.73-41.7-26.03-40.43z"/>
	<path class="st0" d="M25.87-40.43c0.33,1.42,0.67,2.84,1.03,4.26c0.03,0.13,0.2-0.07,0.19-0.15c-0.4-2.71-0.63-5.74-2-8.17
		c-0.11-0.2-0.43,0.23-0.4,0.37C24.98-42.86,25.58-41.7,25.87-40.43z"/>
</symbol>
<use xlink:href="#Fillie"  width="108.53" height="100" x="-54.26" y="-50" transform="matrix(1 0 0 -1 54.263 50)" style="overflow:visible;"/>
</svg>
