<?xml version="1.0" encoding="utf-8"?>
<!-- Generator: Adobe Illustrator 26.3.1, SVG Export Plug-In . SVG Version: 6.00 Build 0)  -->
<svg version="1.1" id="Layer_1" xmlns="http://www.w3.org/2000/svg" xmlns:xlink="http://www.w3.org/1999/xlink" x="0px" y="0px"
	 viewBox="0 0 111.77 100" style="enable-background:new 0 0 111.77 100;" xml:space="preserve">
<style type="text/css">
	.st0{fill:#EA7F13;}
	.st1{fill:#FFE0B6;}
	.st2{fill:#EFAF62;}
	.st3{opacity:0.5;}
	.st4{opacity:0.8;fill:#F48B19;}
	.st5{fill:#F4AD0F;}
	.st6{fill:#E87900;}
	.st7{opacity:0.6;fill:#F4AD0F;}
	.st8{fill:#FFFFFF;}
	.st9{opacity:0.7;fill:#D1D1D1;}
	.st10{opacity:0.6;}
	.st11{fill:#FFC022;}
	.st12{fill:#FF9900;}
	.st13{opacity:0.8;fill:#FFC022;}
	.st14{fill:#FFD524;}
	.st15{opacity:0.7;fill:#FDB845;}
	.st16{opacity:0.4;fill:#CE711D;}
	.st17{fill:#BA4343;}
	.st18{fill:#E5A300;}
	.st19{clip-path:url(#SVGID_00000086675465074311804680000005373682580101057705_);}
	.st20{fill:#D5D7D8;}
	.st21{fill:#F47D3F;}
	.st22{fill:#FDB845;}
	.st23{fill:#7A3B12;}
	.st24{clip-path:url(#SVGID_00000030470300132217928700000010916831909070716837_);}
</style>
<symbol  id="Gronk" viewBox="-55.88 -50 111.77 100">
	<g>
		<g>
			<g>
				<g>
					<path class="st0" d="M-4.79,22.68c-1.59,3.59-12.77,3.01-21.99-5.77C-36,8.13-39.72-4.77-37.95-5.3
						c1.09-0.32,2.31,3.46,2.31,3.46s-1.24-4.15,0.01-4.74c1.26-0.59,2.69,3.67,2.69,3.67s-1.21-4.02,0.02-4.44
						c1.23-0.41,2.35,3.3,2.35,3.3s-1.25-3.74,0.29-4.17c1.54-0.42,2.73,1.48,6.09,7.17c3.36,5.69,6.65,9.38,11.79,12.09
						C-7.26,13.74-3.05,18.76-4.79,22.68z"/>
					<path class="st1" d="M-38.08-5.22c0.04-0.03,0.09-0.06,0.13-0.07c1.09-0.32,2.31,3.46,2.31,3.46s-1.24-4.15,0.01-4.74
						c1.26-0.59,2.69,3.67,2.69,3.67s-1.21-4.02,0.02-4.44c1.1-0.37,2.11,2.57,2.31,3.18c-0.19-0.63-1.05-3.67,0.33-4.05
						c0.32-0.09,0.55-0.06,0.76,0.09c0.87-0.34,2.48-1.14,3.03-2.59c1.18-3.1-1.05-5.94-2.42-3.7c-1.44,2.34-2.91,2.03-3.98,0.6
						c-1.07-1.43-0.17-3.97-1.95-4.14c-1.78-0.17-2.21,1.96-2.21,1.96s-0.94-1.51-2.78,1.49c0,0-1.27-0.16-1.92,2.43
						C-42.38-9.61-40.83-6.46-38.08-5.22z"/>
					<g>
						<path class="st2" d="M-34.57-10.39c0,0-0.12-0.04-0.32-0.13c-0.2-0.09-0.47-0.25-0.76-0.5c-0.29-0.24-0.6-0.57-0.85-0.98
							c-0.26-0.41-0.45-0.88-0.6-1.37c-0.3-0.97-0.34-2.04-0.11-2.8c0.11-0.38,0.27-0.67,0.41-0.85c0.14-0.18,0.26-0.25,0.3-0.22
							c0.1,0.08-0.19,0.47-0.35,1.16c-0.17,0.69-0.17,1.67,0.06,2.61c0.12,0.47,0.27,0.94,0.48,1.34c0.21,0.4,0.47,0.74,0.73,1.01
							c0.26,0.26,0.51,0.45,0.69,0.56C-34.68-10.44-34.57-10.39-34.57-10.39z"/>
						<path class="st2" d="M-37.46-9.1c0,0-0.11-0.04-0.31-0.13c-0.19-0.09-0.46-0.24-0.75-0.46c-0.29-0.22-0.61-0.51-0.89-0.89
							c-0.28-0.37-0.51-0.83-0.64-1.31c-0.04-0.12-0.07-0.24-0.1-0.36c-0.02-0.12-0.06-0.24-0.07-0.37
							c-0.02-0.25-0.05-0.49-0.03-0.73c0.01-0.48,0.16-0.91,0.32-1.26c0.18-0.33,0.35-0.6,0.51-0.75c0.15-0.16,0.26-0.23,0.3-0.19
							c0.04,0.04,0,0.16-0.09,0.34c-0.11,0.18-0.23,0.44-0.38,0.75c-0.27,0.63-0.39,1.56-0.15,2.47c0.1,0.46,0.27,0.89,0.51,1.26
							c0.23,0.37,0.51,0.68,0.78,0.92c0.26,0.24,0.51,0.41,0.69,0.52C-37.57-9.16-37.46-9.1-37.46-9.1z"/>
					</g>
				</g>
				<g class="st3">
					<path class="st0" d="M-4.79,22.68c-1.25,2.82-8.46,3.07-15.96-1.25c5.79,3.04,5.12-0.16,1.51-5.73
						c-3.16-4.88-4.81-7.15-2.95-6.63c1.86,0.52-1.74-3.59-4.7-10.05c-2.56-5.6-2.96-6-3.56-5.79c-0.61,0.21,0.34,3.38,1.03,5.47
						c0,0-1.83-4.42-2.79-3.88c-0.96,0.54,0.07,3.89,0.51,4.99c0,0-2.14-4.17-2.92-3.56c-0.77,0.61-0.72,2.79,0.45,5.17
						c-0.15-0.31-1.66-3.47-2.57-2.72c-0.95,0.78,0.78,5.83,3.59,10.37c-4.49-7.11-6.1-13.99-4.81-14.37
						c1.09-0.32,2.31,3.46,2.31,3.46s-1.24-4.15,0.01-4.74c1.26-0.59,2.69,3.67,2.69,3.67s-1.21-4.02,0.02-4.44
						c1.1-0.37,2.11,2.57,2.31,3.18c-0.19-0.63-1.05-3.67,0.33-4.05c1.54-0.42,2.73,1.48,6.09,7.17c3.36,5.69,6.65,9.38,11.79,12.09
						C-7.26,13.74-3.05,18.76-4.79,22.68z"/>
				</g>
				<path class="st4" d="M-35.49,3.25c0,0,4.21,12.67,15.82,18.39C-19.66,21.64-28.44,14.6-35.49,3.25z"/>
				<g>
					<path class="st1" d="M-26.49-10.73c-0.22,0.57-0.6,1.05-1.04,1.43l0,0c1.45-1.33,1.52-4.45,0.06-4.86
						c-1.46-0.42-1.49,2.15-3.45,2.75c-1.97,0.59-2.78-1.75-3.18-3.45c-0.4-1.7-2.11-1.18-2.41,0.56c-0.3,1.74,1.33,3.62,1.33,3.62
						s-1.33-0.5-2.01-2.4c-0.68-1.9-2.29-1.57-2.37,0.4c-0.09,1.97,1.58,3.26,1.58,3.26c-1.86-0.82-2.24-3.37-3.22-2.8
						c-0.88,0.52-0.57,2.3-0.49,2.66c-0.22-0.85-0.25-1.72-0.05-2.52c0.65-2.59,1.92-2.43,1.92-2.43c1.84-3,2.78-1.49,2.78-1.49
						s0.43-2.13,2.21-1.96c1.79,0.17,0.88,2.71,1.95,4.14c1.07,1.43,2.54,1.74,3.98-0.6C-27.54-16.66-25.3-13.82-26.49-10.73z"/>
				</g>
				<path class="st1" d="M-41.5-11.42c0,0-0.8,3.2,2.83,5.56C-38.68-5.86-41.12-8.32-41.5-11.42z"/>
				<path class="st1" d="M-39.12-13.78c0,0-1.41,2.58,1.81,4.63C-37.31-9.15-39.44-11.12-39.12-13.78z"/>
				<path class="st1" d="M-35.81-15.39c0,0-1.9,2.72,1.31,4.77C-34.5-10.62-36.51-12.62-35.81-15.39z"/>
			</g>
			<g>
				<g>
					<path class="st0" d="M16.24,19.73c1.3,3.7,12.5,4.01,22.38-4.02C48.49,7.68,53.22-4.89,51.5-5.55
						c-1.07-0.41-2.58,3.26-2.58,3.26s1.57-4.04,0.36-4.73c-1.21-0.69-2.97,3.44-2.97,3.44s1.52-3.91,0.33-4.42
						c-1.19-0.51-2.6,3.1-2.6,3.1s1.54-3.63,0.04-4.18c-1.5-0.54-2.84,1.26-6.64,6.67c-3.8,5.41-7.36,8.83-12.7,11.12
						C19.41,11.01,14.81,15.68,16.24,19.73z"/>
					<path class="st1" d="M51.62-5.47c-0.04-0.04-0.08-0.07-0.13-0.08c-1.07-0.41-2.58,3.26-2.58,3.26s1.57-4.04,0.36-4.73
						c-1.21-0.69-2.97,3.44-2.97,3.44s1.52-3.91,0.33-4.42C45.58-8.45,44.34-5.6,44.09-5c0.24-0.61,1.34-3.58-0.01-4.07
						c-0.31-0.11-0.55-0.1-0.77,0.03c-0.84-0.4-2.38-1.33-2.82-2.82c-0.94-3.18,1.51-5.84,2.71-3.5c1.25,2.44,2.74,2.25,3.92,0.91
						c1.18-1.34,0.48-3.95,2.27-3.98c1.79-0.03,2.05,2.13,2.05,2.13s1.05-1.43,2.65,1.71c0,0,1.28-0.06,1.72,2.58
						C56.25-9.51,54.46-6.48,51.62-5.47z"/>
					<g>
						<path class="st2" d="M48.52-10.9c0,0,0.12-0.03,0.33-0.11c0.2-0.08,0.49-0.22,0.8-0.44c0.31-0.22,0.64-0.53,0.93-0.91
							c0.29-0.39,0.52-0.84,0.71-1.32c0.38-0.95,0.5-2.01,0.32-2.78c-0.08-0.38-0.21-0.69-0.35-0.88c-0.13-0.19-0.24-0.27-0.28-0.24
							c-0.1,0.07,0.15,0.48,0.26,1.19c0.12,0.7,0.04,1.68-0.27,2.6c-0.15,0.46-0.34,0.91-0.59,1.3c-0.24,0.38-0.53,0.7-0.81,0.95
							c-0.28,0.24-0.54,0.41-0.73,0.5C48.64-10.94,48.52-10.9,48.52-10.9z"/>
						<path class="st2" d="M51.31-9.39c0,0,0.12-0.03,0.31-0.11c0.2-0.08,0.48-0.2,0.79-0.4c0.31-0.19,0.65-0.46,0.96-0.81
							c0.31-0.35,0.57-0.79,0.74-1.25c0.05-0.11,0.09-0.23,0.12-0.35c0.03-0.12,0.08-0.24,0.1-0.36c0.04-0.24,0.09-0.48,0.08-0.72
							c0.02-0.48-0.09-0.92-0.22-1.28c-0.15-0.35-0.3-0.62-0.45-0.78c-0.14-0.17-0.24-0.25-0.28-0.21
							c-0.05,0.03-0.02,0.16,0.07,0.35c0.09,0.18,0.2,0.46,0.32,0.78c0.22,0.65,0.27,1.58-0.05,2.47c-0.14,0.45-0.34,0.87-0.61,1.22
							c-0.26,0.35-0.56,0.64-0.85,0.86c-0.28,0.22-0.54,0.37-0.73,0.47C51.42-9.43,51.31-9.39,51.31-9.39z"/>
					</g>
				</g>
				<g class="st3">
					<path class="st0" d="M16.24,19.73c1.03,2.91,8.19,3.72,16.01,0.01c-6.01,2.57-5.09-0.56-1.05-5.83
						c3.54-4.61,5.36-6.75,3.46-6.38c-1.9,0.37,2.02-3.44,5.47-9.65c2.99-5.38,3.42-5.75,4-5.49c0.59,0.26-0.6,3.34-1.46,5.38
						c0,0,2.17-4.26,3.08-3.64c0.91,0.62-0.38,3.87-0.9,4.93c0,0,2.46-3.99,3.19-3.32c0.72,0.67,0.5,2.84-0.86,5.12
						c0.17-0.3,1.93-3.32,2.77-2.51c0.89,0.85-1.24,5.76-4.39,10.06c5.04-6.73,7.18-13.47,5.93-13.95
						c-1.07-0.41-2.58,3.26-2.58,3.26s1.57-4.04,0.36-4.73c-1.21-0.69-2.97,3.44-2.97,3.44s1.52-3.91,0.33-4.42
						C45.58-8.45,44.34-5.6,44.09-5c0.24-0.61,1.34-3.58-0.01-4.07c-1.5-0.54-2.84,1.26-6.64,6.67c-3.8,5.41-7.36,8.83-12.7,11.12
						C19.41,11.01,14.81,15.68,16.24,19.73z"/>
				</g>
				<path class="st4" d="M48.37,2.77c0,0-5.19,12.3-17.22,17.08C31.15,19.86,40.46,13.53,48.37,2.77z"/>
				<g>
					<path class="st1" d="M40.5-11.87c0.17,0.59,0.52,1.09,0.93,1.51l0,0c-1.34-1.44-1.17-4.55,0.32-4.85
						c1.49-0.3,1.31,2.26,3.23,3.01c1.91,0.74,2.91-1.52,3.44-3.19c0.53-1.67,2.2-1.01,2.36,0.75c0.16,1.76-1.61,3.5-1.61,3.5
						s1.37-0.39,2.19-2.24c0.82-1.84,2.4-1.38,2.34,0.59c-0.07,1.97-1.83,3.12-1.83,3.12c1.92-0.67,2.5-3.19,3.43-2.53
						c0.84,0.59,0.38,2.34,0.28,2.69c0.29-0.83,0.38-1.7,0.24-2.51c-0.45-2.63-1.72-2.58-1.72-2.58c-1.6-3.14-2.65-1.71-2.65-1.71
						s-0.26-2.16-2.05-2.13c-1.79,0.03-1.09,2.64-2.27,3.98c-1.18,1.34-2.67,1.54-3.92-0.91C42.01-17.7,39.56-15.05,40.5-11.87z"/>
				</g>
				<path class="st1" d="M55.52-11.38c0,0,0.54,3.26-3.25,5.32C52.27-6.06,54.89-8.32,55.52-11.38z"/>
				<path class="st1" d="M53.33-13.92c0,0,1.2,2.68-2.16,4.48C51.16-9.44,53.44-11.24,53.33-13.92z"/>
				<path class="st1" d="M50.15-15.79c0,0,1.68,2.86-1.68,4.66C48.47-11.13,50.64-12.97,50.15-15.79z"/>
			</g>
			<g>
				<g>
					<g>
						<path class="st5" d="M-20.88-14.76c8.46,10.89,14.3,0.27,6.11-11.54c-8.18-11.81-27.31-21.02-40.91-12.33
							C-57.91-37.21-42.04-42.02-20.88-14.76z"/>
						<g>
							<path class="st6" d="M-22.42-20.77c1.15,1.7,3.85,4.66,1.73,6.25c-0.06-0.08-0.12-0.15-0.19-0.24
								c-2.34-3.01-4.61-5.63-6.81-7.91C-26.22-23.47-23.55-22.39-22.42-20.77z"/>
							<path class="st6" d="M-42.9-36.79c0.98,0.38,1.82,1.05,2.94,1.14c1.52,0.19,2.84-0.51,4.43-0.47
								c2.92,0.06,5.16,2.3,5.67,5.14c0.5,2.16-0.09,3.71-1.13,5.05c-6.95-6.43-12.91-9.43-17.25-10.88
								C-46.79-37.68-44.25-37.24-42.9-36.79z"/>
							<path class="st6" d="M-23.02-31.08c-1.31,1.43-2.04,3.49-3.95,1.14c-0.7-0.96-0.58-2.33-1.06-3.37
								c-0.52-1.15-1.65-1.96-2.18-3.1c-0.41-0.71-0.7-1.82-0.66-2.82c3.47,1.52,6.74,3.56,9.6,5.93
								C-21.52-32.47-22.28-31.93-23.02-31.08z"/>
						</g>
						<path class="st7" d="M-20.88-14.76c-0.32-0.41-0.63-0.8-0.94-1.2c3.07-1.38,1.8-13.87-8.25-19.62
							c-11.47-6.57-21.68-5.15-21.39-2.11c-3.41-0.73-5.03-0.42-4.21-0.94c13.6-8.69,32.73,0.52,40.91,12.33
							C-6.58-14.49-12.42-3.87-20.88-14.76z"/>
					</g>
					<g>
						<path class="st8" d="M-47.77-32.87c-1.39-0.04-1.87-2.81-2.12-4.44c1.39,0.38,2.98,0.92,4.77,1.72
							C-45.8-34.38-46.91-32.88-47.77-32.87z"/>
						<path class="st8" d="M-41.55-28.93c-1.16-0.75-1.07-3.6-0.98-5.4c1.66,0.89,3.45,1.98,5.35,3.33
							C-38.48-29.82-40.42-28.29-41.55-28.93z"/>
						<path class="st8" d="M-53.31-34.87c-1.02-0.26-1.01-2.06-0.91-3.27c0.87,0.1,2.08,0.27,3.56,0.64
							C-51.25-36.2-52.26-34.58-53.31-34.87z"/>
						<path class="st8" d="M-32.33-23.3c-1.74-0.38-1.38-2.86-1.04-4.72c1.31,1.1,2.65,2.32,4.04,3.68
							C-30.28-23.68-31.53-23.14-32.33-23.3z"/>
						<path class="st8" d="M-27.98-18.95c-0.8-0.77-0.47-2.69-0.08-4.12c1.19,1.22,2.41,2.55,3.64,3.98
							C-25.75-18.55-27.4-18.26-27.98-18.95z"/>
					</g>
					<g>
						<path class="st9" d="M-48.01-35.65c-0.61,0.57-0.84,1.42-0.71,2.21c-0.69-0.9-0.99-2.69-1.17-3.88
							c1.1,0.3,2.33,0.71,3.69,1.26C-46.83-36.21-47.52-36.11-48.01-35.65z"/>
						<path class="st9" d="M-39.95-32.21c-1.18,0.48-1.86,2.06-1.25,3.22c0.04,0.07,0.07,0.14,0.11,0.2
							c-0.17-0.02-0.32-0.06-0.47-0.14c-1.16-0.75-1.07-3.6-0.98-5.4c1.05,0.56,2.14,1.2,3.29,1.93
							C-39.48-32.36-39.72-32.3-39.95-32.21z"/>
						<path class="st9" d="M-50.84-37.11c-0.07-0.05-0.15-0.1-0.23-0.15c-0.55-0.28-1.3-0.12-1.74,0.29c-0.01,0-0.01,0.01-0.01,0.02
							c-0.05,0.03-0.09,0.06-0.13,0.09c-0.41,0.32-0.67,0.92-0.57,1.45c0.04,0.2,0.1,0.37,0.19,0.53c-0.98-0.3-0.98-2.06-0.87-3.25
							c0.87,0.1,2.08,0.27,3.56,0.64C-50.71-37.37-50.78-37.24-50.84-37.11z"/>
						<path class="st9" d="M-33.07-24.52c-0.06,0.26-0.08,0.52-0.06,0.77c-0.79-0.89-0.51-2.78-0.23-4.27
							c0.74,0.62,1.49,1.28,2.25,1.99C-32.02-26.03-32.86-25.44-33.07-24.52z"/>
						<path class="st9" d="M-27.2-20.86c-0.43,0.29-0.85,0.73-0.97,1.24c-0.03,0.11-0.05,0.21-0.06,0.32
							c-0.46-0.91-0.17-2.53,0.17-3.77c0.63,0.64,1.26,1.32,1.91,2.02C-26.51-21.1-26.89-21.06-27.2-20.86z"/>
					</g>
				</g>
				<g class="st10">
					<path class="st8" d="M-48.65-37.74c0,0,16.35,6.7,24.65,18.4C-24-19.34-29.55-33.59-48.65-37.74z"/>
				</g>
			</g>
			<g>
				<g>
					<g>
						<path class="st11" d="M-12.55-19.13c2.43,14.85,15.93,7.24,11.99-4.76c-4.38-13.32-3.57-25.05-5.45-25.78
							c-2.83-1.1-10.69,0.76-10.77,2.5c-0.2,4.18,4.28,4.66,4.75,5.69C-11.57-40.46-14.97-33.9-12.55-19.13z"/>
						<g>
							<polygon class="st12" points="-10.3,-49.87 -10.3,-49.87 -10.3,-49.87 							"/>
							<path class="st12" d="M-10.54-32.82c1.18,2.07-0.75,3.33-0.67,5.19c0.05,1.74,2.56,2.45,2.28,4.27
								c-0.15,1.59-2.16,2.34-3.88,2.54c-0.82-5.89-0.7-10.38-0.34-13.65C-12.09-34.3-11.03-33.67-10.54-32.82z"/>
							<path class="st12" d="M-13.46-49.19c0.03,0.12,0.06,0.25,0.08,0.38C-13.44-49.04-13.46-49.19-13.46-49.19z"/>
							<path class="st12" d="M-4.71-45.36c0.26,1.96,0.53,4.49,0.95,7.4C-8.48-37.94-7.75-43.29-4.71-45.36z"/>
							<path class="st12" d="M-4.01-23.33c-1.18-2.07,0.59-3.53,0.34-5.58c-0.28-1.69-2.09-2.44-2.34-4.02
								c-0.2-1.63,1.03-3.13,2.4-3.99c0.6,3.88,1.5,8.36,3.04,13.04c0.37,1.13,0.59,2.22,0.67,3.26
								C-1.47-21.13-3.12-21.89-4.01-23.33z"/>
							<path class="st12" d="M-10.3-49.87L-10.3-49.87c0,0.01,0.07,0.3,0.11,0.71C-10.28-49.56-10.3-49.86-10.3-49.87z"/>
							<path class="st12" d="M-13.46-49.19c0-0.01,0-0.01-0.01-0.02c0.01,0,0.03-0.01,0.04-0.01L-13.46-49.19L-13.46-49.19z"/>
						</g>
					</g>
					<path class="st13" d="M-0.57-23.89c3.94,12-9.56,19.61-11.99,4.76c-0.07-0.42-0.13-0.82-0.19-1.23
						c2.8,2.42,8.38-3.01,7.69-12.8c-0.51-7.33-1.71-14.16-6.64-12.54c-3.24,1.06-2.37,2.55-1.39,3.45
						c-1.46-0.76-3.85-1.83-3.71-4.91c0.08-1.73,7.94-3.6,10.77-2.5C-4.14-48.94-4.94-37.21-0.57-23.89z"/>
					<g class="st10">
						<path class="st8" d="M-11.57-40.97c0,0-2.94,8.06-0.77,20.09C-11.78-17.82-11.71-30.98-11.57-40.97z"/>
					</g>
					<g>
						<path class="st8" d="M-13.46-49.19c0,0,0.02,0.16,0.08,0.38c0.25,1.23,0.35,2.77-0.76,2.97c-1.08,0.19-1.95-1.19-2.33-1.93
							c0.53-0.53,1.65-1.04,3-1.44C-13.47-49.2-13.47-49.2-13.46-49.19z"/>
						<path class="st8" d="M-8.81-47.07c-0.84-0.06-1.23-1.28-1.39-2.08c-0.04-0.41-0.11-0.71-0.11-0.71
							c0.99-0.12,1.96-0.17,2.79-0.1C-7.51-49.95-7.54-46.98-8.81-47.07z"/>
						<path class="st8" d="M-11.23-46.71c-1.37,0.32-1.96-1.33-2.15-2.1c-0.03-0.13-0.05-0.26-0.08-0.38l0,0l0.04-0.03
							c0.97-0.28,2.06-0.51,3.12-0.64c0,0.01,0.03,0.31,0.11,0.71C-10.12-48.3-10.17-46.95-11.23-46.71z"/>
					</g>
					<g>
						<path class="st9" d="M-13.38-48.81c0.25,1.23,0.35,2.77-0.76,2.97c-0.11,0.02-0.21,0.02-0.31,0.01
							c0.58-0.37,0.88-1.1,0.66-1.81c-0.14-0.46-0.41-0.92-0.83-1.17c-0.01,0-0.01-0.01-0.02-0.01c0.36-0.14,0.76-0.28,1.18-0.4
							c0,0.01,0,0.01,0.01,0.02C-13.46-49.19-13.44-49.04-13.38-48.81z"/>
						<path class="st9" d="M-8.74-47.19c0.57-0.77,0.49-2.04-0.14-2.8c0.48-0.02,0.95-0.02,1.37,0.02c0,0.02-0.03,2.99-1.3,2.9
							c-0.01,0-0.02,0-0.04-0.01C-8.81-47.11-8.78-47.15-8.74-47.19z"/>
						<path class="st9" d="M-11.74-49.63c0.48-0.09,0.96-0.17,1.43-0.24c0,0.01,0.03,0.31,0.11,0.71c0.08,0.85,0.03,2.2-1.03,2.45
							c-0.17,0.04-0.32,0.05-0.46,0.03C-10.98-47.47-10.89-48.95-11.74-49.63z"/>
					</g>
				</g>
			</g>
			<g>
				<g>
					<g>
						<path class="st11" d="M10.72-20.05c1.98-5.99,9.05-25.62,11.33-28.05c2.28-2.43,12.27-1.06,12.67,0.99
							c0.4,2.05-1.4,7.34-6.37,7.75c-0.91,0.08-3.19,17.73-5.17,24.75C21.21-7.58,6.84-8.34,10.72-20.05z"/>
						<g>
							<polygon class="st12" points="27.44,-49.39 27.44,-49.39 27.44,-49.39 							"/>
							<path class="st12" d="M17.14-28.53c0.23,1.71-1.37,2.74-1.03,4.45c0.34,2.39,1.71,3.08-1.03,4.9
								c-1.51,0.94-3.25,1.18-4.9,1.24c0.11-0.66,0.28-1.36,0.53-2.11c0.78-2.34,2.33-6.77,4.07-11.44
								C15.98-30.91,17.07-29.83,17.14-28.53z"/>
							<path class="st12" d="M22.16-40.5c-0.18,2.22-2.92,2.94-5.1,3.07c1.12-2.84,2.22-5.47,3.14-7.44
								C21.05-43.51,22.24-42.01,22.16-40.5z"/>
							<path class="st12" d="M22.27-27.5c-0.46-1.82,1.48-2.96,1.48-4.67c0.11-1.6-0.91-2.74,0.91-3.88c0.8-0.46,1.86-0.5,2.73-0.18
								c-0.59,2.85-1.32,7.26-2.1,11.56C24-25.19,22.48-26.16,22.27-27.5z"/>
							<path class="st12" d="M31.09-47.95c0.07-0.58,0.15-0.99,0.15-0.99C31.2-48.6,31.15-48.27,31.09-47.95z"/>
							<polygon class="st12" points="31.24,-48.95 31.24,-48.95 31.24,-48.94 							"/>
							<path class="st12" d="M27.44-49.39L27.44-49.39L27.44-49.39c-0.08,0.32-0.16,0.64-0.25,0.95C27.3-49,27.44-49.39,27.44-49.39
								z"/>
						</g>
					</g>
					<path class="st13" d="M28.36-39.36c0,0,4.16-3.94,0-4.85c-5.4-1.19-8.06,3.41-11.63,15.41c-2.8,9.39,4.97,10.93,8.23,6.03
						c-0.59,3.16-1.19,6.11-1.77,8.16c-1.98,7.02-16.34,6.27-12.47-5.44c1.98-5.99,9.05-25.62,11.33-28.05
						c2.28-2.43,12.27-1.06,12.67,0.99C35.12-45.06,33.32-39.77,28.36-39.36z"/>
					<g>
						<path class="st8" d="M31.09-47.95c-0.46,2.4-1.57,3.9-3.11,3.04c-1.17-0.65-1.02-2.42-0.79-3.54
							c0.09-0.31,0.17-0.63,0.25-0.95c1.3,0.03,2.64,0.19,3.81,0.45v0C31.24-48.94,31.16-48.53,31.09-47.95z"/>
						<path class="st8" d="M34.53-47.5L34.53-47.5c-0.46,1.72-1.76,3.47-2.9,2.95c-0.77-0.35-0.68-2.22-0.53-3.4
							c0.06-0.32,0.11-0.65,0.15-0.99l0,0C32.8-48.6,34.05-48.09,34.53-47.5z"/>
						<path class="st8" d="M27.19-48.45c-0.53,1.87-1.26,3.38-2.35,2.99c-0.93-0.33-1.08-2.25-1.08-3.56
							c1.03-0.29,2.33-0.41,3.67-0.38l0,0C27.44-49.39,27.3-49,27.19-48.45z"/>
					</g>
					<g>
						<path class="st9" d="M29.32-49.01c-1.37,0.46-2.17,2.33-1.39,3.6c0.19,0.31,0.46,0.57,0.77,0.74
							c-0.23-0.02-0.47-0.1-0.72-0.24c-1.17-0.65-1.02-2.42-0.79-3.54c0.09-0.31,0.17-0.63,0.25-0.95c1.3,0.03,2.64,0.19,3.81,0.45
							v0c0,0-0.01,0.07-0.03,0.19C30.62-49.14,30-49.24,29.32-49.01z"/>
						<path class="st9" d="M31.97-45.62c0.12,0.36,0.31,0.77,0.62,1.03c-0.32,0.16-0.65,0.19-0.96,0.05
							c-0.77-0.35-0.68-2.22-0.53-3.4c0.06-0.32,0.11-0.65,0.15-0.99l0,0c0.5,0.11,0.98,0.24,1.4,0.38
							C31.86-47.9,31.66-46.55,31.97-45.62z"/>
						<path class="st9" d="M24.87-46.07c0.16,0.25,0.39,0.47,0.67,0.6c-0.21,0.09-0.44,0.11-0.7,0.02
							c-0.93-0.33-1.08-2.25-1.08-3.56c0.52-0.15,1.1-0.25,1.72-0.31C24.7-48.5,24.23-47.1,24.87-46.07z"/>
					</g>
				</g>
				<g class="st10">
					<path class="st8" d="M23.01-21.74c0,0,4.01-7.43,4.6-19.64C27.76-44.48,25.41-31.43,23.01-21.74z"/>
				</g>
			</g>
			<g>
				<path class="st14" d="M11.39,49.97c33.78-0.85,33.17-20.76,24.81-36.38c-5.72-10.68-2.65-16.85-0.87-24.81
					c1.44-6.45-11.25-9.99-27.4-10.49c-16.15-0.5-32.88,3.44-29.42,9.48c3.46,6.04,0,14.18-2.88,26.88
					C-27.26,27.34-28.12,50.96,11.39,49.97z"/>
				<g>
					<path class="st14" d="M11.39,49.97c-39.52,0.99-38.65-22.63-35.77-35.32c2.88-12.69,6.35-20.83,2.88-26.88
						c-3.46-6.05,13.27-9.98,29.42-9.48c16.15,0.5,28.84,4.04,27.4,10.49c-1.78,7.96-4.86,14.13,0.87,24.81
						C44.56,29.21,45.17,49.12,11.39,49.97z M28.88-6.58c1.04-10.07-12.97-13.36-26.66-12.7c-13.7,0.65-20.15,4.16-18.48,14.67
						c0.98,6.15-5.44,15.08-7.05,25.29c-1.61,10.21-0.01,13.31,2.38,17.63c6.71,12.17,44.98,16.01,55.4,3.22
						C47.06,26.06,26.2,19.36,28.88-6.58z"/>
				</g>
			</g>
		</g>
	</g>
	<g>
		<path class="st15" d="M-0.51-7.27c0,0,0.13-0.12,0.36-0.32c0.12-0.1,0.27-0.21,0.43-0.35c0.17-0.12,0.37-0.27,0.59-0.4
			c0.88-0.57,2.19-1.11,3.56-1.32c1.37-0.23,2.77-0.15,3.79,0.05C9.25-9.41,9.9-9.1,9.85-8.94c-0.04,0.16-0.7,0.02-1.7-0.11
			C7.16-9.19,5.82-9.3,4.5-9.16C3.17-9.04,1.87-8.64,0.96-8.17C0.73-8.06,0.53-7.94,0.34-7.84C0.17-7.72,0.01-7.63-0.12-7.54
			C-0.36-7.37-0.51-7.27-0.51-7.27z"/>
		<g>
			<path class="st14" d="M-6.55,11.87c-3.94,0.28-8.91-1.53-7.52-8.68c1.38-7.15,9.39-7.57,17.15-5.14
				c7.76,2.42,15.53-5.28,22.09,2.42c6.56,7.7,2.96,17.13-2.82,17.25c-4.44,0.09-4.95-1.64-9.88-6.5
				C7.03,5.83-3.66,11.67-6.55,11.87z"/>
			<path class="st0" d="M-11.4,8.83c-2.31-2.76-2.15-9.94,7.14-10.59c9.29-0.65,8.17,3.99,15.42,1.21
				C18.4-3.33,27.32-0.18,26.67,9.3c-0.65,9.48-7.15,8.08-9.57,5.3c-2.42-2.79-6.54-8.86-17-5.76C-5.84,10.6-9.65,10.92-11.4,8.83z"
				/>
			<path class="st16" d="M-9.21,8c-2.43-1.82,0.07-9.8,8.03-6.83c7.3,2.72,8.62,2.02,12.24,0.7c3.61-1.32,9.88-2.28,12.09,4.57
				c2.21,6.85-1.92,9.31-6.27,4.83C12.54,6.79,8.45,4.28,1.85,5.25C-2.39,5.87-7.19,9.51-9.21,8z"/>
			<path class="st17" d="M-8.33,7.42c-2.3-1.45,0.07-7.77,7.59-5.42c6.9,2.16,8.15,1.6,11.56,0.56c3.41-1.05,9.34-1.81,11.43,3.62
				c2.09,5.43-1.81,7.38-5.92,3.83C12.23,6.47,8.36,4.48,2.12,5.25C-1.89,5.74-6.42,8.62-8.33,7.42z"/>
			<g>
				<path class="st8" d="M2.89,3.78c0.71-0.15,1.33,0.58,1.69,1.3c-0.78,0-1.59,0.06-2.45,0.16C1.99,5.26,1.85,5.28,1.71,5.31
					C1.91,4.63,2.33,3.92,2.89,3.78z"/>
				<path class="st8" d="M-6.17,3.4c-0.44,0.07-0.9-0.42-1.24-0.86c0.57-0.41,1.28-0.74,2.12-0.91C-5.37,2.31-5.58,3.29-6.17,3.4z"
					/>
				<path class="st8" d="M-5.37,4.97c0.67-0.03,1.28,1.11,1.59,1.96c-1.04,0.36-2.01,0.65-2.83,0.75C-6.63,6.75-6.35,4.97-5.37,4.97
					z"/>
				<path class="st8" d="M-1.88,4.48c0.76-0.38,1.54,0.44,2.01,1.17c-0.98,0.26-1.96,0.6-2.9,0.93C-2.71,5.75-2.48,4.78-1.88,4.48z"
					/>
				<path class="st8" d="M12.54,5.25c0.84,0.1,1.24,1.68,1.24,2.77c-0.9-0.62-1.82-1.16-2.78-1.6C11.38,5.84,11.94,5.19,12.54,5.25z
					"/>
				<path class="st8" d="M18.63,7.3c0.87,0.97,1.47,2.95,1.47,4.51c-1.1-0.05-2.43-0.62-3.77-1.79c-0.31-0.27-0.62-0.53-0.93-0.78
					C16.02,7.68,17.22,5.65,18.63,7.3z"/>
				<path class="st8" d="M8.25,3.92c0.67,0.16,1.1,1.04,1.32,1.93c-0.98-0.33-2-0.56-3.11-0.68C6.87,4.45,7.49,3.73,8.25,3.92z"/>
				<path class="st8" d="M-2.45,3.45c-0.8-0.07-1.26-1.12-1.5-1.96c0.88-0.01,1.89,0.13,3,0.46C-1.22,2.72-1.68,3.54-2.45,3.45z"/>
				<path class="st8" d="M22.13,5.87c-0.88,0.44-1.9,0.85-2.46,0.55c-0.86-0.54-0.26-2.47-0.09-3.57
					C20.62,3.48,21.51,4.45,22.13,5.87z"/>
				<path class="st8" d="M16.41,3.68c-0.59-0.03-0.74-1.1-0.82-1.86c0.79,0.01,1.59,0.11,2.34,0.32
					C17.49,2.89,16.89,3.71,16.41,3.68z"/>
				<path class="st8" d="M12.6,3.68c-0.47,0.11-0.82-0.73-1.07-1.31c0.6-0.16,1.25-0.3,1.94-0.4C13.32,2.69,13.1,3.55,12.6,3.68z"/>
				<path class="st8" d="M1.59,4.05c-0.38-0.03-0.68-0.97-0.85-1.6c0.58,0.17,1.12,0.31,1.62,0.44C2.19,3.47,1.95,4.08,1.59,4.05z"
					/>
			</g>
			<g>
				<path class="st9" d="M3.58,5.12c0-0.01-0.01-0.02-0.01-0.04C3.52,4.92,3.44,4.77,3.36,4.63C3.27,4.47,3.14,4.35,2.99,4.28
					c-0.17-0.13-0.38-0.2-0.58-0.2c0.15-0.14,0.31-0.25,0.49-0.29c0.71-0.15,1.33,0.58,1.69,1.3C4.25,5.09,3.92,5.1,3.58,5.12z"/>
				<path class="st9" d="M-5.95,2.48c-0.07-0.23-0.2-0.41-0.37-0.53C-6,1.82-5.66,1.71-5.28,1.63c-0.08,0.62-0.26,1.49-0.74,1.72
					C-5.9,3.07-5.87,2.76-5.95,2.48z"/>
				<path class="st9" d="M-4.48,7.16c0.04-0.14,0.06-0.3,0.07-0.45C-4.4,6.2-4.7,5.69-5.16,5.46C-5.28,5.4-5.4,5.37-5.53,5.35
					c-0.14-0.06-0.3-0.08-0.47-0.07c0.17-0.19,0.37-0.32,0.63-0.32c0.67-0.03,1.28,1.11,1.59,1.96C-4.02,7.01-4.25,7.09-4.48,7.16z"
					/>
				<path class="st9" d="M-0.61,5.87c0-0.02,0-0.03-0.01-0.05c-0.03-0.16-0.16-0.37-0.29-0.5C-1.04,5-1.29,4.75-1.66,4.72
					c-0.02,0-0.05,0-0.07-0.01c0.02,0,0.03,0.01,0.05,0.02C-1.79,4.7-1.9,4.68-2.06,4.71C-2.1,4.71-2.15,4.73-2.19,4.74
					C-2.1,4.63-2,4.54-1.88,4.48c0.76-0.38,1.54,0.44,2.01,1.17C-0.12,5.72-0.37,5.79-0.61,5.87z"/>
				<path class="st9" d="M12.9,7.45c0.12-0.19,0.13-0.22,0.21-0.5c0.03-0.09,0.03-0.43,0.03-0.32c0.02-0.29-0.16-0.7-0.41-0.86
					c-0.04-0.03-0.09-0.06-0.13-0.09c-0.17-0.17-0.39-0.27-0.62-0.29c0.18-0.1,0.36-0.15,0.55-0.13c0.84,0.1,1.24,1.68,1.24,2.77
					C13.49,7.82,13.2,7.63,12.9,7.45z"/>
				<path class="st9" d="M17,10.54c0.32-0.01,0.63-0.1,0.92-0.32c0.52-0.39,0.87-1.12,0.8-1.77c-0.07-0.66-0.4-1.31-1.06-1.54
					c-0.19-0.07-0.39-0.1-0.58-0.1c0.47-0.24,0.99-0.16,1.55,0.49c0.87,0.97,1.47,2.95,1.47,4.51C19.19,11.76,18.12,11.35,17,10.54z
					"/>
				<path class="st9" d="M8.72,5.6c0.05-0.23,0.06-0.47,0-0.71C8.58,4.37,8.14,4.07,7.63,3.98c-0.01,0-0.03,0-0.04,0
					C7.8,3.89,8.02,3.86,8.25,3.92c0.67,0.16,1.1,1.04,1.32,1.93C9.3,5.76,9.01,5.68,8.72,5.6z"/>
				<path class="st9" d="M-1.97,3.24c0.29-0.3,0.37-0.73,0.33-1.14l0.01,0.06c0-0.02-0.01-0.05-0.01-0.07
					c-0.01-0.08-0.02-0.15-0.04-0.22c0.01,0.03,0.01,0.07,0.02,0.1C-1.68,1.9-1.7,1.82-1.72,1.74c0.25,0.06,0.51,0.12,0.77,0.2
					c-0.24,0.68-0.62,1.4-1.24,1.5C-2.12,3.38-2.05,3.32-1.97,3.24z"/>
				<path class="st9" d="M19.64,5.69c0.32,0.09,0.68,0.05,0.99-0.07c0.43-0.17,0.71-0.61,0.76-1.06c0.28,0.39,0.52,0.83,0.74,1.32
					c-0.88,0.44-1.9,0.85-2.46,0.55c-0.28-0.18-0.4-0.5-0.44-0.89C19.36,5.61,19.49,5.66,19.64,5.69z"/>
				<path class="st9" d="M16.13,3.47c0.24-0.13,0.43-0.34,0.55-0.59c0.11-0.24,0.17-0.57,0.1-0.84c0-0.04-0.02-0.09-0.03-0.13
					c0.4,0.05,0.79,0.13,1.18,0.24c-0.44,0.74-1.04,1.56-1.53,1.53c-0.14-0.01-0.25-0.07-0.34-0.17
					C16.09,3.49,16.11,3.48,16.13,3.47z"/>
				<path class="st9" d="M12.42,3.39c0.12-0.14,0.2-0.32,0.25-0.49c0.07-0.17,0.11-0.36,0.1-0.54c0-0.09-0.02-0.17-0.04-0.26
					c0.24-0.05,0.49-0.09,0.74-0.13c-0.14,0.72-0.36,1.59-0.87,1.71c-0.13,0.03-0.25-0.01-0.36-0.1C12.3,3.52,12.37,3.46,12.42,3.39
					z"/>
				<path class="st9" d="M1.45,3.96C1.8,3.67,1.94,3.2,1.87,2.76C2.03,2.81,2.2,2.85,2.36,2.89C2.19,3.47,1.95,4.08,1.59,4.05
					C1.53,4.04,1.48,4.02,1.43,3.98C1.44,3.97,1.44,3.97,1.45,3.96z"/>
			</g>
			<path class="st18" d="M-10.21,12.39c0,0-0.16,0.03-0.45,0.09c-0.29,0.04-0.71,0.11-1.23,0.08c-0.51-0.02-1.13-0.14-1.73-0.43
				c-0.61-0.29-1.18-0.79-1.58-1.41c-0.4-0.62-0.63-1.34-0.69-2.03c-0.07-0.69,0.04-1.33,0.2-1.85c0.17-0.52,0.42-0.91,0.64-1.14
				c0.22-0.23,0.41-0.31,0.52-0.23c0.23,0.17-0.07,0.74-0.26,1.62c-0.09,0.44-0.17,0.97-0.13,1.53c0.03,0.56,0.17,1.15,0.43,1.68
				c0.27,0.53,0.68,1,1.16,1.32c0.48,0.33,1.01,0.52,1.49,0.62c0.47,0.11,0.89,0.12,1.18,0.13C-10.37,12.39-10.21,12.39-10.21,12.39
				z"/>
			<path class="st18" d="M19.61,19.14c0,0,0.13,0.08,0.35,0.21c0.11,0.06,0.24,0.16,0.4,0.24c0.16,0.08,0.34,0.17,0.54,0.27
				c0.2,0.08,0.43,0.17,0.66,0.25c0.12,0.03,0.24,0.06,0.37,0.1c0.06,0.02,0.13,0.03,0.19,0.05c0.06,0.01,0.13,0.02,0.2,0.03
				c0.52,0.1,1.09,0.06,1.59-0.12c0.5-0.18,0.91-0.53,1.21-0.92c0.07-0.1,0.14-0.2,0.21-0.3c0.06-0.11,0.11-0.22,0.17-0.32
				c0.03-0.05,0.06-0.1,0.08-0.15c0.02-0.05,0.04-0.11,0.06-0.16c0.04-0.1,0.08-0.2,0.12-0.3c0.13-0.4,0.24-0.74,0.33-0.98
				c0.09-0.24,0.19-0.38,0.29-0.37c0.1,0.01,0.16,0.16,0.18,0.44c0.03,0.27-0.02,0.66-0.13,1.12c-0.04,0.11-0.08,0.23-0.12,0.35
				c-0.02,0.06-0.04,0.12-0.06,0.19c-0.03,0.06-0.06,0.12-0.09,0.18c-0.06,0.12-0.13,0.25-0.2,0.38c-0.09,0.12-0.18,0.24-0.27,0.37
				c-0.38,0.48-0.95,0.89-1.59,1.06c-0.64,0.18-1.31,0.13-1.87-0.04c-0.07-0.02-0.14-0.04-0.21-0.06c-0.07-0.03-0.13-0.05-0.2-0.08
				c-0.13-0.05-0.25-0.1-0.38-0.16c-0.23-0.12-0.45-0.24-0.65-0.36c-0.19-0.13-0.36-0.25-0.51-0.36c-0.15-0.11-0.26-0.22-0.37-0.3
				C19.72,19.24,19.61,19.14,19.61,19.14z"/>
			<path class="st14" d="M3.13,29.8c0.88-7.87-7.93-11.43-12.92-8.42c0,0,1.72-2.07,6.03-2.07c-3.09-0.9-9.51-0.21-11.09,7.98
				c-0.55,2.82-0.65,3.82-0.65,3.82s-1.67-0.03-2.74,0.23c0,0,8.52,1.23,19.46,9.27c2.85,2.09,1.68-1.39-1.21-3.7
				C0.01,36.9,2.61,34.47,3.13,29.8z"/>
			<path class="st14" d="M6.05,31.19c0.84-7.87,9.93-10.36,14.15-6.35c0,0-1.13-1.67-4.81-2.54c3.88,0,8.95,2.29,8.79,9.79
				c-0.06,2.87-0.54,4.46-0.54,4.46s1.64,0.33,2.63,0.82c0,0-8.58-0.64-21.01,4.85c-3.24,1.43-1.34-1.72,1.98-3.36
				C7.24,38.86,5.55,35.86,6.05,31.19z"/>
			<g>
				<defs>
					<path id="SVGID_1_" d="M8.09,39.6c0,0,7.69-3.68,15.95-2.76c0,0,4.92-13-6.99-14.77C5.14,20.3,2.2,35,8.09,39.6z"/>
				</defs>
				<clipPath id="SVGID_00000129186275507773497310000000649357120446453930_">
					<use xlink:href="#SVGID_1_"  style="overflow:visible;"/>
				</clipPath>
				<g style="clip-path:url(#SVGID_00000129186275507773497310000000649357120446453930_);">
					<path class="st8" d="M16.63,24.11c4.46,0.66,7.49,4.99,6.76,9.67c-0.73,4.68-4.93,7.95-9.4,7.29
						c-4.46-0.66-7.49-4.99-6.76-9.67C7.97,26.72,12.17,23.46,16.63,24.11z"/>
					<g>
						<path class="st20" d="M23.4,33.79c-0.73,4.68-4.93,7.95-9.4,7.29c-4.46-0.66-7.49-4.99-6.76-9.67
							c0.73-4.68,4.93-7.95,9.4-7.29C21.1,24.77,24.12,29.1,23.4,33.79z M20.96,29.63c-2.41-1.77-7.84-2.4-10.55-1.45
							c-4.57,1.59-3.66,11.74,3.76,12.59C21.83,41.64,25.18,32.73,20.96,29.63z"/>
					</g>
					<path class="st12" d="M8.7,27.71c1.76-2.57,4.78-4.06,7.93-3.59c3.16,0.47,5.61,2.78,6.5,5.76c-1.09-0.85-3.1-2.49-6.95-3.06
						C12.41,26.26,10.03,27.22,8.7,27.71z"/>
					<g class="st3">
						<path class="st12" d="M16.19,26.82c-3.78-0.56-6.16,0.4-7.49,0.89c1.76-2.57,4.78-4.06,7.93-3.59
							c3.16,0.47,5.61,2.78,6.5,5.76C22.05,29.02,20.04,27.39,16.19,26.82z M16.82,24.45c-4.23-0.71-6.93,1.84-4.9,1.75
							c2.8-0.13,5.78,0.07,8.09,1.16C22.48,28.54,21.03,25.16,16.82,24.45z"/>
					</g>
					<g>
						<path class="st21" d="M15.51,30.14c1.57,0.23,2.64,1.69,2.4,3.25c-0.24,1.56-1.71,2.64-3.28,2.41
							c-1.57-0.23-2.64-1.69-2.4-3.25C12.47,30.99,13.94,29.91,15.51,30.14z"/>
						<path class="st22" d="M15.44,30.58c1.33,0.2,2.23,1.43,2.03,2.75c-0.2,1.32-1.45,2.24-2.77,2.04
							c-1.33-0.2-2.23-1.43-2.03-2.75C12.87,31.3,14.11,30.39,15.44,30.58z"/>
						<path class="st23" d="M15.32,31.33c0.84,0.12,1.41,0.96,1.26,1.87c-0.14,0.91-0.94,1.54-1.78,1.42
							c-0.84-0.12-1.41-0.96-1.27-1.87C13.69,31.84,14.48,31.21,15.32,31.33z"/>
						<path class="st8" d="M14.46,33.89c-0.08-0.36-0.38-0.66-0.67-0.65c-0.29,0-0.47,0.29-0.39,0.66c0.08,0.36,0.37,0.65,0.67,0.65
							C14.36,34.55,14.54,34.25,14.46,33.89z"/>
						<path class="st8" d="M13.82,32.54c0.04-0.16-0.04-0.3-0.17-0.33c-0.13-0.03-0.27,0.08-0.31,0.23
							c-0.04,0.16,0.04,0.3,0.17,0.33C13.64,32.8,13.78,32.69,13.82,32.54z"/>
					</g>
				</g>
			</g>
			<g>
				<defs>
					<path id="SVGID_00000044137980932623331820000000872358178666663353_" d="M-0.43,38.12c0,0-6.27-4.87-15.01-6.47
						c0,0-1.95-13.44,10.06-12.59C6.62,19.92,6.31,34.9-0.43,38.12z"/>
				</defs>
				<clipPath id="SVGID_00000102518896814028889920000013699492778549167798_">
					<use xlink:href="#SVGID_00000044137980932623331820000000872358178666663353_"  style="overflow:visible;"/>
				</clipPath>
				<g style="clip-path:url(#SVGID_00000102518896814028889920000013699492778549167798_);">
					<path class="st8" d="M-5.42,21.16c-4.5-0.32-8.39,3.25-8.69,7.98c-0.3,4.73,3.1,8.82,7.6,9.15s8.39-3.25,8.69-7.98
						C2.48,25.57-0.93,21.48-5.42,21.16z"/>
					<g>
						<path class="st20" d="M-5.42,21.16c4.5,0.32,7.9,4.42,7.6,9.15c-0.3,4.73-4.2,8.3-8.69,7.98s-7.9-4.42-7.6-9.15
							C-13.81,24.41-9.92,20.84-5.42,21.16z M-6.62,37.95c7.42,0.78,10.51-8.93,6.39-11.48c-2.44-1.51-7.88-2.08-10.62-0.87
							C-15.63,27.72-14.29,37.14-6.62,37.95z"/>
					</g>
					<path class="st12" d="M1.54,26.38c-1.16-2.89-3.79-5-6.97-5.22c-3.19-0.23-6.07,1.5-7.59,4.22c1.25-0.6,3.56-1.76,7.44-1.48
						C-1.76,24.17,0.35,25.62,1.54,26.38z"/>
					<g class="st3">
						<path class="st12" d="M-13.02,25.38c1.52-2.71,4.4-4.45,7.59-4.22c3.18,0.23,5.8,2.34,6.97,5.22
							c-1.2-0.76-3.31-2.21-7.12-2.49C-9.46,23.62-11.77,24.78-13.02,25.38z M-9.42,23.6c2.49-0.57,5.45-0.12,8.15,0.61
							c1.96,0.53-0.12-2.55-4.41-2.77C-9.94,21.23-12.09,24.21-9.42,23.6z"/>
					</g>
					<g>
						<path class="st21" d="M-5.63,27.29c-1.58-0.11-2.94,1.08-3.04,2.66c-0.1,1.58,1.1,2.95,2.68,3.06
							c1.58,0.11,2.94-1.08,3.04-2.66C-2.85,28.77-4.05,27.4-5.63,27.29z"/>
						<path class="st22" d="M-5.66,27.73c-1.34-0.1-2.49,0.91-2.57,2.25c-0.09,1.34,0.93,2.5,2.26,2.59
							c1.34,0.1,2.49-0.91,2.57-2.25C-3.31,28.99-4.32,27.82-5.66,27.73z"/>
						<path class="st23" d="M-5.7,28.49c-0.85-0.06-1.58,0.63-1.64,1.55c-0.06,0.92,0.58,1.71,1.43,1.77
							c0.85,0.06,1.58-0.63,1.64-1.55C-4.22,29.34-4.86,28.55-5.7,28.49z"/>
						<path class="st8" d="M-6.37,31.17c-0.12-0.35-0.46-0.6-0.75-0.56c-0.29,0.04-0.43,0.35-0.3,0.7c0.12,0.35,0.46,0.6,0.75,0.56
							C-6.39,31.84-6.25,31.52-6.37,31.17z"/>
						<path class="st8" d="M-7.18,29.92c0.02-0.16-0.07-0.3-0.21-0.31c-0.14-0.01-0.26,0.11-0.28,0.27
							c-0.02,0.16,0.08,0.3,0.21,0.31C-7.33,30.2-7.2,30.08-7.18,29.92z"/>
					</g>
				</g>
			</g>
			<path class="st0" d="M25.27,37.03c0,0-0.35-0.02-0.97-0.06c-0.31-0.02-0.68-0.04-1.11-0.07c-0.21-0.02-0.44-0.01-0.68-0.01
				c-0.24,0-0.49,0.01-0.75,0.01c-0.26,0-0.54,0.01-0.82,0.01c-0.28,0-0.57,0.04-0.87,0.06c-0.3,0.03-0.61,0.05-0.92,0.08
				c-0.16,0.01-0.32,0.02-0.47,0.04c-0.16,0.02-0.32,0.05-0.48,0.07c-1.3,0.18-2.66,0.44-4,0.81c-0.33,0.09-0.67,0.18-1,0.28
				c-0.33,0.11-0.65,0.22-0.98,0.32c-0.65,0.2-1.27,0.46-1.88,0.68c-0.31,0.11-0.59,0.25-0.88,0.37C9.16,39.76,8.87,39.87,8.6,40
				c-0.54,0.26-1.05,0.48-1.52,0.72c-1.87,0.92-3.04,1.65-3.21,1.43c-0.17-0.21,0.9-1.21,2.78-2.25c0.46-0.27,0.99-0.52,1.54-0.79
				c0.28-0.14,0.57-0.25,0.87-0.38c0.3-0.12,0.6-0.26,0.91-0.37c0.63-0.22,1.28-0.47,1.96-0.65c0.34-0.1,0.68-0.2,1.02-0.29
				c0.35-0.08,0.69-0.16,1.04-0.24c1.39-0.31,2.81-0.5,4.14-0.59c0.17-0.01,0.33-0.03,0.49-0.04c0.16-0.01,0.33-0.01,0.49-0.01
				c0.32,0,0.63-0.01,0.94-0.01c0.31,0,0.6-0.02,0.89,0c0.29,0.02,0.56,0.04,0.83,0.06c0.26,0.02,0.52,0.04,0.76,0.05
				c0.24,0.02,0.47,0.03,0.68,0.07c0.43,0.06,0.8,0.12,1.1,0.17C24.92,36.97,25.27,37.03,25.27,37.03z"/>
			<path class="st0" d="M-16.64,31.51c0,0,1.33,0.1,3.29,0.53c0.98,0.2,2.11,0.51,3.31,0.87c1.19,0.39,2.46,0.84,3.68,1.39
				c0.31,0.14,0.61,0.27,0.92,0.41c0.3,0.15,0.59,0.31,0.89,0.46c0.29,0.15,0.59,0.3,0.87,0.46c0.28,0.17,0.55,0.33,0.83,0.49
				c0.27,0.17,0.54,0.32,0.79,0.49c0.25,0.17,0.49,0.35,0.73,0.51c0.24,0.17,0.47,0.33,0.69,0.49c0.22,0.16,0.41,0.34,0.61,0.5
				C0.35,38.45,0.7,38.74,1,39.03c0.29,0.3,0.53,0.56,0.72,0.79c0.38,0.45,0.55,0.75,0.45,0.85c-0.1,0.1-0.41-0.06-0.88-0.39
				c-0.24-0.17-0.51-0.38-0.82-0.64c-0.32-0.24-0.69-0.5-1.08-0.8c-0.2-0.15-0.39-0.31-0.61-0.46c-0.22-0.15-0.44-0.3-0.68-0.46
				c-0.23-0.16-0.47-0.33-0.71-0.49c-0.24-0.17-0.51-0.32-0.76-0.48c-0.26-0.16-0.52-0.33-0.79-0.5c-0.27-0.17-0.55-0.31-0.83-0.48
				c-0.28-0.16-0.56-0.32-0.85-0.48c-0.29-0.15-0.58-0.3-0.88-0.45c-1.17-0.61-2.38-1.12-3.52-1.59c-1.15-0.44-2.24-0.83-3.2-1.12
				C-15.33,31.75-16.64,31.51-16.64,31.51z"/>
			<path class="st14" d="M-16.73,32.34c0,0,8.86,0.97,17.9,8.76C1.17,41.1-6.92,35.75-16.73,32.34z"/>
			<path class="st14" d="M4.94,42.79c0,0,10.6-5.46,20.25-4.97C25.19,37.82,18.44,38.28,4.94,42.79z"/>
			<path class="st14" d="M-1.03,11.13c0,0,9.62-3.46,15.77,3.34C14.73,14.48,9.6,6.12-1.03,11.13z"/>
			<path class="st14" d="M-14.46,5.87c-1.42,2.84,0.3,7.09,3.8,6.53C-10.67,12.39-14.96,11.05-14.46,5.87z"/>
			<path class="st14" d="M19.61,19.14c0,0,2.44,2.28,4.49,1.05c2.05-1.24,1.99-3.52,1.99-3.52S24.43,21.62,19.61,19.14z"/>
		</g>
	</g>
</symbol>
<use xlink:href="#Gronk"  width="111.77" height="100" x="-55.88" y="-50" transform="matrix(1 0 0 -1 55.8833 50)" style="overflow:visible;"/>
</svg>
