<?xml version="1.0" encoding="utf-8"?>
<!-- Generator: Adobe Illustrator 26.3.1, SVG Export Plug-In . SVG Version: 6.00 Build 0)  -->
<svg version="1.1" id="Layer_1" xmlns="http://www.w3.org/2000/svg" xmlns:xlink="http://www.w3.org/1999/xlink" x="0px" y="0px"
	 viewBox="0 0 118.15 100" style="enable-background:new 0 0 118.15 100;" xml:space="preserve">
<style type="text/css">
	.st0{fill:#5B9B07;}
	.st1{opacity:0.5;}
	.st2{fill:#EAEA59;}
	.st3{opacity:0.5;fill:#5B9B07;}
	.st4{fill:#99B72A;}
	.st5{fill:#DBD74B;}
	.st6{fill:#FFE0B6;}
	.st7{fill:#92CE0F;}
	.st8{opacity:0.7;}
	.st9{fill:#A8C9A6;}
	.st10{fill:#4E7D4B;}
	.st11{fill:#FFFFFF;}
	.st12{fill:#D5D7D8;}
	.st13{fill:#F47D3F;}
	.st14{fill:#FDB845;}
	.st15{fill:#7A3B12;}
	.st16{fill:#EA909A;}
	.st17{fill:#BA4343;}
</style>
<symbol  id="Beevear" viewBox="-59.07 -50 118.15 100">
	<g>
		<path class="st0" d="M23.53,29.17c0,0,1.3,0.07,2.54-0.07c0.8-0.08-0.47,1.83-3.67,2.98c3.39,16.1,23.24,18.65,26.27,16.62
			c2.7-1.81,4.1-25.62-13.67-28.17C33.51,23.52,29.24,27.59,23.53,29.17z"/>
		<g class="st1">
			<path class="st0" d="M26.08,29.11c0.8-0.08-0.47,1.83-3.67,2.98c1.53,7.27,6.91,12.27,11.95,14.7c-5.54-2.99-6.02-8.57-2.97-6.19
				c7.56,5.92,15.48,5.27,15.48,5.27c0.61-8-1.77-12.32-4.73-16.18c-2.96-3.86-1.01-4.87,2.17-3.14c4.2,2.28,5.63,10.45,5.65,10.56
				c-1.09-7.14-5.04-15.15-14.94-16.58c-1.49,2.99-5.77,7.05-11.47,8.64C23.53,29.17,24.84,29.24,26.08,29.11z"/>
		</g>
		<g>
			<path class="st2" d="M31.56,37.87c4.09,6,11.57,7.57,14.78,7.31c0,0,0.89-14.5-14.06-20.67c-0.97,1.1-2.14,2.18-3.51,3.11
				C28.63,29.95,28.9,33.96,31.56,37.87z"/>
		</g>
		<g>
			<path class="st2" d="M28.77,27.62c-0.14,2.33,0.12,6.34,2.79,10.25c1.2,1.76,2.69,3.14,4.29,4.2c3.58-1.17,4.87-8.59-4.21-16.87
				C30.8,26.06,29.85,26.89,28.77,27.62z"/>
		</g>
		<path class="st3" d="M48.43,48.13c0,0-6.87,3.39-16.34-3.91C32.09,44.22,40.26,48.41,48.43,48.13z"/>
	</g>
	<g>
		<g>
			<path class="st0" d="M-3.01-31.96c0.57-4.42,0.48-8.69-1.58-9.04c-4.21-0.72-6.13,3.39-6.13,3.39c-1.37-3.85-7.57-3.85-6.26-2.44
				c1.3,1.41,1.3,2.83,1.3,2.83c-3.98-4.17-7.07-2.74-6.07-1.89c3.1,2.63,3.02,7.77,3.26,9.99c0.46,3.68,1.65,9.95,7.89,9.91
				C-4.39-19.26-3.3-27.17-3.01-31.96z"/>
			<g class="st1">
				<path class="st0" d="M-3.01-31.96c-0.29,4.8-1.38,12.71-7.58,12.74c-6.24,0.04-7.44-6.23-7.89-9.91
					c-0.24-2.22-0.16-7.36-3.26-9.99c-1-0.85,2.09-2.28,6.07,1.89c0,0,0-1.43-1.3-2.83c-1.3-1.41,4.89-1.41,6.26,2.44
					c0,0,1.92-4.11,6.13-3.39C-2.53-40.65-2.44-36.38-3.01-31.96z M-6.7-39.71c-2.83,0.55-3.83,5.19-3.83,5.19
					c-1.04-4.54-6.6-6.03-5.52-4.74c1.38,1.66,1.22,4.96,1.22,4.96c-0.78-2.48-4.36-4.83-5.32-4.22c-0.96,0.61,2.19,2.13,2.14,7.65
					c2.66-1.1,4.78-1.09,4.09-0.17c-0.7,0.91-1.17,1.83,0.83,0.26c2-1.57,6.44-2.87,6.09-2c-0.35,0.87-0.61,1.91,0.61,0.3
					C-5.18-34.09-3.87-40.27-6.7-39.71z"/>
			</g>
		</g>
		<g>
			<g>
				<path class="st2" d="M-4.38-40.95c-0.07-0.02-0.14-0.04-0.21-0.05c-4.21-0.72-6.13,3.39-6.13,3.39
					c-1.37-3.85-7.57-3.85-6.26-2.44c1.3,1.41,1.3,2.83,1.3,2.83c-2.58-2.71-4.79-3.05-5.75-2.73c-0.47-0.25-1.2-0.49-2.28-0.49
					c-2.26,0-4.22-0.43-4.48-4.22s2.09-4.22,4.44-3.44c0,0,0.43-1.09,2.61-1.13c2.17-0.04,2.74,0.61,2.74,0.61s0.3-1.78,6.52-1.3
					s8.26,1.4,8.57,5.44C-3.17-42.68-3.72-41.6-4.38-40.95z"/>
				<path class="st4" d="M-10.26-43.61c0,0-0.18,0.08-0.52,0.2c-0.33,0.12-0.81,0.28-1.41,0.42c-0.59,0.14-1.3,0.27-2.07,0.29
					c-0.19,0.01-0.39-0.01-0.59-0.01c-0.2-0.02-0.4-0.03-0.6-0.08c-0.4-0.06-0.82-0.21-1.18-0.44c-0.72-0.46-1.26-1.15-1.62-1.84
					c-0.36-0.7-0.55-1.42-0.59-2.06c-0.04-0.64,0.11-1.18,0.3-1.51c0.2-0.33,0.39-0.44,0.43-0.4c0.05,0.05-0.06,0.22-0.17,0.53
					c-0.11,0.31-0.19,0.78-0.13,1.35c0.05,0.57,0.23,1.24,0.56,1.89c0.32,0.65,0.8,1.29,1.43,1.72c0.32,0.22,0.66,0.36,1.04,0.44
					c0.18,0.05,0.38,0.07,0.56,0.1c0.19,0.01,0.38,0.04,0.56,0.04c0.74,0.02,1.44-0.06,2.04-0.16c0.59-0.1,1.08-0.22,1.42-0.32
					C-10.46-43.54-10.26-43.61-10.26-43.61z"/>
				<path class="st4" d="M-16.83-42.05c0,0-0.74,0.2-1.89,0.29c-0.14,0.01-0.29,0.02-0.45,0.03c-0.16,0-0.32,0-0.48,0
					c-0.33,0.01-0.68-0.03-1.04-0.05c-0.18-0.01-0.36-0.05-0.55-0.08c-0.18-0.04-0.37-0.07-0.56-0.11l-0.28-0.1l-0.14-0.05
					l-0.13-0.08l-0.26-0.15c-0.08-0.06-0.16-0.13-0.24-0.19c-0.63-0.52-1.03-1.24-1.27-1.94c-0.24-0.71-0.32-1.41-0.28-2.01
					c0.05-0.6,0.21-1.1,0.42-1.39c0.08-0.16,0.2-0.25,0.27-0.31c0.07-0.06,0.12-0.08,0.15-0.06c0.02,0.02,0.02,0.08-0.01,0.16
					c-0.03,0.09-0.1,0.19-0.14,0.34c-0.13,0.29-0.23,0.73-0.25,1.27c-0.02,0.54,0.06,1.19,0.27,1.84c0.21,0.65,0.56,1.32,1.1,1.8
					c0.07,0.06,0.13,0.12,0.2,0.18l0.22,0.14l0.11,0.07l0.12,0.05l0.24,0.1c0.18,0.05,0.35,0.09,0.53,0.13
					c0.18,0.04,0.35,0.09,0.52,0.11c0.35,0.05,0.69,0.11,1.01,0.12c0.16,0.01,0.32,0.02,0.47,0.03c0.15,0,0.3,0,0.44,0
					C-17.59-41.92-16.83-42.05-16.83-42.05z"/>
				<g>
					<path class="st5" d="M-4.38-40.95c-0.07-0.02-0.14-0.04-0.21-0.05c-4.21-0.72-6.13,3.39-6.13,3.39
						c-1.37-3.85-7.57-3.85-6.26-2.44c1.3,1.41,1.3,2.83,1.3,2.83c-2.58-2.71-4.79-3.05-5.75-2.73c-0.47-0.25-1.2-0.49-2.28-0.49
						c-2.26,0-4.22-0.43-4.48-4.22s2.09-4.22,4.44-3.44c0,0,0.43-1.09,2.61-1.13c2.17-0.04,2.74,0.61,2.74,0.61s0.3-1.78,6.52-1.3
						s8.26,1.4,8.57,5.44C-3.17-42.68-3.72-41.6-4.38-40.95z M-15.09-49.05c-4.08,0.42-3.52,2.05-3.39,2.63c0,0-0.54-1.7-3.45-1.43
						c-2.56,0.23-2.28,1.9-2.18,2.3c-0.12-0.36-0.71-1.77-2.66-1.31c-1.66,0.39-1.39,2.5-1.06,3.69c1.21,4.3,7.2,2.57,4.78,0.25
						c0,0,1.76,1.53,4.47,0.94c2.28-0.5,2.28-1.08,1.3-2.08c0,0,2.32,2.28,7.17,0C-5.24-46.35-11.52-49.42-15.09-49.05z"/>
				</g>
			</g>
			<path class="st6" d="M-27.81-45.66c0,0-0.52,2.05,0.83,3.78c1.19,1.53,3.04,1.07,3.04,1.07S-27.57-40.79-27.81-45.66z"/>
			<path class="st6" d="M-23.59-47.03c0,0-0.52,2.05,0.83,3.78c1.19,1.53,3.04,1.07,3.04,1.07S-23.35-42.16-23.59-47.03z"/>
			<path class="st6" d="M-17.9-48.11c0,0-0.52,2.05,0.83,3.78c1.19,1.53,3.04,1.07,3.04,1.07S-17.66-43.24-17.9-48.11z"/>
		</g>
	</g>
	<g>
		<g>
			<path class="st0" d="M-28.38,19.11c-2.86,3.46-15-0.63-22.44-13.16c-7.44-12.52-7.55-27.89-5.44-27.92
				c1.3-0.02,1.48,4.52,1.48,4.52s-0.09-4.96,1.48-5.22c1.57-0.26,1.83,4.87,1.83,4.87s-0.09-4.8,1.39-4.88
				c1.48-0.08,1.57,4.36,1.57,4.36s-0.22-4.51,1.61-4.5c1.83,0.01,2.55,2.48,4.49,9.78c1.94,7.31,4.42,12.39,9.25,16.96
				C-28.34,8.5-25.25,15.33-28.38,19.11z"/>
			<path class="st2" d="M-56.42-21.92c0.05-0.02,0.11-0.04,0.17-0.04c1.3-0.02,1.48,4.52,1.48,4.52s-0.09-4.96,1.48-5.22
				c1.57-0.26,1.83,4.87,1.83,4.87s-0.09-4.8,1.39-4.88c1.32-0.07,1.53,3.48,1.56,4.22c-0.02-0.75-0.02-4.37,1.61-4.36
				c0.37,0,0.63,0.11,0.81,0.33c1.06-0.1,3.08-0.49,4.14-1.92c2.26-3.04,0.68-6.86-1.52-4.83c-2.3,2.13-3.83,1.33-4.57-0.57
				c-0.74-1.91,1.04-4.43-0.87-5.17c-1.91-0.74-3.04,1.48-3.04,1.48s-0.57-1.96-3.52,0.78c0,0-1.35-0.57-2.87,2.09
				C-59.79-28.08-59.06-24.13-56.42-21.92z"/>
			<g>
				<path class="st4" d="M-50.95-26.52c0,0-0.12-0.08-0.31-0.24c-0.19-0.17-0.44-0.43-0.68-0.79c-0.24-0.36-0.48-0.82-0.63-1.34
					c-0.16-0.53-0.23-1.11-0.24-1.69c-0.03-1.17,0.26-2.36,0.75-3.11c0.24-0.38,0.5-0.66,0.72-0.81c0.21-0.15,0.36-0.2,0.4-0.15
					c0.08,0.11-0.36,0.46-0.74,1.17c-0.4,0.7-0.71,1.78-0.74,2.9c-0.02,0.56,0.01,1.12,0.12,1.62c0.11,0.51,0.29,0.97,0.5,1.33
					c0.2,0.37,0.42,0.65,0.59,0.83C-51.06-26.61-50.95-26.52-50.95-26.52z"/>
				<path class="st4" d="M-54.53-26c0,0-0.11-0.08-0.3-0.24c-0.18-0.16-0.43-0.4-0.69-0.74c-0.26-0.33-0.52-0.75-0.71-1.25
					c-0.2-0.49-0.3-1.07-0.3-1.64c-0.01-0.14,0-0.28,0.01-0.43c0.01-0.14,0.01-0.28,0.04-0.42c0.05-0.28,0.09-0.56,0.2-0.81
					c0.16-0.52,0.46-0.95,0.74-1.28c0.3-0.31,0.57-0.55,0.8-0.66c0.22-0.12,0.35-0.17,0.39-0.12c0.04,0.05-0.04,0.18-0.21,0.35
					c-0.17,0.16-0.39,0.41-0.65,0.71c-0.49,0.61-0.92,1.59-0.92,2.67c-0.03,0.54,0.03,1.06,0.17,1.55c0.14,0.48,0.35,0.91,0.57,1.25
					c0.22,0.35,0.44,0.61,0.6,0.79C-54.64-26.09-54.53-26-54.53-26z"/>
			</g>
		</g>
		<g class="st1">
			<path class="st0" d="M-28.38,19.11c-2.25,2.72-10.26,0.76-17.19-6.31c5.44,5.14,5.69,1.41,3.43-5.84
				c-1.97-6.35-3.08-9.37-1.19-8.22c1.89,1.15-0.81-4.5-2.07-12.53c-1.09-6.96-1.4-7.53-2.13-7.48c-0.73,0.05-0.67,3.83-0.56,6.35
				c0,0-0.65-5.43-1.87-5.13c-1.22,0.3-1.12,4.3-0.98,5.65c0,0-1.07-5.25-2.11-4.82c-1.04,0.43-1.66,2.85-1.1,5.83
				c-0.07-0.39-0.76-4.33-1.99-3.79c-1.29,0.57-0.94,6.67,0.74,12.54c-2.75-9.22-2.39-17.3-0.86-17.32c1.3-0.02,1.48,4.52,1.48,4.52
				s-0.09-4.96,1.48-5.22c1.57-0.26,1.83,4.87,1.83,4.87s-0.09-4.8,1.39-4.88c1.32-0.07,1.53,3.48,1.56,4.22
				c-0.02-0.75-0.02-4.37,1.61-4.36c1.83,0.01,2.55,2.48,4.49,9.78c1.94,7.31,4.42,12.39,9.25,16.96
				C-28.34,8.5-25.25,15.33-28.38,19.11z"/>
		</g>
		<path class="st3" d="M-56.18-11.78c0,0,0.72,15.26,11.74,25.15C-44.44,13.36-51.94,2.89-56.18-11.78z"/>
		<g>
			<path class="st5" d="M-41.95-24.39c-0.42,0.56-0.99,0.96-1.59,1.25l0,0c2-1.02,3.05-4.42,1.57-5.34
				c-1.48-0.91-2.3,1.91-4.65,1.96c-2.35,0.04-2.52-2.78-2.44-4.78c0.09-2-1.96-1.96-2.83-0.13c-0.87,1.83,0.34,4.4,0.34,4.4
				s-1.32-0.96-1.47-3.27c-0.16-2.3-2.03-2.43-2.74-0.29c-0.71,2.14,0.73,4.08,0.73,4.08c-1.79-1.48-1.42-4.41-2.68-4.08
				c-1.13,0.3-1.34,2.36-1.37,2.78c0.02-1.01,0.26-1.97,0.73-2.79c1.52-2.65,2.87-2.09,2.87-2.09c2.96-2.74,3.52-0.78,3.52-0.78
				s1.13-2.22,3.04-1.48c1.91,0.74,0.13,3.26,0.87,5.17c0.74,1.91,2.26,2.7,4.57,0.57C-41.26-31.26-39.69-27.44-41.95-24.39z"/>
		</g>
		<path class="st6" d="M-58.27-29.81c0,0-1.87,3.28,1.39,7C-56.88-22.81-58.8-26.27-58.27-29.81z"/>
		<path class="st6" d="M-54.91-31.67c0,0-2.35,2.4,0.56,5.66C-54.36-26-56.09-28.83-54.91-31.67z"/>
		<path class="st6" d="M-50.77-32.42c0,0-2.94,2.4-0.03,5.66C-50.8-26.75-52.4-29.58-50.77-32.42z"/>
	</g>
	<g>
		<g>
			<path class="st0" d="M3.01-31.96C2.44-36.38,2.53-40.65,4.59-41c4.21-0.72,6.13,3.39,6.13,3.39c1.37-3.85,7.57-3.85,6.26-2.44
				c-1.3,1.41-1.3,2.83-1.3,2.83c3.98-4.17,7.07-2.74,6.07-1.89c-3.1,2.63-3.02,7.77-3.26,9.99c-0.46,3.68-1.65,9.95-7.89,9.91
				C4.39-19.26,3.3-27.17,3.01-31.96z"/>
			<g class="st1">
				<path class="st0" d="M4.59-41c4.21-0.72,6.13,3.39,6.13,3.39c1.37-3.85,7.57-3.85,6.26-2.44c-1.3,1.41-1.3,2.83-1.3,2.83
					c3.98-4.17,7.07-2.74,6.07-1.89c-3.1,2.63-3.02,7.77-3.26,9.99c-0.46,3.68-1.65,9.95-7.89,9.91c-6.2-0.04-7.29-7.95-7.58-12.74
					C2.44-36.38,2.53-40.65,4.59-41z M6.39-32.48c1.22,1.61,0.96,0.57,0.61-0.3c-0.35-0.87,4.09,0.43,6.09,2
					c2,1.57,1.52,0.65,0.83-0.26c-0.7-0.91,1.43-0.93,4.09,0.17c-0.04-5.52,3.1-7.04,2.14-7.65c-0.96-0.61-4.54,1.74-5.32,4.22
					c0,0-0.16-3.3,1.22-4.96c1.07-1.29-4.48,0.2-5.52,4.74c0,0-1-4.63-3.83-5.19C3.87-40.27,5.18-34.09,6.39-32.48z"/>
			</g>
		</g>
		<g>
			<g>
				<path class="st2" d="M4.38-40.95c0.07-0.02,0.14-0.04,0.21-0.05c4.21-0.72,6.13,3.39,6.13,3.39c1.37-3.85,7.57-3.85,6.26-2.44
					c-1.3,1.41-1.3,2.83-1.3,2.83c2.58-2.71,4.79-3.05,5.75-2.73c0.47-0.25,1.2-0.49,2.28-0.49c2.26,0,4.22-0.43,4.48-4.22
					s-2.09-4.22-4.44-3.44c0,0-0.43-1.09-2.61-1.13c-2.17-0.04-2.74,0.61-2.74,0.61s-0.3-1.78-6.52-1.3s-8.26,1.4-8.57,5.44
					C3.17-42.68,3.72-41.6,4.38-40.95z"/>
				<path class="st4" d="M10.26-43.61c0,0,0.19,0.08,0.52,0.2c0.33,0.12,0.81,0.28,1.41,0.42c0.59,0.14,1.3,0.27,2.07,0.29
					c0.19,0.01,0.39-0.01,0.59-0.01c0.2-0.02,0.4-0.03,0.6-0.08c0.4-0.06,0.82-0.21,1.18-0.44c0.72-0.46,1.26-1.15,1.62-1.84
					c0.36-0.7,0.55-1.42,0.59-2.06c0.04-0.64-0.11-1.18-0.3-1.51c-0.2-0.33-0.39-0.44-0.43-0.4c-0.05,0.05,0.06,0.22,0.17,0.53
					c0.11,0.31,0.19,0.78,0.13,1.35c-0.05,0.57-0.23,1.24-0.56,1.89c-0.32,0.65-0.8,1.29-1.43,1.72c-0.32,0.22-0.66,0.36-1.04,0.44
					c-0.18,0.05-0.38,0.07-0.56,0.1c-0.19,0.01-0.38,0.04-0.56,0.04c-0.74,0.02-1.44-0.06-2.04-0.16c-0.59-0.1-1.08-0.22-1.42-0.32
					C10.46-43.54,10.26-43.61,10.26-43.61z"/>
				<path class="st4" d="M16.83-42.05c0,0,0.74,0.2,1.89,0.29c0.14,0.01,0.29,0.02,0.45,0.03c0.16,0,0.32,0,0.48,0
					c0.33,0.01,0.68-0.03,1.04-0.05c0.18-0.01,0.36-0.05,0.55-0.08c0.18-0.04,0.37-0.07,0.56-0.11l0.28-0.1l0.14-0.05l0.13-0.08
					l0.26-0.15c0.08-0.06,0.16-0.13,0.24-0.19c0.63-0.52,1.03-1.24,1.27-1.94c0.24-0.71,0.32-1.41,0.28-2.01
					c-0.05-0.6-0.21-1.1-0.42-1.39c-0.08-0.16-0.2-0.25-0.27-0.31c-0.08-0.06-0.12-0.08-0.15-0.06c-0.02,0.02-0.02,0.08,0.01,0.16
					c0.03,0.09,0.1,0.19,0.14,0.34c0.13,0.29,0.23,0.73,0.25,1.27c0.02,0.54-0.06,1.19-0.27,1.84c-0.21,0.65-0.56,1.32-1.1,1.8
					c-0.07,0.06-0.13,0.12-0.2,0.18l-0.22,0.14l-0.11,0.07l-0.12,0.05l-0.24,0.1c-0.18,0.05-0.35,0.09-0.53,0.13
					c-0.18,0.04-0.35,0.09-0.52,0.11c-0.35,0.05-0.69,0.11-1.01,0.12c-0.16,0.01-0.32,0.02-0.47,0.03c-0.15,0-0.3,0-0.44,0
					C17.59-41.92,16.83-42.05,16.83-42.05z"/>
				<g>
					<path class="st5" d="M3.31-44.48c0.3-4.04,2.35-4.96,8.57-5.44s6.52,1.3,6.52,1.3s0.57-0.65,2.74-0.61
						c2.17,0.04,2.61,1.13,2.61,1.13c2.35-0.78,4.7-0.35,4.44,3.44s-2.22,4.22-4.48,4.22c-1.08,0-1.81,0.24-2.28,0.49
						c-0.96-0.32-3.16,0.02-5.75,2.73c0,0,0-1.43,1.3-2.83c1.3-1.41-4.89-1.41-6.26,2.44c0,0-1.92-4.11-6.13-3.39
						c-0.07,0.01-0.14,0.03-0.21,0.05C3.72-41.6,3.17-42.68,3.31-44.48z M10.1-44.07c4.86,2.28,7.17,0,7.17,0
						c-0.97,1-0.98,1.59,1.3,2.08c2.71,0.59,4.47-0.94,4.47-0.94c-2.42,2.32,3.58,4.05,4.78-0.25c0.33-1.19,0.61-3.3-1.06-3.69
						c-1.95-0.46-2.54,0.95-2.66,1.31c0.1-0.39,0.38-2.07-2.18-2.3c-2.91-0.26-3.45,1.43-3.45,1.43c0.13-0.59,0.68-2.22-3.39-2.63
						C11.52-49.42,5.24-46.35,10.1-44.07z"/>
				</g>
			</g>
			<path class="st6" d="M27.81-45.66c0,0,0.52,2.05-0.83,3.78c-1.19,1.53-3.04,1.07-3.04,1.07S27.57-40.79,27.81-45.66z"/>
			<path class="st6" d="M23.59-47.03c0,0,0.52,2.05-0.83,3.78c-1.19,1.53-3.04,1.07-3.04,1.07S23.35-42.16,23.59-47.03z"/>
			<path class="st6" d="M17.9-48.11c0,0,0.52,2.05-0.83,3.78c-1.19,1.53-3.04,1.07-3.04,1.07S17.66-43.24,17.9-48.11z"/>
		</g>
	</g>
	<g>
		<g>
			<path class="st0" d="M28.38,19.11c2.86,3.46,15-0.63,22.44-13.16c7.44-12.52,7.55-27.89,5.44-27.92
				c-1.3-0.02-1.48,4.52-1.48,4.52s0.09-4.96-1.48-5.22c-1.57-0.26-1.83,4.87-1.83,4.87s0.09-4.8-1.39-4.88
				c-1.48-0.08-1.57,4.36-1.57,4.36s0.22-4.51-1.61-4.5c-1.83,0.01-2.55,2.48-4.49,9.78c-1.94,7.31-4.42,12.39-9.24,16.96
				S25.25,15.33,28.38,19.11z"/>
			<path class="st2" d="M56.42-21.92c-0.06-0.02-0.11-0.04-0.17-0.04c-1.3-0.02-1.48,4.52-1.48,4.52s0.09-4.96-1.48-5.22
				c-1.57-0.26-1.83,4.87-1.83,4.87s0.09-4.8-1.39-4.88c-1.32-0.07-1.53,3.48-1.56,4.22c0.02-0.75,0.02-4.37-1.61-4.36
				c-0.37,0-0.63,0.11-0.81,0.33c-1.06-0.1-3.08-0.49-4.14-1.92c-2.26-3.04-0.68-6.86,1.52-4.83c2.3,2.13,3.83,1.33,4.57-0.57
				s-1.04-4.43,0.87-5.17c1.91-0.74,3.04,1.48,3.04,1.48s0.57-1.96,3.52,0.78c0,0,1.35-0.57,2.87,2.09
				C59.79-28.08,59.06-24.13,56.42-21.92z"/>
			<g>
				<path class="st4" d="M50.95-26.52c0,0,0.12-0.08,0.31-0.24c0.19-0.17,0.44-0.43,0.68-0.79c0.24-0.36,0.48-0.82,0.63-1.34
					c0.16-0.53,0.22-1.11,0.24-1.69c0.03-1.17-0.26-2.36-0.75-3.11c-0.24-0.38-0.5-0.66-0.72-0.81c-0.21-0.15-0.36-0.2-0.4-0.15
					c-0.08,0.11,0.36,0.46,0.74,1.17c0.4,0.7,0.71,1.78,0.74,2.9c0.02,0.56-0.01,1.12-0.12,1.62c-0.11,0.51-0.29,0.97-0.49,1.33
					c-0.2,0.37-0.42,0.65-0.59,0.83C51.06-26.61,50.95-26.52,50.95-26.52z"/>
				<path class="st4" d="M54.53-26c0,0,0.11-0.08,0.3-0.24c0.18-0.16,0.43-0.4,0.69-0.74c0.26-0.33,0.52-0.75,0.71-1.25
					c0.2-0.49,0.3-1.07,0.3-1.64c0.01-0.14,0-0.28-0.01-0.43c-0.01-0.14-0.01-0.28-0.04-0.42c-0.05-0.28-0.09-0.56-0.2-0.81
					c-0.16-0.52-0.46-0.95-0.74-1.28c-0.3-0.31-0.57-0.55-0.8-0.66c-0.22-0.12-0.35-0.17-0.39-0.12c-0.04,0.05,0.04,0.18,0.21,0.35
					c0.17,0.16,0.39,0.41,0.65,0.71c0.49,0.61,0.92,1.59,0.92,2.67c0.03,0.54-0.03,1.06-0.17,1.55c-0.14,0.48-0.35,0.91-0.57,1.25
					c-0.22,0.35-0.44,0.61-0.6,0.79C54.64-26.09,54.53-26,54.53-26z"/>
			</g>
		</g>
		<g class="st1">
			<path class="st0" d="M28.38,19.11c2.25,2.72,10.26,0.76,17.19-6.31c-5.44,5.14-5.69,1.41-3.43-5.84
				c1.97-6.35,3.08-9.37,1.19-8.22c-1.89,1.15,0.81-4.5,2.07-12.53c1.09-6.96,1.4-7.53,2.13-7.48c0.73,0.05,0.67,3.83,0.56,6.35
				c0,0,0.65-5.43,1.87-5.13c1.22,0.3,1.12,4.3,0.98,5.65c0,0,1.07-5.25,2.11-4.82c1.04,0.43,1.65,2.85,1.1,5.83
				c0.07-0.39,0.76-4.33,1.99-3.79c1.29,0.57,0.94,6.67-0.74,12.54c2.75-9.22,2.39-17.3,0.86-17.32c-1.3-0.02-1.48,4.52-1.48,4.52
				s0.09-4.96-1.48-5.22c-1.57-0.26-1.83,4.87-1.83,4.87s0.09-4.8-1.39-4.88c-1.32-0.07-1.53,3.48-1.56,4.22
				c0.02-0.75,0.02-4.37-1.61-4.36c-1.83,0.01-2.55,2.48-4.49,9.78c-1.94,7.31-4.42,12.39-9.24,16.96S25.25,15.33,28.38,19.11z"/>
		</g>
		<path class="st3" d="M56.18-11.78c0,0-0.72,15.26-11.74,25.15C44.44,13.36,51.94,2.89,56.18-11.78z"/>
		<g>
			<path class="st5" d="M41.95-24.39c0.42,0.56,0.99,0.96,1.59,1.25l0,0c-2-1.02-3.05-4.42-1.57-5.34c1.48-0.91,2.3,1.91,4.65,1.96
				c2.35,0.04,2.52-2.78,2.44-4.78c-0.09-2,1.96-1.96,2.83-0.13c0.87,1.83-0.34,4.4-0.34,4.4s1.32-0.96,1.47-3.27
				c0.16-2.3,2.03-2.43,2.74-0.29c0.71,2.14-0.73,4.08-0.73,4.08c1.79-1.48,1.42-4.41,2.68-4.08c1.13,0.3,1.34,2.36,1.37,2.78
				c-0.02-1.01-0.26-1.97-0.73-2.79c-1.52-2.65-2.87-2.09-2.87-2.09c-2.96-2.74-3.52-0.78-3.52-0.78s-1.13-2.22-3.04-1.48
				c-1.91,0.74-0.13,3.26-0.87,5.17s-2.26,2.7-4.57,0.57C41.26-31.26,39.69-27.44,41.95-24.39z"/>
		</g>
		<path class="st6" d="M58.27-29.81c0,0,1.87,3.28-1.39,7C56.88-22.81,58.8-26.27,58.27-29.81z"/>
		<path class="st6" d="M54.91-31.67c0,0,2.35,2.4-0.56,5.66C54.36-26,56.09-28.83,54.91-31.67z"/>
		<path class="st6" d="M50.77-32.42c0,0,2.94,2.4,0.03,5.66C50.8-26.75,52.4-29.58,50.77-32.42z"/>
	</g>
	<g>
		<path class="st0" d="M-22.54,30.41c0,0-1.3,0.07-2.54-0.07c-0.8-0.08,0.47,1.83,3.67,2.98c-3.39,16.1-22.63,18.04-25.66,16
			c-2.7-1.81-4.1-25.62,13.67-28.17C-31.91,24.15-28.24,28.83-22.54,30.41z"/>
		<g class="st1">
			<path class="st0" d="M-25.08,30.35c-0.8-0.08,0.47,1.83,3.67,2.98c-1.53,7.27-6.3,11.66-11.34,14.09
				c5.54-2.99,6.02-8.57,2.97-6.19c-7.56,5.92-15.48,5.27-15.48,5.27c-0.61-8,1.77-12.32,4.73-16.18c2.96-3.86,1.01-4.87-2.17-3.14
				c-4.2,2.28-5.63,10.45-5.65,10.56c1.09-7.14,5.04-15.15,14.94-16.58c1.49,2.99,5.16,7.67,10.86,9.25
				C-22.54,30.41-23.84,30.48-25.08,30.35z"/>
		</g>
		<g>
			<path class="st2" d="M-29.95,38.5c-4.09,6-11.57,7.57-14.78,7.31c0,0-0.89-14.5,14.06-20.67c0.97,1.1,2.14,2.18,3.51,3.11
				C-27.03,30.58-27.29,34.59-29.95,38.5z"/>
		</g>
		<g>
			<path class="st2" d="M-27.17,28.25c0.14,2.33-0.12,6.34-2.79,10.25c-1.2,1.76-2.69,3.14-4.29,4.2
				c-3.58-1.17-4.87-8.59,4.21-16.87C-29.2,26.69-28.24,27.52-27.17,28.25z"/>
		</g>
		<path class="st3" d="M-46.82,48.76c0,0,6.87,3.39,16.34-3.91C-30.48,44.85-38.65,49.04-46.82,48.76z"/>
	</g>
	<path class="st7" d="M-4.05,43.44c0,0,0.18,4.76,3.91,5.91c1.13,0.35,0.17-1.74,0-4.61c0,0,3.63,4.31,10.64,3.41
		c1.53-0.2-3.07-4.02-3.07-4.02c3.22,1.78,9.52,1.06,10.22,0.04c0.48-0.7-3.78-1.52-3.78-1.52s11.12,0.83,19.05-10.7
		c5.62-8.18,7.53-20.46,7.39-25.57c-0.09-3.13-1.04-1.48-2.78,0c0,0,5.95-5.55,2.79-14.87c-0.81-2.39-1.07,1.07-2.25,3.67
		c0,0,1.79-5.36-1.2-9.76c-0.83-1.22,0.09,3.17-1.61,5.96c0,0,1.24-4.94-3.46-11.59c-4.7-6.65-9.41-7.96-8.48-6.26
		c1.57,2.87,1.24,4.7,1.24,4.7s-1.7-4.45-5.48-6.54c-2.04-1.13-1.22,0.61-1.22,0.61s-1.57-2.24-5.78-3.39
		c-1.43-0.39-0.09,1.22,0.3,3.52c0,0-1.52-3.78-6.67-4.3c-5.15-0.52-9.07,4.57-9.07,4.57s1.11-1.96,3-4.04
		c1.89-2.09-6.59-0.72-10.57,4.5c0,0,0.65-1.46,2.78-4.11C-6-33.61-13-31.83-18.22-25.44c0,0,0.87-1.57,2.61-3.96
		c1.74-2.39-5.22-2.13-11.04,7.65c0,0,0.33-1.37,0.96-3.65c0.48-1.74-4.09,1.3-4.61,6.57c0,0-0.11-3.2,0.28-6.07
		c0.39-2.87-8.81,1.5-7.7,19.96c0,0-0.65-1.11-1.17-3.85c-0.52-2.74-3.07,4.76,0,11.48c0,0-1.13-1.83-2.67-2.28
		c-1.11-0.33-0.31,1.26,0,2.02c1.24,3.07,3,21.2,9,25.11c0,0-1.04,0.34-2.94-0.78c-1.76-1.04,2.15,9.29,11.22,11.81
		c0,0-1.3,0.07-2.54-0.07c-1.24-0.13,2.51,4.59,10.76,3.72c1.24-0.13-0.2,1.11-1.76,1.43c-1.57,0.33,2.67,2.87,8.74,0.33
		c0,0-0.78,1.37-2.02,2.22C-12.35,47.05-7.22,48.24-4.05,43.44z"/>
	<g class="st8">
		<path class="st7" d="M37.52,6.39c1.74-1.48,2.7-3.13,2.78,0c0.14,5.11-1.77,17.39-7.39,25.57c-7.93,11.53-19.05,10.7-19.05,10.7
			s4.26,0.83,3.78,1.52c-0.7,1.02-7,1.74-10.22-0.04c0,0,4.61,3.83,3.07,4.02c-7.01,0.9-10.64-3.41-10.64-3.41
			c0.17,2.87,1.13,4.96,0,4.61c-3.73-1.15-3.91-5.91-3.91-5.91c-3.17,4.8-8.31,3.61-7.07,2.76c1.24-0.85,2.02-2.22,2.02-2.22
			c-6.07,2.54-10.31,0-8.74-0.33c1.57-0.33,3-1.57,1.76-1.43c-8.25,0.87-12-3.85-10.76-3.72c1.24,0.13,2.54,0.07,2.54,0.07
			c-9.07-2.52-12.98-12.85-11.22-11.81c1.9,1.13,2.94,0.78,2.94,0.78c-6-3.91-7.76-22.05-9-25.11c-0.31-0.76-1.11-2.35,0-2.02
			c1.55,0.45,2.67,2.28,2.67,2.28c-3.07-6.72-0.52-14.22,0-11.48c0.52,2.74,1.17,3.85,1.17,3.85c-1.11-18.46,8.09-22.83,7.7-19.96
			c-0.39,2.87-0.28,6.07-0.28,6.07c0.52-5.26,5.09-8.31,4.61-6.57c-0.63,2.28-0.96,3.65-0.96,3.65c5.83-9.78,12.78-10.04,11.04-7.65
			c-1.74,2.39-2.61,3.96-2.61,3.96C-13-31.83-6-33.61-8.13-30.96c-2.13,2.65-2.78,4.11-2.78,4.11c3.98-5.22,12.46-6.59,10.57-4.5
			c-1.89,2.09-3,4.04-3,4.04s3.91-5.09,9.07-4.57c5.15,0.52,6.67,4.3,6.67,4.3c-0.39-2.3-1.74-3.91-0.3-3.52
			c4.21,1.15,5.78,3.39,5.78,3.39s-0.83-1.74,1.22-0.61c3.78,2.09,5.48,6.54,5.48,6.54s0.33-1.83-1.24-4.7
			c-0.93-1.7,3.78-0.39,8.48,6.26c4.7,6.65,3.46,11.59,3.46,11.59c1.7-2.78,0.78-7.17,1.61-5.96c2.99,4.4,1.2,9.76,1.2,9.76
			c1.17-2.61,1.43-6.07,2.25-3.67C43.48,0.84,37.52,6.39,37.52,6.39z M37.35-1.27c-0.97-0.52-2.6,2.73-2.6,2.73
			c1.23-4.99,0.19-7.19-0.98-7.32c-1.17-0.13-1.5,2.72-1.5,2.72c0.22-13.23-5.35-17.76-6.59-17.5c-1.24,0.26-0.84,3.84-0.84,3.84
			c-1.43-4.97-4.57-8.25-5.57-8.08c-1,0.17,0,2.89,0,2.89c-1.13-2.85-3.55-5.4-5.15-5.31c-1.6,0.09-0.35,3.8-0.35,3.8
			s-2.07-6.11-9.49-5.82c-5.54,0.21-9.2,4.36-9.2,4.36s2.64-5.31-1.13-4.2c-3.77,1.11-6.58,5.24-6.58,5.24
			c1.82-4.06,2.47-6.26-1.39-3.45c-3.86,2.81-5.84,5.62-5.84,5.62c1.48-4.02,1.4-6-2.24-3.24c-3.64,2.76-5.17,6.28-5.17,6.28
			c0.87-4.19-0.65-3.71-1.99-1.07c-0.86,1.69-1.49,5.17-1.49,5.17c0.43-9.05-2.78-5.78-3.9-0.48c-1.64,7.79-0.8,14.69-0.8,14.69
			c-1.43-3.5-2.83-4.68-2.15-0.4c0.68,4.28,1.72,8.08,1.72,8.08c-4.44-5.81-2.35,7.07,1.82,14.78c4.57,8.44,6.83,8.63,6.83,8.63
			c-4.33-1.26-7.62-0.95-2.29,3.58c5.24,4.44,13.12,5.49,13.12,5.49c-4.33,0-6.57,0.99-4.73,1.55c4.51,1.37,10.97-0.17,10.97-0.17
			c-3.6,1.12-6.37,3.45-3.25,3.5c3.12,0.04,7.31-2.38,7.31-2.38c-2.87,1.98-3.93,4.2-1.5,3.64c2.43-0.56,4.46-4.23,4.46-4.23
			c-0.52,5.27,2.76,7.56,2.38,5.31c-0.38-2.25,0-4.72,0-4.72c2.95,4.65,9.01,4.89,7.88,2.85c-1.34-2.4-3.37-3.79-3.37-3.79
			c2.9,1.68,9.71,4.4,10.05,2.68c0.35-1.73-3.06-2.45-3.06-2.45c26,1.51,28.81-30.28,26.81-31.23c-1.85-0.87-4.13,2.33-4.13,2.33
			C38.65,4.69,38.33-0.75,37.35-1.27z"/>
	</g>
	<g>
		<path class="st9" d="M-11.9,6.69c0,0-6.64-2.33-9.2,3.03c2.91-2.68,11.42-4.89,13.98,3.73c2.56,8.62,1.35,15.48-4.6,16.76
			c-6.11,1.32-12.42-7.56-12.53-16.06C-24.36,5.64-17.72,1.21-11.9,6.69z"/>
		<path class="st9" d="M10.71,7.39c0,0,4.08-3.5,7.92-0.82c3.85,2.68,3.03,6.41,3.03,6.41s-1.05-9.9-12.7-4.43
			c-7.22,3.96-7.57,18.18-1.86,21.9c5.71,3.73,13.35-2.87,15.73-11.65C25.86,7.62,19.45-0.65,10.71,7.39z"/>
		<path class="st10" d="M-6.85,19.74c0.03,3.15-0.61,8.63-5.42,9.54c-1.89,0.36-3.78-0.6-5.42-2.25
			C-13.44,25.74-9.82,23.03-6.85,19.74z"/>
		<g>
			<path class="st9" d="M-15.54,33.02l-1.66-1.66c0,0,6.47,0.87,10.31-2.88C-7.94,31.28-12.83,33.37-15.54,33.02z"/>
			<path class="st9" d="M0.62,32.41c0,0,0.84-3.36,2.05-3.15c1.21,0.21,2.84,2.31,5.31,3.68c2.47,1.37,4.68,1.84,6.57-0.32
				c-0.84,2.73-1.42,3.47-4.2,3.84c-2.78,0.37-6.57-4.2-6.57-4.2S1.83,31.1,0.62,32.41z"/>
			<path class="st10" d="M-16.78,32.06c0,0,6.54,0.33,9.62-2.91c-1.91,4.71-5.54,7.75-6.86,6.52
				C-15.34,34.45-16.78,32.06-16.78,32.06z"/>
			<path class="st9" d="M-7.11,32.19c-0.04,0.05-0.12-0.06-0.1-0.1c0.74-1.18,1.06-2.41,1.3-3.77c0.03-0.17,0.24,0.1,0.24,0.19
				C-5.66,29.83-6.28,31.19-7.11,32.19z"/>
			<path class="st9" d="M-1.69,32.73c-0.06,0.06-0.19-0.13-0.15-0.19c0.34-0.51,0.51-1.07,0.6-1.67c0.05-0.3,0.06-0.61,0.09-0.91
				c0.03-0.36-0.08-0.41,0.08-0.67c0.11-0.18,0.34,0.16,0.37,0.25C-0.29,30.55-0.98,32-1.69,32.73z"/>
			<path class="st10" d="M-7.3,32.73c-0.04,0.05-0.12-0.06-0.1-0.11c0.74-1.18,1.06-2.41,1.3-3.77c0.03-0.17,0.24,0.1,0.24,0.19
				C-5.86,30.37-6.48,31.73-7.3,32.73z"/>
			<path class="st10" d="M-1.89,33.27c-0.06,0.06-0.19-0.13-0.15-0.19c0.34-0.51,0.51-1.07,0.6-1.67c0.05-0.3,0.06-0.61,0.09-0.91
				c0.03-0.36-0.08-0.41,0.09-0.67c0.11-0.18,0.34,0.16,0.37,0.25C-0.49,31.09-1.18,32.54-1.89,33.27z"/>
			<path class="st10" d="M-0.39,34.4c0,0,2.01-2.65,2.94-1.57c0.93,1.08,5.69,6.42,7.26,6.28c1.57-0.15,3.82-2.7,4.56-5.79
				c-1.57,1.72-4.02,2.11-7.7-0.39c-3.68-2.5-4.51-4.12-5.69-1.57C0.15,33.17-0.39,34.4-0.39,34.4z"/>
		</g>
		<path class="st10" d="M12.79,25.94c1.21,0.56,2.45,1.02,3.71,1.39c-2.46,2.39-5.46,3.42-7.99,2.4c-3.05-1.24-4.61-5.84-4.1-10.56
			C6.39,22.17,9.67,24.48,12.79,25.94z"/>
		<path class="st10" d="M-12.18,28.77c-0.06,0.02-0.16-0.14-0.1-0.17c1.19-0.61,2.16-1.38,2.9-2.51c0.82-1.26,1.43-3.16,2.05-4.48
			c0.13-0.27-0.02,0.76-0.04,0.92C-7.63,25.43-9.32,27.96-12.18,28.77z"/>
		<path class="st10" d="M9.33,29.52c0.05,0.02,0.17-0.12,0.11-0.16c-1.14-0.7-2.05-1.55-2.69-2.73C6.03,25.3,5.57,23.36,5.06,22
			c-0.1-0.28-0.04,0.76-0.04,0.92C5.06,25.84,6.54,28.49,9.33,29.52z"/>
		<g>
			<g>
				<path class="st10" d="M-3.21,4.69c0-0.42-0.2-0.76-0.44-0.76c-0.24,0-0.44,0.34-0.44,0.76c0,0.42,0.2,0.76,0.44,0.76
					C-3.4,5.45-3.21,5.11-3.21,4.69z"/>
				<path class="st10" d="M-0.27,4.86c0-0.42-0.2-0.76-0.44-0.76c-0.24,0-0.44,0.34-0.44,0.76c0,0.42,0.2,0.76,0.44,0.76
					C-0.47,5.62-0.27,5.28-0.27,4.86z"/>
				<path class="st10" d="M2.41,6.09C1.61,7.95-0.96,8.45-2.73,8.3C-4.35,8.16-6.44,7.3-7,5.6c-0.72-2.18,2.01-3.22,3.69-3.24
					c0.14,0,0.36,0.37,0.19,0.38c-1.1,0.08-1.94,0.47-2.78,1.15c-2.52,2.03,1.8,3.56,3.3,3.59c1.1,0.02,2.16-0.26,3.1-0.83
					c0.52-0.31,0.88-0.84,1.2-1.33c0.58-0.89-0.82-1.41-1.31-1.73C0.16,3.44-0.28,2.54,0.28,2.79C1.65,3.39,3.1,4.48,2.41,6.09z"/>
			</g>
			<path class="st9" d="M1.79,4.02c-1.53-0.57-2.53-1.5-4.3-1.3c-1.56,0.18-2.91,0.71-3.95,1.9C-6.6,4.78-6.88,4.36-6.9,4.26
				C-7.49,2-4.59,1.19-2.87,0.96c1.81-0.24,4.2,0.9,4.9,2.6C2.1,3.73,2.07,4.13,1.79,4.02z"/>
			<path class="st9" d="M-2.31,6.82c0.07-0.32-0.48-0.7-1.23-0.87c-0.75-0.16-1.41-0.04-1.48,0.28c-0.07,0.32,0.48,0.7,1.23,0.87
				C-3.04,7.26-2.38,7.14-2.31,6.82z"/>
		</g>
		<path class="st9" d="M-20.88-1.39c0,0,15.52-12.63,34.86-1.97C8.06-9.41-9.7-12.83-20.88-1.39z"/>
	</g>
	<g>
		<path class="st11" d="M-6.99,17.52c0,0,1.53,10.47-5.27,11.76c-6.81,1.29-13.57-14.48-9.21-18.42
			C-17.11,6.94-8.59,6.02-6.99,17.52z"/>
		<g>
			<path class="st12" d="M-12.26,29.28c-2.56,0.49-5.12-1.45-7.08-4.26c1.22,0.74,3.12,0.93,5.42-0.42
				c3.97-2.33,7.29-5.26,5.8-11.41c0.51,1.19,0.9,2.62,1.14,4.33C-6.99,17.52-5.46,28-12.26,29.28z"/>
		</g>
		<g>
			<path class="st13" d="M-11.64,18.04c-0.43-1.78-1.73-2.95-2.9-2.6c-1.17,0.35-1.78,2.08-1.35,3.86c0.43,1.78,1.73,2.95,2.9,2.6
				C-11.81,21.55-11.21,19.83-11.64,18.04z"/>
			<path class="st14" d="M-12.02,18.11c-0.35-1.47-1.42-2.43-2.39-2.14c-0.97,0.29-1.46,1.71-1.11,3.18
				c0.35,1.47,1.42,2.43,2.39,2.14C-12.17,21-11.67,19.58-12.02,18.11z"/>
			<path class="st15" d="M-12.63,18.29c-0.22-0.92-0.89-1.52-1.5-1.34c-0.6,0.18-0.92,1.07-0.69,1.99c0.22,0.92,0.89,1.52,1.5,1.34
				C-12.72,20.1-12.41,19.21-12.63,18.29z"/>
			<path class="st11" d="M-13.65,19.87c-0.25-0.35-0.65-0.52-0.9-0.37c-0.24,0.15-0.24,0.55,0.01,0.9c0.25,0.35,0.65,0.52,0.89,0.37
				C-13.39,20.62-13.4,20.22-13.65,19.87z"/>
			<path class="st11" d="M-14.91,18.76c-0.05-0.19-0.19-0.31-0.31-0.27c-0.12,0.04-0.18,0.22-0.14,0.41
				c0.05,0.19,0.19,0.31,0.31,0.27C-14.93,19.13-14.86,18.94-14.91,18.76z"/>
		</g>
		<path class="st11" d="M19.99,22.03c2.37-5.86,1.08-11.91-2.88-13.52C13.14,6.91,7.84,9.1,5.46,14.96
			c-2.37,5.86-0.92,13.16,3.05,14.77C12.48,31.34,17.62,27.89,19.99,22.03z"/>
		<path class="st12" d="M6.94,19.49c1.03,2.05,2.86,3.84,4.81,5.02c1.61,0.98,2.81,1.4,5.25,2.3c-2.54,2.76-5.79,4.01-8.49,2.91
			c-3.97-1.61-5.42-8.91-3.05-14.77c0.21-0.52,0.45-1.01,0.7-1.47C5.87,15.55,6,17.63,6.94,19.49z"/>
		<g>
			<path class="st13" d="M14.18,18.77c0.47-1.77-0.12-3.42-1.32-3.67c-1.2-0.25-2.55,0.98-3.02,2.76c-0.47,1.77,0.12,3.42,1.32,3.67
				C12.36,21.79,13.72,20.55,14.18,18.77z"/>
			<path class="st14" d="M13.81,18.66c0.38-1.46-0.1-2.81-1.09-3.02c-0.98-0.21-2.1,0.81-2.48,2.27c-0.38,1.46,0.1,2.81,1.09,3.02
				C12.31,21.13,13.42,20.12,13.81,18.66z"/>
			<path class="st15" d="M13.19,18.52c0.24-0.91-0.06-1.76-0.68-1.89c-0.62-0.13-1.31,0.51-1.56,1.42
				c-0.24,0.91,0.06,1.76,0.68,1.89C12.26,20.08,12.95,19.44,13.19,18.52z"/>
			<path class="st11" d="M11.55,19.43c-0.05-0.43-0.33-0.76-0.61-0.75c-0.28,0.01-0.47,0.37-0.42,0.8c0.05,0.43,0.33,0.76,0.61,0.75
				C11.41,20.22,11.6,19.86,11.55,19.43z"/>
			<path class="st11" d="M10.96,17.85c0.05-0.19-0.02-0.36-0.14-0.39c-0.13-0.03-0.27,0.11-0.32,0.29
				c-0.05,0.19,0.02,0.36,0.14,0.39C10.78,18.17,10.92,18.04,10.96,17.85z"/>
		</g>
	</g>
	<path class="st16" d="M-20.3-3.97c0,0,7.32-7.11,19.68-6.6c12.37,0.51,16.38,5.77,18.75,9.17c1.13,1.65,8.14-3.2,8.45-9.69
		c0.21-4.12-0.95-7.08-6.08-5.46c-5.87,1.85-12.88,1.13-20.92,0.93c-8.04-0.21-14.84-0.82-18.03-2.78
		c-3.19-1.96-3.92-4.64-6.29,1.03C-27.1-11.7-24.22-0.47-20.3-3.97z"/>
	<path class="st17" d="M-20.3-2.89c0,0,7.32-7.11,19.68-6.59c12.37,0.51,16.38,5.77,18.75,9.17c1.13,1.65,8.14-3.19,8.45-9.69
		c0.21-4.12-0.95-7.08-6.08-5.46c-5.87,1.85-12.88,1.13-20.92,0.93c-8.04-0.21-14.84-0.82-18.03-2.78
		c-3.19-1.96-3.92-4.64-6.29,1.03C-27.1-10.62-24.22,0.62-20.3-2.89z"/>
	<path class="st17" d="M23.28-14.86c-3.64,2.7-7.76,4.22-12.31,4.38c-2.69,0.09-5.41-0.11-8.09-0.29c-2.72-0.18-5.48-0.42-8.13-1.08
		c-5.83-1.45-12.31-3.69-16.89-7.85c0.94,0.02,1.95,1.3,3.7,2.37c3.19,1.96,10,2.58,18.03,2.78c8.04,0.21,15.04,0.93,20.92-0.93
		c1.68-0.53,2.93-0.57,3.85-0.24C24-15.41,23.64-15.13,23.28-14.86z"/>
	<g>
		<path class="st11" d="M-9.56-8.55c0,0,0.39-5.32,1.64-9.31c1.1-3.29,3.76-3.46,5.32-3.13c1.49,0.31,2.35,0.78,2.27,2.97
			C-0.4-15.83-1.01-9.5-1.01-9.5S-3.92-9.8-9.56-8.55z"/>
		<path class="st12" d="M-4.24-11.06c1.51-0.87,2.54-2.24,3.09-3.89c0.45-1.38,0.64-2.8,0.76-4.23c0.06,0.32,0.09,0.7,0.07,1.15
			C-0.4-15.83-1.01-9.5-1.01-9.5s-2.91-0.3-8.54,0.95c0,0,0-0.04,0.01-0.12C-7.88-9.67-5.95-10.08-4.24-11.06z"/>
		<path class="st11" d="M-0.91-9.5c0,0,0.64-6.86,0.99-9.44c0.35-2.58,4.63-2.18,5.59,0.35C6.63-16.06,6.8-8.47,6.8-8.47
			S2.92-9.45-0.91-9.5z"/>
		<path class="st12" d="M0.52-14.84c0.06,1.41,0.35,3.04,1.5,4c1.29,1.07,3.26,0.96,4.75,1.6C6.8-8.76,6.8-8.47,6.8-8.47
			S2.92-9.45-0.91-9.5c0,0,0.64-6.86,0.99-9.44c0.1-0.71,0.5-1.2,1.04-1.48C0.78-18.58,0.45-16.7,0.52-14.84z"/>
		<path class="st11" d="M-16.12-5.9c0,0-0.26-3.12,0.31-4.36c0.57-1.23,3.34-2.16,4.27-0.79c0.92,1.36,1.45,2.64,1.45,2.64
			S-13.57-7.17-16.12-5.9z"/>
		<path class="st12" d="M-16.12-5.9c0,0-0.01-0.1-0.02-0.25c1.22-0.86,2.86-1.43,3.51-2.8c0.44-0.93,0.43-1.8,0.24-2.68
			c0.34,0.1,0.64,0.28,0.85,0.59c0.92,1.36,1.45,2.64,1.45,2.64S-13.57-7.17-16.12-5.9z"/>
		<path class="st11" d="M-16.51-16.37c0,0,0.26,3.92,1.89,4.14c1.63,0.22,3.21-3.08,3.21-3.08S-14.93-15.75-16.51-16.37z"/>
		<path class="st12" d="M-13.62-12.49c0.17-0.5,0.27-1.02,0.08-1.53c-0.2-0.54-0.55-1-1.08-1.27c-0.58-0.3-1.2-0.43-1.83-0.49
			c-0.05-0.35-0.06-0.58-0.06-0.58c1.58,0.62,5.1,1.06,5.1,1.06S-12.4-13.24-13.62-12.49z"/>
		<path class="st11" d="M-18.1-17.03c0,0-1.63,2.99-3.12,2.38c-1.5-0.62-1.32-4.97-1.32-4.97s0.53-0.35,1.94,0.79
			C-19.2-17.68-18.1-17.03-18.1-17.03z"/>
		<path class="st12" d="M-20.49-14.61c0.66-1.1,0.97-2.3,0.14-3.47c-0.51-0.73-1.34-1.16-2.19-1.51c0-0.02,0-0.03,0-0.03
			s0.53-0.35,1.94,0.79c1.41,1.14,2.51,1.8,2.51,1.8S-19.24-14.93-20.49-14.61z"/>
		<path class="st11" d="M-16.86-5.47c0,0-2.43-2.65-3.06-5.87c-0.56-2.69-1.98-0.05-2.42,2.25c-0.61,3.19,1.09,6.82,1.09,6.82
			S-17.89-4.99-16.86-5.47z"/>
		<path class="st12" d="M-21.25-2.27c0,0-0.06-0.12-0.14-0.33c1-1.11,2.38-1.75,2.02-3.57c-0.4-2.06-1.13-4.08-0.97-6.18
			c0.16,0.16,0.31,0.48,0.42,1.01c0.64,3.21,3.06,5.87,3.06,5.87C-17.89-4.99-21.25-2.27-21.25-2.27z"/>
		<path class="st11" d="M15.38-3.81c0,0,2.14-2.19,2.72-4.46c0.58-2.28,1.47-1.43,2.23,1.07c0.76,2.5,0.22,6.7,0.22,6.7
			s-1.94,1.02-2.42,0.2C17.65-1.14,15.91-3.37,15.38-3.81z"/>
		<path class="st12" d="M20.56-0.51c0,0-1.94,1.02-2.42,0.2c-0.48-0.82-2.22-3.06-2.76-3.5c0,0,0.19-0.19,0.47-0.52
			c0.54,0.67,0.95,1.48,1.5,2.11c0.33,0.38,0.81,0.86,1.38,0.67c1.01-0.34,0.88-2.1,0.84-2.91c-0.09-1.71-0.41-3.42-0.81-5.09
			c0.5-0.27,1.07,0.66,1.58,2.35C21.09-4.71,20.56-0.51,20.56-0.51z"/>
		<path class="st11" d="M7.8-8.14c0,0,0.67-3.7,3.92-2.83c3.25,0.87,3.75,2.52,2.04,5.8C13.77-5.18,12.26-6.6,7.8-8.14z"/>
		<path class="st12" d="M10.73-7.41c0.66,0.22,1.61,0.51,2.24,0.05c0.77-0.56,0.93-1.57,1.05-2.51c1.05,0.99,0.91,2.46-0.25,4.69
			c0,0-1.51-1.43-5.97-2.97c0,0,0.02-0.09,0.06-0.25C8.84-8.13,9.77-7.74,10.73-7.41z"/>
		<path class="st11" d="M9.93-14.16c0,0,0.41,2.03,2.03,2.16c1.61,0.14,3.06-2.4,3.06-2.4L9.93-14.16z"/>
		<path class="st12" d="M13.23-12.39c0.03-0.52-0.08-1.01-0.57-1.22c-0.64-0.27-1.39-0.29-2.08-0.34c-0.2-0.02-0.4-0.03-0.61-0.04
			c-0.03-0.1-0.04-0.17-0.04-0.17l5.08-0.24C15.02-14.4,14.26-13.07,13.23-12.39z"/>
		<path class="st11" d="M18.04-14.85c0,0,0.69,2.85,1.92,2.85c1.24,0,2.75-2.88,2.99-3.88c0,0-1.01,0.01-2.44,0.42
			C19.07-15.05,18.04-14.85,18.04-14.85z"/>
		<path class="st12" d="M21.38-12.95c0.08-0.69-0.12-1.31-0.91-1.6c-0.74-0.27-1.56-0.23-2.37-0.05c-0.04-0.15-0.07-0.24-0.07-0.24
			s1.03-0.21,2.47-0.61c1.44-0.41,2.44-0.42,2.44-0.42C22.8-15.25,22.15-13.89,21.38-12.95z"/>
	</g>
</symbol>
<use xlink:href="#Beevear"  width="118.15" height="100" x="-59.07" y="-50" transform="matrix(1 0 0 -1 59.075 50)" style="overflow:visible;"/>
</svg>
