<?xml version="1.0" encoding="utf-8"?>
<!-- Generator: Adobe Illustrator 26.3.1, SVG Export Plug-In . SVG Version: 6.00 Build 0)  -->
<svg version="1.1" id="Layer_1" xmlns="http://www.w3.org/2000/svg" xmlns:xlink="http://www.w3.org/1999/xlink" x="0px" y="0px"
	 viewBox="0 0 118.15 100" style="enable-background:new 0 0 118.15 100;" xml:space="preserve">
<style type="text/css">
	.st0{fill:#5B9B07;}
	.st1{opacity:0.5;}
	.st2{fill:#EAEA59;}
	.st3{opacity:0.5;fill:#5B9B07;}
	.st4{fill:#99B72A;}
	.st5{fill:#DBD74B;}
	.st6{fill:#FFE0B6;}
	.st7{fill:#92CE0F;}
	.st8{opacity:0.7;}
	.st9{fill:#DCDEDE;}
	.st10{fill:#FFFFFF;}
	.st11{fill:#F78C4F;}
	.st12{fill:#FFC356;}
	.st13{fill:#834513;}
	.st14{opacity:0.4;}
</style>
<symbol  id="Leslie" viewBox="-59.07 -50 118.15 100">
	<g>
		<g>
			<path class="st0" d="M23.53,29.17c0,0,1.3,0.07,2.54-0.07c0.8-0.08-0.47,1.83-3.67,2.98C25.8,48.2,45.65,50.74,48.68,48.71
				c2.7-1.81,4.1-25.62-13.67-28.17C33.51,23.52,29.24,27.59,23.53,29.17z"/>
			<g class="st1">
				<path class="st0" d="M26.08,29.11c0.8-0.08-0.47,1.83-3.67,2.98c1.53,7.27,6.91,12.27,11.95,14.7
					c-5.54-2.99-6.02-8.57-2.97-6.19c7.56,5.92,15.48,5.27,15.48,5.27c0.61-8-1.77-12.32-4.73-16.18c-2.96-3.86-1.01-4.87,2.17-3.14
					c4.2,2.28,5.63,10.45,5.65,10.56c-1.09-7.14-5.04-15.15-14.94-16.58c-1.49,2.99-5.77,7.05-11.47,8.64
					C23.53,29.17,24.84,29.24,26.08,29.11z"/>
			</g>
			<g>
				<path class="st2" d="M31.56,37.87c4.09,6,11.57,7.57,14.78,7.31c0,0,0.89-14.5-14.06-20.67c-0.97,1.1-2.14,2.18-3.51,3.11
					C28.63,29.95,28.9,33.96,31.56,37.87z"/>
			</g>
			<g>
				<path class="st2" d="M28.77,27.62c-0.14,2.33,0.12,6.34,2.79,10.25c1.2,1.76,2.69,3.14,4.29,4.2c3.58-1.17,4.87-8.59-4.21-16.87
					C30.8,26.06,29.85,26.89,28.77,27.62z"/>
			</g>
			<path class="st3" d="M48.43,48.13c0,0-6.87,3.39-16.34-3.91C32.09,44.22,40.26,48.41,48.43,48.13z"/>
		</g>
		<g>
			<g>
				<path class="st0" d="M-3.01-31.96c0.57-4.42,0.48-8.69-1.58-9.04c-4.21-0.72-6.13,3.39-6.13,3.39
					c-1.37-3.85-7.57-3.85-6.26-2.44c1.3,1.41,1.3,2.83,1.3,2.83c-3.98-4.17-7.07-2.74-6.07-1.89c3.1,2.63,3.02,7.77,3.26,9.99
					c0.46,3.68,1.65,9.95,7.89,9.91C-4.39-19.26-3.3-27.17-3.01-31.96z"/>
				<g class="st1">
					<path class="st0" d="M-3.01-31.96c-0.29,4.79-1.38,12.71-7.58,12.74c-6.24,0.04-7.44-6.23-7.89-9.91
						c-0.24-2.22-0.16-7.36-3.26-9.99c-1-0.85,2.09-2.28,6.07,1.89c0,0,0-1.43-1.3-2.83c-1.3-1.41,4.89-1.41,6.26,2.44
						c0,0,1.92-4.11,6.13-3.39C-2.53-40.65-2.44-36.38-3.01-31.96z M-6.7-39.71c-2.83,0.55-3.83,5.19-3.83,5.19
						c-1.04-4.54-6.6-6.03-5.52-4.74c1.38,1.66,1.22,4.96,1.22,4.96c-0.78-2.48-4.36-4.83-5.32-4.22c-0.96,0.61,2.19,2.13,2.14,7.65
						c2.66-1.1,4.78-1.09,4.09-0.17c-0.7,0.91-1.17,1.83,0.83,0.26c2-1.57,6.43-2.87,6.09-2c-0.35,0.87-0.61,1.91,0.61,0.3
						C-5.18-34.09-3.87-40.26-6.7-39.71z"/>
				</g>
			</g>
			<g>
				<g>
					<path class="st2" d="M-4.38-40.95c-0.07-0.02-0.14-0.04-0.21-0.05c-4.21-0.72-6.13,3.39-6.13,3.39
						c-1.37-3.85-7.57-3.85-6.26-2.44c1.3,1.41,1.3,2.83,1.3,2.83c-2.58-2.71-4.79-3.05-5.75-2.73c-0.47-0.25-1.2-0.48-2.28-0.48
						c-2.26,0-4.22-0.44-4.48-4.22c-0.26-3.78,2.09-4.22,4.43-3.44c0,0,0.43-1.09,2.61-1.13c2.17-0.04,2.74,0.61,2.74,0.61
						s0.3-1.78,6.52-1.3c6.22,0.48,8.26,1.4,8.57,5.44C-3.17-42.68-3.72-41.6-4.38-40.95z"/>
					<path class="st4" d="M-10.26-43.61c0,0-0.19,0.08-0.52,0.2c-0.33,0.12-0.82,0.28-1.41,0.42c-0.59,0.14-1.3,0.27-2.07,0.29
						c-0.19,0.01-0.39-0.01-0.59-0.01c-0.2-0.02-0.4-0.03-0.6-0.08c-0.4-0.06-0.83-0.21-1.18-0.44c-0.72-0.46-1.26-1.15-1.62-1.84
						c-0.36-0.7-0.55-1.42-0.59-2.06c-0.04-0.64,0.11-1.18,0.3-1.51c0.2-0.33,0.39-0.44,0.43-0.4c0.05,0.05-0.06,0.22-0.17,0.53
						c-0.11,0.31-0.19,0.78-0.13,1.35c0.05,0.57,0.23,1.24,0.56,1.89c0.32,0.65,0.8,1.29,1.43,1.72c0.32,0.22,0.66,0.36,1.04,0.44
						c0.19,0.05,0.38,0.07,0.56,0.1c0.19,0.01,0.38,0.04,0.56,0.04c0.74,0.02,1.44-0.06,2.04-0.16c0.59-0.1,1.08-0.22,1.42-0.32
						C-10.46-43.54-10.26-43.61-10.26-43.61z"/>
					<path class="st4" d="M-16.83-42.05c0,0-0.74,0.2-1.89,0.29c-0.14,0.01-0.29,0.02-0.45,0.03c-0.16,0-0.32,0-0.48,0
						c-0.33,0.01-0.68-0.02-1.04-0.05c-0.18-0.01-0.36-0.05-0.55-0.08c-0.18-0.04-0.37-0.07-0.56-0.11l-0.28-0.1l-0.14-0.05
						l-0.13-0.08l-0.26-0.15c-0.08-0.06-0.16-0.12-0.24-0.19c-0.63-0.52-1.03-1.24-1.27-1.94c-0.24-0.71-0.32-1.41-0.28-2.01
						c0.05-0.6,0.21-1.09,0.42-1.39c0.08-0.16,0.2-0.25,0.27-0.31c0.07-0.06,0.12-0.08,0.15-0.06c0.02,0.02,0.02,0.08-0.01,0.16
						c-0.03,0.09-0.1,0.19-0.14,0.34c-0.13,0.29-0.23,0.73-0.25,1.27c-0.02,0.54,0.06,1.19,0.27,1.84c0.21,0.65,0.56,1.32,1.1,1.8
						c0.07,0.06,0.13,0.12,0.2,0.18l0.22,0.14l0.11,0.07l0.12,0.05l0.24,0.1c0.18,0.05,0.35,0.09,0.53,0.13
						c0.18,0.04,0.35,0.09,0.52,0.11c0.35,0.05,0.69,0.11,1.01,0.12c0.16,0.01,0.32,0.02,0.47,0.03c0.15,0,0.3,0,0.44,0
						C-17.59-41.92-16.83-42.05-16.83-42.05z"/>
					<g>
						<path class="st5" d="M-4.38-40.95c-0.07-0.02-0.14-0.04-0.21-0.05c-4.21-0.72-6.13,3.39-6.13,3.39
							c-1.37-3.85-7.57-3.85-6.26-2.44c1.3,1.41,1.3,2.83,1.3,2.83c-2.58-2.71-4.79-3.05-5.75-2.73c-0.47-0.25-1.2-0.48-2.28-0.48
							c-2.26,0-4.22-0.44-4.48-4.22c-0.26-3.78,2.09-4.22,4.43-3.44c0,0,0.43-1.09,2.61-1.13c2.17-0.04,2.74,0.61,2.74,0.61
							s0.3-1.78,6.52-1.3c6.22,0.48,8.26,1.4,8.57,5.44C-3.17-42.68-3.72-41.6-4.38-40.95z M-15.09-49.05
							c-4.08,0.42-3.52,2.05-3.39,2.63c0,0-0.54-1.7-3.45-1.44c-2.56,0.23-2.28,1.9-2.18,2.3c-0.12-0.36-0.71-1.77-2.66-1.31
							c-1.66,0.39-1.39,2.5-1.05,3.69c1.21,4.3,7.2,2.57,4.78,0.25c0,0,1.76,1.53,4.47,0.94c2.28-0.5,2.28-1.08,1.3-2.08
							c0,0,2.32,2.28,7.17,0C-5.24-46.35-11.52-49.42-15.09-49.05z"/>
					</g>
				</g>
				<path class="st6" d="M-27.81-45.66c0,0-0.52,2.05,0.83,3.78c1.19,1.53,3.04,1.06,3.04,1.06S-27.57-40.79-27.81-45.66z"/>
				<path class="st6" d="M-23.59-47.03c0,0-0.52,2.05,0.83,3.78c1.19,1.53,3.04,1.06,3.04,1.06S-23.35-42.16-23.59-47.03z"/>
				<path class="st6" d="M-17.9-48.11c0,0-0.52,2.05,0.83,3.78c1.19,1.53,3.04,1.07,3.04,1.07S-17.66-43.24-17.9-48.11z"/>
			</g>
		</g>
		<g>
			<g>
				<path class="st0" d="M-28.38,19.11c-2.86,3.46-15-0.63-22.44-13.16c-7.44-12.52-7.55-27.89-5.44-27.92
					c1.3-0.02,1.48,4.52,1.48,4.52s-0.09-4.96,1.48-5.22c1.57-0.26,1.83,4.87,1.83,4.87s-0.09-4.8,1.39-4.88
					c1.48-0.08,1.57,4.36,1.57,4.36s-0.22-4.51,1.61-4.5c1.83,0.01,2.55,2.48,4.49,9.78c1.94,7.31,4.42,12.39,9.25,16.96
					C-28.34,8.5-25.25,15.33-28.38,19.11z"/>
				<path class="st2" d="M-56.42-21.92c0.05-0.02,0.11-0.04,0.17-0.04c1.3-0.02,1.48,4.52,1.48,4.52s-0.09-4.96,1.48-5.22
					c1.57-0.26,1.83,4.87,1.83,4.87s-0.09-4.8,1.39-4.88c1.33-0.07,1.53,3.48,1.56,4.22c-0.02-0.75-0.02-4.37,1.61-4.36
					c0.37,0,0.63,0.11,0.81,0.33c1.06-0.1,3.08-0.49,4.14-1.92c2.26-3.04,0.68-6.86-1.52-4.83c-2.3,2.13-3.83,1.33-4.57-0.57
					c-0.74-1.91,1.04-4.43-0.87-5.17c-1.91-0.74-3.04,1.48-3.04,1.48s-0.57-1.96-3.52,0.78c0,0-1.35-0.57-2.87,2.09
					C-59.79-28.08-59.06-24.13-56.42-21.92z"/>
				<g>
					<path class="st4" d="M-50.95-26.52c0,0-0.12-0.07-0.31-0.24c-0.19-0.17-0.44-0.43-0.68-0.79c-0.24-0.36-0.48-0.82-0.63-1.34
						c-0.16-0.53-0.23-1.11-0.24-1.69c-0.03-1.17,0.26-2.36,0.75-3.11c0.24-0.38,0.5-0.66,0.72-0.81c0.21-0.15,0.36-0.2,0.4-0.15
						c0.09,0.11-0.36,0.46-0.74,1.17c-0.4,0.7-0.71,1.78-0.74,2.9c-0.02,0.56,0.01,1.12,0.12,1.62c0.11,0.51,0.29,0.97,0.49,1.33
						c0.2,0.37,0.42,0.65,0.59,0.83C-51.06-26.61-50.95-26.52-50.95-26.52z"/>
					<path class="st4" d="M-54.53-26c0,0-0.11-0.08-0.3-0.24c-0.18-0.16-0.43-0.4-0.69-0.74c-0.26-0.33-0.52-0.75-0.71-1.25
						c-0.2-0.49-0.3-1.07-0.3-1.64c-0.01-0.14,0-0.28,0.01-0.43c0.01-0.14,0.01-0.28,0.04-0.42c0.05-0.28,0.09-0.56,0.2-0.81
						c0.16-0.52,0.46-0.95,0.74-1.28c0.3-0.31,0.57-0.55,0.8-0.66c0.22-0.12,0.35-0.17,0.39-0.12c0.04,0.05-0.04,0.18-0.21,0.35
						c-0.17,0.16-0.39,0.41-0.65,0.71c-0.49,0.61-0.92,1.59-0.92,2.67c-0.03,0.54,0.03,1.06,0.17,1.55
						c0.14,0.48,0.35,0.91,0.57,1.25c0.22,0.35,0.44,0.61,0.6,0.79C-54.64-26.09-54.53-26-54.53-26z"/>
				</g>
			</g>
			<g class="st1">
				<path class="st0" d="M-28.38,19.11c-2.25,2.72-10.26,0.76-17.19-6.31c5.44,5.14,5.69,1.41,3.43-5.84
					c-1.97-6.35-3.08-9.37-1.19-8.22c1.89,1.15-0.81-4.5-2.07-12.53c-1.09-6.96-1.4-7.53-2.13-7.48c-0.73,0.05-0.67,3.83-0.56,6.35
					c0,0-0.65-5.44-1.87-5.13c-1.22,0.3-1.12,4.3-0.98,5.65c0,0-1.07-5.25-2.11-4.82c-1.04,0.43-1.65,2.85-1.1,5.83
					c-0.07-0.39-0.76-4.33-1.99-3.79c-1.29,0.57-0.94,6.67,0.74,12.54c-2.75-9.22-2.39-17.3-0.86-17.32
					c1.3-0.02,1.48,4.52,1.48,4.52s-0.09-4.96,1.48-5.22c1.57-0.26,1.83,4.87,1.83,4.87s-0.09-4.8,1.39-4.88
					c1.33-0.07,1.53,3.48,1.56,4.22c-0.02-0.75-0.02-4.37,1.61-4.36c1.83,0.01,2.55,2.48,4.49,9.78c1.94,7.31,4.42,12.39,9.25,16.96
					C-28.34,8.5-25.25,15.33-28.38,19.11z"/>
			</g>
			<path class="st3" d="M-56.18-11.78c0,0,0.72,15.26,11.74,25.15C-44.44,13.36-51.94,2.89-56.18-11.78z"/>
			<g>
				<path class="st5" d="M-41.95-24.39c-0.42,0.57-0.99,0.96-1.59,1.25l0,0c2-1.02,3.05-4.42,1.57-5.34
					c-1.48-0.91-2.3,1.91-4.65,1.96c-2.35,0.04-2.52-2.78-2.44-4.78c0.09-2-1.96-1.96-2.83-0.13c-0.87,1.83,0.34,4.4,0.34,4.4
					s-1.32-0.96-1.47-3.27c-0.16-2.3-2.03-2.43-2.74-0.29c-0.71,2.14,0.73,4.08,0.73,4.08c-1.79-1.48-1.42-4.41-2.68-4.08
					c-1.13,0.3-1.34,2.36-1.37,2.78c0.02-1.01,0.26-1.97,0.73-2.79c1.52-2.65,2.87-2.09,2.87-2.09c2.96-2.74,3.52-0.78,3.52-0.78
					s1.13-2.22,3.04-1.48c1.91,0.74,0.13,3.26,0.87,5.17c0.74,1.91,2.26,2.7,4.57,0.57C-41.26-31.26-39.69-27.44-41.95-24.39z"/>
			</g>
			<path class="st6" d="M-58.27-29.81c0,0-1.87,3.28,1.39,7C-56.88-22.81-58.8-26.27-58.27-29.81z"/>
			<path class="st6" d="M-54.91-31.67c0,0-2.35,2.4,0.56,5.66C-54.36-26-56.09-28.83-54.91-31.67z"/>
			<path class="st6" d="M-50.77-32.42c0,0-2.94,2.4-0.03,5.66C-50.8-26.75-52.4-29.58-50.77-32.42z"/>
		</g>
		<g>
			<g>
				<path class="st0" d="M3.01-31.96C2.43-36.38,2.53-40.65,4.59-41c4.21-0.72,6.13,3.39,6.13,3.39c1.37-3.85,7.57-3.85,6.26-2.44
					c-1.3,1.41-1.3,2.83-1.3,2.83c3.98-4.17,7.07-2.74,6.07-1.89c-3.1,2.63-3.02,7.77-3.26,9.99c-0.46,3.68-1.65,9.95-7.89,9.91
					C4.39-19.26,3.3-27.17,3.01-31.96z"/>
				<g class="st1">
					<path class="st0" d="M4.59-41c4.21-0.72,6.13,3.39,6.13,3.39c1.37-3.85,7.57-3.85,6.26-2.44c-1.3,1.41-1.3,2.83-1.3,2.83
						c3.98-4.17,7.07-2.74,6.07-1.89c-3.1,2.63-3.02,7.77-3.26,9.99c-0.46,3.68-1.65,9.95-7.89,9.91c-6.2-0.04-7.29-7.95-7.58-12.74
						C2.43-36.38,2.53-40.65,4.59-41z M6.39-32.48c1.22,1.61,0.96,0.57,0.61-0.3c-0.35-0.87,4.09,0.43,6.09,2
						c2,1.57,1.52,0.65,0.83-0.26c-0.7-0.91,1.43-0.93,4.09,0.17c-0.04-5.52,3.1-7.04,2.14-7.65c-0.96-0.61-4.54,1.74-5.32,4.22
						c0,0-0.16-3.3,1.22-4.96c1.08-1.29-4.48,0.2-5.52,4.74c0,0-1-4.63-3.83-5.19C3.87-40.26,5.18-34.09,6.39-32.48z"/>
				</g>
			</g>
			<g>
				<g>
					<path class="st2" d="M4.38-40.95c0.07-0.02,0.14-0.04,0.21-0.05c4.21-0.72,6.13,3.39,6.13,3.39c1.37-3.85,7.57-3.85,6.26-2.44
						c-1.3,1.41-1.3,2.83-1.3,2.83c2.58-2.71,4.79-3.05,5.75-2.73c0.47-0.25,1.2-0.48,2.28-0.48c2.26,0,4.22-0.44,4.48-4.22
						c0.26-3.78-2.09-4.22-4.43-3.44c0,0-0.44-1.09-2.61-1.13c-2.17-0.04-2.74,0.61-2.74,0.61s-0.3-1.78-6.52-1.3
						c-6.22,0.48-8.26,1.4-8.57,5.44C3.17-42.68,3.72-41.6,4.38-40.95z"/>
					<path class="st4" d="M10.26-43.61c0,0,0.19,0.08,0.52,0.2c0.33,0.12,0.81,0.28,1.41,0.42c0.59,0.14,1.3,0.27,2.07,0.29
						c0.19,0.01,0.39-0.01,0.59-0.01c0.2-0.02,0.4-0.03,0.6-0.08c0.4-0.06,0.83-0.21,1.18-0.44c0.72-0.46,1.26-1.15,1.62-1.84
						c0.36-0.7,0.55-1.42,0.59-2.06c0.04-0.64-0.11-1.18-0.3-1.51c-0.2-0.33-0.39-0.44-0.43-0.4c-0.05,0.05,0.06,0.22,0.17,0.53
						c0.11,0.31,0.19,0.78,0.13,1.35c-0.05,0.57-0.23,1.24-0.56,1.89c-0.32,0.65-0.8,1.29-1.43,1.72c-0.32,0.22-0.66,0.36-1.04,0.44
						c-0.18,0.05-0.38,0.07-0.56,0.1c-0.19,0.01-0.38,0.04-0.56,0.04c-0.74,0.02-1.44-0.06-2.04-0.16c-0.59-0.1-1.08-0.22-1.42-0.32
						C10.46-43.54,10.26-43.61,10.26-43.61z"/>
					<path class="st4" d="M16.83-42.05c0,0,0.74,0.2,1.89,0.29c0.14,0.01,0.29,0.02,0.45,0.03c0.16,0,0.32,0,0.48,0
						c0.33,0.01,0.68-0.02,1.04-0.05c0.18-0.01,0.36-0.05,0.55-0.08c0.19-0.04,0.37-0.07,0.56-0.11l0.28-0.1l0.14-0.05l0.13-0.08
						l0.26-0.15c0.08-0.06,0.16-0.12,0.24-0.19c0.63-0.52,1.03-1.24,1.27-1.94c0.24-0.71,0.32-1.41,0.28-2.01
						c-0.05-0.6-0.21-1.09-0.42-1.39c-0.08-0.16-0.2-0.25-0.27-0.31c-0.07-0.06-0.12-0.08-0.15-0.06c-0.02,0.02-0.02,0.08,0.01,0.16
						c0.03,0.09,0.1,0.19,0.14,0.34c0.13,0.29,0.23,0.73,0.25,1.27c0.02,0.54-0.06,1.19-0.27,1.84c-0.21,0.65-0.56,1.32-1.1,1.8
						c-0.07,0.06-0.13,0.12-0.2,0.18l-0.22,0.14l-0.11,0.07l-0.12,0.05l-0.24,0.1c-0.18,0.05-0.35,0.09-0.53,0.13
						c-0.18,0.04-0.35,0.09-0.52,0.11c-0.35,0.05-0.69,0.11-1.01,0.12c-0.16,0.01-0.32,0.02-0.47,0.03c-0.15,0-0.3,0-0.44,0
						C17.59-41.92,16.83-42.05,16.83-42.05z"/>
					<g>
						<path class="st5" d="M3.31-44.48c0.3-4.04,2.35-4.96,8.57-5.44c6.22-0.48,6.52,1.3,6.52,1.3s0.56-0.65,2.74-0.61
							c2.17,0.04,2.61,1.13,2.61,1.13c2.35-0.78,4.7-0.35,4.43,3.44c-0.26,3.78-2.22,4.22-4.48,4.22c-1.08,0-1.81,0.24-2.28,0.48
							c-0.96-0.32-3.16,0.02-5.75,2.73c0,0,0-1.43,1.3-2.83c1.3-1.41-4.89-1.41-6.26,2.44c0,0-1.92-4.11-6.13-3.39
							c-0.07,0.01-0.14,0.03-0.21,0.05C3.72-41.6,3.17-42.68,3.31-44.48z M10.1-44.07c4.86,2.28,7.17,0,7.17,0
							c-0.97,1-0.98,1.59,1.3,2.08c2.71,0.59,4.47-0.94,4.47-0.94c-2.42,2.32,3.58,4.05,4.78-0.25c0.33-1.19,0.61-3.3-1.06-3.69
							c-1.95-0.46-2.54,0.95-2.66,1.31c0.1-0.39,0.38-2.07-2.18-2.3c-2.91-0.26-3.45,1.44-3.45,1.44c0.13-0.59,0.68-2.22-3.39-2.63
							C11.52-49.42,5.24-46.35,10.1-44.07z"/>
					</g>
				</g>
				<path class="st6" d="M27.81-45.66c0,0,0.52,2.05-0.83,3.78c-1.19,1.53-3.04,1.06-3.04,1.06S27.57-40.79,27.81-45.66z"/>
				<path class="st6" d="M23.59-47.03c0,0,0.52,2.05-0.83,3.78c-1.19,1.53-3.04,1.06-3.04,1.06S23.35-42.16,23.59-47.03z"/>
				<path class="st6" d="M17.9-48.11c0,0,0.52,2.05-0.83,3.78c-1.19,1.53-3.04,1.07-3.04,1.07S17.66-43.24,17.9-48.11z"/>
			</g>
		</g>
		<g>
			<g>
				<path class="st0" d="M28.38,19.11c2.86,3.46,15-0.63,22.44-13.16c7.44-12.52,7.55-27.89,5.44-27.92
					c-1.3-0.02-1.48,4.52-1.48,4.52s0.09-4.96-1.48-5.22c-1.57-0.26-1.83,4.87-1.83,4.87s0.09-4.8-1.39-4.88
					c-1.48-0.08-1.57,4.36-1.57,4.36s0.22-4.51-1.61-4.5c-1.83,0.01-2.55,2.48-4.49,9.78c-1.94,7.31-4.42,12.39-9.25,16.96
					C28.34,8.5,25.25,15.33,28.38,19.11z"/>
				<path class="st2" d="M56.42-21.92c-0.05-0.02-0.11-0.04-0.17-0.04c-1.3-0.02-1.48,4.52-1.48,4.52s0.09-4.96-1.48-5.22
					c-1.57-0.26-1.83,4.87-1.83,4.87s0.09-4.8-1.39-4.88c-1.32-0.07-1.53,3.48-1.56,4.22c0.02-0.75,0.02-4.37-1.61-4.36
					c-0.37,0-0.63,0.11-0.81,0.33c-1.06-0.1-3.08-0.49-4.14-1.92c-2.26-3.04-0.68-6.86,1.52-4.83c2.3,2.13,3.83,1.33,4.57-0.57
					c0.74-1.91-1.04-4.43,0.87-5.17c1.91-0.74,3.04,1.48,3.04,1.48s0.57-1.96,3.52,0.78c0,0,1.35-0.57,2.87,2.09
					C59.79-28.08,59.06-24.13,56.42-21.92z"/>
				<g>
					<path class="st4" d="M50.95-26.52c0,0,0.12-0.07,0.31-0.24c0.19-0.17,0.44-0.43,0.68-0.79c0.24-0.36,0.48-0.82,0.63-1.34
						c0.16-0.53,0.22-1.11,0.24-1.69c0.03-1.17-0.26-2.36-0.75-3.11c-0.24-0.38-0.5-0.66-0.72-0.81c-0.21-0.15-0.36-0.2-0.4-0.15
						c-0.08,0.11,0.36,0.46,0.74,1.17c0.4,0.7,0.71,1.78,0.74,2.9c0.02,0.56-0.01,1.12-0.12,1.62c-0.11,0.51-0.29,0.97-0.49,1.33
						c-0.2,0.37-0.42,0.65-0.59,0.83C51.06-26.61,50.95-26.52,50.95-26.52z"/>
					<path class="st4" d="M54.53-26c0,0,0.11-0.08,0.3-0.24c0.18-0.16,0.43-0.4,0.69-0.74c0.26-0.33,0.52-0.75,0.71-1.25
						c0.2-0.49,0.3-1.07,0.3-1.64c0.01-0.14,0-0.28-0.01-0.43c-0.01-0.14-0.01-0.28-0.03-0.42c-0.05-0.28-0.09-0.56-0.2-0.81
						c-0.16-0.52-0.46-0.95-0.74-1.28c-0.3-0.31-0.57-0.55-0.8-0.66c-0.22-0.12-0.35-0.17-0.39-0.12c-0.04,0.05,0.05,0.18,0.21,0.35
						c0.17,0.16,0.39,0.41,0.65,0.71c0.49,0.61,0.92,1.59,0.92,2.67c0.03,0.54-0.03,1.06-0.17,1.55c-0.14,0.48-0.35,0.91-0.57,1.25
						c-0.22,0.35-0.44,0.61-0.6,0.79C54.64-26.09,54.53-26,54.53-26z"/>
				</g>
			</g>
			<g class="st1">
				<path class="st0" d="M28.38,19.11c2.25,2.72,10.26,0.76,17.19-6.31c-5.44,5.14-5.69,1.41-3.43-5.84
					c1.97-6.35,3.08-9.37,1.19-8.22c-1.89,1.15,0.81-4.5,2.07-12.53c1.09-6.96,1.4-7.53,2.13-7.48c0.73,0.05,0.67,3.83,0.56,6.35
					c0,0,0.65-5.44,1.87-5.13c1.22,0.3,1.12,4.3,0.98,5.65c0,0,1.07-5.25,2.12-4.82c1.04,0.43,1.65,2.85,1.1,5.83
					c0.07-0.39,0.76-4.33,1.99-3.79c1.29,0.57,0.94,6.67-0.74,12.54c2.75-9.22,2.39-17.3,0.86-17.32c-1.3-0.02-1.48,4.52-1.48,4.52
					s0.09-4.96-1.48-5.22c-1.57-0.26-1.83,4.87-1.83,4.87s0.09-4.8-1.39-4.88c-1.32-0.07-1.53,3.48-1.56,4.22
					c0.02-0.75,0.02-4.37-1.61-4.36c-1.83,0.01-2.55,2.48-4.49,9.78c-1.94,7.31-4.42,12.39-9.25,16.96
					C28.34,8.5,25.25,15.33,28.38,19.11z"/>
			</g>
			<path class="st3" d="M56.18-11.78c0,0-0.72,15.26-11.74,25.15C44.44,13.36,51.94,2.89,56.18-11.78z"/>
			<g>
				<path class="st5" d="M41.95-24.39c0.42,0.57,0.99,0.96,1.59,1.25l0,0c-2-1.02-3.05-4.42-1.57-5.34c1.48-0.91,2.3,1.91,4.65,1.96
					c2.35,0.04,2.52-2.78,2.44-4.78c-0.09-2,1.96-1.96,2.83-0.13c0.87,1.83-0.34,4.4-0.34,4.4s1.32-0.96,1.47-3.27
					c0.16-2.3,2.03-2.43,2.74-0.29c0.71,2.14-0.73,4.08-0.73,4.08c1.79-1.48,1.42-4.41,2.68-4.08c1.13,0.3,1.34,2.36,1.37,2.78
					c-0.02-1.01-0.26-1.97-0.73-2.79c-1.52-2.65-2.87-2.09-2.87-2.09c-2.96-2.74-3.52-0.78-3.52-0.78s-1.13-2.22-3.04-1.48
					c-1.91,0.74-0.13,3.26-0.87,5.17c-0.74,1.91-2.26,2.7-4.57,0.57C41.26-31.26,39.69-27.44,41.95-24.39z"/>
			</g>
			<path class="st6" d="M58.27-29.81c0,0,1.87,3.28-1.39,7C56.88-22.81,58.8-26.27,58.27-29.81z"/>
			<path class="st6" d="M54.91-31.67c0,0,2.35,2.4-0.56,5.66C54.36-26,56.09-28.83,54.91-31.67z"/>
			<path class="st6" d="M50.77-32.42c0,0,2.94,2.4,0.03,5.66C50.8-26.75,52.4-29.58,50.77-32.42z"/>
		</g>
		<g>
			<path class="st0" d="M-22.54,30.41c0,0-1.3,0.07-2.54-0.07c-0.8-0.08,0.47,1.83,3.67,2.98c-3.39,16.1-22.63,18.04-25.66,16
				c-2.7-1.81-4.1-25.62,13.67-28.17C-31.91,24.15-28.25,28.83-22.54,30.41z"/>
			<g class="st1">
				<path class="st0" d="M-25.08,30.35c-0.8-0.08,0.47,1.83,3.67,2.98c-1.53,7.27-6.3,11.66-11.34,14.09
					c5.54-2.99,6.02-8.57,2.97-6.19c-7.56,5.92-15.48,5.27-15.48,5.27c-0.61-8,1.77-12.32,4.73-16.18c2.96-3.86,1.01-4.87-2.17-3.14
					c-4.2,2.28-5.63,10.45-5.65,10.56c1.09-7.14,5.04-15.16,14.94-16.58c1.49,2.99,5.16,7.66,10.86,9.25
					C-22.54,30.41-23.84,30.48-25.08,30.35z"/>
			</g>
			<g>
				<path class="st2" d="M-29.95,38.5c-4.09,6-11.57,7.57-14.78,7.3c0,0-0.89-14.5,14.06-20.67c0.97,1.1,2.14,2.18,3.51,3.11
					C-27.03,30.58-27.29,34.59-29.95,38.5z"/>
			</g>
			<g>
				<path class="st2" d="M-27.17,28.25c0.14,2.33-0.12,6.34-2.79,10.25c-1.2,1.76-2.69,3.14-4.29,4.2
					c-3.58-1.17-4.87-8.59,4.21-16.87C-29.2,26.69-28.24,27.52-27.17,28.25z"/>
			</g>
			<path class="st3" d="M-46.82,48.76c0,0,6.87,3.39,16.34-3.91C-30.48,44.85-38.65,49.04-46.82,48.76z"/>
		</g>
		<path class="st7" d="M-4.05,43.44c0,0,0.18,4.76,3.91,5.91c1.13,0.35,0.17-1.74,0-4.61c0,0,3.63,4.31,10.64,3.41
			c1.53-0.2-3.08-4.02-3.08-4.02c3.22,1.78,9.52,1.06,10.22,0.04c0.48-0.7-3.78-1.52-3.78-1.52s11.12,0.83,19.05-10.7
			c5.62-8.18,7.53-20.46,7.39-25.57c-0.09-3.13-1.04-1.48-2.78,0c0,0,5.95-5.55,2.79-14.87c-0.81-2.39-1.07,1.06-2.25,3.67
			c0,0,1.79-5.36-1.2-9.76c-0.83-1.22,0.09,3.17-1.61,5.96c0,0,1.24-4.93-3.46-11.59c-4.7-6.65-9.41-7.96-8.48-6.26
			c1.57,2.87,1.24,4.7,1.24,4.7s-1.7-4.45-5.48-6.54c-2.04-1.13-1.22,0.61-1.22,0.61s-1.57-2.24-5.78-3.39
			c-1.43-0.39-0.09,1.22,0.3,3.52c0,0-1.52-3.78-6.67-4.31c-5.15-0.52-9.07,4.57-9.07,4.57s1.11-1.96,3-4.04
			c1.89-2.09-6.59-0.72-10.57,4.5c0,0,0.65-1.46,2.78-4.11C-6-33.61-13-31.83-18.22-25.44c0,0,0.87-1.57,2.61-3.96
			c1.74-2.39-5.22-2.13-11.04,7.65c0,0,0.33-1.37,0.96-3.65c0.48-1.74-4.09,1.3-4.61,6.56c0,0-0.11-3.19,0.28-6.07
			c0.39-2.87-8.81,1.5-7.7,19.96c0,0-0.65-1.11-1.17-3.85c-0.52-2.74-3.07,4.76,0,11.48c0,0-1.13-1.83-2.67-2.28
			c-1.11-0.33-0.31,1.26,0,2.02c1.24,3.07,3,21.2,9,25.11c0,0-1.04,0.34-2.93-0.78c-1.76-1.04,2.15,9.28,11.22,11.8
			c0,0-1.3,0.07-2.54-0.07c-1.24-0.13,2.51,4.59,10.76,3.72c1.24-0.13-0.2,1.11-1.76,1.44c-1.57,0.33,2.67,2.87,8.74,0.33
			c0,0-0.78,1.37-2.02,2.22C-12.35,47.05-7.22,48.24-4.05,43.44z"/>
		<g class="st8">
			<path class="st7" d="M37.52,6.39c1.74-1.48,2.7-3.13,2.78,0c0.14,5.11-1.77,17.39-7.39,25.57c-7.93,11.53-19.05,10.7-19.05,10.7
				s4.26,0.83,3.78,1.52c-0.7,1.02-7,1.74-10.22-0.04c0,0,4.61,3.83,3.08,4.02c-7.01,0.9-10.64-3.41-10.64-3.41
				c0.17,2.87,1.13,4.96,0,4.61c-3.73-1.15-3.91-5.91-3.91-5.91c-3.17,4.8-8.31,3.61-7.07,2.76c1.24-0.85,2.02-2.22,2.02-2.22
				c-6.07,2.54-10.31,0-8.74-0.33c1.57-0.33,3-1.57,1.76-1.44c-8.25,0.87-12-3.85-10.76-3.72c1.24,0.13,2.54,0.07,2.54,0.07
				c-9.07-2.52-12.98-12.85-11.22-11.8c1.9,1.12,2.93,0.78,2.93,0.78c-6-3.91-7.76-22.05-9-25.11c-0.31-0.76-1.11-2.35,0-2.02
				c1.55,0.45,2.67,2.28,2.67,2.28c-3.07-6.72-0.52-14.22,0-11.48c0.52,2.74,1.17,3.85,1.17,3.85c-1.11-18.46,8.09-22.83,7.7-19.96
				c-0.39,2.87-0.28,6.07-0.28,6.07c0.52-5.26,5.09-8.3,4.61-6.56c-0.63,2.28-0.96,3.65-0.96,3.65c5.83-9.78,12.78-10.04,11.04-7.65
				c-1.74,2.39-2.61,3.96-2.61,3.96C-13-31.83-6-33.61-8.13-30.96c-2.13,2.65-2.78,4.11-2.78,4.11c3.98-5.22,12.46-6.59,10.57-4.5
				c-1.89,2.09-3,4.04-3,4.04s3.91-5.09,9.07-4.57c5.15,0.52,6.67,4.31,6.67,4.31c-0.39-2.3-1.74-3.91-0.3-3.52
				c4.21,1.15,5.78,3.39,5.78,3.39s-0.83-1.74,1.22-0.61c3.78,2.09,5.48,6.54,5.48,6.54s0.33-1.83-1.24-4.7
				c-0.93-1.7,3.78-0.39,8.48,6.26c4.7,6.65,3.46,11.59,3.46,11.59c1.7-2.78,0.78-7.17,1.61-5.96c2.99,4.41,1.2,9.76,1.2,9.76
				c1.17-2.61,1.44-6.07,2.25-3.67C43.48,0.84,37.52,6.39,37.52,6.39z M37.35-1.27c-0.97-0.52-2.6,2.73-2.6,2.73
				c1.24-4.99,0.19-7.19-0.98-7.32c-1.17-0.13-1.5,2.72-1.5,2.72c0.22-13.23-5.35-17.76-6.59-17.5c-1.24,0.26-0.84,3.84-0.84,3.84
				c-1.43-4.97-4.57-8.25-5.57-8.08c-1,0.17,0,2.89,0,2.89c-1.13-2.85-3.55-5.4-5.15-5.31c-1.6,0.09-0.35,3.8-0.35,3.8
				s-2.07-6.11-9.49-5.82c-5.54,0.21-9.2,4.36-9.2,4.36s2.64-5.31-1.13-4.2c-3.77,1.11-6.58,5.24-6.58,5.24
				c1.82-4.06,2.47-6.26-1.39-3.45c-3.86,2.81-5.84,5.61-5.84,5.61c1.48-4.01,1.4-6-2.24-3.24c-3.64,2.76-5.17,6.28-5.17,6.28
				c0.87-4.19-0.65-3.71-1.99-1.07c-0.86,1.69-1.49,5.17-1.49,5.17c0.43-9.05-2.78-5.78-3.9-0.48c-1.64,7.79-0.8,14.69-0.8,14.69
				c-1.43-3.5-2.83-4.68-2.15-0.4c0.68,4.28,1.72,8.08,1.72,8.08c-4.43-5.8-2.35,7.07,1.82,14.78c4.57,8.44,6.83,8.63,6.83,8.63
				c-4.33-1.26-7.62-0.95-2.29,3.58c5.24,4.44,13.12,5.49,13.12,5.49c-4.33,0-6.57,0.99-4.73,1.55c4.51,1.37,10.97-0.17,10.97-0.17
				c-3.6,1.12-6.37,3.45-3.25,3.5c3.12,0.04,7.31-2.38,7.31-2.38c-2.87,1.98-3.93,4.2-1.5,3.64c2.43-0.56,4.46-4.23,4.46-4.23
				c-0.52,5.27,2.76,7.56,2.38,5.31c-0.38-2.25,0-4.72,0-4.72c2.95,4.65,9.01,4.89,7.87,2.85c-1.34-2.4-3.37-3.79-3.37-3.79
				c2.9,1.68,9.71,4.4,10.05,2.68c0.35-1.73-3.06-2.45-3.06-2.45c26,1.51,28.81-30.28,26.81-31.23c-1.85-0.87-4.13,2.33-4.13,2.33
				C38.65,4.69,38.33-0.75,37.35-1.27z"/>
		</g>
	</g>
	<g>
		<g>
			<g>
				<g>
					<path class="st9" d="M-31.28,28.87c0,0,5.93-4.82,11.86,4.52c0.3-2.61,3.62-2.01,3.22,2.61c-0.4,4.62-5.02,5.83-4.32,3.42
						c-2.51,2.81-18.39,1.21-22.51-6.53c-1.21-2.01,4.22,1.21,6.83,0.2c2.61-1,3.01-1.51,2.61-3.21c-0.4-1.71,1.81-4.62,3.42-3.92
						C-28.57,26.66-31.98,27.47-31.28,28.87z"/>
					<path class="st9" d="M15.04,35.8c0,0-0.2-3.62,4.12-6.33c4.32-2.71,6.83-1.61,7.54-0.9c-0.7-1.41-1.91-2.41-0.7-3.02
						c1.21-0.6,3.42-0.1,3.72,4.12c0.1,2.31,4.12,5.32,5.93,3.22c1.81-2.11,5.12-3.01,2.81,1.51c-2.31,4.52-14.77,10.95-21.7,4.62
						c1.51,2.21-3.52,1.71-4.62-0.9C11.02,35.5,14.23,29.68,15.04,35.8z"/>
					<path class="st9" d="M-29.27-4.99c0,0-1.41-7.43,2.11-12.86c3.52-5.43,8.34-1.71,11.96,1.31c3.62,3.01,10.55,7.64,14.27,5.83
						c-3.32-0.8-4.32-3.11-4.02-4.12c0.3-1,4.92,2.31,8.44,0.2c3.52-2.11,3.62,1.81,0.7,3.32c4.12-0.4,7.54-2.71,10.75-4.12
						c3.22-1.41,9.95-0.9,9.44,7.23c0.9-3.42,2.41-4.02,3.01-0.9c0.6,3.11-0.7,10.95-12.76,6.83c-2.41-1.21,0.7-0.8,2.41-1.51
						C9.71-5.49,4.69-7.3-3.85-6.7c-8.54,0.6-12.46,4.22-15.98,6.13c-3.52,1.91-5.53,2.21-8.14-0.2c0.2,2.11,3.11,2.31,3.32,3.72
						c0.2,1.41-5.12,1.71-8.24-2.01C-36-2.78-33.69-7-31.99-6.7C-30.28-6.39-29.17-1.57-29.27-4.99z"/>
					<path class="st9" d="M5.14,10.79c0,0,0.25-4.42,2.61-5.27c-1,0-2.71,1.16-2.71,1.16S4.49,3.5,10.52,3.9
						c2.86-1.46,10.45-2.01,12.61,1.36c-1.71-0.4-4.97-0.7-4.97-0.7s2.31,0.45,3.22,2.91C19.81,6.52,17,5.91,17,5.91
						s6.63,5.43,0.65,14.32c0.85,0.7,2.26,0.6,3.11-0.55c0.85-1.15,1.61,0.15,1.21,1.46c-0.4,1.31-3.11,3.12-6.53,0.45
						c-1.61-1.26-5-6.51-6.58-7.79c-2.06-1.66-4.87-1.66-5.38,0.7C2.58,13.75,3.58,11.29,5.14,10.79z"/>
					<path class="st9" d="M-23.04,14.19c0,0,1.51,1.68,2.97,2.41c-1.29-2.35-1.23-6.78,0.28-9.81c-1.06,0.9-1.35,1.51-1.35,1.51
						s-0.28-3.14,1.85-4.54c-2.47,0.73-3.03,1.91-3.03,1.91s-1.35-3.92,6.5-3.7c5.72,0.34,8.02,2.13,8.75,2.92
						c0.56,0.67-0.06,0.84-0.51,0.56c-0.45-0.28,1.63,2.35,1.85,4.93c1.07,0.11,1.07,1.01,1.23,1.79c-0.78-1.06-2.11-0.57-4.58,1.78
						c-2.47,2.36-5.89,7.36-8.36,6.49C-21.67,18.95-22.03,17.21-23.04,14.19z"/>
					<g>
						<path class="st10" d="M-6.26,11.09c0,0,0.07-6.5-5.75-7.77c-4.48-0.75-8.14,2.39-8.22,7.99c-0.07,5.6,1.94,8.29,3.44,7.77
							c1.49-0.52,6.27-5.3,7.99-6.72C-7.08,10.95-6.26,11.09-6.26,11.09z"/>
						<g>
							<path class="st9" d="M-6.26,11.09c0,0-0.82-0.15-2.54,1.27c-1.72,1.42-6.5,6.2-7.99,6.72c-1.49,0.52-3.51-2.16-3.44-7.77
								c0.07-5.6,3.73-8.74,8.22-7.99C-6.18,4.6-6.26,11.09-6.26,11.09z M-8.17,9.08c-0.14-2.11-1.69-4.51-5.74-4.56
								c-5.93,0.25-4.82,8.88-4.82,8.88c0.87,5.05,3.62,3.29,6.41,0.44C-9.76,11.24-8.02,11.19-8.17,9.08z"/>
						</g>
						<path class="st10" d="M5.47,11.69c0,0,0.22-6.95,6.8-7.09c6.57-0.15,9.63,10.94,3.92,16.32c-3.25-3.36-4.43-5.05-5.62-6.51
							C9.37,12.95,7.57,11.03,5.47,11.69z"/>
						<g>
							<path class="st9" d="M16.18,20.91c-3.25-3.36-4.43-5.05-5.62-6.51c-1.19-1.45-2.99-3.38-5.09-2.72c0,0,0.22-6.95,6.8-7.09
								C18.83,4.45,21.9,15.54,16.18,20.91z M13.32,5.78C8.9,4.97,7.69,8.94,7.69,8.94s-0.95,1.61,0.65,2.26
								c1.61,0.65,3.27,2.46,5.23,4.97c1.96,2.51,2.71,2.81,4.07,0.2C18.99,13.76,17.74,6.58,13.32,5.78z"/>
						</g>
						<g>
							<path class="st11" d="M-11.22,10.44c0.17-1.22-0.68-2.38-1.89-2.58c-1.21-0.2-2.33,0.63-2.5,1.86
								c-0.17,1.22,0.68,2.38,1.89,2.57C-12.51,12.5-11.39,11.67-11.22,10.44z"/>
							<path class="st12" d="M-11.61,10.35c0.14-1.01-0.56-1.95-1.55-2.12c-1-0.16-1.92,0.52-2.05,1.53
								c-0.14,1.01,0.56,1.96,1.55,2.12C-12.67,12.04-11.75,11.36-11.61,10.35z"/>
							<path class="st13" d="M-12.23,10.25c0.09-0.63-0.35-1.22-0.97-1.33c-0.62-0.1-1.2,0.33-1.29,0.96
								c-0.09,0.63,0.35,1.22,0.97,1.33C-12.89,11.31-12.32,10.88-12.23,10.25z"/>
							<path class="st10" d="M-13.69,10.85c-0.12-0.3-0.44-0.54-0.72-0.53c-0.28,0.01-0.4,0.25-0.28,0.55
								c0.12,0.3,0.44,0.54,0.72,0.53C-13.69,11.39-13.57,11.14-13.69,10.85z"/>
							<path class="st10" d="M-14.52,9.74c0.02-0.13-0.07-0.25-0.2-0.27c-0.13-0.02-0.24,0.07-0.26,0.2
								c-0.02,0.13,0.08,0.25,0.2,0.27C-14.65,9.95-14.53,9.87-14.52,9.74z"/>
						</g>
						<g>
							<path class="st11" d="M14.26,11.29c0.15-1.1-0.61-2.14-1.7-2.32c-1.09-0.18-2.1,0.57-2.25,1.67c-0.15,1.1,0.61,2.14,1.7,2.32
								C13.1,13.14,14.11,12.39,14.26,11.29z"/>
							<path class="st12" d="M13.91,11.21c0.12-0.91-0.5-1.76-1.4-1.91c-0.9-0.15-1.72,0.47-1.85,1.37c-0.12,0.91,0.5,1.76,1.4,1.91
								C12.96,12.73,13.79,12.11,13.91,11.21z"/>
							<path class="st13" d="M13.35,11.11c0.08-0.57-0.31-1.1-0.88-1.19c-0.56-0.09-1.08,0.29-1.16,0.86
								c-0.08,0.57,0.31,1.1,0.88,1.2C12.75,12.07,13.27,11.68,13.35,11.11z"/>
							<path class="st10" d="M12.03,11.65c-0.11-0.27-0.4-0.48-0.65-0.48c-0.25,0-0.36,0.22-0.25,0.49c0.11,0.27,0.4,0.48,0.65,0.48
								C12.03,12.14,12.14,11.92,12.03,11.65z"/>
							<path class="st10" d="M11.29,10.65c0.01-0.12-0.07-0.23-0.18-0.24c-0.11-0.02-0.22,0.06-0.23,0.18
								c-0.01,0.12,0.07,0.23,0.18,0.24C11.17,10.85,11.28,10.77,11.29,10.65z"/>
						</g>
						<g>
							<g>
								<path class="st9" d="M4,10.71c-1.7,0.92-2.6,2.71-2.37,4.66c0.03,0.21-0.23-0.04-0.25-0.13c-0.37-1.55,0.18-5,2.35-4.97
									C3.87,10.27,4.18,10.62,4,10.71z"/>
								<path class="st9" d="M0.52,11.48c-0.69,1.86-0.55,3.23-0.1,5.12c0.05,0.21-0.17,0.05-0.21-0.05
									c-0.72-1.76-1.28-3.78-0.1-5.51C0.25,10.81,0.58,11.3,0.52,11.48z"/>
								<path class="st9" d="M-2.47,16.07c-0.1,0.12-0.32-0.17-0.25-0.27c0.99-1.46,1.17-3.48,0.48-5.09
									c-0.21-0.49,0.25-0.36,0.44-0.05C-0.88,12.28-1.33,14.67-2.47,16.07z"/>
								<path class="st14" d="M21.67,20.39c-0.3,1.61-2.02,2.19-3.48,1.97c-1.71-0.26-3.14-2.13-4.26-3.28
									c-1.61-1.65-2.7-3.69-4.33-5.33c-0.92-0.92-2.07-1.69-3.4-1.8C5.22,11.88,3.97,13,3.59,13.82
									c-0.03,0.06-0.11-0.06-0.11-0.09c-0.11-1.36,1.33-2.79,2.73-2.57c1.78,0.28,3.26,1.61,4.4,2.92
									c1.52,1.75,2.73,3.68,4.39,5.32c1.02,1.02,1.97,2.13,3.52,2.15c1.36,0.02,1.79-0.94,2.6-1.75
									C21.34,19.6,21.71,20.22,21.67,20.39z"/>
								<path class="st14" d="M3.88,11.2c-1.7,0.92-2.6,2.71-2.37,4.66c0.03,0.21-0.23-0.04-0.25-0.13c-0.37-1.55,0.18-5,2.35-4.97
									C3.74,10.76,4.06,11.11,3.88,11.2z"/>
								<path class="st14" d="M0.4,11.97c-0.69,1.86-0.55,3.23-0.1,5.12c0.05,0.21-0.17,0.05-0.21-0.05
									c-0.72-1.76-1.28-3.78-0.1-5.51C0.13,11.3,0.46,11.79,0.4,11.97z"/>
								<path class="st14" d="M-2.59,16.56c-0.1,0.12-0.32-0.17-0.25-0.27c0.99-1.46,1.17-3.48,0.48-5.09
									c-0.21-0.49,0.26-0.36,0.44-0.05C-1,12.76-1.46,15.16-2.59,16.56z"/>
								<path class="st14" d="M-4.85,12.19c-0.95-2.38-5.29,2.01-6.11,2.77c-1.5,1.37-2.74,3.04-4.5,4.1
									c-1.6,0.96-3.29,0.13-4.72-0.79c-1.5-0.97-2.4-2.65-3.09-4.24c-0.11-0.25,0.13-0.19,0.22-0.03c1.2,2.21,2.69,4.22,5.32,4.68
									c1.18,0.21,2.28-0.86,3.1-1.57c0.81-0.71,1.52-1.53,2.28-2.29c0.73-0.73,1.51-1.41,2.28-2.1c0.87-0.78,1.88-1.22,2.88-1.79
									c1.11-0.62,2.62,0.26,2.81,1.44C-4.3,12.79-4.79,12.34-4.85,12.19z"/>
								<path class="st14" d="M-7.9,4.91c-1.06-0.24-2-0.82-3.08-1.04c-1.19-0.24-2.44-0.2-3.65-0.17
									c-2.08,0.05-5.12,1.06-5.98,3.14c-0.03,0.08-0.16-0.08-0.15-0.14c0.51-2.14,3.03-3.33,5.05-3.65
									c0.24-0.04,0.48-0.07,0.72-0.09c-0.36-0.03-0.73-0.05-1.1-0.06c-1.79-0.03-4.27,0.26-5.76,1.29
									c-0.03,0.02-0.07-0.05-0.05-0.07c1.31-1.49,3.68-1.67,5.56-1.71c1.66-0.04,3.32,0.23,4.89,0.74
									c1.2,0.25,2.36,0.69,3.44,1.31C-7.91,4.51-7.62,4.97-7.9,4.91z"/>
								<path class="st14" d="M21.45,4.59c-2.61-0.75-5.46-0.75-8.22-0.44c2.41,0.14,4.89,0.61,6.89,2.01
									c0.06,0.05,0.23,0.41,0.05,0.34c-1.08-0.41-2.05-1.01-3.19-1.27c-1.45-0.33-2.93-0.5-4.41-0.57c-1.16-0.05-2.3,0-3.45,0.12
									C8.04,4.9,6.76,5.01,5.93,5.77c-0.08,0.07-0.25-0.17-0.2-0.24c0.55-0.81,1.49-1.05,2.42-1.2c0.93-0.15,1.87-0.21,2.8-0.22
									c1.47-0.52,3.23-0.55,4.74-0.57c1.92-0.02,3.76-0.02,5.6,0.61C21.45,4.2,21.68,4.66,21.45,4.59z"/>
							</g>
							<path class="st14" d="M-26.07,2.74c-2.17,0.28-3.96-0.8-5.34-2.37c-1.15-1.3-2.49-4.3-1.1-5.82
								c0.17-0.18,0.52,0.36,0.48,0.52c-1.09,4.02,2.1,7.04,5.89,7.48C-26.09,2.56-25.98,2.73-26.07,2.74z"/>
							<path class="st14" d="M24.06-3.09c-1.88,1.24-4.85,1.27-6.91,0.48c-0.06-0.03-0.2-0.25-0.07-0.22c1.96,0.44,4.78,0.13,6.46-1
								c1.93-1.29,2.13-3.26,2.52-5.34c0.08-0.44,0.62,0.26,0.62,0.49C26.71-6.47,25.98-4.36,24.06-3.09z"/>
							<path class="st14" d="M3.42-12.72c-0.99,1.07-2.94,1-4.26,0.84c-1.39-0.17-2.2-0.79-3.15-1.71C-4.11-13.7-4.14-14-3.93-13.85
								c1.02,0.73,1.85,1.13,3.15,1.23c1.4,0.1,2.45-0.43,3.72-0.89C3.23-13.61,3.62-12.94,3.42-12.72z"/>
						</g>
						<path class="st10" d="M-28.09-5.57c-0.12-0.64-0.19-1.29-0.22-1.92c-0.07-1.62,0.07-3.28,0.35-4.87
							c0.29-1.64,0.9-3.39,2.04-4.65c0.6-0.66,1.49-1.21,2.34-1.47c5.6-1.72,13.67,9.56,20.99,10.6c7.32,1.05,10.75-2.54,15.68-5.23
							c4.93-2.69,9.56-1.19,9.71,4.48c0.15,5.68-6.95,3.81-12.17,2.17C5.39-8.1-8.65-8.1-13.13-5.93C-17.61-3.77-21.27,0.49-25.15-1
							c-1.02-0.48-1.89-1.56-2.33-2.57C-27.76-4.21-27.96-4.88-28.09-5.57z"/>
						<g>
							<path class="st9" d="M-3.4-7.96c-2.09-0.06-5.75,0.28-9.9-0.9c-1.91-0.54-3.38-1.12-4.86-2.37
								c-0.45,1.12-0.73,2.26-1.03,3.43c-0.06,0.23-0.28,0.09-0.39-0.02c-0.41-0.42-0.56-0.95-0.76-1.49
								c-0.16-0.45-0.22-0.92-0.28-1.39c-0.15,0.64-0.25,1.3-0.35,1.93c-0.17,1.03,0.07,2.1-0.02,3.13
								c-0.03,0.34-0.44-0.09-0.49-0.19c-0.82-1.56-1.21-3.36-1.77-5.01c-0.54-1.61-0.29-3.14-0.24-4.73
								c-1.28,1.27-2.18,3.06-3.01,4.6c-1.04,1.93-1.28,3.85-1.41,6.01c-0.01,0.09-0.14-0.05-0.15-0.1c-0.05-1-0.17-2-0.06-3
								c0.12-1.07,0.52-2.11,0.95-3.08c0.85-1.94,2.07-4.21,3.73-5.57c0.21-0.17,0.51,0.33,0.52,0.49c0.07,1.64-0.27,3.17,0.07,4.83
								c0.2,1,0.64,1.93,0.89,2.92c0.13,0.52,0.28,1.05,0.47,1.56c0-0.89-0.11-1.78,0.02-2.66c0.13-0.91,0.3-1.9,0.6-2.77
								c0.1-0.31,0.53,0.28,0.56,0.37c0.33,0.98,0.12,2.38,0.65,3.35c0.29-1.14,0.58-2.23,1.05-3.33c0.05-0.12,0.23-0.04,0.29,0.02
								c1.6,1.4,3.23,2.14,5.27,2.67c0.94,0.24,1.86,0.57,2.81,0.78c0.92,0.21,5.46,0.18,6.39,0.35C-3.75-8.13-3.24-7.96-3.4-7.96z"
								/>
							<path class="st9" d="M22.69-9.01c-0.61-0.47-1.22-0.95-1.77-1.48c-0.24-0.24-0.48-0.47-0.72-0.71
								c-0.02-0.02-0.12-0.16-0.21-0.28c-0.24,0.91-0.22,2.08-0.23,2.97c0,0.16-0.17,0.16-0.27,0.1c-1.23-0.63-2.1-2-2.91-3.07
								c-0.19-0.25-0.28-0.41-0.43-0.68c-0.08-0.15-0.38-0.88-0.28-0.35c0.18,0.96,0.14,1.86,0.42,2.82
								c0.02,0.08,0.03,0.28-0.12,0.22c-0.8-0.31-1.94,0.12-2.76,0.26c-1,0.17-2.03,0.69-3,1.01C8.59-7.61,6.58-7.3,4.68-7.61
								C4.6-7.62,4.48-7.85,4.61-7.84c1.99,0.18,4.08-0.31,5.94-0.96c1-0.35,1.9-0.8,2.95-1c0.74-0.14,1.53-0.46,2.27-0.28
								c-0.34-1.05-0.56-2.23-0.5-3.32c0-0.1,0.08-0.13,0.17-0.12c0.49,0.09,0.79,0.63,1.01,1.04c0.57,1.06,1.57,2.51,2.66,3.19
								c-0.02-1.03-0.04-2.26,0.29-3.21c0.04-0.12,0.21-0.08,0.28-0.04c0.43,0.25,0.66,0.69,1.01,1.04c0.69,0.69,1.5,1.25,2.14,1.99
								C23-9.3,23.11-8.69,22.69-9.01z"/>
						</g>
						<g class="st14">
							<path d="M15.7,39.63c-1.27,0.17-2.54-1.26-2.9-2.33c-0.31-0.92-0.17-3.01,0.81-3.54c0.26-0.14,0.51,0.35,0.51,0.55
								c-0.01,0.65-0.64,1.26-0.76,1.94c-0.25,1.4,0.71,2.89,2.21,3.07C15.67,39.33,15.84,39.61,15.7,39.63z"/>
							<path d="M28.1,31.27c-0.04,0.11-0.22-0.12-0.21-0.2c0.27-1.57,0.55-3.43-1.14-4.32c-0.15-0.08-0.53-0.69-0.15-0.63
								c0.81,0.12,1.55,1.14,1.8,1.87C28.8,29.14,28.51,30.19,28.1,31.27z"/>
						</g>
						<g class="st14">
							<path d="M-19.81,39.7c-0.05,0-0.14-0.11-0.09-0.15c0.92-0.7,1.55-1.22,1.97-2.36c0.41-1.12,0.58-2.57-0.13-3.58
								c-0.05-0.07-0.21-0.42-0.01-0.43c1.06-0.02,1.18,1.81,1.18,2.53C-16.91,37.57-17.9,39.47-19.81,39.7z"/>
							<path d="M-30.96,26.96c-0.85,1.02-1.56,1.97-1.02,3.36c0.08,0.21-0.17,0.09-0.22-0.02c-0.68-1.31-0.46-2.98,0.93-3.73
								C-31.13,26.49-30.86,26.84-30.96,26.96z"/>
						</g>
						<path class="st14" d="M-41.92,32.88c0,0,5.22,4.01,8.9-0.38c2.75-3.52,4.34-5.28,9.29-1.76c4.95,3.52,3.96,6.27,2.36,8.25
							c-1.59,1.98-7.58,7.75-15.06,4.07C-41.54,39.91-45.55,30.07-41.92,32.88z"/>
						<path class="st14" d="M-20.39,37.4c-0.04-0.88-0.3-1.75-0.87-2.55c-0.96-1.35-2.5-2.45-4.09-2.91
							c-1.63-0.48-3.34,0.22-4.4,1.51c-1.02,1.24-1.97,2.71-3.31,3.64c-1.52,1.06-3.25,1.03-4.96,0.46
							c-2.32-0.76-3.79-2.62-5.3-4.43c-0.06-0.82,0.35-1.05,1.39-0.25c0,0,5.22,4.01,8.9-0.38c2.75-3.52,4.34-5.28,9.29-1.76
							C-19.98,33.4-19.64,35.62-20.39,37.4z"/>
						<path class="st14" d="M26.98,29.91c0,0,3.29,4.78,6.42,4.93c3.14,0.15,4.85-3.21,5.83-2.84c0.97,0.37-1.94,10.16-8.59,11.95
							c-6.65,1.79-12.17-2.99-13.74-5.97c-1.57-2.99-0.37-5.38,2.99-7.39C23.24,28.57,26.15,28.64,26.98,29.91z"/>
						<path class="st14" d="M39.06,32.77c-2.1,2.27-4.13,4.97-7.28,5.82c-2.04,0.55-3.96,0.05-5.39-1.54
							c-0.92-1.02-1.65-2.19-2.58-3.2c-0.75-0.82-1.68-1.69-2.83-1.85c-1.27-0.17-2.73,0.4-3.55,1.39c-0.73,0.88-1.07,1.99-1.1,3.13
							c-0.54-2.32,0.75-4.26,3.54-5.93c3.36-2.02,6.27-1.94,7.09-0.67c0,0,3.29,4.78,6.42,4.93c3.14,0.15,4.85-3.21,5.83-2.84
							c0.1,0.04,0.16,0.19,0.17,0.41C39.29,32.53,39.17,32.65,39.06,32.77z"/>
						<g class="st14">
							<path d="M-40.61,38.06c-0.03,0.07-0.14-0.08-0.12-0.13c0.34-1.09,0.25-2.11,0.2-3.23c-0.01-0.32,0.36,0.04,0.39,0.2
								C-40,35.97-40.18,37.09-40.61,38.06z"/>
							<path d="M-37.44,42.02c-0.03,0.1-0.21-0.1-0.19-0.18c0.19-1.06,0.15-2.11,0.06-3.18c-0.09-1.11-0.12-2.31-0.73-3.3
								c-0.16-0.26-0.04-0.6,0.24-0.28C-36.62,36.74-36.87,40.07-37.44,42.02z"/>
							<path d="M-33.48,43.85c-0.03,0.09-0.16-0.1-0.16-0.15c0.02-2.88-0.34-5.51-1.97-7.95c-0.17-0.26-0.04-0.57,0.23-0.27
								C-33.58,37.44-32.67,41.28-33.48,43.85z"/>
							<path d="M-30.14,44.11c-0.04,0.12-0.25-0.13-0.24-0.22c0.3-1.57-0.1-3.41-0.48-4.93c-0.42-1.67-1.38-3.87-3.06-4.64
								c-0.17-0.08-0.48-0.72-0.15-0.62c1.59,0.47,2.78,2.74,3.31,4.19C-30.08,39.71-29.53,42.21-30.14,44.11z"/>
							<path d="M-25.45,42.28c0,0.13-0.19-0.06-0.2-0.13c-0.16-1.87-0.76-3.72-2.01-5.14c-1.31-1.49-2.85-2.54-4.52-3.57
								c-0.11-0.07-0.45-0.6-0.13-0.53c0.91,0.2,1.73,0.93,2.47,1.46c0.97,0.7,1.81,1.63,2.59,2.53
								C-25.97,38.38-25.39,40.35-25.45,42.28z"/>
							<path d="M-22.03,39.28c-0.03,0.11-0.21-0.12-0.21-0.19c0.17-2.24-1.37-4.2-3.02-5.51c-0.77-0.61-1.82-0.97-2.75-1.26
								c-0.9-0.29-1.89-0.08-2.79-0.38c-0.1-0.03-0.39-0.4-0.18-0.42c2.43-0.3,4.91,0.68,6.66,2.34
								C-22.93,35.18-21.45,37.26-22.03,39.28z"/>
						</g>
						<g class="st14">
							<path d="M27.9,31.66c-2.41-0.03-4.32,0.36-6.29,1.84c-1.84,1.38-3.34,2.64-3.68,5.04c-0.01,0.09-0.14-0.05-0.14-0.11
								c0.11-2.37,1.44-3.76,3.2-5.16c1.97-1.56,4.16-2.43,6.7-2.11C27.85,31.19,28.11,31.67,27.9,31.66z"/>
							<path d="M29.21,33.27c-0.98,0.37-1.99,0.55-2.95,1c-0.87,0.4-1.63,1.09-2.28,1.78c-1.65,1.72-2.25,3.68-2,6.02
								c0,0.04-0.04,0-0.05-0.02c-0.7-2.32-0.25-4.06,1.11-6.05c1.16-1.69,3.86-3.37,5.97-3.14C29.1,32.87,29.36,33.21,29.21,33.27z
								"/>
							<path d="M30.41,34.07c-0.41,0.5-0.93,0.89-1.38,1.35c-0.68,0.7-1.13,1.69-1.54,2.57c-0.79,1.72-1.13,3.54-1.01,5.43
								c0.01,0.09-0.09-0.01-0.1-0.05c-0.38-1.81-0.29-3.45,0.39-5.17c0.69-1.75,1.54-3.63,3.24-4.62
								C30.2,33.47,30.54,33.92,30.41,34.07z"/>
							<path d="M31.58,34.61c-1.42,2.61-2.43,5.8-1.98,8.79c0.01,0.04-0.04-0.01-0.04-0.02c-0.35-1.48-0.41-2.93-0.14-4.42
								c0.27-1.51,0.78-3.57,1.77-4.76C31.35,34.02,31.67,34.45,31.58,34.61z"/>
							<path d="M33.58,41.47c0.01,0.13-0.15-0.01-0.16-0.08c-0.12-0.98-0.27-1.86-0.2-2.86c0.07-1.05,0.07-2.33,0.58-3.27
								c0.07-0.13,0.26,0.14,0.24,0.23C33.7,37.53,33.48,39.4,33.58,41.47z"/>
							<path d="M36.49,37.82c-0.49-1.14-0.75-2.41-0.62-3.65c0.02-0.21,0.35,0.11,0.33,0.26c-0.15,1.12,0.03,2.34,0.43,3.4
								C36.68,37.97,36.52,37.9,36.49,37.82z"/>
						</g>
					</g>
				</g>
				<path class="st14" d="M-23.03,39.61c-3.3,4.36-9.9,5.31-14.1,1.71c-0.08-0.07-0.14-0.31,0.02-0.2c2.05,1.48,4.84,1.85,7.28,1.47
					c2.34-0.36,4.43-2.31,6.14-3.8C-23.42,38.56-22.84,39.36-23.03,39.61z"/>
				<path class="st14" d="M34.42,41.56c-2.61,2.15-5.77,2.91-9.05,2.09c-3.4-0.85-5.57-3.34-7.71-5.9
					c-0.13-0.16-0.09-0.45,0.11-0.22c2.14,2.34,4.15,4.48,7.33,5.32c1.29,0.34,2.76,0.22,4.05-0.05c1.63-0.35,3.04-1.56,4.5-2.31
					C34.09,40.27,34.79,41.26,34.42,41.56z"/>
			</g>
			<path class="st14" d="M7.66-4.94C2.6-5.55-2.46-7.07-7.57-5.99c-4.94,1.04-8.75,4.67-13.38,6.38c-0.11,0.04-0.29-0.22-0.19-0.27
				c2.11-0.99,3.96-2.47,5.92-3.73c2.1-1.35,4.35-2.38,6.73-3.12C-6.12-7.46-3.51-7.3-1.07-7.1c2.88,0.23,5.74,0.89,8.54,1.58
				C7.66-5.47,7.98-4.9,7.66-4.94z"/>
			<path class="st14" d="M-7.68,13.56c-2.02,1.89-4.08,3.75-6.11,5.62c-1.66,1.53-3.42,1.65-5.41,0.62
				c-0.06-0.03-0.15-0.24-0.03-0.18c2.59,1.2,4.09,0.06,5.88-1.74c1.68-1.69,3.33-3.49,5.32-4.81C-7.84,12.96-7.53,13.42-7.68,13.56
				z"/>
			<path class="st14" d="M13.62,19.49c-1.47-1.52-7.42-9.19-9.64-5.3c-0.05,0.09-0.18-0.1-0.15-0.16c1.63-4.86,8.8,3.75,9.95,5.15
				C13.96,19.39,13.92,19.8,13.62,19.49z"/>
			<path class="st14" d="M-26.24,4.26c-1.89-0.03-3.57-0.53-5.2-1.47c-1.33-0.76-1.91-2.32-2.73-3.51
				c-0.15-0.21,0.02-0.33,0.18-0.13c0.91,1.19,1.53,2.43,2.92,3.18c1.4,0.75,3.03,1.12,4.59,1.33C-26.31,3.68-25.99,4.26-26.24,4.26
				z"/>
		</g>
	</g>
</symbol>
<use xlink:href="#Leslie"  width="118.15" height="100" x="-59.07" y="-50" transform="matrix(1 0 0 -1 59.0745 50)" style="overflow:visible;"/>
</svg>
