<?xml version="1.0" encoding="utf-8"?>
<!-- Generator: Adobe Illustrator 26.3.1, SVG Export Plug-In . SVG Version: 6.00 Build 0)  -->
<svg version="1.1" id="Layer_1" xmlns="http://www.w3.org/2000/svg" xmlns:xlink="http://www.w3.org/1999/xlink" x="0px" y="0px"
	 viewBox="0 0 121.68 100" style="enable-background:new 0 0 121.68 100;" xml:space="preserve">
<style type="text/css">
	.st0{fill:#C33C82;}
	.st1{fill:#852959;}
	.st2{opacity:0.5;fill:#852959;}
	.st3{fill:#FFC847;}
	.st4{fill:#FDB845;}
	.st5{fill:#51B748;}
	.st6{fill:#FFC826;}
	.st7{fill:#DC5C98;}
	.st8{fill:#EA6E6E;}
	.st9{fill:#FFFFFF;}
	.st10{fill:#D5D7D8;}
	.st11{fill:#82315A;}
	.st12{fill:#F4783F;}
	.st13{fill:#703410;}
	.st14{fill:none;}
</style>
<g>
	<g>
		<g>
			<g>
				<path class="st0" d="M41.59,60.92c0,0-3.2,15.69,2.47,28.31c-5.56,1.18-10.47,6.88-10.7,9.43c-0.23,1.06,2.25,1.26,3.24,0.43
					c-0.03,1.06,3.67,1.29,5.22,0.23c1.06,0.79,13.36-0.52,12.72-3.67c1.02,0.8,1.39,1.71,1.39,1.71s2.03-4.6-1.39-6.36
					c1.44-0.05,2.35,0.43,2.35,0.43s-0.8-2.78-3.9-2.99c-0.64-8.66-0.01-17.09,2.67-24.43C59.34,53.89,46.6,46.45,41.59,60.92z"/>
				<g>
					<path class="st1" d="M48.68,91.48c-1.73,0.91-3.29,1.45-4.65,2.97c-1.23,1.37-2.25,3.05-2.65,4.86
						c-0.08,0.36,0.39-0.02,0.45-0.18c0.6-1.78,1.41-3.28,2.64-4.72c1.19-1.4,2.85-1.76,4.21-2.82
						C48.71,91.57,48.76,91.44,48.68,91.48z"/>
					<path class="st1" d="M43.64,91.48c-3.08,1.11-6.24,3.73-6.9,7.13c-0.08,0.39,0.43-0.02,0.49-0.19c1.03-3.2,3.5-5.35,6.39-6.85
						C43.64,91.55,43.69,91.46,43.64,91.48z"/>
				</g>
			</g>
			<path class="st0" d="M54.53,90.99c1.44-0.05,2.35,0.43,2.35,0.43s-0.8-2.78-3.9-2.99c-0.64-8.66-0.01-17.09,2.67-24.43
				c3.69-10.1-9.05-17.55-14.07-3.08c0,0-0.19,0.94-0.4,2.55c1.62,0.83,4.54,2.2,7.61,3.01c4.64,1.21,1.13,11.32,2.09,20.62
				c0,2.89,1.88,1.19,3.84,2.92c-2.01-0.27-2.65,0.04-2.65,0.04s3.06,1.32,3.29,4.66c-1-1.55-2.51-2.37-2.51-2.37
				s0.33,5.22-6.72,5.97c-3.21,0.16-2.73-2.73-0.7-3.95c2.03-1.23,3.85-2.67,3.85-2.67s-1.82,0.05-4.97,1.44
				c-3.15,1.39-3.63,5.72-5.77,5.56c-2.14-0.16,1.82-6.04,5.93-7.48c-3.47,0-7.22,3.31-8.6,5.56c-0.65,1.04-1.68,1.46-2.38,1.21
				c-0.08,0.24-0.13,0.47-0.15,0.68c-0.23,1.06,2.25,1.26,3.24,0.43c-0.03,1.06,3.67,1.29,5.22,0.23
				c1.06,0.79,13.36-0.52,12.72-3.67c1.02,0.8,1.39,1.71,1.39,1.71S57.95,92.75,54.53,90.99z"/>
			<path class="st2" d="M47.86,70.61c-1.62,0.15-4.2,1.43-5.16-0.65c-0.06-0.13-0.28,0.15-0.24,0.26c0.77,2.18,3.73,1.47,5.31,0.78
				C47.87,70.95,48.09,70.59,47.86,70.61z"/>
			<path class="st0" d="M45.37,87.49c-0.94-2.42-1.92-4.78-2.52-7.32c-0.61-2.6-0.51-5.2-0.27-7.83c0.02-0.19-0.2,0.03-0.22,0.12
				c-0.6,2.74-0.62,5.42-0.09,8.18c0.48,2.45,1.23,5.3,2.58,7.42C45.03,88.33,45.46,87.72,45.37,87.49z"/>
			<path class="st0" d="M45.51,70.28c-0.34,0.01-0.69,0.07-1.03,0.09c-0.5,0.04-0.83-0.27-1.23-0.53c-0.03-0.02-0.09,0.06-0.07,0.08
				c0.3,0.36,0.45,0.74,0.93,0.87c0.36,0.1,0.91,0.09,1.25-0.07C45.44,70.69,45.72,70.28,45.51,70.28z"/>
		</g>
		<g>
			<g>
				<path class="st0" d="M83.91,60.92c0,0,3.2,15.69-2.47,28.31c5.56,1.18,10.47,6.88,10.7,9.43c0.23,1.06-2.25,1.26-3.24,0.43
					c0.03,1.06-3.67,1.29-5.22,0.23c-1.06,0.79-13.36-0.52-12.72-3.67c-1.02,0.8-1.39,1.71-1.39,1.71s-2.03-4.6,1.39-6.36
					c-1.44-0.05-2.35,0.43-2.35,0.43s0.8-2.78,3.9-2.99c0.64-8.66,0.01-17.09-2.67-24.43C66.15,53.89,78.89,46.45,83.91,60.92z"/>
				<g>
					<path class="st1" d="M76.81,91.48c1.73,0.91,3.29,1.45,4.65,2.97c1.23,1.37,2.25,3.05,2.65,4.86c0.08,0.36-0.39-0.02-0.45-0.18
						c-0.6-1.78-1.41-3.28-2.64-4.72c-1.19-1.4-2.85-1.76-4.21-2.82C76.78,91.57,76.73,91.44,76.81,91.48z"/>
					<path class="st1" d="M81.85,91.48c3.08,1.11,6.24,3.73,6.9,7.13c0.08,0.39-0.43-0.02-0.49-0.19c-1.03-3.2-3.5-5.35-6.39-6.85
						C81.85,91.55,81.8,91.46,81.85,91.48z"/>
				</g>
			</g>
			<path class="st0" d="M70.96,90.99c-1.44-0.05-2.35,0.43-2.35,0.43s0.8-2.78,3.9-2.99c0.64-8.66,0.01-17.09-2.67-24.43
				c-3.69-10.1,9.05-17.55,14.07-3.08c0,0,0.19,0.94,0.4,2.55c-1.62,0.83-4.54,2.2-7.61,3.01c-4.64,1.21-1.13,11.32-2.09,20.62
				c0,2.89-1.88,1.19-3.84,2.92c2.01-0.27,2.65,0.04,2.65,0.04s-3.06,1.32-3.29,4.66c1-1.55,2.51-2.37,2.51-2.37
				s-0.33,5.22,6.72,5.97c3.21,0.16,2.73-2.73,0.7-3.95c-2.03-1.23-3.85-2.67-3.85-2.67s1.82,0.05,4.97,1.44
				c3.15,1.39,3.63,5.72,5.77,5.56c2.14-0.16-1.82-6.04-5.93-7.48c3.47,0,7.22,3.31,8.61,5.56c0.65,1.04,1.68,1.46,2.38,1.21
				c0.08,0.24,0.13,0.47,0.15,0.68c0.23,1.06-2.25,1.26-3.24,0.43c0.03,1.06-3.67,1.29-5.22,0.23c-1.06,0.79-13.36-0.52-12.72-3.67
				c-1.02,0.8-1.39,1.71-1.39,1.71S67.54,92.75,70.96,90.99z"/>
			<path class="st2" d="M77.63,70.61c1.62,0.15,4.2,1.43,5.16-0.65c0.06-0.13,0.28,0.15,0.24,0.26c-0.77,2.18-3.73,1.47-5.31,0.78
				C77.62,70.95,77.41,70.59,77.63,70.61z"/>
			<path class="st0" d="M80.12,87.49c0.94-2.42,1.92-4.78,2.52-7.32c0.61-2.6,0.51-5.2,0.28-7.83c-0.02-0.19,0.2,0.03,0.22,0.12
				c0.6,2.74,0.62,5.42,0.09,8.18c-0.48,2.45-1.23,5.3-2.58,7.42C80.47,88.33,80.03,87.72,80.12,87.49z"/>
			<path class="st0" d="M79.98,70.28c0.34,0.01,0.69,0.07,1.03,0.09c0.5,0.04,0.83-0.27,1.23-0.53c0.03-0.02,0.09,0.06,0.07,0.08
				c-0.3,0.36-0.45,0.74-0.93,0.87c-0.36,0.1-0.91,0.09-1.25-0.07C80.05,70.69,79.77,70.28,79.98,70.28z"/>
		</g>
	</g>
	<g>
		<g>
			<path class="st3" d="M8.17,76.51c0,0-0.34,4.35-0.26,8.82c0.04,2.84-2.41-0.12-2.56-7.42C5.5,73.97,8.31,73.55,8.17,76.51z"/>
			<path class="st4" d="M8.17,76.51c0.14-2.96-2.67-2.54-2.82,1.4c0.01,0.42,0.03,0.82,0.05,1.21c0.44,0.17,0.84-0.17,1.32,0
				c0.54,0.2,0.53,0.94,0.52,1.43c-0.05,2-0.2,3.92,0.37,5.83c0.19-0.07,0.31-0.41,0.3-1.05C7.83,80.86,8.17,76.51,8.17,76.51z"/>
			<path class="st3" d="M5.36,77.91c0,0-1.19,3.8-1.34,6.92c-0.15,2.31-1.49-0.97-1.04-4.39C3.42,77.02,6.32,73.89,5.36,77.91z"/>
			<path class="st4" d="M3.84,77.69c0.2,0.28,0.41,0.56,0.46,0.88c0.07,0.46,0.05,0.9-0.01,1.36c-0.17,1.23-0.35,2.45-0.45,3.68
				c-0.04,0.47-0.08,1.21-0.32,1.77c0.23,0.4,0.45,0.31,0.5-0.55c0.15-3.13,1.34-6.92,1.34-6.92C6.04,75.07,4.79,75.8,3.84,77.69z"
				/>
			<path class="st3" d="M3.94,75.98c0,0-1.49,3.35-1.79,6.18c-0.3,2.83-1.53,0.67-1.27-2.61C1.26,74.93,5.43,70.91,3.94,75.98z"/>
			<path class="st4" d="M2.16,75.48c0.34,0.1,0.56,0.49,0.52,0.95c-0.13,1.32-0.83,2.56-0.9,3.89c-0.05,0.93,0.21,2.08,0.03,3.07
				c0.15-0.15,0.28-0.54,0.35-1.23c0.3-2.83,1.79-6.18,1.79-6.18C4.94,72.59,3.4,73.27,2.16,75.48z"/>
			<path class="st3" d="M8.41,76.05c0,0,1.79,1.86,3.13,4.54c1.34,2.68,2.38,0.45,1.19-2.53c-1.19-2.98-3.57-5.21-3.57-5.21
				L8.41,76.05z"/>
			<path class="st4" d="M9.84,75.34c0.02-0.03,0.08-0.12,0.13-0.11c1.24,0.24,1.91,2.19,2.29,3.2c0.39,1.03,0.68,2.07,0.75,3.14
				c0.35-0.52,0.35-1.91-0.29-3.51c-1.19-2.98-3.57-5.21-3.57-5.21l-0.74,3.2c0,0,0.24,0.25,0.61,0.69
				C9.27,76.26,9.52,75.76,9.84,75.34z"/>
		</g>
		<path class="st0" d="M9.73,40.2c0,0-8.91,13.76-7.66,30.34c1.25,13.14,7.34,8.26,8.13,0.94c0.84-7.85,3.51-15.17,6.49-18.95
			C24.81,42.21,20.05,27.38,9.73,40.2z"/>
		<g>
			<path class="st0" d="M9.73,40.2c0,0-0.9,1.4-2.09,3.83c1.7,3.12,4.42,9.35,3.23,15.58C9.3,67.73,7.95,79.02,3.6,76.99
				c2.27,4.27,5.98,0.1,6.59-5.51c0.84-7.85,3.51-15.17,6.49-18.95C24.81,42.21,20.05,27.38,9.73,40.2z"/>
		</g>
		<path class="st5" d="M7.63,46.3c0,0-6.74,14.5-3.78,28.99C0.38,67.73,3.34,53.24,7.63,46.3z"/>
	</g>
	<g>
		<g>
			<path class="st3" d="M114.36,75.83c0,0,0.34,4.35,0.26,8.82c-0.04,2.84,2.41-0.12,2.56-7.42
				C117.03,73.29,114.22,72.87,114.36,75.83z"/>
			<path class="st4" d="M114.36,75.83c-0.14-2.96,2.67-2.54,2.82,1.4c-0.01,0.42-0.03,0.82-0.05,1.21c-0.44,0.17-0.83-0.17-1.33,0
				c-0.54,0.2-0.53,0.94-0.52,1.43c0.05,2,0.2,3.92-0.37,5.83c-0.19-0.07-0.31-0.41-0.3-1.05C114.7,80.18,114.36,75.83,114.36,75.83
				z"/>
			<path class="st3" d="M117.18,77.23c0,0,1.19,3.8,1.34,6.92c0.15,2.31,1.49-0.97,1.04-4.39
				C119.11,76.34,116.21,73.21,117.18,77.23z"/>
			<path class="st4" d="M118.69,77.01c-0.2,0.28-0.41,0.56-0.46,0.88c-0.07,0.46-0.05,0.9,0.01,1.36c0.17,1.22,0.35,2.45,0.45,3.68
				c0.04,0.47,0.08,1.21,0.32,1.77c-0.23,0.4-0.45,0.31-0.5-0.55c-0.15-3.13-1.34-6.92-1.34-6.92
				C116.49,74.39,117.74,75.12,118.69,77.01z"/>
			<path class="st3" d="M118.59,75.3c0,0,1.49,3.35,1.79,6.18c0.3,2.83,1.53,0.67,1.27-2.61C121.27,74.25,117.1,70.23,118.59,75.3z"
				/>
			<path class="st4" d="M120.37,74.8c-0.34,0.1-0.56,0.49-0.52,0.95c0.13,1.32,0.83,2.55,0.9,3.89c0.05,0.93-0.21,2.08-0.03,3.07
				c-0.15-0.15-0.28-0.54-0.35-1.23c-0.3-2.83-1.79-6.18-1.79-6.18C117.59,71.91,119.13,72.59,120.37,74.8z"/>
			<path class="st3" d="M114.12,75.37c0,0-1.79,1.86-3.13,4.54c-1.34,2.68-2.38,0.45-1.19-2.53c1.19-2.98,3.57-5.21,3.57-5.21
				L114.12,75.37z"/>
			<path class="st4" d="M112.69,74.66c-0.02-0.03-0.08-0.12-0.13-0.11c-1.24,0.24-1.91,2.19-2.29,3.2
				c-0.39,1.03-0.68,2.07-0.75,3.14c-0.35-0.52-0.35-1.91,0.29-3.51c1.19-2.98,3.57-5.21,3.57-5.21l0.74,3.2
				c0,0-0.24,0.25-0.61,0.69C113.26,75.58,113.01,75.08,112.69,74.66z"/>
		</g>
		<path class="st0" d="M112.8,39.52c0,0,8.91,13.76,7.66,30.34c-1.25,13.14-7.34,8.26-8.13,0.94c-0.84-7.85-3.51-15.17-6.49-18.95
			C97.72,41.53,102.48,26.7,112.8,39.52z"/>
		<g>
			<path class="st0" d="M112.8,39.52c0,0,0.9,1.4,2.09,3.83c-1.7,3.12-4.42,9.35-3.23,15.58c1.56,8.12,2.91,19.41,7.26,17.38
				c-2.27,4.27-5.98,0.1-6.59-5.51c-0.84-7.85-3.51-15.17-6.49-18.95C97.72,41.53,102.48,26.7,112.8,39.52z"/>
		</g>
		<path class="st5" d="M114.9,45.62c0,0,6.74,14.5,3.78,28.99C122.15,67.06,119.19,52.56,114.9,45.62z"/>
	</g>
	<g>
		<path class="st6" d="M31.34,12.07c0,0-7.58-7.23-19.75,0.46C1.14,20.69,2.18,29.98,3.32,31.71c1.15,1.72-1.94,4.07-3.14-1.3
			c-1.2-5.37,3.34-18.65,18.2-22.72c7.16-1.71,12.4-0.32,15.71,2.35L31.34,12.07z"/>
		<path class="st6" d="M4.48,18.15c0.11-0.23-0.1-0.25-0.22-0.08c-1.77,2.59-2.9,5.12-3.72,8.13c-0.59,2.15-0.52,5.81,1.5,7.26
			c0.43,0.3,0.99-0.71,0.86-1.06c-0.42-1.07-1-1.93-1.29-3.08c-0.39-1.57-0.18-2.84,0.22-4.38C2.45,22.52,3.42,20.4,4.48,18.15z"/>
	</g>
	<g>
		<path class="st6" d="M87.37,8.66c0,0,5.41-9.65,19.65-5.32c8.83,3.34,12.71,13.97,10.73,17.76c-1.35,1.44-2.97,1.26-2.43,2.79
			c0.54,1.53,5.77,0,4.51-6.76C118.56,10.37,113.33-0.18,98.09,0c-9.1,0.27-14.24,7.3-14.24,7.3L87.37,8.66z"/>
		<path class="st6" d="M119.39,17.04c-0.25-3.03-1.32-5.79-3.25-8.12c-0.05-0.06-0.15,0.08-0.12,0.13c1.34,2.14,2.05,4.4,2.44,6.89
			c0.17,1.1,0.24,2.18,0.23,3.3c-0.01,1.47-0.42,2.51-1.1,3.77c-0.33,0.61,0.25,0.62,0.57,0.21
			C119.6,21.39,119.57,19.26,119.39,17.04z"/>
	</g>
	<path class="st6" d="M30.77,8.1c-0.88,0.64-1.74,1.32-2.56,2.05c2.03,0.87,3.13,1.92,3.13,1.92l2.76-2.04
		C33.16,9.27,32.04,8.62,30.77,8.1z"/>
	<path class="st6" d="M87.09,4.12c-2.11,1.66-3.23,3.19-3.23,3.19l3.52,1.35c0,0,0.82-1.46,2.65-2.99
		C89.1,5.09,88.12,4.54,87.09,4.12z"/>
	<path class="st7" d="M15.77,27.94c0,0,12.81-25.33,45.11-25.76c32.3-0.43,47.81,19.64,48.52,36.71
		c0.71,17.07-9.68,19.07-33.3,21.63c-23.62,2.56-59.48,2.28-63.61-5.83C8.37,46.58,10.79,36.9,15.77,27.94z"/>
	<path class="st7" d="M69.15,21.98c-0.25,3.75-2.83,6.64-5.78,6.45c-2.95-0.19-5.14-3.39-4.89-7.15c0.24-3.75,2.83-6.64,5.78-6.45
		C67.21,15.03,69.4,18.23,69.15,21.98z"/>
	<path class="st7" d="M57.9,22.95c-0.22,3.37-2.54,5.96-5.19,5.79c-2.65-0.17-4.61-3.04-4.39-6.41c0.22-3.37,2.54-5.96,5.19-5.79
		C56.16,16.71,58.12,19.58,57.9,22.95z"/>
	<path class="st7" d="M47.19,23.7c-0.58,3.25-2.97,5.54-5.35,5.12c-2.37-0.42-3.82-3.4-3.24-6.65c0.58-3.25,2.97-5.54,5.35-5.12
		C46.32,17.47,47.77,20.45,47.19,23.7z"/>
	<path class="st7" d="M79.67,17.68c1.17,3.34,0.08,6.76-2.44,7.64c-2.52,0.89-5.51-1.1-6.68-4.44c-1.17-3.34-0.08-6.76,2.44-7.65
		C75.5,12.35,78.49,14.34,79.67,17.68z"/>
	<path class="st7" d="M30.85,33.36c0,0,0.86,8.05,16.16,11.12c15.9,3.19,44.25-3.76,48.34-13.12c0.5-1.76,5.6,1.5,4.76,8.11
		c-0.84,6.6-14.47,20.32-42.45,19.32c-24.41-2.56-39.07-7.56-35.28-18.15C25.62,33.5,30.18,29.76,30.85,33.36z"/>
	<path class="st8" d="M31.1,32.03c0,0,1.81,8.92,16.49,11.86c15.25,3.06,43.67-4.27,47.6-13.25c0.48-1.68,5.37,1.44,4.57,7.78
		c-0.8,6.33-14.99,18.76-41.82,17.8c-23.41-2.46-38.59-7.06-34.96-17.21C26.08,32.17,30.45,28.58,31.1,32.03z"/>
	<path class="st8" d="M59.17,48.23c-5.12,0.44-10.17,1.29-15.06,2.9c-1.86,0.61-3.7,1.3-5.51,2.03c5.41,1.31,11.97,2.29,19.35,3.07
		c13.31,0.48,23.51-2.34,30.51-6.07C78.96,47.75,68.88,47.39,59.17,48.23z"/>
	<g>
		<path class="st9" d="M37.27,42.51c1.12,0.84,3.41,1.76,3.69,0.76c0.11-0.41,0.25-0.86,0.38-1.25c-1.69-0.71-3.11-1.51-4.29-2.33
			C36.79,40.46,36.46,41.9,37.27,42.51z"/>
		<path class="st10" d="M37.04,39.69c-0.04,0.13-0.08,0.27-0.12,0.43c0.79,0.68,1.8,1.05,2.69,1.63c0.37,0.24,0.87,0.55,0.94,1.03
			c0.05,0.3,0.03,0.59,0.01,0.88c0.2-0.06,0.34-0.18,0.4-0.39c0.11-0.41,0.25-0.86,0.38-1.25C39.64,41.31,38.23,40.51,37.04,39.69z"
			/>
		<path class="st9" d="M47.25,46.96c2.54,0.82,6.3,1.22,6.3-2.4c-2.13-0.08-4.14-0.3-5.96-0.66c-0.84-0.17-1.64-0.36-2.39-0.56
			C45.13,44.23,45.23,46.31,47.25,46.96z"/>
		<path class="st10" d="M47.59,43.89c-0.84-0.17-1.64-0.36-2.39-0.56c-0.01,0.17-0.02,0.38-0.01,0.61c2.13,1.13,7.34,0.27,6.79,3.3
			c0.93-0.38,1.56-1.19,1.56-2.68C51.42,44.48,49.41,44.26,47.59,43.89z"/>
		<path class="st9" d="M28.82,44.01c-1.85-0.91-3.58,1.51-4.3,2.73c1.17,1.24,2.82,2.35,4.9,3.34C30.73,47.4,31.03,45.1,28.82,44.01
			z"/>
		<path class="st10" d="M28.24,47.57c-1.22,0.08-2.47-0.45-3.44-1.27c-0.11,0.16-0.2,0.31-0.28,0.45c1.17,1.24,2.82,2.35,4.9,3.34
			c0.87-1.76,1.29-3.36,0.85-4.56C30.02,46.57,29.46,47.49,28.24,47.57z"/>
		<path class="st9" d="M57.95,47.92c3.13,0.4,6.12,0.2,6.21-1.36c0.05-0.86-0.09-1.87-0.2-2.49c-2.81,0.34-5.59,0.53-8.22,0.54
			C55.59,45.47,55.47,47.6,57.95,47.92z"/>
		<path class="st10" d="M63.96,44.06c-2.81,0.34-5.59,0.53-8.22,0.54c-0.03,0.17-0.06,0.4-0.07,0.65c0.75,0.21,1.63,0.11,2.37,0.05
			c1.12-0.08,2.24-0.09,3.35,0.11c0.81,0.14,1.53,0.46,1.78,1.3c0.09,0.3,0.14,0.61,0.16,0.92c0.5-0.24,0.8-0.6,0.83-1.07
			C64.21,45.69,64.07,44.69,63.96,44.06z"/>
		<path class="st9" d="M70.3,46.92c3.22-0.08,6.41-1.46,4.81-4.99c-2.54,0.67-5.17,1.23-7.81,1.66
			C67.36,44.73,67.81,46.98,70.3,46.92z"/>
		<path class="st10" d="M75.11,41.92c-2.54,0.67-5.17,1.23-7.81,1.66c0.01,0.16,0.03,0.35,0.06,0.56c1.24-0.04,2.51-0.05,3.72-0.32
			c0.71-0.16,1.74-0.72,2.48-0.49c0.88,0.28,1.03,1.33,1.05,2.3C75.53,44.83,75.88,43.63,75.11,41.92z"/>
		<path class="st9" d="M90.97,38.69c2.54-0.82,1.98-2.41,0.99-4.2c-1.15,0.92-2.53,1.81-4.1,2.65
			C88.15,37.97,88.95,39.34,90.97,38.69z"/>
		<path class="st10" d="M90.18,36.5c0.53-0.29,1.07-0.71,1.6-0.26c0.41,0.35,0.71,0.71,0.92,1.09c0.27-0.8-0.16-1.79-0.75-2.84
			c-1.15,0.92-2.53,1.81-4.1,2.65c0.05,0.14,0.11,0.3,0.19,0.45C88.81,37.36,89.48,36.89,90.18,36.5z"/>
		<path class="st9" d="M81.67,43.71c2.8-0.52,4.64-1.69,2.75-4.93c-1.8,0.77-3.74,1.48-5.78,2.12
			C78.83,41.96,79.47,44.12,81.67,43.71z"/>
		<path class="st10" d="M81.2,40.82c0.61-0.25,1.33-0.63,2.02-0.49c0.91,0.18,1.4,0.93,1.71,1.75c0.44-0.75,0.37-1.81-0.51-3.3
			c-1.8,0.77-3.74,1.48-5.78,2.12c0.03,0.18,0.08,0.4,0.14,0.63C79.63,41.45,80.4,41.15,81.2,40.82z"/>
		<path class="st9" d="M30.23,36.99c1.25,1.67,2.73,2.81,3.43,2.16c0.38-0.35,0.74-0.95,0.99-1.44c-1.61-1.58-2.51-3.1-3.01-4.17
			C30.86,34.18,29.27,35.7,30.23,36.99z"/>
		<path class="st10" d="M31.65,33.55c-0.09,0.08-0.2,0.16-0.31,0.26c0.27,0.69,0.61,1.34,1.03,1.97c0.43,0.66,0.68,1.19,0.74,1.98
			c0.04,0.54-0.11,1.04-0.36,1.49c0.37,0.13,0.69,0.11,0.92-0.1c0.38-0.35,0.74-0.95,0.99-1.44C33.05,36.14,32.14,34.62,31.65,33.55
			z"/>
		<path class="st9" d="M37.28,47.68c-1.02-0.06-1.95,3.09-2.31,4.49c1.78,0.54,3.72,1.03,5.82,1.48c0.2-1.12,0.48-2.72,0.6-3.69
			C41.58,48.36,38.59,47.76,37.28,47.68z"/>
		<path class="st10" d="M40.85,48.79c-0.13,1.32-0.7,2.88-2.18,2.86c-1.13-0.02-2.3-0.17-3.43-0.47c-0.11,0.38-0.21,0.72-0.28,1
			c1.78,0.54,3.72,1.03,5.82,1.48c0.2-1.12,0.48-2.72,0.6-3.69C41.44,49.49,41.22,49.1,40.85,48.79z"/>
		<path class="st9" d="M96.94,41.06c-0.68-0.64-1.32-0.32-2.55,0.84c-0.89,0.83,0.32,2.46,1.07,3.32c1.05-0.99,1.91-1.97,2.58-2.92
			C97.7,41.88,97.28,41.38,96.94,41.06z"/>
		<path class="st10" d="M96.94,41.06c-0.31-0.29-0.62-0.38-0.98-0.28c0.54,0.64,0.86,1.25,0.36,2.17c-0.33,0.61-0.89,1.08-1.48,1.5
			c0.21,0.29,0.43,0.55,0.61,0.77c1.05-0.99,1.91-1.97,2.58-2.92C97.7,41.88,97.28,41.38,96.94,41.06z"/>
		<path class="st9" d="M89.69,45.89c-1.08-0.88-3.75,0.64-4.79,1.32c-0.79,0.52,0.45,2.99,1.09,4.15c2.07-0.94,3.91-1.96,5.51-3.03
			C91.06,47.55,90.35,46.43,89.69,45.89z"/>
		<path class="st10" d="M89.69,45.89c-0.31-0.25-0.76-0.3-1.25-0.24c0.48,0.48,0.94,1.03,0.82,1.72c-0.11,0.62-0.44,1.16-0.94,1.54
			c-0.88,0.66-1.9,0.95-2.93,1.23c0.21,0.45,0.44,0.88,0.61,1.2c2.07-0.94,3.91-1.96,5.51-3.03C91.06,47.55,90.35,46.43,89.69,45.89
			z"/>
		<path class="st9" d="M53.27,52.55c-0.24-1.64-2.67-1.6-4.43-1.48c-1.22,0.08-1.42,2.4-1.43,3.79c1.86,0.29,3.79,0.56,5.8,0.81
			C53.32,54.78,53.41,53.5,53.27,52.55z"/>
		<path class="st10" d="M53.27,53c-0.08-0.53-0.38-0.88-0.82-1.11c-0.03,1.15-0.42,2.32-1.59,2.66c-1.04,0.3-2.35,0.21-3.42,0.18
			c0,0-0.01,0-0.01,0c-0.01,0.2-0.01,0.4-0.01,0.58c1.86,0.29,3.79,0.56,5.8,0.81C53.32,55.22,53.41,53.95,53.27,53z"/>
		<path class="st9" d="M61.64,51.63c-1.93,0.09-1.74,3.15-1.53,4.63c2.22,0.02,4.34-0.05,6.38-0.2c-0.05-0.77-0.15-1.85-0.3-2.83
			C65.91,51.43,64.2,51.51,61.64,51.63z"/>
		<path class="st10" d="M66.19,53.23c-0.12-0.77-0.5-1.19-1.1-1.41c0.08,1.21-0.13,2.4-1.39,3.01c-1.16,0.57-2.44,0.42-3.7,0.43
			c0.02,0.37,0.06,0.72,0.1,1.01c2.22,0.02,4.34-0.05,6.38-0.2C66.44,55.29,66.34,54.21,66.19,53.23z"/>
		<path class="st9" d="M73.49,50.8c-1.21,0.35-0.83,3.07-0.55,4.47c2.05-0.35,3.98-0.79,5.79-1.3c-0.22-0.78-0.56-1.95-0.86-2.7
			C77.4,50.08,75.13,50.32,73.49,50.8z"/>
		<path class="st10" d="M77.88,51.27c-0.18-0.45-0.61-0.69-1.16-0.8c0.41,1.05,0.7,2.21-0.4,2.94c-0.59,0.39-1.46,0.32-2.13,0.45
			c-0.48,0.09-0.95,0.2-1.42,0.31c0.05,0.4,0.12,0.78,0.18,1.1c2.05-0.35,3.98-0.79,5.79-1.3C78.52,53.19,78.18,52.02,77.88,51.27z"
			/>
	</g>
	<path class="st7" d="M32.45,30.95c0,0,6.78,18.79,43.12,9.75C65,45.12,37.07,47.59,32.45,30.95z"/>
	<g>
		<path class="st9" d="M68.45,21.94c-0.21,3.26-2.46,5.77-5.02,5.6c-2.56-0.17-4.46-2.94-4.25-6.2c0.21-3.26,2.46-5.76,5.02-5.6
			C66.76,15.9,68.66,18.68,68.45,21.94z"/>
		<g>
			<path class="st10" d="M64.2,15.74c-2.56-0.17-4.8,2.34-5.02,5.6c-0.01,0.22-0.02,0.43-0.01,0.65c0.33-1.31,1.24-2.74,3.55-3.16
				c3.41-0.63,5.5,0.15,5.71,3.26c0-0.05,0.01-0.09,0.01-0.14C68.66,18.68,66.76,15.9,64.2,15.74z"/>
		</g>
		<path class="st6" d="M67.86,18.55c-0.73-1.61-2.07-2.71-3.65-2.82c-2-0.13-3.81,1.38-4.6,3.61
			C61.87,17.72,65.16,17.56,67.86,18.55z"/>
		<path class="st9" d="M57.2,22.9c-0.19,2.87-2.17,5.08-4.42,4.93c-2.25-0.15-3.93-2.59-3.74-5.47c0.19-2.87,2.17-5.08,4.42-4.93
			C55.71,17.59,57.38,20.03,57.2,22.9z"/>
		<g>
			<path class="st10" d="M53.45,17.44c-2.25-0.15-4.23,2.06-4.42,4.93c-0.03,0.52-0.01,1.02,0.07,1.5c0.3-1.4,1.24-3.06,4.03-3.09
				c3.31-0.03,4.1,1.73,3.75,3.7c0.16-0.49,0.27-1.03,0.3-1.58C57.38,20.03,55.71,17.59,53.45,17.44z"/>
		</g>
		<path class="st6" d="M53.45,17.44c-2.01-0.13-3.8,1.62-4.3,4.03c1.57-0.98,3.58-1.17,5.44-0.95c0.88,0.1,1.71,0.32,2.48,0.65
			C56.65,19.11,55.24,17.56,53.45,17.44z"/>
		<path class="st9" d="M46.64,23.6c-0.51,2.83-2.59,4.83-4.66,4.46c-2.07-0.37-3.33-2.97-2.83-5.8c0.51-2.83,2.59-4.83,4.66-4.46
			C45.88,18.17,47.15,20.77,46.64,23.6z"/>
		<g>
			<path class="st10" d="M43.81,17.8c-2.07-0.37-4.15,1.63-4.66,4.46c-0.03,0.19-0.06,0.37-0.08,0.56c0.44-1.07,1.33-2.17,3.14-2.21
				c3.06-0.08,4.51,1.55,4.09,4.17c0.14-0.37,0.25-0.77,0.32-1.18C47.15,20.77,45.88,18.17,43.81,17.8z"/>
		</g>
		<path class="st6" d="M44.84,20.71c0.7,0.29,1.32,0.69,1.89,1.15c-0.16-2.09-1.28-3.76-2.91-4.05c-1.64-0.29-3.28,0.9-4.15,2.81
			C41.35,20.11,43.31,20.08,44.84,20.71z"/>
		<path class="st9" d="M79.05,17.89c1.02,2.89,0.07,5.85-2.11,6.62c-2.18,0.77-4.77-0.95-5.79-3.84c-1.02-2.89-0.07-5.85,2.11-6.62
			C75.45,13.28,78.04,15,79.05,17.89z"/>
		<g>
			<path class="st10" d="M73.65,17.68c2.94-1.07,5.06-0.91,5.81,2.38c-0.02-0.7-0.15-1.44-0.41-2.17c-1.02-2.89-3.61-4.61-5.79-3.84
				c-2.18,0.77-3.12,3.73-2.11,6.62c0.03,0.09,0.07,0.17,0.1,0.25C71.35,19.7,71.89,18.32,73.65,17.68z"/>
		</g>
		<g>
			<path class="st7" d="M47.02,14.52c-0.78-1.17-2.36-1.78-3.69-1.3c-1.16,0.42-1.9,1.61-2.39,2.67c-0.05,0.1,0.04,0.11,0.09,0.03
				c0.68-0.98,1.5-2.08,2.84-1.9c0.96,0.13,1.59,1.05,2.17,1.71C46.37,16.1,47.28,14.92,47.02,14.52z"/>
			<path class="st7" d="M53.33,12.66c-1.35,0.15-1.93,0.95-2.76,1.89c-0.06,0.07-0.1,0.27,0.05,0.16c0.79-0.57,1.29-1.27,2.38-1.25
				c0.51,0.01,0.99,0.27,1.43,0.51c0.35,0.19,0.52,0.49,0.92,0.56c0.26,0.04,0.54-0.41,0.5-0.63C55.7,13.03,54.1,12.57,53.33,12.66z
				"/>
			<path class="st7" d="M66.76,12.46c-0.37-1-1.71-1.07-2.62-1.03c-1.17,0.06-1.87,0.68-2.71,1.4c-0.05,0.05-0.16,0.29-0.01,0.22
				c0.89-0.4,1.49-0.65,2.49-0.55c0.47,0.05,0.92,0.14,1.35,0.35c0.38,0.19,0.39,0.49,0.85,0.54C66.49,13.43,66.88,12.8,66.76,12.46
				z"/>
			<path class="st7" d="M75.83,10.82c-0.73-0.77-1.8-1.07-2.83-0.89c-0.97,0.17-1.47,0.84-2.01,1.57c-0.04,0.06-0.08,0.27,0.05,0.19
				c0.57-0.34,0.97-0.73,1.66-0.84c1.01-0.17,1.7,0.59,2.59,0.88C75.62,11.83,76.06,11.07,75.83,10.82z"/>
		</g>
		<path class="st6" d="M75.39,16.6c0.97-0.16,1.96-0.23,2.94-0.19c-1.25-1.96-3.29-2.98-5.07-2.36c-1.67,0.59-2.61,2.47-2.5,4.62
			C72,17.51,73.78,16.87,75.39,16.6z"/>
		<g>
			<path class="st11" d="M47.02,13.99c-0.78-1.17-2.36-1.78-3.69-1.3c-1.16,0.42-1.9,1.61-2.39,2.67c-0.05,0.1,0.04,0.11,0.09,0.03
				c0.68-0.98,1.5-2.08,2.84-1.9c0.96,0.13,1.59,1.05,2.17,1.71C46.37,15.57,47.28,14.39,47.02,13.99z"/>
			<path class="st11" d="M53.33,12.13c-1.35,0.15-1.93,0.95-2.76,1.89c-0.06,0.07-0.1,0.27,0.05,0.16c0.79-0.57,1.29-1.27,2.38-1.25
				c0.51,0.01,0.99,0.27,1.43,0.51c0.35,0.19,0.52,0.49,0.92,0.56c0.26,0.04,0.54-0.41,0.5-0.63C55.7,12.5,54.1,12.04,53.33,12.13z"
				/>
			<path class="st11" d="M66.76,11.93c-0.37-1-1.71-1.07-2.62-1.03c-1.17,0.06-1.87,0.68-2.71,1.4c-0.05,0.05-0.16,0.29-0.01,0.22
				c0.89-0.4,1.49-0.65,2.49-0.55c0.47,0.05,0.92,0.14,1.35,0.35c0.38,0.19,0.39,0.49,0.85,0.54C66.49,12.9,66.88,12.27,66.76,11.93
				z"/>
			<path class="st11" d="M75.83,10.29C75.1,9.52,74.02,9.22,73,9.4c-0.97,0.17-1.47,0.84-2.01,1.57c-0.04,0.06-0.08,0.27,0.05,0.19
				c0.57-0.34,0.97-0.73,1.66-0.84c1.01-0.17,1.7,0.59,2.59,0.88C75.62,11.3,76.06,10.54,75.83,10.29z"/>
		</g>
		<g>
			<path class="st12" d="M54.67,22.98c0.05,1.1-0.67,2.01-1.61,2.03c-0.94,0.02-1.75-0.86-1.8-1.96c-0.05-1.1,0.67-2.01,1.61-2.03
				C53.81,21,54.61,21.88,54.67,22.98z"/>
			<path class="st4" d="M54.36,23.01c0.04,0.91-0.55,1.65-1.33,1.67c-0.77,0.01-1.44-0.71-1.48-1.61c-0.04-0.91,0.55-1.65,1.32-1.67
				C53.66,21.38,54.32,22.1,54.36,23.01z"/>
			<path class="st13" d="M53.88,23.02c0.03,0.57-0.35,1.04-0.83,1.05c-0.48,0.01-0.9-0.44-0.93-1.01c-0.03-0.57,0.35-1.04,0.83-1.04
				C53.44,22,53.85,22.46,53.88,23.02z"/>
			<path class="st9" d="M52.8,22.31c-0.11,0.25-0.37,0.42-0.59,0.38c-0.21-0.04-0.29-0.27-0.18-0.52c0.11-0.25,0.37-0.42,0.59-0.38
				C52.83,21.83,52.91,22.06,52.8,22.31z"/>
			<path class="st9" d="M52.09,23.18c0,0.12-0.07,0.21-0.17,0.21c-0.1,0-0.18-0.09-0.19-0.21c0-0.12,0.07-0.21,0.17-0.21
				C52.01,22.97,52.09,23.06,52.09,23.18z"/>
		</g>
		<g>
			<path class="st12" d="M65.36,21.86c0.05,1.1-0.67,2.01-1.61,2.03c-0.94,0.02-1.75-0.86-1.8-1.96c-0.05-1.1,0.67-2.01,1.61-2.03
				C64.5,19.88,65.3,20.76,65.36,21.86z"/>
			<path class="st4" d="M65.05,21.89c0.04,0.91-0.55,1.65-1.33,1.67c-0.77,0.01-1.44-0.71-1.48-1.61c-0.04-0.91,0.55-1.65,1.32-1.67
				C64.35,20.26,65.01,20.98,65.05,21.89z"/>
			<path class="st13" d="M64.57,21.9c0.03,0.57-0.35,1.04-0.83,1.05c-0.49,0.01-0.9-0.44-0.93-1.01c-0.03-0.57,0.35-1.04,0.83-1.04
				C64.13,20.88,64.54,21.33,64.57,21.9z"/>
			<path class="st9" d="M63.49,21.18c-0.11,0.25-0.37,0.42-0.59,0.38c-0.21-0.04-0.29-0.27-0.18-0.52c0.11-0.25,0.37-0.42,0.59-0.38
				C63.52,20.7,63.6,20.94,63.49,21.18z"/>
			<path class="st9" d="M62.78,22.05c0,0.12-0.07,0.21-0.17,0.21c-0.1,0-0.18-0.09-0.19-0.21c0-0.12,0.07-0.21,0.17-0.21
				C62.7,21.84,62.78,21.94,62.78,22.05z"/>
		</g>
		<g>
			<path class="st12" d="M76.99,19.38c0.44,1.01,0.09,2.12-0.79,2.47c-0.87,0.35-1.94-0.18-2.38-1.2c-0.44-1.01-0.09-2.12,0.79-2.47
				C75.49,17.84,76.55,18.37,76.99,19.38z"/>
			<path class="st4" d="M76.72,19.52c0.36,0.83,0.07,1.74-0.65,2.03c-0.72,0.29-1.59-0.15-1.95-0.98c-0.36-0.83-0.07-1.74,0.65-2.03
				C75.48,18.25,76.36,18.69,76.72,19.52z"/>
			<path class="st13" d="M76.27,19.7c0.23,0.52,0.04,1.09-0.41,1.27c-0.45,0.18-1-0.1-1.23-0.62c-0.23-0.52-0.04-1.09,0.41-1.27
				C75.5,18.9,76.05,19.18,76.27,19.7z"/>
			<path class="st9" d="M75.01,19.42c-0.02,0.27-0.2,0.52-0.41,0.56c-0.21,0.04-0.37-0.15-0.35-0.42c0.02-0.27,0.2-0.52,0.42-0.56
				C74.87,18.96,75.02,19.15,75.01,19.42z"/>
			<path class="st9" d="M74.66,20.48c0.04,0.11,0.01,0.22-0.09,0.26c-0.09,0.04-0.2-0.02-0.25-0.13c-0.04-0.11-0.01-0.22,0.09-0.26
				C74.5,20.32,74.61,20.37,74.66,20.48z"/>
		</g>
		<g>
			<path class="st12" d="M44.67,23.57c-0.24,1.08-1.18,1.76-2.09,1.53c-0.91-0.23-1.46-1.29-1.21-2.37
				c0.24-1.08,1.18-1.76,2.09-1.53C44.37,21.44,44.91,22.5,44.67,23.57z"/>
			<path class="st4" d="M44.37,23.52c-0.2,0.88-0.97,1.45-1.72,1.26c-0.75-0.19-1.2-1.06-1-1.95c0.2-0.89,0.97-1.45,1.72-1.26
				C44.13,21.77,44.57,22.64,44.37,23.52z"/>
			<path class="st13" d="M43.9,23.41c-0.12,0.55-0.61,0.91-1.08,0.79c-0.47-0.12-0.75-0.67-0.63-1.22c0.12-0.55,0.61-0.91,1.08-0.79
				C43.75,22.31,44.03,22.85,43.9,23.41z"/>
			<path class="st9" d="M43.05,22.43c-0.17,0.21-0.47,0.3-0.66,0.21c-0.19-0.09-0.21-0.34-0.04-0.55c0.17-0.21,0.47-0.3,0.66-0.21
				C43.21,21.97,43.22,22.22,43.05,22.43z"/>
			<path class="st9" d="M42.14,23.08c-0.03,0.11-0.13,0.18-0.22,0.16c-0.1-0.03-0.15-0.14-0.13-0.25c0.03-0.11,0.13-0.18,0.22-0.16
				C42.11,22.86,42.17,22.97,42.14,23.08z"/>
		</g>
		<path class="st6" d="M43.45,18.01c-1.18,0.09-2.71,0.81-3.25,1.94c-0.07,0.14,0.03,0.21,0.14,0.1c0.37-0.4,0.7-0.8,1.15-1.13
			c0.6-0.44,1.25-0.67,1.95-0.88C43.45,18.03,43.46,18,43.45,18.01z"/>
		<path class="st6" d="M52.72,17.63c-0.69,0.16-1.35,0.58-1.86,1.07c-0.43,0.41-1.33,1.51-1.25,2.16c0.02,0.18,0.24-0.08,0.26-0.14
			c0.22-0.58,0.79-1.51,1.24-1.94c0.47-0.45,1.01-0.82,1.6-1.08C52.72,17.7,52.76,17.62,52.72,17.63z"/>
		<path class="st6" d="M63.71,15.89c-0.71,0.07-1.42,0.4-1.99,0.81c-0.48,0.35-1.52,1.32-1.53,1.98c0,0.18,0.25-0.05,0.27-0.1
			c0.3-0.55,0.98-1.39,1.49-1.76c0.52-0.38,1.11-0.67,1.73-0.86C63.7,15.96,63.75,15.89,63.71,15.89z"/>
		<path class="st6" d="M73.39,14.12c-0.64,0.32-1.18,0.87-1.57,1.46c-0.32,0.49-0.95,1.77-0.73,2.39c0.06,0.17,0.21-0.13,0.22-0.19
			c0.08-0.62,0.42-1.65,0.77-2.17c0.36-0.54,0.8-1.02,1.32-1.41C73.41,14.18,73.43,14.1,73.39,14.12z"/>
	</g>
	<g>
		<path class="st14" d="M28.18,13.56c0.71-0.57,1.46-1.13,2.23-1.69C29.64,12.41,28.9,12.97,28.18,13.56z"/>
		<path class="st7" d="M28.18,13.56c-0.29,0.23-0.57,0.46-0.84,0.69c0.13-0.1,0.26-0.21,0.39-0.32
			C27.88,13.8,28.03,13.69,28.18,13.56z"/>
		<path class="st7" d="M109.4,38.89C108.69,21.82,93.18,1.75,60.87,2.18c-13.31,0.18-23.3,4.58-30.46,9.69
			C36.18,7.89,43.4,5.41,48.51,4.5c0,0,40.75-7.93,53.58,22.65c7.27,17.1-4.24,31.11-37.84,32.93c-28.97,1.56-48.79-1.24-53.75-12.4
			c0.23,2.43,0.86,4.79,2,7.02c4.13,8.11,39.98,8.4,63.61,5.83C99.72,57.96,110.11,55.97,109.4,38.89z"/>
	</g>
	<path class="st7" d="M34.25,10.67c0,0-22.47,14.62-21.38,37.46C10.49,34.61,17.07,20.54,34.25,10.67z"/>
</g>
</svg>
