<?xml version="1.0" encoding="utf-8"?>
<!-- Generator: Adobe Illustrator 26.3.1, SVG Export Plug-In . SVG Version: 6.00 Build 0)  -->
<svg version="1.1" id="Layer_1" xmlns="http://www.w3.org/2000/svg" xmlns:xlink="http://www.w3.org/1999/xlink" x="0px" y="0px"
	 viewBox="0 0 84.12 100" style="enable-background:new 0 0 84.12 100;" xml:space="preserve">
<style type="text/css">
	.st0{fill:#125D94;}
	.st1{fill:#6EC2C0;}
	.st2{fill:#FFFFFF;}
	.st3{fill:#08253F;}
	.st4{fill:#6DBFB3;}
	.st5{fill:#1B7571;}
</style>
<symbol  id="Cra" viewBox="-42.06 -50 84.12 100">
	<g>
		<path class="st0" d="M-21.67,29.04c0,0,2.85,2.11,1.44,8.03c-1.41,5.92-2.18,8.59-2.18,8.59l2.32,0.46c0,0,3.16-12.66,10.03-12.5
			C-10.06,33.62-16.45,28.6-21.67,29.04z"/>
		<path class="st1" d="M-17.44,47.32c0.35-1.24-1.14-2.75-3.33-3.37c-2.19-0.62-4.25-0.11-4.6,1.12c-0.35,1.24,1.14,2.75,3.34,3.37
			C-19.85,49.06-17.79,48.56-17.44,47.32z"/>
		<path class="st2" d="M-21.21,47.3c0.21-0.51-0.35-1.22-1.24-1.59c-0.9-0.37-1.8-0.26-2.01,0.25c-0.21,0.51,0.35,1.22,1.24,1.59
			C-22.32,47.91-21.42,47.8-21.21,47.3z"/>
	</g>
	<g>
		<path class="st0" d="M22.09,30.33c0,0-2.85,2.11-1.44,8.03c1.41,5.92,2.18,8.59,2.18,8.59l-2.32,0.47c0,0-3.16-12.66-10.03-12.5
			C10.48,34.91,16.87,29.89,22.09,30.33z"/>
		<path class="st1" d="M17.86,48.61c-0.35-1.24,1.14-2.74,3.33-3.37c2.19-0.62,4.25-0.12,4.61,1.12c0.35,1.24-1.14,2.75-3.34,3.37
			C20.27,50.35,18.21,49.85,17.86,48.61z"/>
		<path class="st2" d="M18.96,49.04c-0.12-0.53,0.54-1.15,1.48-1.38c0.95-0.23,1.81,0.03,1.94,0.56c0.12,0.53-0.54,1.15-1.48,1.37
			C19.96,49.83,19.09,49.58,18.96,49.04z"/>
	</g>
	<path class="st1" d="M41.68-41.32c-1.45,2.78-3.22,4.92-4.29,8c-1.13,3.23-1.99,6.52-2.63,9.88c-1.47,7.7-2.65,15.44-3.53,23.23
		c-0.78,6.91-1.1,14.22-3,20.95c-1.7,6.05-4.87,11.36-9.79,15.34c-0.56,0.46-1.15,0.87-1.74,1.26c-2.04,1.48-4.37,2.65-6.43,3.58
		c-5.04,2.27-11.09,2.04-16.38,1.05c-7.24-1.36-15.17-5.89-18.4-12.74c-1.63-2.59-2.86-5.44-3.72-8.49
		c-1.89-6.73-2.22-14.03-3-20.95c-0.88-7.79-2.06-15.53-3.53-23.23c-0.64-3.36-1.5-6.65-2.63-9.88c-1.07-3.08-2.84-5.21-4.29-8
		c-1.09-2.08,0.34-3.27,1.98-4.26c0.83-0.51,2.26-0.25,3.17-0.16c0.58,0.04,1.16,0.09,1.74,0.14c-0.01-0.03-0.01-0.05-0.01-0.08
		c-1.58-4.76,8.94-4.32,10.94-4.29c3.58,0.05,7.15,0.42,10.61,1.31c2.82,0.73,5.48,1.9,8.21,2.85C-5.43-47-5.4-48.23-3.56-48.6
		c2.79-0.55,5.9,0.93,8.42,2.7c0.87-2.81,4.1-3.31,7.21-2.41c0.39-0.12,0.79-0.25,1.19-0.35c3.46-0.9,7.03-1.27,10.61-1.31
		c2-0.03,12.52-0.47,10.94,4.29c0,0.03-0.01,0.05-0.01,0.08c0.58-0.05,1.15-0.1,1.73-0.14c0.91-0.09,2.33-0.35,3.17,0.16
		C41.34-44.59,42.77-43.41,41.68-41.32z"/>
	<path class="st1" d="M41.68-41.32c-1.45,2.78-3.22,4.92-4.29,8c-1.13,3.23-1.99,6.52-2.63,9.88c-0.09,0.45-0.17,0.9-0.25,1.35
		c0.33-3.25,0.92-6.45,2.1-9.44c0.8-2.04,3.32-7.01,0.42-8.61c-2.45-1.35-5.74,0.69-7.76,2.01c1.93-3.13,2.66-6.45-0.75-8.23
		c-3.17-1.65-8.22-1.07-11.53-0.29c-3.77,0.89-7.41,2.49-10.26,5.11c-1.02-1.52-2.19-2.89-3.51-3.96c-1.26-1.02-3.07-1.53-4.39-0.31
		c-1.77,1.64-1.8,3.92-1.27,6.12c-2.44-2-5.1-3.68-8.04-4.98c-2.37-1.04-4.86-1.66-7.38-2.24c-2.66-0.61-5.52-1.33-8.27-1.09
		c-2.68,0.23-6.65,1.18-5.4,4.68c0.35,0.98,0.96,1.89,1.69,2.73c-2.5-1.04-6.34-2.3-7.82,0.48c-0.96,1.81,0.63,4.84,1.31,6.47
		c1.36,3.25,2.17,6.54,2.75,10.02c0.94,5.61,1.38,11.26,1.57,16.93c-0.75-5.61-1.66-11.19-2.72-16.76c-0.64-3.36-1.5-6.65-2.63-9.88
		c-1.07-3.08-2.84-5.21-4.29-8c-1.09-2.08,0.34-3.27,1.98-4.26c0.83-0.51,2.26-0.25,3.17-0.16c0.58,0.04,1.16,0.09,1.74,0.14
		c-0.01-0.03-0.01-0.05-0.01-0.08c-1.58-4.76,8.94-4.32,10.94-4.29c3.58,0.05,7.15,0.42,10.61,1.31c2.82,0.73,5.48,1.9,8.21,2.85
		C-5.43-47-5.4-48.23-3.56-48.6c2.79-0.55,5.9,0.93,8.42,2.7c0.87-2.81,4.1-3.31,7.21-2.41c0.39-0.12,0.79-0.25,1.19-0.35
		c3.46-0.9,7.03-1.27,10.61-1.31c2-0.03,12.52-0.47,10.94,4.29c0,0.03-0.01,0.05-0.01,0.08c0.58-0.05,1.15-0.1,1.73-0.14
		c0.91-0.09,2.33-0.35,3.17,0.16C41.34-44.59,42.77-43.41,41.68-41.32z"/>
	<g>
		<g>
			<g>
				<path class="st1" d="M-1.04,19.59c-0.61-2.2-5.25-2.84-10.37-1.42c-5.12,1.42-8.77,4.35-8.16,6.56
					c0.61,2.2,5.92,5.22,11.04,3.81C-3.42,27.11-0.43,21.79-1.04,19.59z"/>
				<path class="st3" d="M-1.97,19.98c-0.55-1.98-4.71-2.54-9.3-1.27c-4.59,1.27-7.86,3.9-7.32,5.88c0.55,1.97,5.3,4.68,9.89,3.41
					C-4.1,26.72-1.42,21.95-1.97,19.98z"/>
				<path class="st0" d="M-2.51,20.4c-0.51-1.84-4.4-2.38-8.69-1.19c-4.29,1.19-7.35,3.65-6.84,5.49c0.51,1.84,4.96,4.38,9.25,3.19
					C-4.51,26.71-2,22.24-2.51,20.4z"/>
				<g>
					<path class="st4" d="M-14.28,26.2c1.58,0.51,3.24,0.8,4.89,1.09c-0.18,0.07-0.37,0.13-0.56,0.19
						c-1.68,0.46-3.38,0.16-4.68-0.44C-14.49,26.77-14.39,26.49-14.28,26.2z"/>
					<path class="st4" d="M-15.47,26.57c-0.69-0.45-1.16-0.97-1.3-1.44c0.54,0.3,1.09,0.55,1.65,0.77
						C-15.23,26.13-15.34,26.35-15.47,26.57z"/>
				</g>
			</g>
			<g>
				<path class="st1" d="M1.26,19.59c0.61-2.2,5.26-2.84,10.37-1.42c5.12,1.42,8.77,4.35,8.16,6.56c-0.61,2.2-5.92,5.22-11.04,3.81
					C3.64,27.11,0.64,21.79,1.26,19.59z"/>
				<path class="st3" d="M2.18,19.98c0.55-1.98,4.71-2.54,9.3-1.27c4.59,1.27,7.87,3.9,7.32,5.88c-0.55,1.97-5.31,4.68-9.89,3.41
					C4.31,26.72,1.63,21.95,2.18,19.98z"/>
				<path class="st0" d="M2.72,20.4c0.51-1.83,4.36-2.35,8.61-1.17c4.25,1.18,7.29,3.61,6.78,5.44c-0.51,1.83-4.91,4.35-9.17,3.16
					C4.69,26.66,2.21,22.23,2.72,20.4z"/>
				<g>
					<path class="st4" d="M6.35,24.88c1.41,0.87,2.96,1.55,4.5,2.22c-0.19,0.03-0.39,0.04-0.59,0.05c-1.74,0.05-3.32-0.65-4.44-1.53
						C6,25.37,6.18,25.12,6.35,24.88z"/>
					<path class="st4" d="M5.1,24.95c-0.56-0.6-0.9-1.22-0.92-1.7c0.45,0.42,0.93,0.79,1.42,1.14C5.44,24.58,5.27,24.77,5.1,24.95z"
						/>
				</g>
			</g>
		</g>
		<g>
			<path class="st5" d="M-0.81,15.21c0-0.35-0.12-0.64-0.27-0.64c-0.15,0-0.27,0.29-0.27,0.64c0,0.35,0.12,0.64,0.27,0.64
				C-0.93,15.85-0.81,15.56-0.81,15.21z"/>
			<path class="st5" d="M0.62,15.21c0-0.35-0.12-0.64-0.27-0.64c-0.15,0-0.27,0.29-0.27,0.64c0,0.35,0.12,0.64,0.27,0.64
				C0.5,15.85,0.62,15.56,0.62,15.21z"/>
		</g>
		<path class="st1" d="M-5.38,12.01c0,0,4.96-2,10.45,0.2c0,0-1.17-4.25-5.88-3.99C-3.97,8.38-5.38,12.01-5.38,12.01z"/>
		<path class="st2" d="M-4.68,11.77c0,0,4.29-1.73,9.04,0.17c0,0-1.01-3.68-5.08-3.45C-3.45,8.63-4.68,11.77-4.68,11.77z"/>
	</g>
	<path class="st1" d="M-26.24,23.07c-1.12-3.06-1.96-6.65-2.34-10.87c0,0,0.73,4.54,3.48,10.23
		C-25.48,22.63-25.86,22.84-26.24,23.07z"/>
	<path class="st1" d="M-25.3,25.37c0.39-0.35,0.79-0.69,1.19-1.03c3.09,5.67,8.18,12.05,16.4,16.11
		C-7.71,40.45-19.3,38.65-25.3,25.37z"/>
</symbol>
<use xlink:href="#Cra"  width="84.12" height="100" x="-42.06" y="-50" transform="matrix(1 0 0 -1 42.061 50)" style="overflow:visible;"/>
</svg>
