<?xml version="1.0" encoding="utf-8"?>
<!-- Generator: Adobe Illustrator 26.3.1, SVG Export Plug-In . SVG Version: 6.00 Build 0)  -->
<svg version="1.1" id="Layer_1" xmlns="http://www.w3.org/2000/svg" xmlns:xlink="http://www.w3.org/1999/xlink" x="0px" y="0px"
	 viewBox="0 0 81.2 100" style="enable-background:new 0 0 81.2 100;" xml:space="preserve">
<style type="text/css">
	.st0{fill:#989A9D;}
	.st1{fill:#7B7C7E;}
	.st2{fill:#DFE0E1;}
	.st3{fill:#C1C3C4;}
	.st4{opacity:0.7;fill:#FFFFFF;}
	.st5{opacity:0.2;fill:#393A3C;}
	.st6{fill:#CC1743;}
	.st7{fill:#85888A;}
	.st8{fill:#9DA1A2;}
	.st9{fill:#FFFFFF;}
	.st10{fill:#909294;}
	.st11{fill:#B1D0DE;}
	.st12{fill:#505153;}
	.st13{fill:#EFAB51;}
	.st14{fill:#ACCC16;}
	.st15{fill:#07294E;}
	.st16{fill:#B6B9BB;}
	.st17{fill:#1A7570;}
	.st18{fill:#EB7417;}
	.st19{fill:#2F3133;}
	.st20{fill:#135F8F;}
	.st21{fill:#6A6B6E;}
	.st22{fill:#CECFD0;}
	.st23{fill:#0E4E91;}
	.st24{opacity:0.5;fill:#85888A;}
	.st25{clip-path:url(#SVGID_00000059275839219632615570000003360577401398150318_);}
	.st26{fill:#CD4F2E;}
	.st27{fill:#F89A42;}
	.st28{fill:#F6BA9E;}
	.st29{fill:#EC8862;}
	.st30{opacity:0.5;fill:#F2A686;}
	.st31{opacity:0.4;fill:#F2A686;}
	.st32{opacity:0.6;fill:#F2A686;}
	.st33{fill:#CD5425;}
	.st34{fill:#D5D7D8;}
	.st35{opacity:0.5;fill:#D5D7D8;}
	.st36{opacity:0.6;fill:url(#SVGID_00000111178815671613669680000001124958955559879836_);}
	.st37{opacity:0.6;fill:url(#SVGID_00000083064142109786859140000014439102549046846890_);}
	.st38{clip-path:url(#SVGID_00000145055395939736929400000006808845376860427416_);}
	.st39{fill:#462D1B;}
	.st40{fill:#63442F;}
	.st41{fill:#170000;}
	.st42{clip-path:url(#SVGID_00000077312187134296762410000003502838077656434330_);}
	.st43{fill:#F6948D;}
	.st44{opacity:0.4;fill:#5A80A3;}
	.st45{opacity:0.6;fill:#84ADD3;}
</style>
<symbol  id="Harf" viewBox="-40.6 -50 81.2 100">
	<g>
		<g>
			<g>
				<path class="st0" d="M-34.31,7.03c1.31,0.23,2.64,1.77,3.08,3.03c0.48,1.39,0.11,2.82-0.61,4.06c-0.36,0.62-1.82,2.44-1.8,0.59
					c0.01-0.72,0.36-1.24,0.64-1.89c0.02-0.04,0.04-0.09,0.06-0.13c-0.15,0.12-0.29,0.25-0.44,0.37c-0.51,0.42-2.4,2.36-2.89,2.86
					c-0.26,0.26-0.64,0.67-1.03,0.47c-0.3-0.16-0.3-0.63-0.27-0.9c0.06-0.5,0.54-1.03,0.84-1.4c0.22-0.3,0.47-0.57,0.72-0.85
					c-0.28,0.21-0.56,0.42-0.83,0.64c-0.39,0.32-0.76,0.74-1.24,0.91c-0.7,0.27-0.96-0.52-0.74-1.06c0.27-0.65,0.97-1.12,1.52-1.52
					c0.24-0.19,0.49-0.38,0.72-0.58c-0.31,0.12-0.61,0.25-0.92,0.4c-0.47,0.22-0.89,0.54-1.4,0.73c-0.64,0.24-1.38-0.08-0.9-0.82
					c0.51-0.78,1.67-1.76,2.44-2.21c-0.73,0.05-2.49,1.21-2.95,0.62C-41.1,9.29-35.9,6.77-34.31,7.03z"/>
				<path class="st1" d="M-39.81,12.94c0.27,0.15,0.66,0.15,1.01,0.02c0.16-0.06,0.31-0.13,0.45-0.21
					c-0.28,0.26-0.52,0.54-0.66,0.88c-0.2,0.49-0.05,1.13,0.34,1.34c0.14,0.08,0.36,0.14,0.69,0.01c0.18-0.07,0.35-0.17,0.51-0.29
					c-0.15,0.24-0.28,0.49-0.31,0.75c-0.01,0.12-0.03,0.36,0.02,0.58c0.07,0.32,0.24,0.47,0.37,0.54c0.53,0.27,0.99-0.19,1.26-0.48
					l0.03-0.02l0.2-0.2c0.54-0.56,1.69-1.73,2.33-2.34c-0.16,0.35-0.27,0.72-0.28,1.17c0,0.2,0.02,0.36,0.04,0.49
					c0.08,0.39,0.29,0.51,0.45,0.53c0.72,0.12,1.7-1.47,1.71-1.49c0.84-1.46,1.06-2.94,0.62-4.24c-0.46-1.35-1.88-2.95-3.25-3.18
					c-1.38-0.23-4.8,1.32-5.9,2.47c-0.33,0.35-0.47,0.66-0.41,0.94l0,0c0.02,0.09,0.06,0.17,0.12,0.25c0.34,0.45,1.06,0.23,1.8-0.07
					c-0.52,0.44-1.01,0.95-1.31,1.4c-0.16,0.24-0.21,0.48-0.17,0.69C-40.11,12.69-39.99,12.84-39.81,12.94z M-37.14,9.66
					c-0.03-0.1-0.12-0.17-0.22-0.15c-0.3,0.02-0.72,0.19-1.16,0.37c-0.56,0.23-1.41,0.58-1.59,0.33c-0.02-0.02-0.03-0.04-0.03-0.07
					l0,0c-0.02-0.12,0.08-0.32,0.29-0.54c1.09-1.13,4.38-2.53,5.51-2.34c1.2,0.2,2.49,1.68,2.9,2.88c0.05,0.15,0.09,0.3,0.12,0.45
					c0.28,1.34-0.23,2.61-0.71,3.43c-0.33,0.57-1.03,1.32-1.25,1.27c-0.05,0-0.13-0.21-0.13-0.58c0.01-0.51,0.2-0.91,0.43-1.38
					c0.07-0.14,0.14-0.28,0.2-0.42l0.05-0.14c0.04-0.09,0.01-0.2-0.07-0.26c-0.08-0.06-0.19-0.06-0.27,0.01
					c-0.09,0.07-0.17,0.14-0.26,0.21l-0.19,0.15c-0.47,0.39-2.04,1.99-2.71,2.68l-0.22,0.22c-0.28,0.28-0.53,0.51-0.74,0.4
					c-0.15-0.08-0.17-0.51-0.15-0.68c0.04-0.36,0.37-0.77,0.64-1.1c0.05-0.06,0.1-0.13,0.15-0.19c0.19-0.26,0.41-0.51,0.63-0.74
					l0.08-0.1c0.07-0.08,0.07-0.21-0.01-0.29c-0.07-0.08-0.2-0.1-0.29-0.03c-0.33,0.23-0.59,0.43-0.85,0.64
					c-0.1,0.09-0.2,0.17-0.31,0.27c-0.28,0.24-0.56,0.5-0.87,0.62c-0.14,0.05-0.23,0.05-0.32,0.01c-0.18-0.1-0.25-0.5-0.14-0.78
					c0.23-0.55,0.82-0.97,1.33-1.35l0.11-0.08c0.27-0.2,0.53-0.41,0.74-0.59c0.09-0.07,0.11-0.19,0.05-0.28
					c-0.06-0.1-0.18-0.13-0.27-0.09c-0.31,0.12-0.62,0.26-0.93,0.4c-0.22,0.1-0.42,0.22-0.62,0.33c-0.25,0.15-0.5,0.3-0.76,0.4
					c-0.23,0.08-0.49,0.09-0.64,0c-0.1-0.05-0.12-0.11-0.12-0.14c-0.02-0.09,0.02-0.21,0.12-0.36c0.48-0.74,1.61-1.7,2.36-2.14
					c0.08-0.05,0.12-0.14,0.1-0.23C-37.14,9.68-37.14,9.67-37.14,9.66z"/>
			</g>
			<g>
				<g>
					<path class="st2" d="M-10.9,5.96c0,0-0.33-0.02-0.9-0.04c-0.57-0.02-1.39-0.05-2.37-0.01c-1.96,0.06-4.56,0.35-7.04,1.03
						c-2.49,0.67-4.83,1.72-6.47,2.7c-0.41,0.25-0.79,0.46-1.11,0.69c-0.32,0.22-0.6,0.41-0.83,0.57c-0.44,0.33-0.7,0.53-0.7,0.53
						c-0.05,0.03-0.1,0.07-0.15,0.1l-4.29-5.55c0.06-0.05,0.12-0.09,0.18-0.15c0,0,0.32-0.24,0.89-0.66
						c0.29-0.2,0.65-0.44,1.06-0.71c0.41-0.28,0.89-0.56,1.41-0.88c2.1-1.24,5.07-2.58,8.18-3.41c3.11-0.85,6.29-1.2,8.67-1.28
						c1.19-0.04,2.18-0.01,2.87,0.01c0.69,0.04,1.09,0.06,1.09,0.06c1.55,0.1,2.91,0.67,3.79,1.48c0.89,0.8,1.28,1.8,1.05,2.75
						c-0.24,0.94-0.95,1.67-1.9,2.15C-8.44,5.81-9.62,6.05-10.9,5.96z"/>
					<path class="st3" d="M-10.39-1.28L-10.39-1.28l-0.04,0l-1.09-0.06c-0.62-0.01-1.66-0.05-2.89-0.01
						c-1.69,0.05-5.07,0.28-8.72,1.28c-2.83,0.76-5.83,2.02-8.23,3.43c-0.17,0.11-0.34,0.21-0.51,0.31
						c-0.32,0.19-0.64,0.38-0.91,0.57l-1.06,0.72l-1.09,0.83c-0.09,0.08-0.11,0.21-0.04,0.31l4.29,5.55c0.07,0.09,0.2,0.11,0.3,0.04
						l0.13-0.09l0.74-0.54l0.82-0.56c0.19-0.13,0.41-0.27,0.64-0.4c0.15-0.09,0.3-0.18,0.46-0.28c1.85-1.1,4.19-2.08,6.41-2.67
						c2.12-0.59,4.68-0.96,7-1.02c0.96-0.04,1.75-0.01,2.33,0.01l0.92,0.05c1.28,0.08,2.5-0.14,3.52-0.66
						c1.08-0.55,1.78-1.35,2.01-2.3c0.25-1.02-0.15-2.1-1.12-2.96C-7.45-0.6-8.86-1.16-10.39-1.28z M-34.47,6.01L-34.46,6l1.11-0.81
						l0.82-0.56c0.27-0.18,0.57-0.36,0.89-0.56c0.17-0.1,0.33-0.2,0.51-0.31c2.36-1.39,5.32-2.63,8.12-3.39
						c3.61-0.98,6.94-1.21,8.61-1.26c1.22-0.04,2.24-0.02,2.86,0.01l1.08,0.06l0.05-0.22l-0.01,0.22c1.42,0.11,2.74,0.62,3.62,1.42
						c0.83,0.75,1.19,1.67,0.98,2.53c-0.26,1.03-1.11,1.67-1.78,2.01c-0.96,0.48-2.1,0.69-3.3,0.61l-0.9-0.05
						c-0.62-0.01-1.42-0.03-2.4,0c-2.35,0.07-4.94,0.45-7.09,1.04c-2.26,0.61-4.64,1.6-6.53,2.72c-0.16,0.09-0.31,0.18-0.45,0.27
						c-0.24,0.15-0.47,0.28-0.67,0.42l-0.83,0.56l-0.68,0.51L-34.47,6.01z"/>
				</g>
				<path class="st4" d="M-24,0.43c0,0,0.4-0.12,1.01-0.29c0.61-0.16,1.42-0.36,2.24-0.52c1.63-0.34,3.28-0.52,3.28-0.52l0.77,6.99
					c0,0-1.35,0.14-2.67,0.41c-0.66,0.13-1.31,0.3-1.8,0.42c-0.49,0.14-0.8,0.23-0.8,0.23L-24,0.43z"/>
				<path class="st5" d="M-32.76,8.58l-2.02-2.61c0.06-0.05,0.12-0.09,0.18-0.15c0,0,0.32-0.24,0.89-0.66
					c0.29-0.2,0.65-0.44,1.06-0.71c0.41-0.28,0.89-0.56,1.41-0.88c2.1-1.24,5.07-2.58,8.18-3.41c3.11-0.85,6.29-1.2,8.67-1.28
					c1.19-0.04,2.18-0.01,2.87,0.01c0.69,0.04,1.09,0.06,1.09,0.06c1.5,0.1,2.81,0.63,3.69,1.39c0.89,0.76,1.32,1.72,1.19,2.62
					c0,0-1.75-0.44-4.42-0.67c-1.34-0.11-2.91-0.17-4.58-0.1c-1.68,0.07-3.46,0.26-5.22,0.6c-3.53,0.66-6.91,2-9.24,3.32
					c-0.6,0.32-1.11,0.67-1.58,0.94c-0.45,0.31-0.85,0.57-1.17,0.79C-32.41,8.31-32.76,8.58-32.76,8.58z"/>
				<path class="st6" d="M-28.41,10.07c0,0-0.21,0.12-0.41,0.27c-0.21,0.13-0.41,0.27-0.41,0.27l-3.96-5.8c0,0,0.26-0.18,0.52-0.35
					c0.25-0.18,0.53-0.34,0.53-0.34L-28.41,10.07z"/>
				<polygon class="st6" points="-27.57,9.56 -27.99,9.82 -31.62,3.8 -31.08,3.48 				"/>
			</g>
		</g>
		<g>
			<g>
				<path class="st0" d="M40.3,10.35c-0.46,0.59-2.22-0.58-2.95-0.62c0.78,0.45,1.94,1.44,2.45,2.21c0.47,0.74-0.27,1.06-0.91,0.82
					c-0.5-0.19-0.92-0.51-1.4-0.73c-0.31-0.15-0.61-0.28-0.92-0.4c0.23,0.2,0.47,0.39,0.72,0.58c0.55,0.4,1.25,0.87,1.52,1.52
					c0.23,0.54-0.03,1.33-0.74,1.07c-0.48-0.18-0.85-0.6-1.24-0.92c-0.27-0.22-0.55-0.43-0.83-0.64c0.25,0.28,0.49,0.55,0.72,0.85
					c0.29,0.37,0.78,0.91,0.83,1.4c0.03,0.27,0.03,0.74-0.26,0.9c-0.4,0.2-0.78-0.21-1.03-0.47c-0.49-0.49-2.38-2.44-2.89-2.86
					c-0.15-0.12-0.29-0.25-0.43-0.36c0.01,0.05,0.03,0.09,0.05,0.13c0.28,0.65,0.64,1.17,0.64,1.89c0.02,1.85-1.43,0.03-1.8-0.59
					c-0.72-1.24-1.08-2.66-0.6-4.06c0.43-1.26,1.77-2.8,3.08-3.03C35.9,6.77,41.1,9.3,40.3,10.35z"/>
				<path class="st1" d="M40.15,12.51c0.05-0.22-0.01-0.45-0.17-0.69c-0.3-0.45-0.79-0.96-1.31-1.4c0.74,0.3,1.45,0.52,1.8,0.07
					c0.06-0.07,0.1-0.16,0.12-0.25l0,0c0.06-0.28-0.08-0.6-0.41-0.94c-1.1-1.15-4.52-2.7-5.9-2.48C32.9,7.06,31.49,8.66,31.02,10
					c-0.44,1.3-0.22,2.78,0.63,4.24c0.01,0.02,0.99,1.61,1.71,1.49c0.16-0.02,0.37-0.14,0.45-0.53c0.03-0.13,0.04-0.29,0.04-0.49
					c-0.01-0.45-0.13-0.82-0.28-1.17c0.65,0.6,1.8,1.78,2.34,2.34l0.2,0.2l0.03,0.02c0.27,0.28,0.74,0.75,1.26,0.48
					c0.14-0.07,0.3-0.22,0.38-0.54c0.05-0.23,0.02-0.46,0.01-0.58c-0.03-0.26-0.15-0.51-0.31-0.75c0.16,0.12,0.33,0.22,0.51,0.29
					c0.33,0.12,0.55,0.06,0.69-0.01c0.39-0.21,0.54-0.85,0.34-1.34c-0.14-0.34-0.38-0.63-0.66-0.88c0.15,0.08,0.3,0.15,0.46,0.21
					c0.35,0.13,0.74,0.12,1.01-0.02C39.99,12.85,40.11,12.7,40.15,12.51z M37.14,9.69c-0.02,0.09,0.02,0.19,0.1,0.23
					c0.75,0.44,1.88,1.4,2.36,2.14c0.1,0.14,0.14,0.27,0.12,0.35c0,0.02-0.02,0.08-0.13,0.14c-0.15,0.09-0.41,0.08-0.63,0
					c-0.26-0.1-0.51-0.24-0.77-0.4c-0.2-0.11-0.4-0.23-0.62-0.33c-0.31-0.14-0.62-0.28-0.93-0.4c-0.1-0.04-0.22,0-0.27,0.09
					c-0.05,0.09-0.03,0.21,0.05,0.28c0.21,0.18,0.47,0.39,0.74,0.58l0.11,0.08c0.51,0.37,1.09,0.8,1.33,1.35
					c0.12,0.27,0.05,0.67-0.14,0.78c-0.09,0.04-0.18,0.04-0.32-0.01c-0.31-0.12-0.59-0.37-0.87-0.62c-0.11-0.09-0.21-0.18-0.31-0.27
					c-0.25-0.2-0.52-0.41-0.84-0.64c-0.09-0.07-0.22-0.06-0.29,0.03c-0.08,0.08-0.08,0.21-0.01,0.29l0.09,0.09
					c0.21,0.24,0.43,0.48,0.63,0.74c0.05,0.06,0.1,0.12,0.15,0.19c0.27,0.33,0.6,0.74,0.64,1.1c0.02,0.17,0,0.61-0.15,0.68
					c-0.21,0.11-0.46-0.12-0.74-0.4l-0.22-0.22c-0.66-0.69-2.24-2.29-2.71-2.68l-0.19-0.15c-0.09-0.08-0.17-0.15-0.26-0.21
					c-0.08-0.06-0.19-0.07-0.27-0.01c-0.08,0.06-0.11,0.17-0.07,0.26l0.05,0.14c0.07,0.14,0.14,0.28,0.2,0.42
					c0.22,0.47,0.42,0.87,0.43,1.38c0,0.37-0.08,0.58-0.12,0.58c-0.23,0.04-0.93-0.71-1.26-1.28c-0.48-0.82-0.99-2.09-0.71-3.43
					c0.03-0.15,0.07-0.3,0.12-0.44c0.41-1.2,1.7-2.68,2.9-2.88c1.13-0.2,4.43,1.21,5.51,2.34c0.21,0.22,0.32,0.42,0.29,0.55l0,0
					c-0.01,0.02-0.02,0.04-0.03,0.07c-0.19,0.24-1.03-0.1-1.59-0.34c-0.45-0.18-0.86-0.35-1.16-0.37c-0.1-0.01-0.19,0.06-0.22,0.15
					C37.14,9.68,37.14,9.68,37.14,9.69z"/>
			</g>
			<g>
				<g>
					<path class="st2" d="M10.9,5.96c0,0,0.33-0.02,0.9-0.05c0.57-0.02,1.39-0.05,2.37-0.01c1.96,0.06,4.56,0.35,7.05,1.04
						c2.49,0.67,4.83,1.72,6.47,2.7c0.4,0.26,0.79,0.46,1.11,0.69c0.32,0.22,0.6,0.41,0.83,0.56c0.44,0.33,0.7,0.53,0.7,0.53
						c0.05,0.03,0.1,0.07,0.15,0.1l4.29-5.54c-0.06-0.05-0.12-0.09-0.18-0.15c0,0-0.32-0.24-0.89-0.66
						c-0.29-0.2-0.65-0.44-1.05-0.71c-0.41-0.28-0.9-0.56-1.41-0.88C29.15,2.33,26.17,1,23.07,0.16c-3.11-0.85-6.29-1.2-8.67-1.28
						c-1.19-0.04-2.18-0.01-2.87,0.01c-0.69,0.04-1.09,0.06-1.09,0.06c-1.56,0.1-2.91,0.68-3.79,1.48c-0.89,0.8-1.28,1.8-1.05,2.75
						c0.23,0.94,0.95,1.67,1.89,2.15C8.44,5.81,9.63,6.05,10.9,5.96z"/>
					<path class="st3" d="M6.5,0.27C5.54,1.13,5.13,2.21,5.38,3.23c0.23,0.95,0.93,1.75,2.01,2.3c1.03,0.52,2.25,0.74,3.52,0.66
						l0.92-0.05c0.58-0.02,1.37-0.04,2.33-0.01c2.32,0.07,4.87,0.44,7,1.02c2.22,0.6,4.56,1.58,6.41,2.68
						c0.16,0.09,0.31,0.19,0.46,0.28c0.23,0.14,0.45,0.27,0.64,0.4l0.82,0.56l0.74,0.55l0.13,0.09c0.1,0.07,0.23,0.05,0.3-0.04
						l4.29-5.54c0.08-0.1,0.06-0.23-0.03-0.31l-1.09-0.83l-1.06-0.72c-0.27-0.19-0.58-0.38-0.91-0.57c-0.17-0.1-0.34-0.2-0.51-0.31
						c-2.39-1.42-5.39-2.67-8.22-3.43c-3.65-1-7.03-1.23-8.72-1.28c-1.23-0.04-2.27-0.01-2.89,0.01l-1.09,0.06l-0.03,0l0,0
						C8.87-1.16,7.45-0.6,6.5,0.27z M30.44,11.22l-0.68-0.51l-0.83-0.56c-0.2-0.14-0.43-0.27-0.67-0.42
						c-0.14-0.08-0.3-0.17-0.45-0.27c-1.88-1.12-4.27-2.11-6.53-2.72c-2.16-0.59-4.75-0.97-7.1-1.04c-0.98-0.03-1.78-0.02-2.4,0
						l-0.9,0.05c-1.2,0.08-2.34-0.14-3.3-0.61C6.93,4.79,6.07,4.15,5.82,3.12C5.61,2.27,5.96,1.34,6.8,0.59
						C7.68-0.2,9-0.72,10.42-0.82L10.4-1.05l0.05,0.22l1.08-0.06c0.62-0.02,1.64-0.05,2.86-0.01c1.67,0.05,5,0.28,8.61,1.27
						c2.8,0.75,5.76,1.99,8.12,3.39c0.17,0.11,0.34,0.21,0.51,0.31c0.32,0.19,0.62,0.38,0.89,0.56l0.82,0.56l1.12,0.81l0.01,0.01
						L30.44,11.22z"/>
				</g>
				<path class="st4" d="M24.01,0.43c0,0-0.4-0.12-1.01-0.29c-0.61-0.16-1.42-0.36-2.24-0.52c-1.63-0.34-3.28-0.52-3.28-0.52
					L16.7,6.09c0,0,1.35,0.14,2.67,0.41c0.66,0.13,1.31,0.3,1.8,0.42c0.49,0.14,0.81,0.23,0.81,0.23L24.01,0.43z"/>
				<path class="st5" d="M32.77,8.58l2.02-2.6c-0.06-0.05-0.12-0.09-0.18-0.15c0,0-0.32-0.24-0.89-0.66
					c-0.29-0.2-0.65-0.44-1.05-0.71c-0.41-0.28-0.9-0.56-1.41-0.88C29.15,2.33,26.17,1,23.07,0.16c-3.11-0.85-6.29-1.2-8.67-1.28
					c-1.19-0.04-2.18-0.01-2.87,0.01c-0.69,0.04-1.09,0.06-1.09,0.06c-1.5,0.1-2.81,0.64-3.69,1.39C5.87,1.1,5.43,2.06,5.56,2.96
					c0,0,1.75-0.44,4.43-0.67c1.34-0.11,2.91-0.17,4.58-0.1c1.68,0.07,3.46,0.26,5.22,0.6c3.53,0.66,6.91,1.99,9.23,3.32
					c0.6,0.32,1.11,0.67,1.58,0.94c0.45,0.3,0.85,0.57,1.17,0.79C32.41,8.31,32.77,8.58,32.77,8.58z"/>
				<path class="st6" d="M28.41,10.07c0,0,0.21,0.13,0.41,0.27c0.2,0.13,0.4,0.27,0.4,0.27l3.97-5.8c0,0-0.26-0.17-0.52-0.35
					c-0.25-0.18-0.52-0.34-0.52-0.34L28.41,10.07z"/>
				<polygon class="st6" points="27.57,9.57 27.99,9.82 31.62,3.81 31.08,3.48 				"/>
			</g>
		</g>
		<g>
			<g>
				<polygon class="st7" points="6.56,-33.25 13.19,-37.2 10.59,-41.62 3.49,-38.73 3.5,-38.36 4.66,-36.1 				"/>
				<path class="st8" d="M10.6-41.98c-0.05,0-0.1,0-0.15,0.02l-7.1,2.88c-0.14,0.06-0.23,0.19-0.23,0.34l0.01,0.37
					c0,0.06,0.02,0.12,0.04,0.16l1.17,2.26l1.91,2.88c0.11,0.16,0.31,0.21,0.48,0.12l6.62-3.96c0.17-0.1,0.23-0.32,0.13-0.49
					l-2.6-4.42C10.84-41.91,10.72-41.97,10.6-41.98z M3.85-38.49l6.58-2.68l2.27,3.85l-6.03,3.6l-1.7-2.58L3.85-38.49z"/>
			</g>
			<g>
				<g>
					<path class="st2" d="M9.16-38.24c0,0,9.3-6.12,4.61-11.4c0,0-9.28,2.74-12.06,9.64c0,0,0.13,0.76,1.27,2.25
						c1.27,1.68,1.91,1.57,1.91,1.57S7.07-36.68,9.16-38.24z"/>
					<path class="st3" d="M13.79-50c-0.04,0-0.08,0-0.11,0.01c-0.1,0.03-2.4,0.72-5.07,2.26c-2.48,1.44-5.75,3.93-7.23,7.59
						C1.36-40.07,1.35-40,1.36-39.94c0.02,0.09,0.18,0.89,1.33,2.42c1.1,1.44,1.81,1.69,2.14,1.7c0.03,0,0.09,0,0.12-0.01
						c0.11-0.02,2.29-0.54,4.43-2.12c0.2-0.14,5.49-3.66,6.03-7.78c0.2-1.51-0.26-2.91-1.37-4.15C13.98-49.95,13.89-50,13.79-50z
						 M2.09-39.98c2.49-6.01,10.17-8.78,11.57-9.24c0.86,1.03,1.2,2.18,1.04,3.4c-0.51,3.8-5.68,7.25-5.74,7.28
						c-1.88,1.4-3.82,1.93-4.12,2.01c-0.1-0.02-0.63-0.17-1.59-1.43C2.43-39.06,2.16-39.75,2.09-39.98z"/>
				</g>
				<g>
					<path class="st7" d="M14.64-48.36c-0.2-0.43-0.48-0.86-0.86-1.28c0,0-9.28,2.74-12.06,9.64c0,0,0.05,0.27,0.31,0.77
						C4.63-43.89,9.46-47.02,14.64-48.36z"/>
					<path class="st8" d="M13.79-50c-0.04,0-0.08,0-0.11,0.01c-0.1,0.03-2.4,0.72-5.07,2.26c-2.48,1.44-5.75,3.93-7.23,7.59
						c-0.03,0.06-0.03,0.13-0.02,0.2c0.01,0.04,0.07,0.33,0.35,0.87c0.06,0.12,0.18,0.18,0.31,0.19c0.13,0.01,0.25-0.07,0.32-0.18
						c2.38-4.28,6.9-7.55,12.39-8.96c0.1-0.03,0.19-0.1,0.24-0.2c0.05-0.1,0.04-0.21,0-0.31c-0.24-0.49-0.54-0.94-0.92-1.37
						C13.98-49.95,13.89-50,13.79-50z M2.19-40.2c2.58-5.85,10.1-8.57,11.47-9.03c0.17,0.2,0.32,0.41,0.45,0.63
						C8.97-47.16,4.68-44.14,2.19-40.2z"/>
				</g>
			</g>
			<g>
				<path class="st9" d="M3.58-38.31c-0.4-0.68-0.17-1.56,0.51-1.96c0.69-0.4,1.56-0.17,1.96,0.51c0.4,0.68,0.17,1.56-0.51,1.96
					C4.86-37.4,3.99-37.62,3.58-38.31z"/>
				<path class="st8" d="M4.9-40.8L4.9-40.8c-0.34-0.02-0.68,0.07-0.97,0.24c-0.4,0.24-0.69,0.62-0.81,1.08
					c-0.12,0.46-0.05,0.93,0.19,1.34c0.3,0.52,0.84,0.84,1.45,0.87c0.34,0.01,0.67-0.07,0.97-0.24c0.84-0.49,1.12-1.58,0.63-2.42
					C6.03-40.44,5.49-40.77,4.9-40.8z M4.77-37.93c-0.38-0.01-0.71-0.22-0.9-0.54c-0.15-0.25-0.19-0.55-0.12-0.84
					c0.07-0.29,0.25-0.52,0.51-0.67c0.51-0.3,1.21-0.11,1.51,0.39c0.31,0.53,0.13,1.2-0.39,1.51C5.19-37.98,4.98-37.92,4.77-37.93z"
					/>
			</g>
		</g>
		<g>
			<path class="st7" d="M-3.27-17.85c0,0-8.21-2.8-11.66-20.54L-3.27-17.85z"/>
			<g>
				<g>
					<g>
						<g>
							<path class="st2" d="M-9.92-17.41c0,0-0.06-0.07-0.18-0.19c-0.11-0.13-0.29-0.31-0.5-0.55c-0.46-0.46-1-1.16-1.66-2.02
								c-1.26-1.71-2.61-4.1-3.65-6.54c-0.25-0.61-0.52-1.23-0.74-1.83c-0.21-0.61-0.42-1.21-0.62-1.78
								c-0.1-0.29-0.19-0.57-0.29-0.85c-0.08-0.28-0.16-0.56-0.23-0.82c-0.15-0.53-0.29-1.04-0.42-1.5
								c-0.07-0.23-0.13-0.46-0.19-0.67c-0.04-0.21-0.09-0.41-0.13-0.6c-0.09-0.38-0.16-0.71-0.22-0.98
								c-0.12-0.54-0.19-0.85-0.19-0.85c-0.01-0.07-0.02-0.13-0.03-0.19l8.24-1.71c0.01,0.05,0.03,0.1,0.05,0.15
								c0,0,0.06,0.27,0.17,0.74c0.06,0.24,0.12,0.53,0.19,0.85c0.03,0.17,0.08,0.34,0.11,0.53c0.05,0.18,0.11,0.37,0.16,0.56
								c0.11,0.4,0.23,0.82,0.36,1.28c0.06,0.23,0.13,0.46,0.2,0.7c0.08,0.23,0.16,0.46,0.24,0.7c0.16,0.47,0.34,0.97,0.51,1.47
								c0.19,0.49,0.4,0.97,0.6,1.46c0.83,1.94,1.84,3.72,2.71,4.9c0.45,0.57,0.8,1.05,1.09,1.34c0.13,0.15,0.24,0.26,0.32,0.35
								c0.07,0.08,0.11,0.12,0.11,0.12c0.63,0.61,0.88,1.42,0.94,2.37c0.02,0.46-0.01,0.98-0.09,1.5c-0.08,0.53-0.21,1.07-0.45,1.61
								c-0.23,0.53-0.59,0.99-1.04,1.32c-0.48,0.33-1.04,0.53-1.67,0.59C-7.47-15.86-8.88-16.37-9.92-17.41z"/>
							<path class="st3" d="M-10.54-38.81L-19.28-37l0.08,0.45l0.61,2.67l0.78,2.77l0.91,2.65c0.16,0.42,0.33,0.84,0.51,1.25
								c0.08,0.2,0.17,0.4,0.25,0.59c1.03,2.42,2.38,4.83,3.68,6.6l0.13,0.16c0.6,0.77,1.11,1.43,1.55,1.88l0.5,0.55
								c0.12,0.14,0.2,0.2,0.2,0.2c0.91,0.92,2.14,1.48,3.35,1.53c0.18,0.01,0.36,0,0.53-0.01c0.68-0.06,1.28-0.27,1.79-0.62
								c0.5-0.36,0.89-0.85,1.14-1.43c0.22-0.51,0.37-1.06,0.46-1.68c0.08-0.52,0.11-1.06,0.09-1.55c-0.07-1.13-0.38-1.93-1.02-2.55
								c0-0.01-0.04-0.04-0.1-0.11l-0.32-0.35c-0.2-0.2-0.45-0.51-0.74-0.88c-0.11-0.14-0.23-0.28-0.34-0.44
								c-0.9-1.23-1.9-3.04-2.67-4.84c-0.08-0.19-0.16-0.38-0.24-0.57c-0.12-0.29-0.25-0.59-0.36-0.88l-0.74-2.17l-0.82-3.04
								l-0.35-1.6c-0.01-0.04-0.02-0.07-0.03-0.11L-10.54-38.81z M-18.66-36.58l7.73-1.61l0.62,2.61l0.62,2.17l0.68,1.98
								c0.12,0.31,0.24,0.61,0.37,0.92c0.08,0.19,0.16,0.37,0.23,0.57c0.78,1.84,1.82,3.7,2.75,4.96c0.13,0.16,0.24,0.31,0.35,0.44
								c0.3,0.37,0.55,0.7,0.77,0.92l0.3,0.34c0.08,0.09,0.13,0.13,0.13,0.13c0.52,0.51,0.8,1.22,0.85,2.2
								c0.03,0.46,0,0.95-0.08,1.44c-0.09,0.58-0.23,1.08-0.43,1.54c-0.21,0.49-0.54,0.91-0.96,1.2c-0.43,0.3-0.95,0.49-1.53,0.53
								c-0.15,0.01-0.3,0.02-0.46,0.01c-1.08-0.05-2.18-0.55-3.01-1.38c-0.01-0.01-0.07-0.07-0.18-0.19l-0.51-0.55
								c-0.42-0.43-0.93-1.08-1.51-1.84l-0.12-0.16c-1.28-1.74-2.6-4.1-3.61-6.48c-0.08-0.2-0.17-0.4-0.25-0.59
								c-0.17-0.41-0.34-0.82-0.5-1.22l-0.9-2.63l-0.84-2.98L-18.66-36.58z"/>
						</g>
						<path class="st5" d="M-2.98-19.09l-0.06,0.1c0,0-0.05-0.02-0.18-0.09c-0.13-0.06-0.32-0.16-0.56-0.32
							c-0.48-0.3-1.16-0.78-1.9-1.49c-0.38-0.34-0.75-0.77-1.15-1.2c-0.2-0.21-0.38-0.47-0.57-0.71c-0.19-0.25-0.4-0.49-0.58-0.77
							c-0.36-0.54-0.76-1.08-1.1-1.69c-0.17-0.3-0.35-0.6-0.53-0.9c-0.18-0.3-0.31-0.63-0.48-0.94c-0.16-0.32-0.31-0.64-0.47-0.95
							c-0.16-0.33-0.27-0.65-0.41-0.97c-0.26-0.65-0.55-1.27-0.75-1.91c-0.22-0.64-0.43-1.25-0.63-1.83
							c-0.16-0.59-0.32-1.15-0.47-1.67c-0.31-1.03-0.49-1.91-0.63-2.53c-0.14-0.61-0.21-0.96-0.21-0.96l2.92-0.6
							c0.02,0.05,0.03,0.1,0.04,0.15c0,0,0.06,0.27,0.17,0.74c0.06,0.24,0.12,0.53,0.19,0.85c0.03,0.17,0.08,0.34,0.11,0.53
							c0.05,0.18,0.11,0.37,0.16,0.56c0.11,0.4,0.23,0.82,0.36,1.28c0.06,0.23,0.13,0.46,0.2,0.7c0.08,0.23,0.16,0.46,0.24,0.7
							c0.16,0.47,0.34,0.97,0.51,1.47c0.19,0.49,0.4,0.97,0.6,1.46c0.83,1.94,1.84,3.72,2.71,4.9c0.45,0.57,0.8,1.05,1.09,1.34
							c0.13,0.15,0.24,0.26,0.32,0.35c0.07,0.08,0.11,0.12,0.11,0.12c0.63,0.61,0.99,1.31,1.15,2.05
							C-2.62-20.58-2.67-19.82-2.98-19.09z"/>
						<polygon class="st6" points="-16.89,-29.23 -17.22,-30.18 -9.22,-32.86 -8.95,-32.08 						"/>
						<path class="st6" d="M-16.55-28.28c0,0-0.05-0.13-0.09-0.24c-0.05-0.12-0.09-0.24-0.09-0.24l7.91-2.93
							c0,0,0.14,0.39,0.14,0.39L-16.55-28.28z"/>
					</g>
					<g>
						<path class="st2" d="M-7.35-28.7c-0.42-0.78-1.13-1.38-2.08-1.67c-0.95-0.29-2.05-0.32-3.12,0.07
							c-1.08,0.4-1.92,1.16-2.32,2.13c-0.41,0.95-0.47,2.1,0.07,3.15c0.27,0.52,0.59,0.97,1.04,1.31c0.44,0.34,0.93,0.58,1.44,0.71
							c0.5,0.12,1.05,0.14,1.58,0.03c0.53-0.11,1.04-0.33,1.52-0.64c0.47-0.33,0.87-0.71,1.19-1.13c0.31-0.42,0.55-0.86,0.73-1.32
							c0.17-0.46,0.25-0.91,0.24-1.35C-7.09-27.85-7.15-28.31-7.35-28.7z"/>
						<path class="st3" d="M-10.66-30.89c-0.69-0.03-1.35,0.07-1.99,0.31c-1.15,0.42-2.06,1.26-2.49,2.28
							c-0.49,1.13-0.46,2.38,0.08,3.41c0.32,0.63,0.67,1.08,1.12,1.41c0.47,0.36,0.99,0.61,1.54,0.75c0.54,0.14,1.14,0.15,1.71,0.04
							c0.57-0.11,1.12-0.34,1.62-0.68c0.48-0.32,0.9-0.73,1.26-1.19c0.32-0.43,0.58-0.9,0.77-1.4c0.19-0.51,0.27-1,0.26-1.47
							c-0.01-0.38-0.07-0.92-0.32-1.41c-0.47-0.88-1.25-1.51-2.25-1.82C-9.77-30.79-10.22-30.87-10.66-30.89z M-11.61-23.21
							c-0.22-0.01-0.43-0.04-0.64-0.09c-0.47-0.12-0.93-0.35-1.33-0.65c-0.37-0.28-0.68-0.66-0.96-1.21
							c-0.46-0.88-0.48-1.93-0.07-2.9c0.37-0.88,1.16-1.59,2.16-1.96c0.93-0.34,1.97-0.36,2.94-0.07c0.85,0.26,1.51,0.79,1.9,1.53
							c0.2,0.38,0.24,0.84,0.25,1.16c0.01,0.38-0.07,0.8-0.23,1.23c-0.16,0.45-0.4,0.86-0.69,1.25c-0.31,0.41-0.69,0.77-1.11,1.06
							c-0.45,0.3-0.92,0.5-1.41,0.6C-11.08-23.22-11.35-23.2-11.61-23.21z"/>
					</g>
					<path class="st4" d="M-8.33-28.16c-0.15-0.31-0.38-0.56-0.65-0.76c-0.25-0.22-0.56-0.38-0.9-0.49
						c-0.69-0.21-1.51-0.21-2.28,0.1c-0.78,0.31-1.36,0.88-1.67,1.59c-0.15,0.35-0.24,0.72-0.24,1.11c0.02,0.38,0.11,0.78,0.3,1.14
						c0.18,0.37,0.43,0.69,0.73,0.93c0.3,0.24,0.67,0.41,1.04,0.5c0.75,0.19,1.55,0.06,2.27-0.38c0.71-0.44,1.21-1.1,1.45-1.77
						c0.12-0.34,0.18-0.68,0.17-1C-8.11-27.53-8.18-27.85-8.33-28.16z"/>
				</g>
				<g>
					<polygon class="st2" points="-10.12,-39.09 -19.63,-37.2 -19.15,-35.04 -9.71,-37.25 					"/>
					<path class="st3" d="M-9.92-39.4l-10.03,1.99l0.6,2.7l9.95-2.33L-9.92-39.4z M-19.31-36.99l8.98-1.79l0.3,1.34l-8.92,2.09
						L-19.31-36.99z"/>
				</g>
			</g>
		</g>
		<g>
			<g>
				<g>
					<g>
						<path class="st2" d="M4.88-23.49c0,0,0.06-0.02,0.15-0.07c0.1-0.04,0.24-0.11,0.42-0.21c0.34-0.18,0.82-0.45,1.3-0.81
							c0.47-0.35,0.92-0.79,1.21-1.22c0.29-0.45,0.44-0.87,0.5-1.41c0.06-0.54-0.03-1.22-0.23-1.95c-0.13-0.38-0.22-0.73-0.4-1.09
							c-0.08-0.18-0.15-0.36-0.22-0.52c-0.09-0.18-0.18-0.34-0.27-0.5c-0.08-0.16-0.16-0.32-0.24-0.46
							c-0.08-0.15-0.18-0.29-0.26-0.42c-0.16-0.26-0.3-0.5-0.42-0.68c-0.26-0.38-0.42-0.6-0.42-0.6c-0.03-0.04-0.06-0.08-0.08-0.13
							l6.88-4.84c0.04,0.06,0.08,0.11,0.12,0.17c0,0,0.2,0.29,0.55,0.79c0.17,0.27,0.37,0.59,0.6,0.97c0.11,0.19,0.24,0.38,0.36,0.6
							c0.12,0.23,0.24,0.46,0.37,0.71c0.13,0.25,0.26,0.51,0.4,0.77c0.12,0.28,0.25,0.58,0.39,0.89c0.27,0.58,0.5,1.31,0.73,2.02
							c0.41,1.48,0.71,3.25,0.51,5.15c-0.17,1.89-0.9,3.81-1.89,5.26c-0.99,1.47-2.15,2.51-3.14,3.25c-1,0.75-1.86,1.22-2.46,1.55
							c-0.6,0.3-0.95,0.46-0.95,0.46c-1.37,0.61-2.77,0.59-3.85,0.1c-1.08-0.49-1.82-1.43-2.04-2.57c-0.23-1.14-0.01-2.26,0.43-3.17
							C3.39-22.39,4.05-23.11,4.88-23.49z"/>
						<path class="st3" d="M12.86-38.78l-7.3,5.14l0.22,0.34l0.42,0.61l0.5,0.82c0.06,0.08,0.11,0.17,0.16,0.26l0.6,1.19l0.12,0.27
							c0.11,0.24,0.19,0.45,0.26,0.69c0.04,0.13,0.09,0.26,0.13,0.4c0.19,0.68,0.26,1.34,0.21,1.83c-0.05,0.49-0.19,0.87-0.46,1.29
							c-0.23,0.37-0.64,0.78-1.14,1.16C6.13-24.44,5.64-24.18,5.32-24l-0.41,0.2c-0.07,0.04-0.12,0.06-0.13,0.06
							c-0.87,0.4-1.58,1.13-2.08,2.15c-0.51,1.06-0.67,2.24-0.45,3.34c0.24,1.23,1.04,2.23,2.19,2.75c1.19,0.55,2.72,0.52,4.07-0.09
							l0.15-0.07c0.16-0.08,0.44-0.21,0.81-0.4c0.59-0.32,1.47-0.8,2.5-1.57c1.33-1.01,2.38-2.09,3.2-3.32
							c1.06-1.55,1.76-3.52,1.94-5.39c0.16-1.65-0.01-3.41-0.53-5.24l-0.12-0.37c-0.2-0.61-0.39-1.18-0.63-1.69l-0.38-0.88
							l-0.79-1.5c-0.08-0.15-0.16-0.29-0.25-0.42l-0.71-1.16L12.86-38.78z M6.29-33.5l6.46-4.55l0.51,0.74l0.71,1.15
							c0.08,0.13,0.16,0.25,0.24,0.4l0.77,1.47l0.38,0.87c0.22,0.48,0.41,1.05,0.6,1.64l0.12,0.37c0.49,1.75,0.66,3.45,0.5,5.03
							c-0.16,1.79-0.84,3.66-1.85,5.14c-0.8,1.19-1.78,2.21-3.08,3.2c-0.99,0.74-1.86,1.21-2.43,1.51
							c-0.54,0.27-0.87,0.44-0.93,0.45l0,0.01c-1.21,0.55-2.57,0.58-3.63,0.1c-1-0.46-1.69-1.32-1.89-2.37
							c-0.2-0.99-0.05-2.06,0.41-3.01c0.44-0.89,1.06-1.55,1.8-1.89c0,0,0.06-0.02,0.16-0.08l0.41-0.2
							c0.35-0.19,0.85-0.47,1.34-0.83c0.39-0.3,0.92-0.76,1.27-1.29c0.31-0.49,0.48-0.96,0.54-1.53c0.06-0.57-0.02-1.27-0.23-2.05
							c-0.05-0.15-0.1-0.27-0.14-0.4c-0.08-0.24-0.16-0.48-0.28-0.74l-0.22-0.51l-0.51-0.98c-0.06-0.1-0.11-0.2-0.18-0.29l-0.5-0.83
							L6.29-33.5z"/>
					</g>
					<path class="st5" d="M2.79-16.98c-0.01-0.04-0.01-0.08-0.02-0.12c0,0,0.4-0.07,1.08-0.26c0.68-0.18,1.64-0.47,2.75-0.94
						c1.1-0.48,2.39-1.11,3.62-2.09c0.63-0.47,1.21-1.06,1.75-1.7c0.54-0.65,0.98-1.42,1.33-2.22c0.66-1.65,0.74-3.46,0.46-5.01
						c-0.27-1.57-0.83-2.89-1.35-3.98c-0.28-0.52-0.52-1.03-0.78-1.44c-0.25-0.41-0.48-0.77-0.66-1.06
						c-0.4-0.56-0.62-0.89-0.62-0.89l2.44-1.72c0.04,0.06,0.08,0.11,0.12,0.17c0,0,0.2,0.29,0.55,0.79c0.17,0.27,0.37,0.59,0.6,0.97
						c0.11,0.19,0.24,0.38,0.36,0.6c0.12,0.23,0.24,0.46,0.37,0.71c0.13,0.25,0.26,0.51,0.4,0.77c0.12,0.28,0.25,0.58,0.39,0.89
						c0.27,0.58,0.5,1.31,0.73,2.02c0.41,1.48,0.71,3.25,0.51,5.15c-0.17,1.89-0.9,3.81-1.89,5.26c-0.99,1.47-2.15,2.51-3.14,3.25
						c-1,0.75-1.86,1.22-2.46,1.55c-0.6,0.3-0.95,0.46-0.95,0.46c-1.36,0.61-2.72,0.73-3.74,0.47C3.63-15.61,2.94-16.2,2.79-16.98z"
						/>
					<path class="st6" d="M8.39-28.49c0,0-0.04-0.14-0.07-0.29c-0.02-0.15-0.06-0.29-0.06-0.29l8.13-2.26l0.29,1.26L8.39-28.49z"/>
					<polygon class="st6" points="8.46,-27.97 8.43,-28.23 16.78,-29.39 16.86,-28.72 					"/>
				</g>
				<g>
					<path class="st2" d="M16.37-23.5c0.31-0.81,0.36-1.65,0.27-2.38c-0.13-0.73-0.38-1.37-0.78-1.84c-0.19-0.24-0.4-0.44-0.63-0.61
						c-0.23-0.16-0.49-0.28-0.75-0.37c-0.52-0.18-1.08-0.22-1.65-0.14c-0.56,0.08-1.09,0.27-1.56,0.49
						c-0.24,0.11-0.45,0.23-0.67,0.35c-0.22,0.12-0.43,0.24-0.61,0.36c-0.35,0.25-0.7,0.47-0.92,0.68c-0.26,0.2-0.4,0.39-0.49,0.61
						c-0.15,0.43-0.01,1.05,0.24,1.92c0.26,0.86,0.65,1.89,1.42,2.74c0.76,0.85,1.84,1.32,3.04,1.09c0.3-0.05,0.59-0.17,0.89-0.32
						c0.15-0.07,0.3-0.16,0.45-0.25c0.14-0.1,0.28-0.22,0.42-0.34c0.27-0.24,0.55-0.52,0.76-0.87
						C16.01-22.73,16.24-23.09,16.37-23.5z"/>
					<path class="st3" d="M13.56-29.18c-0.25-0.01-0.51,0.01-0.77,0.04c-0.54,0.08-1.08,0.24-1.65,0.5
						c-0.24,0.11-0.46,0.24-0.67,0.35c-0.25,0.13-0.46,0.26-0.65,0.38c-0.1,0.07-0.2,0.14-0.3,0.2c-0.25,0.18-0.49,0.34-0.67,0.51
						c-0.26,0.2-0.45,0.43-0.56,0.71c-0.19,0.54-0.02,1.25,0.24,2.12c0.26,0.86,0.67,1.96,1.49,2.86c0.88,0.97,2.1,1.41,3.31,1.17
						c0.34-0.05,0.68-0.2,0.96-0.34c0.16-0.08,0.32-0.17,0.48-0.27c0.18-0.13,0.33-0.26,0.46-0.37c0.27-0.24,0.57-0.54,0.81-0.93
						c0.23-0.35,0.46-0.74,0.61-1.18c0.37-0.98,0.36-1.9,0.28-2.51c-0.15-0.84-0.43-1.51-0.85-1.99c-0.2-0.25-0.43-0.47-0.68-0.65
						c-0.23-0.17-0.51-0.31-0.82-0.42C14.25-29.1,13.91-29.16,13.56-29.18z M12.54-20.86c-0.78-0.03-1.5-0.4-2.09-1.04
						c-0.73-0.8-1.09-1.78-1.36-2.63c-0.21-0.71-0.39-1.37-0.25-1.73c0.06-0.17,0.19-0.32,0.4-0.48c0.16-0.16,0.38-0.3,0.61-0.46
						c0.09-0.07,0.2-0.13,0.3-0.21c0.16-0.11,0.36-0.22,0.58-0.34c0.23-0.13,0.43-0.24,0.64-0.34c0.52-0.24,1.01-0.39,1.49-0.46
						c0.54-0.08,1.05-0.03,1.51,0.12c0.26,0.09,0.49,0.2,0.68,0.33c0.2,0.15,0.4,0.33,0.57,0.55c0.35,0.41,0.59,0.98,0.72,1.71
						c0.06,0.52,0.08,1.35-0.25,2.22c-0.13,0.4-0.33,0.73-0.54,1.06c-0.21,0.33-0.48,0.6-0.72,0.8c-0.1,0.1-0.24,0.22-0.39,0.32
						c-0.13,0.08-0.27,0.16-0.41,0.23c-0.31,0.14-0.56,0.24-0.8,0.28C13-20.87,12.77-20.85,12.54-20.86z"/>
				</g>
				<path class="st4" d="M15.29-23.81c0.1-0.27,0.16-0.54,0.21-0.8c0.03-0.27,0.02-0.53-0.01-0.78c-0.03-0.5-0.22-0.95-0.47-1.3
					c-0.12-0.18-0.26-0.34-0.41-0.47c-0.15-0.13-0.34-0.24-0.52-0.32c-0.37-0.17-0.76-0.25-1.19-0.24c-0.42,0.01-0.82,0.1-1.18,0.22
					c-0.18,0.06-0.35,0.13-0.51,0.21c-0.17,0.07-0.33,0.16-0.48,0.24c-0.29,0.17-0.52,0.35-0.73,0.53c-0.1,0.08-0.17,0.19-0.24,0.28
					c-0.08,0.09-0.14,0.19-0.17,0.31c-0.03,0.11-0.07,0.22-0.08,0.34c-0.01,0.12,0.01,0.26,0.01,0.38c0,0.26,0.11,0.58,0.2,0.88
					c0.1,0.32,0.26,0.66,0.45,0.99c0.19,0.33,0.44,0.65,0.75,0.94c0.62,0.56,1.43,0.82,2.27,0.59c0.43-0.08,0.82-0.34,1.2-0.66
					c0.2-0.16,0.35-0.38,0.5-0.59C15.06-23.3,15.21-23.54,15.29-23.81z"/>
			</g>
			<g>
				<path class="st2" d="M13.05-39.32l-7.83,5.71c0,0,0.26,0.37,0.52,0.74c0.14,0.18,0.26,0.36,0.33,0.5
					c0.09,0.14,0.14,0.23,0.14,0.23l8.23-5.11c0,0-0.08-0.13-0.2-0.34c-0.12-0.21-0.3-0.47-0.48-0.72
					C13.41-38.81,13.05-39.32,13.05-39.32z"/>
				<path class="st3" d="M13.12-39.68l-8.26,6.01l0.67,0.95c0.13,0.19,0.25,0.36,0.32,0.48l0.28,0.47l8.68-5.39l-0.35-0.56
					c-0.12-0.21-0.31-0.49-0.49-0.74L13.12-39.68z M5.59-33.55l7.4-5.4l0.56,0.79c0.18,0.24,0.35,0.5,0.47,0.7l0.07,0.12L6.3-32.5v0
					c-0.08-0.14-0.2-0.33-0.35-0.52L5.59-33.55z"/>
			</g>
		</g>
		<g>
			<path class="st2" d="M13.56-11.35l-26.24-1.15c0,0,0.1-5.55,0.93-6.71c0.83-1.16,10.19-4.68,12.08-4.39l1.25,0.06
				c1.91-0.13,10.93,4.2,11.65,5.43C13.95-16.89,13.56-11.35,13.56-11.35z"/>
			<path class="st3" d="M1.75-23.76L1.75-23.76c-0.07,0-0.13,0-0.19,0l-1.23-0.06c-0.03-0.01-0.09-0.01-0.16-0.02
				c-2.18-0.09-11.22,3.27-12.1,4.49c-0.85,1.21-0.96,6.6-0.96,6.84l0,0.2l26.66,1.17l0.01-0.21c0.02-0.23,0.38-5.62-0.36-6.89
				C12.64-19.52,3.93-23.66,1.75-23.76z M1.57-23.34c0.07,0,0.11,0,0.16,0c2.25,0.1,10.69,4.26,11.31,5.33
				c0.54,0.92,0.43,4.78,0.32,6.44l-25.83-1.13c0.04-1.66,0.27-5.51,0.88-6.38c0.72-1.02,9.49-4.42,11.74-4.32
				c0.04,0,0.09,0,0.13,0.01L1.57-23.34z"/>
		</g>
		<path class="st10" d="M-5.43-19.59c2.75-0.33,5.57-0.37,8.33-0.11c3.69,0.34,7.45,1.25,10.67,3.07c0.21,2.07-0.01,5.28-0.01,5.28
			l-26.24-1.15c0,0,0.06-3.1,0.43-5.16C-10.18-18.8-7.75-19.32-5.43-19.59z"/>
		<g>
			<path class="st2" d="M12.07-0.11C8.85,5.98,2.15,7.85,2.15,7.85l-5.51-0.24c0,0-6.51-2.44-9.18-8.79
				c-2.67-6.35-5.09-15.45,6.25-17.35c0,0,1.66-0.38,4.31-0.51c0,0,1.74-0.11,2.56-0.05c0.81,0.01,2.55,0.27,2.55,0.27
				c2.62,0.36,4.25,0.89,4.25,0.89C18.49-15.05,15.29-6.2,12.07-0.11z"/>
			<path class="st3" d="M0.73-19.28L0.73-19.28c-0.06,0-0.11,0-0.16,0c-0.04,0-0.09-0.01-0.15-0.01c-0.85-0.04-2.36,0.05-2.42,0.05
				c-2.63,0.14-4.33,0.51-4.34,0.52c-3.79,0.63-6.37,2.14-7.65,4.48c-2.17,3.93-0.31,9.38,1.27,13.13c2.68,6.35,9.23,8.88,9.29,8.9
				l0.06,0l5.57,0.24c0.07-0.02,6.81-1.97,10.03-8.06c1.91-3.6,4.23-8.87,2.41-12.97c-1.08-2.44-3.52-4.17-7.24-5.13
				c-0.01-0.01-1.66-0.52-4.27-0.89C3.07-19.02,1.59-19.24,0.73-19.28z M0.55-18.89h0.16l0,0c0.84,0.03,2.36,0.25,2.37,0.26
				c2.57,0.36,4.2,0.88,4.21,0.88c3.62,0.93,5.97,2.59,7,4.92c1.74,3.96-0.54,9.1-2.4,12.63c-3.03,5.74-9.29,7.7-9.76,7.85
				l-5.45-0.24c-0.46-0.19-6.52-2.69-9.04-8.68c-1.55-3.68-3.37-9-1.3-12.79c1.23-2.22,3.72-3.67,7.39-4.28
				c0.02-0.01,1.69-0.38,4.28-0.51c0.02-0.01,1.55-0.09,2.39-0.06L0.55-18.89z"/>
		</g>
		<path class="st5" d="M5.12,6.6c-1.7,0.9-2.97,1.25-2.97,1.25l-5.51-0.24c0,0-0.82-0.31-2-0.98l1.11-25.47
			c0.63-0.07,1.39-0.14,2.26-0.19c0,0,1.74-0.11,2.56-0.05c0.81,0.01,2.55,0.27,2.55,0.27c1.3,0.18,2.36,0.4,3.09,0.58L5.12,6.6z"/>
		<path class="st11" d="M14.85-8.12c-0.05,0.24-0.1,0.48-0.16,0.73l-29.19-1.28c-0.04-0.25-0.07-0.5-0.1-0.74L14.85-8.12z"/>
		<g>
			<g>
				<g>
					<path class="st2" d="M-19.55,19.43c0.1-2.33-1.7-4.29-4.03-4.39l0,0c-2.33-0.1-4.3,1.7-4.4,4.03l-0.39,8.95
						c-0.11,2.33,1.7,4.29,4.03,4.39l0,0c2.33,0.1,4.29-1.7,4.39-4.03L-19.55,19.43z"/>
					<path class="st3" d="M-23.56,14.83c-2.44-0.11-4.51,1.79-4.62,4.22l-0.39,8.96c-0.11,2.43,1.79,4.5,4.23,4.61
						c2.44,0.11,4.51-1.79,4.61-4.22l0.39-8.95C-19.23,17-21.12,14.93-23.56,14.83z M-24.32,32.19c-2.21-0.1-3.92-1.96-3.83-4.17
						l0.39-8.95c0.1-2.2,1.97-3.92,4.18-3.82c2.21,0.1,3.92,1.97,3.83,4.17l-0.39,8.95C-20.24,30.58-22.12,32.29-24.32,32.19z"/>
				</g>
				<path class="st12" d="M-20.54,20.39c0.08-1.8-1.32-3.32-3.12-3.4l0,0c-1.8-0.08-3.33,1.31-3.41,3.12l-0.3,6.93
					c-0.08,1.81,1.32,3.33,3.12,3.4l0,0c1.8,0.08,3.33-1.31,3.41-3.12L-20.54,20.39z"/>
				<path class="st13" d="M-23.41,26.22c0.04-0.85-0.63-1.57-1.48-1.61c-0.85-0.04-1.57,0.62-1.61,1.48
					c-0.03,0.85,0.62,1.57,1.48,1.61C-24.17,27.73-23.45,27.07-23.41,26.22z"/>
				<path class="st14" d="M-23.23,22.11c0.04-0.85-0.62-1.58-1.48-1.61c-0.85-0.03-1.58,0.63-1.61,1.48
					c-0.04,0.86,0.62,1.58,1.48,1.61C-23.99,23.63-23.27,22.97-23.23,22.11z"/>
			</g>
			<g>
				<g>
					<path class="st2" d="M18.1,21.07c0.1-2.33,2.07-4.13,4.4-4.03l0,0c2.32,0.1,4.13,2.07,4.03,4.4l-0.39,8.95
						c-0.1,2.33-2.07,4.13-4.4,4.03l0,0c-2.32-0.1-4.13-2.06-4.03-4.39L18.1,21.07z"/>
					<path class="st3" d="M22.5,16.83c-2.44-0.1-4.51,1.79-4.62,4.23l-0.39,8.95c-0.11,2.44,1.8,4.51,4.23,4.61
						c2.44,0.11,4.51-1.79,4.62-4.22l0.39-8.95C26.84,19.01,24.94,16.94,22.5,16.83z M21.74,34.21c-2.2-0.1-3.92-1.96-3.82-4.17
						l0.39-8.95c0.1-2.2,1.97-3.92,4.17-3.82c2.21,0.1,3.93,1.97,3.83,4.17l-0.39,8.95C25.82,32.6,23.95,34.3,21.74,34.21z"/>
				</g>
				<path class="st12" d="M19,22.12c0.08-1.81,1.61-3.2,3.41-3.12l0,0c1.81,0.08,3.2,1.6,3.12,3.41l-0.3,6.93
					c-0.07,1.81-1.6,3.2-3.41,3.12l0,0c-1.8-0.08-3.2-1.59-3.12-3.4L19,22.12z"/>
				<path class="st13" d="M21.35,28.17c0.04-0.85,0.76-1.51,1.62-1.48c0.85,0.04,1.51,0.76,1.48,1.61
					c-0.04,0.85-0.76,1.51-1.61,1.48C21.98,29.75,21.32,29.03,21.35,28.17z"/>
				<path class="st14" d="M21.54,24.07c0.04-0.85,0.76-1.51,1.61-1.48c0.85,0.04,1.51,0.76,1.47,1.62
					c-0.04,0.85-0.76,1.51-1.61,1.48C22.16,25.64,21.5,24.92,21.54,24.07z"/>
			</g>
			<g>
				<g>
					<path class="st2" d="M22.49,25.09C23.1,10.89,12.85,5.72-0.06,5.15c-12.91-0.57-23.58,3.7-24.21,17.89
						c-0.62,14.19,9.35,26.16,22.26,26.72C10.9,50.33,21.87,39.28,22.49,25.09z"/>
					<path class="st3" d="M-0.05,4.94c-10.76-0.47-23.74,2.29-24.43,18.1c-0.62,14.29,9.45,26.37,22.46,26.94
						c13,0.56,24.09-10.6,24.72-24.89C23.39,9.29,10.71,5.41-0.05,4.94z M-2,49.55c-12.78-0.56-22.67-12.44-22.06-26.5
						C-23.38,7.59-10.64,4.9-0.07,5.36C10.5,5.82,22.95,9.62,22.28,25.08C21.66,39.13,10.77,50.11-2,49.55z"/>
				</g>
				<g>
					<path class="st2" d="M8.34,44.03c0.13-2.93-4.43-4.1-10.12-4.35c-5.68-0.25-10.33,0.53-10.46,3.45
						c-0.13,2.93,4.37,5.5,10.06,5.75C3.5,49.13,8.21,46.96,8.34,44.03z"/>
					<path class="st9" d="M-1.77,39.47c-6.88-0.3-10.57,0.96-10.68,3.65c-0.13,3.03,4.47,5.71,10.26,5.96
						c5.79,0.25,10.62-2.01,10.75-5.05C8.67,41.35,5.1,39.77-1.77,39.47z M-2.18,48.67c-5.56-0.24-9.98-2.73-9.86-5.53
						c0.13-3.04,5.64-3.45,10.24-3.25c4.6,0.2,10.06,1.08,9.93,4.13C8.01,46.82,3.39,48.91-2.18,48.67z"/>
				</g>
				<path class="st12" d="M17.55,32.53c-2.1,7.31-18.64,6.59-18.64,6.59l-0.7-0.03c0,0-16.55-0.72-17.99-8.19
					c0,0-0.96-11.21,2.82-18.73c0,0,4.06-4.61,16.86-3.68c12.84,0.18,16.48,5.13,16.48,5.13C19.48,21.45,17.55,32.53,17.55,32.53z"
					/>
				<path class="st12" d="M-19.47,21.04c0.39-2.97,1.14-6.16,2.5-8.87c0,0,4.06-4.61,16.86-3.68c12.84,0.18,16.48,5.13,16.48,5.13
					c1.12,2.81,1.58,6.06,1.72,9.05L-19.47,21.04z"/>
				<path class="st15" d="M16.15,32.24c-1.94,6.75-17.23,6.08-17.23,6.08l-0.65-0.02c0,0-15.29-0.67-16.63-7.56
					c0,0-0.88-10.36,2.61-17.32c0,0,3.75-4.25,15.58-3.39c11.87,0.17,15.23,4.74,15.23,4.74C17.93,21.99,16.15,32.24,16.15,32.24z"
					/>
			</g>
		</g>
		<path class="st16" d="M9.82-11.06c0.12-2.75-2.01-5.08-4.76-5.2l-8.68-0.38c-2.75-0.12-5.07,2.01-5.2,4.76L-9.2-3.19
			c-0.12,2.75,2.01,5.07,4.76,5.19l8.69,0.38c2.75,0.12,5.07-2.01,5.19-4.76L9.82-11.06z"/>
		<g>
			<path class="st2" d="M9.06-10.75c0.11-2.53-1.85-4.67-4.38-4.78l-8-0.35c-2.53-0.11-4.67,1.85-4.78,4.38l-0.35,8
				C-8.56-0.97-6.6,1.17-4.07,1.28l8,0.35C6.46,1.74,8.6-0.21,8.71-2.75L9.06-10.75z"/>
			<path class="st16" d="M6.74-1.43C6.8-2.77,5.76-3.89,4.42-3.95l-8.28-0.37C-5.2-4.38-6.33-3.34-6.39-2l0,0
				c-0.06,1.34,0.99,2.47,2.32,2.53L4.21,0.9C5.55,0.95,6.68-0.09,6.74-1.43L6.74-1.43z"/>
			<path class="st17" d="M6.02-1.46c0.05-1.17-0.86-2.17-2.04-2.22L-3.31-4c-1.17-0.05-2.17,0.86-2.22,2.03l0,0
				C-5.58-0.79-4.67,0.21-3.5,0.26l7.29,0.32C4.97,0.63,5.97-0.28,6.02-1.46L6.02-1.46z"/>
			<path class="st17" d="M2.47-1.44c0.03-0.71-0.52-1.32-1.23-1.35l-4.4-0.19c-0.71-0.03-1.31,0.52-1.34,1.23l0,0
				C-4.55-1.03-4-0.43-3.29-0.4l4.41,0.19C1.83-0.17,2.44-0.73,2.47-1.44L2.47-1.44z"/>
			<path class="st6" d="M-2.1-7.65c0.05-1.13-0.82-2.09-1.97-2.14C-5.2-9.84-6.16-8.96-6.21-7.83c-0.05,1.14,0.83,2.1,1.96,2.15
				C-3.11-5.64-2.15-6.52-2.1-7.65z"/>
			<path class="st18" d="M-2.93-7.6C-2.9-8.28-3.42-8.86-4.1-8.88c-0.68-0.03-1.25,0.49-1.28,1.18c-0.03,0.68,0.5,1.25,1.18,1.28
				C-3.53-6.39-2.96-6.92-2.93-7.6z"/>
			<path class="st15" d="M-2-12.95c0.05-1.06-0.77-1.96-1.84-2.01c-1.06-0.05-1.96,0.77-2,1.84c-0.05,1.05,0.78,1.95,1.84,2
				C-2.94-11.07-2.05-11.89-2-12.95z"/>
			<g>
				<path class="st6" d="M5.58-7.12c0.03-0.7-0.51-1.29-1.21-1.32C3.68-8.47,3.08-7.93,3.05-7.23c-0.03,0.7,0.51,1.29,1.21,1.32
					C4.96-5.88,5.55-6.42,5.58-7.12z"/>
				<path class="st19" d="M5.6-7.27c0.03-0.57-0.42-1.06-0.99-1.08C4.03-8.38,3.55-7.94,3.52-7.36c-0.03,0.57,0.42,1.06,1,1.09
					C5.09-6.25,5.58-6.7,5.6-7.27z"/>
				<path class="st20" d="M6.1-12.89c0.03-0.81-0.6-1.5-1.41-1.53c-0.82-0.04-1.5,0.59-1.54,1.4c-0.04,0.82,0.59,1.5,1.41,1.54
					C5.37-11.44,6.06-12.07,6.1-12.89z"/>
				<path class="st19" d="M5.67-12.92c0.02-0.57-0.43-1.06-1-1.09c-0.57-0.03-1.06,0.42-1.09,0.99C3.56-12.44,4-11.95,4.57-11.92
					C5.15-11.89,5.64-12.34,5.67-12.92z"/>
				<g>
					<path class="st21" d="M8.9-9.25C8.88-9.13,8.86-9.01,8.84-8.89L8.71-8.53C8.64-8.3,8.48-8.1,8.35-7.88
						C8.2-7.7,8.03-7.52,7.85-7.38C7.13-6.82,6.39-6.63,5.79-6.52c-0.47,0.08-0.86,0.1-1.18,0.11C4.35-6.57,4.12-6.78,4.06-7.07
						C3.98-7.48,4.09-7.83,4.33-8.11c0.28,0,0.68,0,1.17-0.09c0.45-0.07,0.94-0.24,1.28-0.5c0.34-0.27,0.45-0.6,0.46-1.18
						c-0.01-0.58-0.18-1.04-0.48-1.35C6.46-11.56,6-11.76,5.57-11.88c-0.38-0.1-0.73-0.16-1.01-0.19c-0.36-0.37-0.6-0.91-0.23-1.37
						c0.13-0.16,0.28-0.26,0.45-0.32c0.32,0.04,0.75,0.09,1.26,0.24C6.63-13.35,7.38-13.07,8-12.4c0.64,0.65,0.94,1.65,0.94,2.48
						l0,0.32C8.93-9.49,8.91-9.37,8.9-9.25z"/>
					<g>
						<path class="st22" d="M4.06-7.07C3.98-7.48,4.09-7.83,4.33-8.11c0.07,0,0.12,0,0.12,0l0,1.59C4.26-6.66,4.11-6.84,4.06-7.07z"
							/>
						<path class="st22" d="M5.52-6.48c0,0-0.12,0.01-0.24,0.03C5.16-6.44,5.04-6.43,5.04-6.43l-0.12-1.7c0,0,0.09-0.01,0.19-0.01
							C5.2-8.15,5.29-8.16,5.29-8.16L5.52-6.48z"/>
						<path class="st22" d="M6.78-6.78c0,0-0.04,0.01-0.1,0.03C6.61-6.72,6.53-6.69,6.44-6.67C6.28-6.62,6.11-6.57,6.11-6.57
							L5.73-8.24c0,0,0.12-0.04,0.23-0.07c0.06-0.01,0.11-0.03,0.15-0.05c0.04-0.01,0.07-0.03,0.07-0.03L6.78-6.78z"/>
						<path class="st22" d="M7.85-7.38c0,0-0.12,0.08-0.23,0.17C7.5-7.12,7.38-7.06,7.38-7.06L6.54-8.54
							C6.55-8.53,6.77-8.7,6.77-8.7L7.85-7.38z"/>
						<path class="st22" d="M8.75-8.64c0,0-0.02,0.04-0.05,0.12C8.68-8.45,8.65-8.35,8.59-8.26C8.48-8.08,8.36-7.9,8.36-7.9L7-8.93
							c0,0,0.04-0.07,0.09-0.14c0.05-0.08,0.06-0.16,0.07-0.16L8.75-8.64z"/>
						<path class="st22" d="M8.94-9.88c0,0,0,0.13,0,0.25c0,0.05-0.01,0.14-0.02,0.19C8.92-9.38,8.91-9.35,8.91-9.35L7.22-9.53
							c0-0.01,0.02-0.06,0.02-0.15c0-0.08,0-0.17,0-0.17L8.94-9.88z"/>
						<path class="st22" d="M8.7-11.26c0.03,0,0.21,0.73,0.18,0.73L7.2-10.26c0.01-0.01-0.09-0.42-0.11-0.41L8.7-11.26z"/>
						<path class="st22" d="M8.05-12.34c0,0,0.03,0.02,0.06,0.06c0.04,0.04,0.08,0.1,0.13,0.16C8.32-12,8.4-11.88,8.4-11.88
							l-1.45,0.9c0,0-0.16-0.23-0.17-0.22L8.05-12.34z"/>
						<path class="st22" d="M6.9-13.19c0-0.02,0.64,0.36,0.63,0.38l-1.02,1.38c0.01-0.01-0.36-0.23-0.37-0.22L6.9-13.19z"/>
						<path class="st22" d="M5.84-13.58c0,0,0.12,0.03,0.24,0.07c0.12,0.03,0.24,0.07,0.24,0.07l-0.55,1.62c0,0-0.09-0.02-0.17-0.05
							c-0.08-0.03-0.17-0.05-0.17-0.05L5.84-13.58z"/>
						<path class="st22" d="M4.56-12.07c-0.04-0.03-0.07-0.06-0.1-0.11l0.14-1.51c0.06-0.03,0.11-0.05,0.17-0.08
							c0.05,0.01,0.1,0.02,0.16,0.02c0.16,0.03,0.32,0.06,0.32,0.06l-0.27,1.68c0,0-0.13-0.02-0.26-0.04
							C4.66-12.06,4.61-12.06,4.56-12.07z"/>
					</g>
				</g>
				<path class="st9" d="M5.61-7.86c0.11,0,2.58-0.31,1.98-2.59c0,0-0.05-1.3-2.07-1.71c0,0,2.73,0.16,2.57,2.47
					C7.91-7.37,5.61-7.86,5.61-7.86z"/>
			</g>
			<path class="st23" d="M-2.69-13.04c0.03-0.68-0.5-1.25-1.17-1.28c-0.68-0.03-1.25,0.5-1.28,1.17c-0.03,0.67,0.5,1.25,1.17,1.28
				C-3.29-11.84-2.72-12.37-2.69-13.04z"/>
		</g>
		<g>
			<g>
				<g>
					<g>
						<path class="st2" d="M-13.87-34.89c0,0-9.19,7.59-13.11,1.14c0,0,5.53-9.65,13.46-10.33c0,0,0.94,1.05,2.12,2.68
							c1.32,1.83,0.99,2.78,0.99,2.78S-11.61-36.55-13.87-34.89z"/>
						<path class="st3" d="M-13.5-44.46c-0.01,0-0.03,0.01-0.05,0c-8.04,0.68-13.54,10.12-13.77,10.52
							c-0.07,0.13-0.06,0.27,0.01,0.39c1.07,1.76,2.61,2.69,4.56,2.77c4.22,0.18,8.92-3.65,9.12-3.81c2.28-1.67,3.49-3.75,3.54-3.84
							c0.01-0.01,0.02-0.04,0.03-0.06c0.04-0.11,0.36-1.2-1.04-3.13c-1.18-1.62-2.1-2.67-2.15-2.71
							C-13.3-44.41-13.39-44.47-13.5-44.46z M-26.53-33.76c0.83-1.35,5.93-9.2,12.85-9.91c0.3,0.33,1.06,1.25,1.97,2.5
							c1.03,1.43,0.96,2.25,0.93,2.41c-0.19,0.31-1.34,2.12-3.33,3.57c-0.06,0.05-4.69,3.83-8.62,3.65
							C-24.32-31.61-25.61-32.36-26.53-33.76z"/>
					</g>
				</g>
				<g>
					<g>
						<path class="st9" d="M-18.71-35.54c-1.9,1.32-4.83,3.39-7.34,2.95c-0.33-0.32-0.64-0.7-0.92-1.17c0,0,5.53-9.65,13.46-10.33
							c0,0,0.94,0.96,1.7,1.94C-13.29-39.28-15.93-37.46-18.71-35.54z"/>
						<path class="st3" d="M-13.5-44.46c-0.01,0-0.03,0.01-0.05,0c-8.04,0.68-13.54,10.12-13.77,10.52
							c-0.07,0.13-0.06,0.27,0.01,0.39c0.28,0.47,0.6,0.87,0.98,1.25c0.06,0.06,0.13,0.09,0.21,0.11c0.18,0.03,0.37,0.05,0.57,0.06
							c2.46,0.11,5.16-1.76,6.94-3l0.17-0.12c2.8-1.95,5.46-3.79,6.97-6.71c0.07-0.14,0.05-0.29-0.04-0.42
							c-0.77-0.99-1.69-1.93-1.73-1.97C-13.31-44.42-13.4-44.46-13.5-44.46z M-26.53-33.76c0.83-1.35,5.94-9.2,12.87-9.92
							c0.25,0.26,0.85,0.91,1.4,1.58c-1.45,2.63-3.96,4.37-6.61,6.21l-0.17,0.12c-1.7,1.18-4.26,2.96-6.47,2.86
							c-0.12,0-0.24-0.02-0.36-0.04C-26.11-33.19-26.33-33.46-26.53-33.76z"/>
					</g>
				</g>
			</g>
			<g>
				<g>
					<path class="st7" d="M-26.44-33.54c-0.45-0.09-0.79-0.38-0.86-1.03c-0.08-0.74,0.56-1.44,0.99-1.98
						c0.55-0.68,1.18-1.3,1.83-1.88c2.02-1.85,4.18-3.61,6.53-5.02c0.76-0.46,1.72-1.14,2.66-1.18c0,0,2.38-0.11,2.18,1.85
						c-0.07,0.69-0.71,1.35-1.13,1.83c-0.81,0.91-1.71,1.74-2.64,2.51c-2.14,1.79-4.48,3.29-7.05,4.34
						C-24.52-33.85-25.65-33.38-26.44-33.54z"/>
					<path class="st8" d="M-15.09-45.02L-15.09-45.02c-0.13-0.01-0.22,0-0.23,0c-0.91,0.04-1.81,0.6-2.53,1.04
						c-0.1,0.07-0.2,0.13-0.31,0.19c-2.1,1.27-4.25,2.93-6.59,5.07c-0.63,0.58-1.29,1.21-1.86,1.93l-0.12,0.13
						c-0.44,0.55-1.05,1.29-0.96,2.12c0.08,0.74,0.5,1.23,1.16,1.36c0.88,0.18,2.1-0.3,2.71-0.55c2.48-1.02,4.89-2.51,7.17-4.42
						c1.11-0.93,1.97-1.74,2.68-2.55l0.1-0.11c0.44-0.5,1.05-1.18,1.13-1.94c0.06-0.6-0.08-1.1-0.42-1.49
						C-13.69-44.86-14.59-45-15.09-45.02z M-26.16-33.9c-0.07,0-0.14-0.01-0.2-0.02c-0.25-0.05-0.5-0.17-0.56-0.7
						c-0.06-0.51,0.42-1.08,0.79-1.55l0.11-0.14c0.54-0.68,1.18-1.29,1.79-1.84c2.3-2.11,4.42-3.74,6.47-4.98
						c0.1-0.06,0.2-0.13,0.32-0.19c0.68-0.42,1.45-0.9,2.16-0.93c0,0,0.06,0,0.16,0c0.29,0.01,1.02,0.09,1.39,0.52
						c0.19,0.23,0.27,0.53,0.23,0.92c-0.05,0.51-0.56,1.08-0.94,1.5l-0.1,0.11c-0.69,0.78-1.51,1.56-2.6,2.47
						c-2.21,1.86-4.56,3.3-6.95,4.29C-24.58-34.24-25.48-33.87-26.16-33.9z"/>
				</g>
				<g>
					<path class="st24" d="M-26.43-36.39c1,0.74,2.06,1.39,3.14,2.02c-0.21,0.09-0.42,0.2-0.64,0.28c-0.59,0.24-1.71,0.71-2.5,0.55
						c-0.45-0.09-0.79-0.38-0.86-1.03C-27.37-35.24-26.86-35.88-26.43-36.39z"/>
					<path class="st24" d="M-21.84-35.09c-0.26,0.14-0.53,0.28-0.8,0.41c-1.16-0.68-2.32-1.37-3.4-2.17
						c0.17-0.19,0.35-0.38,0.53-0.57C-24.33-36.57-23.1-35.82-21.84-35.09z"/>
					<path class="st24" d="M-24.14-38.74c1.29,0.96,2.64,1.82,4.02,2.66c-0.36,0.22-0.72,0.44-1.09,0.65
						c-1.32-0.76-2.63-1.54-3.87-2.43c0.2-0.19,0.4-0.39,0.6-0.58C-24.37-38.53-24.25-38.63-24.14-38.74z"/>
					<path class="st24" d="M-18.24-37.36c-0.44,0.32-0.88,0.63-1.33,0.93c-1.4-0.86-2.79-1.73-4.11-2.7
						c0.38-0.34,0.77-0.67,1.16-0.99C-21.09-39.22-19.66-38.29-18.24-37.36z"/>
					<path class="st24" d="M-17.77-39.7c0.48,0.27,0.96,0.54,1.43,0.79c-0.18,0.17-0.36,0.32-0.54,0.48
						c-0.28,0.24-0.57,0.46-0.86,0.68c-1.43-0.93-2.86-1.86-4.3-2.78c0.46-0.37,0.92-0.73,1.39-1.09
						C-19.68-40.99-18.76-40.26-17.77-39.7z"/>
					<path class="st24" d="M-15.52-40.76c0.24,0.13,0.49,0.26,0.74,0.38c-0.36,0.36-0.71,0.72-1.09,1.06
						c-0.56-0.31-1.11-0.61-1.66-0.93c-0.89-0.51-1.74-1.16-2.61-1.75c0.4-0.29,0.8-0.56,1.21-0.83
						C-17.76-42.2-16.69-41.38-15.52-40.76z"/>
					<path class="st24" d="M-17.2-43.92c1.12,0.84,2.28,1.63,3.44,2.41c-0.16,0.2-0.34,0.39-0.49,0.56
						c-0.03,0.04-0.07,0.08-0.11,0.12c-0.3-0.16-0.61-0.32-0.92-0.49c-1.05-0.57-2.04-1.28-3.08-1.89c0.13-0.08,0.26-0.17,0.4-0.25
						C-17.72-43.6-17.46-43.76-17.2-43.92z"/>
					<path class="st24" d="M-13.41-42c-1.09-0.72-2.17-1.46-3.21-2.24c0.43-0.22,0.88-0.38,1.33-0.4c0,0,2.38-0.11,2.18,1.85
						C-13.14-42.51-13.25-42.25-13.41-42z"/>
				</g>
			</g>
		</g>
	</g>
	<g>
		<g>
			<defs>
				<path id="SVGID_1_" d="M16.15,32.24c-1.94,6.75-17.23,6.08-17.23,6.08l-0.65-0.02c0,0-15.29-0.67-16.63-7.56
					c0,0-0.88-10.36,2.61-17.32c0,0,3.75-4.25,15.58-3.39c11.87,0.17,15.23,4.74,15.23,4.74C17.93,21.99,16.15,32.24,16.15,32.24z"
					/>
			</defs>
			<clipPath id="SVGID_00000020397404275877033620000014993334927935340938_">
				<use xlink:href="#SVGID_1_"  style="overflow:visible;"/>
			</clipPath>
			<g style="clip-path:url(#SVGID_00000020397404275877033620000014993334927935340938_);">
				<g>
					<g>
						<path class="st26" d="M21.23,21.7c-1.53,1.22-2.17,3.05-2.83,4.86c-0.77,2.12-1.16,4.34-2.36,6.27
							c-1.09,1.75-2.33,3.5-4.07,4.66c-0.75,0.49-1.66,0.85-2.53,1.02c-0.33,0.06-0.64,0.08-0.95,0.06
							c-0.59,0.64-1.42,1.08-2.24,1.53c-1.41,0.78-3.19,1.17-4.77,1.44c-3.34,0.57-6.86-0.07-9.84-1.72
							c-2.83-1.56-5.21-3.97-6.81-6.78c-0.85-1.48-1.83-3.01-2.49-4.59c-0.37-0.88-0.93-1.77-1.48-2.54
							c-0.47-0.65-1.01-0.98-1.64-1.42c-0.08-0.05-0.15-0.14-0.13-0.24c0-0.03,0.01-0.06,0.01-0.09c0.01-0.02,0.02-0.04,0.04-0.05
							c0.64-0.24,1.28-0.12,1.85,0.19c-0.48-0.76-0.93-1.53-1.32-2.34c-0.48-1.02-0.84-1.95-0.98-3.07
							c-0.08-0.66-0.19-1.97,0.3-2.51c0.09-0.1,0.26,0.08,0.26,0.17c0.02,0.86,0.21,1.64,0.49,2.37c-0.08-0.46-0.12-0.93-0.13-1.43
							c-0.02-1.63,0.79-4.1,2.22-5.06c0.1-0.06,0.29,0.12,0.24,0.22c-0.61,1.38-0.7,3-0.43,4.52c0.12-0.7,0.32-1.39,0.59-2.02
							c0.63-1.51,2.29-2.7,3.99-3.54c0.42-0.17,0.83-0.31,1.25-0.45c1.55-0.48,3.14-0.73,4.75-0.86c1.65,0.04,4.52,0.1,10.27-0.09
							c0.58,0.03,1.15,0.06,1.74,0.12c1.87,0.22,3.74,0.53,5.53,1.11c1.78,0.58,3.84,1.75,5.03,3.4c-0.35-0.95-0.84-1.84-1.6-2.53
							c-0.06-0.05-0.16-0.26,0-0.26c1.56-0.03,3.04,1.31,4.04,2.37c0.67,0.71,1.04,1.56,1.16,2.45c0.01-0.04,0.02-0.07,0.02-0.11
							c0.17-0.94-0.07-1.8-0.06-2.72c0-0.11,0.15-0.03,0.18,0.01c1.09,1.41,1.28,3.68,1.16,5.4c-0.06,0.8-0.19,1.56-0.44,2.26
							c0.24-0.12,0.51-0.22,0.79-0.28c0.28-0.06,1.07-0.27,1.18,0.19C21.24,21.67,21.24,21.69,21.23,21.7z"/>
						<path class="st27" d="M21.23,21.7c-1.53,1.22-2.17,3.05-2.83,4.86c-0.77,2.12-1.16,4.34-2.36,6.27
							c-1.09,1.75-2.33,3.5-4.07,4.66c-0.75,0.49-1.66,0.85-2.53,1.02c-0.33,0.06-0.64,0.08-0.95,0.06
							c-0.59,0.64-1.42,1.08-2.24,1.53c-1.41,0.78-3.19,1.17-4.77,1.44c-3.34,0.57-6.86-0.07-9.84-1.72
							c-2.83-1.56-5.21-3.97-6.81-6.78c-0.85-1.48-1.83-3.01-2.49-4.59c-0.37-0.88-0.93-1.77-1.48-2.54
							c-0.47-0.65-1.01-0.98-1.64-1.42c-0.08-0.05-0.15-0.14-0.13-0.24c0-0.03,0.01-0.06,0.01-0.09c0.01-0.02,0.02-0.04,0.04-0.05
							c0.64-0.24,1.28-0.12,1.85,0.19c-0.48-0.76-0.93-1.53-1.32-2.34c-0.48-1.02-0.84-1.95-0.98-3.07
							c-0.08-0.66-0.19-1.97,0.3-2.51c0.09-0.1,0.26,0.08,0.26,0.17c0.02,0.86,0.21,1.64,0.49,2.37c-0.08-0.46-0.12-0.93-0.13-1.43
							c-0.02-1.63,0.79-4.1,2.22-5.06c0.1-0.06,0.29,0.12,0.24,0.22c-0.61,1.38-0.7,3-0.43,4.52c0.12-0.7,0.32-1.39,0.59-2.02
							c0.63-1.51,2.29-2.7,3.99-3.54c0.42-0.17,0.83-0.31,1.25-0.45c1.55-0.48,3.14-0.73,4.75-0.86c1.65,0.04,4.52,0.1,10.27-0.09
							c0.58,0.03,1.15,0.06,1.74,0.12c1.87,0.22,3.74,0.53,5.53,1.11c1.78,0.58,3.84,1.75,5.03,3.4c-0.35-0.95-0.84-1.84-1.6-2.53
							c-0.06-0.05-0.16-0.26,0-0.26c1.56-0.03,3.04,1.31,4.04,2.37c0.67,0.71,1.04,1.56,1.16,2.45c0.01-0.04,0.02-0.07,0.02-0.11
							c0.17-0.94-0.07-1.8-0.06-2.72c0-0.11,0.15-0.03,0.18,0.01c1.09,1.41,1.28,3.68,1.16,5.4c-0.06,0.8-0.19,1.56-0.44,2.26
							c0.24-0.12,0.51-0.22,0.79-0.28c0.28-0.06,1.07-0.27,1.18,0.19C21.24,21.67,21.24,21.69,21.23,21.7z"/>
						<path class="st27" d="M21.23,21.7c-1.53,1.22-2.17,3.05-2.83,4.86c-0.77,2.12-1.16,4.34-2.36,6.27
							c-1.09,1.75-2.33,3.5-4.07,4.66c-0.75,0.49-1.66,0.85-2.53,1.02c-0.33,0.06-0.64,0.08-0.95,0.06
							c-0.59,0.64-1.42,1.08-2.24,1.53c-1.41,0.78-3.19,1.17-4.77,1.44c-3.34,0.57-6.86-0.07-9.84-1.72
							c-2.48-1.37-4.62-3.39-6.19-5.77c-0.58-1.24-1.01-2.53-1.48-3.84c-0.58-1.61-1.36-3.2-2.57-4.44
							c-0.48-0.5-1.02-0.97-1.62-1.32c-0.19-0.11-0.41-0.24-0.64-0.31c0.01,0,0.01-0.02,0.02-0.02c0.64-0.24,1.28-0.12,1.85,0.19
							c-0.07-0.11-0.13-0.22-0.2-0.32c0.66,0.69,2.55,1.42,2.47,1.35c-1.19-1.19-2.45-2.38-3.25-3.89
							c-0.85-1.61-1.15-3.32-0.93-5.09c0.08,0.02,0.16,0.13,0.16,0.19c0.02,0.86,0.21,1.64,0.49,2.37
							c-0.08-0.46-0.12-0.93-0.13-1.43c-0.01-0.62,0.11-1.36,0.33-2.09c-0.36,2.29-0.24,4.69,1.48,6.43
							c0.08,0.09,0.22-0.03,0.16-0.13c-1.58-2.8-1.4-6.57,0.36-9.26c0.09,0.04,0.17,0.15,0.14,0.21c-0.61,1.38-0.7,3-0.43,4.52
							c0.12-0.7,0.32-1.39,0.59-2.02c0.63-1.51,2.29-2.7,3.99-3.54c0.42-0.17,0.83-0.31,1.25-0.45c1.55-0.48,3.14-0.73,4.75-0.86
							c1.65,0.04,4.52,0.1,10.27-0.09c0.58,0.03,1.15,0.06,1.74,0.12c1.87,0.22,3.74,0.53,5.53,1.11c1.78,0.58,3.84,1.75,5.03,3.4
							c-0.35-0.95-0.84-1.84-1.6-2.53c-0.06-0.05-0.16-0.26,0-0.26c1.56-0.03,3.04,1.31,4.04,2.37c0.67,0.71,1.04,1.56,1.16,2.45
							c0.01-0.04,0.02-0.07,0.02-0.11c0.17-0.94-0.07-1.8-0.06-2.72c0-0.11,0.15-0.03,0.18,0.01c1.09,1.41,1.28,3.68,1.16,5.4
							c-0.06,0.8-0.19,1.56-0.44,2.26c0.24-0.12,0.51-0.22,0.79-0.28c0.28-0.06,1.07-0.27,1.18,0.19
							C21.24,21.67,21.24,21.69,21.23,21.7z M-14.89,12.97c-1.58,1.06-2.67,2.88-2.84,4.78c-0.07,0.76,0.02,1.47,0.21,2.14
							c0.33,1.55,1.08,3.04,2.4,3.96c0.09,0.06-1.29-3.17-1.17-5.47C-16.15,15.47-14.8,12.91-14.89,12.97z M19.11,16.49
							c-0.44,1.09-0.81,2.21-1.35,3.26c0-0.23,0-0.45-0.01-0.65c-0.11-2.1-1.03-4.56-3.01-5.55c-0.11-0.05-0.2,0.08-0.12,0.17
							c0.62,0.71,1.1,1.54,1.43,2.44c0.59,2.81,0.37,5.59-0.47,8.35c-0.02,0.09,1.38-1.11,1.7-1.97c-0.04,0.55,0.05,1.8,0.1,1.71
							C18.76,21.91,19.15,16.39,19.11,16.49z"/>
					</g>
					<g>
						<path class="st28" d="M11.73,21.32c0,0,1.01,2.71,3.14,1.28c2.13-1.44,1.04-6.9-3.22-6.38L11.73,21.32z"/>
						<path class="st29" d="M14.62,21.24c-0.33,0.33-0.88-0.11-1.11-0.35c-0.85-0.87-1.09-2.63-0.87-3.77
							c0.01-0.06,0.11,0.02,0.11,0.06c0,0.58,0.04,1.17,0.14,1.75c0.25-0.46,0.93-0.81,1.35-0.54c0.02,0.02,0.04,0.07-0.01,0.05
							c-0.24-0.09-0.62,0.14-0.79,0.28c-0.23,0.19-0.34,0.43-0.45,0.68c0.04,0.15,0.07,0.29,0.12,0.43
							c0.15,0.48,0.88,1.82,1.53,1.02c0.2-0.24,0.27-0.65,0.34-0.95c0.01-0.03,0.06,0.01,0.06,0.03C15,20.4,14.97,20.89,14.62,21.24
							z"/>
						<path class="st30" d="M14.88,18.2c0.37,0.74,0.49,1.78,0.18,2.57c-0.48,1.23-1.7,0.81-2.22-0.15
							c-0.06-0.11-0.22-0.03-0.19,0.08c0.21,0.84,1.06,1.87,1.9,2.08c-1.91,0.97-2.81-1.46-2.81-1.46l-0.08-5.1
							c1.48-0.19,2.58,0.36,3.3,1.21c-0.01,0-0.02,0-0.03,0.01C14.58,17.53,14.78,18.01,14.88,18.2z M13.97,17.25
							c-0.7-0.44-1.05,0.53-0.91,1.08c0.02,0.07,0.1,0.1,0.15,0.06c0.04-0.03,0.08-0.05,0.11-0.07c0.02,0.01,0.04,0.01,0.07,0
							c0.26-0.11,0.65-0.16,0.85-0.38C14.48,17.68,14.2,17.39,13.97,17.25z"/>
					</g>
					<g>
						<path class="st28" d="M-12.67,20.8c0,0-0.84,2.59-2.82,1.29c-1.97-1.3-1.12-6.51,2.76-6.13L-12.67,20.8z"/>
						<path class="st29" d="M-13.7,20.28c-0.25,0.41-0.77,0.75-1.22,0.42c-0.44-0.32-0.5-0.69-0.65-1.19
							c-0.01-0.04,0.05-0.02,0.06,0c0.19,0.43,0.33,1.29,1.1,1.08c0.4-0.11,0.66-0.7,0.78-1.04c0.12-0.37,0.15-0.76,0.14-1.14
							c-0.26-0.29-0.79-0.04-1,0.2c-0.17,0.19-0.31,0.47-0.36,0.72c-0.01,0.02-0.05-0.01-0.05-0.02c0.02-0.45,0.26-0.96,0.69-1.12
							c0.18-0.07,0.52-0.05,0.71,0.1c0-0.01,0-0.02,0-0.03c-0.02-0.46-0.1-1.16-0.39-1.55c-0.05-0.06,0.03-0.07,0.06-0.03
							c0.36,0.39,0.44,1.14,0.5,1.64C-13.25,19-13.34,19.7-13.7,20.28z"/>
						<path class="st30" d="M-12.67,20.8c0,0-0.47,1.44-1.53,1.63c0.18-0.12,0.33-0.31,0.41-0.54c0.08-0.21,0.1-0.44-0.04-0.63
							c-0.26-0.34-0.78,0.04-1.09-0.16c-0.63-0.4-0.87-1.3-0.84-2.01c0.02-0.51,0.21-1.13,0.09-1.63c-0.02-0.08-0.07-0.11-0.13-0.11
							c0.62-0.91,1.64-1.54,3.08-1.39L-12.67,20.8z M-14.2,17.07c-0.47,0.07-0.79,0.51-0.96,0.97c-0.14,0.26-0.24,0.54-0.23,0.83
							c0,0.06,0.07,0.13,0.14,0.1c0.34-0.13,0.48-0.5,0.66-0.79c0.21-0.32,0.49-0.61,0.49-1.01C-14.09,17.12-14.15,17.06-14.2,17.07
							z"/>
					</g>
					<path class="st28" d="M14.18,29.47c0,0.05,0,0.1,0,0.15c-0.11,0.57-0.32,1.12-0.67,1.64c-0.88,1.32-2.24,2.25-3.64,2.95
						c-2.79,1.39-6.07,2.21-9.2,2.22c-4.64,0-12.99-1.22-15.47-5.85c-0.34-1.23-0.46-2.51-0.19-3.78c0.38-1.84,1.34-3.49,1.91-5.27
						c0.64-2-0.4-4.15,0.22-6.11c0.73-2.31,3.69-3.91,5.76-4.67c2.67-0.99,5.57-1.57,8.41-1.04c1.52,0.28,3.14,0.81,4.52,1.51
						c2.56,1.31,5.15,3.15,6.3,5.89c0.64,1.52,0.1,3.28,0.08,4.86C12.17,24.52,14.1,26.89,14.18,29.47z"/>
					<path class="st28" d="M14.18,29.47c0,0.05,0,0.1,0,0.15c-0.11,0.57-0.32,1.12-0.67,1.64c-0.88,1.32-2.24,2.25-3.64,2.95
						c-2.79,1.39-6.07,2.21-9.2,2.22c-4.64,0-12.99-1.22-15.47-5.85c-0.34-1.23-0.46-2.51-0.19-3.78c0.38-1.84,1.34-3.49,1.91-5.27
						c0.64-2-0.4-4.15,0.22-6.11c0.73-2.31,3.69-3.91,5.76-4.67c2.67-0.99,5.57-1.57,8.41-1.04c1.52,0.28,3.14,0.81,4.52,1.51
						c2.56,1.31,5.15,3.15,6.3,5.89c0.64,1.52,0.1,3.28,0.08,4.86C12.17,24.52,14.1,26.89,14.18,29.47z"/>
					<path class="st31" d="M-2.82,16.22c-0.37,0-0.76,0.1-0.98,0.39c0.1-0.8,0.64-1.82,1.56-1.55c0.72,0.21,1.18,1.26,0.88,1.94
						C-1.76,16.59-2.21,16.22-2.82,16.22z"/>
					<path class="st30" d="M-3.83,20c-0.09,0.99-0.49,1.87-1,2.71c-0.31,0.51-0.82,0.9-1.18,1.36c-0.58,0.43-1.27,0.56-1.95,0.07
						c-0.23-0.16-0.44-0.36-0.61-0.59c-0.13-0.33-0.26-0.65-0.38-0.93c0.59,0.38,1.5,0.46,2.1,0.44c0.11,0,0.13-0.14,0.05-0.2
						c-0.56-0.41-0.96-1.03-1.24-1.73c0.03-0.03,0.04-0.05,0.02-0.06c-0.34-1.15-0.37-2.34-0.02-3.57c0.02-0.07-0.04-0.13-0.1-0.13
						c-0.48-0.05-0.93-0.29-1.32-0.6c0.66,0.2,1.4,0.21,2.07,0.17c0.48-0.03,0.94-0.08,1.41-0.16c1.43,0.02,1.75,0.54,2.05,1.72
						C-3.82,18.99-3.79,19.5-3.83,20z"/>
					<path class="st30" d="M4.86,17.45c-0.08,0-0.12,0.09-0.09,0.16c0.8,1.7,0.49,3.5,0.03,5.25c-0.02,0.08,1.13-0.38,1.47-0.82
						c-0.07,0.62-0.21,1.23-0.39,1.83c-0.06,0.12-0.12,0.24-0.2,0.36c-0.57,0.84-1.69,1.26-2.69,1.16c-0.89-0.1-1.67-0.66-2.21-1.37
						c-0.25-0.44-0.47-0.9-0.62-1.39c-0.05-0.17-0.38-1.02-0.48-1.54c0.2,0.22,0.73,0.54,0.67,0.44c-0.49-0.91-0.65-2.23-0.33-3.32
						c0.15-0.33,0.34-0.64,0.61-0.88c0.69-0.63,1.42-0.6,2.3-0.45c1.17,0.2,2.36,0.34,3.49,0C6.01,17.25,5.36,17.43,4.86,17.45z"/>
					<path class="st32" d="M14.18,29.47c0,0.05,0,0.1,0,0.15c-0.11,0.57-0.32,1.12-0.67,1.64c-0.88,1.32-2.24,2.25-3.64,2.95
						c-2.79,1.39-6.07,2.21-9.2,2.22c-4.64,0-12.99-1.22-15.47-5.85c-0.34-1.23-0.46-2.51-0.19-3.78c0.38-1.84,1.34-3.49,1.91-5.27
						c0.64-2-0.4-4.15,0.22-6.11c0.47-1.5,1.89-2.7,3.39-3.57c-0.85,0.72-1.56,1.6-2.05,2.65c-0.92,2-1.14,4.85,0.16,6.73
						c0.06,0.09,0.19,0.05,0.19-0.05c0.04-0.5,0.08-1,0.18-1.48c0.32,1,1.03,1.89,1.74,2.62c1.1,1.14,4.38,3.46,4.29,3.36
						c-0.98-1.22-1.88-2.47-2.4-3.94c0.39,0.25,0.78,0.51,1.16,0.76c0.86,0.57,1.7,1.14,2.52,1.74c0.85,0.78,1.89,1.76,2.45,2.49
						c0.07,0.09,0.22,0.04,0.19-0.08c-0.32-1.26-0.95-2.45-1.74-3.49c0.01,0,0.01,0,0.02,0c0.28,0.09,0.55,0.19,0.82,0.29
						c0.61,0.23,1.22,0.46,1.79,0.78c1.55,1.22,3.47,2.51,3.77,4.52c0.02,0.12,0.65-1.79,1.58-2.52c2.28-1.71,4.5-4.19,4.87-7.12
						c0.26-0.72,0.22-1.58,0.07-2.31c-0.15-0.78-0.42-1.52-0.81-2.19c-0.1-0.2-0.21-0.38-0.34-0.53c-0.15-0.2-0.3-0.4-0.46-0.59
						c-0.82-0.93-1.8-1.68-2.84-2.33c0.04,0.02,0.07,0.04,0.11,0.05c2.56,1.31,5.15,3.15,6.3,5.89c0.64,1.52,0.1,3.28,0.08,4.86
						C12.17,24.52,14.1,26.89,14.18,29.47z"/>
					<path class="st33" d="M-6.85,23.35c0.93-0.11,1.58-0.82,2.13-1.54c-0.34,1.1-0.84,2.21-2.14,2.3
						c-0.81,0.05-1.43-0.66-1.76-1.38C-8.17,23.18-7.41,23.42-6.85,23.35z"/>
					<path class="st33" d="M3.07,23.94c-1.29-0.2-2.17-1.26-2.91-2.35c0.42,1.63,1.08,3.28,2.89,3.46c1.13,0.11,2.04-0.91,2.52-1.97
						C4.91,23.73,3.85,24.06,3.07,23.94z"/>
					<path class="st9" d="M3.8,22.47c-0.21,0.18-0.46,0.32-0.72,0.39c-0.51,0.15-1.33-0.03-1.73-0.39
						c-1.02-0.91-1.17-2.58-0.92-3.84c0.11-0.56,0.44-1.12,0.94-1.43c0.39-0.25,1.22-0.23,1.66-0.15c0.53,0.1,1.02,0.39,1.36,0.82
						c0.67,0.85,0.66,2.14,0.34,3.13C4.54,21.51,4.22,22.12,3.8,22.47z"/>
					<path class="st34" d="M0.44,20.47c0.24,0.89,0.75,1.75,1.72,1.96c1.4,0.3,2.27-0.8,2.69-1.99c-0.04,0.2-0.08,0.38-0.14,0.56
						c-0.17,0.52-0.49,1.12-0.91,1.48c-0.21,0.18-0.46,0.32-0.72,0.39c-0.51,0.15-1.33-0.03-1.73-0.39
						c-0.69-0.62-0.98-1.58-1.02-2.53C0.35,20.13,0.4,20.31,0.44,20.47z"/>
					<path class="st29" d="M-3.6,17.16c0.31,0.39,1.19,0.3,1.67,0.13c0,0.01,0,0.02-0.01,0.02c-0.15,0.09-0.35,0.16-0.58,0.22
						c0.03,0.31-0.04,0.68-0.19,1c-0.05,0.05-0.09,0.1-0.14,0.15c-0.06,0.06-0.14,0.11-0.21,0.16c0.19-0.38,0.29-0.84,0.11-1.2
						c0,0-0.01,0-0.01-0.01c0-0.01,0-0.03-0.01-0.04C-3.4,17.6-3.83,17.49-4,17.12c-0.35-0.71,0.63-1.83,1.22-2.08
						c0,0,0.01,0,0.01,0c-0.38,0.49-0.81,0.99-0.93,1.58c-0.02,0.11-0.02,0.2-0.01,0.29C-3.7,17.02-3.66,17.1-3.6,17.16z"/>
					<path class="st27" d="M15.1,29.7c-1.46,5.65-5.1,7.72-6.37,7.81c-1.34,1.6-4.53,2.57-5.89,2.82
						c-3.76,0.69-7.77-0.33-11.09-2.08c-3.03-1.59-5.01-3.85-6.58-6.88c-2.94-5.66,1.89-10.6,1.93-10.59
						c3.24,1.1,9.78,7.26,11.01,8.4c0.3,0.28,0.62,0.58,0.92,0.89c-0.63-0.79-5.47-7-5.95-7.81c-0.07-0.11,5.13,2.57,8.54,8.58
						c-0.16-0.6-3.11-6.42-3.46-7.16c-0.08-0.17,4.03,0.96,5.58,7.94c0.19-0.78,0.48-1.55,0.8-2.28c0.51-1.16,1.23-2.22,1.99-3.22
						c0.72-0.95,2.38-2.87,3.48-3.38c0.09-0.04-2.09,5.19-2.21,6.07c0.4-0.81,0.88-1.59,1.34-2.38c0.61-1.02,3.54-7.23,3.62-7.07
						C14.38,22.77,15.96,26.35,15.1,29.7z"/>
					<path class="st27" d="M15.1,29.7c-1.02,3.94-3.1,6.13-4.69,7.14c1.32-1.45,2.35-3.13,2.8-5.08c0.33-1.48,0.3-2.91-0.04-4.39
						c-0.16-0.7-1.12-3.86-1.18-3.81c-0.34,0.27-0.44,0.8-0.61,1.18c-0.22,0.51-0.45,1.02-0.71,1.52c-0.58,1.09-1.25,2.14-1.9,3.18
						c-0.92,1.46-1.93,2.9-3.07,4.21c0.13-1.24,0.31-2.47,0.61-3.68c0.2-0.81,0.43-1.59,0.77-2.35c0.29-0.65,0.58-1.29,0.76-1.98
						C7.87,25.55,5.28,28.4,4.59,30c-0.44,1.02-0.74,2.09-0.94,3.19c-0.11-0.57-0.25-1.13-0.42-1.68c-0.26-0.8-0.59-1.56-1-2.29
						c-0.31-0.55-0.66-1.17-1.24-1.46c-0.08-0.04,0.84,3.36,1.04,5.04c-0.05-0.1-0.09-0.2-0.14-0.3c-0.6-1.21-2.92-3.38-2.9-3.31
						c0.72,2.07,1.43,4.17,1.6,6.35c-1.14-1.84-2.62-3.48-4.22-4.94c-1.27-1.17-2.61-2.27-3.98-3.32c-0.74-0.57-1.5-1.13-2.27-1.66
						c-0.71-0.49-2.41-1.37-2.41-1.28c-0.14,2.76,0.68,5.8,2.34,8.12c-0.94-1.02-1.74-2.15-2.31-3.41c-0.96-2.1-1-6.84-1.08-6.77
						c-1.1,0.95-1.54,2.46-1.72,3.85c-0.18,1.4-0.18,2.87,0.11,4.26c0.12,0.56,0.28,1.1,0.48,1.63c-0.12-0.22-0.24-0.44-0.36-0.66
						c-2.94-5.66,1.89-10.6,1.93-10.59c3.24,1.1,9.78,7.26,11.01,8.4c0.3,0.28,0.62,0.58,0.92,0.89c-0.63-0.79-5.47-7-5.95-7.81
						c-0.07-0.11,5.13,2.57,8.54,8.58c-0.16-0.6-3.11-6.42-3.46-7.16c-0.08-0.17,4.03,0.96,5.58,7.94c0.19-0.78,0.48-1.55,0.8-2.28
						c0.51-1.16,1.23-2.22,1.99-3.22c0.72-0.95,2.38-2.87,3.48-3.38c0.09-0.04-2.09,5.19-2.21,6.07c0.4-0.81,0.88-1.59,1.34-2.38
						c0.61-1.02,3.54-7.23,3.62-7.07C14.38,22.77,15.96,26.35,15.1,29.7z"/>
					<path class="st26" d="M-2.29,39.62c0,0-11.11-2.51-12.17-10.26C-14.46,29.36-11.26,35.68-2.29,39.62z"/>
					<path class="st9" d="M-4.21,19.89c0,0-0.4,2.63-2.12,2.44c-1.73-0.19-2.2-4.46-0.87-5.09C-5.87,16.61-3.75,17.01-4.21,19.89z"
						/>
					<path class="st35" d="M-5.11,21.48c0.39-0.45,0.7-1.01,0.91-1.62c0,0.01,0,0.01,0,0.02c0,0-0.4,2.63-2.12,2.44
						c-0.43-0.05-0.79-0.35-1.06-0.8C-6.74,22.12-5.82,22.3-5.11,21.48z"/>
					<g>
						<g>
							<path class="st30" d="M-0.68,10.15c0.34,0.2,0.63,0.45,0.89,0.74c-0.3-0.17-0.61-0.35-0.94-0.46
								c-0.54-0.17-1.09-0.27-1.65-0.33c-0.14-0.02-0.32-0.04-0.5-0.06C-2.21,9.67-1.34,9.78-0.68,10.15z"/>
						</g>
					</g>
					<path class="st28" d="M-3.21,17.27c0,0-0.58-0.01-0.32-0.49c0.26-0.49,1.22-0.27,1.29,0.16C-2.17,17.36-2.95,17.33-3.21,17.27z
						"/>
					
						<radialGradient id="SVGID_00000153663371013272986790000016954469249381858740_" cx="18144.0723" cy="-9237.0713" r="4.9426" gradientTransform="matrix(-1.1041 0.7993 -0.7993 -1.1041 12639.6475 -24689.5078)" gradientUnits="userSpaceOnUse">
						<stop  offset="1.093750e-03" style="stop-color:#EF7B63"/>
						<stop  offset="0.1221" style="stop-color:#F2907C"/>
						<stop  offset="0.42" style="stop-color:#F7BFB4"/>
						<stop  offset="0.6763" style="stop-color:#FBE2DD"/>
						<stop  offset="0.8779" style="stop-color:#FEF7F6"/>
						<stop  offset="1" style="stop-color:#FFFFFF"/>
					</radialGradient>
					<path style="opacity:0.6;fill:url(#SVGID_00000153663371013272986790000016954469249381858740_);" d="M-7.87,16.99
						c-1.3,0.02-2.36-0.74-2.37-1.69c-0.01-0.95,1.03-1.73,2.32-1.75c1.3-0.02,2.36,0.74,2.37,1.69
						C-5.54,16.19-6.58,16.97-7.87,16.99z M-9.03,15.78c-0.05-0.18-0.2-0.34-0.37-0.41c-0.17-0.07-0.41-0.01-0.45,0.2
						c-0.04,0.22,0.09,0.45,0.28,0.56c0.01,0.01,0.02,0.01,0.04,0.01c0.09,0.06,0.18,0.08,0.27,0.05
						C-9.08,16.14-8.98,15.96-9.03,15.78z M-8.57,16.3c0.01-0.05-0.02-0.09-0.07-0.11c-0.03-0.03-0.07-0.05-0.11-0.07
						c-0.07-0.04-0.17,0.01-0.16,0.09c0,0.08,0.02,0.15,0.09,0.19c0.02,0.02,0.06,0.03,0.08,0.03c0.01,0,0.01,0.01,0.02,0.02
						c0.02,0.01,0.05,0.02,0.07,0.01C-8.56,16.49-8.5,16.36-8.57,16.3z"/>
					
						<radialGradient id="SVGID_00000067219926224521573120000012136203979596245423_" cx="18136.6074" cy="-9242.623" r="4.9429" gradientTransform="matrix(-1.1041 0.7993 -0.7993 -1.1041 12639.6475 -24689.5078)" gradientUnits="userSpaceOnUse">
						<stop  offset="1.093750e-03" style="stop-color:#EF7B63"/>
						<stop  offset="0.1221" style="stop-color:#F2907C"/>
						<stop  offset="0.42" style="stop-color:#F7BFB4"/>
						<stop  offset="0.6763" style="stop-color:#FBE2DD"/>
						<stop  offset="0.8779" style="stop-color:#FEF7F6"/>
						<stop  offset="1" style="stop-color:#FFFFFF"/>
					</radialGradient>
					<path style="opacity:0.6;fill:url(#SVGID_00000067219926224521573120000012136203979596245423_);" d="M4.8,17.15
						c-1.3,0.02-2.36-0.74-2.37-1.69c-0.01-0.95,1.03-1.73,2.32-1.75c1.3-0.02,2.36,0.74,2.37,1.69C7.14,16.35,6.1,17.14,4.8,17.15z
						 M3.65,15.95c-0.05-0.18-0.19-0.34-0.37-0.41c-0.17-0.07-0.41-0.01-0.45,0.2c-0.04,0.22,0.09,0.45,0.28,0.56
						c0.01,0.01,0.03,0.01,0.04,0.01c0.08,0.06,0.18,0.08,0.27,0.05C3.59,16.3,3.7,16.12,3.65,15.95z M4.11,16.46
						c0.01-0.05-0.01-0.09-0.07-0.11c-0.03-0.03-0.07-0.05-0.11-0.07c-0.07-0.04-0.16,0.01-0.16,0.09c0.01,0.08,0.02,0.15,0.08,0.2
						c0.03,0.02,0.05,0.03,0.08,0.03c0.01,0.01,0.01,0.01,0.02,0.02c0.02,0.01,0.04,0.02,0.07,0.01
						C4.12,16.65,4.18,16.53,4.11,16.46z"/>
					<g>
						<defs>
							<path id="SVGID_00000091008106592530570630000009741262749990940320_" d="M-4.21,19.89c0,0-0.4,2.63-2.12,2.44
								c-1.73-0.19-2.2-4.46-0.87-5.09C-5.87,16.61-3.75,17.01-4.21,19.89z"/>
						</defs>
						<clipPath id="SVGID_00000005972886481628628200000015255337741343963312_">
							<use xlink:href="#SVGID_00000091008106592530570630000009741262749990940320_"  style="overflow:visible;"/>
						</clipPath>
						<g style="clip-path:url(#SVGID_00000005972886481628628200000015255337741343963312_);">
							<path class="st39" d="M-4.09,20.78c0.1-1.21-0.36-2.23-1.02-2.29c-0.66-0.06-1.28,0.88-1.38,2.09
								c-0.1,1.21,0.36,2.23,1.02,2.28C-4.81,22.92-4.19,21.99-4.09,20.78z"/>
							<path class="st40" d="M-4.3,20.74c0.08-0.99-0.29-1.83-0.84-1.88c-0.55-0.04-1.06,0.73-1.14,1.72
								c-0.08,0.99,0.29,1.84,0.84,1.88C-4.89,22.5-4.39,21.73-4.3,20.74z"/>
							<path class="st41" d="M-4.64,20.7c0.05-0.62-0.18-1.15-0.52-1.18c-0.34-0.03-0.66,0.45-0.71,1.08
								c-0.05,0.62,0.18,1.15,0.53,1.18C-5.01,21.81-4.69,21.33-4.64,20.7z"/>
							<path class="st9" d="M-5.45,21.45c-0.07-0.28-0.24-0.47-0.39-0.43C-5.99,21.05-6.06,21.3-6,21.58
								c0.07,0.28,0.24,0.47,0.39,0.44C-5.45,21.98-5.38,21.73-5.45,21.45z"/>
							<path class="st9" d="M-5.89,20.47c0.01-0.13-0.04-0.24-0.11-0.24c-0.07,0-0.14,0.1-0.15,0.22c-0.01,0.13,0.04,0.24,0.11,0.24
								C-5.97,20.7-5.9,20.6-5.89,20.47z"/>
						</g>
					</g>
					<g>
						<defs>
							<path id="SVGID_00000183218014674771694580000003095502207323093395_" d="M3.8,22.47c-0.21,0.18-0.46,0.32-0.72,0.39
								c-0.51,0.15-1.33-0.03-1.73-0.39c-1.02-0.91-1.17-2.58-0.92-3.84c0.11-0.56,0.44-1.12,0.94-1.43
								c0.39-0.25,1.22-0.23,1.66-0.15c0.53,0.1,1.02,0.39,1.36,0.82c0.67,0.85,0.66,2.14,0.34,3.13
								C4.54,21.51,4.22,22.12,3.8,22.47z"/>
						</defs>
						<clipPath id="SVGID_00000160875310375347839430000014363832110582536840_">
							<use xlink:href="#SVGID_00000183218014674771694580000003095502207323093395_"  style="overflow:visible;"/>
						</clipPath>
						<g style="clip-path:url(#SVGID_00000160875310375347839430000014363832110582536840_);">
							<path class="st39" d="M4.62,20.78C4.58,19.52,4,18.51,3.31,18.53c-0.69,0.02-1.23,1.05-1.19,2.32
								c0.03,1.26,0.62,2.26,1.31,2.25C4.11,23.08,4.65,22.04,4.62,20.78z"/>
							<path class="st40" d="M4.39,20.76c-0.03-1.04-0.51-1.87-1.08-1.85c-0.57,0.02-1.01,0.87-0.98,1.9
								c0.03,1.04,0.51,1.87,1.08,1.85C3.98,22.65,4.42,21.8,4.39,20.76z"/>
							<path class="st41" d="M4.04,20.76c-0.02-0.65-0.32-1.17-0.67-1.16C3,19.62,2.73,20.15,2.75,20.8
								c0.02,0.65,0.32,1.17,0.68,1.16C3.78,21.95,4.05,21.42,4.04,20.76z"/>
							<path class="st9" d="M3.29,21.63c-0.1-0.28-0.3-0.46-0.45-0.41c-0.15,0.05-0.2,0.32-0.1,0.6c0.1,0.28,0.3,0.46,0.45,0.4
								C3.34,22.17,3.39,21.91,3.29,21.63z"/>
							<path class="st9" d="M2.72,20.66c0-0.13-0.07-0.24-0.14-0.24c-0.07,0-0.13,0.11-0.13,0.24c0.01,0.13,0.07,0.24,0.14,0.24
								C2.67,20.9,2.72,20.79,2.72,20.66z"/>
						</g>
					</g>
				</g>
				<path class="st43" d="M-1.42,13.6c0,0-0.53,1.3-1.22,0.39c-0.69-0.92-0.93-3.33,0.5-3.14C-0.7,11.04-0.65,12.44-1.42,13.6z"/>
				<path class="st9" d="M-2.85,13.63c-0.02-0.33,0.05-0.67,0.3-0.84c0.5-0.33,1.02,0.02,1.36,0.4c-0.07,0.14-0.14,0.28-0.23,0.41
					c0,0-0.53,1.3-1.22,0.39C-2.71,13.89-2.78,13.76-2.85,13.63z"/>
				<path class="st35" d="M-2,13.94c0.32-0.17,0.59-0.46,0.77-0.79c0.01,0.01,0.03,0.03,0.04,0.04c-0.07,0.14-0.14,0.28-0.23,0.41
					c0,0-0.53,1.3-1.22,0.39c-0.02-0.03-0.04-0.06-0.05-0.08C-2.5,14.05-2.27,14.08-2,13.94z"/>
			</g>
		</g>
		<path class="st44" d="M16.15,32.24c-1.94,6.75-17.23,6.08-17.23,6.08l-0.65-0.02c0,0-15.29-0.67-16.63-7.56
			c0,0-0.88-10.36,2.61-17.32c0,0,3.75-4.25,15.58-3.39c11.87,0.17,15.23,4.74,15.23,4.74C17.93,21.99,16.15,32.24,16.15,32.24z"/>
		<path class="st44" d="M16.15,32.24c-1.94,6.75-17.23,6.08-17.23,6.08l-0.65-0.02c0,0-15.29-0.67-16.63-7.56
			c0,0-0.88-10.36,2.61-17.32c0,0,3.75-4.25,15.58-3.39c11.87,0.17,15.23,4.74,15.23,4.74C17.93,21.99,16.15,32.24,16.15,32.24z
			 M13.9,15.45c0,0-3.12-4.24-14.12-4.39c-10.97-0.8-14.45,3.15-14.45,3.15c-3.24,6.45-2.42,16.05-2.42,16.05
			c1.25,6.39,15.42,7.01,15.42,7.01l0.6,0.02c0,0,14.18,0.62,15.98-5.64C14.91,31.65,16.57,22.15,13.9,15.45z"/>
		<path class="st45" d="M13.31,33.24c-3.95,3.84-14.34,3.39-14.34,3.39l-0.58-0.03c0,0-13.89-0.61-15.11-6.87
			c0,0-0.6-7.07,1.3-13.06C-11.03,29.54,2.71,32.46,13.31,33.24z"/>
	</g>
</symbol>
<use xlink:href="#Harf"  width="81.2" height="100" x="-40.6" y="-50" transform="matrix(1 0 0 -1 40.6006 50)" style="overflow:visible;"/>
</svg>
