<?xml version="1.0" encoding="utf-8"?>
<!-- Generator: Adobe Illustrator 26.3.1, SVG Export Plug-In . SVG Version: 6.00 Build 0)  -->
<svg version="1.1" id="Layer_1" xmlns="http://www.w3.org/2000/svg" xmlns:xlink="http://www.w3.org/1999/xlink" x="0px" y="0px"
	 viewBox="0 0 83.37 100" style="enable-background:new 0 0 83.37 100;" xml:space="preserve">
<style type="text/css">
	.st0{fill:#989A9D;}
	.st1{fill:#7B7C7E;}
	.st2{fill:#DFE0E1;}
	.st3{fill:#C1C3C4;}
	.st4{opacity:0.7;fill:#FFFFFF;}
	.st5{opacity:0.2;fill:#393A3C;}
	.st6{fill:#CC1743;}
	.st7{fill:#85888A;}
	.st8{fill:#FFFFFF;}
	.st9{fill:#9DA1A2;}
	.st10{opacity:0.5;fill:#85888A;}
	.st11{fill:#909294;}
	.st12{fill:#B1D0DE;}
	.st13{fill:#505153;}
	.st14{fill:#EFAB51;}
	.st15{fill:#ACCC16;}
	.st16{fill:#07294E;}
	.st17{fill:#B6B9BB;}
	.st18{fill:#1A7570;}
	.st19{fill:#EB7417;}
	.st20{fill:#2F3133;}
	.st21{fill:#135F8F;}
	.st22{fill:#6A6B6E;}
	.st23{fill:#CECFD0;}
	.st24{fill:#0E4E91;}
	.st25{clip-path:url(#SVGID_00000011750231309636648910000009371671037425093508_);}
	.st26{fill:#8D664D;}
	.st27{opacity:0.6;fill:#A6785C;}
	.st28{fill:#76C8F0;}
	.st29{fill:#F6BA9E;}
	.st30{fill:#EC8862;}
	.st31{opacity:0.5;fill:#F2A686;}
	.st32{fill:#A6785C;}
	.st33{opacity:0.6;fill:#F2A686;}
	.st34{fill:#8D664E;}
	.st35{fill:#703000;}
	.st36{fill:#8D4423;}
	.st37{fill:#380D00;}
	.st38{fill:#F6948D;}
	.st39{fill:#CF5957;}
	.st40{fill:#F2A686;}
	.st41{opacity:0.6;fill:#B1B4B5;}
	.st42{opacity:0.6;fill:url(#SVGID_00000164489189546334404810000000064106878836963239_);}
	.st43{opacity:0.6;fill:url(#SVGID_00000080904993882451116310000013410641456249227410_);}
	.st44{fill:#694C39;}
	.st45{opacity:0.4;fill:#5A80A3;}
	.st46{opacity:0.6;fill:#84ADD3;}
</style>
<symbol  id="Mazie" viewBox="-41.68 -50 83.37 100">
	<g>
		<g>
			<g>
				<path class="st0" d="M-35.23,5.51c1.34,0.23,2.72,1.82,3.17,3.1c0.49,1.43,0.13,2.9-0.61,4.17c-0.37,0.63-1.86,2.51-1.84,0.6
					c0.01-0.74,0.36-1.27,0.66-1.94c0.02-0.04,0.04-0.09,0.06-0.13c-0.15,0.12-0.29,0.25-0.45,0.38c-0.53,0.43-2.46,2.43-2.96,2.94
					c-0.26,0.27-0.65,0.69-1.06,0.48c-0.3-0.16-0.31-0.64-0.27-0.92c0.06-0.51,0.55-1.06,0.86-1.44c0.23-0.3,0.48-0.58,0.74-0.87
					c-0.29,0.22-0.57,0.43-0.85,0.65c-0.41,0.33-0.78,0.76-1.27,0.95c-0.72,0.27-0.99-0.54-0.76-1.09c0.28-0.66,1-1.15,1.55-1.56
					c0.25-0.19,0.5-0.39,0.74-0.6c-0.32,0.13-0.63,0.26-0.95,0.41c-0.49,0.23-0.92,0.56-1.44,0.76c-0.66,0.25-1.42-0.08-0.93-0.84
					c0.52-0.8,1.71-1.82,2.5-2.28c-0.75,0.05-2.55,1.25-3.02,0.65C-42.2,7.84-36.86,5.24-35.23,5.51z"/>
				<path class="st1" d="M-40.87,11.59c0.28,0.15,0.68,0.15,1.03,0.02c0.16-0.06,0.31-0.14,0.46-0.21c-0.29,0.26-0.53,0.56-0.68,0.9
					c-0.2,0.5-0.05,1.16,0.35,1.38c0.14,0.08,0.37,0.14,0.71,0.01c0.19-0.07,0.36-0.17,0.53-0.3c-0.16,0.25-0.29,0.5-0.32,0.77
					c-0.01,0.13-0.03,0.37,0.02,0.6c0.07,0.33,0.25,0.48,0.38,0.55c0.54,0.28,1.01-0.2,1.3-0.49l0.02-0.03l0.2-0.21
					c0.56-0.57,1.73-1.78,2.39-2.4c-0.16,0.36-0.28,0.74-0.29,1.2c-0.01,0.2,0.02,0.37,0.04,0.51c0.08,0.4,0.3,0.52,0.46,0.54
					c0.74,0.12,1.75-1.51,1.76-1.53c0.86-1.5,1.08-3.02,0.63-4.36c-0.47-1.38-1.93-3.02-3.34-3.26c-1.42-0.23-4.93,1.37-6.05,2.56
					c-0.34,0.35-0.48,0.68-0.42,0.97l0,0c0.02,0.09,0.06,0.18,0.12,0.26c0.36,0.45,1.09,0.23,1.85-0.07
					c-0.53,0.45-1.03,0.97-1.34,1.44c-0.16,0.25-0.22,0.49-0.18,0.71C-41.18,11.33-41.05,11.48-40.87,11.59z M-38.13,8.21
					c-0.03-0.1-0.12-0.17-0.23-0.16c-0.31,0.02-0.73,0.2-1.19,0.38c-0.57,0.24-1.45,0.59-1.63,0.35c-0.02-0.03-0.03-0.04-0.04-0.07
					l0,0c-0.02-0.13,0.08-0.33,0.31-0.56c1.11-1.16,4.49-2.61,5.65-2.41c1.23,0.2,2.56,1.72,2.98,2.95c0.05,0.15,0.1,0.3,0.13,0.46
					c0.29,1.38-0.23,2.68-0.73,3.53c-0.33,0.58-1.05,1.35-1.28,1.31c-0.04,0-0.13-0.22-0.13-0.6c0.01-0.52,0.21-0.93,0.43-1.42
					c0.07-0.14,0.14-0.29,0.21-0.43l0.06-0.14c0.04-0.1,0.01-0.21-0.07-0.27c-0.08-0.07-0.2-0.06-0.28,0
					c-0.09,0.07-0.17,0.14-0.27,0.22l-0.19,0.15c-0.48,0.4-2.09,2.05-2.77,2.76l-0.23,0.23c-0.28,0.29-0.55,0.52-0.76,0.41
					c-0.16-0.08-0.18-0.53-0.16-0.69c0.04-0.37,0.38-0.79,0.66-1.13c0.05-0.07,0.1-0.13,0.15-0.19c0.2-0.27,0.42-0.52,0.64-0.76
					l0.09-0.1c0.07-0.08,0.07-0.22-0.01-0.3c-0.07-0.09-0.2-0.1-0.29-0.03c-0.33,0.23-0.6,0.44-0.86,0.65
					c-0.11,0.09-0.21,0.18-0.32,0.27c-0.28,0.25-0.57,0.51-0.89,0.63c-0.14,0.05-0.24,0.06-0.33,0.01c-0.19-0.1-0.26-0.52-0.14-0.8
					c0.24-0.56,0.84-1,1.36-1.39l0.11-0.08c0.28-0.2,0.54-0.42,0.75-0.6c0.09-0.07,0.11-0.2,0.06-0.29c-0.06-0.1-0.18-0.14-0.28-0.1
					c-0.32,0.13-0.63,0.27-0.95,0.41c-0.23,0.1-0.43,0.23-0.63,0.34c-0.26,0.16-0.52,0.31-0.78,0.41c-0.23,0.09-0.5,0.09-0.65,0.01
					c-0.11-0.06-0.12-0.12-0.13-0.14c-0.02-0.09,0.02-0.22,0.12-0.36c0.49-0.77,1.65-1.76,2.41-2.21c0.08-0.05,0.13-0.15,0.1-0.24
					C-38.13,8.23-38.13,8.22-38.13,8.21z"/>
			</g>
			<g>
				<g>
					<path class="st2" d="M-11.2,4.36c0,0-0.34-0.02-0.92-0.05c-0.59-0.01-1.43-0.04-2.44,0c-2.01,0.07-4.68,0.37-7.23,1.07
						c-2.56,0.7-4.96,1.77-6.64,2.78c-0.42,0.26-0.81,0.48-1.14,0.71c-0.33,0.23-0.62,0.42-0.85,0.58C-30.87,9.8-31.15,10-31.15,10
						c-0.05,0.03-0.1,0.07-0.15,0.11l-4.42-5.68c0.06-0.05,0.12-0.09,0.18-0.15c0,0,0.33-0.25,0.92-0.68
						c0.3-0.21,0.66-0.45,1.08-0.74c0.42-0.29,0.92-0.58,1.44-0.9c2.15-1.27,5.2-2.66,8.39-3.52c3.19-0.88,6.45-1.25,8.89-1.33
						c1.22-0.04,2.24-0.02,2.95,0.01c0.71,0.04,1.12,0.06,1.12,0.06c1.6,0.1,2.99,0.68,3.89,1.51c0.92,0.82,1.32,1.84,1.09,2.82
						C-6,2.46-6.73,3.2-7.7,3.7C-8.68,4.2-9.89,4.45-11.2,4.36z"/>
					<path class="st3" d="M-10.69-3.07L-10.69-3.07l-0.04,0l-1.12-0.06c-0.63-0.01-1.7-0.05-2.96,0c-1.73,0.06-5.2,0.3-8.95,1.33
						c-2.9,0.79-5.98,2.08-8.44,3.55c-0.18,0.11-0.35,0.22-0.53,0.32c-0.33,0.2-0.65,0.39-0.93,0.59l-1.09,0.74l-1.11,0.85
						c-0.1,0.08-0.12,0.22-0.04,0.32l4.42,5.68c0.07,0.1,0.21,0.12,0.31,0.05l0.13-0.09l0.76-0.56l0.84-0.58
						c0.2-0.13,0.42-0.27,0.66-0.41c0.15-0.09,0.31-0.19,0.47-0.29c1.9-1.13,4.3-2.14,6.58-2.76c2.18-0.61,4.8-0.99,7.18-1.07
						c0.98-0.04,1.8-0.01,2.39,0.01l0.94,0.05C-9.9,4.67-8.65,4.44-7.6,3.9c1.11-0.57,1.82-1.39,2.06-2.36
						C-5.28,0.5-5.7-0.62-6.69-1.5C-7.67-2.38-9.13-2.96-10.69-3.07z M-35.4,4.46l0.01-0.01l1.14-0.84l0.84-0.58
						c0.28-0.18,0.58-0.37,0.92-0.57c0.17-0.11,0.34-0.21,0.52-0.32c2.42-1.44,5.46-2.72,8.33-3.5c3.71-1.02,7.13-1.26,8.84-1.31
						c1.25-0.04,2.3-0.02,2.94,0l1.11,0.06l0.05-0.23l-0.01,0.23c1.46,0.1,2.82,0.63,3.72,1.45c0.86,0.77,1.23,1.72,1.01,2.6
						C-6.24,2.5-7.12,3.15-7.8,3.5c-0.98,0.49-2.15,0.71-3.38,0.63l-0.93-0.05c-0.63-0.01-1.46-0.03-2.46,0.01
						c-2.41,0.07-5.07,0.47-7.29,1.08c-2.32,0.63-4.76,1.65-6.69,2.81c-0.16,0.1-0.31,0.19-0.46,0.28c-0.25,0.15-0.48,0.3-0.69,0.43
						l-0.85,0.58l-0.7,0.53L-35.4,4.46z"/>
				</g>
				<path class="st4" d="M-24.66-1.29c0,0,0.41-0.12,1.03-0.3c0.62-0.17,1.45-0.38,2.3-0.54c1.68-0.35,3.37-0.54,3.37-0.54
					l0.81,7.17c0,0-1.39,0.15-2.74,0.43c-0.68,0.14-1.35,0.31-1.85,0.44c-0.5,0.15-0.82,0.24-0.82,0.24L-24.66-1.29z"/>
				<path class="st5" d="M-33.64,7.09l-2.07-2.67c0.06-0.05,0.12-0.09,0.18-0.15c0,0,0.33-0.25,0.92-0.68
					c0.3-0.21,0.66-0.45,1.08-0.74c0.42-0.29,0.92-0.58,1.44-0.9c2.15-1.27,5.2-2.66,8.39-3.52c3.19-0.88,6.45-1.25,8.89-1.33
					c1.22-0.04,2.24-0.02,2.95,0.01c0.71,0.04,1.12,0.06,1.12,0.06c1.54,0.09,2.89,0.65,3.79,1.42c0.91,0.78,1.36,1.76,1.22,2.69
					c0,0-1.8-0.44-4.54-0.67c-1.38-0.11-2.99-0.17-4.7-0.1c-1.73,0.08-3.55,0.28-5.36,0.62c-3.62,0.68-7.09,2.06-9.47,3.43
					c-0.61,0.33-1.14,0.69-1.62,0.97c-0.46,0.31-0.87,0.59-1.2,0.81C-33.28,6.81-33.64,7.09-33.64,7.09z"/>
				<path class="st6" d="M-29.17,8.61c0,0-0.22,0.13-0.42,0.28c-0.21,0.14-0.42,0.28-0.42,0.28l-4.08-5.95c0,0,0.27-0.18,0.53-0.36
					c0.26-0.18,0.54-0.35,0.54-0.35L-29.17,8.61z"/>
				<polygon class="st6" points="-28.31,8.09 -28.74,8.36 -32.47,2.19 -31.93,1.85 				"/>
			</g>
		</g>
		<g>
			<g>
				<path class="st0" d="M41.38,8.77c-0.47,0.61-2.28-0.59-3.03-0.63c0.8,0.46,1.99,1.47,2.51,2.26c0.49,0.76-0.27,1.09-0.93,0.84
					c-0.52-0.19-0.95-0.52-1.43-0.75c-0.32-0.15-0.63-0.28-0.95-0.41c0.24,0.2,0.48,0.41,0.74,0.59c0.56,0.41,1.28,0.89,1.56,1.56
					c0.24,0.55-0.03,1.36-0.75,1.09c-0.49-0.18-0.87-0.61-1.28-0.94c-0.28-0.22-0.56-0.44-0.85-0.65c0.26,0.29,0.51,0.57,0.74,0.87
					c0.31,0.38,0.8,0.93,0.86,1.44c0.04,0.28,0.03,0.76-0.27,0.93c-0.41,0.21-0.8-0.21-1.06-0.48c-0.5-0.5-2.44-2.49-2.97-2.93
					c-0.15-0.13-0.29-0.25-0.44-0.37c0.01,0.05,0.03,0.09,0.06,0.13c0.29,0.67,0.65,1.2,0.66,1.94c0.03,1.9-1.47,0.04-1.84-0.6
					c-0.74-1.27-1.11-2.73-0.63-4.17c0.44-1.29,1.81-2.88,3.15-3.12C36.85,5.1,42.2,7.68,41.38,8.77z"/>
				<path class="st1" d="M41.22,10.98c0.05-0.22-0.01-0.46-0.18-0.71c-0.31-0.47-0.81-0.99-1.34-1.44c0.76,0.3,1.49,0.52,1.85,0.07
					c0.06-0.08,0.1-0.17,0.12-0.25l0,0c0.06-0.29-0.08-0.62-0.42-0.97c-1.13-1.18-4.65-2.77-6.06-2.53
					c-1.41,0.24-2.86,1.89-3.33,3.27c-0.45,1.34-0.22,2.86,0.65,4.36c0.01,0.02,1.02,1.65,1.76,1.52c0.16-0.02,0.38-0.14,0.46-0.54
					c0.03-0.14,0.05-0.3,0.04-0.51c-0.01-0.46-0.13-0.84-0.29-1.2c0.66,0.62,1.85,1.82,2.41,2.39l0.2,0.2l0.03,0.02
					c0.28,0.29,0.76,0.77,1.3,0.49c0.14-0.07,0.31-0.22,0.38-0.55c0.05-0.23,0.03-0.48,0.02-0.6c-0.03-0.27-0.16-0.52-0.32-0.77
					c0.17,0.12,0.34,0.23,0.53,0.29c0.34,0.13,0.57,0.06,0.71-0.01c0.39-0.22,0.55-0.88,0.34-1.37c-0.15-0.35-0.4-0.64-0.68-0.9
					c0.15,0.08,0.31,0.15,0.47,0.21c0.36,0.13,0.76,0.13,1.03-0.02C41.06,11.33,41.19,11.17,41.22,10.98z M38.13,8.09
					c-0.02,0.1,0.02,0.2,0.1,0.24c0.77,0.45,1.93,1.43,2.43,2.2c0.1,0.14,0.14,0.28,0.12,0.36c0,0.02-0.02,0.08-0.12,0.14
					c-0.15,0.09-0.42,0.08-0.65,0c-0.27-0.1-0.53-0.25-0.79-0.4c-0.2-0.12-0.41-0.24-0.63-0.34c-0.32-0.15-0.64-0.29-0.96-0.41
					c-0.1-0.04-0.22,0-0.28,0.09c-0.05,0.1-0.03,0.22,0.05,0.29c0.22,0.18,0.48,0.4,0.76,0.6l0.12,0.08
					c0.53,0.39,1.12,0.82,1.37,1.39c0.12,0.28,0.05,0.69-0.14,0.8c-0.09,0.05-0.19,0.04-0.33-0.01c-0.32-0.12-0.61-0.38-0.89-0.63
					c-0.11-0.1-0.21-0.19-0.32-0.28c-0.26-0.21-0.53-0.42-0.87-0.65c-0.09-0.07-0.22-0.06-0.3,0.03c-0.08,0.09-0.08,0.22,0,0.3
					l0.09,0.1c0.22,0.24,0.44,0.5,0.65,0.76c0.05,0.06,0.1,0.12,0.16,0.19c0.27,0.34,0.61,0.76,0.66,1.13c0.02,0.17,0,0.62-0.15,0.7
					c-0.21,0.11-0.48-0.12-0.76-0.41l-0.23-0.23c-0.68-0.7-2.3-2.35-2.78-2.75l-0.19-0.16c-0.09-0.08-0.17-0.15-0.26-0.22
					c-0.08-0.07-0.2-0.07-0.28-0.01c-0.08,0.06-0.11,0.17-0.07,0.27l0.05,0.14c0.07,0.15,0.14,0.29,0.21,0.43
					c0.23,0.48,0.43,0.89,0.44,1.41c0,0.38-0.08,0.6-0.13,0.6c-0.24,0.04-0.95-0.72-1.29-1.31c-0.5-0.85-1.03-2.15-0.74-3.53
					c0.03-0.15,0.08-0.3,0.13-0.45c0.42-1.23,1.74-2.76,2.97-2.96C36.42,5.4,39.8,6.84,40.92,8c0.22,0.23,0.33,0.43,0.3,0.56l0,0
					c0,0.03-0.01,0.05-0.03,0.07C41,8.88,40.13,8.52,39.56,8.29c-0.46-0.18-0.88-0.36-1.19-0.38c-0.11-0.01-0.2,0.06-0.23,0.16
					C38.13,8.08,38.13,8.08,38.13,8.09z"/>
			</g>
			<g>
				<g>
					<path class="st2" d="M11.18,4.32c0,0,0.34-0.02,0.93-0.05c0.59-0.02,1.42-0.05,2.44-0.01c2.01,0.06,4.68,0.35,7.24,1.05
						c2.56,0.68,4.96,1.75,6.65,2.76c0.42,0.26,0.82,0.47,1.14,0.7c0.33,0.22,0.62,0.42,0.86,0.58c0.46,0.34,0.72,0.54,0.72,0.54
						c0.05,0.03,0.1,0.07,0.15,0.11l4.39-5.7c-0.06-0.05-0.12-0.09-0.19-0.15c0,0-0.33-0.25-0.91-0.68C34.3,3.25,33.93,3,33.51,2.72
						c-0.42-0.29-0.92-0.57-1.45-0.9c-2.15-1.27-5.21-2.63-8.41-3.49c-3.19-0.86-6.46-1.22-8.9-1.29C13.54-3,12.53-2.96,11.82-2.94
						C11.11-2.9,10.7-2.88,10.7-2.88c-1.6,0.11-2.99,0.7-3.89,1.53C5.9-0.53,5.5,0.5,5.73,1.47c0.24,0.97,0.98,1.71,1.95,2.2
						C8.66,4.16,9.88,4.41,11.18,4.32z"/>
					<path class="st3" d="M6.66-1.52c-0.99,0.88-1.4,2-1.14,3.04c0.24,0.97,0.96,1.79,2.07,2.36c1.06,0.53,2.31,0.75,3.62,0.67
						l0.94-0.05c0.59-0.02,1.41-0.05,2.39-0.01c2.38,0.06,5,0.44,7.19,1.04c2.28,0.61,4.69,1.62,6.59,2.74
						c0.16,0.1,0.32,0.19,0.47,0.29c0.24,0.14,0.46,0.28,0.66,0.41l0.85,0.57l0.76,0.56l0.14,0.09c0.1,0.07,0.23,0.05,0.3-0.04
						l4.4-5.7c0.08-0.1,0.06-0.24-0.04-0.32l-1.12-0.84l-1.09-0.73c-0.28-0.2-0.6-0.39-0.93-0.59c-0.17-0.1-0.35-0.2-0.53-0.32
						c-2.46-1.45-5.55-2.73-8.45-3.51c-3.75-1.02-7.22-1.25-8.96-1.3c-1.26-0.04-2.33,0-2.96,0.01l-1.12,0.06l-0.04,0l0,0
						C9.08-2.99,7.63-2.41,6.66-1.52z M31.26,9.68l-0.71-0.52L29.7,8.57c-0.2-0.14-0.44-0.28-0.69-0.43
						c-0.15-0.09-0.3-0.18-0.47-0.28c-1.94-1.15-4.38-2.16-6.7-2.78c-2.21-0.6-4.88-0.99-7.29-1.05c-1-0.03-1.83-0.01-2.46,0
						l-0.92,0.05C9.94,4.18,8.77,3.96,7.79,3.47c-0.69-0.35-1.56-1-1.83-2.06c-0.22-0.88,0.14-1.83,1-2.6
						c0.9-0.82,2.26-1.35,3.71-1.46l-0.01-0.23l0.05,0.22l1.11-0.06c0.63-0.02,1.69-0.05,2.94-0.01c1.71,0.05,5.14,0.28,8.84,1.28
						c2.87,0.77,5.92,2.04,8.34,3.46c0.18,0.11,0.35,0.22,0.52,0.32c0.33,0.2,0.64,0.39,0.92,0.57l0.85,0.58l1.15,0.83l0.01,0.01
						L31.26,9.68z"/>
				</g>
				<path class="st4" d="M24.63-1.38c0,0-0.41-0.12-1.03-0.3c-0.62-0.16-1.46-0.37-2.3-0.53c-1.68-0.34-3.37-0.52-3.37-0.52
					l-0.78,7.18c0,0,1.39,0.14,2.74,0.42c0.68,0.14,1.34,0.3,1.84,0.43c0.5,0.14,0.83,0.24,0.83,0.24L24.63-1.38z"/>
				<path class="st5" d="M33.64,6.96l2.06-2.68c-0.06-0.05-0.12-0.09-0.19-0.15c0,0-0.33-0.25-0.91-0.68
					C34.3,3.25,33.93,3,33.51,2.72c-0.42-0.29-0.92-0.57-1.45-0.9c-2.15-1.27-5.21-2.63-8.41-3.49c-3.19-0.86-6.46-1.22-8.9-1.29
					C13.54-3,12.53-2.96,11.82-2.94C11.11-2.9,10.7-2.88,10.7-2.88c-1.54,0.1-2.89,0.66-3.79,1.43C6.01-0.67,5.56,0.32,5.7,1.25
					c0,0,1.8-0.45,4.54-0.69c1.38-0.12,2.98-0.18,4.7-0.12c1.73,0.07,3.55,0.26,5.36,0.6c3.62,0.67,7.09,2.04,9.49,3.39
					c0.62,0.33,1.14,0.68,1.62,0.96c0.47,0.31,0.87,0.59,1.21,0.81C33.27,6.69,33.64,6.96,33.64,6.96z"/>
				<path class="st6" d="M29.17,8.5c0,0,0.22,0.13,0.43,0.28c0.21,0.14,0.42,0.28,0.42,0.28l4.06-5.97c0,0-0.27-0.18-0.53-0.36
					C33.28,2.55,33,2.39,33,2.39L29.17,8.5z"/>
				<polygon class="st6" points="28.31,7.99 28.74,8.25 32.45,2.06 31.9,1.73 				"/>
			</g>
		</g>
		<g>
			<g>
				<g>
					<path class="st7" d="M-4.22-21.39c0,0-8.87-2.53-13.48-21.17L-4.22-21.39z"/>
					<g>
						<g>
							<g>
								<g>
									<path class="st2" d="M-11.25-20.56c0,0-0.08-0.06-0.21-0.19c-0.13-0.12-0.32-0.32-0.56-0.56
										c-0.51-0.47-1.12-1.18-1.86-2.05c-1.43-1.75-2.99-4.21-4.22-6.75c-0.3-0.64-0.62-1.27-0.89-1.91
										c-0.25-0.64-0.51-1.25-0.75-1.86c-0.12-0.3-0.24-0.59-0.35-0.89c-0.1-0.29-0.2-0.58-0.29-0.86
										c-0.19-0.56-0.36-1.09-0.53-1.57c-0.08-0.24-0.16-0.48-0.23-0.7c-0.06-0.22-0.12-0.43-0.18-0.63
										c-0.11-0.4-0.2-0.74-0.28-1.03c-0.16-0.57-0.25-0.89-0.25-0.89c-0.01-0.07-0.03-0.14-0.05-0.2l8.65-2.25
										c0.01,0.05,0.04,0.1,0.06,0.16c0,0,0.08,0.28,0.21,0.78c0.07,0.25,0.16,0.55,0.25,0.9c0.05,0.17,0.1,0.36,0.15,0.56
										c0.06,0.19,0.13,0.39,0.2,0.59c0.14,0.41,0.29,0.86,0.45,1.34c0.08,0.24,0.16,0.48,0.24,0.73c0.1,0.24,0.2,0.48,0.29,0.73
										c0.2,0.49,0.41,1.01,0.62,1.53c0.23,0.51,0.48,1.01,0.72,1.53c0.99,2.01,2.16,3.85,3.14,5.05
										c0.51,0.58,0.91,1.07,1.23,1.36c0.15,0.15,0.27,0.27,0.35,0.36c0.08,0.08,0.13,0.12,0.13,0.12
										c0.7,0.62,1.01,1.46,1.12,2.47c0.04,0.48,0.05,1.04-0.01,1.59c-0.06,0.57-0.17,1.15-0.39,1.73
										c-0.21,0.58-0.57,1.08-1.04,1.45c-0.49,0.38-1.07,0.62-1.74,0.71C-8.57-19.05-10.1-19.52-11.25-20.56z"/>
									<path class="st3" d="M-13.07-43.24l-9.17,2.39l0.11,0.48l0.79,2.8l0.97,2.9l1.11,2.76c0.19,0.44,0.4,0.87,0.6,1.31
										c0.1,0.2,0.2,0.41,0.3,0.61c1.23,2.51,2.78,5,4.26,6.81l0.15,0.16c0.67,0.79,1.25,1.47,1.74,1.91l0.56,0.55
										c0.13,0.14,0.21,0.21,0.21,0.21c1.02,0.93,2.35,1.45,3.64,1.44c0.19,0,0.38-0.02,0.56-0.04c0.72-0.1,1.34-0.35,1.87-0.76
										c0.51-0.4,0.9-0.95,1.13-1.57c0.21-0.55,0.34-1.14,0.4-1.8c0.06-0.56,0.06-1.13,0.01-1.65c-0.13-1.2-0.51-2.03-1.21-2.65
										c-0.01-0.01-0.05-0.04-0.11-0.11l-0.36-0.36c-0.23-0.2-0.51-0.52-0.83-0.9c-0.12-0.14-0.26-0.29-0.39-0.45
										c-1.02-1.26-2.18-3.12-3.1-4.99c-0.09-0.2-0.18-0.39-0.28-0.59c-0.15-0.31-0.3-0.61-0.43-0.92l-0.9-2.26l-1.04-3.18
										l-0.46-1.67c-0.02-0.04-0.03-0.08-0.04-0.11L-13.07-43.24z M-21.56-40.44l8.12-2.12l0.79,2.74l0.78,2.27l0.83,2.07
										c0.14,0.32,0.29,0.64,0.44,0.95c0.09,0.2,0.19,0.38,0.28,0.59c0.93,1.91,2.12,3.83,3.18,5.12
										c0.14,0.16,0.27,0.31,0.39,0.45c0.33,0.38,0.62,0.72,0.87,0.94l0.34,0.34c0.09,0.09,0.14,0.13,0.14,0.13
										c0.58,0.51,0.91,1.25,1.02,2.29c0.06,0.48,0.05,1.01-0.01,1.53c-0.07,0.62-0.19,1.16-0.37,1.66
										c-0.2,0.53-0.53,0.99-0.96,1.33c-0.44,0.35-0.98,0.57-1.6,0.65c-0.16,0.02-0.32,0.04-0.49,0.04
										c-1.15,0.01-2.34-0.47-3.27-1.3c-0.01-0.01-0.08-0.07-0.2-0.19l-0.56-0.55c-0.47-0.44-1.04-1.1-1.7-1.87l-0.14-0.16
										c-1.45-1.77-2.98-4.21-4.18-6.69c-0.09-0.21-0.2-0.42-0.3-0.62c-0.21-0.43-0.41-0.85-0.59-1.27l-1.1-2.75l-1.04-3.12
										L-21.56-40.44z"/>
								</g>
								<path class="st5" d="M-3.98-22.71l-0.05,0.11c0-0.01-0.06-0.02-0.2-0.09c-0.14-0.06-0.35-0.16-0.61-0.31
									c-0.52-0.29-1.28-0.76-2.1-1.47c-0.42-0.34-0.84-0.78-1.28-1.21c-0.23-0.22-0.42-0.48-0.65-0.72
									c-0.22-0.26-0.46-0.5-0.66-0.79c-0.41-0.56-0.87-1.11-1.26-1.74c-0.2-0.31-0.4-0.62-0.6-0.93c-0.2-0.31-0.37-0.65-0.55-0.97
									c-0.18-0.34-0.37-0.66-0.55-0.98c-0.18-0.34-0.33-0.68-0.49-1.01c-0.31-0.67-0.65-1.32-0.9-1.99
									c-0.27-0.66-0.52-1.3-0.77-1.9c-0.21-0.61-0.41-1.2-0.58-1.74c-0.39-1.07-0.62-2-0.8-2.65c-0.18-0.64-0.27-1.01-0.27-1.01
									l3.07-0.8c0.02,0.06,0.04,0.11,0.06,0.16c0,0,0.08,0.28,0.21,0.78c0.07,0.25,0.16,0.55,0.25,0.9
									c0.05,0.17,0.1,0.36,0.15,0.56c0.06,0.19,0.13,0.39,0.2,0.59c0.14,0.41,0.29,0.86,0.45,1.34c0.08,0.24,0.16,0.48,0.24,0.73
									c0.1,0.24,0.2,0.48,0.29,0.73c0.2,0.49,0.41,1.01,0.62,1.53c0.23,0.51,0.48,1.01,0.72,1.53c0.99,2.01,2.16,3.85,3.14,5.05
									c0.51,0.58,0.91,1.07,1.23,1.36c0.15,0.15,0.27,0.27,0.35,0.36c0.08,0.08,0.13,0.12,0.13,0.12c0.7,0.62,1.11,1.34,1.33,2.11
									C-3.68-24.32-3.69-23.51-3.98-22.71z"/>
								<polygon class="st6" points="-19.29,-32.73 -19.68,-33.72 -11.35,-37 -11.02,-36.18 								"/>
								<path class="st6" d="M-18.88-31.74c0,0-0.06-0.13-0.11-0.25c-0.05-0.13-0.1-0.25-0.1-0.25l8.23-3.53c0,0,0.16,0.41,0.17,0.4
									L-18.88-31.74z"/>
							</g>
							<g>
								<path class="st2" d="M-9.14-32.68c-0.49-0.81-1.27-1.41-2.29-1.67c-1.02-0.26-2.2-0.23-3.31,0.24
									c-1.13,0.48-1.97,1.34-2.35,2.38c-0.39,1.03-0.39,2.26,0.25,3.34c0.31,0.53,0.68,1,1.17,1.33c0.48,0.34,1.02,0.57,1.57,0.68
									c0.54,0.1,1.11,0.09,1.68-0.05c0.55-0.14,1.09-0.4,1.57-0.76c0.49-0.37,0.89-0.8,1.2-1.26c0.31-0.46,0.54-0.95,0.7-1.45
									c0.15-0.5,0.22-0.98,0.19-1.44C-8.81-31.79-8.9-32.27-9.14-32.68z"/>
								<path class="st3" d="M-12.77-34.82c-0.73,0.01-1.43,0.15-2.1,0.43c-1.19,0.51-2.12,1.44-2.52,2.55
									c-0.46,1.23-0.36,2.55,0.28,3.62c0.37,0.65,0.77,1.11,1.26,1.44c0.52,0.36,1.08,0.6,1.68,0.72c0.57,0.12,1.21,0.1,1.81-0.05
									c0.6-0.15,1.16-0.42,1.69-0.81c0.49-0.37,0.92-0.82,1.28-1.34c0.31-0.47,0.57-0.98,0.74-1.52c0.17-0.55,0.24-1.08,0.2-1.57
									c-0.03-0.4-0.12-0.97-0.42-1.48c-0.55-0.91-1.41-1.54-2.48-1.81C-11.82-34.77-12.29-34.83-12.77-34.82z M-13.37-26.63
									c-0.24,0-0.46-0.02-0.68-0.06c-0.51-0.1-1.01-0.32-1.45-0.62c-0.41-0.27-0.75-0.66-1.08-1.23
									c-0.53-0.91-0.62-2.03-0.22-3.08c0.35-0.95,1.14-1.75,2.18-2.2c0.97-0.41,2.07-0.49,3.11-0.23c0.91,0.23,1.65,0.76,2.1,1.52
									c0.23,0.39,0.3,0.88,0.33,1.22c0.03,0.4-0.02,0.85-0.17,1.32c-0.15,0.49-0.38,0.94-0.66,1.36
									c-0.31,0.46-0.69,0.86-1.13,1.18c-0.46,0.34-0.95,0.58-1.47,0.71C-12.79-26.66-13.08-26.63-13.37-26.63z"/>
							</g>
							<path class="st4" d="M-10.15-32.06c-0.18-0.32-0.43-0.58-0.73-0.77c-0.28-0.22-0.62-0.38-0.98-0.47
								c-0.74-0.19-1.61-0.15-2.42,0.23c-0.81,0.37-1.4,1.01-1.68,1.77c-0.15,0.38-0.22,0.78-0.2,1.2c0.03,0.41,0.16,0.82,0.38,1.2
								c0.21,0.39,0.5,0.7,0.82,0.95c0.34,0.23,0.73,0.4,1.13,0.48c0.8,0.16,1.65-0.02,2.39-0.52c0.73-0.51,1.22-1.23,1.45-1.95
								c0.11-0.37,0.15-0.73,0.12-1.07C-9.88-31.4-9.97-31.74-10.15-32.06z"/>
						</g>
						<g>
							<polygon class="st2" points="-12.64,-43.56 -22.62,-41.05 -21.99,-38.78 -12.1,-41.62 							"/>
							<path class="st3" d="M-12.43-43.9l-10.54,2.65l0.78,2.83l10.44-3.01L-12.43-43.9z M-22.27-40.84l9.43-2.38l0.39,1.4
								l-9.35,2.69L-22.27-40.84z"/>
						</g>
					</g>
				</g>
				<g>
					<g>
						<g>
							<g>
								<path class="st2" d="M-16.38-38.91c0,0-9.34,8.55-13.85,1.91c0,0,5.35-10.54,13.74-11.68c0,0,1.05,1.06,2.39,2.73
									c1.5,1.87,1.2,2.9,1.2,2.9S-14.07-40.78-16.38-38.91z"/>
								<path class="st3" d="M-16.51-49.08c-0.01,0-0.03,0.01-0.05,0c-8.5,1.16-13.83,11.47-14.05,11.9
									c-0.07,0.14-0.05,0.29,0.03,0.41c1.23,1.81,2.91,2.72,4.99,2.7c4.49-0.03,9.28-4.35,9.48-4.54c2.33-1.89,3.5-4.16,3.56-4.26
									c0.01-0.01,0.02-0.04,0.02-0.07c0.04-0.12,0.32-1.29-1.27-3.27c-1.34-1.66-2.38-2.72-2.42-2.76
									C-16.29-49.04-16.39-49.09-16.51-49.08z M-29.76-37.03c0.81-1.47,5.81-10.08,13.11-11.21c0.33,0.34,1.19,1.27,2.23,2.55
									c1.17,1.46,1.14,2.33,1.12,2.51c-0.18,0.34-1.31,2.32-3.34,3.97c-0.06,0.05-4.77,4.32-8.95,4.34
									C-27.3-34.86-28.71-35.59-29.76-37.03z"/>
							</g>
						</g>
						<g>
							<g>
								<path class="st8" d="M-21.56-39.33c-1.95,1.5-4.95,3.86-7.64,3.53c-0.37-0.33-0.72-0.71-1.04-1.19
									c0,0,5.35-10.54,13.74-11.68c0,0,1.05,0.97,1.9,1.96C-16.01-43.59-18.71-41.52-21.56-39.33z"/>
								<path class="st3" d="M-16.51-49.08c-0.01,0-0.03,0.01-0.05,0c-8.5,1.16-13.83,11.47-14.05,11.9
									c-0.07,0.14-0.05,0.29,0.03,0.41c0.33,0.48,0.69,0.89,1.11,1.27c0.06,0.06,0.14,0.09,0.22,0.1c0.2,0.02,0.4,0.04,0.61,0.03
									c2.62-0.02,5.38-2.15,7.21-3.55l0.18-0.13c2.87-2.22,5.59-4.31,7.03-7.49c0.06-0.15,0.04-0.31-0.06-0.44
									c-0.87-1-1.9-1.96-1.94-2C-16.3-49.04-16.41-49.09-16.51-49.08z M-29.76-37.03c0.81-1.47,5.81-10.08,13.13-11.21
									c0.28,0.26,0.95,0.92,1.56,1.61c-1.4,2.87-3.96,4.85-6.68,6.94l-0.18,0.14c-1.74,1.34-4.36,3.37-6.71,3.39
									c-0.13,0-0.25-0.01-0.38-0.02C-29.29-36.44-29.54-36.72-29.76-37.03z"/>
							</g>
						</g>
					</g>
					<g>
						<g>
							<path class="st7" d="M-29.65-36.8c-0.48-0.07-0.86-0.36-0.97-1.04c-0.12-0.78,0.52-1.56,0.94-2.15
								c0.55-0.75,1.19-1.43,1.84-2.09c2.04-2.08,4.24-4.05,6.66-5.69c0.79-0.53,1.76-1.3,2.76-1.39c0,0,2.52-0.24,2.42,1.85
								c-0.04,0.73-0.68,1.47-1.11,2c-0.81,1.01-1.72,1.93-2.67,2.81c-2.18,2.02-4.57,3.73-7.25,4.99
								C-27.64-37.22-28.8-36.67-29.65-36.8z"/>
							<path class="st9" d="M-18.22-49.58L-18.22-49.58c-0.14,0-0.23,0.01-0.24,0.01c-0.96,0.09-1.88,0.73-2.63,1.24
								c-0.11,0.08-0.21,0.15-0.32,0.22c-2.16,1.46-4.35,3.34-6.72,5.73c-0.64,0.65-1.31,1.36-1.88,2.15l-0.11,0.15
								c-0.44,0.6-1.05,1.42-0.9,2.3c0.13,0.78,0.59,1.28,1.31,1.38c0.94,0.15,2.21-0.44,2.85-0.73c2.58-1.22,5.05-2.92,7.37-5.07
								c1.13-1.05,2-1.96,2.71-2.85l0.1-0.12c0.44-0.55,1.05-1.31,1.09-2.12c0.03-0.64-0.14-1.17-0.52-1.56
								C-16.73-49.49-17.7-49.59-18.22-49.58z M-29.37-37.19c-0.07,0-0.15,0-0.22-0.01c-0.26-0.04-0.53-0.16-0.63-0.72
								c-0.09-0.53,0.38-1.17,0.76-1.68l0.11-0.15c0.54-0.75,1.18-1.43,1.8-2.05c2.33-2.36,4.48-4.21,6.6-5.63
								c0.1-0.07,0.21-0.14,0.33-0.22c0.69-0.48,1.48-1.04,2.24-1.1c0,0,0.07-0.01,0.17-0.01c0.31,0,1.09,0.04,1.51,0.48
								c0.22,0.23,0.32,0.54,0.3,0.96c-0.03,0.54-0.54,1.18-0.92,1.65l-0.09,0.12c-0.69,0.87-1.52,1.74-2.63,2.76
								c-2.25,2.1-4.66,3.75-7.14,4.92C-27.72-37.64-28.66-37.19-29.37-37.19z"/>
						</g>
						<g>
							<path class="st10" d="M-29.8-39.82c1.1,0.73,2.26,1.37,3.44,1.98c-0.22,0.11-0.44,0.23-0.66,0.33
								c-0.61,0.29-1.78,0.85-2.62,0.71c-0.48-0.07-0.86-0.36-0.97-1.04C-30.74-38.55-30.22-39.26-29.8-39.82z"/>
							<path class="st10" d="M-24.86-38.69c-0.27,0.16-0.54,0.33-0.82,0.48c-1.28-0.65-2.54-1.33-3.73-2.12
								c0.17-0.21,0.36-0.42,0.54-0.64C-27.58-40.12-26.23-39.39-24.86-38.69z"/>
							<path class="st10" d="M-27.49-42.43c1.42,0.94,2.9,1.79,4.41,2.61c-0.37,0.25-0.74,0.5-1.12,0.74
								c-1.44-0.74-2.87-1.5-4.24-2.37c0.2-0.22,0.4-0.44,0.6-0.64C-27.72-42.2-27.6-42.31-27.49-42.43z"/>
							<path class="st10" d="M-21.16-41.29c-0.45,0.36-0.9,0.72-1.36,1.05c-1.53-0.84-3.05-1.69-4.51-2.65
								c0.38-0.38,0.78-0.75,1.18-1.12C-24.28-43.11-22.72-42.2-21.16-41.29z"/>
							<path class="st10" d="M-20.79-43.8c0.52,0.26,1.04,0.51,1.57,0.76c-0.18,0.19-0.36,0.36-0.55,0.53
								c-0.29,0.27-0.58,0.52-0.87,0.77c-1.57-0.91-3.14-1.82-4.71-2.72c0.46-0.42,0.93-0.83,1.41-1.23
								C-22.88-45.06-21.86-44.34-20.79-43.8z"/>
							<path class="st10" d="M-18.45-45.04c0.27,0.12,0.54,0.24,0.81,0.36c-0.36,0.4-0.72,0.8-1.1,1.18
								c-0.61-0.3-1.21-0.59-1.81-0.9c-0.97-0.5-1.9-1.14-2.86-1.72c0.4-0.33,0.81-0.64,1.23-0.95
								C-20.91-46.45-19.73-45.64-18.45-45.04z"/>
							<path class="st10" d="M-20.4-48.3c1.24,0.83,2.5,1.61,3.78,2.37c-0.16,0.22-0.34,0.43-0.48,0.62
								c-0.03,0.04-0.07,0.08-0.11,0.13c-0.34-0.15-0.67-0.31-1-0.46c-1.15-0.55-2.23-1.25-3.37-1.84c0.13-0.09,0.27-0.2,0.41-0.29
								C-20.93-47.94-20.67-48.12-20.4-48.3z"/>
							<path class="st10" d="M-16.28-46.47c-1.19-0.71-2.37-1.44-3.52-2.2c0.44-0.26,0.91-0.45,1.38-0.49c0,0,2.52-0.24,2.42,1.85
								C-16.02-47.02-16.13-46.75-16.28-46.47z"/>
						</g>
					</g>
				</g>
			</g>
			<g>
				<g>
					<path class="st7" d="M4.12-19.91c0,0,8.36-3.89,9.98-23.03L4.12-19.91z"/>
					<g>
						<g>
							<g>
								<g>
									<path class="st2" d="M11.2-20.21c0,0,0.06-0.08,0.17-0.23c0.11-0.14,0.27-0.36,0.47-0.64c0.43-0.54,0.92-1.34,1.52-2.32
										c1.13-1.95,2.29-4.62,3.11-7.33c0.2-0.68,0.41-1.35,0.58-2.02c0.15-0.67,0.3-1.32,0.45-1.95c0.07-0.32,0.14-0.63,0.21-0.93
										c0.05-0.31,0.1-0.61,0.16-0.89c0.1-0.58,0.19-1.13,0.27-1.64c0.04-0.25,0.09-0.5,0.13-0.73c0.02-0.23,0.05-0.45,0.08-0.65
										c0.04-0.41,0.08-0.77,0.11-1.06c0.07-0.59,0.1-0.92,0.1-0.92c0-0.07,0.01-0.14,0.01-0.2l-8.9-0.87
										c-0.01,0.06-0.02,0.11-0.03,0.17c0,0-0.03,0.29-0.09,0.81c-0.03,0.26-0.07,0.57-0.1,0.92c-0.03,0.18-0.04,0.37-0.06,0.57
										c-0.04,0.2-0.07,0.41-0.11,0.62c-0.07,0.43-0.15,0.89-0.23,1.39c-0.04,0.25-0.09,0.5-0.13,0.76
										c-0.06,0.25-0.11,0.51-0.17,0.77c-0.11,0.52-0.25,1.07-0.37,1.62c-0.14,0.54-0.32,1.07-0.47,1.62
										c-0.66,2.15-1.52,4.14-2.3,5.48c-0.41,0.65-0.73,1.21-1,1.54c-0.12,0.17-0.22,0.3-0.29,0.41
										c-0.06,0.08-0.11,0.13-0.11,0.13c-0.59,0.72-0.77,1.6-0.72,2.62c0.03,0.49,0.12,1.04,0.26,1.57
										c0.15,0.56,0.35,1.11,0.66,1.65c0.3,0.54,0.73,0.98,1.25,1.27c0.54,0.3,1.16,0.44,1.83,0.43C8.79-18.3,10.22-19,11.2-20.21
										z"/>
									<path class="st3" d="M9.36-42.57c-0.01,0.04-0.01,0.08-0.03,0.12l-0.19,1.72l-0.52,3.3l-0.54,2.38
										c-0.08,0.33-0.18,0.65-0.28,0.98c-0.07,0.21-0.13,0.42-0.19,0.63c-0.61,1.99-1.46,4.02-2.27,5.42
										c-0.11,0.18-0.22,0.34-0.32,0.5c-0.25,0.42-0.48,0.78-0.67,1.01l-0.3,0.41c-0.05,0.07-0.09,0.11-0.09,0.12
										c-0.6,0.72-0.84,1.61-0.78,2.82c0.03,0.52,0.12,1.08,0.27,1.62c0.17,0.64,0.39,1.21,0.68,1.72
										c0.34,0.58,0.8,1.06,1.37,1.38c0.58,0.32,1.25,0.47,1.96,0.46c0.19-0.01,0.38-0.02,0.56-0.05c1.28-0.2,2.51-0.92,3.37-2
										c0,0,0.07-0.08,0.18-0.24l0.46-0.63c0.41-0.52,0.88-1.28,1.42-2.17l0.12-0.19c1.18-2.02,2.32-4.71,3.13-7.39
										c0.06-0.22,0.13-0.44,0.2-0.65c0.13-0.46,0.27-0.92,0.39-1.39l0.66-2.9l0.51-3.02l0.34-2.89l0.03-0.49l-9.43-0.91
										L9.36-42.57z M17.96-38.93l-0.54,3.24l-0.65,2.89c-0.12,0.44-0.25,0.89-0.38,1.35c-0.07,0.21-0.13,0.43-0.2,0.66
										c-0.8,2.64-1.93,5.28-3.08,7.26L13-23.35c-0.54,0.86-1,1.62-1.39,2.12l-0.47,0.64c-0.09,0.13-0.15,0.21-0.16,0.21
										c-0.78,0.97-1.88,1.62-3.02,1.8c-0.17,0.03-0.33,0.04-0.49,0.04c-0.63,0.02-1.19-0.12-1.68-0.39
										C5.31-19.2,4.92-19.6,4.64-20.1c-0.26-0.47-0.47-0.98-0.63-1.58c-0.14-0.51-0.23-1.03-0.25-1.52
										c-0.06-1.04,0.15-1.82,0.65-2.42c0,0,0.04-0.05,0.12-0.16l0.28-0.39c0.21-0.26,0.44-0.63,0.71-1.06
										c0.1-0.16,0.2-0.33,0.32-0.51c0.84-1.44,1.71-3.52,2.33-5.55c0.06-0.21,0.12-0.42,0.18-0.62c0.1-0.33,0.2-0.67,0.29-1.01
										l0.49-2.17l0.41-2.37l0.35-2.83l8.35,0.82L17.96-38.93z"/>
								</g>
								<path class="st5" d="M3.68-21.19l0.07,0.1c0,0,0.05-0.03,0.19-0.12c0.13-0.08,0.31-0.21,0.55-0.4
									c0.47-0.37,1.14-0.96,1.83-1.79c0.36-0.4,0.7-0.9,1.08-1.4c0.19-0.25,0.35-0.54,0.53-0.81c0.18-0.29,0.37-0.56,0.53-0.88
									c0.32-0.61,0.68-1.23,0.96-1.92c0.15-0.33,0.3-0.68,0.45-1.01c0.15-0.34,0.26-0.71,0.39-1.05c0.13-0.36,0.26-0.71,0.39-1.05
									c0.13-0.36,0.22-0.72,0.33-1.07c0.2-0.71,0.43-1.41,0.57-2.1c0.16-0.69,0.31-1.37,0.46-2c0.11-0.64,0.21-1.25,0.3-1.81
									c0.21-1.12,0.3-2.07,0.37-2.74c0.08-0.66,0.11-1.04,0.11-1.04l-3.16-0.3c-0.02,0.06-0.02,0.11-0.03,0.17
									c0,0-0.03,0.29-0.09,0.81c-0.03,0.26-0.07,0.57-0.1,0.92c-0.03,0.18-0.04,0.37-0.06,0.57c-0.04,0.2-0.07,0.41-0.11,0.62
									c-0.07,0.43-0.15,0.89-0.23,1.39c-0.04,0.25-0.09,0.5-0.13,0.76c-0.06,0.25-0.11,0.51-0.17,0.77
									c-0.11,0.52-0.25,1.07-0.37,1.62c-0.14,0.54-0.32,1.07-0.47,1.62c-0.66,2.15-1.52,4.14-2.3,5.48
									c-0.41,0.65-0.73,1.21-1,1.54c-0.12,0.17-0.22,0.3-0.29,0.41c-0.06,0.08-0.11,0.13-0.11,0.13c-0.59,0.72-0.89,1.5-0.98,2.3
									C3.13-22.72,3.27-21.93,3.68-21.19z"/>
								<polygon class="st6" points="17.22,-33.49 17.45,-34.53 8.7,-36.46 8.51,-35.59 								"/>
								<path class="st6" d="M16.97-32.45c0,0,0.04-0.14,0.07-0.26c0.03-0.14,0.06-0.27,0.06-0.27l-8.69-2.19c0,0-0.1,0.43-0.1,0.43
									L16.97-32.45z"/>
							</g>
							<g>
								<path class="st2" d="M7.2-31.85c0.36-0.88,1.04-1.59,2-2c0.97-0.42,2.13-0.58,3.31-0.28c1.19,0.3,2.16,1.01,2.7,1.98
									c0.54,0.96,0.74,2.17,0.28,3.34c-0.22,0.58-0.51,1.09-0.95,1.5c-0.43,0.41-0.92,0.72-1.44,0.91
									c-0.51,0.19-1.09,0.26-1.67,0.21c-0.56-0.05-1.13-0.23-1.67-0.5c-0.54-0.29-1-0.65-1.38-1.06C8-28.15,7.69-28.59,7.45-29.06
									c-0.23-0.47-0.37-0.93-0.41-1.4C7.02-30.91,7.03-31.4,7.2-31.85z"/>
								<path class="st3" d="M9.08-34.14c-1.02,0.44-1.77,1.19-2.17,2.18c-0.22,0.55-0.21,1.13-0.18,1.53
									c0.04,0.49,0.19,1,0.45,1.52c0.25,0.5,0.59,0.97,0.97,1.38c0.43,0.45,0.93,0.83,1.47,1.12c0.58,0.3,1.18,0.48,1.79,0.53
									c0.62,0.06,1.25-0.02,1.8-0.23c0.57-0.21,1.09-0.54,1.55-0.97c0.43-0.4,0.75-0.92,1.02-1.62c0.46-1.16,0.35-2.47-0.3-3.62
									c-0.58-1.03-1.63-1.8-2.89-2.12c-0.7-0.17-1.42-0.2-2.14-0.1C9.98-34.46,9.52-34.33,9.08-34.14z M11.47-26.5
									c-0.53-0.05-1.06-0.21-1.56-0.47c-0.49-0.25-0.92-0.59-1.3-0.99c-0.34-0.37-0.64-0.78-0.87-1.24
									c-0.22-0.44-0.35-0.87-0.38-1.28c-0.02-0.34-0.03-0.83,0.14-1.25c0.33-0.83,0.97-1.47,1.83-1.84
									c0.99-0.42,2.09-0.52,3.11-0.27c1.1,0.28,2.01,0.94,2.5,1.83c0.55,0.98,0.65,2.09,0.26,3.07c-0.24,0.61-0.52,1.05-0.88,1.39
									c-0.39,0.37-0.85,0.66-1.33,0.84c-0.21,0.08-0.43,0.14-0.66,0.17C12.05-26.49,11.76-26.48,11.47-26.5z"/>
							</g>
							<path class="st4" d="M8.3-31.38c0.12-0.34,0.33-0.64,0.59-0.88c0.24-0.26,0.55-0.47,0.9-0.62c0.7-0.31,1.56-0.4,2.42-0.15
								c0.86,0.24,1.54,0.78,1.94,1.48c0.2,0.35,0.33,0.74,0.38,1.15c0.03,0.41-0.03,0.84-0.19,1.24c-0.15,0.41-0.38,0.77-0.66,1.07
								c-0.3,0.28-0.66,0.51-1.04,0.65c-0.77,0.28-1.63,0.24-2.44-0.15c-0.8-0.38-1.4-1.03-1.74-1.7c-0.17-0.34-0.27-0.69-0.29-1.04
								C8.14-30.69,8.17-31.04,8.3-31.38z"/>
						</g>
						<g>
							<polygon class="st2" points="8.95,-43.14 19.2,-42.23 18.94,-39.89 8.72,-41.14 							"/>
							<path class="st3" d="M8.41-40.89l10.78,1.33l0.32-2.92L8.69-43.45L8.41-40.89z M18.69-40.2l-9.66-1.19l0.16-1.45l9.69,0.86
								L18.69-40.2z"/>
						</g>
					</g>
				</g>
				<g>
					<g>
						<g>
							<g>
								<path class="st2" d="M13.38-39.13c0,0,10.57,6.97,13.98-0.29c0,0-6.94-9.57-15.41-9.37c0,0-0.87,1.22-1.93,3.07
									c-1.19,2.08-0.73,3.05-0.73,3.05S10.8-40.63,13.38-39.13z"/>
								<path class="st3" d="M11.63-49.03c-0.04,0.04-0.9,1.26-1.95,3.11c-1.26,2.2-0.8,3.32-0.74,3.43
									c0.01,0.03,0.02,0.05,0.04,0.07c0.06,0.08,1.58,2.14,4.18,3.65c0.23,0.15,5.64,3.66,10.07,2.99
									c2.06-0.31,3.57-1.47,4.5-3.45c0.06-0.14,0.05-0.29-0.04-0.42c-0.29-0.39-7.18-9.73-15.75-9.54c-0.02,0-0.03,0-0.05,0.01
									C11.79-49.19,11.69-49.12,11.63-49.03z M23.1-36.6c-4.13,0.63-9.45-2.84-9.52-2.88c-2.26-1.31-3.68-3.09-3.92-3.39
									c-0.04-0.17-0.21-1.03,0.72-2.65c0.82-1.42,1.52-2.48,1.8-2.87c7.39-0.03,13.69,7.68,14.71,9.01
									C26.07-37.8,24.8-36.85,23.1-36.6z"/>
							</g>
						</g>
						<g>
							<g>
								<path class="st8" d="M18.42-40.36c2.16,1.18,5.49,3.03,8.09,2.28c0.31-0.38,0.6-0.82,0.84-1.34c0,0-6.94-9.57-15.41-9.37
									c0,0-0.88,1.12-1.57,2.24C12.27-43.7,15.26-42.08,18.42-40.36z"/>
								<path class="st3" d="M11.64-49.05c-0.03,0.05-0.9,1.15-1.6,2.28c-0.08,0.14-0.08,0.31,0.01,0.44
									c1.93,2.91,4.94,4.55,8.12,6.29l0.2,0.11c2.02,1.11,5.08,2.77,7.67,2.38c0.2-0.03,0.4-0.08,0.59-0.13
									c0.08-0.03,0.15-0.07,0.2-0.13c0.36-0.44,0.65-0.9,0.89-1.43c0.06-0.14,0.05-0.29-0.04-0.42
									c-0.29-0.39-7.18-9.73-15.75-9.54c-0.02,0-0.03,0-0.05,0.01C11.79-49.19,11.7-49.13,11.64-49.05z M26.28-38.44
									c-0.12,0.03-0.25,0.06-0.37,0.08c-2.32,0.36-5.24-1.23-7.16-2.29l-0.2-0.11c-3.01-1.64-5.86-3.19-7.69-5.81
									c0.49-0.77,1.06-1.53,1.29-1.83c7.4-0.03,13.7,7.68,14.73,9.01C26.71-39.04,26.51-38.73,26.28-38.44z"/>
							</g>
						</g>
					</g>
					<g>
						<g>
							<path class="st7" d="M26.81-39.14c0.47-0.15,0.79-0.49,0.79-1.19c0-0.78-0.76-1.46-1.27-1.97c-0.66-0.66-1.4-1.23-2.15-1.78
								c-2.34-1.73-4.83-3.33-7.47-4.56c-0.86-0.4-1.95-1.01-2.94-0.94c0,0-2.53,0.16-2.09,2.21c0.15,0.72,0.9,1.35,1.41,1.81
								c0.96,0.87,2,1.64,3.07,2.35c2.47,1.65,5.11,2.96,7.95,3.78C24.76-39.24,26-38.88,26.81-39.14z"/>
							<path class="st9" d="M11.55-48.92c-0.31,0.45-0.4,1-0.27,1.63c0.17,0.79,0.9,1.44,1.42,1.92l0.11,0.1
								c0.84,0.77,1.84,1.53,3.12,2.38c2.63,1.76,5.34,3.05,8.07,3.85c0.68,0.19,2.02,0.57,2.93,0.27c0.69-0.21,1.07-0.77,1.07-1.57
								c0-0.89-0.72-1.6-1.25-2.13l-0.14-0.12c-0.69-0.69-1.46-1.29-2.19-1.83c-2.72-2-5.18-3.5-7.54-4.6
								c-0.12-0.06-0.23-0.11-0.35-0.17c-0.81-0.39-1.83-0.87-2.79-0.82c-0.01,0-0.1,0.01-0.24,0.03l0,0
								C12.99-49.89,12.05-49.64,11.55-48.92z M24.23-39.82c-2.64-0.76-5.29-2.02-7.84-3.73c-1.25-0.83-2.21-1.57-3.03-2.31
								l-0.11-0.1c-0.45-0.4-1.05-0.95-1.17-1.48c-0.09-0.41-0.04-0.73,0.14-0.99c0.35-0.5,1.1-0.66,1.41-0.71
								c0.11-0.01,0.17-0.02,0.17-0.02c0.75-0.05,1.62,0.37,2.38,0.74c0.13,0.06,0.25,0.12,0.36,0.17c2.31,1.07,4.73,2.55,7.41,4.52
								c0.71,0.51,1.45,1.09,2.1,1.74l0.14,0.13c0.45,0.45,1.01,1,1.01,1.54c0,0.56-0.26,0.72-0.5,0.8
								c-0.07,0.02-0.14,0.03-0.21,0.04C25.77-39.37,24.77-39.66,24.23-39.82z"/>
						</g>
						<g>
							<path class="st10" d="M26.49-42.15c-0.97,0.9-2.02,1.71-3.09,2.49c0.24,0.08,0.47,0.16,0.71,0.22
								c0.65,0.19,1.89,0.56,2.7,0.29c0.47-0.15,0.79-0.49,0.79-1.19C27.6-41.04,26.99-41.66,26.49-42.15z"/>
							<path class="st10" d="M21.78-40.25c0.29,0.11,0.59,0.24,0.89,0.35c1.15-0.85,2.29-1.71,3.35-2.68
								c-0.2-0.18-0.42-0.36-0.63-0.54C24.24-42.1,23.02-41.16,21.78-40.25z"/>
							<path class="st10" d="M23.79-44.36c-1.26,1.16-2.59,2.23-3.94,3.27c0.4,0.19,0.82,0.38,1.23,0.56
								c1.31-0.96,2.6-1.93,3.81-3.01c-0.23-0.18-0.46-0.37-0.7-0.54C24.06-44.17,23.92-44.26,23.79-44.36z"/>
							<path class="st10" d="M17.72-42.24c0.5,0.29,1,0.57,1.51,0.83c1.38-1.07,2.74-2.16,4.03-3.33c-0.44-0.31-0.89-0.62-1.33-0.92
								C20.52-44.53,19.11-43.38,17.72-42.24z"/>
							<path class="st10" d="M16.96-44.65c-0.48,0.34-0.95,0.67-1.42,1c0.21,0.16,0.41,0.29,0.63,0.44
								c0.32,0.22,0.66,0.42,0.98,0.62c1.41-1.15,2.81-2.29,4.22-3.43c-0.53-0.34-1.05-0.67-1.59-0.99
								C18.82-46.23,17.93-45.36,16.96-44.65z"/>
							<path class="st10" d="M14.45-45.52c-0.24,0.16-0.49,0.32-0.74,0.48c0.42,0.34,0.84,0.68,1.27,0.99
								c0.55-0.39,1.1-0.77,1.64-1.17c0.89-0.65,1.71-1.43,2.56-2.15c-0.45-0.26-0.91-0.5-1.36-0.74
								C16.66-47.29,15.62-46.31,14.45-45.52z"/>
							<path class="st10" d="M15.87-49.04c-1.09,1.02-2.22,1.98-3.36,2.94c0.2,0.19,0.4,0.38,0.58,0.54
								c0.04,0.03,0.09,0.07,0.13,0.11c0.31-0.2,0.61-0.41,0.92-0.61c1.05-0.72,2.01-1.59,3.04-2.34c-0.15-0.07-0.3-0.15-0.45-0.22
								C16.45-48.77,16.16-48.91,15.87-49.04z"/>
							<path class="st10" d="M12.08-46.58c1.06-0.89,2.12-1.79,3.13-2.73c-0.48-0.19-0.97-0.31-1.44-0.27c0,0-2.53,0.16-2.09,2.21
								C11.74-47.1,11.89-46.83,12.08-46.58z"/>
						</g>
					</g>
				</g>
			</g>
			<g>
				<path class="st2" d="M13.99-15.39l-27.91,0.19c0,0-0.2-5.9,0.62-7.17c0.82-1.27,10.57-5.52,12.58-5.31l1.33,0
					c2.01-0.23,11.82,3.87,12.65,5.14C14.1-21.28,13.99-15.39,13.99-15.39z"/>
				<path class="st3" d="M0.78-27.92L0.78-27.92c-0.07,0-0.14,0-0.19,0.01l-1.31,0.01c-0.03-0.01-0.1-0.01-0.17-0.01
					c-2.32,0.02-11.74,4.07-12.6,5.42c-0.84,1.32-0.66,7.06-0.65,7.31l0,0.21l28.35-0.19l0-0.22c0-0.24,0.1-5.98-0.76-7.29
					C12.58-24.01,3.1-27.94,0.78-27.92z M0.62-27.47c0.07-0.01,0.12,0,0.17-0.01c2.39-0.01,11.57,3.94,12.3,5.05
					c0.62,0.95,0.71,5.04,0.69,6.81l-27.48,0.19c-0.04-1.76-0.01-5.86,0.6-6.82c0.71-1.12,9.83-5.2,12.22-5.21c0.05,0,0.1,0,0.14,0
					L0.62-27.47z"/>
			</g>
			<path class="st11" d="M-6.61-23.12c2.9-0.5,5.9-0.69,8.84-0.56c3.94,0.16,7.97,0.92,11.49,2.69c0.34,2.19,0.27,5.61,0.27,5.61
				l-27.91,0.19c0,0-0.11-3.3,0.18-5.5C-11.61-22.03-9.06-22.7-6.61-23.12z"/>
			<g>
				<path class="st2" d="M13.01-3.38C9.92,3.26,2.91,5.59,2.91,5.59l-5.87,0.04c0,0-7.03-2.24-10.21-8.83
					c-3.18-6.6-6.23-16.12,5.7-18.75c0,0,1.75-0.49,4.54-0.77c0,0,1.85-0.21,2.71-0.19c0.86-0.03,2.72,0.15,2.72,0.15
					c2.8,0.24,4.55,0.71,4.55,0.71C19.01-19.58,16.1-10.02,13.01-3.38z"/>
				<path class="st3" d="M-0.05-23.11L-0.05-23.11c-0.06,0-0.12,0-0.17,0c-0.04,0-0.1,0-0.16,0c-0.91,0-2.5,0.18-2.57,0.19
					c-2.78,0.29-4.56,0.77-4.58,0.79c-3.99,0.87-6.65,2.62-7.88,5.16c-2.08,4.29,0.17,9.97,2.06,13.87
					c3.18,6.59,10.27,8.92,10.33,8.94l0.06,0L2.98,5.8c0.07-0.02,7.12-2.45,10.21-9.09c1.83-3.93,4.01-9.64,1.86-13.89
					c-1.27-2.53-3.95-4.24-7.96-5.06c-0.01-0.01-1.8-0.47-4.58-0.72C2.45-22.97,0.85-23.12-0.05-23.11z M-0.22-22.69l0.17-0.01l0,0
					c0.89-0.01,2.51,0.14,2.53,0.15c2.75,0.24,4.51,0.7,4.52,0.71c3.89,0.8,6.47,2.43,7.69,4.84c2.06,4.1-0.08,9.68-1.87,13.53
					C9.9,2.79,3.38,5.21,2.88,5.4l-5.8,0.04c-0.51-0.18-7.07-2.51-10.06-8.72c-1.84-3.82-4.06-9.37-2.06-13.51
					c1.18-2.42,3.75-4.09,7.61-4.94c0.02-0.01,1.78-0.49,4.52-0.77c0.02-0.01,1.64-0.18,2.53-0.19L-0.22-22.69z"/>
			</g>
			<path class="st5" d="M6,4.11C4.24,5.15,2.91,5.59,2.91,5.59l-5.87,0.04c0,0-0.89-0.28-2.17-0.94l-0.18-27.1
				c0.66-0.11,1.47-0.23,2.38-0.32c0,0,1.85-0.21,2.71-0.19c0.86-0.03,2.72,0.15,2.72,0.15c1.39,0.13,2.52,0.3,3.31,0.44L6,4.11z"/>
			<path class="st12" d="M15.53-12.03c-0.04,0.26-0.09,0.52-0.14,0.78l-31.05,0.21c-0.06-0.26-0.1-0.52-0.15-0.78L15.53-12.03z"/>
			<g>
				<g>
					<g>
						<path class="st2" d="M-18.64,18.52c-0.02-2.48-2.03-4.46-4.51-4.45l0,0c-2.48,0.02-4.47,2.04-4.45,4.51l0.06,9.52
							c0.01,2.48,2.04,4.46,4.51,4.45l0,0c2.48-0.02,4.47-2.03,4.45-4.51L-18.64,18.52z"/>
						<path class="st3" d="M-23.15,13.85c-2.59,0.01-4.69,2.14-4.67,4.73l0.07,9.52c0.02,2.59,2.14,4.69,4.73,4.67
							c2.6-0.02,4.69-2.14,4.67-4.74l-0.06-9.52C-18.43,15.92-20.55,13.83-23.15,13.85z M-23.02,32.32
							c-2.35,0.02-4.27-1.87-4.29-4.22l-0.06-9.52c-0.01-2.35,1.88-4.27,4.23-4.28c2.35-0.01,4.26,1.88,4.28,4.22l0.07,9.53
							C-18.78,30.39-20.68,32.31-23.02,32.32z"/>
					</g>
					<path class="st13" d="M-19.63,19.6c-0.02-1.92-1.59-3.46-3.5-3.45l0,0c-1.92,0.02-3.46,1.57-3.45,3.5l0.05,7.38
						c0.02,1.92,1.58,3.46,3.5,3.44l0,0c1.92-0.01,3.46-1.57,3.45-3.49L-19.63,19.6z"/>
					<path class="st14" d="M-22.38,25.93c-0.01-0.91-0.75-1.64-1.66-1.63c-0.91,0.01-1.64,0.75-1.63,1.66
						c0.01,0.9,0.74,1.64,1.65,1.63C-23.1,27.58-22.37,26.84-22.38,25.93z"/>
					<path class="st15" d="M-22.41,21.57c-0.01-0.91-0.75-1.64-1.66-1.63c-0.91,0.01-1.64,0.75-1.63,1.66
						c0.01,0.91,0.75,1.64,1.65,1.63C-23.13,23.21-22.4,22.48-22.41,21.57z"/>
				</g>
				<g>
					<g>
						<path class="st2" d="M21.4,18.24c-0.02-2.48,1.98-4.49,4.45-4.51l0,0c2.47-0.02,4.5,1.97,4.51,4.45l0.06,9.52
							c0.02,2.48-1.98,4.5-4.45,4.51l0,0c-2.47,0.02-4.49-1.97-4.51-4.45L21.4,18.24z"/>
						<path class="st3" d="M25.84,13.51c-2.59,0.02-4.69,2.15-4.67,4.74l0.07,9.52c0.01,2.59,2.14,4.69,4.74,4.67
							c2.6-0.02,4.69-2.14,4.68-4.73l-0.07-9.52C30.56,15.59,28.44,13.49,25.84,13.51z M25.97,31.98c-2.34,0.02-4.26-1.87-4.28-4.22
							l-0.07-9.53c-0.02-2.34,1.88-4.26,4.22-4.28c2.35-0.01,4.28,1.88,4.29,4.23l0.06,9.52C30.22,30.06,28.32,31.97,25.97,31.98z"
							/>
					</g>
					<path class="st13" d="M22.41,19.31c-0.01-1.92,1.53-3.48,3.45-3.49l0,0c1.92-0.01,3.48,1.53,3.49,3.45l0.05,7.38
						c0.02,1.92-1.53,3.48-3.45,3.5l0,0c-1.91,0.02-3.48-1.52-3.49-3.45L22.41,19.31z"/>
					<path class="st14" d="M25.24,25.6c0-0.9,0.73-1.65,1.63-1.65c0.9-0.01,1.65,0.72,1.65,1.63c0.01,0.91-0.73,1.65-1.63,1.65
						C25.99,27.24,25.25,26.51,25.24,25.6z"/>
					<path class="st15" d="M25.21,21.24c0-0.91,0.73-1.65,1.64-1.66c0.9-0.01,1.65,0.73,1.65,1.64c0.01,0.91-0.73,1.64-1.63,1.65
						C25.96,22.88,25.22,22.15,25.21,21.24z"/>
				</g>
				<g>
					<g>
						<path class="st2" d="M26.27,22.27C26.17,7.16,15,2.23,1.27,2.32c-13.73,0.09-24.83,5.19-24.73,20.29
							c0.1,15.1,11.32,27.26,25.05,27.16C15.33,49.68,26.37,37.37,26.27,22.27z"/>
						<path class="st3" d="M1.27,2.1c-11.44,0.08-25.06,3.7-24.95,20.52C-23.58,37.81-12.24,50.09,1.6,50
							c13.83-0.1,25-12.54,24.89-27.74C26.38,5.45,12.71,2.02,1.27,2.1z M1.6,49.54c-13.59,0.09-24.73-11.98-24.83-26.94
							C-23.35,6.16-9.97,2.62,1.27,2.54c11.24-0.08,24.66,3.28,24.77,19.72C26.15,37.22,15.18,49.45,1.6,49.54z"/>
					</g>
					<g>
						<path class="st2" d="M12.28,43.14c-0.02-3.11-4.93-4.12-10.98-4.08c-6.05,0.05-10.94,1.11-10.92,4.23
							c0.02,3.11,4.94,5.6,10.98,5.56C7.41,48.8,12.3,46.24,12.28,43.14z"/>
						<path class="st8" d="M1.29,38.84c-7.31,0.05-11.16,1.59-11.14,4.45c0.03,3.23,5.05,5.82,11.21,5.78
							c6.16-0.05,11.16-2.7,11.13-5.94C12.48,40.27,8.61,38.79,1.29,38.84z M1.36,48.62c-5.91,0.04-10.74-2.36-10.76-5.34
							c-0.02-3.24,5.8-3.96,10.7-4c4.9-0.03,10.73,0.61,10.76,3.85C12.07,46.11,7.28,48.57,1.36,48.62z"/>
					</g>
					<path class="st13" d="M21.44,30.43C19.6,38.3,2,38.43,2,38.43l-0.75,0c0,0-17.6,0.12-19.54-7.72c0,0-1.62-11.85,1.99-20.03
						c0,0,4.06-5.11,17.7-4.8c13.63-0.49,17.76,4.56,17.76,4.56C22.89,18.56,21.44,30.43,21.44,30.43z"/>
					<path class="st13" d="M-18.47,20.23c0.26-3.17,0.88-6.6,2.18-9.55c0,0,4.06-5.11,17.7-4.8c13.63-0.49,17.76,4.56,17.76,4.56
						c1.34,2.93,2,6.35,2.31,9.52L-18.47,20.23z"/>
					<path class="st16" d="M19.93,30.2c-1.69,7.27-17.96,7.38-17.96,7.38l-0.69,0.01c0,0-16.26,0.11-18.06-7.13
						c0,0-1.49-10.95,1.84-18.52c0,0,3.75-4.72,16.36-4.44c12.6-0.46,16.41,4.21,16.41,4.21C21.27,19.23,19.93,30.2,19.93,30.2z"/>
				</g>
			</g>
			<path class="st17" d="M10.03-14.88c-0.02-2.93-2.41-5.28-5.33-5.26l-9.24,0.07c-2.92,0.02-5.28,2.41-5.26,5.33l0.06,9.25
				c0.02,2.92,2.41,5.28,5.33,5.25l9.24-0.07c2.93-0.01,5.28-2.4,5.26-5.32L10.03-14.88z"/>
			<g>
				<path class="st2" d="M9.24-14.51c-0.02-2.69-2.22-4.86-4.9-4.84l-8.51,0.06c-2.69,0.02-4.86,2.22-4.84,4.9l0.06,8.51
					c0.02,2.7,2.22,4.86,4.9,4.84L4.47-1.1C7.16-1.11,9.33-3.31,9.3-6L9.24-14.51z"/>
				<path class="st17" d="M7.28-4.49C7.27-5.92,6.11-7.06,4.69-7.05l-8.81,0.06c-1.42,0.01-2.57,1.17-2.56,2.6l0,0
					c0.02,1.42,1.18,2.57,2.59,2.56L4.72-1.9C6.15-1.91,7.3-3.07,7.28-4.49L7.28-4.49z"/>
				<path class="st18" d="M6.51-4.49C6.51-5.74,5.48-6.74,4.23-6.74l-7.75,0.05c-1.25,0.01-2.26,1.03-2.25,2.28l0,0
					c0.01,1.26,1.03,2.26,2.28,2.26l7.75-0.06C5.51-2.22,6.52-3.23,6.51-4.49L6.51-4.49z"/>
				<path class="st18" d="M2.74-4.28C2.74-5.03,2.12-5.65,1.37-5.64l-4.69,0.04c-0.76,0-1.37,0.62-1.36,1.38l0,0
					c0.01,0.76,0.62,1.37,1.38,1.37L1.38-2.9C2.14-2.9,2.75-3.52,2.74-4.28L2.74-4.28z"/>
				<path class="st6" d="M-2.43-10.62c-0.01-1.21-0.99-2.18-2.2-2.17c-1.2,0.01-2.17,0.99-2.17,2.2c0.01,1.21,0.99,2.18,2.2,2.17
					C-3.39-8.43-2.42-9.42-2.43-10.62z"/>
				<path class="st19" d="M-3.31-10.53c0-0.73-0.59-1.31-1.32-1.3c-0.72,0.01-1.3,0.59-1.3,1.32c0.01,0.72,0.59,1.3,1.32,1.3
					C-3.88-9.21-3.31-9.8-3.31-10.53z"/>
				<path class="st16" d="M-2.61-16.25c-0.01-1.13-0.93-2.04-2.06-2.03c-1.12,0.01-2.03,0.93-2.03,2.06
					c0.01,1.12,0.93,2.04,2.06,2.03C-3.51-14.2-2.6-15.12-2.61-16.25z"/>
				<g>
					<path class="st6" d="M5.75-10.48c-0.01-0.74-0.61-1.34-1.35-1.33c-0.74,0.01-1.34,0.61-1.34,1.35
						c0.01,0.74,0.61,1.34,1.36,1.34C5.15-9.13,5.75-9.74,5.75-10.48z"/>
					<path class="st20" d="M5.76-10.64c0-0.61-0.5-1.1-1.11-1.1c-0.61,0-1.11,0.5-1.11,1.11c0,0.61,0.51,1.1,1.12,1.1
						C5.27-9.53,5.76-10.03,5.76-10.64z"/>
					<path class="st21" d="M5.99-16.62c-0.01-0.86-0.72-1.56-1.58-1.55c-0.87,0-1.57,0.71-1.56,1.57c0.01,0.87,0.71,1.56,1.58,1.56
						C5.29-15.05,5.99-15.75,5.99-16.62z"/>
					<path class="st20" d="M5.52-16.63c-0.01-0.61-0.51-1.11-1.11-1.1c-0.61,0-1.1,0.5-1.1,1.11c0,0.62,0.51,1.11,1.11,1.1
						C5.04-15.52,5.53-16.02,5.52-16.63z"/>
					<g>
						<path class="st22" d="M9.15-12.91c-0.01,0.13-0.02,0.26-0.04,0.38l-0.12,0.39c-0.06,0.25-0.22,0.47-0.35,0.71
							c-0.15,0.2-0.32,0.4-0.5,0.56C7.41-10.23,6.63-10,6-9.85C5.51-9.73,5.09-9.69,4.75-9.66c-0.29-0.16-0.54-0.37-0.62-0.67
							c-0.1-0.43-0.01-0.82,0.23-1.12c0.3-0.01,0.72-0.04,1.23-0.16c0.47-0.1,0.99-0.3,1.33-0.6c0.34-0.3,0.45-0.66,0.42-1.27
							c-0.04-0.62-0.24-1.09-0.58-1.41c-0.32-0.33-0.82-0.51-1.29-0.63c-0.41-0.09-0.79-0.12-1.08-0.14
							c-0.41-0.38-0.68-0.94-0.32-1.45c0.13-0.18,0.28-0.29,0.46-0.36c0.35,0.02,0.8,0.05,1.35,0.18c0.64,0.15,1.45,0.41,2.14,1.08
							c0.71,0.66,1.09,1.7,1.13,2.58l0.02,0.34C9.18-13.17,9.17-13.04,9.15-12.91z"/>
						<g>
							<path class="st23" d="M4.13-10.33c-0.1-0.43-0.01-0.82,0.23-1.12c0.08,0,0.13,0,0.13,0l0.09,1.69
								C4.37-9.91,4.2-10.09,4.13-10.33z"/>
							<path class="st23" d="M5.71-9.79c0,0-0.12,0.02-0.25,0.05C5.33-9.72,5.21-9.71,5.21-9.71l-0.22-1.8c0,0,0.1-0.01,0.2-0.02
								c0.1-0.02,0.19-0.03,0.19-0.03L5.71-9.79z"/>
							<path class="st23" d="M7.04-10.18c0,0-0.04,0.01-0.11,0.04c-0.07,0.03-0.16,0.06-0.24,0.1C6.52-9.98,6.33-9.92,6.33-9.92
								l-0.48-1.75c0,0,0.12-0.04,0.24-0.08c0.06-0.01,0.12-0.03,0.16-0.06c0.04-0.02,0.07-0.03,0.07-0.03L7.04-10.18z"/>
							<path class="st23" d="M8.14-10.87c0,0-0.12,0.09-0.24,0.19c-0.12,0.1-0.25,0.17-0.25,0.17l-0.97-1.53
								c0.01,0.01,0.24-0.19,0.24-0.19L8.14-10.87z"/>
							<path class="st23" d="M9.03-12.26c0,0-0.02,0.05-0.04,0.13c-0.03,0.07-0.05,0.19-0.11,0.28c-0.1,0.2-0.22,0.4-0.22,0.4
								l-1.51-1.02c0,0,0.04-0.08,0.08-0.14c0.05-0.08,0.05-0.18,0.06-0.17L9.03-12.26z"/>
							<path class="st23" d="M9.16-13.58c0,0,0.01,0.13,0.02,0.27c0.01,0.06,0,0.15-0.01,0.2c0,0.06,0,0.1,0,0.1l-1.81-0.11
								c0-0.01,0.01-0.07,0.01-0.16c0-0.09-0.01-0.18-0.01-0.18L9.16-13.58z"/>
							<path class="st23" d="M8.84-15.03c0.03,0,0.26,0.76,0.23,0.76L7.3-13.9c0.01-0.01-0.12-0.44-0.13-0.42L8.84-15.03z"/>
							<path class="st23" d="M8.09-16.15c0,0,0.03,0.03,0.07,0.06c0.04,0.05,0.09,0.11,0.14,0.17c0.1,0.12,0.18,0.24,0.18,0.24
								l-1.49,1.03c0,0-0.18-0.24-0.19-0.22L8.09-16.15z"/>
							<path class="st23" d="M6.82-16.99c0-0.02,0.7,0.34,0.7,0.37l-1.01,1.51c0.01-0.01-0.39-0.22-0.4-0.22L6.82-16.99z"/>
							<path class="st23" d="M5.67-17.34c0,0,0.13,0.03,0.26,0.06c0.13,0.02,0.26,0.06,0.26,0.06l-0.49,1.74
								c0,0-0.09-0.02-0.18-0.04c-0.09-0.03-0.19-0.05-0.19-0.05L5.67-17.34z"/>
							<path class="st23" d="M4.4-15.68c-0.04-0.02-0.08-0.06-0.11-0.1l0.06-1.61c0.06-0.04,0.12-0.06,0.18-0.1
								c0.05,0.01,0.1,0.01,0.17,0.01c0.17,0.02,0.34,0.04,0.34,0.04l-0.2,1.8c0,0-0.14-0.02-0.28-0.02
								C4.51-15.66,4.45-15.67,4.4-15.68z"/>
						</g>
					</g>
					<path class="st8" d="M5.74-11.26c0.12,0,2.72-0.47,1.96-2.85c0,0-0.12-1.38-2.29-1.7c0,0,2.91,0.02,2.86,2.48
						C8.21-10.86,5.74-11.26,5.74-11.26z"/>
				</g>
				<path class="st24" d="M-3.35-16.31c-0.01-0.72-0.59-1.3-1.31-1.3c-0.73,0-1.3,0.59-1.3,1.31c0,0.71,0.59,1.31,1.32,1.3
					C-3.93-15-3.35-15.6-3.35-16.31z"/>
			</g>
		</g>
	</g>
	<g>
		<g>
			<defs>
				<path id="SVGID_1_" d="M19.27,30.27c-1.69,7.27-17.96,7.38-17.96,7.38l-0.69,0.01c0,0-16.26,0.11-18.06-7.13
					c0,0-1.49-10.95,1.84-18.52c0,0,3.75-4.72,16.36-4.43c12.6-0.46,16.42,4.21,16.42,4.21C20.62,19.3,19.27,30.27,19.27,30.27z"/>
			</defs>
			<clipPath id="SVGID_00000068671850825437038720000009690721924670449049_">
				<use xlink:href="#SVGID_1_"  style="overflow:visible;"/>
			</clipPath>
			<g style="clip-path:url(#SVGID_00000068671850825437038720000009690721924670449049_);">
				<g>
					<path class="st26" d="M24.86,22.15c-0.4,0.92-0.97,1.76-1.74,2.42c-1.04,0.88-2.44,1.51-3.87,1.72c0-0.79-0.17-1.59-0.32-2.34
						c-0.28-1.4-0.68-2.78-1.12-4.14c-0.45-1.39-0.92-2.78-1.42-4.15c-0.51-1.4-2.06-3.38-2.46-4.82c-0.67-2.44-0.91-5.63,2.12-8.89
						c0.24,0,0.57,0.02,0.79,0.06C16.81,2.08,16,4.18,16.05,4.07c0.4-0.75,1.94-1.81,2.11-1.77c0.39,0.12,0.92,0.31,1.3,0.45
						c-0.32,0.41-0.84,1.42-0.77,1.34c0.34-0.47,1.97-0.86,2.33-0.68c0.29,0.15,0.58,0.3,0.87,0.47c-0.51,0.52-1.41,3.01-1,4.39
						c0.04,0.12-0.16-2.3,2.39-3.5c0.21,0.15,0.42,0.31,0.62,0.48c-0.38,0.43-0.69,0.91-0.84,1.49c-0.26,1-0.04,2.19,0.22,3.17
						c0.63,2.39,1.95,4.62,2.24,7.1c0.02,0.21,0.04,0.42,0.05,0.64c0,0.36-0.02,0.72-0.04,1.09C25.47,19.85,25.26,21.05,24.86,22.15
						z"/>
					<path class="st27" d="M24.86,22.15c-0.36,0.85-0.87,1.62-1.55,2.24c0.58-0.84,1.06-1.72,1.26-2.75
						c0.46-2.32-0.39-4.55-1.61-6.5c-0.06-0.1-0.25-0.06-0.21,0.08c0.26,1,0.37,2.02,0.22,3.04c-0.49-1.8-1.44-3.39-2.21-5.09
						c-0.85-1.86-1.3-3.75-1.2-5.81c0-0.1-0.15-0.17-0.2-0.07c-1.05,1.94-0.82,4.15-0.33,6.21c-1.14-1.64-1.97-3.62-1.82-5.64
						c0.01-0.13-0.18-0.17-0.22-0.04c-0.57,1.63-0.04,3.26,0.53,4.81c0.63,1.73,1.38,3.42,1.98,5.17c0.61,1.78,1.19,3.69,1.18,5.59
						c0,0.16-0.11,1.74-0.38,2.66c-0.34,0.1-0.7,0.18-1.05,0.23c0-0.79-0.17-1.59-0.32-2.34c-0.28-1.4-0.68-2.78-1.12-4.14
						c-0.45-1.39-0.92-2.78-1.42-4.15c-0.51-1.4-2.06-3.38-2.46-4.82c-0.67-2.44-0.91-5.63,2.12-8.89c0.24,0,0.57,0.02,0.79,0.06
						C16.81,2.08,16,4.18,16.05,4.07c0.4-0.75,1.94-1.81,2.11-1.77c0.39,0.12,0.92,0.31,1.3,0.45c-0.32,0.41-0.84,1.42-0.77,1.34
						c0.34-0.47,1.97-0.86,2.33-0.68c0.29,0.15,0.58,0.3,0.87,0.47c-0.51,0.52-1.41,3.01-1,4.39c0.04,0.12-0.16-2.3,2.39-3.5
						c0.21,0.15,0.42,0.31,0.62,0.48c-0.38,0.43-0.69,0.91-0.84,1.49c-0.26,1-0.04,2.19,0.22,3.17c0.63,2.39,1.95,4.62,2.24,7.1
						c0.02,0.21,0.04,0.42,0.05,0.64c0,0.36-0.02,0.72-0.04,1.09C25.47,19.85,25.26,21.05,24.86,22.15z"/>
					<path class="st28" d="M19.48,27.54c0,0,2.49-0.25,2.62-2.02c0.12-1.77-1.71-6.07-5.19-7.6L19.48,27.54z"/>
					<path class="st28" d="M20.03,24.74c-0.15,0.9-0.15,1.85-0.28,2.76c-0.17,0.03-0.27,0.04-0.27,0.04l-2.57-9.62
						c2.02,0.89,3.48,2.71,4.33,4.42C20.49,22.87,20.18,23.83,20.03,24.74z"/>
					<g>
						<path class="st29" d="M-11.14,20.52c0,0-1.25,3.25-3.85,1.53c-2.6-1.71-1.23-8.26,3.99-7.65L-11.14,20.52z"/>
						<path class="st30" d="M-14.68,20.43c0.41,0.39,1.08-0.13,1.36-0.42c1.05-1.05,1.35-3.15,1.09-4.52
							c-0.01-0.07-0.13,0.02-0.13,0.06c-0.01,0.69-0.06,1.41-0.19,2.09c-0.31-0.55-1.14-0.97-1.65-0.63
							c-0.03,0.02-0.05,0.09,0.01,0.06c0.29-0.11,0.76,0.17,0.97,0.33c0.29,0.23,0.42,0.51,0.56,0.82
							c-0.05,0.17-0.09,0.35-0.15,0.52c-0.18,0.57-1.09,2.18-1.88,1.23c-0.24-0.3-0.32-0.78-0.41-1.14
							c-0.01-0.04-0.08,0.01-0.08,0.04C-15.15,19.44-15.12,20.02-14.68,20.43z"/>
						<path class="st31" d="M-15.03,15.88c-0.01,0-0.02-0.01-0.04-0.01c0.88-1.02,2.23-1.68,4.06-1.46l-0.13,6.11
							c0,0-1.12,2.92-3.46,1.76c1.03-0.25,2.08-1.49,2.34-2.5c0.03-0.13-0.16-0.23-0.23-0.1c-0.65,1.15-2.15,1.66-2.73,0.18
							c-0.37-0.94-0.22-2.18,0.24-3.07C-14.87,16.56-14.62,15.99-15.03,15.88z M-14.21,16.48c0.25,0.26,0.72,0.32,1.04,0.45
							c0.03,0.01,0.06,0.01,0.09,0c0.05,0.03,0.09,0.06,0.14,0.08c0.07,0.04,0.17,0.01,0.19-0.07c0.17-0.66-0.25-1.83-1.11-1.29
							C-14.15,15.82-14.5,16.18-14.21,16.48z"/>
					</g>
					<path class="st32" d="M-4.48,41.55c-1.13-0.32-2.26-0.71-3.34-1.18c-0.53-0.26-1.05-0.55-1.54-0.88
						c-5.1-3.35-8.2-9.59-6.39-15.61c0.35-1.16,1.34-2.39,1.9-3.47c0.16-0.31,1.42-2.29,1.75-2.48C-12.09,17.94,5.24,8.8,5.24,8.8
						c6.37,1.21,14.37,3.92,14.83,16.59C20.47,36.29,6.27,44.05-4.48,41.55z"/>
					<path class="st27" d="M13.84,37.21c0.49-0.62,0.92-1.29,1.29-1.99c1.35-2.52,2.07-5.54,1.44-8.38
						c-0.02-0.1-0.18-0.12-0.22-0.02c-0.88,2.52-2.02,5.05-3.96,6.91c0.62-0.94,1.19-1.91,1.64-2.94c0.51-1.15,0.95-2.44,0.72-3.71
						c-0.02-0.1-0.15-0.12-0.2-0.04c-0.96,1.26-1.59,2.71-2.46,4.02c-0.86,1.28-2.01,2.36-3.24,3.29c-2.48,1.87-5.33,3.16-8.4,3.68
						c-4.56,0.78-9.58,0.29-13.63-2.04c-2.66-3.39-3.87-7.8-2.57-12.1c0.35-1.16,1.34-2.39,1.9-3.47c0.16-0.31,1.42-2.29,1.75-2.48
						C-12.09,17.94,5.24,8.8,5.24,8.8c6.37,1.21,14.37,3.92,14.83,16.59C20.24,30.11,17.67,34.24,13.84,37.21z"/>
					<path class="st29" d="M13.37,21.9c0.09,1.75,0.48,3.41,0.63,5.14c0.27,3.26-0.84,6.29-2.95,8.62c-1.81,2-4.03,3.06-6.52,3.79
						c-2.71,0.79-5.48,0.3-8.15-0.43c-2.29-0.63-4.48-1.97-6.25-3.62c-0.96-0.89-1.64-1.95-2.2-3.15c-0.26-0.55-0.52-1.08-0.7-1.62
						c0,0,0-0.01-0.01-0.01c-0.63-1.29-0.56-2.79-0.46-4.2c0.27-1.29,0.52-2.59,0.7-3.89c0.14-0.98,0.33-1.96,0.44-2.93
						c0.1-0.87,0.03-1.67-0.11-2.53c-0.38-2.45-1.47-4.98,0.87-6.66c0.93-0.67,2.45-1.56,3.49-2.04c1.34-0.61,2.8-1.29,4.25-1.5
						c1.3-0.18,2.53-0.06,3.83,0.25c2.94,0.7,5.73,1.71,8.32,3.49c2.38,1.64,3.85,3.43,4.38,6.31
						C13.22,18.55,13.29,20.25,13.37,21.9z"/>
					<path class="st33" d="M-0.71,21.39c0.83,0.28,1.68,0.58,2.56,0.57c1.28,0,2.63-0.14,3.78-0.73c-0.99,1-2.46,1.53-3.86,1.52
						c-1.4-0.01-2.66-0.67-3.57-1.68C-1.45,21.25-1.01,21.29-0.71,21.39z"/>
					<path class="st33" d="M-7.35,21.9c-0.56,0.39-1.18,0.63-1.86,0.37c-0.33-0.13-0.74-0.42-1.02-0.63
						c0.66,0.19,1.62,0.05,2.21-0.18c0.53-0.21,2.01-1.17,2.3-1.39C-6.11,20.79-6.66,21.43-7.35,21.9z"/>
					<path class="st33" d="M-10.35,18.87c0.09-0.9,0.59-1.8,0.98-2.58c0.74-1.48,4.03-1.42,4.1-0.67c0.13,1.37,0.07,3.61-1.06,4.58
						C-7.72,21.4-9.58,20.33-10.35,18.87z"/>
					<path class="st33" d="M4.2,20.56c-0.69,0.35-1.46,0.51-2.28,0.37c-1.26-0.21-2.19-1.19-2.63-2.35
						c-0.39-1.03-0.39-2.08-0.18-3.13c1-0.48,2.3-0.48,3.35-0.37c1.35,0.14,2.6,0.73,3.94,0.43c-0.17,0.41-0.79,0.48-1.17,0.61
						c-0.08,0.03-0.07,0.12-0.04,0.17c0.55,0.79,0.82,1.73,0.38,2.65C5.27,19.58,4.82,20.18,4.2,20.56z"/>
					<path class="st33" d="M11.04,35.66c-1.81,2-4.03,3.06-6.52,3.79c-2.71,0.79-5.48,0.3-8.15-0.43c-2.29-0.63-4.48-1.97-6.25-3.62
						c-0.96-0.89-1.64-1.95-2.2-3.15c-0.26-0.55-0.52-1.08-0.7-1.62c0,0,0-0.01-0.01-0.01c-0.63-1.29-0.56-2.79-0.46-4.2
						c0.27-1.29,0.52-2.59,0.7-3.89c0.14-0.98,0.33-1.96,0.44-2.93c0.1-0.87,0.03-1.67-0.11-2.53c-0.31-2-1.09-4.06-0.1-5.66
						c-0.01,0.02-0.01,0.03-0.02,0.05c-0.67,1.52-0.06,3.1,0.34,4.62c0.3,1.16,0.52,2.33,0.38,3.53c-0.12,1.06-0.29,3.03,0.8,3.62
						c7.6,4.12,17.18-0.57,17.99-1.44c0.42-0.45,2.38-7.07,1.96-8.56c-0.4-1.39-0.96-2.46-2.05-3.4C6.96,9.7,6.81,9.59,6.67,9.47
						c0.63,0.34,1.26,0.72,1.88,1.14c2.38,1.64,3.85,3.43,4.38,6.31c0.3,1.63,0.37,3.33,0.44,4.97c0.09,1.75,0.48,3.41,0.63,5.14
						C14.27,30.3,13.16,33.33,11.04,35.66z"/>
					<g>
						<path class="st29" d="M12.14,18.5c0,0,2.08,2.59,3.89,0.25c1.8-2.34-1.37-7.91-5.83-5.8L12.14,18.5z"/>
						<path class="st30" d="M15.26,17.36c-0.25,0.48-1,0.2-1.34,0.03c-1.25-0.65-2.14-2.48-2.32-3.8c-0.01-0.06,0.12-0.02,0.14,0.02
							c0.21,0.63,0.47,1.26,0.79,1.86c0.11-0.6,0.73-1.23,1.28-1.08c0.03,0.01,0.07,0.06,0.01,0.06c-0.3-0.02-0.62,0.37-0.76,0.59
							c-0.19,0.29-0.22,0.59-0.25,0.91c0.09,0.15,0.18,0.29,0.29,0.43c0.34,0.47,1.63,1.67,2.04,0.56c0.13-0.35,0.06-0.81,0.03-1.17
							c0-0.04,0.08-0.01,0.08,0.02C15.38,16.31,15.52,16.85,15.26,17.36z"/>
						<path class="st31" d="M14.44,13.95c0.67,0.67,1.18,1.77,1.13,2.74c-0.07,1.51-1.56,1.5-2.48,0.64
							c-0.1-0.09-0.25,0.05-0.18,0.16c0.54,0.84,1.84,1.66,2.83,1.58c-1.73,1.75-3.61-0.57-3.61-0.57l-1.94-5.55
							c1.55-0.73,2.95-0.54,4.04,0.13c-0.01,0.01-0.02,0.01-0.02,0.02C13.88,13.33,14.27,13.77,14.44,13.95z M13.11,13.24
							c-0.93-0.23-0.95,0.96-0.61,1.51c0.04,0.07,0.14,0.07,0.19,0.01c0.04-0.03,0.07-0.07,0.1-0.11c0.02,0,0.05-0.01,0.07-0.03
							c0.25-0.21,0.65-0.4,0.79-0.72C13.82,13.53,13.41,13.31,13.11,13.24z"/>
					</g>
					<g>
						<path class="st32" d="M14.86,29.57c-0.26,1.39-0.89,2.85-1.53,4.11c-0.4,0.78-0.9,1.54-1.48,2.21
							c-0.79,1.32-2.37,2.21-3.73,2.76c-2.36,0.96-4.8,2.01-7.36,2.26c-2.47,0.24-4.99-0.05-7.44-0.37
							c-0.43-0.05-0.85-0.13-1.27-0.22c-1.03-0.45-2.01-0.98-2.94-1.6c-1.94-1.3-3.74-2.98-4.92-5.01c-0.61-1.07-1.11-2.22-1.3-3.44
							c-0.14-0.89-0.17-1.79-0.25-2.69c0.01-0.18,0.02-0.35,0.04-0.53c0.13-1.23,0.58-2.29,1-3.4c0.44,0.23,0.89,0.43,1.35,0.62
							c0.96,0.43,1.95,0.78,2.95,1.04c0,0,0,0,0.01,0c0.13,0.06,0.27,0.11,0.41,0.16c-0.03,0.65,0.33,2.07,0.36,1.95
							c0.13-0.58,0.22-1.16,0.37-1.73c1.18,0.31,2.43,0.38,3.65,0.44c0.02,1.04,0.57,3.14,0.6,3.05c0.28-0.98,0.35-2,0.49-3
							c2.23,0.08,4.41-0.15,6.51-0.72c0.52-0.1,1.03-0.2,1.54-0.32c0.15,0.82,0.85,2.47,0.86,2.35c0.01-0.84-0.16-1.61-0.35-2.39
							c1.06-0.26,2.35-0.7,3.39-1.06c0.12,0.49,0.28,0.97,0.33,1.47c0,0.13,0.25-1.12,0.22-1.66c0.94-0.34,1.88-0.72,2.78-1.15
							l1.33-7.97c0,0,4.08,5.25,4.4,11.39C15.06,27.27,15.07,28.4,14.86,29.57z"/>
						<path class="st27" d="M14.86,29.57c-0.26,1.39-0.89,2.85-1.53,4.11c-0.4,0.78-0.9,1.54-1.48,2.21
							c-0.34,0.57-0.83,1.05-1.38,1.47c2.93-3.07,3.92-8.13,2.83-12.26c-0.04-0.15-0.23-0.1-0.22,0.04c0.17,2.5-0.43,5.11-1.49,7.4
							c0.26-1.81-0.12-3.71-1.1-5.26c-0.05-0.08-0.21-0.08-0.21,0.05c0.02,1.14,0.08,2.28-0.14,3.41c-0.35-0.71-0.88-1.44-1.59-1.77
							c-0.51-0.24-0.6,0.3-0.67,0.69c-0.26,1.22-0.02,2.46-0.2,3.69c-0.09,0.67-0.34,1.29-0.64,1.88c0-0.02,0-0.04,0-0.07
							c0.01-1.53-0.04-3.11-0.4-4.61c-0.28-1.14-0.74-2.49-1.9-3c-0.04-0.01-0.69,2.93-0.74,4.41c-0.24-1.17-1.22-3.49-1.22-3.37
							c0.05,1.85,0.37,3.75,0.03,5.57c-0.33-1.85-0.4-3.78-1.01-5.56c-0.19-0.55-5.06-1.14-5.87-1.02
							c-0.64,0.08-1.49,0.26-1.79,0.93c-0.71,1.62-0.08,3.54,0.34,5.21c-1.43-1.75-2.13-3.98-2.46-6.2
							c-0.01-0.05-2.51-0.2-3.02,0.89c-0.4,0.85-0.41,1.82-0.35,2.75c-0.31-0.63-0.56-1.32-0.67-1.99c-0.08-0.5-0.1-1.02-0.16-1.53
							c-0.05-0.37-1.25-1.42-1.56-1.39c-0.36,0.04-1.13,1.69-1.12,2.23c0.01,1.01,0.13,2.04,0.42,3.02
							c-1.03-1.98-2.03-6.53-2.06-6.44c-0.62,1.32-0.67,2.87-0.54,4.3c0.08,0.85,0.2,1.7,0.39,2.55c-0.2-0.53-0.35-1.08-0.44-1.64
							c-0.14-0.89-0.17-1.79-0.25-2.69c0.01-0.18,0.02-0.35,0.04-0.53c0.13-1.23,0.58-2.29,1-3.4c0.44,0.23,0.89,0.43,1.35,0.62
							c0.96,0.43,1.95,0.78,2.95,1.04c0,0,0,0,0.01,0c0.13,0.06,0.27,0.11,0.41,0.16c-0.03,0.65,0.33,2.07,0.36,1.95
							c0.13-0.58,0.22-1.16,0.37-1.73c1.18,0.31,2.43,0.38,3.65,0.44c0.02,1.04,0.57,3.14,0.6,3.05c0.28-0.98,0.35-2,0.49-3
							c2.23,0.08,4.41-0.15,6.51-0.72c0.52-0.1,1.03-0.2,1.54-0.32c0.15,0.82,0.85,2.47,0.86,2.35c0.01-0.84-0.16-1.61-0.35-2.39
							c1.06-0.26,2.35-0.7,3.39-1.06c0.12,0.49,0.28,0.97,0.33,1.47c0,0.13,0.25-1.12,0.22-1.66c0.94-0.34,1.88-0.72,2.78-1.15
							l1.33-7.97c0,0,4.08,5.25,4.4,11.39C15.06,27.27,15.07,28.4,14.86,29.57z"/>
					</g>
				</g>
				<path class="st34" d="M-5.71,20.06c0.04,0.03,0.08,0.08,0.12,0.13c-0.53,1.49-1.59,2.87-2.65,2.82
					c-1.38-0.08-1.99-1.36-1.99-1.36s0.58,0.4,1.97,0.24C-7.42,21.77-5.78,19.99-5.71,20.06z"/>
				<path class="st34" d="M-2.11,20.93c0,0,1.58,2.82,4.41,2.41c2.83-0.42,3.57-2.14,3.57-2.14s-2.91,1.57-4.93,0.9
					C-0.88,21.5-2.11,20.93-2.11,20.93z"/>
				<path class="st8" d="M2.33,20.33c-3.26,0.25-3.23-4.18-3.22-4.64c0.59-0.22,1.3-0.27,1.87-0.33c0.53-0.05,1.41-0.15,1.93-0.09
					c2.05,0.46,2.44,2.06,2.44,2.06C5.14,19.96,2.33,20.33,2.33,20.33z"/>
				<path class="st8" d="M-5.37,15.74c0,0,0.24,4.79-2.26,4.61c0,0-1.73,0.04-2.32-1.94c0,0,0.33-2.8,2.42-2.94
					C-5.45,15.33-5.37,15.74-5.37,15.74z"/>
				<g>
					<path class="st35" d="M-5.7,17.5c-0.05-1.18-0.73-2.07-1.51-1.99c-0.78,0.07-1.37,1.09-1.33,2.26
						c0.05,1.18,0.73,2.07,1.51,1.99C-6.24,19.69-5.65,18.67-5.7,17.5z"/>
					<path class="st36" d="M-5.95,17.5c-0.04-0.96-0.59-1.7-1.24-1.64c-0.64,0.06-1.13,0.9-1.09,1.86c0.04,0.97,0.6,1.7,1.24,1.64
						C-6.4,19.3-5.91,18.47-5.95,17.5z"/>
					<path class="st37" d="M-6.35,17.53c-0.03-0.61-0.38-1.06-0.78-1.03c-0.4,0.04-0.71,0.56-0.68,1.17
						c0.03,0.61,0.37,1.06,0.78,1.03C-6.63,18.66-6.33,18.14-6.35,17.53z"/>
					<path class="st8" d="M-7.19,18.4C-7.3,18.15-7.53,18-7.71,18.06c-0.17,0.06-0.22,0.32-0.11,0.57c0.11,0.25,0.35,0.4,0.52,0.34
						C-7.12,18.91-7.08,18.65-7.19,18.4z"/>
					<path class="st8" d="M-7.85,17.55c0-0.13-0.08-0.22-0.16-0.21c-0.08,0.01-0.14,0.11-0.13,0.24c0,0.12,0.08,0.22,0.16,0.21
						C-7.9,17.77-7.84,17.67-7.85,17.55z"/>
				</g>
				<g>
					<path class="st35" d="M4.22,17.39c-0.17-1.24-0.97-2.1-1.78-1.95c-0.81,0.16-1.33,1.28-1.16,2.51c0.17,1.23,0.97,2.1,1.78,1.95
						C3.87,19.74,4.39,18.61,4.22,17.39z"/>
					<path class="st36" d="M3.96,17.4c-0.14-1.01-0.8-1.73-1.47-1.6c-0.67,0.13-1.1,1.05-0.96,2.07c0.14,1.01,0.79,1.73,1.46,1.6
						C3.67,19.34,4.1,18.42,3.96,17.4z"/>
					<path class="st37" d="M3.54,17.48c-0.09-0.63-0.5-1.08-0.92-1c-0.42,0.08-0.69,0.66-0.6,1.29c0.09,0.64,0.5,1.08,0.92,1.01
						C3.36,18.7,3.63,18.12,3.54,17.48z"/>
					<path class="st8" d="M2.75,18.48c-0.15-0.26-0.4-0.39-0.58-0.31c-0.17,0.08-0.2,0.35-0.05,0.6c0.14,0.25,0.4,0.39,0.58,0.31
						C2.87,19,2.89,18.73,2.75,18.48z"/>
					<path class="st8" d="M1.97,17.65c-0.02-0.13-0.1-0.22-0.19-0.2c-0.09,0.01-0.14,0.14-0.12,0.26c0.02,0.13,0.1,0.22,0.19,0.21
						C1.94,17.9,1.99,17.78,1.97,17.65z"/>
				</g>
				<g>
					<path class="st38" d="M-1.05,8.78c-0.83-0.47-2.32-0.41-2.99-0.16c-0.4,0.15-2.87,2.56-3.3,2.99c0.7-0.11,7.23-0.17,8.37,0.57
						C1.49,12.47-0.03,9.36-1.05,8.78z"/>
					<path class="st8" d="M0.68,11.05c0.37,0.71,0.56,1.26,0.36,1.13c-0.93-0.6-5.45-0.67-7.46-0.62
						C-4.56,10.02-1.62,10.33,0.68,11.05z"/>
					<path class="st39" d="M-3.86,8.57c0.73-0.2,2.05-0.21,2.81,0.22c0.26,0.14,0.54,0.45,0.82,0.81C-1.5,9.91-2.85,9.41-3.86,8.57z
						"/>
					<path class="st40" d="M-3.67,7.56c0,0,2-0.22,3.85,1.19C0.17,8.74-1.01,6.88-3.67,7.56z"/>
				</g>
				<path class="st30" d="M-5.13,13.53c-0.16,0.22-0.36,0.59-0.12,0.83c0.2,0.21,0.68,0.2,0.95,0.14c-0.01,0.01-0.01,0.02-0.02,0.02
					c-0.11,0.04-0.26,0.07-0.4,0.09c0.13,0.16,0.22,0.39,0.3,0.56c0.03,0.06,0.05,0.12,0.07,0.18c-0.02,0.2-0.03,0.41-0.06,0.61
					c-0.05-0.27-0.16-0.53-0.28-0.79c-0.08-0.17-0.25-0.37-0.31-0.56c-0.41-0.02-0.77-0.2-0.66-0.69c0.1-0.46,0.54-0.82,0.93-1.03
					c0.21-0.11,0.45-0.16,0.7-0.17C-4.31,12.74-4.83,13.12-5.13,13.53z"/>
				<path class="st32" d="M-2.98,41.34c0,0-10.83-0.99-13.57-10.57c0,0,1.67,3.99,4.71,5.9c0,0-1.22-1.22-1.5-3.09
					C-13.34,33.58-10.42,38.34-2.98,41.34z"/>
				<path class="st31" d="M-3.87,12.75c0.84,0.06,1.19,0.91,1.08,1.65c-0.24-0.15-0.51-0.29-0.79-0.39c-0.26-0.1-0.53-0.18-0.8-0.19
					c-0.45-0.04-0.87,0.05-1.21,0.35c0.03-0.08,0.06-0.16,0.1-0.23C-5.46,13.83-4.9,12.67-3.87,12.75z"/>
				<path class="st41" d="M-0.06,17.72c0.47,0.72,1.1,1.4,1.99,1.53c0.97,0.14,1.98-0.24,2.67-0.94c0.3-0.32,0.54-0.66,0.74-1.03
					c0.01,0.03,0.01,0.05,0.01,0.05c-0.21,2.63-3.02,3-3.02,3c-2.82,0.21-3.18-3.06-3.21-4.25C-0.72,16.67-0.36,17.27-0.06,17.72z"
					/>
				<path class="st41" d="M-9.46,19.3c0.49,0.54,1.38,0.93,2.1,0.61c1.43-0.65,1.71-2.6,1.99-4.14c0.02,0.43,0.12,4.74-2.26,4.57
					c0,0-1.47,0.03-2.16-1.52C-9.67,19.04-9.53,19.22-9.46,19.3z"/>
				<path class="st29" d="M-4.85,14.52c0,0-0.57-0.01-0.44-0.3c0.13-0.3,0.78-0.31,1-0.12C-4.09,14.28-4.58,14.57-4.85,14.52z"/>
				
					<radialGradient id="SVGID_00000132078251309541686020000007775104901631928508_" cx="2807.5261" cy="327.4221" r="4.8048" gradientTransform="matrix(1.2997 0.4994 -0.4994 1.2997 -3482.3018 -1810.4611)" gradientUnits="userSpaceOnUse">
					<stop  offset="1.093750e-03" style="stop-color:#EF7B63"/>
					<stop  offset="0.1221" style="stop-color:#F2907C"/>
					<stop  offset="0.42" style="stop-color:#F7BFB4"/>
					<stop  offset="0.6763" style="stop-color:#FBE2DD"/>
					<stop  offset="0.8779" style="stop-color:#FEF7F6"/>
					<stop  offset="1" style="stop-color:#FFFFFF"/>
				</radialGradient>
				<path style="opacity:0.6;fill:url(#SVGID_00000132078251309541686020000007775104901631928508_);" d="M4.74,15.41
					c-1.37-0.16-2.39-1.1-2.28-2.1c0.11-1.01,1.32-1.69,2.69-1.54c1.37,0.16,2.39,1.1,2.28,2.1C7.32,14.87,6.12,15.56,4.74,15.41z
					 M3.69,13.97c-0.03-0.2-0.16-0.38-0.33-0.48c-0.17-0.1-0.44-0.07-0.5,0.15c-0.07,0.22,0.03,0.49,0.22,0.63
					c0.01,0.01,0.03,0.01,0.04,0.01c0.08,0.07,0.18,0.11,0.29,0.09C3.58,14.34,3.72,14.16,3.69,13.97z M4.1,14.58
					c0.01-0.05,0-0.1-0.06-0.12c-0.03-0.03-0.07-0.06-0.11-0.09c-0.07-0.05-0.17-0.01-0.18,0.08c-0.01,0.08,0,0.16,0.06,0.22
					c0.02,0.02,0.06,0.04,0.09,0.05c0.01,0.01,0.01,0.02,0.02,0.02c0.02,0.02,0.05,0.02,0.07,0.02C4.08,14.78,4.17,14.66,4.1,14.58z
					"/>
				
					<radialGradient id="SVGID_00000101804290974535677340000017012189332274415773_" cx="2798.2478" cy="331.1107" r="5.0141" gradientTransform="matrix(1.2997 0.4994 -0.4994 1.2997 -3482.3018 -1810.4611)" gradientUnits="userSpaceOnUse">
					<stop  offset="1.093750e-03" style="stop-color:#EF7B63"/>
					<stop  offset="0.1221" style="stop-color:#F2907C"/>
					<stop  offset="0.42" style="stop-color:#F7BFB4"/>
					<stop  offset="0.6763" style="stop-color:#FBE2DD"/>
					<stop  offset="0.8779" style="stop-color:#FEF7F6"/>
					<stop  offset="1" style="stop-color:#FFFFFF"/>
				</radialGradient>
				<path style="opacity:0.6;fill:url(#SVGID_00000101804290974535677340000017012189332274415773_);" d="M-8.66,15.32
					c-1.37,0.17-2.58-0.51-2.7-1.51c-0.12-1,0.89-1.95,2.26-2.12c1.37-0.17,2.58,0.51,2.71,1.51C-6.27,14.21-7.28,15.16-8.66,15.32z
					 M-10.01,14.18c-0.07-0.19-0.25-0.34-0.44-0.39c-0.19-0.06-0.44,0.03-0.45,0.26c-0.01,0.23,0.15,0.47,0.37,0.56
					c0.01,0.01,0.03,0.01,0.04,0.01c0.09,0.05,0.2,0.07,0.29,0.02C-10.04,14.56-9.95,14.36-10.01,14.18z M-9.47,14.67
					c0-0.05-0.03-0.1-0.09-0.11c-0.03-0.02-0.08-0.04-0.12-0.05c-0.08-0.03-0.17,0.03-0.15,0.12c0.01,0.08,0.03,0.16,0.11,0.2
					c0.03,0.01,0.06,0.02,0.09,0.03c0.01,0.01,0.01,0.01,0.02,0.02c0.02,0.01,0.05,0.01,0.07,0C-9.44,14.87-9.39,14.73-9.47,14.67z"
					/>
				<path class="st44" d="M6.49,18.6l-1.31,0.19c0,0-1.16,1.47-2.1,1.66l0,0c-0.23,0.08-0.47,0.15-0.75,0.18
					c-2.27,0.27-3.48-2.78-3.21-4.93c0,0,0.5,3.58,2.55,4.13c1.44,0.38,2.47-0.3,3.06-1c0.19-0.25,0.39-0.54,0.51-0.81L6.49,18.6z"
					/>
				<path class="st44" d="M-10.54,19.52l0.59-1.12c0,0,0.67,1.68,2.09,1.82c1.43,0.14,2.44-1.23,2.49-4.49c0,0,0.58,4.39-1.89,4.81
					c0,0-1.52,0.42-2.64-1.38L-10.54,19.52z"/>
				<path class="st29" d="M-7.32,11.75c0,0,4.37-0.35,8,0.43C0.68,12.18-4.07,11.67-7.32,11.75z"/>
				<path class="st31" d="M-2.58,7.4c0,0,1.76,0.27,2.54,1.19C-0.04,8.6-0.11,6.99-2.58,7.4z"/>
			</g>
		</g>
		<path class="st45" d="M19.27,30.27c-1.69,7.27-17.96,7.38-17.96,7.38l-0.69,0.01c0,0-16.26,0.11-18.06-7.13
			c0,0-1.49-10.95,1.84-18.52c0,0,3.75-4.72,16.36-4.43c12.6-0.46,16.42,4.21,16.42,4.21C20.62,19.3,19.27,30.27,19.27,30.27z"/>
		<path class="st45" d="M19.27,30.27c-1.69,7.27-17.96,7.38-17.96,7.38l-0.69,0.01c0,0-16.26,0.11-18.06-7.13
			c0,0-1.49-10.95,1.84-18.52c0,0,3.75-4.72,16.36-4.43c12.6-0.46,16.42,4.21,16.42,4.21C20.62,19.3,19.27,30.27,19.27,30.27z
			 M15.99,12.56c0,0-3.54-4.33-15.22-3.91c-11.69-0.26-15.16,4.12-15.16,4.12c-3.09,7.01-1.71,17.17-1.71,17.17
			c1.66,6.72,16.74,6.61,16.74,6.61l0.64-0.01c0,0,15.08-0.1,16.65-6.84C17.93,29.7,19.18,19.54,15.99,12.56z"/>
		<path class="st46" d="M16.31,31.48c-3.99,4.29-15.03,4.37-15.03,4.37l-0.62,0c0,0-14.77,0.1-16.4-6.48c0,0-1.02-7.47,0.68-13.93
			C-9.71,28.86,5.02,31.22,16.31,31.48z"/>
	</g>
</symbol>
<use xlink:href="#Mazie"  width="83.37" height="100" x="-41.68" y="-50" transform="matrix(1 0 0 -1 41.6841 50)" style="overflow:visible;"/>
</svg>
