<?xml version="1.0" encoding="utf-8"?>
<!-- Generator: Adobe Illustrator 26.3.1, SVG Export Plug-In . SVG Version: 6.00 Build 0)  -->
<svg version="1.1" id="Layer_1" xmlns="http://www.w3.org/2000/svg" xmlns:xlink="http://www.w3.org/1999/xlink" x="0px" y="0px"
	 viewBox="0 0 59.87 100" style="enable-background:new 0 0 59.87 100;" xml:space="preserve">
<style type="text/css">
	.st0{fill:#874B96;}
	.st1{fill:#652F72;}
	.st2{fill:#9559A4;}
	.st3{fill:#FFFFFF;}
	.st4{opacity:0.7;fill:#D1D1D1;}
	.st5{opacity:0.6;}
	.st6{fill:#FF9900;}
	.st7{fill:#793D87;}
	.st8{opacity:0.4;}
	.st9{opacity:0.7;}
	.st10{fill:#D1D1D1;}
	.st11{fill:#6660AA;}
	.st12{opacity:0.6;fill:#6660AA;}
	.st13{fill:#BA4343;}
	.st14{fill:#222266;}
	.st15{clip-path:url(#SVGID_00000083799991966376421860000008902933423008092344_);}
	.st16{fill:#D5D7D8;}
	.st17{fill:#31317C;}
	.st18{fill:#8987CC;}
	.st19{clip-path:url(#SVGID_00000044877573456918019010000012937408131337694389_);}
	.st20{fill:#653172;}
</style>
<symbol  id="Phillip" viewBox="-29.94 -50 59.87 100">
	<g>
		<g>
			<g>
				<path class="st0" d="M-12.3-27.38c3.06,8.15,9.38,3.11,6.71-5.52c-2.67-8.63-13.16-17.99-24.16-15.69
					C-31.56-48.22-19.96-47.77-12.3-27.38z"/>
				<g>
					<path class="st1" d="M-11.92-31.23c0.36,1.23,1.46,3.53-0.3,4.03c-0.02-0.06-0.05-0.12-0.07-0.18
						c-0.85-2.25-1.74-4.26-2.66-6.06C-13.81-33.6-12.3-32.42-11.92-31.23z"/>
					<path class="st1" d="M-21.74-44.88c0.56,0.43,0.96,0.99,1.68,1.28c0.96,0.43,2,0.28,3.03,0.64c1.92,0.64,2.87,2.42,2.55,4.19
						c-0.17,1.37-0.92,2.16-1.91,2.74c-3.1-5.21-6.34-8.21-8.87-9.96C-24.1-46.2-22.53-45.42-21.74-44.88z"/>
					<path class="st1" d="M-9.93-37.42c-1.2,0.57-2.15,1.63-2.87-0.14c-0.24-0.71,0.16-1.49,0.08-2.2
						c-0.08-0.78-0.64-1.49-0.72-2.27c-0.11-0.5-0.04-1.21,0.22-1.79c1.94,1.61,3.63,3.49,4.97,5.47
						C-8.62-37.93-9.24-37.76-9.93-37.42z"/>
				</g>
				<path class="st2" d="M-12.3-27.38c-0.11-0.3-0.23-0.6-0.35-0.9c2.35-0.18,4.4-7.78-0.91-13.24c-6.06-6.23-13.13-7.5-13.64-5.65
					c-2.08-1.13-3.22-1.28-2.56-1.42c11-2.3,21.49,7.06,24.16,15.69C-2.92-24.27-9.24-19.24-12.3-27.38z"/>
			</g>
			<g>
				<path class="st3" d="M-25.86-43.57c-0.91-0.31-0.58-2.04-0.37-3.05c0.83,0.51,1.76,1.16,2.75,1.99
					C-24.21-44.05-25.3-43.4-25.86-43.57z"/>
				<path class="st3" d="M-22.67-39.97c-0.59-0.68,0.13-2.34,0.61-3.38c0.89,0.86,1.82,1.88,2.76,3.06
					C-20.44-39.86-22.07-39.37-22.67-39.97z"/>
				<path class="st3" d="M-29.06-45.89c-0.61-0.36-0.19-1.42,0.16-2.11c0.55,0.24,1.31,0.59,2.21,1.11
					C-27.39-46.25-28.44-45.5-29.06-45.89z"/>
				<path class="st3" d="M-17.88-34.76c-1.06-0.58-0.25-1.97,0.41-2.99c0.61,0.92,1.21,1.91,1.81,3
					C-16.45-34.56-17.39-34.5-17.88-34.76z"/>
				<path class="st3" d="M-16.02-31.31c-0.35-0.62,0.31-1.68,0.9-2.44c0.5,0.96,1,1.99,1.49,3.09
					C-14.64-30.62-15.79-30.78-16.02-31.31z"/>
			</g>
			<g>
				<path class="st4" d="M-25.38-45.26c-0.54,0.21-0.89,0.66-0.98,1.16c-0.24-0.67-0.03-1.78,0.12-2.52c0.66,0.4,1.38,0.9,2.14,1.5
					C-24.47-45.35-24.95-45.42-25.38-45.26z"/>
				<path class="st4" d="M-20.85-41.57c-0.89,0.04-1.7,0.82-1.57,1.64c0.01,0.05,0.02,0.1,0.03,0.14c-0.11-0.04-0.2-0.1-0.28-0.18
					c-0.59-0.68,0.13-2.34,0.61-3.38c0.56,0.54,1.14,1.15,1.72,1.82C-20.51-41.57-20.68-41.58-20.85-41.57z"/>
				<path class="st4" d="M-26.91-46.7c-0.03-0.05-0.07-0.09-0.12-0.13c-0.3-0.28-0.83-0.34-1.22-0.19c0,0-0.01,0-0.01,0.01
					c-0.04,0.01-0.07,0.01-0.11,0.02c-0.35,0.1-0.66,0.4-0.71,0.73c-0.02,0.13-0.02,0.24,0.01,0.35c-0.58-0.38-0.17-1.41,0.18-2.09
					c0.55,0.24,1.31,0.59,2.21,1.11C-26.76-46.83-26.84-46.76-26.91-46.7z"/>
				<path class="st4" d="M-18.09-35.64c-0.1,0.14-0.17,0.29-0.22,0.44c-0.32-0.69,0.31-1.74,0.83-2.56
					c0.34,0.52,0.69,1.06,1.03,1.63C-17.05-36.31-17.74-36.13-18.09-35.64z"/>
				<path class="st4" d="M-15.06-32.27c-0.35,0.08-0.73,0.25-0.93,0.53c-0.04,0.06-0.08,0.12-0.11,0.17
					c-0.09-0.63,0.47-1.52,0.99-2.18c0.27,0.51,0.53,1.04,0.79,1.58C-14.55-32.27-14.81-32.33-15.06-32.27z"/>
			</g>
		</g>
		<g class="st5">
			<path class="st3" d="M-25.31-46.62c0,0,9.25,7.31,12.02,15.9C-13.3-30.72-13.67-40.24-25.31-46.62z"/>
		</g>
	</g>
	<g>
		<g>
			<g>
				<path class="st2" d="M-8.36-31.59c-0.7,9.36,9.72,6.64,8.93-1.2c-0.88-8.7,1.53-15.71,0.36-16.42c-1.76-1.07-7.41-1.04-7.74,0
					c-0.8,2.51,2.18,3.43,2.34,4.12C-4.32-44.4-7.67-40.9-8.36-31.59z"/>
				<g>
					<polygon class="st6" points="-1.97,-49.93 -1.97,-49.93 -1.97,-49.93 					"/>
					<path class="st7" d="M-4.82-39.62c0.48,1.42-1.04,1.92-1.28,3.06c-0.24,1.07,1.36,1.85,0.88,2.91
						c-0.35,0.95-1.84,1.11-3.05,0.99c0.37-3.69,1.16-6.4,1.93-8.33C-5.65-40.73-5.02-40.21-4.82-39.62z"/>
					<path class="st6" d="M-4.23-49.97c0,0.08,0,0.16,0,0.24C-4.24-49.87-4.23-49.96-4.23-49.97z"/>
					<path class="st7" d="M1.14-46.41c-0.13,1.23-0.35,2.8-0.52,4.63C-2.61-42.43-1.26-45.58,1.14-46.41z"/>
					<path class="st7" d="M-1.87-32.94c-0.48-1.42,0.96-2.06,1.12-3.34c0.08-1.07-1.04-1.78-0.96-2.77c0.12-1.02,1.2-1.76,2.27-2.09
						c-0.2,2.44-0.3,5.29,0.01,8.34c0.07,0.74,0.05,1.43-0.06,2.07C-0.49-31.24-1.49-31.94-1.87-32.94z"/>
					<path class="st6" d="M-1.97-49.93L-1.97-49.93c0,0,0,0.19-0.04,0.45C-2-49.74-1.97-49.93-1.97-49.93z"/>
					<path class="st6" d="M-4.23-49.97c0,0,0-0.01,0-0.01c0.01,0,0.02,0,0.03,0L-4.23-49.97L-4.23-49.97z"/>
				</g>
			</g>
			<path class="st2" d="M0.57-32.79c0.79,7.84-9.62,10.56-8.93,1.2c0.02-0.26,0.04-0.52,0.06-0.77c1.53,1.86,6.19-0.65,7.27-6.69
				c0.81-4.52,1.07-8.83-2.54-8.55c-2.38,0.19-2.02,1.21-1.5,1.89c-0.87-0.67-2.34-1.65-1.75-3.51c0.33-1.04,5.99-1.07,7.74,0
				C2.09-48.5-0.31-41.49,0.57-32.79z"/>
			<g class="st5">
				<path class="st3" d="M-4.23-44.71c0,0-3.28,4.48-3.7,12.09C-8.04-30.69-5.91-38.67-4.23-44.71z"/>
			</g>
			<g>
				<path class="st3" d="M-4.23-49.97c0,0-0.01,0.1,0,0.24c-0.03,0.78-0.2,1.73-0.99,1.7c-0.77-0.03-1.14-1-1.28-1.5
					c0.44-0.25,1.29-0.4,2.28-0.45C-4.23-49.98-4.23-49.97-4.23-49.97z"/>
				<path class="st3" d="M-1.39-48.02c-0.57-0.16-0.63-0.95-0.62-1.46c0.04-0.25,0.04-0.44,0.04-0.45c0.7,0.06,1.36,0.17,1.92,0.33
					C-0.05-49.59-0.54-47.79-1.39-48.02z"/>
				<path class="st3" d="M-3.1-48.14c-0.99,0-1.12-1.08-1.14-1.58c0-0.08,0-0.17,0-0.24v0l0.03-0.01c0.71-0.04,1.49-0.02,2.23,0.05
					c0,0-0.03,0.19-0.04,0.45C-2.09-48.95-2.34-48.14-3.1-48.14z"/>
			</g>
			<g>
				<path class="st4" d="M-4.23-49.72c-0.03,0.78-0.2,1.73-0.99,1.7c-0.08,0-0.15-0.02-0.22-0.04c0.46-0.14,0.77-0.54,0.74-1
					c-0.02-0.3-0.13-0.62-0.38-0.83c0,0-0.01-0.01-0.01-0.01c0.27-0.04,0.56-0.06,0.87-0.08c0,0,0,0.01,0,0.01
					C-4.23-49.96-4.24-49.87-4.23-49.72z"/>
				<path class="st4" d="M-1.32-48.09c0.51-0.39,0.65-1.17,0.34-1.72c0.33,0.06,0.65,0.12,0.93,0.2c0,0.01-0.49,1.81-1.34,1.58
					c-0.01,0-0.02-0.01-0.02-0.01C-1.38-48.05-1.35-48.07-1.32-48.09z"/>
				<path class="st4" d="M-2.98-49.99c0.34,0.01,0.68,0.03,1.02,0.06c0,0-0.03,0.19-0.04,0.45c-0.08,0.53-0.33,1.34-1.09,1.34
					c-0.12,0-0.23-0.02-0.32-0.05C-2.81-48.57-2.51-49.46-2.98-49.99z"/>
			</g>
		</g>
	</g>
	<g>
		<g>
			<g>
				<path class="st2" d="M8.4-31.35c1.39-3.73,6.33-15.96,7.93-17.48c1.6-1.52,8.59-0.66,8.87,0.62c0.28,1.28-0.98,4.57-4.46,4.83
					c-0.64,0.05-2.23,11.05-3.62,15.42C15.74-23.59,5.69-24.05,8.4-31.35z"/>
				<g>
					<polygon class="st6" points="20.1,-49.64 20.1,-49.64 20.1,-49.64 					"/>
					<path class="st7" d="M12.89-36.63c0.16,1.07-0.96,1.71-0.72,2.77c0.24,1.49,1.2,1.92-0.72,3.05c-1.05,0.59-2.27,0.74-3.43,0.77
						c0.07-0.41,0.2-0.85,0.37-1.32c0.54-1.46,1.63-4.22,2.85-7.13C12.08-38.12,12.84-37.45,12.89-36.63z"/>
					<path class="st7" d="M16.41-44.09c-0.13,1.38-2.04,1.83-3.57,1.91c0.78-1.77,1.55-3.41,2.2-4.63
						C15.63-45.97,16.46-45.03,16.41-44.09z"/>
					<path class="st7" d="M16.49-35.99c-0.32-1.14,1.04-1.85,1.04-2.91c0.08-0.99-0.64-1.71,0.64-2.42c0.56-0.29,1.3-0.31,1.91-0.11
						c-0.41,1.78-0.92,4.52-1.47,7.2C17.69-34.55,16.63-35.16,16.49-35.99z"/>
					<path class="st6" d="M22.66-48.74c0.05-0.36,0.1-0.62,0.1-0.62C22.73-49.14,22.7-48.94,22.66-48.74z"/>
					<polygon class="st6" points="22.76,-49.36 22.76,-49.36 22.76,-49.36 					"/>
					<path class="st6" d="M20.1-49.64L20.1-49.64L20.1-49.64c-0.05,0.2-0.11,0.4-0.17,0.59C20-49.39,20.1-49.64,20.1-49.64z"/>
				</g>
			</g>
			<path class="st2" d="M20.74-43.38c0,0,2.91-2.45,0-3.02c-3.78-0.74-5.64,2.12-8.14,9.6c-1.96,5.85,3.48,6.81,5.76,3.76
				c-0.41,1.97-0.83,3.81-1.24,5.09c-1.38,4.38-11.44,3.91-8.73-3.39c1.39-3.73,6.33-15.96,7.93-17.48c1.6-1.52,8.59-0.66,8.87,0.62
				C25.48-46.94,24.22-43.64,20.74-43.38z"/>
			<g>
				<path class="st3" d="M22.66-48.74c-0.32,1.5-1.1,2.43-2.18,1.9c-0.82-0.4-0.71-1.51-0.55-2.2c0.06-0.19,0.12-0.39,0.17-0.59
					c0.91,0.02,1.84,0.12,2.66,0.28h0C22.76-49.36,22.7-49.1,22.66-48.74z"/>
				<path class="st3" d="M25.06-48.46L25.06-48.46c-0.32,1.07-1.23,2.16-2.03,1.84c-0.54-0.21-0.47-1.38-0.37-2.12
					c0.04-0.2,0.08-0.4,0.1-0.62h0C23.85-49.14,24.73-48.83,25.06-48.46z"/>
				<path class="st3" d="M19.92-49.05c-0.37,1.17-0.88,2.1-1.64,1.86c-0.65-0.21-0.76-1.4-0.75-2.22c0.72-0.18,1.63-0.25,2.57-0.23
					v0C20.1-49.64,20-49.39,19.92-49.05z"/>
			</g>
			<g>
				<path class="st4" d="M21.42-49.4c-0.96,0.28-1.52,1.45-0.98,2.24c0.13,0.19,0.32,0.35,0.54,0.46c-0.16-0.01-0.33-0.06-0.51-0.15
					c-0.82-0.4-0.71-1.51-0.55-2.2c0.06-0.19,0.12-0.39,0.17-0.59c0.91,0.02,1.84,0.12,2.66,0.28h0c0,0-0.01,0.05-0.02,0.12
					C22.33-49.48,21.89-49.54,21.42-49.4z"/>
				<path class="st4" d="M23.27-47.29c0.08,0.23,0.22,0.48,0.43,0.64c-0.22,0.1-0.45,0.12-0.67,0.03c-0.54-0.21-0.47-1.38-0.37-2.12
					c0.04-0.2,0.08-0.4,0.1-0.62h0c0.35,0.07,0.68,0.15,0.98,0.24C23.19-48.71,23.06-47.86,23.27-47.29z"/>
				<path class="st4" d="M18.3-47.57c0.11,0.16,0.28,0.3,0.47,0.37c-0.15,0.06-0.31,0.07-0.49,0.01c-0.65-0.21-0.76-1.4-0.75-2.22
					c0.36-0.09,0.77-0.15,1.2-0.19C18.19-49.08,17.85-48.21,18.3-47.57z"/>
			</g>
		</g>
		<g class="st5">
			<path class="st3" d="M17-32.41c0,0,2.8-4.63,3.22-12.24C20.33-46.58,18.68-38.45,17-32.41z"/>
		</g>
	</g>
	<g>
		<g>
			<path class="st2" d="M16.13,40.06c3.86,0.19,7.1,1.07,8.06,3.13c1.76,3.77-2.55,5.72-1.96,6.29c0.6,0.57,7.45-1.61,7.29-8.56
				c-0.16-6.95-5.32-9.47-10-9.32C12.39,31.83,11.19,39.81,16.13,40.06z"/>
			<g>
				<path class="st7" d="M17.65,40.18c0,0,0.12-0.08,0.33-0.23c0.21-0.15,0.53-0.34,0.85-0.63c0.08-0.07,0.17-0.14,0.26-0.21
					c0.05-0.04,0.09-0.07,0.14-0.11c0.05-0.04,0.09-0.08,0.13-0.13c0.17-0.17,0.36-0.35,0.55-0.54c0.17-0.2,0.35-0.41,0.52-0.62
					c0.08-0.11,0.16-0.22,0.24-0.34c0.08-0.11,0.16-0.22,0.23-0.34c0.58-0.93,0.94-1.95,1.09-2.73c0.18-0.78,0.2-1.31,0.36-1.32
					c0.16-0.02,0.29,0.56,0.17,1.4c-0.1,0.84-0.53,1.93-1.21,2.87c-0.08,0.12-0.17,0.23-0.27,0.35c-0.09,0.11-0.19,0.22-0.28,0.33
					c-0.2,0.21-0.41,0.41-0.6,0.6c-0.21,0.18-0.42,0.35-0.62,0.51c-0.05,0.04-0.1,0.08-0.15,0.12c-0.05,0.03-0.1,0.07-0.15,0.1
					c-0.1,0.07-0.2,0.13-0.29,0.19c-0.36,0.26-0.71,0.42-0.93,0.55C17.78,40.11,17.65,40.18,17.65,40.18z"/>
				<path class="st7" d="M19.67,40.49c0,0,0.13-0.05,0.35-0.13c0.11-0.05,0.24-0.1,0.38-0.17c0.14-0.08,0.3-0.16,0.47-0.26
					c0.33-0.21,0.68-0.48,1-0.82c0.32-0.34,0.62-0.73,0.86-1.15c0.25-0.42,0.45-0.86,0.61-1.27c0.16-0.42,0.29-0.82,0.4-1.16
					c0.21-0.69,0.33-1.15,0.48-1.14c0.16,0.01,0.19,0.52,0.03,1.25c-0.08,0.37-0.21,0.79-0.39,1.22c-0.19,0.44-0.43,0.89-0.72,1.32
					c-0.3,0.43-0.65,0.82-1.03,1.14c-0.38,0.33-0.78,0.58-1.15,0.75c-0.18,0.09-0.36,0.16-0.51,0.22c-0.16,0.05-0.3,0.09-0.41,0.13
					C19.81,40.46,19.67,40.49,19.67,40.49z"/>
				<path class="st7" d="M21.26,40.93c0,0,0.13-0.03,0.35-0.08c0.11-0.02,0.24-0.07,0.39-0.12c0.08-0.02,0.15-0.05,0.23-0.08
					c0.08-0.03,0.17-0.06,0.25-0.1c0.35-0.15,0.73-0.37,1.09-0.65c0.36-0.28,0.68-0.63,0.95-1.01c0.54-0.76,0.82-1.64,1-2.3
					c0.17-0.66,0.25-1.12,0.41-1.12c0.16,0,0.24,0.49,0.11,1.21c-0.12,0.71-0.47,1.66-1.13,2.45c-0.32,0.39-0.71,0.74-1.13,1
					c-0.42,0.26-0.85,0.45-1.23,0.56c-0.38,0.11-0.71,0.17-0.94,0.2C21.39,40.92,21.26,40.93,21.26,40.93z"/>
				<path class="st7" d="M22.58,41.53c0,0,0.11-0.01,0.29-0.02c0.09-0.01,0.2-0.03,0.33-0.05c0.12-0.03,0.27-0.06,0.41-0.11
					c0.3-0.09,0.62-0.24,0.93-0.44c0.31-0.2,0.61-0.45,0.87-0.74c0.53-0.56,0.91-1.22,1.19-1.71c0.28-0.5,0.47-0.83,0.62-0.79
					c0.15,0.04,0.11,0.44-0.14,0.99c-0.24,0.54-0.69,1.24-1.33,1.8c-0.31,0.28-0.67,0.53-1.04,0.7c-0.37,0.18-0.74,0.29-1.06,0.34
					c-0.16,0.03-0.31,0.04-0.44,0.05c-0.13,0-0.25,0-0.34,0C22.68,41.54,22.58,41.53,22.58,41.53z"/>
				<path class="st7" d="M23.79,42.55c0,0,0.08-0.01,0.22-0.03c0.14-0.02,0.34-0.03,0.58-0.09c0.24-0.04,0.5-0.12,0.78-0.22
					c0.27-0.11,0.55-0.24,0.8-0.4l0.19-0.12c0.06-0.04,0.12-0.09,0.17-0.13c0.12-0.09,0.22-0.19,0.32-0.28
					c0.2-0.19,0.37-0.38,0.5-0.55c0.28-0.33,0.44-0.57,0.55-0.54c0.11,0.03,0.05,0.35-0.22,0.73c-0.13,0.2-0.32,0.4-0.54,0.61
					c-0.12,0.1-0.23,0.2-0.37,0.29c-0.07,0.04-0.13,0.09-0.2,0.13l-0.22,0.12c-0.14,0.08-0.3,0.14-0.45,0.2
					c-0.15,0.06-0.31,0.1-0.46,0.15c-0.3,0.07-0.59,0.12-0.84,0.13c-0.25,0.03-0.45,0.01-0.6,0.01
					C23.87,42.55,23.79,42.55,23.79,42.55z"/>
				<path class="st7" d="M24.32,43.51c0,0,0.07,0,0.2,0.01c0.06,0,0.14,0.01,0.23,0.01c0.04,0,0.09,0,0.14,0.01c0.05,0,0.1,0,0.15,0
					c0.43,0.01,0.99-0.04,1.53-0.17c0.54-0.12,1.02-0.36,1.36-0.57c0.34-0.21,0.53-0.38,0.6-0.33c0.08,0.05-0.06,0.3-0.41,0.56
					c-0.35,0.25-0.9,0.5-1.49,0.59c-0.58,0.1-1.17,0.09-1.6,0.02c-0.05-0.01-0.11-0.01-0.15-0.02c-0.05-0.01-0.09-0.02-0.14-0.02
					c-0.09-0.02-0.16-0.03-0.22-0.04C24.39,43.52,24.32,43.51,24.32,43.51z"/>
				<path class="st7" d="M24.58,44.47c0,0,0.05,0.02,0.13,0.06c0.04,0.02,0.09,0.05,0.15,0.07c0.06,0.02,0.13,0.04,0.21,0.07
					c0.3,0.09,0.73,0.13,1.15,0.08c0.42-0.04,0.83-0.13,1.14-0.2c0.31-0.07,0.52-0.11,0.55-0.05c0.03,0.06-0.16,0.18-0.47,0.28
					c-0.31,0.1-0.76,0.18-1.2,0.18c-0.45,0.01-0.89-0.09-1.19-0.22c-0.07-0.04-0.14-0.07-0.2-0.1c-0.06-0.03-0.1-0.07-0.14-0.09
					C24.62,44.5,24.58,44.47,24.58,44.47z"/>
				<path class="st7" d="M24.59,45.38c0,0,0.03,0.02,0.1,0.06c0.03,0.02,0.07,0.04,0.11,0.06c0.04,0.02,0.1,0.04,0.15,0.07
					c0.22,0.09,0.53,0.17,0.85,0.2c0.64,0.06,1.27-0.04,1.3,0.09c0.02,0.07-0.15,0.13-0.4,0.16c-0.25,0.03-0.6,0.02-0.94-0.05
					c-0.34-0.07-0.65-0.2-0.86-0.34c-0.05-0.04-0.1-0.07-0.14-0.1c-0.04-0.03-0.07-0.06-0.09-0.08
					C24.62,45.41,24.59,45.38,24.59,45.38z"/>
				<path class="st7" d="M24.41,46.16c0,0,0.02,0.02,0.06,0.07c0.02,0.02,0.04,0.05,0.07,0.08c0.03,0.03,0.07,0.06,0.1,0.09
					c0.15,0.13,0.39,0.25,0.65,0.32c0.52,0.15,1.07,0.09,1.08,0.2c0.01,0.06-0.14,0.1-0.36,0.1c-0.22,0-0.52-0.04-0.79-0.14
					c-0.27-0.1-0.51-0.28-0.64-0.43c-0.03-0.04-0.06-0.08-0.09-0.11c-0.02-0.03-0.04-0.06-0.05-0.09
					C24.42,46.19,24.41,46.16,24.41,46.16z"/>
				<path class="st7" d="M24,47.01c0,0,0.02,0.02,0.05,0.06c0.03,0.04,0.08,0.1,0.14,0.15c0.12,0.12,0.31,0.26,0.53,0.33
					c0.21,0.08,0.44,0.11,0.62,0.13c0.17,0.02,0.29,0.03,0.3,0.08c0.01,0.05-0.12,0.11-0.31,0.11c-0.2,0-0.47-0.05-0.69-0.17
					c-0.23-0.12-0.41-0.3-0.5-0.45c-0.05-0.07-0.08-0.14-0.1-0.18C24.01,47.04,24,47.01,24,47.01z"/>
				<path class="st7" d="M23.44,47.79c0,0,0.01,0.02,0.03,0.06c0.02,0.04,0.05,0.09,0.1,0.14c0.09,0.11,0.24,0.24,0.42,0.31
					c0.36,0.16,0.77,0.12,0.78,0.2c0.01,0.04-0.1,0.07-0.27,0.07c-0.16-0.01-0.39-0.05-0.58-0.16c-0.19-0.1-0.33-0.27-0.39-0.4
					c-0.04-0.06-0.05-0.12-0.06-0.16C23.45,47.81,23.44,47.79,23.44,47.79z"/>
			</g>
		</g>
		<g>
			<path class="st2" d="M22.23,49.48c-0.6-0.57,3.71-2.52,1.96-6.29c-0.96-2.05-4.2-2.93-8.06-3.13c-4.93-0.25-3.74-8.23,3.39-8.47
				c4.68-0.16,9.84,2.37,10,9.32C29.68,47.86,22.83,50.04,22.23,49.48z M27.31,37.22c-4.48-5.42-10.61,1.79-6.64,3.27
				c1.65,0.62,4.43,1.22,4.43,4.47c0,1.07-0.64,2.46-1.97,3.61c-1.33,1.14,1.28,1.09,3.75-1.56C29.36,44.36,29.71,40.12,27.31,37.22
				z"/>
		</g>
		<g class="st8">
			<path class="st3" d="M20.85,40.33c0,0,7.05,1.57,3.48,7.54C24.32,47.88,29.44,41.96,20.85,40.33z"/>
		</g>
	</g>
	<g>
		<g>
			<path class="st2" d="M-3.68,39.78c-3.8,0.67-6.87,1.94-7.49,4.1c-1.15,3.95,3.43,5.35,2.92,5.98c-0.5,0.64-7.63-0.67-8.56-7.57
				c-0.93-6.9,3.78-10.04,8.44-10.47C-1.27,31.16,1.17,38.92-3.68,39.78z"/>
			<g>
				<path class="st7" d="M-5.17,40.08c0,0-0.13-0.07-0.37-0.19c-0.23-0.12-0.57-0.27-0.94-0.52c-0.09-0.06-0.19-0.12-0.29-0.18
					c-0.05-0.03-0.1-0.06-0.15-0.09c-0.05-0.03-0.1-0.07-0.15-0.11c-0.2-0.15-0.41-0.3-0.62-0.47c-0.2-0.18-0.41-0.36-0.61-0.55
					c-0.1-0.1-0.19-0.2-0.29-0.3c-0.1-0.1-0.2-0.2-0.28-0.31c-0.72-0.85-1.23-1.82-1.51-2.57c-0.3-0.75-0.4-1.27-0.56-1.26
					c-0.16,0-0.2,0.59,0.05,1.4c0.24,0.82,0.83,1.84,1.65,2.69c0.09,0.11,0.21,0.21,0.32,0.31c0.11,0.1,0.22,0.2,0.33,0.3
					c0.23,0.19,0.47,0.35,0.69,0.52c0.23,0.16,0.47,0.29,0.69,0.43c0.06,0.03,0.11,0.07,0.16,0.1c0.06,0.03,0.11,0.06,0.17,0.08
					c0.11,0.05,0.22,0.11,0.32,0.15c0.4,0.21,0.77,0.33,1.01,0.42C-5.31,40.03-5.17,40.08-5.17,40.08z"/>
				<path class="st7" d="M-7.13,40.64c0,0-0.13-0.03-0.36-0.08c-0.11-0.03-0.25-0.07-0.4-0.12c-0.15-0.06-0.32-0.12-0.5-0.2
					c-0.36-0.16-0.75-0.39-1.12-0.69c-0.37-0.29-0.73-0.65-1.04-1.03c-0.31-0.38-0.58-0.79-0.81-1.19c-0.23-0.39-0.42-0.77-0.57-1.1
					c-0.31-0.66-0.51-1.1-0.66-1.07c-0.15,0.03-0.11,0.54,0.16,1.24c0.14,0.35,0.33,0.75,0.58,1.16c0.25,0.41,0.56,0.83,0.92,1.21
					c0.36,0.38,0.77,0.73,1.2,1c0.43,0.28,0.87,0.48,1.26,0.6c0.19,0.07,0.38,0.11,0.54,0.15c0.16,0.03,0.31,0.06,0.43,0.08
					C-7.26,40.63-7.13,40.64-7.13,40.64z"/>
				<path class="st7" d="M-8.62,41.27c0,0-0.13-0.01-0.36-0.04c-0.11-0.01-0.25-0.04-0.41-0.07c-0.08-0.01-0.16-0.04-0.24-0.05
					c-0.09-0.02-0.18-0.04-0.27-0.07c-0.37-0.1-0.78-0.27-1.18-0.5c-0.4-0.23-0.77-0.54-1.1-0.88c-0.66-0.69-1.07-1.52-1.35-2.15
					c-0.28-0.64-0.42-1.07-0.58-1.05c-0.15,0.02-0.16,0.51,0.08,1.21c0.23,0.69,0.73,1.58,1.5,2.28c0.38,0.35,0.82,0.65,1.28,0.85
					c0.45,0.21,0.91,0.34,1.3,0.4c0.4,0.07,0.73,0.08,0.96,0.08C-8.76,41.28-8.62,41.27-8.62,41.27z"/>
				<path class="st7" d="M-9.84,42.04c0,0-0.11,0-0.29,0.01c-0.09,0-0.21-0.01-0.33-0.01c-0.13-0.01-0.27-0.02-0.43-0.06
					c-0.31-0.06-0.65-0.16-0.99-0.32c-0.34-0.16-0.67-0.37-0.98-0.62c-0.61-0.49-1.09-1.09-1.45-1.55
					c-0.36-0.46-0.59-0.76-0.74-0.71c-0.14,0.06-0.04,0.45,0.29,0.96c0.33,0.51,0.88,1.14,1.6,1.62c0.35,0.24,0.75,0.44,1.14,0.57
					c0.39,0.13,0.78,0.19,1.11,0.21c0.16,0.01,0.32,0,0.45,0c0.13-0.01,0.25-0.03,0.34-0.04C-9.94,42.06-9.84,42.04-9.84,42.04z"/>
				<path class="st7" d="M-10.88,43.19c0,0-0.08,0-0.22,0c-0.14,0-0.34,0.01-0.58-0.02c-0.24-0.01-0.52-0.06-0.8-0.12
					c-0.28-0.07-0.58-0.17-0.86-0.3l-0.2-0.1c-0.07-0.04-0.13-0.08-0.19-0.11c-0.13-0.07-0.25-0.16-0.36-0.23
					c-0.22-0.16-0.42-0.33-0.59-0.48c-0.33-0.3-0.52-0.52-0.63-0.47c-0.1,0.05,0.01,0.35,0.33,0.7c0.16,0.18,0.38,0.36,0.63,0.53
					c0.13,0.08,0.26,0.17,0.41,0.24c0.07,0.04,0.15,0.07,0.22,0.11l0.23,0.09c0.15,0.07,0.32,0.1,0.48,0.14
					c0.16,0.04,0.32,0.06,0.48,0.09c0.31,0.03,0.6,0.05,0.85,0.03c0.25,0,0.45-0.05,0.59-0.07C-10.96,43.2-10.88,43.19-10.88,43.19z
					"/>
				<path class="st7" d="M-11.26,44.21c0,0-0.07,0.01-0.19,0.03c-0.06,0.01-0.14,0.02-0.22,0.04c-0.04,0.01-0.09,0.02-0.14,0.02
					c-0.05,0.01-0.1,0.01-0.15,0.02c-0.42,0.06-0.99,0.08-1.54,0.02c-0.55-0.06-1.07-0.23-1.44-0.39c-0.37-0.16-0.58-0.31-0.65-0.25
					c-0.07,0.06,0.11,0.29,0.5,0.5c0.39,0.21,0.97,0.38,1.56,0.4c0.59,0.02,1.17-0.06,1.59-0.18c0.05-0.01,0.1-0.02,0.15-0.04
					c0.05-0.01,0.09-0.03,0.13-0.04c0.08-0.03,0.15-0.05,0.21-0.07C-11.33,44.23-11.26,44.21-11.26,44.21z"/>
				<path class="st7" d="M-11.36,45.19c0,0-0.04,0.03-0.12,0.08c-0.04,0.02-0.08,0.06-0.14,0.09c-0.06,0.03-0.12,0.06-0.19,0.09
					c-0.29,0.12-0.7,0.22-1.12,0.23c-0.42,0.02-0.84-0.02-1.16-0.05c-0.32-0.03-0.53-0.05-0.55,0.02c-0.02,0.07,0.18,0.16,0.51,0.22
					c0.33,0.06,0.78,0.08,1.22,0.03c0.44-0.05,0.87-0.2,1.15-0.37c0.07-0.04,0.13-0.09,0.18-0.12c0.05-0.04,0.09-0.08,0.12-0.11
					C-11.4,45.22-11.36,45.19-11.36,45.19z"/>
				<path class="st7" d="M-11.22,46.09c0,0-0.03,0.02-0.09,0.07c-0.03,0.02-0.06,0.05-0.1,0.08c-0.04,0.03-0.09,0.05-0.14,0.09
					c-0.2,0.12-0.5,0.24-0.81,0.3c-0.62,0.14-1.26,0.12-1.27,0.25c-0.01,0.07,0.17,0.11,0.42,0.11c0.26,0,0.6-0.05,0.92-0.16
					c0.32-0.11,0.61-0.28,0.79-0.44c0.04-0.04,0.08-0.08,0.12-0.11c0.03-0.04,0.06-0.07,0.08-0.1
					C-11.25,46.12-11.22,46.09-11.22,46.09z"/>
				<path class="st7" d="M-10.92,46.84c0,0-0.02,0.03-0.05,0.07c-0.02,0.02-0.04,0.05-0.06,0.08c-0.03,0.03-0.06,0.06-0.09,0.1
					c-0.13,0.14-0.35,0.3-0.59,0.4c-0.49,0.21-1.04,0.22-1.04,0.33c0,0.06,0.15,0.08,0.37,0.06c0.22-0.03,0.51-0.1,0.76-0.24
					c0.26-0.14,0.46-0.34,0.56-0.51c0.03-0.04,0.05-0.08,0.07-0.12c0.01-0.04,0.03-0.07,0.04-0.1
					C-10.93,46.87-10.92,46.84-10.92,46.84z"/>
				<path class="st7" d="M-10.39,47.63c0,0-0.02,0.02-0.04,0.07c-0.03,0.04-0.06,0.1-0.12,0.17c-0.1,0.14-0.27,0.29-0.47,0.4
					c-0.2,0.11-0.42,0.17-0.59,0.21c-0.17,0.04-0.29,0.06-0.29,0.12c0,0.05,0.13,0.09,0.33,0.07c0.2-0.02,0.45-0.1,0.66-0.25
					c0.21-0.14,0.36-0.35,0.43-0.5c0.04-0.08,0.06-0.15,0.07-0.19C-10.4,47.66-10.39,47.63-10.39,47.63z"/>
				<path class="st7" d="M-9.71,48.33c0,0-0.01,0.02-0.02,0.06c-0.01,0.04-0.03,0.09-0.07,0.15c-0.07,0.12-0.2,0.27-0.36,0.36
					c-0.33,0.2-0.75,0.21-0.74,0.29c0,0.04,0.11,0.06,0.28,0.03c0.16-0.03,0.38-0.1,0.55-0.23c0.17-0.13,0.29-0.31,0.33-0.44
					c0.03-0.07,0.03-0.13,0.04-0.17C-9.72,48.36-9.71,48.33-9.71,48.33z"/>
			</g>
		</g>
		<g>
			<path class="st2" d="M-16.81,42.28c-0.93-6.9,3.78-10.04,8.44-10.47c7.1-0.65,9.53,7.1,4.69,7.96c-3.8,0.67-6.87,1.94-7.49,4.1
				c-1.15,3.95,3.43,5.35,2.92,5.98C-8.75,50.49-15.88,49.19-16.81,42.28z M-13.25,47.99c2.87,2.32,5.45,2.05,3.96,1.08
				c-1.5-0.97-2.35-2.27-2.51-3.33c-0.51-3.22,2.15-4.16,3.69-4.97c3.7-1.97-3.5-8.34-7.09-2.42
				C-17.12,41.52-16.11,45.68-13.25,47.99z"/>
		</g>
		<g class="st8">
			<path class="st3" d="M-8.31,40.63c0,0-6.74,2.44-2.26,7.9C-10.57,48.53-16.57,43.31-8.31,40.63z"/>
		</g>
	</g>
	<g>
		<g>
			<g>
				<path class="st2" d="M16.25,17.72c-4.75-3.76,3.15-17.34,4.87-25.96c2.17-10.88,0.72-15.45,5.19-15.4
					c4.53,0.05,3.77,15.06,3.21,23C28.95,7.31,24.07,23.9,16.25,17.72z"/>
				<path class="st3" d="M24.49-23.25c0,0-0.48-1.68,0-2.98c0.32-0.88,1.15,0.87,1.62,2.6v0C25.45-23.62,24.92-23.5,24.49-23.25z"/>
				<path class="st3" d="M23.56-22.28c-1.43-1.32-1.37-3.92-0.57-3.18c0.45,0.42,0.72,1.37,1.49,2.22
					C24.1-23.02,23.8-22.71,23.56-22.28z"/>
				<path class="st3" d="M28.12-22.48L28.12-22.48c-0.18-0.28-0.38-0.52-0.6-0.7v0c0,0,0.84-0.72,1.57-1.7
					C29.61-25.6,29.71-23.54,28.12-22.48z"/>
				<path class="st3" d="M26.12-23.63L26.12-23.63c0,0,0.5-0.97,0.93-2.48c0.4-1.41,1.52,0.71,0.45,2.92
					c-0.34-0.28-0.74-0.43-1.19-0.43C26.24-23.64,26.18-23.64,26.12-23.63z"/>
				<g class="st9">
					<path class="st10" d="M24.49-23.25c0,0-0.02-0.06-0.04-0.18c0.37,0.02,0.72-0.23,0.85-0.53c0.22-0.51,0.07-1.05-0.17-1.53
						c-0.15-0.29-0.39-0.52-0.68-0.61c0.01-0.05,0.03-0.09,0.05-0.14c0.32-0.88,1.15,0.87,1.62,2.6v0
						C25.45-23.62,24.92-23.5,24.49-23.25z"/>
				</g>
				<g class="st9">
					<path class="st10" d="M23.56-22.28c-0.07-0.07-0.14-0.13-0.2-0.21c0.29-0.13,0.51-0.4,0.56-0.73c0.07-0.45-0.26-0.89-0.6-1.2
						c-0.23-0.21-0.56-0.4-0.89-0.4c-0.02-0.62,0.19-0.98,0.56-0.64c0.45,0.42,0.72,1.37,1.49,2.22
						C24.1-23.02,23.8-22.71,23.56-22.28z"/>
				</g>
				<g class="st9">
					<path class="st10" d="M28.12-22.48L28.12-22.48c-0.18-0.28-0.38-0.52-0.6-0.7v0c0,0,0.04-0.04,0.11-0.1
						c0.03,0.02,0.06,0.03,0.09,0.05c0.24,0.1,0.51,0.1,0.75,0.02c0.38-0.13,0.66-0.48,0.72-0.83c0.04-0.26,0.03-0.58-0.13-0.82
						c0.01-0.01,0.01-0.02,0.02-0.02C29.61-25.6,29.71-23.54,28.12-22.48z"/>
				</g>
				<g class="st9">
					<path class="st10" d="M27.49-23.2c-0.34-0.28-0.74-0.43-1.19-0.43c-0.06,0-0.12,0-0.19,0l0,0c0,0,0.05-0.09,0.13-0.26
						c0.26,0.12,0.57,0.13,0.89-0.07c0.58-0.35,0.74-1.11,0.59-1.68c-0.07-0.29-0.27-0.59-0.57-0.74
						C27.61-27.19,28.48-25.24,27.49-23.2z"/>
				</g>
			</g>
			<g>
				<path class="st7" d="M24.73,5.83c0.11-2.18,2.02-2.65,0.85-4.93c-0.74-1.61-0.85-2.56,0.64-3.88c0.93-0.69,2.26-1.38,3.53-1.56
					c-0.07,1.41-0.16,2.73-0.24,3.9c-0.19,2.65-0.85,6.25-1.95,9.65C25.99,8.56,24.65,7.41,24.73,5.83z"/>
				<path class="st7" d="M22.71-9.8c-0.11,1.23,1.17,1.99,0.11,3.03c-0.49,0.5-1.41,0.67-2.22,0.67c0.21-0.74,0.38-1.46,0.52-2.14
					c0.5-2.48,0.8-4.64,1.03-6.48C24.22-14.45,22.8-10.8,22.71-9.8z"/>
				<path class="st7" d="M27.71-13.97c-1.28-1.52,0.74-1.71,1.06-2.75c0.21-0.85-0.96-1.71-0.21-2.56c0.18-0.2,0.4-0.33,0.65-0.41
					c0.4,1.76,0.61,3.96,0.69,6.31C29.16-13.32,28.19-13.38,27.71-13.97z"/>
			</g>
		</g>
		<g>
			<path class="st2" d="M22.71-8.78c-2.02,15.66,0.96,27.4,4.31,19.38l0,0c-2.27,6.12-5.96,10.93-10.77,7.12
				c-4.75-3.76,3.15-17.34,4.87-25.96c2.17-10.88,0.72-15.45,5.19-15.4c1.4,0.02,2.29,1.46,2.84,3.67
				C28.13-23.59,24.4-21.95,22.71-8.78z"/>
		</g>
		<path class="st2" d="M26.84-20.35c0,0,3.52,4.81,2.29,17.7c-0.8,8.42-3.84,13.72-3.84,13.72S30.88-5.74,26.84-20.35z"/>
	</g>
	<g>
		<g>
			<g>
				<path class="st2" d="M-7.09,17.72c4.75-3.76-3.15-17.34-4.87-25.96c-2.18-10.88-0.72-15.45-5.19-15.4
					c-4.53,0.05-4.54,17-3.98,24.94C-20.56,9.25-14.91,23.9-7.09,17.72z"/>
				<path class="st3" d="M-15.33-23.25c0,0,0.48-1.68,0-2.98c-0.32-0.88-1.15,0.87-1.62,2.6v0C-16.29-23.62-15.76-23.5-15.33-23.25z
					"/>
				<path class="st3" d="M-14.4-22.28c1.43-1.32,1.37-3.92,0.57-3.18c-0.45,0.42-0.72,1.37-1.49,2.22
					C-14.93-23.02-14.64-22.71-14.4-22.28z"/>
				<path class="st3" d="M-18.96-22.48L-18.96-22.48c0.18-0.28,0.38-0.52,0.6-0.7v0c0,0-0.84-0.72-1.57-1.7
					C-20.45-25.6-20.55-23.54-18.96-22.48z"/>
				<path class="st3" d="M-16.96-23.63L-16.96-23.63c0,0-0.5-0.97-0.93-2.48c-0.4-1.41-1.52,0.71-0.45,2.92
					c0.34-0.28,0.74-0.43,1.19-0.43C-17.08-23.64-17.02-23.64-16.96-23.63z"/>
				<g class="st9">
					<path class="st10" d="M-15.33-23.25c-0.28-0.16-0.61-0.27-0.99-0.33c0.58-0.8,1.27-1.95,0.5-2.71c0.2-0.23,0.38-0.26,0.5,0.06
						C-14.85-24.94-15.33-23.25-15.33-23.25z"/>
				</g>
				<g class="st9">
					<path class="st10" d="M-14.4-22.28c-0.24-0.42-0.54-0.74-0.92-0.96c0.03-0.03,0.05-0.06,0.08-0.09c0.09,0.06,0.19,0.1,0.3,0.13
						c0.29,0.07,0.65-0.03,0.87-0.22c0.36-0.3,0.55-0.74,0.52-1.18c-0.02-0.28-0.11-0.59-0.33-0.81c0.02-0.02,0.03-0.04,0.05-0.05
						C-13.03-26.21-12.97-23.6-14.4-22.28z"/>
				</g>
				<g class="st9">
					<path class="st10" d="M-18.83-22.66c0.02-0.28-0.06-0.57-0.2-0.83c-0.21-0.39-0.56-1.06-1.05-1.21
						c-0.06-0.02-0.13-0.03-0.19-0.04c0.02-0.3,0.15-0.41,0.35-0.15c0.72,0.98,1.57,1.7,1.57,1.7v0
						C-18.53-23.04-18.69-22.86-18.83-22.66z"/>
				</g>
				<g class="st9">
					<path class="st10" d="M-16.96-23.63c-0.06,0-0.12,0-0.19,0c-0.24,0-0.46,0.05-0.66,0.13c0.2-0.86-0.14-1.67-0.41-2.54
						c-0.06-0.18-0.16-0.28-0.28-0.33c0.2-0.3,0.46-0.28,0.61,0.26C-17.46-24.6-16.96-23.64-16.96-23.63L-16.96-23.63z"/>
				</g>
			</g>
			<g>
				<path class="st7" d="M-17.8-1.47c0.24,1.56-1.2,3.06-0.32,4.55c0.4,0.64,1.2,0.99,1.52,1.71c0.4,0.85,0.24,1.7-0.08,2.56
					c-0.37,1.05-1.18,2.45-2.28,3.28c-1.15-3.04-1.87-6.32-2.05-8.89c-0.12-1.64-0.21-3.67-0.24-5.85
					C-19.64-3.85-18.06-2.76-17.8-1.47z"/>
				<path class="st7" d="M-18.95-20.36c0.56,1.14-0.32,1.85-0.48,2.84c-0.16,0.99,0.8,1.85,0.16,2.84c-0.4,0.54-1.08,0.73-1.8,0.83
					c0.26-2.83,0.69-5.4,1.39-7.19C-19.37-20.86-19.11-20.63-18.95-20.36z"/>
				<path class="st7" d="M-14.88-7.36c0.96-1.85-0.24-2.34-0.16-4.12c0.13-1.11,1.13-1.84,2.15-2.46c0.22,1.66,0.51,3.56,0.93,5.7
					c0.17,0.87,0.41,1.79,0.69,2.75C-12.91-4.12-16.6-3.95-14.88-7.36z"/>
			</g>
		</g>
		<g>
			<path class="st2" d="M-7.09,17.72c-4.89,3.87-8.94-0.42-11.42-6.11c3.55,7.2,4.56,1.45,4.21-14.2
				c-0.35-15.64-1.72-23.15-5.02-19.26c0.57-1.11,1.28-1.78,2.17-1.79c4.47-0.05,3.01,4.51,5.19,15.4
				C-10.23,0.38-2.33,13.96-7.09,17.72z"/>
		</g>
	</g>
	<path class="st2" d="M-16.71,12.05c0,0-4.01-4.49-4.17-17.42c-0.1-8.45,2.35-13.98,2.35-13.98S-22.3-2.16-16.71,12.05z"/>
	<g>
		<path class="st11" d="M6.91,43.35c18.69-0.9,18.35-22.09,13.73-38.7c-3.17-11.37-1.46-17.93-0.48-26.4
			c0.8-6.86-6.22-10.63-15.16-11.16c-8.94-0.53-18.2,3.66-16.28,10.09c1.92,6.43,0,15.09-1.6,28.6
			C-14.48,19.28-14.96,44.41,6.91,43.35z"/>
		<g class="st5">
			<path class="st11" d="M6.91,43.35c-21.87,1.05-21.39-24.07-19.79-37.58c1.6-13.5,3.51-22.16,1.6-28.6
				c-1.92-6.43,7.34-10.62,16.28-10.09c8.94,0.53,15.96,4.3,15.16,11.16c-0.99,8.47-2.69,15.03,0.48,26.4
				C25.26,21.27,25.6,42.45,6.91,43.35z M16.59-16.81c0.58-10.72-7.18-14.21-14.76-13.52c-7.58,0.69-11.15,4.42-10.22,15.61
				c0.54,6.54-3.01,16.05-3.9,26.91c-0.89,10.86,0,14.17,1.32,18.76c3.71,12.95,24.89,17.03,30.66,3.43
				C26.65,17.91,15.1,10.79,16.59-16.81z"/>
		</g>
	</g>
	<g>
		<path class="st12" d="M-2.69,9.71c-2.22,0.14-5.03-0.77-4.25-4.36c0.78-3.59,5.3-3.8,9.68-2.58c4.38,1.22,8.76-2.65,12.47,1.22
			c3.7,3.87,1.67,8.61-1.59,8.67c-2.5,0.05-2.8-0.82-5.57-3.27C4.97,6.68-1.06,9.61-2.69,9.71z"/>
		<path class="st2" d="M-5.59,8.2C-6.91,6.79-6.82,3.13-1.5,2.8c5.32-0.33,4.68,2.04,8.83,0.62c4.15-1.42,9.26,0.19,8.89,5.02
			c-0.37,4.83-4.1,4.12-5.48,2.7C9.36,9.71,6.99,6.61,1,8.2C-2.4,9.1-4.58,9.26-5.59,8.2z"/>
		<path class="st2" d="M-4.33,7.77c-1.39-0.93,0.04-5,4.6-3.48c4.18,1.39,4.94,1.03,7.01,0.36c2.07-0.67,5.66-1.16,6.92,2.33
			c1.27,3.49-1.1,4.75-3.59,2.46C8.13,7.15,5.78,5.88,2,6.37C-0.43,6.69-3.17,8.54-4.33,7.77z"/>
		<path class="st13" d="M-3.82,7.48c-1.32-0.74,0.04-3.96,4.35-2.76C4.48,5.82,5.19,5.53,7.15,5c1.96-0.53,5.35-0.92,6.54,1.85
			c1.2,2.77-1.04,3.77-3.39,1.95C7.95,6.99,5.73,5.98,2.16,6.37C-0.14,6.62-2.73,8.09-3.82,7.48z"/>
		<g>
			<path class="st3" d="M2.6,5.62c0.41-0.07,0.76,0.3,0.97,0.66c-0.45,0-0.91,0.03-1.4,0.08C2.08,6.38,2,6.39,1.92,6.4
				C2.04,6.05,2.28,5.69,2.6,5.62z"/>
			<path class="st3" d="M-2.59,5.43C-2.84,5.46-3.1,5.21-3.3,4.99c0.32-0.21,0.73-0.38,1.22-0.47C-2.13,4.87-2.25,5.37-2.59,5.43z"
				/>
			<path class="st3" d="M-2.13,6.23c0.38-0.01,0.73,0.56,0.91,1c-0.6,0.18-1.15,0.33-1.62,0.38C-2.85,7.14-2.69,6.23-2.13,6.23z"/>
			<path class="st3" d="M-0.13,5.98C0.3,5.78,0.75,6.2,1.02,6.57C0.46,6.71-0.1,6.88-0.64,7.05C-0.61,6.62-0.48,6.13-0.13,5.98z"/>
			<path class="st3" d="M8.13,6.37c0.48,0.05,0.71,0.86,0.71,1.41C8.32,7.46,7.8,7.19,7.25,6.97C7.46,6.67,7.78,6.34,8.13,6.37z"/>
			<path class="st3" d="M11.62,7.42c0.5,0.49,0.84,1.5,0.85,2.3C11.83,9.69,11.07,9.4,10.3,8.8c-0.18-0.14-0.35-0.27-0.53-0.4
				C10.12,7.61,10.81,6.57,11.62,7.42z"/>
			<path class="st3" d="M5.67,5.69C6.05,5.78,6.3,6.22,6.43,6.68C5.87,6.51,5.28,6.39,4.65,6.33C4.88,5.96,5.24,5.59,5.67,5.69z"/>
			<path class="st3" d="M-0.46,5.45c-0.46-0.03-0.72-0.57-0.86-1c0.51-0.01,1.08,0.07,1.72,0.23C0.25,5.08-0.02,5.5-0.46,5.45z"/>
			<path class="st3" d="M13.62,6.69c-0.5,0.23-1.09,0.43-1.41,0.28c-0.49-0.28-0.15-1.26-0.05-1.82
				C12.75,5.47,13.27,5.96,13.62,6.69z"/>
			<path class="st3" d="M10.34,5.57C10,5.55,9.92,5.01,9.87,4.62c0.45,0.01,0.91,0.06,1.34,0.16C10.96,5.16,10.62,5.58,10.34,5.57z"
				/>
			<path class="st3" d="M8.16,5.57C7.89,5.62,7.69,5.19,7.55,4.9c0.34-0.08,0.72-0.15,1.11-0.2C8.58,5.06,8.45,5.5,8.16,5.57z"/>
			<path class="st3" d="M1.86,5.76c-0.22-0.02-0.39-0.5-0.49-0.82C1.7,5.03,2.01,5.1,2.29,5.17C2.2,5.46,2.06,5.77,1.86,5.76z"/>
		</g>
		<g>
			<path class="st4" d="M2.99,6.3c0-0.01,0-0.01-0.01-0.02C2.96,6.2,2.92,6.12,2.87,6.05C2.82,5.97,2.74,5.91,2.65,5.87
				c-0.1-0.07-0.22-0.1-0.34-0.1C2.4,5.7,2.5,5.64,2.6,5.62c0.41-0.07,0.76,0.3,0.97,0.66C3.38,6.29,3.19,6.29,2.99,6.3z"/>
			<path class="st4" d="M-2.47,4.96C-2.5,4.84-2.58,4.75-2.67,4.69c0.18-0.07,0.38-0.12,0.59-0.16C-2.13,4.84-2.23,5.28-2.5,5.4
				C-2.44,5.26-2.42,5.1-2.47,4.96z"/>
			<path class="st4" d="M-1.62,7.34c0.02-0.07,0.04-0.15,0.04-0.23c0.01-0.26-0.16-0.52-0.43-0.64c-0.07-0.03-0.14-0.05-0.21-0.06
				C-2.3,6.39-2.39,6.38-2.49,6.39c0.1-0.1,0.21-0.16,0.36-0.16c0.38-0.01,0.73,0.56,0.91,1C-1.36,7.27-1.49,7.31-1.62,7.34z"/>
			<path class="st4" d="M0.59,6.68c0-0.01,0-0.02,0-0.03C0.57,6.57,0.5,6.47,0.42,6.4C0.35,6.24,0.2,6.12,0,6.1
				c-0.01,0-0.03,0-0.04-0.01c0.01,0,0.02,0,0.03,0.01c-0.07-0.02-0.13-0.02-0.22-0.01c-0.03,0-0.05,0.01-0.08,0.02
				c0.05-0.05,0.11-0.1,0.18-0.13C0.3,5.78,0.75,6.2,1.02,6.57C0.88,6.61,0.73,6.64,0.59,6.68z"/>
			<path class="st4" d="M8.34,7.49c0.07-0.1,0.07-0.11,0.12-0.26c0.02-0.05,0.02-0.22,0.02-0.16c0.01-0.15-0.09-0.36-0.23-0.44
				C8.22,6.61,8.19,6.6,8.17,6.58c-0.1-0.09-0.22-0.14-0.35-0.15c0.1-0.05,0.21-0.08,0.31-0.07c0.48,0.05,0.71,0.86,0.71,1.41
				C8.67,7.68,8.5,7.58,8.34,7.49z"/>
			<path class="st4" d="M10.68,9.07c0.18,0,0.36-0.05,0.53-0.16c0.3-0.2,0.5-0.57,0.46-0.9c-0.04-0.33-0.23-0.67-0.61-0.79
				c-0.11-0.03-0.22-0.05-0.33-0.05C11,7.04,11.3,7.08,11.62,7.42c0.5,0.49,0.84,1.5,0.85,2.3C11.94,9.69,11.32,9.48,10.68,9.07z"/>
			<path class="st4" d="M5.94,6.55c0.03-0.12,0.03-0.24,0-0.36C5.86,5.92,5.61,5.77,5.32,5.72c-0.01,0-0.02,0-0.03,0
				c0.12-0.04,0.25-0.06,0.38-0.03C6.05,5.78,6.3,6.22,6.43,6.68C6.27,6.63,6.11,6.59,5.94,6.55z"/>
			<path class="st4" d="M-0.19,5.34C-0.02,5.19,0.03,4.97,0,4.77L0.01,4.8c0-0.01,0-0.02-0.01-0.04c0-0.04-0.01-0.08-0.02-0.11
				c0,0.02,0.01,0.04,0.01,0.05c-0.01-0.04-0.02-0.08-0.03-0.12C0.1,4.61,0.25,4.65,0.4,4.69C0.27,5.03,0.05,5.4-0.31,5.45
				C-0.27,5.42-0.23,5.39-0.19,5.34z"/>
			<path class="st4" d="M12.19,6.59c0.18,0.05,0.39,0.03,0.57-0.04c0.24-0.09,0.4-0.31,0.43-0.54c0.16,0.2,0.3,0.42,0.42,0.67
				c-0.5,0.23-1.09,0.43-1.41,0.28c-0.16-0.09-0.23-0.25-0.25-0.45C12.03,6.56,12.11,6.58,12.19,6.59z"/>
			<path class="st4" d="M10.18,5.46c0.14-0.07,0.25-0.18,0.31-0.3c0.06-0.12,0.1-0.29,0.06-0.43c0-0.02-0.01-0.05-0.01-0.07
				c0.23,0.03,0.45,0.07,0.67,0.12c-0.25,0.38-0.6,0.8-0.88,0.78c-0.08,0-0.14-0.04-0.2-0.09C10.16,5.47,10.17,5.47,10.18,5.46z"/>
			<path class="st4" d="M8.06,5.42C8.12,5.35,8.17,5.26,8.2,5.17c0.04-0.09,0.06-0.18,0.06-0.28c0-0.05-0.01-0.09-0.02-0.13
				C8.37,4.74,8.51,4.71,8.65,4.7C8.58,5.06,8.45,5.5,8.16,5.57C8.09,5.58,8.02,5.56,7.95,5.51C7.99,5.49,8.03,5.45,8.06,5.42z"/>
			<path class="st4" d="M1.78,5.71c0.2-0.15,0.28-0.39,0.24-0.61c0.1,0.02,0.19,0.04,0.28,0.06c-0.1,0.3-0.24,0.61-0.44,0.59
				c-0.03,0-0.06-0.02-0.09-0.04C1.77,5.72,1.77,5.72,1.78,5.71z"/>
		</g>
		<path class="st14" d="M-4.9,10.01c0,0-0.09,0.02-0.26,0.05c-0.17,0.02-0.41,0.06-0.7,0.04c-0.29-0.01-0.65-0.07-0.99-0.22
			c-0.35-0.15-0.67-0.4-0.9-0.72c-0.23-0.32-0.36-0.68-0.39-1.03c-0.04-0.35,0.02-0.68,0.12-0.94c0.1-0.27,0.24-0.46,0.36-0.58
			c0.13-0.12,0.23-0.16,0.3-0.12c0.13,0.09-0.04,0.37-0.15,0.83c-0.05,0.23-0.1,0.49-0.08,0.78c0.01,0.29,0.1,0.59,0.25,0.86
			c0.16,0.27,0.39,0.51,0.66,0.67c0.27,0.17,0.58,0.27,0.85,0.32C-5.57,10-5.33,10-5.16,10.01C-5,10.01-4.9,10.01-4.9,10.01z"/>
		<path class="st14" d="M12.18,13.45c0,0,0.07,0.04,0.2,0.11c0.06,0.03,0.14,0.08,0.23,0.12c0.09,0.04,0.2,0.09,0.31,0.14
			c0.12,0.04,0.24,0.09,0.38,0.13c0.07,0.02,0.14,0.03,0.21,0.05c0.04,0.01,0.07,0.02,0.11,0.03c0.04,0,0.07,0.01,0.11,0.01
			c0.3,0.05,0.62,0.03,0.91-0.06c0.29-0.09,0.52-0.27,0.69-0.47c0.04-0.05,0.08-0.1,0.12-0.15c0.03-0.06,0.06-0.11,0.1-0.16
			c0.02-0.03,0.03-0.05,0.05-0.08c0.01-0.03,0.02-0.05,0.04-0.08c0.02-0.05,0.05-0.1,0.07-0.15c0.08-0.2,0.14-0.38,0.19-0.5
			c0.05-0.12,0.11-0.19,0.16-0.19c0.06,0,0.09,0.08,0.1,0.22c0.02,0.14-0.01,0.34-0.08,0.57c-0.02,0.06-0.04,0.12-0.07,0.18
			c-0.01,0.03-0.02,0.06-0.04,0.09c-0.02,0.03-0.03,0.06-0.05,0.09c-0.04,0.06-0.07,0.13-0.11,0.19c-0.05,0.06-0.1,0.12-0.15,0.19
			c-0.22,0.24-0.55,0.46-0.91,0.54c-0.37,0.09-0.75,0.07-1.07-0.02c-0.04-0.01-0.08-0.02-0.12-0.03c-0.04-0.01-0.08-0.03-0.11-0.04
			c-0.07-0.03-0.15-0.05-0.22-0.08c-0.13-0.06-0.26-0.12-0.37-0.18c-0.11-0.07-0.2-0.13-0.29-0.18c-0.09-0.05-0.15-0.11-0.21-0.15
			C12.24,13.5,12.18,13.45,12.18,13.45z"/>
		<path class="st12" d="M3.86,25.37c0.01-4.04-5.23-5.36-7.88-3.55c0,0,0.85-1.14,3.31-1.38c-1.81-0.28-5.43,0.42-5.82,4.66
			c-0.13,1.46-0.13,1.97-0.13,1.97s-0.96,0.08-1.55,0.27c0,0,4.93,0.15,11.66,3.62c1.75,0.9,0.87-0.8-0.92-1.81
			C2.52,29.14,3.85,27.76,3.86,25.37z"/>
		<path class="st12" d="M5.61,25.91c-0.01-4.04,5.01-5.8,7.66-4c0,0-0.74-0.78-2.9-1.02c2.21-0.22,5.24,0.66,5.61,4.48
			c0.14,1.46-0.03,2.29-0.03,2.29s0.95,0.08,1.55,0.27c0,0-4.93,0.15-11.66,3.62c-1.75,0.9-0.87-0.8,0.92-1.81
			C6.76,29.74,5.61,28.31,5.61,25.91z"/>
		<g>
			<defs>
				<path id="SVGID_1_" d="M7.29,30.06c0,0,4.15-2.29,8.91-2.28c0,0,1.99-6.86-4.9-7.1C4.41,20.44,3.65,28.06,7.29,30.06z"/>
			</defs>
			<clipPath id="SVGID_00000059273836940940590790000010149411577845792150_">
				<use xlink:href="#SVGID_1_"  style="overflow:visible;"/>
			</clipPath>
			<g style="clip-path:url(#SVGID_00000059273836940940590790000010149411577845792150_);">
				<path class="st3" d="M11.19,21.74c2.58,0.09,4.57,2.11,4.45,4.53c-0.12,2.41-2.31,4.3-4.9,4.21c-2.58-0.09-4.57-2.11-4.45-4.53
					C6.42,23.54,8.61,21.65,11.19,21.74z"/>
				<g>
					<path class="st16" d="M15.64,26.27c-0.12,2.41-2.31,4.3-4.9,4.21c-2.58-0.09-4.57-2.11-4.45-4.53c0.12-2.41,2.31-4.3,4.9-4.21
						C13.77,21.83,15.76,23.85,15.64,26.27z M14,24.29c-1.48-0.77-4.61-0.78-6.1-0.15c-2.51,1.06-1.35,6.16,2.92,6.17
						C15.24,30.33,16.59,25.63,14,24.29z"/>
				</g>
				<path class="st17" d="M6.9,24c0.84-1.4,2.47-2.32,4.29-2.26c1.83,0.06,3.37,1.1,4.06,2.56c-0.67-0.37-1.92-1.09-4.14-1.16
					C8.92,23.06,7.62,23.68,6.9,24z"/>
				<g class="st8">
					<path class="st17" d="M11.1,23.14C8.92,23.06,7.62,23.68,6.9,24c0.84-1.4,2.47-2.32,4.29-2.26c1.83,0.06,3.37,1.1,4.06,2.56
						C14.58,23.93,13.33,23.21,11.1,23.14z M11.32,21.9c-2.46-0.13-3.83,1.32-2.68,1.16c1.58-0.22,3.29-0.29,4.68,0.14
						C14.79,23.66,13.76,22.02,11.32,21.9z"/>
				</g>
				<g>
					<path class="st17" d="M10.92,24.86c0.91,0.03,1.61,0.71,1.57,1.52c-0.04,0.81-0.81,1.44-1.72,1.4
						c-0.91-0.03-1.61-0.71-1.57-1.52C9.25,25.46,10.02,24.83,10.92,24.86z"/>
					<path class="st18" d="M10.91,25.08c0.77,0.03,1.36,0.6,1.32,1.28c-0.03,0.68-0.68,1.21-1.45,1.19
						c-0.77-0.03-1.36-0.6-1.33-1.28C9.5,25.59,10.14,25.06,10.91,25.08z"/>
					<path class="st14" d="M10.89,25.47c0.49,0.02,0.86,0.41,0.84,0.88c-0.02,0.47-0.44,0.83-0.92,0.82
						c-0.49-0.02-0.86-0.41-0.84-0.88C9.99,25.82,10.41,25.45,10.89,25.47z"/>
					<path class="st3" d="M10.56,26.81c-0.07-0.18-0.25-0.31-0.42-0.29c-0.17,0.02-0.25,0.18-0.18,0.36
						c0.07,0.18,0.25,0.31,0.42,0.29C10.54,27.15,10.63,26.99,10.56,26.81z"/>
					<path class="st3" d="M10.11,26.16c0.01-0.08-0.04-0.15-0.12-0.16C9.92,26,9.85,26.06,9.83,26.14
						c-0.01,0.08,0.04,0.15,0.12,0.16C10.02,26.31,10.1,26.25,10.11,26.16z"/>
				</g>
			</g>
		</g>
		<g>
			<defs>
				<path id="SVGID_00000059275852023381195330000008913736877585180546_" d="M2.34,29.79c0,0-3.87-2.12-8.95-2.45
					c0,0-1.95-6.7,4.94-6.94C5.23,20.17,5.98,27.78,2.34,29.79z"/>
			</defs>
			<clipPath id="SVGID_00000119800896118313209140000003297637148149291669_">
				<use xlink:href="#SVGID_00000059275852023381195330000008913736877585180546_"  style="overflow:visible;"/>
			</clipPath>
			<g style="clip-path:url(#SVGID_00000119800896118313209140000003297637148149291669_);">
				<path class="st3" d="M-1.55,21.46c-2.58,0.09-4.58,2.11-4.45,4.53c0.12,2.41,2.31,4.3,4.89,4.22c2.58-0.09,4.58-2.11,4.45-4.53
					C3.22,23.26,1.03,21.38-1.55,21.46z"/>
				<g>
					<path class="st16" d="M-1.55,21.46c2.58-0.09,4.77,1.8,4.89,4.22c0.12,2.41-1.87,4.44-4.45,4.53c-2.58,0.09-4.77-1.8-4.89-4.22
						C-6.13,23.58-4.13,21.55-1.55,21.46z M-1.19,30.04c4.28-0.02,5.43-5.11,2.93-6.17c-1.48-0.63-4.61-0.62-6.1,0.15
						C-6.96,25.36-5.61,30.06-1.19,30.04z"/>
				</g>
				<path class="st17" d="M2.74,23.72c-0.84-1.4-2.47-2.32-4.29-2.26c-1.83,0.06-3.37,1.1-4.06,2.56c0.67-0.37,1.92-1.09,4.15-1.16
					C0.72,22.79,2.01,23.4,2.74,23.72z"/>
				<g class="st8">
					<path class="st17" d="M-5.61,24.02c0.69-1.46,2.23-2.5,4.06-2.56c1.82-0.06,3.45,0.86,4.29,2.26
						c-0.73-0.32-2.02-0.94-4.21-0.87C-3.7,22.93-4.94,23.65-5.61,24.02z M-3.68,22.92c1.38-0.43,3.09-0.36,4.68-0.14
						c1.15,0.16-0.23-1.28-2.68-1.16C-4.12,21.75-5.16,23.38-3.68,22.92z"/>
				</g>
				<g>
					<path class="st17" d="M-1.29,24.58c-0.91,0.03-1.61,0.71-1.57,1.51c0.04,0.81,0.81,1.44,1.71,1.41s1.61-0.71,1.57-1.51
						S-0.38,24.55-1.29,24.58z"/>
					<path class="st18" d="M-1.28,24.81c-0.77,0.03-1.36,0.6-1.33,1.28c0.03,0.68,0.68,1.21,1.45,1.19c0.77-0.03,1.36-0.6,1.33-1.28
						C0.14,25.31-0.51,24.78-1.28,24.81z"/>
					<path class="st14" d="M-1.26,25.19c-0.49,0.02-0.86,0.41-0.84,0.88c0.02,0.47,0.44,0.84,0.92,0.82
						c0.49-0.02,0.86-0.41,0.84-0.88C-0.36,25.54-0.77,25.18-1.26,25.19z"/>
					<path class="st3" d="M-1.47,26.59c-0.09-0.17-0.3-0.28-0.46-0.24c-0.16,0.04-0.22,0.2-0.13,0.37c0.09,0.17,0.3,0.28,0.46,0.24
						C-1.44,26.93-1.38,26.76-1.47,26.59z"/>
					<path class="st3" d="M-2.01,26c0-0.08-0.06-0.15-0.14-0.14c-0.08,0-0.14,0.07-0.14,0.15c0,0.08,0.06,0.15,0.14,0.14
						C-2.08,26.15-2.01,26.08-2.01,26z"/>
				</g>
			</g>
		</g>
		<path class="st14" d="M16.91,27.81c0,0-0.2,0.01-0.55,0.02c-0.18,0.01-0.39,0.02-0.63,0.03c-0.12,0-0.25,0.02-0.39,0.03
			c-0.14,0.02-0.28,0.03-0.43,0.05c-0.15,0.02-0.3,0.03-0.47,0.05c-0.16,0.02-0.32,0.05-0.49,0.08c-0.17,0.03-0.34,0.06-0.52,0.09
			c-0.09,0.02-0.18,0.03-0.27,0.05c-0.09,0.02-0.18,0.04-0.27,0.06c-0.73,0.16-1.49,0.37-2.23,0.63c-0.18,0.07-0.37,0.13-0.55,0.19
			c-0.18,0.07-0.36,0.15-0.54,0.22c-0.36,0.14-0.7,0.3-1.03,0.45c-0.17,0.07-0.32,0.16-0.48,0.24c-0.15,0.08-0.31,0.15-0.46,0.23
			c-0.29,0.16-0.57,0.3-0.82,0.45c-1.01,0.57-1.63,1-1.74,0.9c-0.11-0.1,0.44-0.66,1.44-1.29c0.25-0.16,0.53-0.32,0.83-0.48
			c0.15-0.08,0.31-0.16,0.47-0.24c0.16-0.08,0.32-0.17,0.5-0.24c0.35-0.15,0.7-0.31,1.07-0.44c0.19-0.07,0.37-0.14,0.56-0.21
			c0.19-0.06,0.39-0.12,0.58-0.18c0.77-0.24,1.57-0.41,2.32-0.53c0.09-0.02,0.19-0.03,0.28-0.05c0.09-0.01,0.19-0.02,0.28-0.03
			c0.18-0.02,0.36-0.04,0.53-0.06c0.17-0.02,0.34-0.04,0.51-0.05c0.16-0.01,0.32-0.01,0.47-0.02c0.15-0.01,0.3-0.01,0.44-0.02
			c0.14,0,0.27-0.01,0.39,0c0.25,0.01,0.46,0.02,0.64,0.02C16.71,27.8,16.91,27.81,16.91,27.81z"/>
		<path class="st14" d="M-7.3,27.33c0,0,0.76-0.02,1.9,0.09c0.57,0.05,1.23,0.14,1.94,0.26c0.7,0.13,1.45,0.29,2.18,0.5
			c0.18,0.05,0.37,0.11,0.55,0.16c0.18,0.06,0.36,0.12,0.53,0.18c0.18,0.06,0.35,0.12,0.52,0.19c0.17,0.07,0.34,0.14,0.5,0.2
			c0.16,0.07,0.33,0.13,0.48,0.2c0.15,0.07,0.3,0.15,0.45,0.22c0.14,0.07,0.29,0.14,0.42,0.21c0.13,0.07,0.26,0.15,0.38,0.22
			c0.24,0.15,0.46,0.28,0.65,0.4c0.18,0.14,0.34,0.26,0.46,0.36c0.24,0.21,0.36,0.35,0.31,0.41c-0.05,0.05-0.24-0.01-0.53-0.15
			c-0.14-0.07-0.32-0.17-0.51-0.28c-0.2-0.1-0.42-0.22-0.66-0.34c-0.12-0.06-0.24-0.13-0.38-0.2c-0.13-0.06-0.27-0.13-0.41-0.2
			c-0.14-0.07-0.29-0.14-0.43-0.21c-0.15-0.07-0.31-0.13-0.46-0.2c-0.16-0.07-0.32-0.14-0.48-0.21c-0.16-0.07-0.33-0.13-0.5-0.2
			c-0.17-0.07-0.34-0.13-0.51-0.2c-0.18-0.06-0.35-0.12-0.53-0.18c-0.7-0.24-1.42-0.44-2.1-0.61c-0.69-0.16-1.33-0.3-1.89-0.39
			C-6.53,27.38-7.3,27.33-7.3,27.33z"/>
		<path class="st14" d="M1.92,13.99c0,0,0.02,0.51,0.05,1.27c0.01,0.19,0.01,0.4,0.03,0.61c0.02,0.22,0.04,0.45,0.06,0.68
			c0.02,0.24,0.04,0.48,0.06,0.73c0.03,0.25,0.06,0.5,0.09,0.75c0.03,0.25,0.06,0.5,0.09,0.75c0.04,0.25,0.08,0.49,0.11,0.72
			c0.02,0.12,0.03,0.23,0.05,0.35c0.02,0.11,0.04,0.22,0.06,0.33c0.04,0.21,0.07,0.42,0.1,0.6c0.14,0.75,0.22,1.24,0.11,1.27
			c-0.12,0.03-0.32-0.46-0.5-1.21c-0.04-0.19-0.08-0.39-0.12-0.61c-0.02-0.11-0.04-0.22-0.06-0.33c-0.02-0.11-0.03-0.23-0.05-0.35
			c-0.03-0.24-0.06-0.48-0.09-0.73c-0.03-0.25-0.04-0.51-0.06-0.76c-0.01-0.25-0.03-0.51-0.04-0.76c0-0.25,0-0.5,0-0.74
			c0-0.24,0-0.47,0-0.69c0-0.22,0.02-0.43,0.03-0.62C1.89,14.5,1.92,13.99,1.92,13.99z"/>
		<path class="st14" d="M7.04,13.92c0,0,0.05,0.5,0.12,1.25c0.02,0.19,0.04,0.39,0.06,0.61c0.01,0.22,0.01,0.45,0.02,0.68
			c0.01,0.47,0.04,0.98,0.01,1.48c-0.01,0.25-0.02,0.51-0.03,0.75c-0.02,0.25-0.05,0.49-0.07,0.73c-0.04,0.47-0.13,0.91-0.21,1.29
			c-0.17,0.75-0.39,1.23-0.51,1.19c-0.11-0.03-0.01-0.52,0.12-1.26c0.05-0.37,0.14-0.8,0.19-1.27c0.03-0.23,0.07-0.47,0.09-0.72
			c0.02-0.25,0.05-0.49,0.07-0.74c0.06-0.5,0.07-1,0.1-1.47c0.01-0.24,0.03-0.46,0.04-0.68c0-0.22,0-0.42,0-0.61
			C7.04,14.42,7.04,13.92,7.04,13.92z"/>
		<path class="st12" d="M2.3,21.09c0,0-0.58-5-0.38-7.1c0.2-2.1,4.97-1.61,5.12-0.07c0.15,1.54,0.29,5.15-0.22,6.94
			c0,0,1.22-4.35,0.72-6.87c-0.27-1.38-1-2.06-3.05-2.06c-2.05,0-2.92,0.71-3.13,1.99C1.16,15.2,1.76,19.07,2.3,21.09z"/>
		<g>
			<path class="st2" d="M1.92,13.99C1.75,13,3.27,12.32,4.97,12.46c1.7,0.14,2.28,0.95,2.02,1.71c-0.18,0.52-1.12,1.63-2.49,1.63
				C3.35,15.8,2.05,14.72,1.92,13.99z"/>
			<path class="st20" d="M3.76,13.35c0.22-0.03,0.45,0.2,0.5,0.51c0.05,0.31-0.09,0.59-0.31,0.62c-0.22,0.03-0.45-0.2-0.5-0.51
				S3.54,13.38,3.76,13.35z"/>
			<path class="st20" d="M5.33,13.35c0.23,0.02,0.39,0.28,0.36,0.59c-0.03,0.31-0.23,0.55-0.46,0.54c-0.23-0.01-0.39-0.28-0.36-0.59
				C4.9,13.58,5.1,13.33,5.33,13.35z"/>
		</g>
		<path class="st11" d="M-5.38,38.15c0,0-5.54-2.85-6.62-13.96c-0.5-5.11,0.74-12.16,0.74-12.16S-13.2,28.9-5.38,38.15z"/>
		<path class="st11" d="M-7.3,27.76c0,0,5.11,0,10.74,3.45C3.44,31.21-1.5,28.94-7.3,27.76z"/>
		<path class="st11" d="M5.69,31.86c0,0,5.7-3.36,11.22-3.64C16.91,28.21,13.1,28.82,5.69,31.86z"/>
		<path class="st11" d="M0.35,9.37c0,0,5.51-1.76,9.03,1.7C9.38,11.07,6.45,6.81,0.35,9.37z"/>
		<path class="st12" d="M-7.34,6.68c-0.82,1.45,0.17,3.61,2.17,3.33C-5.16,10.01-7.62,9.33-7.34,6.68z"/>
		<path class="st12" d="M12.18,13.45c0,0,1.4,1.16,2.57,0.53c1.17-0.63,1.14-1.8,1.14-1.8S14.94,14.71,12.18,13.45z"/>
		<path class="st11" d="M3.32,22.38c0,0-0.94-3.24-1.03-6.58c0,0,0.04,0.36,1.27,0.43C3.57,16.23,2.94,18.14,3.32,22.38z"/>
	</g>
</symbol>
<use xlink:href="#Phillip"  width="59.87" height="100" x="-29.94" y="-50" transform="matrix(1 0 0 -1 29.9366 50)" style="overflow:visible;"/>
</svg>
