<?xml version="1.0" encoding="utf-8"?>
<!-- Generator: Adobe Illustrator 26.3.1, SVG Export Plug-In . SVG Version: 6.00 Build 0)  -->
<svg version="1.1" id="Layer_1" xmlns="http://www.w3.org/2000/svg" xmlns:xlink="http://www.w3.org/1999/xlink" x="0px" y="0px"
	 viewBox="0 0 100.56 100" style="enable-background:new 0 0 100.56 100;" xml:space="preserve">
<style type="text/css">
	.st0{opacity:0.3;}
	.st1{fill:#EA7F13;}
	.st2{fill:#FFE0B6;}
	.st3{fill:#EFAF62;}
	.st4{opacity:0.5;}
	.st5{opacity:0.8;fill:#F48B19;}
	.st6{fill:#F4AD0F;}
	.st7{fill:#E87900;}
	.st8{opacity:0.6;fill:#F4AD0F;}
	.st9{fill:#FFFFFF;}
	.st10{opacity:0.7;fill:#D1D1D1;}
	.st11{opacity:0.6;}
	.st12{fill:#FFC022;}
	.st13{fill:#FF9900;}
	.st14{opacity:0.8;fill:#FFC022;}
	.st15{fill:#994900;}
	.st16{opacity:0.4;}
	.st17{fill:#FFD524;}
	.st18{opacity:0.7;}
	.st19{fill:#FDB845;}
	.st20{fill:#BA4343;}
	.st21{opacity:0.7;fill:#FDB845;}
	.st22{fill:#D5D7D8;}
	.st23{fill:#EA8313;}
	.st24{fill:#F47D3F;}
	.st25{fill:#7A3B12;}
	.st26{fill:#E88989;}
</style>
<symbol  id="Likee" viewBox="-50.28 -50 100.56 100">
	<path class="st0" d="M-43.56-39.19c-0.09-0.02-0.17-0.05-0.26-0.07C-43.73-39.24-43.64-39.22-43.56-39.19z M-43.23-39.1
		c0.04,0.01,0.07,0.02,0.11,0.03c-0.07-0.02-0.14-0.04-0.21-0.06C-43.31-39.12-43.27-39.11-43.23-39.1z M-42.97-39.02
		c0.02,0.01,0.05,0.01,0.07,0.02c-0.03-0.01-0.06-0.02-0.09-0.03C-42.98-39.02-42.97-39.02-42.97-39.02z M-42.74-38.94
		c0.02,0.01,0.04,0.01,0.06,0.02c-0.06-0.02-0.12-0.04-0.17-0.06C-42.81-38.97-42.78-38.96-42.74-38.94z M-40.3-38.05
		c-0.09-0.04-0.18-0.08-0.28-0.11c-0.01,0-0.02-0.01-0.03-0.01c0.12,0.05,0.25,0.1,0.38,0.15C-40.26-38.03-40.28-38.04-40.3-38.05z
		 M-40.79-38.25c-0.15-0.06-0.29-0.11-0.43-0.17c-0.01,0-0.01-0.01-0.02-0.01c0.16,0.06,0.32,0.12,0.49,0.19
		C-40.76-38.24-40.78-38.24-40.79-38.25z M-41.41-38.49c-0.09-0.04-0.19-0.07-0.28-0.1c-0.02-0.01-0.03-0.01-0.05-0.02
		c0.13,0.05,0.26,0.09,0.39,0.14C-41.37-38.47-41.39-38.48-41.41-38.49z M-41.89-38.66c-0.09-0.03-0.19-0.07-0.28-0.1
		c-0.06-0.02-0.11-0.04-0.17-0.06l0,0c0,0,0,0,0,0c0.15,0.05,0.31,0.11,0.47,0.16C-41.88-38.66-41.89-38.66-41.89-38.66z
		 M-36.33-36.1c-0.01,0-0.02-0.01-0.02-0.01C-36.34-36.11-36.34-36.11-36.33-36.1C-36.33-36.1-36.33-36.1-36.33-36.1z M-35.94-35.88
		C-35.94-35.88-35.95-35.88-35.94-35.88C-35.95-35.88-35.94-35.88-35.94-35.88z M-33.97-34.66C-33.96-34.66-33.96-34.66-33.97-34.66
		C-33.96-34.66-33.96-34.66-33.97-34.66z M-27.27-29.44c-0.03-0.03-0.06-0.06-0.09-0.08c-0.02-0.01-0.03-0.03-0.05-0.04
		c0.04,0.04,0.08,0.08,0.13,0.12C-27.28-29.44-27.28-29.44-27.27-29.44z M-28.74-30.73c0.08,0.07,0.16,0.13,0.24,0.2
		C-28.58-30.59-28.66-30.66-28.74-30.73z M-27.96-30.05c-0.02-0.02-0.05-0.04-0.07-0.06c0,0,0.01,0.01,0.01,0.01
		C-28-30.09-27.98-30.07-27.96-30.05z M-23.26-25.48c0.23,0.24,0.46,0.49,0.68,0.74c-0.03-0.03-0.06-0.07-0.09-0.1
		c-0.12-0.14-0.25-0.27-0.37-0.4c-0.11-0.12-0.22-0.23-0.33-0.35c0.01,0.01,0.02,0.02,0.02,0.03
		C-23.31-25.54-23.29-25.51-23.26-25.48z M-23.39-25.62c-0.02-0.02-0.04-0.05-0.07-0.07c-0.13-0.13-0.26-0.27-0.38-0.4
		c-0.11-0.12-0.23-0.23-0.34-0.35C-23.92-26.18-23.65-25.9-23.39-25.62z M-42.55-38.88c0.06,0.02,0.13,0.04,0.19,0.06
		c-0.09-0.03-0.18-0.06-0.27-0.09C-42.6-38.9-42.57-38.89-42.55-38.88z M-33.08-10.46c-0.02,0.01-0.04,0.02-0.06,0.03
		C-33.12-10.45-33.1-10.46-33.08-10.46z M-26.44-12.97L-26.44-12.97c-0.02,0.01-0.04,0.03-0.06,0.04c0,0,0,0,0,0
		C-26.48-12.94-26.46-12.95-26.44-12.97z M-26.4-13c0,0,0.01-0.01,0.01-0.01C-26.4-13-26.4-13-26.4-13L-26.4-13z M-26.57-9.78
		c-0.01-0.03-0.02-0.06-0.02-0.09c0-0.01-0.01-0.02-0.01-0.03c-0.01-0.03-0.01-0.06-0.02-0.09c0-0.01-0.01-0.03-0.01-0.04
		c-0.01-0.03-0.01-0.06-0.02-0.09c0-0.01,0-0.01-0.01-0.02c0.07,0.31,0.14,0.55,0.18,0.68l0,0c-0.02-0.07-0.05-0.18-0.09-0.31
		C-26.57-9.77-26.57-9.77-26.57-9.78z M-26.69-10.25c0-0.01,0-0.02-0.01-0.03c0.01,0.05,0.02,0.1,0.03,0.14c0-0.01,0-0.02-0.01-0.03
		C-26.68-10.19-26.68-10.22-26.69-10.25z M-26.72-10.4c0-0.02-0.01-0.03-0.01-0.05c-0.01-0.03-0.01-0.07-0.02-0.1
		c0-0.01-0.01-0.03-0.01-0.04c-0.01-0.04-0.02-0.09-0.02-0.13c0-0.01,0-0.02,0-0.02c-0.01-0.05-0.02-0.11-0.03-0.16c0,0,0,0,0,0
		c-0.01-0.05-0.01-0.1-0.02-0.16c0-0.01,0-0.03,0-0.04c0-0.04-0.01-0.08-0.01-0.12c0,0,0-0.01,0-0.01c0.03,0.33,0.09,0.66,0.15,0.95
		c0-0.01,0-0.01,0-0.02C-26.71-10.33-26.71-10.36-26.72-10.4z M-26.86-11.39C-26.86-11.39-26.86-11.39-26.86-11.39
		c0,0.04,0.01,0.08,0.01,0.13c0-0.01,0-0.01,0-0.02C-26.86-11.32-26.86-11.35-26.86-11.39z M-26.87-11.55
		C-26.87-11.55-26.87-11.55-26.87-11.55c0,0.03,0,0.07,0.01,0.11c0,0,0-0.01,0-0.01C-26.87-11.48-26.87-11.51-26.87-11.55z
		 M-26.87-11.71C-26.87-11.71-26.87-11.71-26.87-11.71c0,0.03,0,0.07,0,0.11c0,0,0,0,0-0.01C-26.87-11.64-26.87-11.67-26.87-11.71z
		 M-26.87-11.76c0-0.03,0-0.07,0-0.1c0,0,0-0.01,0-0.01C-26.87-11.83-26.87-11.8-26.87-11.76C-26.87-11.76-26.87-11.76-26.87-11.76z
		 M-26.87-11.92c0-0.04,0.01-0.07,0.01-0.11c0,0,0-0.01,0-0.01C-26.86-11.99-26.87-11.95-26.87-11.92
		C-26.87-11.91-26.87-11.91-26.87-11.92z M-26.86-12.06c0-0.04,0.01-0.09,0.02-0.13c0,0,0-0.01,0-0.01
		c0.01-0.05,0.02-0.09,0.03-0.14c0,0,0,0,0,0C-26.83-12.26-26.85-12.16-26.86-12.06C-26.86-12.06-26.86-12.06-26.86-12.06z
		 M-26.8-12.37c0.01-0.03,0.02-0.07,0.03-0.1l0,0C-26.78-12.44-26.79-12.4-26.8-12.37C-26.8-12.37-26.8-12.37-26.8-12.37z
		 M-26.76-12.51c0.01-0.03,0.02-0.05,0.03-0.08l0,0C-26.74-12.57-26.75-12.54-26.76-12.51C-26.76-12.51-26.76-12.51-26.76-12.51z
		 M-26.71-12.63c0.01-0.02,0.02-0.05,0.03-0.07h0C-26.69-12.68-26.7-12.66-26.71-12.63C-26.71-12.63-26.71-12.63-26.71-12.63z
		 M-26.65-12.74c0.01-0.02,0.03-0.04,0.04-0.06v0C-26.62-12.78-26.63-12.76-26.65-12.74L-26.65-12.74z M-26.58-12.84
		c0.01-0.02,0.03-0.03,0.05-0.05h0C-26.55-12.88-26.56-12.86-26.58-12.84C-26.58-12.84-26.58-12.84-26.58-12.84z M-25.98-13.13
		C-25.98-13.13-25.98-13.13-25.98-13.13C-25.98-13.13-25.98-13.13-25.98-13.13z M47.46-10.66c-0.02-0.01-0.04-0.02-0.06-0.03
		C47.42-10.69,47.44-10.68,47.46-10.66z M40.53-13.91C40.53-13.91,40.53-13.91,40.53-13.91C40.53-13.91,40.53-13.91,40.53-13.91z
		 M-21.86-23.96c-0.12-0.14-0.24-0.27-0.36-0.41c-0.11-0.12-0.21-0.23-0.32-0.35c0.27,0.29,0.53,0.58,0.8,0.89
		C-21.78-23.87-21.82-23.92-21.86-23.96z M-26.83-29.03c-0.03-0.03-0.07-0.06-0.1-0.1c0,0,0,0,0,0c0.53,0.48,1.06,0.99,1.6,1.51
		C-25.84-28.1-26.34-28.58-26.83-29.03z M-37.01-36.48c0.05,0.03,0.09,0.05,0.14,0.08c-0.03-0.02-0.07-0.04-0.1-0.06
		C-36.98-36.47-37-36.47-37.01-36.48z M-39.78-37.83c-0.09-0.04-0.19-0.08-0.28-0.12c0.16,0.07,0.33,0.14,0.49,0.21
		C-39.64-37.77-39.71-37.8-39.78-37.83z M-45.24-39.61c-0.05-0.01-0.09-0.02-0.14-0.03c0.27,0.06,0.56,0.12,0.86,0.19
		C-44.77-39.51-45.01-39.56-45.24-39.61z M-46.61-39.87c0.06,0.01,0.11,0.02,0.17,0.03C-46.5-39.85-46.55-39.86-46.61-39.87z
		 M-46.22-39.8c0.08,0.01,0.16,0.03,0.24,0.04C-46.07-39.78-46.15-39.79-46.22-39.8z M-45.84-39.73c0.11,0.02,0.22,0.04,0.34,0.07
		C-45.62-39.69-45.73-39.71-45.84-39.73z M-46.78-39.89c-0.03,0-0.06-0.01-0.09-0.01C-46.85-39.9-46.82-39.9-46.78-39.89z
		 M-47.21-39.95c-0.02,0-0.03,0-0.05-0.01C-47.24-39.96-47.23-39.96-47.21-39.95z"/>
	<g>
		<g>
			<g>
				<path class="st1" d="M-4.31,15.39c-1.43,3.23-11.49,2.71-19.79-5.19C-32.39,2.3-35.74-9.31-34.15-9.78
					c0.98-0.29,2.08,3.11,2.08,3.11s-1.12-3.73,0.01-4.26c1.13-0.53,2.42,3.3,2.42,3.3s-1.09-3.62,0.02-3.99
					c1.1-0.37,2.11,2.97,2.11,2.97s-1.12-3.37,0.26-3.75c1.39-0.38,2.46,1.33,5.48,6.45c3.02,5.12,5.98,8.44,10.61,10.87
					C-6.53,7.35-2.74,11.86-4.31,15.39z"/>
				<path class="st2" d="M-34.27-9.71c0.04-0.03,0.08-0.05,0.12-0.07c0.98-0.29,2.08,3.11,2.08,3.11s-1.12-3.73,0.01-4.26
					c1.13-0.53,2.42,3.3,2.42,3.3s-1.09-3.62,0.02-3.99c0.99-0.33,1.9,2.31,2.08,2.86c-0.17-0.56-0.95-3.31,0.29-3.65
					c0.28-0.08,0.5-0.05,0.69,0.08c0.78-0.3,2.23-1.02,2.73-2.33c1.06-2.79-0.94-5.34-2.18-3.33c-1.29,2.1-2.61,1.82-3.58,0.54
					c-0.96-1.29-0.15-3.57-1.76-3.73c-1.61-0.15-1.99,1.77-1.99,1.77s-0.84-1.36-2.5,1.34c0,0-1.14-0.14-1.73,2.19
					C-38.13-13.66-36.73-10.82-34.27-9.71z"/>
				<g>
					<path class="st3" d="M-31.1-14.36c0,0-0.11-0.03-0.29-0.12c-0.18-0.09-0.42-0.23-0.68-0.45c-0.26-0.22-0.54-0.52-0.77-0.88
						c-0.23-0.37-0.41-0.79-0.54-1.23c-0.27-0.88-0.31-1.84-0.09-2.52c0.1-0.34,0.24-0.6,0.37-0.76c0.13-0.16,0.23-0.23,0.27-0.2
						c0.09,0.07-0.17,0.42-0.31,1.05c-0.16,0.62-0.15,1.5,0.06,2.35c0.11,0.42,0.24,0.84,0.43,1.2c0.19,0.36,0.43,0.67,0.66,0.91
						c0.23,0.24,0.46,0.4,0.62,0.5C-31.2-14.41-31.1-14.36-31.1-14.36z"/>
					<path class="st3" d="M-33.7-13.21c0,0-0.1-0.03-0.28-0.12c-0.17-0.08-0.41-0.21-0.68-0.41c-0.26-0.2-0.55-0.46-0.8-0.8
						c-0.25-0.33-0.46-0.75-0.58-1.18c-0.04-0.1-0.06-0.21-0.09-0.32c-0.02-0.11-0.05-0.22-0.06-0.33
						c-0.02-0.22-0.05-0.44-0.02-0.66c0.01-0.43,0.15-0.82,0.28-1.13c0.16-0.3,0.32-0.54,0.46-0.67c0.14-0.14,0.23-0.2,0.27-0.17
						c0.04,0.03,0,0.14-0.08,0.31c-0.1,0.16-0.21,0.39-0.34,0.67c-0.24,0.57-0.35,1.4-0.13,2.22c0.09,0.41,0.25,0.8,0.46,1.14
						c0.21,0.34,0.46,0.61,0.7,0.83c0.24,0.22,0.46,0.37,0.62,0.47C-33.8-13.25-33.7-13.21-33.7-13.21z"/>
				</g>
			</g>
			<g class="st4">
				<path class="st1" d="M-4.31,15.39c-1.13,2.54-7.61,2.76-14.36-1.12c5.21,2.73,4.61-0.14,1.36-5.15
					c-2.85-4.39-4.33-6.44-2.65-5.97c1.68,0.47-1.57-3.23-4.23-9.05c-2.3-5.04-2.66-5.4-3.2-5.21c-0.54,0.19,0.3,3.04,0.93,4.93
					c0,0-1.65-3.98-2.51-3.49c-0.86,0.49,0.06,3.5,0.46,4.49c0,0-1.93-3.75-2.63-3.2c-0.7,0.55-0.65,2.51,0.41,4.65
					c-0.13-0.28-1.5-3.12-2.31-2.45c-0.85,0.7,0.71,5.25,3.23,9.33c-4.04-6.39-5.49-12.59-4.33-12.93c0.98-0.29,2.08,3.11,2.08,3.11
					s-1.12-3.73,0.01-4.26c1.13-0.53,2.42,3.3,2.42,3.3s-1.09-3.62,0.02-3.99c0.99-0.33,1.9,2.31,2.08,2.86
					c-0.17-0.56-0.95-3.31,0.29-3.65c1.39-0.38,2.46,1.33,5.48,6.45c3.02,5.12,5.98,8.44,10.61,10.87
					C-6.53,7.35-2.74,11.86-4.31,15.39z"/>
			</g>
			<path class="st5" d="M-31.93-2.09c0,0,3.79,11.4,14.24,16.54C-17.69,14.45-25.59,8.12-31.93-2.09z"/>
			<g>
				<path class="st2" d="M-23.83-14.66c-0.2,0.52-0.54,0.94-0.94,1.29l0,0c1.3-1.2,1.37-4,0.06-4.38c-1.31-0.38-1.34,1.94-3.11,2.47
					c-1.77,0.53-2.5-1.57-2.86-3.1c-0.36-1.53-1.9-1.07-2.17,0.5c-0.27,1.57,1.19,3.26,1.19,3.26s-1.2-0.45-1.81-2.16
					c-0.61-1.71-2.06-1.41-2.14,0.36c-0.08,1.77,1.42,2.93,1.42,2.93c-1.67-0.74-2.02-3.04-2.9-2.52c-0.79,0.47-0.51,2.07-0.44,2.39
					c-0.2-0.77-0.22-1.55-0.04-2.27c0.59-2.33,1.73-2.19,1.73-2.19c1.66-2.7,2.5-1.34,2.5-1.34s0.38-1.92,1.99-1.77
					c1.61,0.15,0.79,2.44,1.76,3.73c0.97,1.29,2.29,1.57,3.58-0.54C-24.77-20.01-22.77-17.45-23.83-14.66z"/>
			</g>
			<path class="st2" d="M-37.34-15.29c0,0-0.72,2.88,2.54,5C-34.8-10.29-36.99-12.5-37.34-15.29z"/>
			<path class="st2" d="M-35.19-17.41c0,0-1.27,2.32,1.62,4.17C-33.57-13.24-35.48-15.02-35.19-17.41z"/>
			<path class="st2" d="M-32.21-18.86c0,0-1.71,2.44,1.18,4.3C-31.04-14.57-32.85-16.37-32.21-18.86z"/>
		</g>
		<g>
			<g>
				<path class="st1" d="M14.61,12.74c1.17,3.33,11.24,3.61,20.13-3.62C43.63,1.9,47.89-9.41,46.33-10.01
					c-0.96-0.37-2.32,2.94-2.32,2.94s1.41-3.64,0.33-4.25c-1.08-0.62-2.67,3.1-2.67,3.1s1.37-3.52,0.3-3.98
					c-1.07-0.46-2.34,2.79-2.34,2.79s1.39-3.27,0.03-3.76c-1.35-0.49-2.56,1.14-5.97,6c-3.42,4.87-6.63,7.95-11.43,10.01
					C17.46,4.89,13.33,9.1,14.61,12.74z"/>
				<path class="st2" d="M46.45-9.93c-0.03-0.03-0.07-0.06-0.11-0.08c-0.96-0.37-2.32,2.94-2.32,2.94s1.41-3.64,0.33-4.25
					c-1.08-0.62-2.67,3.1-2.67,3.1s1.37-3.52,0.3-3.98c-0.96-0.41-2.08,2.15-2.3,2.69c0.22-0.55,1.21-3.22-0.01-3.66
					c-0.28-0.1-0.49-0.09-0.69,0.02c-0.75-0.36-2.14-1.2-2.54-2.54c-0.84-2.86,1.36-5.25,2.43-3.15c1.12,2.2,2.46,2.02,3.53,0.82
					c1.06-1.21,0.43-3.55,2.04-3.58c1.61-0.03,1.84,1.92,1.84,1.92s0.95-1.29,2.39,1.53c0,0,1.15-0.05,1.55,2.32
					C50.61-13.57,49-10.85,46.45-9.93z"/>
				<g>
					<path class="st3" d="M43.66-14.82c0,0,0.11-0.02,0.29-0.09c0.18-0.07,0.44-0.2,0.72-0.39c0.28-0.2,0.58-0.47,0.83-0.82
						c0.26-0.35,0.47-0.76,0.64-1.18c0.34-0.85,0.45-1.81,0.29-2.5c-0.07-0.35-0.19-0.62-0.31-0.79c-0.11-0.17-0.21-0.24-0.25-0.22
						c-0.09,0.06,0.14,0.43,0.23,1.07c0.11,0.63,0.04,1.51-0.24,2.34c-0.14,0.42-0.31,0.82-0.53,1.17
						c-0.22,0.35-0.48,0.63-0.73,0.85c-0.25,0.22-0.49,0.36-0.66,0.45C43.76-14.85,43.66-14.82,43.66-14.82z"/>
					<path class="st3" d="M46.16-13.46c0,0,0.11-0.03,0.28-0.09c0.18-0.07,0.43-0.18,0.71-0.36c0.28-0.17,0.59-0.42,0.86-0.73
						c0.28-0.31,0.51-0.71,0.67-1.13c0.05-0.1,0.08-0.21,0.11-0.32c0.03-0.11,0.07-0.21,0.09-0.32c0.04-0.22,0.08-0.44,0.07-0.65
						c0.02-0.43-0.08-0.83-0.19-1.15c-0.14-0.31-0.27-0.56-0.41-0.71c-0.13-0.15-0.22-0.22-0.26-0.19
						c-0.04,0.03-0.01,0.14,0.06,0.31c0.08,0.17,0.18,0.41,0.29,0.7c0.2,0.58,0.24,1.43-0.04,2.22c-0.12,0.41-0.31,0.78-0.55,1.1
						c-0.23,0.32-0.51,0.58-0.76,0.77c-0.25,0.2-0.49,0.33-0.66,0.42C46.26-13.5,46.16-13.46,46.16-13.46z"/>
				</g>
			</g>
			<g class="st4">
				<path class="st1" d="M14.61,12.74c0.92,2.62,7.37,3.35,14.4,0.01c-5.41,2.31-4.58-0.5-0.95-5.24c3.18-4.15,4.82-6.08,3.11-5.74
					C29.47,2.1,33-1.34,36.1-6.92c2.69-4.84,3.08-5.18,3.6-4.94c0.53,0.23-0.54,3.01-1.31,4.84c0,0,1.96-3.83,2.78-3.28
					c0.82,0.56-0.34,3.48-0.81,4.44c0,0,2.22-3.59,2.87-2.99c0.65,0.6,0.45,2.55-0.77,4.6c0.16-0.27,1.74-2.99,2.5-2.26
					c0.8,0.77-1.12,5.18-3.95,9.05c4.53-6.05,6.46-12.12,5.33-12.55c-0.96-0.37-2.32,2.94-2.32,2.94s1.41-3.64,0.33-4.25
					c-1.08-0.62-2.67,3.1-2.67,3.1s1.37-3.52,0.3-3.98c-0.96-0.41-2.08,2.15-2.3,2.69c0.22-0.55,1.21-3.22-0.01-3.66
					c-1.35-0.49-2.56,1.14-5.97,6c-3.42,4.87-6.63,7.95-11.43,10.01C17.46,4.89,13.33,9.1,14.61,12.74z"/>
			</g>
			<path class="st5" d="M43.52-2.52c0,0-4.67,11.07-15.49,15.37C28.03,12.85,36.4,7.16,43.52-2.52z"/>
			<g>
				<path class="st2" d="M36.44-15.69c0.16,0.53,0.47,0.98,0.83,1.35l0,0c-1.2-1.3-1.05-4.09,0.29-4.37
					c1.34-0.27,1.18,2.04,2.9,2.71c1.72,0.67,2.62-1.37,3.1-2.87c0.48-1.5,1.98-0.91,2.12,0.67c0.15,1.58-1.45,3.15-1.45,3.15
					s1.23-0.35,1.97-2.01c0.74-1.66,2.16-1.24,2.1,0.53c-0.06,1.77-1.64,2.81-1.64,2.81c1.73-0.6,2.25-2.87,3.09-2.28
					c0.75,0.53,0.35,2.1,0.25,2.42c0.26-0.75,0.34-1.53,0.22-2.26c-0.4-2.37-1.55-2.32-1.55-2.32c-1.44-2.82-2.39-1.53-2.39-1.53
					s-0.23-1.94-1.84-1.92c-1.61,0.03-0.98,2.37-2.04,3.58c-1.06,1.21-2.4,1.38-3.53-0.82C37.8-20.94,35.59-18.55,36.44-15.69z"/>
			</g>
			<path class="st2" d="M49.95-15.25c0,0,0.49,2.93-2.93,4.79C47.02-10.46,49.39-12.5,49.95-15.25z"/>
			<path class="st2" d="M47.98-17.54c0,0,1.08,2.41-1.95,4.03C46.03-13.51,48.08-15.13,47.98-17.54z"/>
			<path class="st2" d="M45.12-19.22c0,0,1.52,2.57-1.51,4.19C43.61-15.03,45.56-16.68,45.12-19.22z"/>
		</g>
		<g>
			<g>
				<g>
					<path class="st6" d="M-18.78-18.3c7.61,9.8,12.86,0.24,5.5-10.38c-7.36-10.62-24.57-18.92-36.81-11.1
						C-52.1-38.49-37.82-42.82-18.78-18.3z"/>
					<g>
						<path class="st7" d="M-20.17-23.71c1.03,1.53,3.46,4.2,1.56,5.62c-0.06-0.07-0.11-0.14-0.17-0.21
							c-2.1-2.71-4.15-5.07-6.12-7.12C-23.59-26.13-21.19-25.16-20.17-23.71z"/>
						<path class="st7" d="M-38.6-38.12c0.88,0.34,1.64,0.95,2.64,1.03c1.37,0.17,2.56-0.46,3.98-0.42c2.63,0.06,4.64,2.07,5.1,4.63
							c0.45,1.95-0.08,3.34-1.01,4.54c-6.25-5.78-11.61-8.49-15.52-9.79C-42.09-38.92-39.81-38.52-38.6-38.12z"/>
						<path class="st7" d="M-20.71-32.98c-1.18,1.28-1.83,3.14-3.55,1.03c-0.63-0.87-0.52-2.1-0.96-3.03
							c-0.47-1.03-1.49-1.76-1.96-2.79c-0.37-0.64-0.63-1.63-0.59-2.54c3.12,1.36,6.07,3.2,8.64,5.34
							C-19.36-34.23-20.04-33.74-20.71-32.98z"/>
					</g>
					<path class="st8" d="M-18.78-18.3c-0.28-0.37-0.57-0.72-0.85-1.08c2.76-1.24,1.62-12.48-7.43-17.66
						c-10.32-5.91-19.51-4.63-19.24-1.9c-3.07-0.66-4.53-0.38-3.79-0.85c12.24-7.82,29.45,0.47,36.81,11.1
						C-5.92-18.05-11.18-8.5-18.78-18.3z"/>
				</g>
				<g>
					<path class="st9" d="M-42.98-34.59c-1.25-0.03-1.68-2.53-1.91-3.99c1.25,0.34,2.69,0.83,4.29,1.54
						C-41.21-35.94-42.21-34.6-42.98-34.59z"/>
					<path class="st9" d="M-37.39-31.04c-1.04-0.67-0.97-3.24-0.88-4.86c1.5,0.8,3.1,1.78,4.81,3
						C-34.62-31.84-36.37-30.47-37.39-31.04z"/>
					<path class="st9" d="M-47.96-36.39c-0.92-0.23-0.91-1.85-0.82-2.94c0.79,0.09,1.87,0.25,3.21,0.57
						C-46.11-37.58-47.02-36.12-47.96-36.39z"/>
					<path class="st9" d="M-29.09-25.98c-1.56-0.34-1.24-2.58-0.93-4.25c1.18,0.99,2.39,2.09,3.63,3.31
						C-27.25-26.32-28.37-25.83-29.09-25.98z"/>
					<path class="st9" d="M-25.18-22.06c-0.72-0.69-0.43-2.42-0.07-3.71c1.07,1.1,2.16,2.29,3.28,3.58
						C-23.17-21.71-24.65-21.44-25.18-22.06z"/>
				</g>
				<g>
					<path class="st10" d="M-43.19-37.09c-0.55,0.51-0.76,1.28-0.64,1.99c-0.62-0.81-0.89-2.42-1.06-3.49
						c0.99,0.27,2.1,0.64,3.32,1.13C-42.13-37.6-42.75-37.5-43.19-37.09z"/>
					<path class="st10" d="M-35.94-34c-1.06,0.43-1.67,1.85-1.13,2.9c0.03,0.06,0.07,0.12,0.1,0.18c-0.15-0.01-0.29-0.06-0.42-0.13
						c-1.04-0.67-0.97-3.24-0.88-4.86c0.94,0.5,1.93,1.08,2.96,1.74C-35.52-34.13-35.74-34.08-35.94-34z"/>
					<path class="st10" d="M-45.74-38.4c-0.06-0.05-0.13-0.09-0.21-0.13c-0.5-0.25-1.17-0.11-1.57,0.26c0,0-0.01,0.01-0.01,0.01
						c-0.04,0.02-0.08,0.05-0.12,0.08c-0.37,0.29-0.6,0.83-0.51,1.3c0.03,0.18,0.09,0.33,0.17,0.47c-0.88-0.27-0.88-1.86-0.79-2.93
						c0.79,0.09,1.87,0.25,3.21,0.57C-45.63-38.64-45.68-38.52-45.74-38.4z"/>
					<path class="st10" d="M-29.76-27.08c-0.05,0.23-0.07,0.46-0.05,0.69c-0.71-0.8-0.46-2.5-0.21-3.84
						c0.66,0.56,1.34,1.16,2.03,1.79C-28.81-28.44-29.57-27.9-29.76-27.08z"/>
					<path class="st10" d="M-24.47-23.78c-0.38,0.26-0.76,0.65-0.88,1.12c-0.02,0.1-0.04,0.19-0.05,0.29
						c-0.41-0.81-0.16-2.27,0.16-3.39c0.57,0.58,1.14,1.19,1.71,1.82C-23.86-24-24.2-23.96-24.47-23.78z"/>
				</g>
			</g>
			<g class="st11">
				<path class="st9" d="M-43.77-38.97c0,0,14.71,6.03,22.18,16.56C-21.59-22.42-26.59-35.24-43.77-38.97z"/>
			</g>
		</g>
		<g>
			<g>
				<g>
					<path class="st12" d="M-11.29-22.22C-9.11-8.86,3.04-15.71-0.51-26.5c-3.94-11.98-3.22-22.54-4.91-23.2
						c-2.55-0.99-9.62,0.69-9.69,2.25c-0.18,3.76,3.85,4.2,4.28,5.12C-10.41-41.42-13.46-35.52-11.29-22.22z"/>
					<g>
						<polygon class="st13" points="-9.27,-49.88 -9.27,-49.88 -9.27,-49.88 						"/>
						<path class="st13" d="M-9.48-34.54c1.06,1.86-0.67,3-0.6,4.67c0.05,1.57,2.3,2.2,2.05,3.84c-0.13,1.43-1.94,2.1-3.49,2.28
							c-0.74-5.3-0.63-9.34-0.3-12.28C-10.88-35.87-9.93-35.31-9.48-34.54z"/>
						<path class="st13" d="M-12.11-49.27c0.03,0.11,0.05,0.23,0.07,0.34C-12.09-49.13-12.11-49.27-12.11-49.27z"/>
						<path class="st13" d="M-4.23-45.82c0.24,1.76,0.47,4.04,0.86,6.66C-7.63-39.15-6.97-43.96-4.23-45.82z"/>
						<path class="st13" d="M-3.61-26.01c-1.06-1.86,0.53-3.18,0.31-5.02c-0.25-1.52-1.88-2.2-2.1-3.62
							c-0.18-1.47,0.93-2.82,2.16-3.59c0.54,3.49,1.35,7.52,2.73,11.73c0.33,1.02,0.53,2,0.61,2.93
							C-1.32-24.02-2.81-24.71-3.61-26.01z"/>
						<path class="st13" d="M-9.27-49.88L-9.27-49.88c0,0,0.06,0.27,0.1,0.64C-9.25-49.6-9.27-49.88-9.27-49.88z"/>
						<path class="st13" d="M-12.11-49.27c0-0.01,0-0.01,0-0.02c0.01,0,0.02-0.01,0.04-0.01L-12.11-49.27L-12.11-49.27z"/>
					</g>
				</g>
				<path class="st14" d="M-0.51-26.5c3.55,10.8-8.6,17.65-10.78,4.28c-0.06-0.37-0.12-0.74-0.17-1.1
					c2.52,2.18,7.54-2.71,6.92-11.52c-0.46-6.6-1.54-12.74-5.97-11.29c-2.92,0.95-2.13,2.29-1.25,3.1
					c-1.31-0.68-3.47-1.65-3.34-4.42c0.07-1.56,7.15-3.24,9.69-2.25C-3.72-49.05-4.45-38.49-0.51-26.5z"/>
				<g class="st11">
					<path class="st9" d="M-10.41-41.88c0,0-2.65,7.25-0.69,18.08C-10.6-21.05-10.54-32.89-10.41-41.88z"/>
				</g>
				<g>
					<path class="st9" d="M-12.11-49.27c0,0,0.02,0.14,0.07,0.34c0.22,1.11,0.32,2.5-0.68,2.67c-0.97,0.17-1.75-1.07-2.1-1.74
						c0.47-0.48,1.49-0.94,2.7-1.3C-12.12-49.28-12.12-49.28-12.11-49.27z"/>
					<path class="st9" d="M-7.93-47.36c-0.76-0.06-1.1-1.15-1.25-1.88c-0.03-0.37-0.09-0.64-0.1-0.64c0.89-0.11,1.76-0.15,2.51-0.09
						C-6.76-49.96-6.79-47.28-7.93-47.36z"/>
					<path class="st9" d="M-10.1-47.04c-1.23,0.29-1.76-1.19-1.94-1.89c-0.02-0.12-0.05-0.23-0.07-0.34l0,0l0.03-0.03
						c0.88-0.26,1.86-0.46,2.81-0.58c0,0,0.02,0.28,0.1,0.64C-9.1-48.47-9.15-47.26-10.1-47.04z"/>
				</g>
				<g>
					<path class="st10" d="M-12.04-48.93c0.22,1.11,0.32,2.5-0.68,2.67c-0.1,0.02-0.19,0.02-0.28,0.01c0.53-0.33,0.79-0.99,0.6-1.63
						c-0.13-0.41-0.37-0.83-0.75-1.05c-0.01,0-0.01-0.01-0.02-0.01c0.33-0.13,0.68-0.25,1.06-0.36c0,0.01,0,0.01,0,0.02
						C-12.11-49.27-12.09-49.13-12.04-48.93z"/>
					<path class="st10" d="M-7.87-47.47c0.51-0.69,0.44-1.84-0.13-2.52c0.43-0.02,0.85-0.01,1.24,0.02c0,0.02-0.03,2.69-1.17,2.61
						c-0.01,0-0.02,0-0.03-0.01C-7.93-47.4-7.9-47.43-7.87-47.47z"/>
					<path class="st10" d="M-10.56-49.67c0.43-0.08,0.86-0.16,1.29-0.21c0,0,0.02,0.28,0.1,0.64c0.07,0.77,0.02,1.98-0.93,2.2
						c-0.15,0.03-0.29,0.04-0.42,0.03C-9.88-47.72-9.8-49.06-10.56-49.67z"/>
				</g>
			</g>
		</g>
		<g>
			<g>
				<g>
					<path class="st12" d="M9.65-23.05c1.78-5.39,8.14-23.05,10.19-25.24c2.05-2.19,11.04-0.96,11.4,0.89
						c0.36,1.85-1.26,6.6-5.73,6.98c-0.82,0.07-2.87,15.95-4.65,22.27C19.08-11.84,6.16-12.51,9.65-23.05z"/>
					<g>
						<polygon class="st13" points="24.68,-49.45 24.68,-49.45 24.68,-49.45 						"/>
						<path class="st13" d="M15.42-30.68c0.21,1.54-1.23,2.46-0.92,4c0.31,2.15,1.54,2.77-0.92,4.41c-1.36,0.85-2.92,1.06-4.41,1.11
							c0.1-0.59,0.25-1.23,0.47-1.9c0.7-2.11,2.09-6.09,3.66-10.29C14.38-32.82,15.36-31.86,15.42-30.68z"/>
						<path class="st13" d="M19.94-41.45c-0.17,2-2.63,2.64-4.59,2.76c1.01-2.56,2-4.92,2.83-6.69
							C18.94-44.16,20.01-42.81,19.94-41.45z"/>
						<path class="st13" d="M20.04-29.76c-0.41-1.64,1.33-2.67,1.33-4.21c0.1-1.44-0.82-2.46,0.82-3.49
							c0.72-0.42,1.68-0.45,2.45-0.16c-0.53,2.56-1.19,6.53-1.89,10.4C21.59-27.68,20.23-28.55,20.04-29.76z"/>
						<path class="st13" d="M27.97-48.16c0.06-0.52,0.13-0.89,0.13-0.89C28.07-48.74,28.03-48.44,27.97-48.16z"/>
						<polygon class="st13" points="28.11,-49.05 28.11,-49.05 28.11,-49.05 						"/>
						<path class="st13" d="M24.68-49.45L24.68-49.45L24.68-49.45c-0.07,0.29-0.15,0.58-0.22,0.85
							C24.56-49.1,24.68-49.45,24.68-49.45z"/>
					</g>
				</g>
				<path class="st14" d="M25.51-40.43c0,0,3.74-3.54,0-4.36c-4.86-1.07-7.25,3.06-10.46,13.86c-2.52,8.45,4.47,9.83,7.4,5.43
					c-0.53,2.84-1.07,5.5-1.59,7.34c-1.78,6.32-14.7,5.64-11.22-4.9c1.78-5.39,8.14-23.05,10.19-25.24
					c2.05-2.19,11.04-0.96,11.4,0.89C31.6-45.56,29.98-40.8,25.51-40.43z"/>
				<g>
					<path class="st9" d="M27.97-48.16c-0.42,2.16-1.41,3.51-2.8,2.74c-1.05-0.58-0.92-2.18-0.71-3.18
						c0.08-0.28,0.15-0.56,0.22-0.85c1.17,0.03,2.37,0.17,3.42,0.4v0C28.11-49.05,28.04-48.68,27.97-48.16z"/>
					<path class="st9" d="M31.07-47.75L31.07-47.75c-0.41,1.55-1.59,3.12-2.61,2.66c-0.69-0.31-0.61-1.99-0.48-3.06
						c0.06-0.29,0.1-0.58,0.13-0.89l0,0C29.51-48.74,30.64-48.28,31.07-47.75z"/>
					<path class="st9" d="M24.46-48.6c-0.48,1.69-1.13,3.04-2.11,2.69c-0.83-0.3-0.97-2.03-0.97-3.2c0.93-0.26,2.1-0.36,3.3-0.34
						l0,0C24.68-49.45,24.56-49.1,24.46-48.6z"/>
				</g>
				<g>
					<path class="st10" d="M26.38-49.11c-1.24,0.41-1.95,2.1-1.25,3.24c0.17,0.28,0.41,0.51,0.69,0.67
						c-0.21-0.02-0.42-0.09-0.65-0.21c-1.05-0.58-0.92-2.18-0.71-3.18c0.08-0.28,0.15-0.56,0.22-0.85c1.17,0.03,2.37,0.17,3.42,0.4
						v0c0,0-0.01,0.06-0.03,0.17C27.55-49.23,26.99-49.31,26.38-49.11z"/>
					<path class="st10" d="M28.76-46.06c0.11,0.33,0.28,0.69,0.56,0.93c-0.29,0.14-0.58,0.17-0.87,0.04
						c-0.69-0.31-0.61-1.99-0.48-3.06c0.06-0.29,0.1-0.58,0.13-0.89l0,0c0.45,0.1,0.88,0.22,1.26,0.35
						C28.66-48.11,28.49-46.89,28.76-46.06z"/>
					<path class="st10" d="M22.38-46.47c0.14,0.23,0.35,0.43,0.6,0.54c-0.19,0.08-0.4,0.1-0.63,0.01c-0.83-0.3-0.97-2.03-0.97-3.2
						c0.46-0.13,0.99-0.22,1.54-0.28C22.23-48.65,21.8-47.39,22.38-46.47z"/>
				</g>
			</g>
			<g class="st11">
				<path class="st9" d="M20.7-24.57c0,0,3.6-6.68,4.14-17.67C24.98-45.03,22.86-33.3,20.7-24.57z"/>
			</g>
		</g>
		<g>
			<g>
				<path class="st1" d="M27.67,35.17c4.97,0.28,9.13,1.55,10.36,4.51c2.26,5.44-3.28,8.26-2.51,9.08
					c0.77,0.82,9.58-2.33,9.37-12.36c-0.21-10.04-6.84-13.68-12.86-13.46C22.87,23.29,21.33,34.81,27.67,35.17z"/>
				<g>
					<path class="st15" d="M29.63,35.34c0,0,0.16-0.12,0.43-0.33c0.27-0.22,0.68-0.49,1.1-0.91c0.11-0.1,0.22-0.2,0.34-0.31
						c0.06-0.05,0.12-0.11,0.18-0.16c0.06-0.06,0.11-0.12,0.17-0.18c0.22-0.25,0.47-0.51,0.7-0.78c0.22-0.29,0.45-0.59,0.67-0.9
						c0.1-0.16,0.2-0.32,0.3-0.49c0.1-0.16,0.21-0.32,0.29-0.49c0.74-1.35,1.2-2.82,1.4-3.95c0.23-1.13,0.26-1.89,0.46-1.91
						c0.2-0.02,0.38,0.81,0.21,2.02c-0.14,1.21-0.68,2.78-1.55,4.15c-0.1,0.18-0.22,0.34-0.34,0.5c-0.12,0.16-0.24,0.32-0.36,0.48
						c-0.25,0.31-0.52,0.59-0.77,0.87c-0.27,0.26-0.54,0.5-0.79,0.74c-0.06,0.06-0.12,0.12-0.19,0.17c-0.07,0.05-0.13,0.1-0.2,0.15
						c-0.13,0.1-0.25,0.19-0.37,0.28c-0.47,0.37-0.91,0.61-1.2,0.79C29.8,35.24,29.63,35.34,29.63,35.34z"/>
					<path class="st15" d="M32.23,35.79c0,0,0.16-0.07,0.45-0.18c0.14-0.07,0.3-0.15,0.49-0.25c0.18-0.11,0.39-0.22,0.6-0.38
						c0.42-0.3,0.88-0.7,1.29-1.19c0.41-0.49,0.79-1.06,1.11-1.66c0.32-0.6,0.58-1.24,0.79-1.84c0.21-0.61,0.37-1.18,0.51-1.68
						c0.27-0.99,0.42-1.67,0.62-1.65c0.2,0.01,0.25,0.75,0.04,1.8c-0.1,0.53-0.27,1.14-0.51,1.77c-0.24,0.63-0.55,1.28-0.93,1.9
						c-0.38,0.61-0.84,1.18-1.33,1.65c-0.49,0.47-1.01,0.83-1.48,1.09c-0.23,0.13-0.46,0.22-0.66,0.31
						c-0.2,0.08-0.38,0.14-0.53,0.18C32.4,35.75,32.23,35.79,32.23,35.79z"/>
					<path class="st15" d="M34.27,36.43c0,0,0.16-0.04,0.45-0.12c0.14-0.04,0.31-0.1,0.5-0.17c0.1-0.03,0.2-0.08,0.3-0.12
						c0.1-0.05,0.22-0.09,0.33-0.15c0.45-0.21,0.94-0.53,1.4-0.93c0.46-0.4,0.88-0.91,1.22-1.46c0.7-1.1,1.06-2.37,1.28-3.32
						c0.22-0.96,0.32-1.61,0.53-1.61c0.2,0,0.3,0.71,0.14,1.74c-0.16,1.03-0.61,2.39-1.45,3.53c-0.42,0.57-0.92,1.07-1.46,1.45
						c-0.54,0.38-1.09,0.65-1.58,0.81c-0.49,0.17-0.91,0.25-1.2,0.29C34.44,36.41,34.27,36.43,34.27,36.43z"/>
					<path class="st15" d="M35.97,37.3c0,0,0.14-0.01,0.38-0.04c0.12-0.02,0.26-0.04,0.42-0.07c0.16-0.04,0.34-0.08,0.53-0.16
						c0.38-0.13,0.8-0.34,1.2-0.64c0.4-0.29,0.78-0.66,1.12-1.06c0.68-0.81,1.17-1.76,1.53-2.47c0.36-0.72,0.6-1.2,0.8-1.14
						c0.19,0.05,0.14,0.63-0.18,1.42c-0.31,0.79-0.89,1.79-1.71,2.6c-0.4,0.41-0.87,0.76-1.34,1.02c-0.47,0.26-0.95,0.42-1.37,0.5
						c-0.21,0.05-0.4,0.06-0.57,0.07c-0.17,0-0.32,0.01-0.44,0C36.1,37.31,35.97,37.3,35.97,37.3z"/>
					<path class="st15" d="M37.52,38.76c0,0,0.1-0.01,0.29-0.04c0.18-0.03,0.44-0.05,0.74-0.13c0.3-0.06,0.64-0.18,1-0.32
						c0.35-0.16,0.7-0.35,1.03-0.58l0.24-0.18c0.08-0.06,0.15-0.13,0.22-0.19c0.15-0.12,0.28-0.27,0.41-0.4
						c0.25-0.28,0.47-0.54,0.65-0.79c0.36-0.48,0.56-0.83,0.7-0.78c0.14,0.05,0.06,0.5-0.28,1.06c-0.16,0.28-0.41,0.58-0.69,0.88
						c-0.15,0.14-0.3,0.29-0.48,0.42c-0.09,0.06-0.17,0.13-0.26,0.19l-0.28,0.17c-0.18,0.12-0.39,0.2-0.58,0.29
						c-0.19,0.09-0.4,0.14-0.59,0.21c-0.39,0.1-0.76,0.18-1.08,0.19c-0.32,0.04-0.58,0.02-0.76,0.01
						C37.63,38.77,37.52,38.76,37.52,38.76z"/>
					<path class="st15" d="M38.21,40.15c0,0,0.09,0,0.25,0.01c0.08,0,0.18,0.01,0.29,0.02c0.06,0,0.11,0.01,0.18,0.01
						c0.06,0,0.13,0,0.2,0c0.55,0.01,1.28-0.06,1.97-0.25c0.69-0.18,1.32-0.52,1.75-0.82c0.43-0.3,0.68-0.55,0.78-0.48
						c0.1,0.07-0.08,0.44-0.53,0.81c-0.45,0.37-1.16,0.72-1.91,0.85c-0.75,0.14-1.51,0.12-2.06,0.03c-0.07-0.01-0.14-0.02-0.2-0.02
						c-0.06-0.01-0.12-0.02-0.18-0.04c-0.11-0.02-0.21-0.04-0.29-0.06C38.3,40.17,38.21,40.15,38.21,40.15z"/>
					<path class="st15" d="M38.54,41.53c0,0,0.06,0.03,0.17,0.09c0.06,0.03,0.12,0.07,0.19,0.1c0.08,0.03,0.17,0.06,0.26,0.1
						c0.39,0.13,0.94,0.18,1.48,0.12c0.54-0.05,1.07-0.18,1.46-0.28c0.4-0.1,0.66-0.17,0.7-0.07c0.04,0.09-0.2,0.26-0.61,0.4
						c-0.4,0.14-0.97,0.26-1.55,0.26c-0.58,0.01-1.15-0.13-1.53-0.32c-0.09-0.05-0.18-0.1-0.25-0.14c-0.07-0.04-0.13-0.1-0.18-0.13
						C38.59,41.58,38.54,41.53,38.54,41.53z"/>
					<path class="st15" d="M38.55,42.85c0,0,0.04,0.03,0.12,0.08c0.04,0.03,0.08,0.06,0.14,0.09c0.06,0.03,0.12,0.06,0.19,0.1
						c0.28,0.14,0.68,0.25,1.09,0.29c0.82,0.09,1.63-0.06,1.67,0.13c0.02,0.1-0.19,0.19-0.52,0.24c-0.33,0.04-0.77,0.03-1.21-0.07
						c-0.43-0.1-0.84-0.3-1.1-0.49c-0.06-0.05-0.12-0.1-0.17-0.14c-0.05-0.04-0.09-0.09-0.12-0.12
						C38.59,42.89,38.55,42.85,38.55,42.85z"/>
					<path class="st15" d="M38.32,43.98c0,0,0.03,0.04,0.08,0.1c0.02,0.03,0.06,0.07,0.09,0.11c0.04,0.04,0.08,0.08,0.13,0.13
						c0.2,0.18,0.5,0.36,0.84,0.46c0.67,0.21,1.37,0.13,1.39,0.29c0.01,0.08-0.18,0.14-0.46,0.15c-0.28,0-0.66-0.05-1.01-0.21
						c-0.35-0.15-0.65-0.4-0.82-0.63c-0.04-0.06-0.08-0.11-0.11-0.15c-0.03-0.05-0.05-0.09-0.07-0.13
						C38.34,44.02,38.32,43.98,38.32,43.98z"/>
					<path class="st15" d="M37.8,45.2c0,0,0.02,0.03,0.07,0.09c0.04,0.06,0.1,0.14,0.18,0.22c0.16,0.18,0.4,0.37,0.68,0.48
						c0.28,0.12,0.57,0.17,0.79,0.19c0.22,0.03,0.38,0.04,0.39,0.12c0.02,0.08-0.15,0.15-0.4,0.16c-0.25,0.01-0.6-0.07-0.89-0.24
						c-0.3-0.17-0.52-0.43-0.64-0.64c-0.07-0.1-0.1-0.2-0.13-0.26C37.81,45.24,37.8,45.2,37.8,45.2z"/>
					<path class="st15" d="M37.08,46.32c0,0,0.02,0.03,0.04,0.08c0.03,0.05,0.06,0.13,0.12,0.21c0.11,0.16,0.3,0.34,0.54,0.45
						c0.47,0.23,0.99,0.17,1,0.29c0.01,0.06-0.13,0.11-0.35,0.1c-0.21-0.01-0.5-0.07-0.74-0.23c-0.25-0.15-0.43-0.39-0.51-0.58
						c-0.05-0.09-0.07-0.18-0.08-0.23C37.09,46.36,37.08,46.32,37.08,46.32z"/>
				</g>
			</g>
			<g class="st11">
				<path class="st1" d="M35.52,48.76c-0.77-0.82,4.77-3.64,2.51-9.08c-1.23-2.97-5.39-4.23-10.36-4.51
					c-6.34-0.36-4.8-11.88,4.36-12.23c6.02-0.22,12.65,3.42,12.86,13.46C45.1,46.44,36.29,49.59,35.52,48.76z M42.05,31.07
					c-5.76-7.82-13.64,2.58-8.53,4.73c2.12,0.89,5.69,1.76,5.69,6.45c0,1.54-0.82,3.56-2.53,5.21c-1.71,1.65,1.64,1.57,4.82-2.25
					C44.69,41.38,45.14,35.25,42.05,31.07z"/>
			</g>
			<g class="st16">
				<path class="st9" d="M33.74,35.57c0,0,9.06,2.27,4.47,10.89C38.21,46.46,44.79,37.91,33.74,35.57z"/>
			</g>
		</g>
		<g>
			<g>
				<path class="st1" d="M-12.01,35.24c-4.88,0.97-8.82,2.81-9.63,5.92c-1.48,5.7,4.4,7.72,3.76,8.64c-0.65,0.92-9.81-0.97-11-10.93
					c-1.2-9.97,4.86-14.5,10.85-15.12C-8.91,22.8-5.78,34-12.01,35.24z"/>
				<g>
					<path class="st15" d="M-13.92,35.68c0,0-0.17-0.1-0.47-0.27c-0.3-0.18-0.74-0.39-1.21-0.75c-0.12-0.08-0.25-0.17-0.38-0.26
						c-0.06-0.04-0.13-0.09-0.2-0.14c-0.07-0.05-0.13-0.1-0.19-0.16c-0.26-0.22-0.53-0.44-0.8-0.68c-0.25-0.26-0.53-0.52-0.79-0.79
						c-0.12-0.15-0.25-0.29-0.37-0.44c-0.12-0.15-0.25-0.29-0.36-0.45c-0.92-1.23-1.58-2.62-1.94-3.71
						c-0.38-1.09-0.52-1.84-0.72-1.83c-0.2,0.01-0.26,0.85,0.07,2.03c0.3,1.18,1.06,2.66,2.12,3.89c0.12,0.16,0.27,0.3,0.41,0.45
						c0.14,0.14,0.28,0.29,0.42,0.43c0.29,0.27,0.6,0.51,0.88,0.75c0.3,0.22,0.61,0.42,0.89,0.62c0.07,0.05,0.14,0.1,0.21,0.14
						c0.07,0.04,0.15,0.08,0.22,0.12c0.14,0.08,0.28,0.15,0.41,0.22c0.51,0.3,0.98,0.47,1.3,0.61
						C-14.1,35.6-13.92,35.68-13.92,35.68z"/>
					<path class="st15" d="M-16.44,36.49c0,0-0.17-0.04-0.47-0.12c-0.15-0.05-0.32-0.11-0.52-0.18c-0.19-0.08-0.42-0.17-0.65-0.29
						c-0.46-0.24-0.96-0.57-1.44-1c-0.48-0.43-0.93-0.94-1.33-1.49c-0.4-0.55-0.74-1.14-1.04-1.71c-0.29-0.57-0.54-1.12-0.74-1.59
						c-0.4-0.95-0.65-1.59-0.85-1.55c-0.2,0.04-0.14,0.77,0.21,1.79c0.18,0.51,0.43,1.09,0.75,1.68c0.32,0.59,0.72,1.19,1.19,1.75
						c0.46,0.55,0.99,1.05,1.54,1.45c0.55,0.4,1.11,0.69,1.62,0.87c0.25,0.1,0.49,0.16,0.7,0.22c0.21,0.05,0.4,0.08,0.55,0.11
						C-16.61,36.47-16.44,36.49-16.44,36.49z"/>
					<path class="st15" d="M-18.36,37.4c0,0-0.17-0.02-0.46-0.06c-0.15-0.02-0.32-0.06-0.52-0.09c-0.1-0.02-0.2-0.05-0.31-0.08
						c-0.11-0.03-0.23-0.05-0.34-0.1c-0.48-0.15-1.01-0.39-1.52-0.73c-0.51-0.33-0.99-0.78-1.41-1.27c-0.84-0.99-1.38-2.2-1.73-3.11
						c-0.36-0.92-0.55-1.55-0.75-1.52c-0.2,0.03-0.2,0.74,0.1,1.74c0.3,0.99,0.93,2.29,1.93,3.29c0.49,0.5,1.06,0.93,1.64,1.23
						c0.58,0.3,1.17,0.49,1.68,0.58c0.51,0.1,0.94,0.12,1.23,0.12C-18.53,37.4-18.36,37.4-18.36,37.4z"/>
					<path class="st15" d="M-19.92,38.5c0,0-0.14,0.01-0.38,0.02c-0.12,0-0.27-0.01-0.43-0.02c-0.16-0.02-0.35-0.03-0.55-0.08
						c-0.4-0.08-0.84-0.23-1.28-0.46c-0.44-0.23-0.87-0.54-1.26-0.9c-0.78-0.71-1.41-1.58-1.86-2.23c-0.46-0.66-0.76-1.1-0.95-1.02
						c-0.18,0.08-0.05,0.65,0.37,1.39c0.42,0.74,1.13,1.65,2.05,2.34c0.45,0.35,0.96,0.63,1.47,0.82c0.5,0.19,1,0.28,1.42,0.3
						c0.21,0.02,0.41,0,0.57-0.01c0.17-0.02,0.32-0.04,0.44-0.06C-20.06,38.53-19.92,38.5-19.92,38.5z"/>
					<path class="st15" d="M-21.26,40.17c0,0-0.11,0-0.29,0c-0.18,0-0.44,0.02-0.75-0.03c-0.31-0.02-0.66-0.09-1.03-0.18
						c-0.37-0.11-0.75-0.24-1.1-0.43l-0.26-0.14c-0.08-0.05-0.17-0.11-0.25-0.16c-0.17-0.1-0.32-0.23-0.47-0.34
						c-0.29-0.24-0.55-0.47-0.75-0.69c-0.42-0.43-0.67-0.74-0.81-0.67c-0.13,0.07,0.01,0.5,0.42,1.01c0.2,0.26,0.48,0.52,0.81,0.77
						c0.17,0.12,0.34,0.25,0.53,0.34c0.09,0.05,0.19,0.11,0.28,0.16l0.3,0.13c0.2,0.1,0.41,0.14,0.61,0.21
						c0.2,0.06,0.41,0.08,0.61,0.13c0.4,0.05,0.78,0.07,1.09,0.04c0.32-0.01,0.58-0.07,0.76-0.1
						C-21.36,40.19-21.26,40.17-21.26,40.17z"/>
					<path class="st15" d="M-21.75,41.64c0,0-0.09,0.02-0.25,0.05c-0.08,0.02-0.17,0.03-0.28,0.06c-0.05,0.01-0.11,0.02-0.17,0.04
						c-0.06,0.01-0.13,0.02-0.2,0.02c-0.54,0.09-1.28,0.11-1.98,0.03c-0.71-0.08-1.38-0.33-1.85-0.57
						c-0.47-0.24-0.75-0.45-0.84-0.37c-0.09,0.08,0.14,0.42,0.64,0.72c0.5,0.3,1.25,0.55,2.01,0.57c0.76,0.03,1.51-0.09,2.04-0.25
						c0.07-0.02,0.13-0.04,0.19-0.05c0.06-0.02,0.12-0.04,0.17-0.06c0.11-0.04,0.2-0.07,0.28-0.1
						C-21.83,41.67-21.75,41.64-21.75,41.64z"/>
					<path class="st15" d="M-21.88,43.05c0,0-0.06,0.04-0.16,0.11c-0.05,0.03-0.11,0.08-0.18,0.13c-0.07,0.04-0.16,0.08-0.25,0.13
						c-0.37,0.18-0.9,0.31-1.44,0.33c-0.54,0.02-1.08-0.03-1.49-0.08c-0.41-0.05-0.68-0.07-0.71,0.02c-0.03,0.1,0.24,0.22,0.65,0.31
						c0.42,0.08,1,0.12,1.57,0.04c0.57-0.07,1.12-0.29,1.47-0.53c0.09-0.06,0.16-0.12,0.23-0.18c0.07-0.05,0.11-0.11,0.16-0.16
						C-21.92,43.1-21.88,43.05-21.88,43.05z"/>
					<path class="st15" d="M-21.7,44.36c0,0-0.04,0.04-0.11,0.1c-0.04,0.03-0.08,0.07-0.13,0.11c-0.05,0.04-0.11,0.08-0.18,0.12
						c-0.26,0.17-0.64,0.34-1.04,0.44c-0.8,0.21-1.63,0.17-1.64,0.36c-0.01,0.1,0.21,0.17,0.54,0.16c0.33,0,0.77-0.08,1.18-0.24
						c0.42-0.16,0.79-0.41,1.02-0.64c0.06-0.06,0.11-0.11,0.15-0.16c0.04-0.05,0.07-0.1,0.1-0.14C-21.74,44.4-21.7,44.36-21.7,44.36
						z"/>
					<path class="st15" d="M-21.32,45.44c0,0-0.02,0.04-0.07,0.11c-0.02,0.03-0.05,0.08-0.07,0.12c-0.03,0.04-0.07,0.09-0.11,0.14
						c-0.17,0.21-0.45,0.43-0.76,0.57c-0.64,0.3-1.34,0.32-1.34,0.48c0,0.08,0.19,0.12,0.48,0.08c0.28-0.04,0.65-0.15,0.98-0.35
						c0.33-0.2,0.59-0.49,0.72-0.73c0.03-0.06,0.06-0.12,0.09-0.17c0.02-0.05,0.03-0.1,0.05-0.14
						C-21.33,45.48-21.32,45.44-21.32,45.44z"/>
					<path class="st15" d="M-20.63,46.58c0,0-0.02,0.04-0.05,0.1c-0.03,0.06-0.08,0.15-0.15,0.24c-0.13,0.2-0.35,0.42-0.61,0.57
						c-0.26,0.16-0.54,0.24-0.76,0.3c-0.22,0.06-0.37,0.09-0.37,0.17c0,0.08,0.17,0.13,0.42,0.1c0.25-0.03,0.58-0.15,0.85-0.37
						c0.27-0.21,0.46-0.5,0.55-0.73c0.05-0.11,0.08-0.21,0.09-0.28C-20.64,46.62-20.63,46.58-20.63,46.58z"/>
					<path class="st15" d="M-19.76,47.59c0,0-0.01,0.03-0.03,0.09c-0.02,0.06-0.04,0.14-0.09,0.22c-0.09,0.18-0.25,0.38-0.47,0.52
						c-0.43,0.29-0.96,0.31-0.95,0.43c0,0.06,0.15,0.09,0.36,0.05c0.21-0.04,0.48-0.14,0.7-0.33c0.22-0.18,0.37-0.44,0.42-0.64
						c0.03-0.1,0.04-0.18,0.05-0.24C-19.77,47.63-19.76,47.59-19.76,47.59z"/>
				</g>
			</g>
			<g class="st11">
				<path class="st1" d="M-28.89,38.86c-1.2-9.97,4.86-14.5,10.85-15.12C-8.91,22.8-5.78,34-12.01,35.24
					c-4.88,0.97-8.82,2.81-9.63,5.92c-1.48,5.7,4.4,7.72,3.76,8.64C-18.53,50.71-27.69,48.82-28.89,38.86z M-24.31,47.1
					c3.68,3.34,7.01,2.95,5.09,1.56c-1.92-1.4-3.02-3.28-3.23-4.81c-0.65-4.65,2.77-6.01,4.74-7.18c4.76-2.84-4.49-12.04-9.11-3.49
					C-29.29,37.75-27.99,43.76-24.31,47.1z"/>
			</g>
			<g class="st16">
				<path class="st9" d="M-17.96,36.47c0,0-8.66,3.52-2.9,11.41C-20.87,47.88-28.57,40.33-17.96,36.47z"/>
			</g>
		</g>
		<g>
			<path class="st17" d="M10.25,39.94c30.39-0.76,29.84-18.68,22.32-32.73c-5.15-9.61-2.38-15.16-0.78-22.32
				c1.3-5.8-10.12-8.99-24.65-9.43c-14.53-0.45-29.58,3.09-26.47,8.53c3.11,5.44,0,12.76-2.6,24.18
				C-24.52,19.59-25.3,40.84,10.25,39.94z"/>
			<g>
				<path class="st17" d="M10.25,39.94C-25.3,40.84-24.52,19.59-21.93,8.17c2.6-11.42,5.71-18.74,2.6-24.18
					c-3.11-5.44,11.94-8.98,26.47-8.53c14.53,0.45,25.95,3.64,24.65,9.43c-1.6,7.16-4.37,12.71,0.78,22.32
					C40.09,21.27,40.64,39.18,10.25,39.94z M25.98-10.93C26.92-20,14.32-22.95,1.99-22.37c-12.32,0.59-18.13,3.74-16.62,13.2
					c0.88,5.53-4.9,13.57-6.35,22.76c-1.45,9.19-0.01,11.98,2.14,15.87c6.04,10.95,40.47,14.4,49.84,2.9
					C42.34,18.43,23.57,12.41,25.98-10.93z"/>
			</g>
		</g>
		<g>
			<g class="st18">
				<path class="st19" d="M-4.87,4.32c3.06-1.16,11.02-1.91,20.05,3.8c3.67,2.32,8.28,2.9,8.47-4.57c0.2-7.48-6.18-11.88-6.18-11.88
					s1.67-3.39-0.66-5.92c-2.33-2.53-8.11,0.3-9.94,1.49c-1.83,1.19-9.02-1.39-15.48,5.01c-4.3,4.26-4.46,11.57-2.41,13.39
					C-8.97,7.45-6.54,4.95-4.87,4.32z"/>
			</g>
			<path class="st20" d="M2.96,2.72c10.64,1.06,14.36,7.92,18.1,5.89c3.42-1.86,1.9-18.28-13.79-20.15
				C-11.27-13.74-13.31,2.85-10.06,5.19C-7.5,7.03-6.31,1.8,2.96,2.72z"/>
			<path class="st15" d="M-7.76,7.19c0,0-0.1,0.07-0.28,0.18C-8.22,7.49-8.48,7.65-8.82,7.8c-0.34,0.15-0.75,0.29-1.23,0.33
				c-0.24,0.01-0.48,0-0.73-0.05c-0.25-0.05-0.49-0.16-0.71-0.29c-0.44-0.28-0.78-0.69-1-1.11c-0.23-0.42-0.35-0.85-0.43-1.21
				c-0.15-0.74-0.08-1.24,0.01-1.24c0.11,0,0.15,0.48,0.32,1.17c0.09,0.34,0.21,0.74,0.41,1.12c0.2,0.39,0.48,0.76,0.85,1.02
				c0.37,0.27,0.83,0.38,1.27,0.39c0.44,0,0.85-0.1,1.19-0.22c0.34-0.12,0.62-0.25,0.81-0.34C-7.87,7.25-7.76,7.19-7.76,7.19z"/>
			<path class="st15" d="M18.33,10.07c0,0,0.1,0.05,0.26,0.14c0.08,0.04,0.18,0.1,0.3,0.15c0.12,0.05,0.25,0.11,0.4,0.17
				c0.15,0.05,0.32,0.1,0.49,0.15c0.09,0.02,0.18,0.04,0.27,0.05c0.05,0.01,0.09,0.02,0.14,0.03c0.05,0,0.1,0.01,0.15,0.01
				c0.39,0.05,0.81,0.01,1.19-0.12c0.38-0.13,0.74-0.34,1-0.61c0.07-0.06,0.12-0.14,0.18-0.21c0.03-0.03,0.06-0.07,0.09-0.1
				c0.02-0.04,0.05-0.07,0.07-0.11c0.05-0.07,0.1-0.14,0.14-0.21c0.04-0.07,0.07-0.14,0.11-0.21c0.27-0.55,0.37-0.97,0.48-0.95
				c0.05,0.01,0.06,0.12,0.04,0.32c0,0.05-0.01,0.1-0.02,0.16c-0.01,0.06-0.03,0.12-0.05,0.18c-0.04,0.13-0.08,0.28-0.15,0.43
				c-0.04,0.08-0.07,0.16-0.11,0.24c-0.05,0.08-0.1,0.16-0.15,0.24c-0.03,0.04-0.05,0.08-0.08,0.12c-0.03,0.04-0.07,0.08-0.1,0.12
				c-0.07,0.08-0.13,0.16-0.21,0.23c-0.3,0.3-0.72,0.53-1.16,0.65c-0.44,0.12-0.9,0.13-1.31,0.04c-0.05-0.01-0.1-0.02-0.15-0.03
				c-0.05-0.01-0.1-0.03-0.15-0.04c-0.1-0.03-0.19-0.05-0.28-0.08c-0.18-0.07-0.34-0.14-0.49-0.2c-0.14-0.08-0.27-0.15-0.39-0.21
				c-0.12-0.06-0.21-0.14-0.29-0.19C18.42,10.14,18.33,10.07,18.33,10.07z"/>
			<path class="st21" d="M-0.58-13.66c0,0,0.12-0.11,0.32-0.29c0.1-0.09,0.24-0.19,0.39-0.31c0.16-0.11,0.33-0.24,0.53-0.36
				c0.79-0.52,1.97-1,3.2-1.19c1.23-0.21,2.49-0.14,3.41,0.05c0.92,0.18,1.5,0.46,1.46,0.61c-0.04,0.14-0.63,0.02-1.53-0.1
				c-0.89-0.12-2.1-0.22-3.29-0.1c-1.2,0.11-2.37,0.47-3.18,0.89c-0.21,0.1-0.39,0.21-0.55,0.3c-0.16,0.1-0.3,0.19-0.41,0.26
				C-0.45-13.75-0.58-13.66-0.58-13.66z"/>
			<path class="st15" d="M-0.85-13.48c0,0,0.14-0.1,0.37-0.27c0.12-0.08,0.27-0.18,0.44-0.29c0.18-0.1,0.38-0.22,0.6-0.33
				c0.9-0.47,2.21-0.89,3.57-1.01c1.36-0.14,2.73,0,3.72,0.24c1,0.23,1.61,0.55,1.56,0.69c-0.05,0.14-0.69-0.02-1.66-0.19
				c-0.97-0.17-2.28-0.34-3.59-0.29c-1.31,0.04-2.61,0.33-3.53,0.71c-0.23,0.09-0.44,0.19-0.62,0.27c-0.18,0.09-0.34,0.17-0.47,0.24
				C-0.7-13.57-0.85-13.48-0.85-13.48z"/>
			<g>
				<path class="st21" d="M-6.06,28.63c-0.32,0.27-0.73,0.48-1.17,0.6c-0.46,0.12-0.98,0.15-1.46,0.09
					c-0.86-0.11-1.75-0.52-2.38-1.08c-0.28-0.25-0.46-0.49-0.57-0.65c-0.06-0.09-0.1-0.16-0.12-0.21l-0.45-0.91l0.64,0.79
					c0.03,0.03,0.07,0.08,0.14,0.16c0.12,0.12,0.32,0.3,0.61,0.47c0.48,0.29,1.31,0.61,2.19,0.62c0.39,0.01,0.78-0.04,1.15-0.16
					c0.31-0.1,0.61-0.24,0.89-0.43c0.14-0.09,0.26-0.18,0.37-0.26c0.25-0.18,0.42-0.31,0.58-0.31c0.05,0,0.1,0.01,0.14,0.04
					c0.06,0.04,0.1,0.11,0.11,0.2C-5.38,27.81-5.58,28.22-6.06,28.63z"/>
				<path class="st21" d="M6.84,29.67c-0.32,0.27-0.75,0.49-1.19,0.61c-0.47,0.13-1,0.16-1.5,0.09c-0.88-0.11-1.79-0.53-2.43-1.1
					c-0.29-0.25-0.47-0.5-0.58-0.66c-0.06-0.1-0.1-0.17-0.12-0.21l-0.47-0.93l0.66,0.81c0.03,0.05,0.1,0.12,0.14,0.16
					c0.12,0.12,0.33,0.31,0.63,0.48c0.49,0.3,1.34,0.63,2.24,0.64c0.4,0.01,0.8-0.04,1.18-0.16c0.32-0.1,0.63-0.25,0.92-0.44
					c0.14-0.1,0.27-0.19,0.38-0.28c0.26-0.19,0.43-0.32,0.58-0.32c0.05,0,0.1,0.01,0.14,0.04c0.13,0.09,0.14,0.27,0.02,0.53
					C7.37,29.09,7.2,29.38,6.84,29.67z"/>
				<path class="st21" d="M21.49,29.28c-0.02,0.04-0.06,0.12-0.12,0.21c-0.1,0.16-0.27,0.41-0.54,0.67c-0.24,0.23-1.13,1-2.4,1.08
					c-0.26,0.02-0.52,0.01-0.76-0.04c-0.25-0.04-0.49-0.12-0.72-0.22c-0.4-0.18-0.78-0.47-1.05-0.81c-0.34-0.43-0.53-0.88-0.46-1.14
					c0.03-0.11,0.09-0.15,0.13-0.17c0.03-0.02,0.07-0.02,0.11-0.02c0.18,0,0.34,0.17,0.59,0.44c0.09,0.09,0.19,0.2,0.29,0.31
					c0.26,0.25,0.51,0.44,0.79,0.58c0.16,0.08,0.33,0.15,0.51,0.19c0.18,0.05,0.37,0.08,0.57,0.09c0.83,0.05,1.67-0.29,2.15-0.61
					c0.3-0.2,0.5-0.39,0.59-0.5c0.08-0.08,0.12-0.14,0.14-0.17l0.62-0.79L21.49,29.28z"/>
			</g>
			<g>
				<path class="st15" d="M-6.06,29.11c-0.32,0.27-0.73,0.48-1.17,0.6c-0.46,0.12-0.98,0.15-1.46,0.09
					c-0.86-0.11-1.75-0.52-2.38-1.08c-0.28-0.25-0.46-0.49-0.57-0.65c-0.06-0.09-0.1-0.16-0.12-0.21l-0.45-0.91l0.64,0.79
					c0.03,0.03,0.07,0.09,0.14,0.16c0.12,0.12,0.32,0.3,0.61,0.47c0.48,0.29,1.31,0.61,2.19,0.62c0.39,0.01,0.78-0.04,1.15-0.16
					c0.31-0.1,0.61-0.24,0.89-0.43c0.14-0.09,0.26-0.18,0.37-0.26c0.25-0.18,0.42-0.31,0.58-0.31c0.05,0,0.1,0.01,0.14,0.04
					c0.06,0.04,0.1,0.11,0.11,0.2C-5.38,28.29-5.58,28.7-6.06,29.11z"/>
				<path class="st15" d="M6.84,30.16c-0.32,0.27-0.75,0.49-1.19,0.61c-0.47,0.13-1,0.16-1.5,0.09c-0.88-0.11-1.79-0.53-2.43-1.1
					c-0.29-0.25-0.47-0.5-0.58-0.66c-0.06-0.1-0.1-0.17-0.12-0.21l-0.47-0.93l0.66,0.81c0.03,0.05,0.1,0.12,0.14,0.16
					c0.12,0.12,0.33,0.31,0.63,0.48c0.49,0.3,1.34,0.63,2.24,0.64c0.4,0.01,0.8-0.04,1.18-0.16c0.32-0.1,0.63-0.25,0.92-0.44
					c0.14-0.1,0.27-0.19,0.38-0.28c0.26-0.19,0.43-0.32,0.58-0.32c0.05,0,0.1,0.01,0.14,0.04c0.13,0.09,0.14,0.27,0.02,0.53
					C7.37,29.57,7.2,29.86,6.84,30.16z"/>
				<path class="st15" d="M21.49,29.76c-0.02,0.04-0.06,0.12-0.12,0.21c-0.1,0.16-0.27,0.41-0.54,0.67c-0.24,0.23-1.13,1-2.4,1.08
					c-0.26,0.02-0.52,0.01-0.76-0.04c-0.25-0.04-0.49-0.12-0.72-0.22c-0.4-0.18-0.78-0.47-1.05-0.81c-0.34-0.43-0.53-0.88-0.46-1.14
					c0.03-0.11,0.09-0.15,0.13-0.17c0.03-0.02,0.07-0.02,0.11-0.02c0.18,0,0.34,0.18,0.59,0.44c0.09,0.09,0.19,0.2,0.29,0.31
					c0.26,0.25,0.51,0.44,0.79,0.58c0.16,0.08,0.33,0.15,0.51,0.19c0.18,0.05,0.37,0.08,0.57,0.09c0.83,0.05,1.67-0.29,2.15-0.61
					c0.3-0.2,0.5-0.39,0.59-0.5c0.08-0.08,0.12-0.14,0.14-0.17l0.62-0.79L21.49,29.76z"/>
			</g>
			<g>
				<path class="st21" d="M-15.74,19.48c1.2,11.87,14.08,10.37,13.61-0.59c-0.3-6.97-7.88-9.42-10.84-5.87c0,0,0.66-1.77,4.02-2.45
					C-11.33,10.4-16.48,12.15-15.74,19.48z"/>
				<path class="st21" d="M25.97,20.62c-1.93,11.73-14.69,9.44-13.55-1.43c0.73-6.91,8.45-8.88,11.18-5.16c0,0-0.55-1.8-3.86-2.69
					C22.13,11.32,27.16,13.38,25.97,20.62z"/>
				<path class="st21" d="M12.41,19.86c-0.16,4.64-3.57,8.29-7.6,8.14c-4.03-0.15-7.17-4.03-7-8.68c0.13-3.68,2.3-6.73,5.2-7.77
					c-1.08-0.21-2.22-0.58-3.39-1.16c0,0,5.71,1.49,11.56,0c0,0-1.44,0.84-3.69,1.22C10.46,12.76,12.54,16.05,12.41,19.86z"/>
				<g>
					<path class="st9" d="M5.38,12.1c3.67,0.13,6.52,3.61,6.37,7.78c-0.15,4.16-3.25,7.43-6.91,7.3c-3.67-0.13-6.52-3.61-6.37-7.78
						C-1.39,15.23,1.71,11.97,5.38,12.1z"/>
					<g>
						<path class="st22" d="M11.75,19.87c-0.15,4.16-3.25,7.43-6.91,7.3c-3.67-0.13-6.52-3.61-6.37-7.78
							c0.15-4.16,3.25-7.43,6.91-7.3C9.05,12.23,11.9,15.71,11.75,19.87z M9.39,16.48c-2.12-1.31-6.57-1.31-8.67-0.22
							c-3.55,1.85-1.86,10.62,4.22,10.62C11.22,26.89,13.1,18.78,9.39,16.48z"/>
					</g>
					<path class="st23" d="M-0.7,16.02C0.48,13.61,2.79,12,5.38,12.1c2.6,0.09,4.79,1.87,5.79,4.39c-0.96-0.64-2.73-1.37-5.9-1.48
						C2.16,14.89,0.33,15.47-0.7,16.02z"/>
					<g class="st4">
						<path class="st23" d="M5.27,15c-3.11-0.11-4.94,0.47-5.97,1.02C0.48,13.61,2.79,12,5.38,12.1c2.6,0.09,4.79,1.87,5.79,4.39
							C10.21,15.85,8.44,15.11,5.27,15z M5.59,12.62c-3.81-0.24-5.93,2.74-4.15,2.4c2.45-0.47,5.11-0.62,7.26,0.25
							C11,16.2,9.37,12.86,5.59,12.62z"/>
					</g>
					<g>
						<path class="st24" d="M5.03,17.48c1.29,0.05,2.29,1.21,2.24,2.6c-0.05,1.39-1.13,2.48-2.42,2.43
							c-1.29-0.05-2.29-1.21-2.24-2.6C2.66,18.52,3.74,17.43,5.03,17.48z"/>
						<path class="st19" d="M5.02,17.87c1.09,0.04,1.94,1.02,1.9,2.2c-0.04,1.18-0.96,2.1-2.05,2.06c-1.09-0.04-1.94-1.02-1.9-2.2
							C3.01,18.75,3.93,17.83,5.02,17.87z"/>
						<path class="st25" d="M4.99,18.53c0.69,0.02,1.23,0.7,1.2,1.51c-0.03,0.81-0.61,1.44-1.3,1.42c-0.69-0.02-1.23-0.7-1.2-1.51
							C3.72,19.14,4.3,18.51,4.99,18.53z"/>
						<path class="st9" d="M4.54,20.85c-0.1-0.31-0.36-0.54-0.6-0.51c-0.24,0.03-0.35,0.3-0.26,0.61c0.1,0.31,0.36,0.54,0.6,0.51
							C4.52,21.44,4.63,21.16,4.54,20.85z"/>
						<path class="st9" d="M3.89,19.74c0.02-0.14-0.06-0.26-0.17-0.27c-0.11-0.01-0.21,0.09-0.23,0.23
							c-0.02,0.14,0.06,0.26,0.17,0.27C3.77,19.98,3.87,19.88,3.89,19.74z"/>
					</g>
				</g>
				<g>
					<path class="st9" d="M-10.18,12.27c3.28-0.51,6.49,2.41,7.16,6.52c0.67,4.11-1.44,7.86-4.73,8.37
						c-3.28,0.51-6.49-2.41-7.16-6.52C-15.58,16.53-13.46,12.79-10.18,12.27z"/>
					<g>
						<path class="st22" d="M-3.02,18.79c0.67,4.11-1.44,7.86-4.73,8.37c-3.28,0.51-6.49-2.41-7.16-6.52
							c-0.67-4.11,1.44-7.86,4.73-8.37C-6.9,11.76-3.69,14.68-3.02,18.79z M-5.77,15.88c-2.13-0.92-6.08-0.14-7.73,1.3
							c-2.79,2.43,0.4,10.75,5.8,9.69C-2.14,25.77-2.04,17.48-5.77,15.88z"/>
					</g>
					<path class="st23" d="M-14.82,17.19c0.58-2.58,2.32-4.55,4.64-4.91c2.33-0.36,4.62,1,5.99,3.29c-0.97-0.46-2.69-0.87-5.52-0.42
						C-12.49,15.57-14.01,16.46-14.82,17.19z"/>
					<g class="st4">
						<path class="st23" d="M-9.71,15.14c-2.78,0.43-4.3,1.32-5.1,2.05c0.58-2.58,2.32-4.55,4.64-4.91c2.33-0.36,4.62,1,5.99,3.29
							C-5.17,15.11-6.88,14.7-9.71,15.14z M-9.9,12.75c-3.43,0.43-4.73,3.72-3.22,3.08c2.09-0.89,4.41-1.5,6.49-1.02
							C-4.4,15.32-6.49,12.32-9.9,12.75z"/>
					</g>
					<g>
						<path class="st24" d="M-9.45,17.61c1.15-0.18,2.27,0.79,2.49,2.16c0.22,1.37-0.53,2.63-1.68,2.81
							c-1.15,0.18-2.27-0.79-2.49-2.16C-11.36,19.05-10.6,17.79-9.45,17.61z"/>
						<path class="st19" d="M-9.39,18c0.98-0.15,1.92,0.67,2.11,1.83c0.19,1.16-0.45,2.23-1.42,2.38c-0.97,0.15-1.92-0.67-2.11-1.83
							C-11,19.21-10.36,18.15-9.39,18z"/>
						<path class="st25" d="M-9.28,18.65c0.62-0.1,1.22,0.47,1.35,1.27c0.13,0.8-0.26,1.52-0.88,1.62c-0.62,0.1-1.22-0.47-1.36-1.27
							C-10.29,19.48-9.9,18.75-9.28,18.65z"/>
						<path class="st9" d="M-9.24,21.01c-0.14-0.29-0.43-0.46-0.63-0.39c-0.2,0.07-0.25,0.36-0.11,0.65
							c0.14,0.29,0.43,0.46,0.63,0.39C-9.14,21.59-9.09,21.3-9.24,21.01z"/>
						<path class="st9" d="M-10.03,20.03c-0.01-0.14-0.1-0.25-0.2-0.24c-0.1,0.01-0.17,0.13-0.16,0.27c0.01,0.14,0.1,0.25,0.2,0.24
							C-10.09,20.29-10.02,20.17-10.03,20.03z"/>
					</g>
				</g>
				<g>
					<path class="st9" d="M20.79,12.96c3.23,0.8,5.05,4.73,4.09,8.78c-0.97,4.05-4.37,6.69-7.59,5.9c-3.23-0.8-5.05-4.73-4.09-8.78
						C14.16,14.81,17.56,12.17,20.79,12.96z"/>
					<g>
						<path class="st22" d="M24.87,21.74c-0.97,4.05-4.37,6.69-7.59,5.9c-3.23-0.8-5.05-4.73-4.09-8.78
							c0.97-4.05,4.37-6.69,7.59-5.9C24.01,13.76,25.84,17.69,24.87,21.74z M23.46,17.99c-1.61-1.67-5.55-2.48-7.64-1.79
							c-3.52,1.17-3.78,10.07,1.6,11.17C22.99,28.52,26.29,20.91,23.46,17.99z"/>
					</g>
					<path class="st23" d="M14.61,15.71c1.53-2.15,3.9-3.3,6.17-2.74c2.29,0.56,3.87,2.71,4.25,5.35c-0.72-0.8-2.15-1.84-4.93-2.52
						C17.38,15.11,15.64,15.35,14.61,15.71z"/>
					<g class="st4">
						<path class="st23" d="M20.11,15.79c-2.73-0.67-4.47-0.44-5.5-0.08c1.53-2.15,3.9-3.3,6.17-2.74c2.29,0.56,3.87,2.71,4.25,5.35
							C24.32,17.51,22.9,16.48,20.11,15.79z M20.87,13.51c-3.33-0.93-5.81,1.61-4.16,1.6c2.27-0.01,4.65,0.32,6.38,1.57
							C24.95,18.01,24.17,14.43,20.87,13.51z"/>
					</g>
					<g>
						<path class="st24" d="M19.4,18.17c1.13,0.28,1.79,1.6,1.47,2.96c-0.32,1.35-1.5,2.22-2.64,1.94c-1.13-0.28-1.79-1.6-1.46-2.96
							C17.09,18.76,18.27,17.89,19.4,18.17z"/>
						<path class="st19" d="M19.31,18.55c0.96,0.24,1.51,1.36,1.24,2.5c-0.27,1.14-1.27,1.88-2.23,1.64
							c-0.96-0.24-1.51-1.36-1.24-2.5C17.35,19.05,18.35,18.31,19.31,18.55z"/>
						<path class="st25" d="M19.15,19.2c0.61,0.15,0.95,0.91,0.76,1.7c-0.19,0.79-0.83,1.3-1.44,1.15c-0.61-0.15-0.95-0.91-0.76-1.7
							C17.9,19.56,18.55,19.05,19.15,19.2z"/>
						<path class="st9" d="M18.28,21.39c-0.02-0.32-0.22-0.59-0.43-0.6c-0.22-0.01-0.37,0.23-0.35,0.55
							c0.02,0.32,0.22,0.59,0.43,0.6C18.15,21.96,18.3,21.71,18.28,21.39z"/>
						<path class="st9" d="M17.93,20.18c0.04-0.13,0-0.27-0.09-0.3c-0.09-0.03-0.21,0.05-0.25,0.19c-0.04,0.13,0,0.27,0.09,0.3
							C17.78,20.4,17.89,20.31,17.93,20.18z"/>
					</g>
				</g>
			</g>
			<g>
				<path class="st26" d="M16.85-7.55c-1.26,2.94-4.41,5.74-9.19,6.09c-5.85,0.42-7.9-1.43-7.9-1.43C-3.34-3.14-6.52-5.28-7.5-7.58
					c2.28-2.23,5.62-3.87,10.14-4.12c3.49,0.3,4.87-0.26,7.03-1.57c2.13-1.29,5.44-1.95,6.92,0C17.69-11.82,17.75-9.64,16.85-7.55z"
					/>
				<path class="st20" d="M-1.63-3.11c0,0,0.19,0.06,0.54,0.13c0.35,0.07,0.85,0.16,1.46,0.21C0.98-2.72,1.7-2.69,2.47-2.74
					c0.38-0.03,0.78-0.06,1.17-0.12c0.4-0.05,0.8-0.13,1.2-0.21c0.4-0.1,0.79-0.2,1.17-0.33C6.4-3.52,6.77-3.66,7.12-3.82
					C7.48-3.96,7.81-4.13,8.11-4.3c0.15-0.09,0.3-0.17,0.44-0.25C8.7-4.64,8.83-4.72,8.96-4.8c0.26-0.17,0.49-0.33,0.68-0.48
					c0.19-0.15,0.37-0.28,0.5-0.4c0.27-0.23,0.42-0.37,0.42-0.37s-0.16,0.12-0.45,0.34C9.99-5.6,9.81-5.48,9.6-5.34
					C9.4-5.2,9.16-5.06,8.9-4.9C8.77-4.82,8.64-4.75,8.49-4.66C8.35-4.58,8.2-4.51,8.05-4.43C7.73-4.28,7.4-4.12,7.05-3.98
					C6.7-3.83,6.34-3.7,5.96-3.58C5.58-3.46,5.19-3.36,4.8-3.27C4.4-3.18,4.01-3.1,3.61-3.04c-0.39,0.06-0.78,0.1-1.16,0.13
					C2.08-2.89,1.71-2.87,1.36-2.86c-0.35,0.01-0.68,0-0.98-0.02c-0.61-0.03-1.11-0.08-1.46-0.13C-1.43-3.06-1.63-3.11-1.63-3.11z"
					/>
				<g class="st4">
					<path class="st26" d="M16.85-7.55c-1.26,2.94-4.41,5.74-9.19,6.09c-5.85,0.42-7.9-1.43-7.9-1.43C-3.34-3.14-6.52-5.28-7.5-7.58
						c2.28-2.23,5.62-3.87,10.14-4.12c3.49,0.3,4.87-0.26,7.03-1.57c2.13-1.29,5.44-1.95,6.92,0C17.69-11.82,17.75-9.64,16.85-7.55z
						 M9.43-10.89C4.75-8.93,2.03-7.32-1.14-6.05c-2.74,1.1-1.71,3.27,3.42,2.99c5.13-0.27,8.89-3.39,8.89-3.39
						c-0.75,0.96-2.43,2.26-4.72,3.18C4.16-2.34,3.72-1.11,7.9-1.6c5.19-0.62,8.76-4.35,9.12-7.92
						C17.47-13.91,12.98-12.37,9.43-10.89z"/>
				</g>
				<g class="st4">
					<path class="st26" d="M8.54-12.22c-2.98,1.5-2.6,0.62-8.21,3.11c-5.61,2.5-5.21,4.5-3.86,5.28C-5.35-4.71-6.88-6.11-7.5-7.58
						c2.28-2.23,5.62-3.87,10.14-4.12c3.49,0.3,4.87-0.26,7.03-1.57c2.09-1.27,5.31-1.92,6.83-0.11
						C14.61-14.87,11.51-13.72,8.54-12.22z"/>
				</g>
			</g>
			<g>
				<path class="st9" d="M13.78,3.49c0.8-0.49,3.79,0.39,3.92,1.64c0.1,0.91-0.33,2.08-0.81,3c-1.2-0.62-2.57-1.51-4.23-2.4
					C12.87,4.96,13.27,3.81,13.78,3.49z"/>
				<path class="st9" d="M8.09,1.14c0.68-0.28,2.97,0.58,3.08,1.25c0.07,0.44-0.26,1.61-0.49,2.38C9.58,4.29,8.38,3.84,7.05,3.47
					C7.26,2.61,7.64,1.32,8.09,1.14z"/>
				<path class="st9" d="M19.01,5.78c0.44-0.21,1.64,0.13,2.13,1.08c0.29,0.56,0.21,1.21,0.09,1.64c-0.06,0.04-0.12,0.08-0.18,0.12
					c-1.07,0.58-2.14,0.44-3.37-0.09C17.89,7.63,18.31,6.1,19.01,5.78z"/>
				<path class="st9" d="M2.66,0.57c0.72-0.48,3.18-0.31,3.9,0.24C6.97,1.13,6.9,2.4,6.77,3.4C5.61,3.1,4.34,2.86,2.96,2.72
					C2.64,2.69,2.33,2.67,2.03,2.65C2.07,1.89,2.22,0.86,2.66,0.57z"/>
				<path class="st9" d="M-5.3,1.85c0.31-0.46,1.92-0.83,2.26-0.68c0.27,0.12,0.46,1.08,0.56,1.78c-1.09,0.24-1.98,0.57-2.74,0.93
					C-5.32,3.1-5.42,2.03-5.3,1.85z"/>
				<path class="st9" d="M-6.51-4.61C-6.75-4.15-8.32-3.57-8.87-3.7C-9.19-3.79-9.42-4.4-9.56-4.89c0.68-1.16,1.57-2.28,2.7-3.26
					C-6.58-6.82-6.32-4.98-6.51-4.61z"/>
				<path class="st9" d="M19.45-2.54c-0.55,0.14-2.12-0.44-2.36-0.91c-0.19-0.37,0.08-2.27,0.37-3.6c1.09,1.02,1.98,2.14,2.69,3.3
					C20.01-3.26,19.77-2.62,19.45-2.54z"/>
				<path class="st9" d="M-9.53,2.26c0.59-0.56,2.46-0.67,3.3-0.19c0.3,0.17,0.44,1.2,0.5,2.05c-1.75,0.9-2.71,1.79-3.83,1.34
					C-9.67,4.5-9.83,2.55-9.53,2.26z"/>
			</g>
			<g>
				<path class="st10" d="M15.74,6.31c0.86-0.02,1.5-0.42,1.98-1c0.03,0.88-0.38,1.96-0.83,2.82c-1.2-0.62-2.57-1.51-4.23-2.4
					c0.05-0.18,0.11-0.38,0.18-0.58C13.59,5.9,14.71,6.33,15.74,6.31z"/>
				<path class="st10" d="M9.14,3.47c0.82,0.09,1.5-0.21,2.01-0.72c-0.06,0.55-0.3,1.41-0.49,2.01C9.58,4.29,8.38,3.84,7.05,3.47
					c0.09-0.35,0.2-0.77,0.33-1.16C7.77,2.93,8.38,3.39,9.14,3.47z"/>
				<path class="st10" d="M19.58,7.88c0.75,0.01,1.31-0.3,1.66-0.79c0.16,0.5,0.09,1.03-0.01,1.4c-0.06,0.04-0.12,0.08-0.18,0.12
					c-1.07,0.58-2.14,0.44-3.37-0.09c0.08-0.35,0.2-0.81,0.35-1.25C18.49,7.63,19.05,7.88,19.58,7.88z"/>
				<path class="st10" d="M4.86,2.26c0.79-0.2,1.44-0.61,1.89-1.15C6.94,1.63,6.88,2.6,6.77,3.4C5.61,3.1,4.34,2.86,2.96,2.72
					C2.64,2.69,2.33,2.67,2.03,2.65C2.05,2.31,2.09,1.9,2.17,1.54C2.83,2.22,3.82,2.53,4.86,2.26z"/>
				<path class="st10" d="M-5.23,3.88c-0.02-0.19-0.05-0.4-0.07-0.61c1.04-0.18,1.77-0.97,1.87-2.12c0.17-0.01,0.31-0.01,0.38,0.03
					c0.27,0.12,0.46,1.08,0.56,1.78C-3.58,3.19-4.47,3.52-5.23,3.88z"/>
				<path class="st10" d="M-7.22-6.28C-7.95-6.12-8.59-5.68-8.93-5C-9.1-4.65-9.17-4.29-9.15-3.93c-0.18-0.24-0.31-0.63-0.41-0.96
					c0.68-1.16,1.57-2.28,2.7-3.26c0.12,0.58,0.24,1.25,0.32,1.86C-6.76-6.33-6.99-6.33-7.22-6.28z"/>
				<path class="st10" d="M19.55-2.59c0.08-0.43,0.07-0.87-0.06-1.29c-0.3-0.98-1.12-1.87-2.19-1.98c-0.02,0-0.05,0-0.07,0
					c0.07-0.41,0.15-0.82,0.23-1.19c1.09,1.02,1.98,2.14,2.69,3.3C20.02-3.31,19.82-2.76,19.55-2.59z"/>
				<path class="st10" d="M-9.57,5.47c-0.02-0.21-0.05-0.46-0.07-0.73c0.88,0.34,1.87-0.05,2.43-0.88c0.36-0.53,0.62-1.29,0.52-1.97
					C-6.52,1.94-6.36,2-6.23,2.07c0.3,0.17,0.44,1.2,0.5,2.05C-7.48,5.03-8.45,5.92-9.57,5.47z"/>
			</g>
			<path class="st21" d="M-12.59,4.54c0.3,2.45,1.26,4.19,4.83,2.66C-7.76,7.19-11.4,8.73-12.59,4.54z"/>
			<path class="st21" d="M23.3,7.37c-0.3,2.45-1.26,4.19-4.83,2.66C18.47,10.03,22.1,11.57,23.3,7.37z"/>
			<path class="st21" d="M-0.69-13.28c0,0,3.49-2.54,9.44-1.05C8.75-14.33,3.47-15.13-0.69-13.28z"/>
		</g>
	</g>
</symbol>
<use xlink:href="#Likee"  width="100.56" height="100" x="-50.28" y="-50" transform="matrix(1 0 0 -1 50.2792 50)" style="overflow:visible;"/>
</svg>
