<?xml version="1.0" encoding="utf-8"?>
<!-- Generator: Adobe Illustrator 26.3.1, SVG Export Plug-In . SVG Version: 6.00 Build 0)  -->
<svg version="1.1" id="Layer_1" xmlns="http://www.w3.org/2000/svg" xmlns:xlink="http://www.w3.org/1999/xlink" x="0px" y="0px"
	 viewBox="0 0 76.9 100" style="enable-background:new 0 0 76.9 100;" xml:space="preserve">
<style type="text/css">
	.st0{fill:#51B748;}
	.st1{fill:#2F7F30;}
	.st2{opacity:0.5;fill:#2F7F30;}
	.st3{fill:#FFC847;}
	.st4{fill:#FDB845;}
	.st5{fill:#BCD531;}
	.st6{fill:#FFFFFF;}
	.st7{fill:#D5D7D8;}
	.st8{fill:#703000;}
	.st9{fill:#8D4423;}
	.st10{fill:#380D00;}
	.st11{fill:#F7941E;}
</style>
<symbol  id="Jronk" viewBox="-38.45 -50 76.9 100">
	<g>
		<g>
			<path class="st0" d="M-14.71-15.89c0,0-2.79-13.7,2.15-24.71c-4.85-1.03-9.14-6.01-9.34-8.23c-0.2-0.92,1.96-1.1,2.83-0.38
				c-0.03-0.92,3.2-1.13,4.56-0.2c0.92-0.69,11.66,0.45,11.1,3.21c0.89-0.7,1.21-1.49,1.21-1.49s1.77,4.01-1.21,5.55
				c1.26,0.05,2.05-0.37,2.05-0.37s-0.7,2.43-3.41,2.61c-0.56,7.56-0.01,14.92,2.33,21.32C0.79-9.76-10.33-3.26-14.71-15.89z"/>
			<g>
				<path class="st1" d="M-8.51-42.57c-1.51-0.79-2.87-1.27-4.06-2.59c-1.07-1.2-1.96-2.66-2.31-4.24
					c-0.07-0.31,0.34,0.02,0.39,0.15c0.53,1.55,1.23,2.87,2.3,4.12c1.04,1.22,2.49,1.54,3.67,2.46
					C-8.49-42.65-8.44-42.53-8.51-42.57z"/>
				<path class="st1" d="M-12.91-42.56c-2.69-0.97-5.45-3.26-6.02-6.22c-0.07-0.34,0.38,0.02,0.43,0.17
					c0.9,2.79,3.06,4.67,5.57,5.98C-12.91-42.63-12.87-42.55-12.91-42.56z"/>
			</g>
		</g>
		<path class="st0" d="M-3.41-42.13c1.26,0.05,2.05-0.37,2.05-0.37s-0.7,2.43-3.41,2.61c-0.56,7.56-0.01,14.92,2.33,21.32
			c3.22,8.82-7.9,15.31-12.28,2.69c0,0-0.17-0.82-0.35-2.22c1.41-0.73,3.96-1.92,6.64-2.62c4.05-1.06,0.99-9.88,1.83-18
			c0-2.52,1.64-1.04,3.35-2.55c-1.75,0.24-2.31-0.04-2.31-0.04s2.67-1.16,2.87-4.06c-0.88,1.35-2.19,2.07-2.19,2.07
			s0.29-4.56-5.87-5.21c-2.8-0.14-2.38,2.38-0.61,3.45s3.36,2.33,3.36,2.33s-1.59-0.05-4.34-1.26s-3.17-4.99-5.04-4.85
			c-1.87,0.14,1.59,5.27,5.18,6.53c-3.03,0-6.3-2.89-7.51-4.85c-0.56-0.91-1.47-1.28-2.07-1.06c-0.07-0.21-0.11-0.41-0.13-0.59
			c-0.2-0.92,1.96-1.1,2.83-0.38c-0.03-0.92,3.2-1.13,4.56-0.2c0.92-0.69,11.66,0.45,11.1,3.21c0.89-0.7,1.21-1.49,1.21-1.49
			S-0.42-43.67-3.41-42.13z"/>
		<path class="st2" d="M-9.23-24.35c-1.41-0.13-3.66-1.25-4.5,0.57c-0.05,0.11-0.24-0.13-0.21-0.23c0.67-1.91,3.25-1.29,4.63-0.68
			C-9.22-24.65-9.03-24.33-9.23-24.35z"/>
		<path class="st0" d="M-11.4-39.08c-0.82,2.11-1.68,4.17-2.2,6.39c-0.53,2.27-0.45,4.54-0.24,6.84c0.01,0.16-0.18-0.03-0.19-0.1
			c-0.52-2.39-0.55-4.73-0.08-7.14c0.42-2.14,1.08-4.63,2.25-6.48C-11.7-39.82-11.32-39.28-11.4-39.08z"/>
		<path class="st0" d="M-11.28-24.07c-0.3-0.01-0.6-0.06-0.9-0.08c-0.44-0.03-0.73,0.24-1.07,0.46c-0.03,0.02-0.07-0.05-0.06-0.07
			c0.26-0.31,0.4-0.64,0.81-0.76c0.31-0.09,0.79-0.08,1.09,0.06C-11.34-24.42-11.1-24.06-11.28-24.07z"/>
	</g>
	<g>
		<g>
			<path class="st0" d="M22.23-15.89c0,0,2.79-13.7-2.15-24.71c4.85-1.03,9.14-6.01,9.34-8.23c0.2-0.92-1.96-1.1-2.83-0.38
				c0.03-0.92-3.2-1.13-4.56-0.2c-0.92-0.69-11.66,0.45-11.1,3.21c-0.89-0.7-1.21-1.49-1.21-1.49s-1.77,4.01,1.21,5.55
				c-1.26,0.05-2.05-0.37-2.05-0.37s0.7,2.43,3.41,2.61c0.56,7.56,0.01,14.92-2.33,21.32C6.74-9.76,17.85-3.26,22.23-15.89z"/>
			<g>
				<path class="st1" d="M16.04-42.57c1.51-0.79,2.87-1.27,4.06-2.59c1.07-1.2,1.96-2.66,2.31-4.24c0.07-0.31-0.34,0.02-0.39,0.15
					c-0.53,1.55-1.23,2.87-2.3,4.12c-1.04,1.22-2.49,1.54-3.67,2.46C16.01-42.65,15.97-42.53,16.04-42.57z"/>
				<path class="st1" d="M20.44-42.56c2.69-0.97,5.45-3.26,6.02-6.22c0.07-0.34-0.38,0.02-0.43,0.17c-0.9,2.79-3.06,4.67-5.57,5.98
					C20.44-42.63,20.4-42.55,20.44-42.56z"/>
			</g>
		</g>
		<path class="st0" d="M10.93-42.13c-1.26,0.05-2.05-0.37-2.05-0.37s0.7,2.43,3.41,2.61c0.56,7.56,0.01,14.92-2.33,21.32
			c-3.22,8.82,7.9,15.31,12.28,2.69c0,0,0.17-0.82,0.35-2.22c-1.41-0.73-3.96-1.92-6.64-2.62c-4.05-1.06-0.99-9.88-1.83-18
			c0-2.52-1.64-1.04-3.35-2.55c1.75,0.24,2.31-0.04,2.31-0.04s-2.67-1.16-2.87-4.06c0.88,1.35,2.19,2.07,2.19,2.07
			s-0.29-4.56,5.87-5.21c2.8-0.14,2.38,2.38,0.61,3.45c-1.77,1.07-3.36,2.33-3.36,2.33s1.59-0.05,4.34-1.26
			c2.75-1.21,3.17-4.99,5.04-4.85c1.87,0.14-1.59,5.27-5.18,6.53c3.03,0,6.3-2.89,7.51-4.85c0.56-0.91,1.47-1.28,2.07-1.06
			c0.07-0.21,0.11-0.41,0.13-0.59c0.2-0.92-1.96-1.1-2.83-0.38c0.03-0.92-3.2-1.13-4.56-0.2c-0.92-0.69-11.66,0.45-11.1,3.21
			c-0.89-0.7-1.21-1.49-1.21-1.49S7.95-43.67,10.93-42.13z"/>
		<path class="st2" d="M16.75-24.35c1.41-0.13,3.66-1.25,4.5,0.57c0.05,0.11,0.24-0.13,0.21-0.23c-0.67-1.91-3.25-1.29-4.63-0.68
			C16.74-24.65,16.56-24.33,16.75-24.35z"/>
		<path class="st0" d="M18.92-39.08c0.82,2.11,1.68,4.17,2.2,6.39c0.53,2.27,0.45,4.54,0.24,6.84c-0.01,0.16,0.18-0.03,0.19-0.1
			c0.52-2.39,0.55-4.73,0.08-7.14c-0.42-2.14-1.08-4.63-2.25-6.48C19.23-39.82,18.85-39.28,18.92-39.08z"/>
		<path class="st0" d="M18.81-24.07c0.3-0.01,0.6-0.06,0.9-0.08c0.44-0.03,0.73,0.24,1.07,0.46c0.03,0.02,0.07-0.05,0.06-0.07
			c-0.26-0.31-0.4-0.64-0.81-0.76c-0.31-0.09-0.79-0.08-1.09,0.06C18.87-24.42,18.62-24.06,18.81-24.07z"/>
	</g>
	<g>
		<g>
			<path class="st3" d="M-33.27-16.16c0,0-0.22-2.72-0.16-5.53c0.03-1.78-1.51,0.08-1.6,4.65C-34.94-14.57-33.18-14.3-33.27-16.16z"
				/>
			<path class="st4" d="M-33.27-16.16c0.09,1.86-1.67,1.59-1.77-0.88c0.01-0.26,0.02-0.51,0.03-0.76c0.28-0.11,0.52,0.11,0.83,0
				c0.34-0.12,0.33-0.59,0.33-0.89c-0.03-1.25-0.13-2.45,0.23-3.65c0.12,0.04,0.19,0.26,0.19,0.66
				C-33.49-18.88-33.27-16.16-33.27-16.16z"/>
			<path class="st3" d="M-35.04-17.04c0,0-0.75-2.38-0.84-4.34c-0.09-1.45-0.93,0.61-0.65,2.75
				C-36.25-16.48-34.43-14.52-35.04-17.04z"/>
			<path class="st4" d="M-35.99-16.9c0.12-0.18,0.26-0.35,0.29-0.55c0.05-0.29,0.03-0.56-0.01-0.85c-0.1-0.77-0.22-1.54-0.28-2.31
				c-0.02-0.29-0.05-0.76-0.2-1.11c0.14-0.25,0.28-0.19,0.31,0.34c0.09,1.96,0.84,4.34,0.84,4.34
				C-34.61-15.26-35.39-15.72-35.99-16.9z"/>
			<path class="st3" d="M-35.92-15.82c0,0-0.93-2.1-1.12-3.87c-0.19-1.77-0.96-0.42-0.79,1.63C-37.6-15.17-34.99-12.65-35.92-15.82z
				"/>
			<path class="st4" d="M-37.04-15.51c0.21-0.06,0.35-0.31,0.32-0.6c-0.08-0.83-0.52-1.6-0.56-2.44c-0.03-0.58,0.13-1.31,0.02-1.92
				c0.09,0.1,0.17,0.34,0.22,0.77c0.19,1.77,1.12,3.87,1.12,3.87C-35.3-13.7-36.26-14.13-37.04-15.51z"/>
			<path class="st3" d="M-33.12-15.87c0,0,1.12-1.17,1.96-2.85c0.84-1.68,1.49-0.28,0.75,1.59c-0.75,1.87-2.24,3.27-2.24,3.27
				L-33.12-15.87z"/>
			<path class="st4" d="M-32.23-15.43c0.01,0.02,0.05,0.07,0.08,0.07c0.78-0.15,1.2-1.37,1.44-2c0.24-0.64,0.42-1.3,0.47-1.97
				c0.22,0.33,0.22,1.2-0.18,2.2c-0.75,1.87-2.24,3.27-2.24,3.27l-0.47-2.01c0,0,0.15-0.16,0.38-0.44
				C-32.59-16-32.43-15.69-32.23-15.43z"/>
		</g>
		<path class="st0" d="M-32.3,6.59c0,0-5.59-8.62-4.8-19.01c0.78-8.23,4.6-5.18,5.09-0.59c0.53,4.92,2.2,9.5,4.07,11.88
			C-22.85,5.33-25.83,14.63-32.3,6.59z"/>
		<g>
			<path class="st0" d="M-32.3,6.59c0,0-0.57-0.88-1.31-2.4c1.07-1.96,2.77-5.86,2.02-9.76c-0.98-5.09-1.82-12.16-4.55-10.89
				c1.42-2.68,3.75-0.06,4.13,3.45c0.53,4.92,2.2,9.5,4.07,11.88C-22.85,5.33-25.83,14.63-32.3,6.59z"/>
		</g>
		<path class="st0" d="M-33.61,2.77c0,0-4.22-9.08-2.37-18.17C-38.16-10.66-36.3-1.58-33.61,2.77z"/>
	</g>
	<g>
		<g>
			<path class="st3" d="M33.86-16.16c0,0,0.22-2.72,0.16-5.53c-0.03-1.78,1.51,0.08,1.6,4.65C35.54-14.57,33.78-14.3,33.86-16.16z"
				/>
			<path class="st4" d="M33.86-16.16c-0.09,1.86,1.67,1.59,1.77-0.88c-0.01-0.26-0.02-0.51-0.03-0.76c-0.28-0.11-0.52,0.11-0.83,0
				c-0.34-0.12-0.33-0.59-0.33-0.89c0.03-1.25,0.13-2.45-0.23-3.65c-0.12,0.04-0.19,0.26-0.19,0.66
				C34.08-18.88,33.86-16.16,33.86-16.16z"/>
			<path class="st3" d="M35.63-17.04c0,0,0.75-2.38,0.84-4.34c0.09-1.45,0.93,0.61,0.65,2.75C36.84-16.48,35.02-14.52,35.63-17.04z"
				/>
			<path class="st4" d="M36.58-16.9c-0.12-0.18-0.26-0.35-0.29-0.55c-0.05-0.29-0.03-0.56,0.01-0.85c0.1-0.77,0.22-1.54,0.28-2.31
				c0.02-0.29,0.05-0.76,0.2-1.11c-0.14-0.25-0.28-0.19-0.31,0.34c-0.09,1.96-0.84,4.34-0.84,4.34
				C35.2-15.26,35.99-15.72,36.58-16.9z"/>
			<path class="st3" d="M36.52-15.82c0,0,0.93-2.1,1.12-3.87c0.19-1.77,0.96-0.42,0.79,1.63C38.2-15.17,35.58-12.65,36.52-15.82z"/>
			<path class="st4" d="M37.63-15.51c-0.21-0.06-0.35-0.31-0.32-0.6c0.08-0.83,0.52-1.6,0.56-2.44c0.03-0.58-0.13-1.31-0.02-1.92
				c-0.09,0.1-0.17,0.34-0.22,0.77c-0.19,1.77-1.12,3.87-1.12,3.87C35.89-13.7,36.86-14.13,37.63-15.51z"/>
			<path class="st3" d="M33.72-15.87c0,0-1.12-1.17-1.96-2.85c-0.84-1.68-1.49-0.28-0.75,1.59c0.75,1.87,2.24,3.27,2.24,3.27
				L33.72-15.87z"/>
			<path class="st4" d="M32.82-15.43c-0.01,0.02-0.05,0.07-0.08,0.07c-0.78-0.15-1.2-1.37-1.44-2c-0.24-0.64-0.42-1.3-0.47-1.97
				c-0.22,0.33-0.22,1.2,0.18,2.2c0.75,1.87,2.24,3.27,2.24,3.27l0.47-2.01c0,0-0.15-0.16-0.38-0.44
				C33.18-16,33.02-15.69,32.82-15.43z"/>
		</g>
		<path class="st0" d="M32.89,6.59c0,0,5.59-8.62,4.8-19.01c-0.78-8.23-4.6-5.18-5.09-0.59c-0.53,4.92-2.2,9.5-4.07,11.88
			C23.44,5.33,26.42,14.63,32.89,6.59z"/>
		<g>
			<path class="st0" d="M32.89,6.59c0,0,0.57-0.88,1.31-2.4c-1.07-1.96-2.77-5.86-2.02-9.76c0.98-5.09,1.82-12.16,4.55-10.89
				c-1.42-2.68-3.75-0.06-4.13,3.45c-0.53,4.92-2.2,9.5-4.07,11.88C23.44,5.33,26.42,14.63,32.89,6.59z"/>
		</g>
		<path class="st0" d="M34.21,2.77c0,0,4.22-9.08,2.37-18.17C38.75-10.66,36.89-1.58,34.21,2.77z"/>
	</g>
	<path class="st5" d="M-38.37,26.95c0,0,2.38-22.02,12.88-36.01C-15-23.06,22.79-26.97,31.19-0.24c5.6,21.83,9.84,40.72,0,41.81
		c-4.49,0.43-8.07-0.5-9.12,3.65c-0.99,3.22-5.67,4.68-11.11,1.58c-2.87-1.4-4.62-2.92-8.07,1.52C0.66,51-3.2,50.3-6.01,47.44
		c-2.81-2.87-3.63-2.81-6.43-0.7c-2.81,2.11-6.43,1.17-8.13-1.75c-1.7-2.92-2.51-4.5-7.37-3.86
		C-32.79,41.76-39.28,41.13-38.37,26.95z"/>
	<path class="st5" d="M-1.92-4.4c0,0,1.62-0.99,3.43-0.07C1.21-6.11-0.87-6.81-1.92-4.4z"/>
	<path class="st5" d="M-21.54,3.17c0,0-0.4-1.93,0.79-2.62c0,0-0.59-2.38,1.73-2.67c2.33-0.3,1.68,1.04,2.28,1.09
		c0,0,0.94-0.3,1.93-0.05c0.54-1.48,1.48-2.23,3.02-1.63c1.53,0.59,1.78,1.73,1.78,1.73s0.54-0.1,0.99,0.05
		c0.35-1.39,1.73-2.13,3.37-1.93c1.63,0.2,1.83,1.68,1.83,1.68s0.1-1.73,2.13-1.73c2.03,0,2.52,1.73,2.52,1.73s0.84,0.05,1.68,0.2
		c0.45-1.78,1.24-2.57,3.17-2.33c1.93,0.25,1.73,1.88,1.73,1.88s2.03-0.2,2.72-0.2c0-1.48,1.58-2.08,3.51-1.88
		c1.93,0.2,1.63,2.08,1.63,2.08s1.24,0.35,1.68,0.64c0.35-1.19,2.33-0.99,3.41-0.15c1.09,0.84,0.69,2.33,0.35,3.27
		c0.79,1.14,1.14,2.77,1.14,2.77S23.4,3.86,24.98,5c-1.83,0.4-3.76,1.98-3.76,1.98s0.59-4.26-4.8-6.73C12.9-0.89-5.41,0.3-6.64,0.4
		C-7.88,0.5-19.86-1.78-21.54,3.17z"/>
	<path class="st5" d="M18.7,24.41c0-2.68-2.17-4.85-4.85-4.85c-2.68,0-4.85,2.17-4.85,4.85c0,2.68,2.17,4.85,4.85,4.85
		C16.53,29.26,18.7,27.09,18.7,24.41z"/>
	<path class="st5" d="M-11.87,21.24c0-2.67-2.16-4.83-4.83-4.83c-2.67,0-4.83,2.16-4.83,4.83c0,2.67,2.16,4.83,4.83,4.83
		C-14.03,26.07-11.87,23.91-11.87,21.24z"/>
	<path class="st5" d="M5.07,24.12c0-3.37-2.73-6.1-6.1-6.1c-3.37,0-6.1,2.73-6.1,6.1c0,3.37,2.73,6.1,6.1,6.1
		C2.34,30.22,5.07,27.49,5.07,24.12z"/>
	<g>
		<path class="st5" d="M1.62,12.03c0-0.46-0.25-0.82-0.56-0.82c-0.31,0-0.56,0.37-0.56,0.82s0.25,0.82,0.56,0.82
			C1.36,12.86,1.62,12.49,1.62,12.03z"/>
		<path class="st5" d="M-2.16,11.97c0-0.46-0.25-0.82-0.56-0.82c-0.31,0-0.56,0.37-0.56,0.82c0,0.46,0.25,0.82,0.56,0.82
			C-2.41,12.8-2.16,12.43-2.16,11.97z"/>
	</g>
	<g>
		<path class="st6" d="M18.22,24.42c0-2.38-1.93-4.3-4.3-4.3c-2.38,0-4.3,1.93-4.3,4.3c0,2.38,1.93,4.3,4.3,4.3
			C16.3,28.72,18.22,26.79,18.22,24.42z"/>
		<g>
			<path class="st7" d="M13.92,28.72c-2.38,0-4.3-1.93-4.3-4.3c0-2.38,1.93-4.3,4.3-4.3c2.38,0,4.3,1.93,4.3,4.3
				C18.22,26.79,16.3,28.72,13.92,28.72z M13.72,21.03c-2.04,0-3.7,1.65-3.7,3.7c0,2.04,1.65,3.7,3.7,3.7c2.04,0,3.69-1.65,3.69-3.7
				C17.42,22.69,15.76,21.03,13.72,21.03z"/>
		</g>
	</g>
	<g>
		<path class="st6" d="M-12.41,21.26c0-2.38-1.93-4.3-4.3-4.3c-2.38,0-4.3,1.93-4.3,4.3c0,2.38,1.93,4.3,4.3,4.3
			C-14.34,25.56-12.41,23.63-12.41,21.26z"/>
		<g>
			<path class="st7" d="M-16.71,25.56c-2.38,0-4.3-1.93-4.3-4.3c0-2.38,1.93-4.3,4.3-4.3c2.38,0,4.3,1.93,4.3,4.3
				C-12.41,23.63-14.34,25.56-16.71,25.56z M-16.91,17.87c-2.04,0-3.7,1.65-3.7,3.7c0,2.04,1.65,3.7,3.7,3.7
				c2.04,0,3.69-1.65,3.69-3.7C-13.22,19.53-14.87,17.87-16.91,17.87z"/>
		</g>
	</g>
	<g>
		<path class="st6" d="M4.41,24.12c0-3.02-2.45-5.47-5.47-5.47s-5.47,2.45-5.47,5.47c0,3.02,2.45,5.47,5.47,5.47
			S4.41,27.15,4.41,24.12z"/>
		<g>
			<path class="st7" d="M-1.06,29.6c-3.02,0-5.47-2.45-5.47-5.47c0-3.02,2.45-5.47,5.47-5.47s5.47,2.45,5.47,5.47
				C4.41,27.15,1.96,29.6-1.06,29.6z M-1.31,19.82c-2.59,0-4.7,2.1-4.7,4.7c0,2.59,2.1,4.7,4.7,4.7c2.59,0,4.7-2.1,4.7-4.7
				C3.39,21.92,1.28,19.82-1.31,19.82z"/>
		</g>
	</g>
	<g>
		<path class="st1" d="M1.47,12.52c0-0.46-0.25-0.82-0.56-0.82c-0.31,0-0.56,0.37-0.56,0.82c0,0.46,0.25,0.82,0.56,0.82
			C1.22,13.35,1.47,12.98,1.47,12.52z"/>
		<path class="st1" d="M-2.31,12.46c0-0.46-0.25-0.82-0.56-0.82c-0.31,0-0.56,0.37-0.56,0.82c0,0.46,0.25,0.82,0.56,0.82
			C-2.56,13.29-2.31,12.92-2.31,12.46z"/>
	</g>
	<g>
		<path class="st6" d="M-20.15,1.02c-0.28-0.88-0.52-2.37,0.89-2.69c1.74-0.4,1.9,0.32,1.99,1.41c-0.51,0.1-1,0.25-1.5,0.49
			C-19.32,0.48-19.77,0.75-20.15,1.02z"/>
		<path class="st7" d="M-18.77,0.22c-0.55,0.26-1,0.52-1.37,0.79c-0.07-0.21-0.13-0.45-0.17-0.7c0.54-0.45,1.67-0.37,2.09-1.01
			c0.22-0.33,0.22-0.69,0.13-1.06c0.66,0.14,0.76,0.72,0.82,1.49C-17.78-0.17-18.28-0.01-18.77,0.22z"/>
		<path class="st6" d="M-11.98-2.44c1.35,0.58,1.36,1.85,1.18,2.73c-1.42-0.24-2.6-0.46-3.65-0.58
			C-14.22-1.29-13.58-3.13-11.98-2.44z"/>
		<path class="st7" d="M-12.48-0.94c0.31,0.02,0.77,0.08,1.02-0.18c0.17-0.18,0.29-0.4,0.36-0.64c0.46,0.63,0.43,1.44,0.3,2.05
			c-1.42-0.24-2.6-0.46-3.65-0.58c0.04-0.18,0.1-0.4,0.17-0.62C-13.69-1.07-13.09-0.98-12.48-0.94z"/>
		<path class="st6" d="M-8.75,0.62C-8.77-0.43-8.5-2.27-6.35-2.44c1.51-0.12,2.28,0.74,2.01,3.16C-5.84,0.8-7.32,0.79-8.75,0.62z"/>
		<path class="st7" d="M-4.34,0.72c-1.5,0.08-2.98,0.07-4.4-0.11c-0.01-0.3,0.01-0.66,0.09-1.03c0.65-0.01,1.29-0.02,1.93-0.09
			c0.44-0.04,1.07-0.02,1.4-0.39c0.39-0.43,0.31-0.9,0.14-1.37C-4.47-1.89-4.16-0.97-4.34,0.72z"/>
		<path class="st6" d="M-1.78-2.56c2.19,0,2.23,1.53,2.09,2.79c-1.26,0.18-2.53,0.34-3.8,0.44C-3.62-0.4-3.66-2.56-1.78-2.56z"/>
		<path class="st7" d="M0.31,0.23c-1.26,0.18-2.53,0.34-3.8,0.44c-0.04-0.33-0.07-0.76-0.04-1.2c0.88-0.07,1.95,0.06,2.65-0.41
			c0.34-0.22,0.36-0.53,0.22-0.89C-0.76-2.07-0.9-2.29-1.09-2.5C0.41-2.2,0.43-0.88,0.31,0.23z"/>
		<path class="st6" d="M4.82-2.95c1.76-0.15,1.99,1.16,1.92,2.18C5.59-0.62,4.37-0.42,3.11-0.21C3.1-1.02,3.26-2.82,4.82-2.95z"/>
		<path class="st7" d="M6.74-0.77C5.59-0.62,4.37-0.42,3.11-0.21c0-0.17,0-0.38,0.03-0.6c1.06-0.13,2.96-0.13,2.83-1.45
			C5.95-2.46,5.88-2.65,5.8-2.84C6.67-2.51,6.8-1.55,6.74-0.77z"/>
		<path class="st6" d="M12.52-3.11c2.34,0,2.53,0.8,2.07,2.71c-1.31-0.37-2.68-0.58-3.98-0.62C10.56-1.65,10.63-3.11,12.52-3.11z"/>
		<path class="st7" d="M14.6-0.4c-1.31-0.37-2.68-0.58-3.98-0.62c-0.01-0.09-0.01-0.21-0.01-0.33c0.63-0.1,1.27-0.17,1.91-0.19
			c0.5-0.02,1.02,0.09,1.42-0.27c0.28-0.26,0.28-0.67,0.18-1.05C14.92-2.52,14.91-1.73,14.6-0.4z"/>
		<path class="st6" d="M17,0.54c0.17-0.72,0.68-1.98,2.17-1.45c1.99,0.7,1.54,2.46,0.57,3.6C19.03,1.8,18.08,1.09,17,0.54z"/>
		<path class="st7" d="M19.23,0.75c0.21,0.15,0.6,0.35,0.85,0.15c0.2-0.17,0.32-0.41,0.4-0.67c0.27,0.79-0.13,1.74-0.73,2.46
			C19.03,1.8,18.08,1.09,17,0.54c0.05-0.23,0.15-0.52,0.29-0.79C18-0.04,18.62,0.32,19.23,0.75z"/>
	</g>
	<g>
		<path class="st1" d="M25.33,5.47c-0.33,0.1-0.65,0.19-0.94,0.29c-1.2,0.33-2.33,0.69-3.06,1.84c-0.77,1.22-1.2,2.79-1.06,4.24
			c-0.04,0.02-0.16-0.12-0.17-0.16c-0.3-1.49-0.3-2.75,0.28-4c-0.03-0.09-0.05-0.18-0.04-0.25c0.23-1.19,0.4-2.33-0.15-3.48
			c-0.48-0.99-1.39-1.78-2.26-2.42c-1.72-1.27-3.87-1.52-5.94-1.5C9.87,0.07,7.74,0.36,5.61,0.44C3.44,0.52,1.27,0.65-0.9,0.75
			c-2.05,0.09-4.12,0.25-6.18,0.21c-2.07-0.04-4.1-0.55-6.16-0.56c-2.07-0.01-4.26,0.05-6.14,1.02c-2.05,1.05-2.38,4.34,0.1,5.25
			c0.1,0.04,0.4,0.47,0.19,0.45c-1.38-0.09-2.1-1.54-2.52-2.69c-0.66-1.82,0.35-3.25,1.93-4.09c2.17-1.15,5.17-1.12,7.54-0.86
			c3.08,0.34,5.99,0.36,9.08,0.26c3.07-0.1,6.14-0.31,9.21-0.46c2.73-0.13,5.47-0.62,8.2-0.17c2.1,0.34,3.96,1.55,5.38,3.09
			c1.1,1.19,1.67,2.48,1.73,3.91c0.93-0.94,2.32-1.62,3.61-1.26C25.24,4.89,25.63,5.38,25.33,5.47z"/>
		<path class="st1" d="M1.75-4.14C0.62-4.3-0.92-4.73-2-4.07C-2.1-4-2.28-4.26-2.19-4.35c0.94-0.89,2.8-0.81,3.85-0.22
			C1.75-4.51,2.01-4.11,1.75-4.14z"/>
	</g>
	<g>
		<path class="st5" d="M31.19,41.56c-4.49,0.43-8.07-0.5-9.12,3.65c-0.99,3.22-5.67,4.68-11.11,1.58c-2.87-1.4-4.62-2.92-8.07,1.52
			C0.66,51-3.2,50.3-6.01,47.44c-2.81-2.87-3.63-2.81-6.43-0.7c-2.81,2.11-6.43,1.17-8.13-1.75c-1.7-2.92-2.51-4.5-7.37-3.86
			c-0.74,0.1-1.52,0.17-2.31,0.16c1.46-0.35,3.01-1.03,4.3-2.32c3.65-3.65,8.09,9.76,15.29,3.35c2.56-2.17,7.4,8.98,12.43,2.37
			c5.03-6.61,12.82,3.65,16.67-0.89c3.85-4.54,1.66-8.35,6.84-7.09c5.18,1.26,9.13-22.49-0.26-40.43
			c-8.38-16-38.47-19.25-51.88-3.39c0.44-0.66,0.9-1.31,1.37-1.95C-15-23.06,22.79-26.97,31.19-0.24
			C36.79,21.59,41.03,40.48,31.19,41.56z"/>
	</g>
	<path class="st5" d="M9.75,1.12C4.47,1.42-1.93,1.66-7.21,2.05c-2.44,0.18-4.88-0.1-7.33-0.01c-2.12,0.08-7.24,1.38-4.95,4.5
		c0.01,0.02,0,0.04-0.02,0.02c-1.37-1.48-1.17-2.85,0.34-4.18c2.02-1.79,5.04-1.52,7.54-1.45c3.29,0.09,6.56-0.33,9.85-0.39
		C1.58,0.47,4.95,0.56,8.28,0.96C8.52,0.99,10.11,1.1,9.75,1.12z"/>
	<path class="st5" d="M24.63,6.78c-0.71,0.46-1.47,0.73-2.11,1.31c-0.75,0.68-1.41,1.83-1.65,2.8c-0.03,0.1-0.15-0.06-0.15-0.12
		c0.07-2.03,1.26-4.41,3.46-4.75C24.43,5.99,24.89,6.61,24.63,6.78z"/>
	<path class="st5" d="M-36.87,29.77c0,0,2.37-25.19,14.19-39.02C-31.78-4.29-37.86,19.06-36.87,29.77z"/>
	<g>
		<path class="st8" d="M15.33,24.84c0.12-0.93-0.48-1.8-1.34-1.95c-0.86-0.15-1.65,0.48-1.77,1.41c-0.12,0.93,0.48,1.8,1.34,1.95
			C14.41,26.4,15.21,25.77,15.33,24.84z"/>
		<path class="st9" d="M15.05,24.77c0.1-0.76-0.4-1.48-1.1-1.61c-0.71-0.12-1.36,0.39-1.46,1.16c-0.1,0.76,0.4,1.48,1.1,1.61
			C14.3,26.05,14.96,25.53,15.05,24.77z"/>
		<path class="st10" d="M14.61,24.69c0.06-0.48-0.25-0.93-0.69-1.01c-0.44-0.08-0.85,0.25-0.91,0.73c-0.06,0.48,0.25,0.93,0.69,1.01
			C14.14,25.49,14.55,25.17,14.61,24.69z"/>
		<path class="st6" d="M13.57,25.14c-0.09-0.23-0.32-0.41-0.51-0.4c-0.2,0-0.29,0.19-0.2,0.42c0.09,0.23,0.32,0.41,0.51,0.4
			C13.57,25.56,13.66,25.37,13.57,25.14z"/>
		<path class="st6" d="M12.99,24.3c0.01-0.1-0.05-0.19-0.14-0.21c-0.09-0.02-0.17,0.05-0.18,0.15c-0.01,0.1,0.05,0.19,0.14,0.21
			C12.89,24.47,12.98,24.4,12.99,24.3z"/>
	</g>
	<g>
		<path class="st5" d="M-5.29,31.17c0,0,2.86,2.28,5.51,1C-0.45,34.06-3.95,33.97-5.29,31.17z"/>
		<path class="st5" d="M11.81,31.29c0,0,2.48,1.89,5.32-0.45C16.91,33.36,12.82,34.09,11.81,31.29z"/>
		<path class="st5" d="M-21.7,25.94c0,0,1.01,2.47,3.99,1.79C-19.64,29.42-21.8,28.27-21.7,25.94z"/>
	</g>
	<g>
		<path class="st8" d="M0.42,24.28c0.12-0.93-0.48-1.8-1.34-1.95c-0.86-0.15-1.65,0.48-1.77,1.41c-0.12,0.93,0.48,1.8,1.34,1.95
			C-0.49,25.84,0.3,25.21,0.42,24.28z"/>
		<path class="st9" d="M0.15,24.21c0.1-0.76-0.4-1.48-1.1-1.61c-0.71-0.12-1.36,0.39-1.46,1.16c-0.1,0.76,0.4,1.48,1.1,1.61
			C-0.6,25.49,0.05,24.97,0.15,24.21z"/>
		<path class="st10" d="M-0.29,24.13c0.06-0.48-0.25-0.93-0.69-1.01c-0.44-0.08-0.85,0.25-0.91,0.73c-0.06,0.48,0.25,0.93,0.69,1.01
			C-0.76,24.93-0.35,24.61-0.29,24.13z"/>
		<path class="st6" d="M-1.33,24.58c-0.09-0.23-0.32-0.41-0.51-0.4c-0.2,0-0.29,0.19-0.2,0.42C-1.95,24.82-1.72,25-1.53,25
			C-1.33,25-1.24,24.81-1.33,24.58z"/>
		<path class="st6" d="M-1.92,23.74c0.01-0.1-0.05-0.19-0.14-0.21c-0.09-0.02-0.17,0.05-0.18,0.15c-0.01,0.1,0.05,0.19,0.14,0.21
			C-2.01,23.91-1.93,23.84-1.92,23.74z"/>
	</g>
	<g>
		<path class="st8" d="M-15.18,21.41c0.12-0.93-0.48-1.8-1.34-1.95c-0.86-0.15-1.65,0.48-1.77,1.41c-0.12,0.93,0.48,1.8,1.34,1.95
			C-16.09,22.97-15.3,22.34-15.18,21.41z"/>
		<path class="st9" d="M-15.46,21.34c0.1-0.76-0.4-1.48-1.1-1.61c-0.71-0.12-1.36,0.39-1.46,1.16c-0.1,0.76,0.4,1.48,1.1,1.61
			C-16.21,22.62-15.55,22.1-15.46,21.34z"/>
		<path class="st10" d="M-15.9,21.26c0.06-0.48-0.25-0.93-0.69-1.01c-0.44-0.08-0.85,0.25-0.91,0.73c-0.06,0.48,0.25,0.93,0.69,1.01
			C-16.37,22.06-15.96,21.74-15.9,21.26z"/>
		<path class="st6" d="M-16.93,21.71c-0.09-0.23-0.32-0.41-0.51-0.4c-0.2,0-0.29,0.19-0.2,0.42c0.09,0.23,0.32,0.41,0.51,0.4
			C-16.94,22.13-16.85,21.94-16.93,21.71z"/>
		<path class="st6" d="M-17.52,20.87c0.01-0.1-0.05-0.19-0.14-0.21c-0.09-0.02-0.17,0.05-0.18,0.15c-0.01,0.1,0.05,0.19,0.14,0.21
			C-17.62,21.04-17.53,20.97-17.52,20.87z"/>
	</g>
	<g>
		<path class="st1" d="M-5.4,31.54c0,0,2.86,2.28,5.51,1C-0.56,34.43-4.06,34.34-5.4,31.54z"/>
		<path class="st1" d="M11.7,31.66c0,0,2.48,1.89,5.32-0.45C16.81,33.73,12.71,34.46,11.7,31.66z"/>
		<path class="st1" d="M-21.81,26.31c0,0,1.01,2.47,3.99,1.79C-19.75,29.79-21.91,28.64-21.81,26.31z"/>
	</g>
	<g>
		<path class="st11" d="M-30.94,35.8c0.08-0.74-0.11-1.36-0.44-1.4c-0.33-0.04-0.66,0.53-0.74,1.26c-0.08,0.74,0.11,1.36,0.44,1.4
			S-31.02,36.53-30.94,35.8z"/>
		<path class="st11" d="M-16.86,42.63c0.1-0.84-0.13-1.56-0.5-1.6c-0.37-0.04-0.75,0.61-0.85,1.45c-0.1,0.84,0.13,1.56,0.5,1.6
			C-17.34,44.12-16.96,43.47-16.86,42.63z"/>
		<path class="st11" d="M-2.37,45.29c-0.04-0.85-0.38-1.51-0.76-1.49c-0.37,0.02-0.64,0.72-0.6,1.57c0.04,0.85,0.38,1.51,0.76,1.5
			C-2.59,46.84-2.32,46.14-2.37,45.29z"/>
		<path class="st11" d="M14.73,43.75c-0.31-0.79-0.85-1.31-1.2-1.17c-0.35,0.14-0.38,0.89-0.07,1.67c0.31,0.79,0.85,1.31,1.2,1.18
			C15.01,45.28,15.04,44.53,14.73,43.75z"/>
		<path class="st11" d="M29.92,36.47c-0.31-0.79-0.85-1.31-1.2-1.17c-0.35,0.14-0.38,0.89-0.07,1.67c0.31,0.79,0.85,1.31,1.2,1.18
			C30.2,38.01,30.23,37.26,29.92,36.47z"/>
		<path class="st11" d="M33.71,30.7c-0.11-0.72-0.46-1.27-0.78-1.22c-0.32,0.05-0.49,0.68-0.38,1.4c0.11,0.72,0.46,1.27,0.78,1.22
			C33.65,32.05,33.82,31.42,33.71,30.7z"/>
		<path class="st11" d="M-35.09,35.58c0.07-0.64-0.13-1.18-0.46-1.22c-0.33-0.04-0.65,0.45-0.72,1.09
			c-0.07,0.64,0.13,1.18,0.46,1.22S-35.16,36.21-35.09,35.58z"/>
		<path class="st11" d="M-33.6,37.63c0.03-0.29-0.07-0.53-0.23-0.55c-0.16-0.02-0.31,0.2-0.35,0.49c-0.03,0.29,0.07,0.53,0.23,0.55
			C-33.79,38.13-33.64,37.91-33.6,37.63z"/>
		<path class="st11" d="M-14.7,44.48c0.04-0.37-0.09-0.69-0.29-0.71c-0.2-0.02-0.4,0.26-0.45,0.63c-0.04,0.37,0.09,0.69,0.29,0.71
			C-14.94,45.13-14.75,44.85-14.7,44.48z"/>
		<path class="st11" d="M0.71,45.4c0.04-0.37-0.09-0.69-0.29-0.71c-0.2-0.02-0.4,0.26-0.45,0.63c-0.04,0.37,0.09,0.69,0.29,0.71
			C0.47,46.05,0.67,45.77,0.71,45.4z"/>
		<path class="st11" d="M16.79,46.42c-0.13-0.35-0.38-0.58-0.58-0.51c-0.19,0.07-0.25,0.41-0.12,0.76c0.13,0.35,0.38,0.58,0.58,0.51
			C16.86,47.11,16.91,46.77,16.79,46.42z"/>
		<path class="st11" d="M18.84,42.95c-0.19-0.54-0.6-0.9-0.9-0.79c-0.3,0.11-0.39,0.64-0.19,1.18c0.2,0.54,0.6,0.9,0.9,0.79
			C18.95,44.02,19.04,43.49,18.84,42.95z"/>
		<path class="st11" d="M33.41,36.13c-0.15-0.43-0.47-0.7-0.7-0.62c-0.24,0.08-0.3,0.5-0.15,0.93c0.15,0.43,0.47,0.7,0.7,0.62
			C33.5,36.97,33.57,36.56,33.41,36.13z"/>
		<path class="st11" d="M-26.47,38.42c0.03-0.29-0.07-0.53-0.23-0.55c-0.16-0.02-0.31,0.2-0.35,0.49c-0.03,0.29,0.07,0.53,0.23,0.55
			C-26.66,38.92-26.51,38.71-26.47,38.42z"/>
		<path class="st11" d="M-19.58,40.36c-0.04-0.28-0.2-0.5-0.36-0.47c-0.16,0.02-0.25,0.27-0.21,0.56c0.04,0.29,0.2,0.5,0.36,0.47
			C-19.63,40.9-19.54,40.65-19.58,40.36z"/>
	</g>
</symbol>
<use xlink:href="#Jronk"  width="76.9" height="100" x="-38.45" y="-50" transform="matrix(1 0 0 -1 38.4525 50)" style="overflow:visible;"/>
</svg>
