<?xml version="1.0" encoding="utf-8"?>
<!-- Generator: Adobe Illustrator 26.3.1, SVG Export Plug-In . SVG Version: 6.00 Build 0)  -->
<svg version="1.1" id="Layer_1" xmlns="http://www.w3.org/2000/svg" xmlns:xlink="http://www.w3.org/1999/xlink" x="0px" y="0px"
	 viewBox="0 0 69.52 100" style="enable-background:new 0 0 69.52 100;" xml:space="preserve">
<style type="text/css">
	.st0{fill:#696B6C;}
	.st1{fill:#231F20;}
	.st2{fill:#DFDFDF;}
	.st3{fill:#B8BABB;}
	.st4{fill:#295D91;}
	.st5{fill:#1D4356;}
	.st6{fill:#112A4D;}
	.st7{opacity:0.6;fill:#04B8D1;}
	.st8{fill:#FFFFFF;}
	.st9{fill:#8F9393;}
	.st10{opacity:0.5;fill:#DFDFDF;}
	.st11{fill:#A5C2D1;}
	.st12{fill:#B6B8B9;}
	.st13{fill:#1C7571;}
	.st14{fill:#CB1F46;}
	.st15{fill:#E87626;}
	.st16{fill:#2F3133;}
	.st17{fill:#125F8F;}
	.st18{fill:#6A6D70;}
	.st19{fill:#CCCDCE;}
	.st20{fill:#10508E;}
	.st21{fill:#BFC1C2;}
	.st22{fill:#505153;}
	.st23{fill:#ECAA53;}
	.st24{fill:#ABCA37;}
	.st25{opacity:0.4;fill:#13283A;}
	.st26{fill:#FFF5CC;}
</style>
<symbol  id="Jiel" viewBox="-34.76 -50 69.52 100">
	<g>
		<g>
			<g>
				<g>
					<g>
						<path class="st0" d="M-30.12-27.42l6.27-0.64c0,0,0.02,0.16,0.04,0.4c0.02,0.24,0.06,0.56,0.1,0.88
							c0.04,0.32,0.08,0.64,0.11,0.87c0.01,0.12,0.03,0.22,0.04,0.29c0.01,0.07,0.02,0.11,0.02,0.11l-6.24,0.92
							c0,0-0.01-0.04-0.02-0.12c-0.01-0.08-0.03-0.19-0.05-0.32c-0.03-0.26-0.08-0.62-0.12-0.97c-0.05-0.35-0.09-0.71-0.11-0.97
							C-30.1-27.24-30.12-27.42-30.12-27.42z"/>
						<path class="st1" d="M-23.85-28.27c-0.01,0-0.01,0-0.02,0l-6.27,0.64c-0.06,0.01-0.11,0.03-0.14,0.08
							c-0.04,0.04-0.05,0.1-0.05,0.16l0.05,0.44c0.02,0.26,0.06,0.61,0.11,0.98l0.12,0.97c0.02,0.13,0.03,0.25,0.05,0.33l0.02,0.12
							c0.02,0.11,0.12,0.19,0.24,0.18l6.24-0.92c0.06-0.01,0.11-0.04,0.14-0.08c0.03-0.05,0.05-0.1,0.04-0.16l-0.02-0.11
							c-0.01-0.07-0.03-0.17-0.04-0.28l-0.11-0.88c-0.05-0.33-0.08-0.64-0.1-0.87l-0.04-0.4C-23.65-28.19-23.74-28.27-23.85-28.27z
							 M-29.89-27.23l5.85-0.59l0.02,0.19c0.02,0.23,0.06,0.55,0.1,0.88l0.11,0.87c0.01,0.07,0.02,0.14,0.02,0.19l-5.82,0.85
							c-0.01-0.06-0.02-0.14-0.03-0.23l-0.13-0.97c-0.05-0.37-0.09-0.71-0.11-0.96L-29.89-27.23z"/>
					</g>
					<g>
						<path class="st0" d="M-30.35-30.26l6.29-0.35c0,0,0,0.16,0.02,0.4c0.02,0.24,0.04,0.56,0.06,0.88
							c0.02,0.32,0.05,0.64,0.07,0.88c0.02,0.24,0.04,0.4,0.04,0.4l-6.27,0.64c0,0-0.02-0.18-0.04-0.44
							c-0.03-0.27-0.06-0.62-0.08-0.98c-0.03-0.35-0.05-0.71-0.07-0.98C-30.34-30.08-30.35-30.26-30.35-30.26z"/>
						<path class="st1" d="M-24.05-30.82c0,0-0.01,0-0.01,0l-6.29,0.35c-0.11,0.01-0.2,0.1-0.2,0.22c0,0,0,0.18,0.03,0.46l0.07,0.97
							c0.03,0.38,0.06,0.73,0.08,0.98l0.04,0.44c0.01,0.06,0.03,0.11,0.08,0.14c0.04,0.04,0.1,0.05,0.15,0.05l6.27-0.64
							c0.06-0.01,0.11-0.03,0.14-0.08c0.03-0.04,0.05-0.1,0.05-0.15l-0.04-0.4c-0.03-0.22-0.05-0.53-0.07-0.87l-0.06-0.88
							c-0.02-0.23-0.02-0.39-0.02-0.39c0-0.06-0.03-0.11-0.07-0.15C-23.95-30.8-24-30.82-24.05-30.82z M-30.13-30.06l5.87-0.33
							c0,0.06,0.01,0.12,0.01,0.19l0.06,0.88c0.02,0.34,0.05,0.66,0.08,0.89l0.02,0.19l-5.85,0.59l-0.02-0.23
							c-0.03-0.25-0.06-0.59-0.08-0.97l-0.07-0.98C-30.12-29.92-30.12-29.99-30.13-30.06z"/>
					</g>
					<g>
						<path class="st0" d="M-29.77-24.6l6.24-0.92c0,0,0.1,0.63,0.2,1.27c0.11,0.63,0.23,1.26,0.23,1.26l-6.19,1.19
							c0,0-0.13-0.7-0.25-1.4C-29.66-23.89-29.77-24.6-29.77-24.6z"/>
						<path class="st1" d="M-23.54-25.72c-0.01,0-0.02,0-0.03,0l-6.24,0.92c-0.06,0.01-0.11,0.04-0.14,0.08
							c-0.03,0.04-0.05,0.1-0.04,0.16l0.22,1.4l0.25,1.4c0.01,0.06,0.04,0.1,0.09,0.14c0.05,0.03,0.1,0.04,0.16,0.03l6.19-1.19
							c0.11-0.02,0.19-0.13,0.17-0.25l-0.23-1.26l-0.2-1.26C-23.34-25.65-23.43-25.72-23.54-25.72z M-29.53-24.42l5.82-0.85
							l0.17,1.06l0.19,1.06l-5.77,1.1l-0.21-1.19L-29.53-24.42z"/>
					</g>
					<g>
						<path class="st0" d="M-25.19-8.25l5.81-2.45c0,0,0.25,0.59,0.51,1.18c0.26,0.58,0.54,1.16,0.54,1.16l-5.69,2.71
							c0,0-0.31-0.64-0.6-1.29C-24.92-7.59-25.19-8.25-25.19-8.25z"/>
						<path class="st1" d="M-19.39-10.91c-0.03,0-0.06,0-0.08,0.02l-5.81,2.45c-0.11,0.05-0.16,0.17-0.11,0.28
							c0,0.01,0.28,0.67,0.57,1.31c0.29,0.65,0.6,1.3,0.6,1.3c0.02,0.05,0.07,0.09,0.12,0.11c0.05,0.02,0.11,0.02,0.16-0.01
							l5.69-2.71c0.05-0.02,0.09-0.07,0.11-0.12c0.02-0.05,0.02-0.11-0.01-0.16c0,0-0.27-0.57-0.53-1.16
							c-0.24-0.54-0.47-1.08-0.51-1.16c-0.02-0.06-0.08-0.11-0.13-0.13C-19.34-10.91-19.36-10.91-19.39-10.91z M-24.92-8.13
							l5.42-2.29c0.09,0.22,0.26,0.61,0.43,0.99c0.17,0.38,0.35,0.76,0.45,0.97l-5.31,2.53c-0.11-0.24-0.31-0.67-0.51-1.1
							C-24.63-7.46-24.81-7.89-24.92-8.13z"/>
					</g>
					<g>
						<polygon class="st0" points="-30.33,-37.37 -24.04,-36.98 -24.1,-35.72 -30.4,-35.96 						"/>
						<path class="st1" d="M-30.33-37.58c-0.05,0-0.1,0.02-0.14,0.05c-0.04,0.04-0.07,0.09-0.07,0.15l-0.07,1.41
							c0,0.06,0.02,0.11,0.06,0.15c0.04,0.04,0.09,0.07,0.15,0.07l6.3,0.24c0.12,0.01,0.21-0.09,0.22-0.2l0.06-1.26
							c0.01-0.12-0.08-0.21-0.2-0.22l-6.29-0.39C-30.32-37.58-30.33-37.58-30.33-37.58z M-30.18-36.16l0.05-0.98l5.87,0.36
							l-0.04,0.84L-30.18-36.16z"/>
					</g>
					<g>
						<path class="st0" d="M-30.4-35.96l6.3,0.24c0,0-0.01,0.16-0.02,0.4c0,0.24-0.01,0.56-0.01,0.88c0,0.32-0.01,0.64-0.01,0.88
							c0,0.24,0.01,0.4,0.01,0.4l-6.3,0.06c0,0,0-0.18-0.01-0.45c0-0.27,0.01-0.62,0.01-0.98c0.01-0.36,0.01-0.71,0.02-0.98
							C-30.41-35.78-30.4-35.96-30.4-35.96z"/>
						<path class="st1" d="M-30.4-36.17c-0.11,0-0.21,0.09-0.21,0.2l-0.02,0.45l-0.02,0.99c0,0.13,0,0.25-0.01,0.37
							c0,0.23-0.01,0.44,0,0.61l0.01,0.44c0,0.12,0.11,0.22,0.21,0.21l6.3-0.06c0.06,0,0.11-0.02,0.15-0.06
							c0.04-0.04,0.06-0.09,0.06-0.15l-0.01-0.4c0-0.15,0-0.33,0-0.52c0-0.11,0-0.23,0.01-0.35l0.03-1.27
							c0-0.06-0.02-0.11-0.06-0.15c-0.04-0.04-0.09-0.07-0.15-0.07L-30.4-36.17C-30.39-36.17-30.4-36.17-30.4-36.17z M-30.23-33.32
							l0-0.23c0-0.17,0-0.38,0.01-0.6c0-0.12,0-0.25,0.01-0.37l0.03-1.21l5.88,0.22l-0.01,0.19l-0.01,0.88c0,0.12,0,0.23-0.01,0.34
							c0,0.2-0.01,0.39,0,0.54l0,0.19L-30.23-33.32z"/>
					</g>
					<g>
						<path class="st0" d="M-29.3-21.79l6.19-1.19c0,0,0.03,0.16,0.08,0.39c0.05,0.24,0.11,0.55,0.18,0.86
							c0.06,0.32,0.14,0.63,0.19,0.86c0.05,0.23,0.09,0.39,0.09,0.39l-6.13,1.45c0,0-0.04-0.17-0.1-0.43
							c-0.06-0.26-0.14-0.6-0.21-0.95c-0.07-0.35-0.14-0.7-0.2-0.96C-29.27-21.62-29.3-21.79-29.3-21.79z"/>
						<path class="st1" d="M-23.11-23.19c-0.01,0-0.03,0-0.04,0L-29.34-22c-0.11,0.02-0.19,0.13-0.17,0.24c0,0,0.03,0.18,0.09,0.44
							l0.2,0.95c0.05,0.25,0.11,0.5,0.16,0.71l0.16,0.67c0.01,0.06,0.05,0.1,0.09,0.13c0.05,0.03,0.11,0.04,0.16,0.03l6.13-1.45
							c0.11-0.03,0.18-0.14,0.16-0.25l-0.14-0.63c-0.04-0.19-0.09-0.4-0.14-0.62l-0.18-0.87c-0.05-0.23-0.08-0.38-0.08-0.39
							c-0.01-0.06-0.04-0.1-0.09-0.14C-23.03-23.18-23.07-23.19-23.11-23.19z M-29.05-21.63l5.77-1.11
							c0.01,0.06,0.02,0.12,0.04,0.19l0.18,0.86c0.04,0.22,0.09,0.44,0.14,0.63l0.1,0.42l-5.72,1.35l-0.11-0.47
							c-0.05-0.21-0.11-0.46-0.15-0.7l-0.2-0.96C-29.02-21.49-29.04-21.56-29.05-21.63z"/>
					</g>
					<g>
						<path class="st0" d="M-30.44-33.1l6.3-0.06c0,0,0,0.16,0.01,0.4c0.01,0.24,0,0.56,0.02,0.88c0.03,0.64,0.06,1.28,0.06,1.28
							l-6.29,0.35c0,0-0.03-0.71-0.06-1.42c-0.01-0.36-0.01-0.71-0.02-0.98C-30.44-32.93-30.44-33.1-30.44-33.1z"/>
						<path class="st1" d="M-24.14-33.38C-24.14-33.38-24.14-33.38-24.14-33.38l-6.3,0.06c-0.06,0-0.11,0.02-0.15,0.06
							c-0.04,0.04-0.06,0.09-0.06,0.15l0.01,0.45c0,0.09,0,0.19,0,0.29c0,0.21,0.01,0.45,0.02,0.69l0.06,1.42
							c0,0.06,0.03,0.11,0.07,0.15c0.04,0.04,0.1,0.06,0.15,0.05l6.29-0.35c0.12-0.01,0.2-0.1,0.2-0.22l-0.06-1.28
							c-0.01-0.2-0.01-0.4-0.01-0.58c0-0.11,0-0.2,0-0.29l-0.01-0.4C-23.93-33.28-24.02-33.38-24.14-33.38z M-30.22-32.9l5.88-0.06
							l0,0.19c0,0.09,0,0.18,0,0.29c0,0.18,0,0.39,0.01,0.6l0.05,1.07l-5.87,0.33l-0.05-1.21c-0.01-0.23-0.01-0.47-0.02-0.68
							c0-0.11,0-0.21,0-0.3L-30.22-32.9z"/>
					</g>
					<g>
						<path class="st0" d="M-21.93-1.71c0,0-0.05-0.09-0.14-0.23c-0.08-0.13-0.18-0.3-0.28-0.47c-0.19-0.34-0.38-0.68-0.38-0.68
							l5.53-3.02c0,0,0.16,0.29,0.32,0.57c0.08,0.14,0.16,0.27,0.22,0.38C-16.6-5.06-16.56-5-16.56-5L-21.93-1.71z"/>
						<path class="st1" d="M-17.19-6.32c-0.03,0-0.07,0.01-0.1,0.03l-5.53,3.02c-0.05,0.03-0.09,0.07-0.1,0.13
							c-0.02,0.05-0.01,0.11,0.02,0.16l0.79,1.38c0.03,0.05,0.08,0.08,0.13,0.1c0.05,0.01,0.11,0,0.16-0.02l5.37-3.29
							c0.1-0.06,0.13-0.19,0.07-0.29l-0.31-0.53l-0.32-0.57C-17.05-6.28-17.12-6.32-17.19-6.32z M-22.43-3l5.16-2.82l0.42,0.75
							L-21.86-2l-0.3-0.52L-22.43-3z"/>
					</g>
					<g>
						<path class="st0" d="M-24.03-5.65l5.69-2.71c0,0,0.27,0.58,0.56,1.14c0.29,0.56,0.59,1.11,0.59,1.11l-5.53,3.02
							c0,0-0.35-0.64-0.67-1.28C-23.72-5-24.03-5.65-24.03-5.65z"/>
						<path class="st1" d="M-18.34-8.57c-0.03,0-0.06,0.01-0.09,0.02l-5.69,2.71c-0.11,0.05-0.15,0.18-0.1,0.28
							c0,0.01,0.31,0.65,0.63,1.29c0.32,0.64,0.67,1.28,0.68,1.28c0.03,0.05,0.07,0.09,0.13,0.1c0.05,0.02,0.11,0.01,0.16-0.02
							l5.53-3.02c0.1-0.06,0.14-0.18,0.08-0.29c0,0-0.3-0.55-0.58-1.11c-0.29-0.56-0.56-1.14-0.56-1.14
							c-0.02-0.05-0.07-0.09-0.12-0.11C-18.29-8.57-18.31-8.57-18.34-8.57z M-23.75-5.55l5.31-2.53c0.1,0.22,0.29,0.59,0.47,0.96
							c0.19,0.37,0.38,0.72,0.49,0.93l-5.16,2.82c-0.13-0.24-0.35-0.66-0.57-1.09C-23.42-4.88-23.63-5.31-23.75-5.55z"/>
					</g>
					<g>
						<path class="st0" d="M-26.24-10.88l5.91-2.2c0,0,0.05,0.15,0.14,0.38c0.09,0.22,0.2,0.52,0.32,0.82
							c0.12,0.3,0.24,0.6,0.33,0.82c0.09,0.22,0.16,0.37,0.16,0.37l-5.81,2.45c0,0-0.07-0.16-0.17-0.41
							c-0.1-0.25-0.23-0.58-0.37-0.9c-0.13-0.33-0.26-0.66-0.35-0.91C-26.18-10.72-26.24-10.88-26.24-10.88z"/>
						<path class="st1" d="M-20.33-13.3c-0.02,0-0.05,0-0.07,0.01l-5.91,2.2c-0.1,0.04-0.15,0.14-0.13,0.24
							c0,0.01,0.01,0.03,0.01,0.04c0.02,0.06,0.08,0.21,0.16,0.41l0.35,0.91l0.54,1.32c0.05,0.11,0.17,0.16,0.28,0.11l5.81-2.45
							c0.05-0.02,0.09-0.06,0.11-0.12c0.02-0.05,0.02-0.11,0-0.16l-0.6-1.48l-0.2-0.53c-0.09-0.22-0.14-0.37-0.14-0.37
							c-0.02-0.05-0.06-0.1-0.11-0.12C-20.27-13.29-20.3-13.3-20.33-13.3z M-25.97-10.76l5.51-2.05c0.02,0.05,0.04,0.11,0.07,0.18
							l0.73,1.82l-5.42,2.29l-0.09-0.21l-0.72-1.81C-25.92-10.63-25.95-10.7-25.97-10.76z"/>
					</g>
					<g>
						<path class="st0" d="M-28.71-19.02l6.13-1.45c0,0,0.04,0.16,0.09,0.39c0.06,0.23,0.14,0.55,0.22,0.86
							c0.08,0.31,0.16,0.62,0.23,0.85c0.06,0.23,0.11,0.39,0.11,0.39l-6.07,1.7c0,0-0.05-0.17-0.12-0.43
							c-0.07-0.26-0.17-0.6-0.25-0.94c-0.09-0.34-0.17-0.69-0.24-0.94C-28.66-18.85-28.71-19.02-28.71-19.02z"/>
						<path class="st1" d="M-22.57-20.68c-0.02,0-0.03,0-0.05,0.01l-6.13,1.45c-0.11,0.03-0.18,0.14-0.16,0.25l0.34,1.38
							c0.09,0.35,0.18,0.69,0.25,0.95l0.12,0.43c0.02,0.05,0.05,0.1,0.1,0.13c0.05,0.03,0.11,0.04,0.16,0.02l6.07-1.7
							c0.11-0.03,0.18-0.15,0.15-0.26l-0.11-0.39c-0.07-0.23-0.15-0.54-0.23-0.85l-0.31-1.25c-0.01-0.05-0.05-0.1-0.09-0.13
							C-22.49-20.67-22.53-20.68-22.57-20.68z M-28.45-18.86l5.72-1.35l0.04,0.18l0.22,0.86c0.08,0.31,0.16,0.63,0.23,0.86
							l0.05,0.18l-5.66,1.59l-0.06-0.22c-0.07-0.25-0.16-0.59-0.25-0.94L-28.45-18.86z"/>
					</g>
					<g>
						<path class="st0" d="M-28-16.27l6.07-1.7c0,0,0.04,0.16,0.11,0.39c0.07,0.23,0.16,0.54,0.25,0.85
							c0.09,0.31,0.19,0.62,0.26,0.84c0.07,0.23,0.12,0.38,0.12,0.38l-5.99,1.95c0,0-0.06-0.17-0.14-0.42
							c-0.08-0.25-0.19-0.59-0.29-0.93c-0.1-0.34-0.2-0.68-0.28-0.93C-27.95-16.1-28-16.27-28-16.27z"/>
						<path class="st1" d="M-21.93-18.19c-0.02,0-0.04,0-0.06,0.01l-6.07,1.7c-0.11,0.03-0.18,0.15-0.15,0.26l0.4,1.36
							c0.1,0.34,0.21,0.68,0.29,0.94l0.14,0.42c0.02,0.05,0.06,0.1,0.1,0.12c0.05,0.03,0.11,0.03,0.16,0.01l5.99-1.95
							c0.11-0.04,0.17-0.15,0.14-0.27l-0.12-0.38c-0.08-0.23-0.17-0.53-0.26-0.84l-0.36-1.23c-0.02-0.05-0.05-0.1-0.1-0.13
							C-21.86-18.18-21.89-18.19-21.93-18.19z M-27.74-16.13l5.66-1.59l0.05,0.18l0.25,0.85c0.09,0.31,0.19,0.62,0.26,0.85
							l0.06,0.18l-5.59,1.82l-0.07-0.22c-0.08-0.25-0.19-0.59-0.29-0.93L-27.74-16.13z"/>
					</g>
					<g>
						<path class="st0" d="M-27.17-13.56l5.99-1.95c0,0,0.05,0.15,0.12,0.38c0.08,0.23,0.18,0.53,0.29,0.84
							c0.1,0.3,0.22,0.61,0.3,0.83c0.08,0.23,0.14,0.38,0.14,0.38l-5.91,2.2c0,0-0.06-0.17-0.15-0.42
							c-0.09-0.25-0.22-0.58-0.33-0.92c-0.12-0.34-0.23-0.67-0.32-0.92C-27.12-13.39-27.17-13.56-27.17-13.56z"/>
						<path class="st1" d="M-21.18-15.73c-0.02,0-0.04,0-0.07,0.01l-5.99,1.95c-0.11,0.04-0.17,0.16-0.14,0.27l0.45,1.35
							c0.08,0.24,0.17,0.48,0.24,0.69l0.24,0.65c0.02,0.05,0.06,0.1,0.11,0.12c0.05,0.02,0.11,0.03,0.16,0.01l5.91-2.2
							c0.11-0.04,0.16-0.16,0.12-0.27l-0.22-0.6c-0.07-0.18-0.14-0.39-0.21-0.6l-0.41-1.22c-0.02-0.05-0.05-0.1-0.1-0.12
							C-21.12-15.72-21.15-15.73-21.18-15.73z M-26.91-13.43l5.59-1.82l0.35,1.02c0.07,0.21,0.15,0.43,0.22,0.61l0.15,0.4
							l-5.51,2.05l-0.17-0.45c-0.08-0.21-0.16-0.44-0.24-0.68L-26.91-13.43z"/>
					</g>
				</g>
				<path class="st0" d="M-24.04-36.98l-2.4-0.15c0,0-0.02,0.54-0.07,1.49c-0.02,0.47-0.02,1.05-0.03,1.71
					c-0.01,0.33,0.01,0.68,0.01,1.05c0.01,0.37,0,0.76,0.03,1.17c0.05,1.63,0.2,3.53,0.46,5.55c0.26,2.02,0.65,4.16,1.15,6.28
					c0.99,4.24,2.48,8.35,3.83,11.32c0.66,1.49,1.28,2.7,1.73,3.53c0.23,0.41,0.41,0.74,0.54,0.95c0.13,0.21,0.19,0.33,0.19,0.33
					L-16.56-5c0,0-0.06-0.1-0.17-0.29c-0.11-0.2-0.28-0.5-0.5-0.89c-0.42-0.78-1.02-1.94-1.65-3.36c-1.29-2.85-2.73-6.81-3.68-10.89
					c-0.48-2.04-0.85-4.1-1.1-6.04c-0.25-1.94-0.39-3.76-0.44-5.32c-0.02-0.39-0.02-0.76-0.02-1.12c0-0.36-0.02-0.69-0.01-1.01
					c0.01-0.63,0.01-1.19,0.03-1.64C-24.07-36.46-24.04-36.98-24.04-36.98z"/>
				<path class="st0" d="M-28.39-37.25l-1.23-0.07c0,0-0.03,0.57-0.07,1.58c-0.02,0.5-0.02,1.11-0.03,1.81
					c-0.01,0.35,0.01,0.72,0.01,1.11c0.01,0.39,0,0.8,0.03,1.23c0.06,1.72,0.21,3.72,0.48,5.85c0.27,2.13,0.68,4.38,1.21,6.6
					c1.04,4.45,2.6,8.76,4.02,11.89c0.7,1.57,1.36,2.85,1.84,3.75c0.24,0.45,0.44,0.8,0.59,1.04c0.15,0.25,0.23,0.38,0.23,0.38
					l1.05-0.64c0,0-0.08-0.12-0.22-0.36c-0.14-0.23-0.33-0.57-0.57-1.01c-0.47-0.87-1.11-2.12-1.8-3.66
					c-1.39-3.07-2.92-7.3-3.94-11.67c-0.52-2.18-0.92-4.39-1.19-6.48c-0.27-2.09-0.42-4.05-0.48-5.73
					c-0.02-0.42-0.02-0.82-0.03-1.21c0-0.38-0.02-0.75-0.01-1.09c0.01-0.68,0.01-1.28,0.03-1.77
					C-28.42-36.69-28.39-37.25-28.39-37.25z"/>
			</g>
			<g>
				<path class="st2" d="M-29.41-44.83c-0.96,0.66-1.59,1.77-1.59,3.02c0,2.03,1.64,3.67,3.67,3.67c2.03,0,3.67-1.64,3.67-3.67
					c0-1.25-0.63-2.36-1.59-3.02h4.4c0.43,0.92,0.67,1.94,0.67,3.02c0,3.95-3.21,7.16-7.16,7.16c-3.95,0-7.16-3.2-7.16-7.16
					c0-1.08,0.24-2.1,0.67-3.02H-29.41z"/>
				<path class="st3" d="M-20.83-45.11h-4.4c-0.12,0-0.23,0.08-0.27,0.2c-0.04,0.12,0.01,0.25,0.11,0.32
					c0.92,0.63,1.46,1.68,1.46,2.79c0,1.87-1.52,3.39-3.39,3.39c-1.87,0-3.39-1.52-3.39-3.39c0-1.11,0.55-2.15,1.46-2.79
					c0.1-0.07,0.15-0.2,0.11-0.32c-0.04-0.12-0.15-0.2-0.27-0.2h-4.4c-0.11,0-0.21,0.06-0.26,0.16c-0.46,0.99-0.7,2.05-0.7,3.14
					c0,4.1,3.34,7.44,7.44,7.44c4.1,0,7.44-3.34,7.44-7.44c0-1.09-0.23-2.15-0.7-3.14C-20.62-45.05-20.72-45.11-20.83-45.11z
					 M-24.47-44.55h3.46c0.38,0.87,0.57,1.79,0.57,2.74c0,3.79-3.08,6.88-6.88,6.88c-3.79,0-6.88-3.08-6.88-6.88
					c0-0.95,0.19-1.87,0.57-2.74h3.46c-0.7,0.73-1.1,1.71-1.1,2.74c0,2.18,1.77,3.95,3.95,3.95c2.18,0,3.95-1.77,3.95-3.95
					C-23.36-42.84-23.77-43.82-24.47-44.55z"/>
			</g>
			<path class="st2" d="M-27.32-34.65c-3.69,0-6.73-2.79-7.11-6.38c0.38,1.61,1.29,3.1,2.59,4.14c1.57,1.25,3.88,2.03,5.84,1.29
				c2.25-0.85,3.81-3.1,4.11-5.45c0.17-1.28,0.03-2.55-0.3-3.78h1.37c0.43,0.92,0.67,1.94,0.67,3.02
				C-20.16-37.86-23.37-34.65-27.32-34.65z"/>
		</g>
		<g>
			<path class="st4" d="M-8.56-2.13c0-4.53-3.67-8.2-8.2-8.2c-4.53,0-8.2,3.67-8.2,8.2c0,4.53,3.67,8.2,8.2,8.2
				C-12.24,6.07-8.56,2.4-8.56-2.13z"/>
			<path class="st5" d="M-16.76-10.61c-4.68,0-8.48,3.8-8.48,8.48c0,4.68,3.8,8.48,8.48,8.48c4.68,0,8.48-3.8,8.48-8.48
				C-8.28-6.81-12.09-10.61-16.76-10.61z M-16.76,5.78c-4.37,0-7.92-3.55-7.92-7.92c0-4.36,3.55-7.92,7.92-7.92
				c4.37,0,7.92,3.55,7.92,7.92C-8.85,2.23-12.4,5.78-16.76,5.78z"/>
		</g>
		<path class="st6" d="M-16.25,6.05c-1.62-0.95-2.73-2.81-3.38-4.5c-0.86-2.24-1.37-4.92-0.73-7.28c0.03-0.09-0.07-0.15-0.15-0.12
			c-0.1,0.04-0.21,0.09-0.31,0.14c-0.03-0.04-0.08-0.07-0.14-0.04c-1.64,0.9-2.99,2.3-3.59,4.1c-0.12,0.36-0.21,0.72-0.27,1.09
			c-0.1-0.51-0.15-1.04-0.15-1.58c0-4.53,3.67-8.2,8.2-8.2c4.53,0,8.2,3.67,8.2,8.2C-8.56,2.22-11.96,5.78-16.25,6.05z"/>
		<path class="st7" d="M-18.78,5.21c0,0-4.71-1.57-5.47-5.81l1.37-2.32C-22.88-2.92-24.18,1.11-18.78,5.21z"/>
		<path class="st8" d="M-28.09-37.06c0,0-6.1-0.77-3.54-7.33C-31.62-44.39-33.21-39.57-28.09-37.06z"/>
	</g>
	<g>
		<g>
			<g>
				<g>
					<g>
						<path class="st0" d="M30.12-27.42l-6.27-0.64c0,0-0.02,0.16-0.04,0.4c-0.02,0.24-0.06,0.56-0.1,0.88
							c-0.04,0.32-0.08,0.64-0.11,0.87c-0.01,0.12-0.03,0.22-0.04,0.29c-0.01,0.07-0.02,0.11-0.02,0.11l6.24,0.92
							c0,0,0.01-0.04,0.02-0.12c0.01-0.08,0.03-0.19,0.05-0.32c0.03-0.26,0.08-0.62,0.13-0.97c0.05-0.35,0.09-0.71,0.11-0.97
							C30.1-27.24,30.12-27.42,30.12-27.42z"/>
						<path class="st1" d="M23.85-28.27c-0.05,0-0.1,0.02-0.13,0.05c-0.04,0.04-0.07,0.09-0.08,0.14l-0.04,0.4
							c-0.02,0.23-0.06,0.53-0.1,0.87l-0.11,0.88c-0.01,0.12-0.03,0.21-0.04,0.28l-0.02,0.11c-0.01,0.06,0.01,0.11,0.04,0.16
							c0.03,0.05,0.08,0.08,0.14,0.08l6.24,0.92c0.12,0.02,0.22-0.06,0.24-0.18L30-24.69c0.01-0.08,0.03-0.19,0.05-0.32l0.12-0.97
							c0.05-0.37,0.09-0.72,0.11-0.98l0.04-0.44c0.01-0.12-0.07-0.22-0.19-0.23l-6.27-0.64C23.86-28.27,23.86-28.27,23.85-28.27z
							 M23.78-25.69c0.01-0.06,0.02-0.12,0.03-0.19l0.11-0.87c0.05-0.34,0.08-0.65,0.1-0.88l0.02-0.19l5.85,0.59L29.87-27
							c-0.02,0.25-0.06,0.6-0.11,0.96l-0.13,0.97c-0.01,0.09-0.02,0.16-0.03,0.23L23.78-25.69z"/>
					</g>
					<g>
						<path class="st0" d="M30.35-30.26l-6.29-0.35c0,0,0,0.16-0.02,0.4c-0.02,0.24-0.04,0.56-0.07,0.88
							c-0.02,0.32-0.05,0.64-0.08,0.88c-0.02,0.24-0.04,0.4-0.04,0.4l6.27,0.64c0,0,0.02-0.18,0.04-0.44
							c0.03-0.27,0.06-0.62,0.08-0.98c0.03-0.35,0.05-0.71,0.07-0.98C30.34-30.08,30.35-30.26,30.35-30.26z"/>
						<path class="st1" d="M24.05-30.82c-0.05,0-0.1,0.02-0.14,0.06c-0.04,0.04-0.07,0.09-0.07,0.15c0,0,0,0.16-0.02,0.39
							l-0.07,0.88c-0.02,0.33-0.05,0.64-0.07,0.87l-0.04,0.4c-0.01,0.06,0.01,0.11,0.05,0.15c0.04,0.04,0.09,0.07,0.14,0.08
							l6.27,0.64c0.06,0,0.11-0.01,0.15-0.05c0.04-0.04,0.07-0.09,0.08-0.14l0.04-0.44c0.03-0.25,0.06-0.6,0.08-0.98l0.07-0.97
							c0.02-0.27,0.03-0.45,0.03-0.45c0-0.11-0.09-0.21-0.2-0.22l-6.29-0.35C24.06-30.82,24.06-30.82,24.05-30.82z M24.08-28.25
							l0.02-0.19c0.03-0.23,0.05-0.55,0.08-0.88l0.06-0.88c0.01-0.07,0.01-0.14,0.01-0.19l5.87,0.33c0,0.06-0.01,0.14-0.02,0.23
							l-0.07,0.98c-0.03,0.38-0.06,0.72-0.08,0.97l-0.02,0.23L24.08-28.25z"/>
					</g>
					<g>
						<path class="st0" d="M29.77-24.6l-6.24-0.92c0,0-0.1,0.63-0.2,1.27c-0.11,0.63-0.23,1.26-0.23,1.26l6.19,1.19
							c0,0,0.13-0.7,0.25-1.4C29.66-23.89,29.77-24.6,29.77-24.6z"/>
						<path class="st1" d="M23.54-25.72c-0.1,0-0.19,0.07-0.21,0.18l-0.2,1.27l-0.23,1.26c-0.02,0.11,0.05,0.22,0.17,0.25l6.19,1.19
							c0.06,0.01,0.11,0,0.16-0.03c0.05-0.03,0.08-0.08,0.09-0.14l0.25-1.4l0.22-1.41c0.01-0.06,0-0.11-0.04-0.16
							c-0.03-0.05-0.08-0.08-0.14-0.08l-6.24-0.92C23.56-25.72,23.55-25.72,23.54-25.72z M23.35-23.15l0.19-1.06l0.17-1.07
							l5.82,0.85l-0.19,1.19l-0.21,1.18L23.35-23.15z"/>
					</g>
					<g>
						<path class="st0" d="M25.19-8.25l-5.81-2.45c0,0-0.25,0.59-0.51,1.18c-0.26,0.58-0.54,1.16-0.54,1.16l5.69,2.71
							c0,0,0.31-0.64,0.6-1.29C24.92-7.59,25.19-8.25,25.19-8.25z"/>
						<path class="st1" d="M19.39-10.91c-0.09,0-0.17,0.06-0.2,0.14c-0.03,0.07-0.26,0.62-0.51,1.16c-0.26,0.58-0.53,1.16-0.53,1.16
							c-0.02,0.05-0.03,0.11-0.01,0.16c0.02,0.05,0.06,0.1,0.11,0.12l5.69,2.71c0.05,0.02,0.11,0.03,0.16,0.01
							c0.05-0.02,0.1-0.06,0.12-0.11c0,0,0.31-0.65,0.6-1.3c0.29-0.64,0.57-1.3,0.57-1.31c0.04-0.11-0.01-0.23-0.11-0.28l-5.81-2.45
							C19.44-10.9,19.41-10.91,19.39-10.91z M18.62-8.46c0.1-0.22,0.28-0.59,0.45-0.97c0.17-0.38,0.34-0.76,0.43-0.99l5.42,2.29
							c-0.1,0.24-0.29,0.68-0.48,1.11c-0.19,0.43-0.39,0.86-0.51,1.1L18.62-8.46z"/>
					</g>
					<g>
						<polygon class="st0" points="30.33,-37.37 24.04,-36.98 24.1,-35.72 30.4,-35.96 						"/>
						<path class="st1" d="M30.33-37.58c0,0-0.01,0-0.01,0l-6.29,0.39c-0.11,0.01-0.2,0.11-0.2,0.22l0.06,1.26
							c0.01,0.12,0.11,0.21,0.22,0.2l6.3-0.24c0.06,0,0.11-0.03,0.15-0.07c0.04-0.04,0.06-0.1,0.06-0.15l-0.07-1.41
							c0-0.06-0.03-0.11-0.07-0.15C30.44-37.56,30.39-37.58,30.33-37.58z M24.26-36.78l5.87-0.36l0.05,0.98l-5.88,0.22L24.26-36.78z
							"/>
					</g>
					<g>
						<path class="st0" d="M30.4-35.96l-6.3,0.24c0,0,0.01,0.16,0.02,0.4c0,0.24,0.01,0.56,0.01,0.88c0,0.32,0.01,0.64,0.01,0.88
							c0,0.24-0.01,0.4-0.01,0.4l6.3,0.06c0,0,0-0.18,0.01-0.45c0-0.27-0.01-0.62-0.01-0.98c-0.01-0.36-0.01-0.71-0.02-0.98
							C30.41-35.78,30.4-35.96,30.4-35.96z"/>
						<path class="st1" d="M30.4-36.17C30.4-36.17,30.39-36.17,30.4-36.17l-6.31,0.24c-0.06,0-0.11,0.03-0.15,0.07
							c-0.04,0.04-0.06,0.1-0.06,0.15l0.02,0.4l0.01,0.87c0,0.12,0,0.23,0.01,0.34c0,0.19,0.01,0.38,0,0.53l-0.01,0.4
							c0,0.06,0.02,0.11,0.06,0.15c0.04,0.04,0.09,0.06,0.15,0.06l6.3,0.06c0.11,0.01,0.21-0.09,0.21-0.21l0.01-0.45
							c0-0.17,0-0.39-0.01-0.61c0-0.12,0-0.25,0-0.37l-0.03-1.43C30.61-36.08,30.51-36.17,30.4-36.17z M24.32-35.52l5.88-0.22
							l0.01,0.24l0.02,0.97c0,0.12,0,0.25,0.01,0.37c0,0.22,0.01,0.43,0,0.6l0,0.24l-5.88-0.06l0-0.19c0-0.15,0-0.34,0-0.54
							c0-0.11,0-0.23-0.01-0.34L24.32-35.52z"/>
					</g>
					<g>
						<path class="st0" d="M29.3-21.79l-6.19-1.19c0,0-0.03,0.16-0.08,0.39c-0.05,0.24-0.11,0.55-0.18,0.86
							c-0.06,0.32-0.14,0.63-0.19,0.86c-0.05,0.23-0.09,0.39-0.09,0.39l6.13,1.45c0,0,0.04-0.17,0.1-0.43
							c0.06-0.26,0.14-0.6,0.21-0.95c0.07-0.35,0.14-0.7,0.2-0.96C29.27-21.62,29.3-21.79,29.3-21.79z"/>
						<path class="st1" d="M23.11-23.19c-0.1,0-0.19,0.08-0.21,0.18c-0.01,0.03-0.03,0.18-0.08,0.38l-0.18,0.87
							c-0.04,0.22-0.09,0.44-0.14,0.64l-0.14,0.61c-0.03,0.11,0.04,0.23,0.16,0.25l6.13,1.45c0.05,0.01,0.11,0,0.16-0.03
							c0.05-0.03,0.08-0.08,0.09-0.13l0.16-0.69c0.05-0.22,0.11-0.46,0.16-0.71l0.2-0.95c0.06-0.26,0.09-0.44,0.09-0.44
							c0.02-0.11-0.06-0.22-0.17-0.24l-6.19-1.18C23.14-23.19,23.12-23.19,23.11-23.19z M22.82-20.63l0.09-0.41
							c0.05-0.2,0.1-0.42,0.14-0.65l0.18-0.86c0.01-0.07,0.03-0.13,0.04-0.19l5.77,1.11c-0.01,0.06-0.03,0.14-0.05,0.22l-0.2,0.96
							c-0.05,0.24-0.1,0.48-0.15,0.69l-0.11,0.48L22.82-20.63z"/>
					</g>
					<g>
						<path class="st0" d="M30.44-33.1l-6.3-0.06c0,0,0,0.16-0.01,0.4c-0.01,0.24,0,0.56-0.02,0.88c-0.03,0.64-0.06,1.28-0.06,1.28
							l6.29,0.35c0,0,0.03-0.71,0.06-1.42c0.01-0.36,0.01-0.71,0.02-0.98C30.44-32.93,30.44-33.1,30.44-33.1z"/>
						<path class="st1" d="M24.14-33.38c-0.11,0-0.21,0.09-0.21,0.21l-0.01,0.4c0,0.08,0,0.18,0,0.28c0,0.18,0,0.39-0.01,0.59
							l-0.06,1.28c-0.01,0.12,0.08,0.21,0.2,0.22l6.29,0.35c0.06,0,0.11-0.02,0.15-0.05s0.07-0.09,0.07-0.15l0.06-1.42
							c0.01-0.24,0.01-0.47,0.02-0.69c0-0.11,0-0.21,0-0.3l0.01-0.45c0-0.06-0.02-0.11-0.06-0.15c-0.04-0.04-0.09-0.06-0.15-0.06
							L24.14-33.38C24.14-33.38,24.14-33.38,24.14-33.38z M24.27-30.81l0.05-1.07c0.01-0.21,0.01-0.42,0.01-0.61
							c0-0.1,0-0.19,0-0.28l0-0.19l5.88,0.06l0,0.23c0,0.09,0,0.19,0,0.3c0,0.21-0.01,0.44-0.02,0.67l-0.05,1.21L24.27-30.81z"/>
					</g>
					<g>
						<path class="st0" d="M21.93-1.71c0,0,0.05-0.09,0.14-0.23c0.08-0.13,0.18-0.3,0.28-0.47c0.19-0.34,0.38-0.68,0.38-0.68
							L17.19-6.1c0,0-0.16,0.29-0.32,0.57c-0.08,0.14-0.16,0.27-0.22,0.38C16.6-5.06,16.56-5,16.56-5L21.93-1.71z"/>
						<path class="st1" d="M17.19-6.32c-0.07,0-0.15,0.04-0.18,0.11l-0.63,1.1c-0.06,0.1-0.03,0.23,0.07,0.29l5.37,3.29
							c0.05,0.03,0.11,0.04,0.16,0.02c0.05-0.01,0.1-0.05,0.13-0.1l0.41-0.7l0.38-0.68c0.03-0.05,0.03-0.11,0.02-0.16
							c-0.02-0.05-0.05-0.1-0.1-0.13l-5.53-3.02C17.26-6.31,17.23-6.32,17.19-6.32z M16.85-5.07l0.42-0.75L22.44-3l-0.57,1
							L16.85-5.07z"/>
					</g>
					<g>
						<path class="st0" d="M24.03-5.65l-5.69-2.71c0,0-0.27,0.58-0.56,1.14c-0.29,0.56-0.59,1.11-0.59,1.11l5.53,3.02
							c0,0,0.35-0.64,0.67-1.28C23.72-5,24.03-5.65,24.03-5.65z"/>
						<path class="st1" d="M18.34-8.57c-0.02,0-0.05,0-0.07,0.01c-0.05,0.02-0.1,0.06-0.12,0.11c0,0-0.27,0.57-0.56,1.14
							C17.3-6.75,17.01-6.21,17-6.21c-0.06,0.1-0.02,0.23,0.08,0.29l5.53,3.02c0.05,0.03,0.11,0.03,0.16,0.02
							c0.05-0.02,0.1-0.05,0.13-0.1c0-0.01,0.35-0.65,0.68-1.28c0.33-0.64,0.63-1.29,0.63-1.29c0.05-0.11,0.01-0.23-0.1-0.28
							l-5.69-2.71C18.4-8.57,18.37-8.57,18.34-8.57z M17.48-6.19c0.11-0.21,0.3-0.57,0.49-0.93c0.19-0.37,0.37-0.74,0.47-0.96
							l5.31,2.53c-0.11,0.24-0.32,0.66-0.54,1.09c-0.22,0.42-0.44,0.85-0.57,1.09L17.48-6.19z"/>
					</g>
					<g>
						<path class="st0" d="M26.24-10.88l-5.91-2.2c0,0-0.05,0.15-0.14,0.38c-0.09,0.22-0.2,0.52-0.32,0.82
							c-0.12,0.3-0.24,0.6-0.33,0.82c-0.09,0.22-0.16,0.37-0.16,0.37l5.81,2.45c0,0,0.07-0.16,0.17-0.41
							c0.1-0.25,0.23-0.58,0.37-0.9c0.13-0.33,0.26-0.66,0.35-0.91C26.18-10.72,26.24-10.88,26.24-10.88z"/>
						<path class="st1" d="M20.33-13.3c-0.03,0-0.06,0.01-0.09,0.02c-0.05,0.02-0.09,0.07-0.11,0.12c0,0-0.05,0.15-0.14,0.37
							l-0.8,2.01c-0.02,0.05-0.02,0.11,0,0.16c0.02,0.05,0.06,0.09,0.11,0.12l5.81,2.45c0.05,0.02,0.11,0.02,0.16,0
							c0.05-0.02,0.09-0.06,0.12-0.11l0.54-1.32l0.35-0.91c0.1-0.25,0.16-0.42,0.16-0.42c0.04-0.11-0.02-0.23-0.12-0.27l-5.91-2.2
							C20.38-13.29,20.36-13.3,20.33-13.3z M19.66-10.81l0.41-1l0.32-0.83c0.03-0.07,0.05-0.13,0.07-0.18l5.51,2.05
							c-0.02,0.06-0.05,0.13-0.08,0.21l-0.35,0.91l-0.45,1.11L19.66-10.81z"/>
					</g>
					<g>
						<path class="st0" d="M28.71-19.02l-6.13-1.45c0,0-0.04,0.16-0.09,0.39c-0.06,0.23-0.14,0.55-0.22,0.86
							c-0.08,0.31-0.16,0.62-0.23,0.85c-0.07,0.23-0.11,0.39-0.11,0.39l6.07,1.7c0,0,0.05-0.17,0.12-0.43
							c0.07-0.26,0.17-0.6,0.25-0.94c0.09-0.34,0.18-0.69,0.24-0.94C28.66-18.85,28.71-19.02,28.71-19.02z"/>
						<path class="st1" d="M22.57-20.68c-0.04,0-0.08,0.01-0.11,0.03c-0.05,0.03-0.08,0.08-0.09,0.13l-0.31,1.24
							c-0.08,0.31-0.16,0.62-0.23,0.85l-0.11,0.39c-0.03,0.11,0.03,0.23,0.15,0.26l6.07,1.7c0.05,0.02,0.11,0.01,0.16-0.02
							c0.05-0.03,0.09-0.07,0.1-0.13l0.12-0.43c0.07-0.26,0.17-0.6,0.25-0.95l0.34-1.38c0.03-0.11-0.04-0.23-0.16-0.25l-6.13-1.45
							C22.6-20.68,22.59-20.68,22.57-20.68z M22.19-18.12l0.05-0.18c0.07-0.23,0.15-0.54,0.23-0.86l0.26-1.04l5.72,1.35l-0.05,0.23
							l-0.24,0.94c-0.09,0.34-0.18,0.68-0.25,0.94l-0.06,0.22L22.19-18.12z"/>
					</g>
					<g>
						<path class="st0" d="M28-16.27l-6.07-1.7c0,0-0.04,0.16-0.11,0.39c-0.07,0.23-0.16,0.54-0.25,0.85
							c-0.09,0.31-0.19,0.62-0.26,0.84c-0.07,0.23-0.12,0.38-0.12,0.38l5.99,1.95c0,0,0.05-0.17,0.14-0.42
							c0.08-0.25,0.19-0.59,0.29-0.93c0.1-0.34,0.2-0.68,0.28-0.93C27.95-16.1,28-16.27,28-16.27z"/>
						<path class="st1" d="M21.93-18.19c-0.04,0-0.07,0.01-0.1,0.03c-0.05,0.03-0.08,0.07-0.1,0.13l-0.36,1.23
							c-0.09,0.31-0.19,0.61-0.26,0.84l-0.12,0.38c-0.04,0.11,0.03,0.23,0.14,0.27l5.99,1.95c0.05,0.02,0.11,0.01,0.16-0.01
							c0.05-0.03,0.09-0.07,0.1-0.12l0.14-0.42c0.08-0.25,0.19-0.59,0.29-0.94l0.4-1.36c0.03-0.11-0.03-0.23-0.15-0.26l-6.07-1.7
							C21.97-18.19,21.95-18.19,21.93-18.19z M21.45-15.65l0.06-0.18c0.08-0.23,0.17-0.54,0.26-0.85l0.3-1.03l5.66,1.59l-0.08,0.28
							l-0.26,0.88c-0.1,0.34-0.2,0.67-0.29,0.92l-0.07,0.22L21.45-15.65z"/>
					</g>
					<g>
						<path class="st0" d="M27.17-13.56l-5.99-1.95c0,0-0.05,0.15-0.12,0.38c-0.08,0.23-0.18,0.53-0.29,0.84
							c-0.1,0.3-0.22,0.61-0.3,0.83c-0.08,0.23-0.14,0.38-0.14,0.38l5.91,2.2c0,0,0.06-0.17,0.15-0.42
							c0.09-0.25,0.22-0.58,0.33-0.92c0.12-0.34,0.23-0.67,0.32-0.92C27.12-13.39,27.17-13.56,27.17-13.56z"/>
						<path class="st1" d="M21.18-15.73c-0.03,0-0.07,0.01-0.1,0.02c-0.05,0.03-0.09,0.07-0.11,0.12l-0.41,1.21
							c-0.07,0.21-0.14,0.41-0.21,0.59l-0.22,0.62c-0.04,0.11,0.02,0.23,0.12,0.27l5.91,2.2c0.05,0.02,0.11,0.02,0.16-0.01
							c0.05-0.02,0.09-0.07,0.11-0.12l0.24-0.65c0.08-0.21,0.16-0.45,0.25-0.69l0.45-1.34c0.04-0.11-0.02-0.23-0.14-0.27l-5.99-1.95
							C21.23-15.72,21.2-15.73,21.18-15.73z M20.61-13.21l0.15-0.42c0.07-0.18,0.14-0.39,0.21-0.6l0.35-1.02l5.59,1.82l-0.07,0.22
							l-0.32,0.92c-0.08,0.24-0.17,0.48-0.24,0.68l-0.16,0.45L20.61-13.21z"/>
					</g>
				</g>
				<path class="st0" d="M24.04-36.98l2.4-0.15c0,0,0.03,0.54,0.07,1.49c0.02,0.47,0.02,1.05,0.03,1.71
					c0.01,0.33-0.01,0.68-0.01,1.05c-0.01,0.37,0,0.76-0.03,1.17c-0.05,1.63-0.2,3.53-0.46,5.55c-0.26,2.02-0.65,4.16-1.15,6.28
					c-0.99,4.24-2.48,8.35-3.83,11.32c-0.66,1.49-1.28,2.7-1.73,3.53c-0.23,0.41-0.41,0.74-0.54,0.95c-0.13,0.21-0.2,0.33-0.2,0.33
					L16.56-5c0,0,0.06-0.1,0.17-0.29c0.11-0.2,0.28-0.5,0.5-0.89c0.42-0.78,1.02-1.94,1.65-3.36c1.29-2.85,2.73-6.81,3.68-10.89
					c0.48-2.04,0.85-4.1,1.1-6.04c0.25-1.94,0.39-3.76,0.44-5.32c0.02-0.39,0.02-0.76,0.02-1.12c0-0.36,0.02-0.69,0.01-1.01
					c-0.01-0.63-0.01-1.19-0.03-1.64C24.07-36.46,24.04-36.98,24.04-36.98z"/>
				<path class="st0" d="M28.39-37.25l1.23-0.07c0,0,0.03,0.57,0.07,1.58c0.02,0.5,0.02,1.11,0.03,1.81
					c0.01,0.35-0.01,0.72-0.01,1.11c-0.01,0.39,0,0.8-0.03,1.23c-0.06,1.72-0.21,3.72-0.48,5.85c-0.27,2.13-0.68,4.38-1.21,6.6
					c-1.04,4.45-2.6,8.76-4.02,11.89c-0.7,1.57-1.36,2.85-1.84,3.75c-0.24,0.45-0.44,0.8-0.59,1.04c-0.15,0.25-0.23,0.38-0.23,0.38
					l-1.05-0.64c0,0,0.07-0.12,0.22-0.36c0.14-0.23,0.33-0.57,0.57-1.01c0.47-0.87,1.11-2.12,1.8-3.66
					c1.39-3.07,2.92-7.3,3.94-11.67c0.52-2.18,0.92-4.39,1.19-6.48c0.27-2.09,0.42-4.05,0.48-5.73c0.02-0.42,0.02-0.82,0.03-1.21
					c0-0.38,0.02-0.75,0.01-1.09c-0.01-0.68-0.01-1.28-0.03-1.77C28.42-36.69,28.39-37.25,28.39-37.25z"/>
			</g>
			<g>
				<path class="st2" d="M29.41-44.83c0.96,0.66,1.59,1.77,1.59,3.02c0,2.03-1.64,3.67-3.67,3.67c-2.03,0-3.67-1.64-3.67-3.67
					c0-1.25,0.63-2.36,1.59-3.02h-4.4c-0.43,0.92-0.67,1.94-0.67,3.02c0,3.95,3.21,7.16,7.16,7.16c3.95,0,7.16-3.2,7.16-7.16
					c0-1.08-0.24-2.1-0.67-3.02H29.41z"/>
				<path class="st3" d="M33.81-45.11h-4.4c-0.12,0-0.23,0.08-0.27,0.2c-0.04,0.12,0.01,0.25,0.11,0.32
					c0.92,0.63,1.46,1.68,1.46,2.79c0,1.87-1.52,3.39-3.39,3.39c-1.87,0-3.39-1.52-3.39-3.39c0-1.11,0.55-2.15,1.46-2.79
					c0.1-0.07,0.15-0.2,0.11-0.32c-0.04-0.12-0.15-0.2-0.27-0.2h-4.4c-0.11,0-0.21,0.06-0.26,0.16c-0.46,0.99-0.69,2.05-0.69,3.14
					c0,4.1,3.34,7.44,7.44,7.44c4.1,0,7.44-3.34,7.44-7.44c0-1.09-0.23-2.15-0.7-3.14C34.02-45.05,33.92-45.11,33.81-45.11z
					 M30.17-44.55h3.46c0.38,0.87,0.57,1.79,0.57,2.74c0,3.79-3.08,6.88-6.88,6.88c-3.79,0-6.88-3.08-6.88-6.88
					c0-0.95,0.19-1.87,0.57-2.74h3.46c-0.7,0.73-1.1,1.71-1.1,2.74c0,2.18,1.77,3.95,3.95,3.95c2.18,0,3.95-1.77,3.95-3.95
					C31.27-42.84,30.87-43.82,30.17-44.55z"/>
			</g>
			<path class="st2" d="M27.32-34.65c3.69,0,6.72-2.79,7.11-6.38c-0.38,1.61-1.29,3.1-2.59,4.14c-1.57,1.25-3.88,2.03-5.84,1.29
				c-2.25-0.85-3.81-3.1-4.11-5.45c-0.17-1.28-0.03-2.55,0.3-3.78h-1.37c-0.43,0.92-0.67,1.94-0.67,3.02
				C20.16-37.86,23.37-34.65,27.32-34.65z"/>
		</g>
		<g>
			<path class="st4" d="M8.56-2.13c0-4.53,3.67-8.2,8.2-8.2c4.53,0,8.2,3.67,8.2,8.2c0,4.53-3.67,8.2-8.2,8.2
				C12.24,6.07,8.56,2.4,8.56-2.13z"/>
			<path class="st5" d="M16.76-10.61c-4.68,0-8.48,3.8-8.48,8.48c0,4.68,3.8,8.48,8.48,8.48s8.48-3.8,8.48-8.48
				C25.24-6.81,21.44-10.61,16.76-10.61z M16.76,5.78c-4.37,0-7.92-3.55-7.92-7.92c0-4.36,3.55-7.92,7.92-7.92s7.92,3.55,7.92,7.92
				C24.68,2.23,21.13,5.78,16.76,5.78z"/>
		</g>
		<path class="st6" d="M16.25,6.05c1.62-0.95,2.72-2.81,3.38-4.5c0.86-2.24,1.38-4.92,0.73-7.28c-0.03-0.09,0.07-0.15,0.15-0.12
			c0.1,0.04,0.21,0.09,0.31,0.14c0.03-0.04,0.08-0.07,0.14-0.04c1.64,0.9,2.99,2.3,3.59,4.1c0.12,0.36,0.21,0.72,0.27,1.09
			c0.1-0.51,0.15-1.04,0.15-1.58c0-4.53-3.67-8.2-8.2-8.2c-4.53,0-8.2,3.67-8.2,8.2C8.56,2.22,11.96,5.78,16.25,6.05z"/>
		<path class="st7" d="M18.78,5.21c0,0,4.71-1.57,5.47-5.81l-1.37-2.32C22.88-2.92,24.18,1.11,18.78,5.21z"/>
		<path class="st8" d="M28.09-37.06c0,0,6.1-0.77,3.54-7.33C31.62-44.39,33.21-39.57,28.09-37.06z"/>
	</g>
	<g>
		<g>
			<g>
				<g>
					<rect x="-11.07" y="-38.8" class="st0" width="8.4" height="2.34"/>
					<path class="st1" d="M-2.66-39.08h-8.4c-0.16,0-0.28,0.13-0.28,0.28v2.34c0,0.16,0.13,0.28,0.28,0.28h8.4
						c0.16,0,0.28-0.13,0.28-0.28v-2.34C-2.38-38.95-2.51-39.08-2.66-39.08z M-10.79-38.52h7.84v1.77h-7.84V-38.52z"/>
				</g>
				<g>
					<rect x="-11.07" y="-41.13" class="st0" width="8.4" height="2.34"/>
					<path class="st1" d="M-2.66-41.42h-8.4c-0.16,0-0.28,0.13-0.28,0.28v2.34c0,0.16,0.13,0.28,0.28,0.28h8.4
						c0.16,0,0.28-0.13,0.28-0.28v-2.34C-2.38-41.29-2.51-41.42-2.66-41.42z M-10.79-40.85h7.84v1.77h-7.84V-40.85z"/>
				</g>
				<g>
					<rect x="-11.07" y="-36.46" class="st0" width="8.4" height="2.34"/>
					<path class="st1" d="M-2.66-36.74h-8.4c-0.16,0-0.28,0.13-0.28,0.28v2.33c0,0.16,0.13,0.28,0.28,0.28h8.4
						c0.16,0,0.28-0.13,0.28-0.28v-2.33C-2.38-36.62-2.51-36.74-2.66-36.74z M-10.79-36.18h7.84v1.77h-7.84V-36.18z"/>
				</g>
				<g>
					<rect x="-11.07" y="-22.45" class="st0" width="8.4" height="2.34"/>
					<path class="st1" d="M-2.66-22.73h-8.4c-0.16,0-0.28,0.13-0.28,0.28v2.34c0,0.16,0.13,0.28,0.28,0.28h8.4
						c0.16,0,0.28-0.13,0.28-0.28v-2.34C-2.38-22.6-2.51-22.73-2.66-22.73z M-10.79-22.17h7.84v1.77h-7.84V-22.17z"/>
				</g>
				<g>
					<rect x="-11.07" y="-46.96" class="st0" width="8.4" height="1.15"/>
					<path class="st1" d="M-2.66-47.24h-8.4c-0.16,0-0.28,0.13-0.28,0.28v1.15c0,0.16,0.13,0.28,0.28,0.28h8.4
						c0.16,0,0.28-0.13,0.28-0.28v-1.15C-2.38-47.11-2.51-47.24-2.66-47.24z M-10.79-46.68h7.84v0.59h-7.84V-46.68z"/>
				</g>
				<g>
					<rect x="-11.07" y="-45.8" class="st0" width="8.4" height="2.34"/>
					<path class="st1" d="M-2.66-46.09h-8.4c-0.16,0-0.28,0.13-0.28,0.28v2.34c0,0.16,0.13,0.28,0.28,0.28h8.4
						c0.16,0,0.28-0.13,0.28-0.28v-2.34C-2.38-45.96-2.51-46.09-2.66-46.09z M-10.79-45.52h7.84v1.77h-7.84V-45.52z"/>
				</g>
				<g>
					<rect x="-11.07" y="-34.13" class="st0" width="8.4" height="2.34"/>
					<path class="st1" d="M-2.66-34.41h-8.4c-0.16,0-0.28,0.13-0.28,0.28v2.34c0,0.16,0.13,0.28,0.28,0.28h8.4
						c0.16,0,0.28-0.13,0.28-0.28v-2.34C-2.38-34.28-2.51-34.41-2.66-34.41z M-10.79-33.84h7.84v1.77h-7.84V-33.84z"/>
				</g>
				<g>
					<rect x="-11.07" y="-43.47" class="st0" width="8.4" height="2.34"/>
					<path class="st1" d="M-2.66-43.75h-8.4c-0.16,0-0.28,0.13-0.28,0.28v2.34c0,0.16,0.13,0.28,0.28,0.28h8.4
						c0.16,0,0.28-0.13,0.28-0.28v-2.34C-2.38-43.62-2.51-43.75-2.66-43.75z M-10.79-43.19h7.84v1.77h-7.84V-43.19z"/>
				</g>
				<g>
					<rect x="-11.07" y="-17.78" class="st0" width="8.4" height="1.24"/>
					<path class="st1" d="M-2.66-18.06h-8.4c-0.16,0-0.28,0.13-0.28,0.28v1.24c0,0.16,0.13,0.28,0.28,0.28h8.4
						c0.16,0,0.28-0.13,0.28-0.28v-1.24C-2.38-17.93-2.51-18.06-2.66-18.06z M-10.79-17.49h7.84v0.67h-7.84V-17.49z"/>
				</g>
				<g>
					<rect x="-11.07" y="-20.11" class="st0" width="8.4" height="2.34"/>
					<path class="st1" d="M-2.66-20.39h-8.4c-0.16,0-0.28,0.13-0.28,0.28v2.33c0,0.16,0.13,0.28,0.28,0.28h8.4
						c0.16,0,0.28-0.13,0.28-0.28v-2.33C-2.38-20.27-2.51-20.39-2.66-20.39z M-10.79-19.83h7.84v1.77h-7.84V-19.83z"/>
				</g>
				<g>
					<rect x="-11.07" y="-24.78" class="st0" width="8.4" height="2.34"/>
					<path class="st1" d="M-2.66-25.07h-8.4c-0.16,0-0.28,0.13-0.28,0.28v2.34c0,0.16,0.13,0.28,0.28,0.28h8.4
						c0.16,0,0.28-0.13,0.28-0.28v-2.34C-2.38-24.94-2.51-25.07-2.66-25.07z M-10.79-24.5h7.84v1.77h-7.84V-24.5z"/>
				</g>
				<g>
					<rect x="-11.07" y="-31.79" class="st0" width="8.4" height="2.34"/>
					<path class="st1" d="M-2.66-32.07h-8.4c-0.16,0-0.28,0.13-0.28,0.28v2.33c0,0.16,0.13,0.28,0.28,0.28h8.4
						c0.16,0,0.28-0.13,0.28-0.28v-2.33C-2.38-31.95-2.51-32.07-2.66-32.07z M-10.79-31.51h7.84v1.77h-7.84V-31.51z"/>
				</g>
				<g>
					<rect x="-11.07" y="-29.45" class="st0" width="8.4" height="2.34"/>
					<path class="st1" d="M-2.66-29.74h-8.4c-0.16,0-0.28,0.13-0.28,0.28v2.34c0,0.16,0.13,0.28,0.28,0.28h8.4
						c0.16,0,0.28-0.13,0.28-0.28v-2.34C-2.38-29.61-2.51-29.74-2.66-29.74z M-10.79-29.17h7.84v1.77h-7.84V-29.17z"/>
				</g>
				<g>
					<rect x="-11.07" y="-27.12" class="st0" width="8.4" height="2.34"/>
					<path class="st1" d="M-2.66-27.4h-8.4c-0.16,0-0.28,0.13-0.28,0.28v2.34c0,0.16,0.13,0.28,0.28,0.28h8.4
						c0.16,0,0.28-0.13,0.28-0.28v-2.34C-2.38-27.27-2.51-27.4-2.66-27.4z M-10.79-26.84h7.84v1.77h-7.84V-26.84z"/>
				</g>
			</g>
			<rect x="-5.88" y="-46.96" class="st0" width="3.21" height="30.42"/>
			<rect x="-10.11" y="-46.96" class="st0" width="1.64" height="30.42"/>
		</g>
		<g>
			<g>
				<rect x="-13.42" y="-48.9" class="st2" width="13.12" height="2.32"/>
				<path class="st3" d="M-0.31-49.18h-13.12c-0.16,0-0.28,0.13-0.28,0.28v2.32c0,0.16,0.13,0.28,0.28,0.28h13.12
					c0.16,0,0.28-0.13,0.28-0.28v-2.32C-0.02-49.05-0.15-49.18-0.31-49.18z M-13.14-48.62h12.55v1.76h-12.55V-48.62z"/>
			</g>
			<g>
				<g>
					<rect x="-12.91" y="-49.72" class="st9" width="2.65" height="2.25"/>
					<path class="st3" d="M-10.26-50h-2.65c-0.16,0-0.28,0.13-0.28,0.28v2.25c0,0.16,0.13,0.28,0.28,0.28h2.65
						c0.16,0,0.28-0.13,0.28-0.28v-2.25C-9.98-49.87-10.11-50-10.26-50z M-12.63-49.44h2.09v1.69h-2.09V-49.44z"/>
				</g>
				<g>
					<rect x="-9.76" y="-49.72" class="st9" width="2.65" height="2.25"/>
					<path class="st3" d="M-7.12-50h-2.65c-0.16,0-0.28,0.13-0.28,0.28v2.25c0,0.16,0.13,0.28,0.28,0.28h2.65
						c0.16,0,0.28-0.13,0.28-0.28v-2.25C-6.83-49.87-6.96-50-7.12-50z M-9.48-49.44h2.08v1.69h-2.08V-49.44z"/>
				</g>
				<g>
					<rect x="-6.62" y="-49.72" class="st9" width="2.65" height="2.25"/>
					<path class="st3" d="M-3.97-50h-2.65c-0.16,0-0.28,0.13-0.28,0.28v2.25c0,0.16,0.13,0.28,0.28,0.28h2.65
						c0.16,0,0.28-0.13,0.28-0.28v-2.25C-3.68-49.87-3.81-50-3.97-50z M-6.33-49.44h2.09v1.69h-2.09V-49.44z"/>
				</g>
				<g>
					<rect x="-3.47" y="-49.72" class="st9" width="2.65" height="2.25"/>
					<path class="st3" d="M-0.82-50h-2.65c-0.16,0-0.28,0.13-0.28,0.28v2.25c0,0.16,0.13,0.28,0.28,0.28h2.65
						c0.16,0,0.28-0.13,0.28-0.28v-2.25C-0.54-49.87-0.66-50-0.82-50z M-3.19-49.44h2.09v1.69h-2.09V-49.44z"/>
				</g>
			</g>
		</g>
	</g>
	<g>
		<g>
			<g>
				<g>
					<rect x="3.18" y="-38.8" class="st0" width="8.4" height="2.34"/>
					<path class="st1" d="M11.58-39.08h-8.4c-0.16,0-0.28,0.13-0.28,0.28v2.34c0,0.16,0.13,0.28,0.28,0.28h8.4
						c0.16,0,0.28-0.13,0.28-0.28v-2.34C11.86-38.95,11.74-39.08,11.58-39.08z M3.46-38.52h7.84v1.77H3.46V-38.52z"/>
				</g>
				<g>
					<rect x="3.18" y="-41.13" class="st0" width="8.4" height="2.34"/>
					<path class="st1" d="M11.58-41.42h-8.4c-0.16,0-0.28,0.13-0.28,0.28v2.34c0,0.16,0.13,0.28,0.28,0.28h8.4
						c0.16,0,0.28-0.13,0.28-0.28v-2.34C11.86-41.29,11.74-41.42,11.58-41.42z M3.46-40.85h7.84v1.77H3.46V-40.85z"/>
				</g>
				<g>
					<rect x="3.18" y="-36.46" class="st0" width="8.4" height="2.34"/>
					<path class="st1" d="M11.58-36.74h-8.4c-0.16,0-0.28,0.13-0.28,0.28v2.33c0,0.16,0.13,0.28,0.28,0.28h8.4
						c0.16,0,0.28-0.13,0.28-0.28v-2.33C11.86-36.62,11.74-36.74,11.58-36.74z M3.46-36.18h7.84v1.77H3.46V-36.18z"/>
				</g>
				<g>
					<rect x="3.18" y="-22.45" class="st0" width="8.4" height="2.34"/>
					<path class="st1" d="M11.58-22.73h-8.4c-0.16,0-0.28,0.13-0.28,0.28v2.34c0,0.16,0.13,0.28,0.28,0.28h8.4
						c0.16,0,0.28-0.13,0.28-0.28v-2.34C11.86-22.6,11.74-22.73,11.58-22.73z M3.46-22.17h7.84v1.77H3.46V-22.17z"/>
				</g>
				<g>
					<rect x="3.18" y="-46.96" class="st0" width="8.4" height="1.15"/>
					<path class="st1" d="M11.58-47.24h-8.4c-0.16,0-0.28,0.13-0.28,0.28v1.15c0,0.16,0.13,0.28,0.28,0.28h8.4
						c0.16,0,0.28-0.13,0.28-0.28v-1.15C11.86-47.11,11.74-47.24,11.58-47.24z M3.46-46.68h7.84v0.59H3.46V-46.68z"/>
				</g>
				<g>
					<rect x="3.18" y="-45.8" class="st0" width="8.4" height="2.34"/>
					<path class="st1" d="M11.58-46.09h-8.4c-0.16,0-0.28,0.13-0.28,0.28v2.34c0,0.16,0.13,0.28,0.28,0.28h8.4
						c0.16,0,0.28-0.13,0.28-0.28v-2.34C11.86-45.96,11.74-46.09,11.58-46.09z M3.46-45.52h7.84v1.77H3.46V-45.52z"/>
				</g>
				<g>
					<rect x="3.18" y="-34.13" class="st0" width="8.4" height="2.34"/>
					<path class="st1" d="M11.58-34.41h-8.4c-0.16,0-0.28,0.13-0.28,0.28v2.34c0,0.16,0.13,0.28,0.28,0.28h8.4
						c0.16,0,0.28-0.13,0.28-0.28v-2.34C11.86-34.28,11.74-34.41,11.58-34.41z M3.46-33.84h7.84v1.77H3.46V-33.84z"/>
				</g>
				<g>
					<rect x="3.18" y="-43.47" class="st0" width="8.4" height="2.34"/>
					<path class="st1" d="M11.58-43.75h-8.4c-0.16,0-0.28,0.13-0.28,0.28v2.34c0,0.16,0.13,0.28,0.28,0.28h8.4
						c0.16,0,0.28-0.13,0.28-0.28v-2.34C11.86-43.62,11.74-43.75,11.58-43.75z M3.46-43.19h7.84v1.77H3.46V-43.19z"/>
				</g>
				<g>
					<rect x="3.18" y="-17.78" class="st0" width="8.4" height="1.24"/>
					<path class="st1" d="M11.58-18.06h-8.4c-0.16,0-0.28,0.13-0.28,0.28v1.24c0,0.16,0.13,0.28,0.28,0.28h8.4
						c0.16,0,0.28-0.13,0.28-0.28v-1.24C11.86-17.93,11.74-18.06,11.58-18.06z M3.46-17.49h7.84v0.67H3.46V-17.49z"/>
				</g>
				<g>
					<rect x="3.18" y="-20.11" class="st0" width="8.4" height="2.34"/>
					<path class="st1" d="M11.58-20.39h-8.4c-0.16,0-0.28,0.13-0.28,0.28v2.33c0,0.16,0.13,0.28,0.28,0.28h8.4
						c0.16,0,0.28-0.13,0.28-0.28v-2.33C11.86-20.27,11.74-20.39,11.58-20.39z M3.46-19.83h7.84v1.77H3.46V-19.83z"/>
				</g>
				<g>
					<rect x="3.18" y="-24.78" class="st0" width="8.4" height="2.34"/>
					<path class="st1" d="M11.58-25.07h-8.4c-0.16,0-0.28,0.13-0.28,0.28v2.34c0,0.16,0.13,0.28,0.28,0.28h8.4
						c0.16,0,0.28-0.13,0.28-0.28v-2.34C11.86-24.94,11.74-25.07,11.58-25.07z M3.46-24.5h7.84v1.77H3.46V-24.5z"/>
				</g>
				<g>
					<rect x="3.18" y="-31.79" class="st0" width="8.4" height="2.34"/>
					<path class="st1" d="M11.58-32.07h-8.4c-0.16,0-0.28,0.13-0.28,0.28v2.33c0,0.16,0.13,0.28,0.28,0.28h8.4
						c0.16,0,0.28-0.13,0.28-0.28v-2.33C11.86-31.95,11.74-32.07,11.58-32.07z M3.46-31.51h7.84v1.77H3.46V-31.51z"/>
				</g>
				<g>
					<rect x="3.18" y="-29.45" class="st0" width="8.4" height="2.34"/>
					<path class="st1" d="M11.58-29.74h-8.4c-0.16,0-0.28,0.13-0.28,0.28v2.34c0,0.16,0.13,0.28,0.28,0.28h8.4
						c0.16,0,0.28-0.13,0.28-0.28v-2.34C11.86-29.61,11.74-29.74,11.58-29.74z M3.46-29.17h7.84v1.77H3.46V-29.17z"/>
				</g>
				<g>
					<rect x="3.18" y="-27.12" class="st0" width="8.4" height="2.34"/>
					<path class="st1" d="M11.58-27.4h-8.4c-0.16,0-0.28,0.13-0.28,0.28v2.34c0,0.16,0.13,0.28,0.28,0.28h8.4
						c0.16,0,0.28-0.13,0.28-0.28v-2.34C11.86-27.27,11.74-27.4,11.58-27.4z M3.46-26.84h7.84v1.77H3.46V-26.84z"/>
				</g>
			</g>
			<rect x="8.37" y="-46.96" class="st0" width="3.21" height="30.42"/>
			<rect x="4.13" y="-46.96" class="st0" width="1.64" height="30.42"/>
		</g>
		<g>
			<g>
				<rect x="0.82" y="-48.9" class="st2" width="13.12" height="2.32"/>
				<path class="st3" d="M13.94-49.18H0.82c-0.16,0-0.28,0.13-0.28,0.28v2.32c0,0.16,0.13,0.28,0.28,0.28h13.12
					c0.16,0,0.28-0.13,0.28-0.28v-2.32C14.22-49.05,14.09-49.18,13.94-49.18z M1.1-48.62h12.55v1.76H1.1V-48.62z"/>
			</g>
			<g>
				<g>
					<rect x="1.33" y="-49.72" class="st9" width="2.65" height="2.25"/>
					<path class="st3" d="M3.98-50H1.33c-0.16,0-0.28,0.13-0.28,0.28v2.25c0,0.16,0.13,0.28,0.28,0.28h2.65
						c0.16,0,0.28-0.13,0.28-0.28v-2.25C4.26-49.87,4.14-50,3.98-50z M1.62-49.44H3.7v1.69H1.62V-49.44z"/>
				</g>
				<g>
					<rect x="4.48" y="-49.72" class="st9" width="2.65" height="2.25"/>
					<path class="st3" d="M7.13-50H4.48c-0.16,0-0.28,0.13-0.28,0.28v2.25c0,0.16,0.13,0.28,0.28,0.28h2.65
						c0.16,0,0.28-0.13,0.28-0.28v-2.25C7.41-49.87,7.29-50,7.13-50z M4.76-49.44h2.09v1.69H4.76V-49.44z"/>
				</g>
				<g>
					<rect x="7.63" y="-49.72" class="st9" width="2.65" height="2.25"/>
					<path class="st3" d="M10.28-50H7.63c-0.16,0-0.28,0.13-0.28,0.28v2.25c0,0.16,0.13,0.28,0.28,0.28h2.65
						c0.16,0,0.28-0.13,0.28-0.28v-2.25C10.56-49.87,10.43-50,10.28-50z M7.91-49.44H10v1.69H7.91V-49.44z"/>
				</g>
				<g>
					<rect x="10.78" y="-49.72" class="st9" width="2.65" height="2.25"/>
					<path class="st3" d="M13.43-50h-2.65c-0.16,0-0.28,0.13-0.28,0.28v2.25c0,0.16,0.13,0.28,0.28,0.28h2.65
						c0.16,0,0.28-0.13,0.28-0.28v-2.25C13.71-49.87,13.58-50,13.43-50z M11.06-49.44h2.09v1.69h-2.09V-49.44z"/>
				</g>
			</g>
		</g>
	</g>
	<g>
		<path class="st2" d="M18.51-21.28c0-4.25-3.45-7.7-7.7-7.7H-9.52c-4.25,0-7.7,3.45-7.7,7.7v20.33c0,4.25,3.45,7.7,7.7,7.7h20.33
			c4.25,0,7.7-3.45,7.7-7.7V-21.28z"/>
		<path class="st3" d="M10.81-29.27H-9.52c-4.4,0-7.98,3.58-7.98,7.98v20.33c0,4.4,3.58,7.98,7.98,7.98h20.33
			c4.4,0,7.98-3.58,7.98-7.98v-20.33C18.79-25.68,15.21-29.27,10.81-29.27z M-9.52,6.47c-4.09,0-7.42-3.33-7.42-7.42v-20.33
			c0-4.09,3.33-7.42,7.42-7.42h20.33c4.09,0,7.42,3.33,7.42,7.42v20.33c0,4.09-3.33,7.42-7.42,7.42H-9.52z"/>
	</g>
	<path class="st10" d="M16.12-19.72c0-3.68-2.99-6.67-6.67-6.67H-8.16c-3.69,0-6.67,2.99-6.67,6.67v17.61
		c0,3.68,2.99,6.67,6.67,6.67H9.45c3.68,0,6.67-2.99,6.67-6.67V-19.72z"/>
	<g>
		<g>
			<path class="st8" d="M11.16-15.46c-0.01-3.24-2.64-5.86-5.88-5.85l-10.24,0.02c-3.24,0.01-5.86,2.64-5.85,5.87l0.02,10.24
				c0.01,3.25,2.64,5.87,5.88,5.86L5.33,0.66c3.24,0,5.86-2.63,5.85-5.88L11.16-15.46z"/>
			<path class="st11" d="M5.3-21.73c0,0-0.02,0-0.02,0l-10.24,0.02c-1.68,0-3.26,0.66-4.44,1.85c-1.19,1.19-1.84,2.77-1.83,4.45
				l0.02,10.24C-11.2-1.71-8.38,1.1-4.93,1.1L5.33,1.08c1.68,0,3.26-0.66,4.45-1.85c1.18-1.19,1.83-2.77,1.83-4.45l-0.02-10.24
				C11.57-18.92,8.76-21.73,5.3-21.73z M-4.91,0.26c-3.01,0-5.45-2.44-5.46-5.43l-0.02-10.24c0-1.45,0.56-2.82,1.59-3.85
				c1.03-1.03,2.39-1.6,3.84-1.6l10.24-0.02L5.3-21.3v0.42c2.99,0,5.43,2.43,5.44,5.42l0.02,10.24c0,1.46-0.56,2.82-1.58,3.85
				c-1.03,1.03-2.39,1.6-3.85,1.6L-4.91,0.26z"/>
		</g>
		<path class="st12" d="M7.15-4.9c0-1.4-1.13-2.52-2.53-2.51L-4.01-7.4c-1.39,0-2.52,1.13-2.52,2.53l0,0c0,1.4,1.14,2.52,2.53,2.52
			l8.63-0.02C6.03-2.38,7.16-3.51,7.15-4.9L7.15-4.9z"/>
		<path class="st13" d="M6.4-4.9c0-1.23-1-2.21-2.22-2.21L-3.42-7.1c-1.22,0-2.21,1-2.21,2.22l0,0c0.01,1.23,1,2.22,2.22,2.22
			l7.59-0.02C5.41-2.68,6.4-3.67,6.4-4.9L6.4-4.9z"/>
		<path class="st13" d="M2.71-4.71c0-0.74-0.6-1.34-1.35-1.34l-4.59,0.01c-0.74,0-1.34,0.6-1.34,1.34l0,0c0,0.75,0.6,1.35,1.34,1.34
			l4.59-0.01C2.11-3.37,2.71-3.97,2.71-4.71L2.71-4.71z"/>
		<path class="st14" d="M-2.33-10.95c0-1.18-0.96-2.14-2.15-2.13c-1.18,0-2.13,0.96-2.13,2.15c0,1.18,0.96,2.14,2.14,2.13
			C-3.28-8.81-2.33-9.77-2.33-10.95z"/>
		<path class="st15" d="M-3.19-10.86c0-0.71-0.57-1.28-1.28-1.28c-0.71,0-1.28,0.58-1.28,1.29c0,0.7,0.57,1.28,1.28,1.28
			C-3.76-9.58-3.19-10.15-3.19-10.86z"/>
		<path class="st6" d="M-2.48-16.46c0-1.11-0.9-2-2.01-2c-1.1,0-2,0.9-1.99,2.01c0,1.1,0.9,2,2,1.99
			C-3.37-14.46-2.48-15.36-2.48-16.46z"/>
		<g>
			<path class="st14" d="M5.67-10.77c0-0.73-0.59-1.32-1.32-1.32c-0.72,0-1.32,0.59-1.31,1.32c0,0.73,0.59,1.32,1.32,1.31
				C5.08-9.45,5.68-10.04,5.67-10.77z"/>
			<path class="st16" d="M5.69-10.93c0-0.6-0.49-1.08-1.08-1.08c-0.6,0-1.09,0.48-1.08,1.08c0,0.6,0.49,1.08,1.09,1.08
				C5.2-9.84,5.69-10.33,5.69-10.93z"/>
			<path class="st17" d="M5.94-16.78c0-0.84-0.7-1.53-1.54-1.53c-0.85,0-1.53,0.69-1.53,1.53c0,0.85,0.69,1.54,1.54,1.53
				C5.25-15.25,5.94-15.93,5.94-16.78z"/>
			<path class="st16" d="M5.48-16.79c0-0.6-0.49-1.09-1.09-1.08c-0.6,0-1.08,0.49-1.08,1.09c0,0.6,0.49,1.08,1.08,1.08
				C5-15.71,5.49-16.2,5.48-16.79z"/>
			<g>
				<path class="st18" d="M9.02-13.14C9.01-13.01,9-12.89,8.97-12.76l-0.12,0.38c-0.06,0.24-0.22,0.46-0.35,0.69
					c-0.15,0.2-0.31,0.39-0.49,0.55c-0.72,0.62-1.49,0.85-2.1,0.99C5.44-10.04,5.03-10,4.69-9.98c-0.28-0.15-0.52-0.36-0.6-0.66
					c-0.1-0.42,0-0.8,0.24-1.1c0.29-0.01,0.71-0.04,1.21-0.15c0.46-0.09,0.97-0.29,1.31-0.58c0.34-0.3,0.44-0.65,0.42-1.24
					c-0.04-0.6-0.23-1.08-0.56-1.38c-0.31-0.33-0.8-0.51-1.26-0.62c-0.41-0.09-0.77-0.13-1.06-0.14c-0.39-0.37-0.67-0.92-0.31-1.42
					c0.12-0.17,0.28-0.28,0.45-0.35c0.34,0.02,0.79,0.06,1.32,0.19c0.62,0.15,1.42,0.4,2.09,1.06c0.69,0.65,1.06,1.67,1.09,2.54
					l0.02,0.33C9.05-13.39,9.03-13.26,9.02-13.14z"/>
				<g>
					<path class="st19" d="M4.09-10.64c-0.1-0.42,0-0.8,0.24-1.1c0.07,0,0.12,0,0.12,0l0.08,1.66C4.32-10.22,4.16-10.4,4.09-10.64z"
						/>
					<path class="st19" d="M5.64-10.09c0,0-0.12,0.02-0.25,0.05c-0.12,0.02-0.25,0.03-0.25,0.03l-0.21-1.76c0,0,0.1-0.01,0.2-0.02
						c0.1-0.02,0.19-0.04,0.19-0.04L5.64-10.09z"/>
					<path class="st19" d="M6.94-10.47c0,0-0.04,0.01-0.1,0.04c-0.07,0.03-0.15,0.06-0.24,0.09c-0.17,0.05-0.35,0.11-0.35,0.11
						l-0.47-1.71c0,0,0.12-0.04,0.23-0.08c0.07-0.01,0.12-0.03,0.16-0.06c0.04-0.02,0.07-0.03,0.07-0.03L6.94-10.47z"/>
					<path class="st19" d="M8.02-11.14c0,0-0.12,0.09-0.23,0.18c-0.12,0.1-0.25,0.17-0.25,0.17l-0.94-1.5
						c0.02,0.01,0.24-0.18,0.24-0.18L8.02-11.14z"/>
					<path class="st19" d="M8.9-12.49c0,0-0.01,0.05-0.04,0.13c-0.03,0.07-0.05,0.18-0.11,0.27c-0.1,0.2-0.22,0.38-0.22,0.38
						l-1.47-1c0,0,0.04-0.08,0.08-0.15c0.04-0.08,0.05-0.17,0.06-0.17L8.9-12.49z"/>
					<path class="st19" d="M9.03-13.79c0,0,0.01,0.13,0.01,0.27c0.01,0.06-0.01,0.14-0.01,0.2c0,0.06-0.01,0.09-0.01,0.09
						l-1.77-0.11c0-0.01,0.02-0.07,0.01-0.16c0-0.09-0.01-0.17-0.01-0.17L9.03-13.79z"/>
					<path class="st19" d="M8.72-15.21c0.03,0,0.25,0.75,0.22,0.75l-1.74,0.35c0.01-0.01-0.12-0.43-0.13-0.42L8.72-15.21z"/>
					<path class="st19" d="M7.99-16.31c0,0,0.03,0.02,0.06,0.06c0.04,0.04,0.09,0.1,0.14,0.16c0.09,0.11,0.18,0.23,0.18,0.23
						l-1.46,1c0,0-0.18-0.23-0.19-0.22L7.99-16.31z"/>
					<path class="st19" d="M6.76-17.14c0-0.02,0.69,0.34,0.68,0.36L6.45-15.3c0.01-0.01-0.39-0.22-0.39-0.22L6.76-17.14z"/>
					<path class="st19" d="M5.63-17.49c0,0,0.12,0.03,0.25,0.06c0.12,0.02,0.25,0.06,0.25,0.06l-0.49,1.71c0,0-0.09-0.02-0.18-0.04
						c-0.09-0.02-0.18-0.04-0.18-0.04L5.63-17.49z"/>
					<path class="st19" d="M4.38-15.86c-0.04-0.03-0.07-0.06-0.11-0.1l0.07-1.57c0.06-0.04,0.11-0.06,0.17-0.09
						c0.05,0.01,0.1,0.01,0.16,0.01c0.17,0.02,0.33,0.04,0.33,0.04l-0.2,1.76c0,0-0.14-0.02-0.27-0.03
						C4.48-15.86,4.43-15.86,4.38-15.86z"/>
				</g>
			</g>
			<path class="st8" d="M5.67-11.54c0.11,0,2.67-0.44,1.93-2.78c0,0-0.11-1.35-2.23-1.68c0,0,2.85,0.03,2.78,2.45
				C8.09-11.14,5.67-11.54,5.67-11.54z"/>
		</g>
		<path class="st20" d="M-3.2-16.52c0-0.7-0.58-1.28-1.28-1.27c-0.71,0-1.28,0.58-1.28,1.28c0,0.7,0.57,1.28,1.28,1.27
			C-3.78-15.24-3.21-15.82-3.2-16.52z"/>
	</g>
	<g>
		<g>
			<g>
				<g>
					<g>
						<path class="st2" d="M-18.83,18.53c0.07-2.43-1.85-4.44-4.26-4.5l0,0c-2.42-0.06-4.44,1.84-4.5,4.27l-0.25,9.32
							c-0.06,2.42,1.85,4.44,4.27,4.5l0,0c2.42,0.07,4.44-1.84,4.5-4.27L-18.83,18.53z"/>
						<path class="st21" d="M-23.09,13.81c-2.54-0.07-4.66,1.94-4.72,4.48l-0.24,9.32c-0.07,2.54,1.94,4.65,4.48,4.72
							c2.54,0.07,4.66-1.94,4.72-4.48l0.25-9.32C-18.54,16-20.55,13.88-23.09,13.81z M-23.57,31.89c-2.3-0.06-4.12-1.97-4.06-4.27
							l0.25-9.32c0.06-2.3,1.97-4.11,4.27-4.06c2.3,0.06,4.11,1.98,4.05,4.27l-0.25,9.32C-19.36,30.15-21.27,31.96-23.57,31.89z"/>
					</g>
					<path class="st22" d="M-19.84,19.55c0.05-1.87-1.43-3.43-3.31-3.49l0,0c-1.88-0.05-3.44,1.43-3.49,3.31l-0.19,7.22
						c-0.05,1.88,1.43,3.44,3.31,3.48l0,0c1.88,0.06,3.44-1.42,3.48-3.31L-19.84,19.55z"/>
					<path class="st23" d="M-22.73,25.66c0.02-0.89-0.68-1.63-1.57-1.65c-0.89-0.02-1.63,0.68-1.65,1.56
						c-0.02,0.89,0.68,1.63,1.57,1.65C-23.49,27.25-22.75,26.55-22.73,25.66z"/>
					<path class="st24" d="M-22.62,21.39c0.02-0.89-0.68-1.63-1.56-1.65c-0.89-0.02-1.63,0.68-1.65,1.57
						c-0.02,0.89,0.68,1.63,1.57,1.65C-23.38,22.98-22.64,22.28-22.62,21.39z"/>
				</g>
				<g>
					<g>
						<path class="st2" d="M20.36,19.56c0.06-2.42,2.08-4.33,4.5-4.27l0,0c2.42,0.07,4.33,2.08,4.27,4.5l-0.25,9.32
							c-0.07,2.43-2.08,4.34-4.5,4.27l0,0c-2.42-0.06-4.33-2.08-4.27-4.5L20.36,19.56z"/>
						<path class="st21" d="M24.86,15.07c-2.53-0.07-4.66,1.95-4.72,4.48l-0.25,9.32c-0.07,2.54,1.95,4.66,4.48,4.72
							c2.54,0.07,4.66-1.95,4.73-4.48l0.24-9.32C29.41,17.26,27.4,15.14,24.86,15.07z M24.38,33.16c-2.29-0.06-4.11-1.97-4.05-4.26
							l0.25-9.32c0.06-2.29,1.98-4.11,4.27-4.05c2.3,0.06,4.12,1.98,4.06,4.28l-0.25,9.32C28.6,31.41,26.68,33.22,24.38,33.16z"/>
					</g>
					<path class="st22" d="M21.32,20.64c0.05-1.88,1.61-3.35,3.49-3.31l0,0c1.88,0.05,3.36,1.61,3.31,3.49l-0.19,7.22
						c-0.05,1.88-1.61,3.36-3.49,3.31l0,0c-1.88-0.05-3.36-1.6-3.31-3.49L21.32,20.64z"/>
					<path class="st23" d="M23.88,26.89c0.03-0.89,0.77-1.59,1.65-1.56c0.89,0.03,1.59,0.76,1.57,1.65
						c-0.02,0.89-0.77,1.59-1.65,1.56C24.56,28.52,23.85,27.78,23.88,26.89z"/>
					<path class="st24" d="M23.99,22.62c0.02-0.89,0.76-1.59,1.65-1.57c0.88,0.03,1.59,0.76,1.56,1.65
						c-0.02,0.89-0.76,1.58-1.65,1.57C24.67,24.25,23.96,23.51,23.99,22.62z"/>
				</g>
				<g>
					<g>
						<path class="st2" d="M25,23.66C25.39,8.88,14.62,3.69,1.18,3.33C-12.26,2.98-23.29,7.6-23.68,22.37
							c-0.39,14.78,10.19,27.04,23.63,27.4C13.39,50.12,24.61,38.44,25,23.66z"/>
						<path class="st21" d="M1.19,3.11C-10.02,2.81-23.46,5.91-23.9,22.37c-0.39,14.88,10.3,27.27,23.85,27.62
							c13.54,0.36,24.87-11.46,25.26-26.33C25.65,7.21,12.39,3.4,1.19,3.11z M-0.04,49.55c-13.3-0.35-23.8-12.53-23.42-27.17
							C-23.03,6.29-9.83,3.25,1.17,3.54c11,0.29,24.03,4.01,23.6,20.11C24.39,38.29,13.26,49.9-0.04,49.55z"/>
					</g>
					<g>
						<path class="st2" d="M10.62,43.62c0.08-3.05-4.69-4.19-10.61-4.35c-5.92-0.16-10.74,0.73-10.82,3.78
							c-0.08,3.04,4.65,5.64,10.56,5.8C5.68,49.01,10.54,46.67,10.62,43.62z"/>
						<path class="st8" d="M0.02,39.06c-7.15-0.19-10.98,1.19-11.05,3.99c-0.08,3.16,4.75,5.86,10.78,6.02
							c6.03,0.16,11.01-2.28,11.09-5.44C10.92,40.83,7.17,39.25,0.02,39.06z M-0.24,48.63c-5.79-0.15-10.43-2.65-10.36-5.57
							c0.08-3.17,5.81-3.69,10.6-3.56c4.79,0.13,10.48,0.95,10.4,4.12C10.32,46.53,5.56,48.79-0.24,48.63z"/>
					</g>
					<path class="st22" d="M20,31.49c-2.05,7.64-19.28,7.19-19.28,7.19l-0.73-0.02c0,0-17.22-0.46-18.87-8.19
						c0,0-1.2-11.65,2.6-19.53c0,0,4.14-4.87,17.47-4.13c13.36-0.04,17.23,5.04,17.23,5.04C21.8,19.93,20,31.49,20,31.49z"/>
					<path class="st22" d="M-18.72,20.21c0.35-3.1,1.08-6.44,2.44-9.27c0,0,4.14-4.87,17.47-4.13c13.36-0.04,17.23,5.04,17.23,5.04
						c1.22,2.91,1.76,6.27,1.96,9.39L-18.72,20.21z"/>
					<path class="st6" d="M18.53,31.21c-1.89,7.06-17.81,6.63-17.81,6.63l-0.68-0.02c0,0-15.91-0.42-17.44-7.57
						c0,0-1.11-10.77,2.4-18.06c0,0,3.82-4.5,16.15-3.81c12.35-0.04,15.93,4.65,15.93,4.65C20.2,20.52,18.53,31.21,18.53,31.21z"/>
					<path class="st7" d="M-13.99,31.36c-0.64-1.71-0.03-3.42,1.36-4.55c1.36-1.11,3.08-1.73,4.77-2.16
						c1.98-0.51,4.02-0.81,6.05-0.92c4.46-0.24,9.38,0.32,13.16,2.89c2.75,1.87,5.81,6.33,1.37,8.22c-2.87,1.22-6.56,1.87-9.66,1.92
						c-0.78,0.01-1.59,0.05-2.37,0.03l-0.59-0.01c0,0-7.3-0.19-11.79-2.68C-12.7,33.38-13.57,32.49-13.99,31.36z"/>
				</g>
			</g>
			<path class="st25" d="M18.53,31.21c-1.89,7.06-17.81,6.63-17.81,6.63l-0.68-0.02c0,0-15.91-0.42-17.44-7.57
				c0,0-1.11-10.77,2.4-18.06c0,0,3.82-4.5,16.15-3.81c12.35-0.04,15.93,4.65,15.93,4.65C20.2,20.52,18.53,31.21,18.53,31.21z
				 M15.89,13.78c0,0-3.32-4.35-14.77-4.31C-10.3,8.83-13.84,13-13.84,13c-3.26,6.76-2.23,16.74-2.23,16.74
				c1.41,6.63,16.17,7.02,16.17,7.02l0.62,0.01c0,0,14.76,0.39,16.52-6.15C17.24,30.62,18.79,20.71,15.89,13.78z"/>
		</g>
		<path class="st22" d="M11.75,20.64c0-1.21-0.98-2.19-2.19-2.19H-7.79c-1.21,0-2.19,0.98-2.19,2.19l0,0c0,1.21,0.98,2.19,2.19,2.19
			H9.57C10.77,22.83,11.75,21.85,11.75,20.64L11.75,20.64z"/>
		<path class="st1" d="M9.89,20.64c0-0.75-0.81-1.37-1.81-1.37H-6.29c-1,0-1.81,0.61-1.81,1.37l0,0c0,0.75,0.81,1.37,1.81,1.37H8.08
			C9.08,22.01,9.89,21.4,9.89,20.64L9.89,20.64z"/>
		<g>
			<g>
				<path class="st24" d="M-3.07,20.64c0-0.62-0.5-1.13-1.13-1.13c-0.62,0-1.13,0.5-1.13,1.13c0,0.62,0.5,1.13,1.13,1.13
					C-3.58,21.77-3.07,21.26-3.07,20.64z"/>
				<path class="st26" d="M-4.03,21.02c0-0.26-0.21-0.48-0.48-0.48c-0.26,0-0.48,0.21-0.48,0.48c0,0.26,0.21,0.48,0.48,0.48
					C-4.24,21.5-4.03,21.28-4.03,21.02z"/>
			</g>
			<g>
				<path class="st24" d="M7.11,20.64c0-0.62-0.5-1.13-1.13-1.13c-0.62,0-1.13,0.5-1.13,1.13c0,0.62,0.5,1.13,1.13,1.13
					C6.6,21.77,7.11,21.26,7.11,20.64z"/>
				<path class="st26" d="M6.15,21.02c0-0.26-0.21-0.48-0.48-0.48c-0.26,0-0.48,0.21-0.48,0.48c0,0.26,0.21,0.48,0.48,0.48
					C5.94,21.5,6.15,21.28,6.15,21.02z"/>
			</g>
		</g>
		<path class="st7" d="M-11.73,22.63c0,0-0.48,1.84-2.12,1.3c-1.64-0.55,0.34-5.33,1.5-3.55C-11.18,22.16-11.73,22.63-11.73,22.63z"
			/>
	</g>
</symbol>
<use xlink:href="#Jiel"  width="69.52" height="100" x="-34.76" y="-50" transform="matrix(1 0 0 -1 34.7593 50)" style="overflow:visible;"/>
</svg>
